<?xml version="1.0" encoding="utf-8" standalone="no"?>
<!DOCTYPE svg PUBLIC "-//W3C//DTD SVG 1.1//EN"
  "http://www.w3.org/Graphics/SVG/1.1/DTD/svg11.dtd">
<svg xmlns:xlink="http://www.w3.org/1999/xlink" width="864pt" height="432pt" viewBox="0 0 864 432" xmlns="http://www.w3.org/2000/svg" version="1.1">
 <metadata>
  <rdf:RDF xmlns:dc="http://purl.org/dc/elements/1.1/" xmlns:cc="http://creativecommons.org/ns#" xmlns:rdf="http://www.w3.org/1999/02/22-rdf-syntax-ns#">
   <cc:Work>
    <dc:type rdf:resource="http://purl.org/dc/dcmitype/StillImage"/>
    <dc:date>2025-01-12T10:27:48.069977</dc:date>
    <dc:format>image/svg+xml</dc:format>
    <dc:creator>
     <cc:Agent>
      <dc:title>Matplotlib v3.8.3, https://matplotlib.org/</dc:title>
     </cc:Agent>
    </dc:creator>
   </cc:Work>
  </rdf:RDF>
 </metadata>
 <defs>
  <style type="text/css">*{stroke-linejoin: round; stroke-linecap: butt}</style>
 </defs>
 <g id="figure_1">
  <g id="patch_1">
   <path d="M 0 432 
L 864 432 
L 864 0 
L 0 0 
z
" style="fill: #ffffff"/>
  </g>
  <g id="axes_1">
   <g id="patch_2">
    <path d="M 56.72 387.16 
L 284.4 387.16 
L 284.4 30.18 
L 56.72 30.18 
z
" style="fill: #ffffff"/>
   </g>
   <g id="Quiver_1">
    <path d="M 67.069091 311.307109 
L 80.083073 311.307109 
L 79.229273 309.599509 
L 87.767273 312.160909 
L 79.229273 314.722309 
L 80.083073 313.014709 
L 67.069091 313.014709 
L 67.069091 311.307109 
" clip-path="url(#pcc97a9c6b3)" style="fill: #0000ff"/>
    <path d="M 89.972784 311.312331 
L 103.033765 309.861111 
L 101.996614 308.258242 
L 110.765253 309.861111 
L 102.562333 313.349709 
L 103.222338 311.558267 
L 90.161357 313.009487 
L 89.972784 311.312331 
" clip-path="url(#pcc97a9c6b3)" style="fill: #0000ff"/>
    <path d="M 112.879835 311.327441 
L 126.0768 308.394782 
L 124.872902 306.91306 
L 133.763232 307.561313 
L 125.984193 311.913871 
L 126.447231 310.061719 
L 113.250266 312.994378 
L 112.879835 311.327441 
" clip-path="url(#pcc97a9c6b3)" style="fill: #0000ff"/>
    <path d="M 135.793035 311.350923 
L 149.201345 306.881487 
L 147.851368 305.53151 
L 156.761212 305.261515 
L 149.47134 310.391425 
L 149.741335 308.501458 
L 136.333026 312.970895 
L 135.793035 311.350923 
" clip-path="url(#pcc97a9c6b3)" style="fill: #0000ff"/>
    <path d="M 158.714249 311.380697 
L 172.39052 305.302354 
L 170.916786 304.08869 
L 179.759192 302.961717 
L 172.997352 308.769964 
L 173.084042 306.862779 
L 159.407771 312.941121 
L 158.714249 311.380697 
" clip-path="url(#pcc97a9c6b3)" style="fill: #0000ff"/>
    <path d="M 181.644348 311.414554 
L 195.62533 303.647341 
L 194.049691 302.569272 
L 202.757172 300.661919 
L 196.537543 307.047405 
L 196.454614 305.140052 
L 182.473632 312.907265 
L 181.644348 311.414554 
" clip-path="url(#pcc97a9c6b3)" style="fill: #0000ff"/>
    <path d="M 204.583367 311.450505 
L 218.887908 301.914144 
L 217.230297 300.966938 
L 225.755152 298.362121 
L 220.071915 305.229365 
L 219.835114 303.334953 
L 205.530573 312.871314 
L 204.583367 311.450505 
" clip-path="url(#pcc97a9c6b3)" style="fill: #0000ff"/>
    <path d="M 227.530767 311.48696 
L 242.163409 300.106017 
L 240.441095 299.282301 
L 248.753131 296.062323 
L 243.58619 303.325995 
L 243.211774 301.453915 
L 228.579132 312.834858 
L 227.530767 311.48696 
" clip-path="url(#pcc97a9c6b3)" style="fill: #0000ff"/>
    <path d="M 250.485695 311.522771 
L 265.440635 298.229492 
L 263.668029 297.520449 
L 271.751111 293.762525 
L 267.071432 301.349278 
L 266.575102 299.505768 
L 251.620163 312.799047 
L 250.485695 311.522771 
" clip-path="url(#pcc97a9c6b3)" style="fill: #0000ff"/>
    <path d="M 273.447181 311.557181 
L 288.711813 296.292549 
L 286.90063 295.688822 
L 294.749091 291.462727 
L 290.522997 299.311188 
L 289.919269 297.500005 
L 274.654637 312.764637 
L 273.447181 311.557181 
" clip-path="url(#pcc97a9c6b3)" style="fill: #0000ff"/>
    <path d="M 67.069091 288.309129 
L 77.783275 288.309129 
L 76.929475 286.601529 
L 85.467475 289.162929 
L 76.929475 291.724329 
L 77.783275 290.016729 
L 67.069091 290.016729 
L 67.069091 288.309129 
" clip-path="url(#pcc97a9c6b3)" style="fill: #0000ff"/>
    <path d="M 89.96117 288.315722 
L 100.734692 286.969032 
L 99.675683 285.380519 
L 108.465455 286.863131 
L 100.311089 290.46376 
L 100.946494 288.663446 
L 90.172972 290.010136 
L 89.96117 288.315722 
" clip-path="url(#pcc97a9c6b3)" style="fill: #0000ff"/>
    <path d="M 112.857974 288.334622 
L 123.801588 285.598718 
L 122.559127 284.14918 
L 131.463434 284.563333 
L 123.801588 289.119025 
L 124.215742 287.255333 
L 113.272127 289.991237 
L 112.857974 288.334622 
" clip-path="url(#pcc97a9c6b3)" style="fill: #0000ff"/>
    <path d="M 135.763241 288.363491 
L 146.966684 284.1622 
L 145.567668 282.863114 
L 154.461414 282.263535 
L 147.366403 287.659741 
L 147.566263 285.761076 
L 136.362819 289.962367 
L 135.763241 288.363491 
" clip-path="url(#pcc97a9c6b3)" style="fill: #0000ff"/>
    <path d="M 158.679179 288.399267 
L 170.204606 282.636554 
L 168.677282 281.491061 
L 177.459394 279.963737 
L 170.968267 286.073033 
L 170.968267 284.163878 
L 159.442841 289.926591 
L 158.679179 288.399267 
" clip-path="url(#pcc97a9c6b3)" style="fill: #0000ff"/>
    <path d="M 181.606477 288.438908 
L 193.488672 281.012536 
L 191.859625 280.017007 
L 200.457374 277.663939 
L 194.574704 284.361133 
L 194.393698 282.460578 
L 182.511503 289.88695 
L 181.606477 288.438908 
" clip-path="url(#pcc97a9c6b3)" style="fill: #0000ff"/>
    <path d="M 204.54469 288.479889 
L 216.795714 279.291621 
L 215.088114 278.437821 
L 223.455354 275.364141 
L 218.161794 282.536061 
L 217.820274 280.657701 
L 205.56925 289.845969 
L 204.54469 288.479889 
" clip-path="url(#pcc97a9c6b3)" style="fill: #0000ff"/>
    <path d="M 227.492718 288.520379 
L 240.108152 277.481875 
L 238.34114 276.759006 
L 246.453333 273.064343 
L 241.714527 280.614306 
L 241.232615 278.766975 
L 228.617181 289.805479 
L 227.492718 288.520379 
" clip-path="url(#pcc97a9c6b3)" style="fill: #0000ff"/>
    <path d="M 250.449202 288.559202 
L 263.414035 275.594368 
L 261.602852 274.99064 
L 269.451313 270.764545 
L 265.225219 278.613006 
L 264.621491 276.801823 
L 251.656657 289.766657 
L 250.449202 288.559202 
" clip-path="url(#pcc97a9c6b3)" style="fill: #0000ff"/>
    <path d="M 67.069091 265.311149 
L 75.483477 265.311149 
L 74.629677 263.603549 
L 83.167677 266.164949 
L 74.629677 268.726349 
L 75.483477 267.018749 
L 67.069091 267.018749 
L 67.069091 265.311149 
" clip-path="url(#pcc97a9c6b3)" style="fill: #0000ff"/>
    <path d="M 89.946325 265.319731 
L 98.437941 264.106643 
L 97.351231 262.53695 
L 106.165657 263.865152 
L 98.075704 267.608264 
L 98.679432 265.79708 
L 90.187816 267.010168 
L 89.946325 265.319731 
" clip-path="url(#pcc97a9c6b3)" style="fill: #0000ff"/>
    <path d="M 112.830494 265.344 
L 121.540537 262.855416 
L 120.250474 261.448075 
L 129.163636 261.565354 
L 121.657816 266.37377 
L 122.009651 264.497315 
L 113.299607 266.985899 
L 112.830494 265.344 
" clip-path="url(#pcc97a9c6b3)" style="fill: #0000ff"/>
    <path d="M 135.726702 265.380183 
L 144.762394 261.507744 
L 143.304971 260.27454 
L 152.161616 259.265556 
L 145.322941 264.983137 
L 145.43505 263.077276 
L 136.399359 266.949716 
L 135.726702 265.380183 
" clip-path="url(#pcc97a9c6b3)" style="fill: #0000ff"/>
    <path d="M 158.637407 265.423644 
L 168.064239 260.036882 
L 166.475726 258.977874 
L 175.159596 256.965758 
L 169.017346 263.42571 
L 168.911445 261.519494 
L 159.484614 266.906255 
L 158.637407 265.423644 
" clip-path="url(#pcc97a9c6b3)" style="fill: #0000ff"/>
    <path d="M 181.562729 265.470184 
L 191.408424 258.437544 
L 189.721136 257.544274 
L 198.157576 254.66596 
L 192.698703 261.712868 
L 192.400946 259.827076 
L 182.555251 266.859715 
L 181.562729 265.470184 
" clip-path="url(#pcc97a9c6b3)" style="fill: #0000ff"/>
    <path d="M 204.501324 265.516696 
L 214.76563 256.718719 
L 213.006086 255.977859 
L 221.155556 252.366162 
L 216.33996 259.867378 
L 215.876922 258.015226 
L 205.612615 266.813203 
L 204.501324 265.516696 
" clip-path="url(#pcc97a9c6b3)" style="fill: #0000ff"/>
    <path d="M 227.451222 265.561222 
L 238.116258 254.896186 
L 236.305074 254.292458 
L 244.153535 250.066364 
L 239.927441 257.914825 
L 239.323713 256.103641 
L 228.658677 266.768677 
L 227.451222 265.561222 
" clip-path="url(#pcc97a9c6b3)" style="fill: #0000ff"/>
    <path d="M 67.069091 242.31317 
L 73.183679 242.31317 
L 72.329879 240.60557 
L 80.867879 243.16697 
L 72.329879 245.72837 
L 73.183679 244.02077 
L 67.069091 244.02077 
L 67.069091 242.31317 
" clip-path="url(#pcc97a9c6b3)" style="fill: #0000ff"/>
    <path d="M 89.926707 242.324787 
L 96.145847 241.288263 
L 95.022936 239.744261 
L 103.865859 240.867172 
L 95.865119 244.79736 
L 96.426574 242.97263 
L 90.207435 244.009153 
L 89.926707 242.324787 
" clip-path="url(#pcc97a9c6b3)" style="fill: #0000ff"/>
    <path d="M 112.795055 242.356984 
L 119.303971 240.187345 
L 117.953995 238.837369 
L 126.863838 238.567374 
L 119.573966 243.697284 
L 119.843961 241.807317 
L 113.335046 243.976955 
L 112.795055 242.356984 
" clip-path="url(#pcc97a9c6b3)" style="fill: #0000ff"/>
    <path d="M 135.681199 242.403308 
L 142.60703 238.940393 
L 141.079706 237.7949 
L 149.861818 236.267576 
L 143.370692 242.376871 
L 143.370692 240.467716 
L 136.444861 243.930632 
L 135.681199 242.403308 
" clip-path="url(#pcc97a9c6b3)" style="fill: #0000ff"/>
    <path d="M 158.587407 242.456565 
L 165.992554 237.5198 
L 164.334943 236.572594 
L 172.859798 233.967778 
L 167.176562 240.835022 
L 166.93976 238.94061 
L 159.534613 243.877374 
L 158.587407 242.456565 
" clip-path="url(#pcc97a9c6b3)" style="fill: #0000ff"/>
    <path d="M 181.5124 242.511062 
L 189.408022 235.931377 
L 187.658936 235.166152 
L 195.857778 231.66798 
L 190.938473 239.101596 
L 190.501201 237.243192 
L 182.605579 243.822877 
L 181.5124 242.511062 
" clip-path="url(#pcc97a9c6b3)" style="fill: #0000ff"/>
    <path d="M 204.453242 242.563242 
L 212.81848 234.198004 
L 211.007297 233.594276 
L 218.855758 229.368182 
L 214.629663 237.216643 
L 214.025935 235.40546 
L 205.660697 243.770697 
L 204.453242 242.563242 
" clip-path="url(#pcc97a9c6b3)" style="fill: #0000ff"/>
    <path d="M 67.069091 219.31519 
L 70.883881 219.31519 
L 70.030081 217.60759 
L 78.568081 220.16899 
L 70.030081 222.73039 
L 70.883881 221.02279 
L 67.069091 221.02279 
L 67.069091 219.31519 
" clip-path="url(#pcc97a9c6b3)" style="fill: #0000ff"/>
    <path d="M 89.899627 219.33177 
L 93.863639 218.538968 
L 92.691531 217.031972 
L 101.566061 217.869192 
L 93.696195 222.055291 
L 94.198527 220.213407 
L 90.234515 221.00621 
L 89.899627 219.33177 
" clip-path="url(#pcc97a9c6b3)" style="fill: #0000ff"/>
    <path d="M 112.747957 219.376257 
L 117.112346 217.630501 
L 115.685426 216.362127 
L 124.56404 215.569394 
L 117.587986 221.118528 
L 117.746533 219.215968 
L 113.382144 220.961723 
L 112.747957 219.376257 
" clip-path="url(#pcc97a9c6b3)" style="fill: #0000ff"/>
    <path d="M 135.623754 219.436862 
L 140.533597 216.490957 
L 138.922916 215.465978 
L 147.56202 213.269596 
L 141.558575 219.858743 
L 141.41215 217.955212 
L 136.502307 220.901117 
L 135.623754 219.436862 
" clip-path="url(#pcc97a9c6b3)" style="fill: #0000ff"/>
    <path d="M 158.527645 219.502284 
L 164.026283 215.103374 
L 162.292848 214.303327 
L 170.56 210.969798 
L 165.493036 218.303562 
L 165.093013 216.436785 
L 159.594375 220.835696 
L 158.527645 219.502284 
" clip-path="url(#pcc97a9c6b3)" style="fill: #0000ff"/>
    <path d="M 181.455262 219.565262 
L 187.520702 213.499822 
L 185.709519 212.896094 
L 193.55798 208.67 
L 189.331885 216.518461 
L 188.728158 214.707278 
L 182.662718 220.772718 
L 181.455262 219.565262 
" clip-path="url(#pcc97a9c6b3)" style="fill: #0000ff"/>
    <path d="M 67.069091 196.31721 
L 68.584083 196.31721 
L 67.730283 194.60961 
L 76.268283 197.17101 
L 67.730283 199.73241 
L 68.584083 198.02481 
L 67.069091 198.02481 
L 67.069091 196.31721 
" clip-path="url(#pcc97a9c6b3)" style="fill: #0000ff"/>
    <path d="M 89.859994 196.342702 
L 91.604417 195.906597 
L 90.361955 194.457058 
L 99.266263 194.871212 
L 91.604417 199.426904 
L 92.018571 197.563212 
L 90.274148 197.999318 
L 89.859994 196.342702 
" clip-path="url(#pcc97a9c6b3)" style="fill: #0000ff"/>
    <path d="M 112.68322 196.407348 
L 115.009454 195.244231 
L 113.48213 194.098738 
L 122.264242 192.571414 
L 115.773116 198.68071 
L 115.773116 196.771555 
L 113.446881 197.934672 
L 112.68322 196.407348 
" clip-path="url(#pcc97a9c6b3)" style="fill: #0000ff"/>
    <path d="M 135.55075 196.48797 
L 138.602582 194.199096 
L 136.894982 193.345296 
L 145.262222 190.271616 
L 139.968662 197.443536 
L 139.627142 195.565176 
L 136.57531 197.85405 
L 135.55075 196.48797 
" clip-path="url(#pcc97a9c6b3)" style="fill: #0000ff"/>
    <path d="M 158.457282 196.567282 
L 162.222924 192.80164 
L 160.411741 192.197913 
L 168.260202 187.971818 
L 164.034108 195.820279 
L 163.43038 194.009096 
L 159.664738 197.774738 
L 158.457282 196.567282 
" clip-path="url(#pcc97a9c6b3)" style="fill: #0000ff"/>
    <path d="M 67.069091 173.483091 
L 67.75903 173.483091 
L 67.069091 172.103212 
L 73.968485 174.17303 
L 67.069091 176.242848 
L 67.75903 174.86297 
L 67.069091 174.86297 
L 67.069091 173.483091 
" clip-path="url(#pcc97a9c6b3)" style="fill: #0000ff"/>
    <path d="M 89.837091 173.483091 
L 90.52703 173.253111 
L 89.377131 172.103212 
L 96.966465 171.873232 
L 90.75701 176.242848 
L 90.98699 174.63299 
L 90.297051 174.86297 
L 89.837091 173.483091 
" clip-path="url(#pcc97a9c6b3)" style="fill: #0000ff"/>
    <path d="M 112.605091 173.483091 
L 113.29503 173.023131 
L 111.685172 172.103212 
L 119.964444 169.573434 
L 114.444929 176.242848 
L 114.214949 174.40301 
L 113.52501 174.86297 
L 112.605091 173.483091 
" clip-path="url(#pcc97a9c6b3)" style="fill: #0000ff"/>
    <path d="M 135.459303 173.569303 
L 136.925147 172.103459 
L 135.113963 171.499731 
L 142.962424 167.273636 
L 138.73633 175.122097 
L 138.132602 173.310914 
L 136.666758 174.776758 
L 135.459303 173.569303 
" clip-path="url(#pcc97a9c6b3)" style="fill: #0000ff"/>
    <path d="M 67.069091 150.715091 
L 67.529051 150.715091 
L 67.069091 149.795172 
L 71.668687 151.175051 
L 67.069091 152.554929 
L 67.529051 151.63501 
L 67.069091 151.63501 
L 67.069091 150.715091 
" clip-path="url(#pcc97a9c6b3)" style="fill: #0000ff"/>
    <path d="M 89.837091 150.715091 
L 90.297051 150.485111 
L 89.377131 149.795172 
L 94.666667 148.875253 
L 90.75701 152.554929 
L 90.75701 151.40503 
L 90.297051 151.63501 
L 89.837091 150.715091 
" clip-path="url(#pcc97a9c6b3)" style="fill: #0000ff"/>
    <path d="M 112.605091 150.715091 
L 113.065051 150.255131 
L 111.685172 149.795172 
L 117.664646 146.575455 
L 114.444929 152.554929 
L 113.98497 151.175051 
L 113.52501 151.63501 
L 112.605091 150.715091 
" clip-path="url(#pcc97a9c6b3)" style="fill: #0000ff"/>
    <path d="M 67.069091 127.947091 
L 67.299071 127.947091 
L 67.069091 127.487131 
L 69.368889 128.177071 
L 67.069091 128.86701 
L 67.299071 128.407051 
L 67.069091 128.407051 
L 67.069091 127.947091 
" clip-path="url(#pcc97a9c6b3)" style="fill: #0000ff"/>
    <path d="M 89.837091 127.947091 
L 90.067071 127.717111 
L 89.377131 127.487131 
L 92.366869 125.877273 
L 90.75701 128.86701 
L 90.52703 128.177071 
L 90.297051 128.407051 
L 89.837091 127.947091 
" clip-path="url(#pcc97a9c6b3)" style="fill: #0000ff"/>
    <path d="M 67.922891 105.179091 
L 67.495991 104.439678 
L 66.642191 104.439678 
L 66.215291 105.179091 
L 66.642191 105.918503 
L 67.495991 105.918503 
L 67.922891 105.179091 
L 67.495991 104.439678 
" clip-path="url(#pcc97a9c6b3)" style="fill: #0000ff"/>
   </g>
   <g id="matplotlib.axis_1">
    <g id="xtick_1">
     <g id="line2d_1">
      <defs>
       <path id="m686641b768" d="M 0 0 
L 0 3.5 
" style="stroke: #000000; stroke-width: 0.8"/>
      </defs>
      <g>
       <use xlink:href="#m686641b768" x="67.069091" y="387.16" style="stroke: #000000; stroke-width: 0.8"/>
      </g>
     </g>
     <g id="text_1">
      <!-- 0.0 -->
      <g transform="translate(59.117528 401.758438) scale(0.1 -0.1)">
       <defs>
        <path id="DejaVuSans-30" d="M 2034 4250 
Q 1547 4250 1301 3770 
Q 1056 3291 1056 2328 
Q 1056 1369 1301 889 
Q 1547 409 2034 409 
Q 2525 409 2770 889 
Q 3016 1369 3016 2328 
Q 3016 3291 2770 3770 
Q 2525 4250 2034 4250 
z
M 2034 4750 
Q 2819 4750 3233 4129 
Q 3647 3509 3647 2328 
Q 3647 1150 3233 529 
Q 2819 -91 2034 -91 
Q 1250 -91 836 529 
Q 422 1150 422 2328 
Q 422 3509 836 4129 
Q 1250 4750 2034 4750 
z
" transform="scale(0.015625)"/>
        <path id="DejaVuSans-2e" d="M 684 794 
L 1344 794 
L 1344 0 
L 684 0 
L 684 794 
z
" transform="scale(0.015625)"/>
       </defs>
       <use xlink:href="#DejaVuSans-30"/>
       <use xlink:href="#DejaVuSans-2e" x="63.623047"/>
       <use xlink:href="#DejaVuSans-30" x="95.410156"/>
      </g>
     </g>
    </g>
    <g id="xtick_2">
     <g id="line2d_2">
      <g>
       <use xlink:href="#m686641b768" x="108.465455" y="387.16" style="stroke: #000000; stroke-width: 0.8"/>
      </g>
     </g>
     <g id="text_2">
      <!-- 0.2 -->
      <g transform="translate(100.513892 401.758438) scale(0.1 -0.1)">
       <defs>
        <path id="DejaVuSans-32" d="M 1228 531 
L 3431 531 
L 3431 0 
L 469 0 
L 469 531 
Q 828 903 1448 1529 
Q 2069 2156 2228 2338 
Q 2531 2678 2651 2914 
Q 2772 3150 2772 3378 
Q 2772 3750 2511 3984 
Q 2250 4219 1831 4219 
Q 1534 4219 1204 4116 
Q 875 4013 500 3803 
L 500 4441 
Q 881 4594 1212 4672 
Q 1544 4750 1819 4750 
Q 2544 4750 2975 4387 
Q 3406 4025 3406 3419 
Q 3406 3131 3298 2873 
Q 3191 2616 2906 2266 
Q 2828 2175 2409 1742 
Q 1991 1309 1228 531 
z
" transform="scale(0.015625)"/>
       </defs>
       <use xlink:href="#DejaVuSans-30"/>
       <use xlink:href="#DejaVuSans-2e" x="63.623047"/>
       <use xlink:href="#DejaVuSans-32" x="95.410156"/>
      </g>
     </g>
    </g>
    <g id="xtick_3">
     <g id="line2d_3">
      <g>
       <use xlink:href="#m686641b768" x="149.861818" y="387.16" style="stroke: #000000; stroke-width: 0.8"/>
      </g>
     </g>
     <g id="text_3">
      <!-- 0.4 -->
      <g transform="translate(141.910256 401.758438) scale(0.1 -0.1)">
       <defs>
        <path id="DejaVuSans-34" d="M 2419 4116 
L 825 1625 
L 2419 1625 
L 2419 4116 
z
M 2253 4666 
L 3047 4666 
L 3047 1625 
L 3713 1625 
L 3713 1100 
L 3047 1100 
L 3047 0 
L 2419 0 
L 2419 1100 
L 313 1100 
L 313 1709 
L 2253 4666 
z
" transform="scale(0.015625)"/>
       </defs>
       <use xlink:href="#DejaVuSans-30"/>
       <use xlink:href="#DejaVuSans-2e" x="63.623047"/>
       <use xlink:href="#DejaVuSans-34" x="95.410156"/>
      </g>
     </g>
    </g>
    <g id="xtick_4">
     <g id="line2d_4">
      <g>
       <use xlink:href="#m686641b768" x="191.258182" y="387.16" style="stroke: #000000; stroke-width: 0.8"/>
      </g>
     </g>
     <g id="text_4">
      <!-- 0.6 -->
      <g transform="translate(183.306619 401.758438) scale(0.1 -0.1)">
       <defs>
        <path id="DejaVuSans-36" d="M 2113 2584 
Q 1688 2584 1439 2293 
Q 1191 2003 1191 1497 
Q 1191 994 1439 701 
Q 1688 409 2113 409 
Q 2538 409 2786 701 
Q 3034 994 3034 1497 
Q 3034 2003 2786 2293 
Q 2538 2584 2113 2584 
z
M 3366 4563 
L 3366 3988 
Q 3128 4100 2886 4159 
Q 2644 4219 2406 4219 
Q 1781 4219 1451 3797 
Q 1122 3375 1075 2522 
Q 1259 2794 1537 2939 
Q 1816 3084 2150 3084 
Q 2853 3084 3261 2657 
Q 3669 2231 3669 1497 
Q 3669 778 3244 343 
Q 2819 -91 2113 -91 
Q 1303 -91 875 529 
Q 447 1150 447 2328 
Q 447 3434 972 4092 
Q 1497 4750 2381 4750 
Q 2619 4750 2861 4703 
Q 3103 4656 3366 4563 
z
" transform="scale(0.015625)"/>
       </defs>
       <use xlink:href="#DejaVuSans-30"/>
       <use xlink:href="#DejaVuSans-2e" x="63.623047"/>
       <use xlink:href="#DejaVuSans-36" x="95.410156"/>
      </g>
     </g>
    </g>
    <g id="xtick_5">
     <g id="line2d_5">
      <g>
       <use xlink:href="#m686641b768" x="232.654545" y="387.16" style="stroke: #000000; stroke-width: 0.8"/>
      </g>
     </g>
     <g id="text_5">
      <!-- 0.8 -->
      <g transform="translate(224.702983 401.758438) scale(0.1 -0.1)">
       <defs>
        <path id="DejaVuSans-38" d="M 2034 2216 
Q 1584 2216 1326 1975 
Q 1069 1734 1069 1313 
Q 1069 891 1326 650 
Q 1584 409 2034 409 
Q 2484 409 2743 651 
Q 3003 894 3003 1313 
Q 3003 1734 2745 1975 
Q 2488 2216 2034 2216 
z
M 1403 2484 
Q 997 2584 770 2862 
Q 544 3141 544 3541 
Q 544 4100 942 4425 
Q 1341 4750 2034 4750 
Q 2731 4750 3128 4425 
Q 3525 4100 3525 3541 
Q 3525 3141 3298 2862 
Q 3072 2584 2669 2484 
Q 3125 2378 3379 2068 
Q 3634 1759 3634 1313 
Q 3634 634 3220 271 
Q 2806 -91 2034 -91 
Q 1263 -91 848 271 
Q 434 634 434 1313 
Q 434 1759 690 2068 
Q 947 2378 1403 2484 
z
M 1172 3481 
Q 1172 3119 1398 2916 
Q 1625 2713 2034 2713 
Q 2441 2713 2670 2916 
Q 2900 3119 2900 3481 
Q 2900 3844 2670 4047 
Q 2441 4250 2034 4250 
Q 1625 4250 1398 4047 
Q 1172 3844 1172 3481 
z
" transform="scale(0.015625)"/>
       </defs>
       <use xlink:href="#DejaVuSans-30"/>
       <use xlink:href="#DejaVuSans-2e" x="63.623047"/>
       <use xlink:href="#DejaVuSans-38" x="95.410156"/>
      </g>
     </g>
    </g>
    <g id="xtick_6">
     <g id="line2d_6">
      <g>
       <use xlink:href="#m686641b768" x="274.050909" y="387.16" style="stroke: #000000; stroke-width: 0.8"/>
      </g>
     </g>
     <g id="text_6">
      <!-- 1.0 -->
      <g transform="translate(266.099347 401.758438) scale(0.1 -0.1)">
       <defs>
        <path id="DejaVuSans-31" d="M 794 531 
L 1825 531 
L 1825 4091 
L 703 3866 
L 703 4441 
L 1819 4666 
L 2450 4666 
L 2450 531 
L 3481 531 
L 3481 0 
L 794 0 
L 794 531 
z
" transform="scale(0.015625)"/>
       </defs>
       <use xlink:href="#DejaVuSans-31"/>
       <use xlink:href="#DejaVuSans-2e" x="63.623047"/>
       <use xlink:href="#DejaVuSans-30" x="95.410156"/>
      </g>
     </g>
    </g>
    <g id="text_7">
     <!-- $\xi$ -->
     <g transform="translate(167.76 415.438125) scale(0.1 -0.1)">
      <defs>
       <path id="DejaVuSans-Oblique-3be" d="M 2016 397 
Q 2428 394 2628 159 
Q 2844 -88 2772 -463 
Q 2700 -822 2422 -1072 
Q 2119 -1344 1609 -1344 
Q 1656 -1109 1700 -872 
Q 1913 -888 2072 -750 
Q 2194 -641 2216 -525 
Q 2247 -359 2175 -222 
Q 2100 -91 1922 -91 
Q -25 -91 241 1275 
Q 422 2213 1516 2488 
Q 663 2600 822 3413 
Q 941 4028 1678 4284 
L 1028 4284 
L 1141 4863 
L 3606 4863 
L 3494 4284 
Q 1528 4284 1350 3375 
Q 1234 2778 2881 2750 
L 2778 2219 
Q 1009 2288 819 1275 
Q 659 428 2016 397 
z
" transform="scale(0.015625)"/>
      </defs>
      <use xlink:href="#DejaVuSans-Oblique-3be" transform="translate(0 0.015625)"/>
     </g>
    </g>
   </g>
   <g id="matplotlib.axis_2">
    <g id="ytick_1">
     <g id="line2d_7">
      <defs>
       <path id="m00b1dff271" d="M 0 0 
L -3.5 0 
" style="stroke: #000000; stroke-width: 0.8"/>
      </defs>
      <g>
       <use xlink:href="#m00b1dff271" x="56.72" y="353.557273" style="stroke: #000000; stroke-width: 0.8"/>
      </g>
     </g>
     <g id="text_8">
      <!-- −0.2 -->
      <g transform="translate(25.437187 357.356491) scale(0.1 -0.1)">
       <defs>
        <path id="DejaVuSans-2212" d="M 678 2272 
L 4684 2272 
L 4684 1741 
L 678 1741 
L 678 2272 
z
" transform="scale(0.015625)"/>
       </defs>
       <use xlink:href="#DejaVuSans-2212"/>
       <use xlink:href="#DejaVuSans-30" x="83.789062"/>
       <use xlink:href="#DejaVuSans-2e" x="147.412109"/>
       <use xlink:href="#DejaVuSans-32" x="179.199219"/>
      </g>
     </g>
    </g>
    <g id="ytick_2">
     <g id="line2d_8">
      <g>
       <use xlink:href="#m00b1dff271" x="56.72" y="312.160909" style="stroke: #000000; stroke-width: 0.8"/>
      </g>
     </g>
     <g id="text_9">
      <!-- 0.0 -->
      <g transform="translate(33.816875 315.960128) scale(0.1 -0.1)">
       <use xlink:href="#DejaVuSans-30"/>
       <use xlink:href="#DejaVuSans-2e" x="63.623047"/>
       <use xlink:href="#DejaVuSans-30" x="95.410156"/>
      </g>
     </g>
    </g>
    <g id="ytick_3">
     <g id="line2d_9">
      <g>
       <use xlink:href="#m00b1dff271" x="56.72" y="270.764545" style="stroke: #000000; stroke-width: 0.8"/>
      </g>
     </g>
     <g id="text_10">
      <!-- 0.2 -->
      <g transform="translate(33.816875 274.563764) scale(0.1 -0.1)">
       <use xlink:href="#DejaVuSans-30"/>
       <use xlink:href="#DejaVuSans-2e" x="63.623047"/>
       <use xlink:href="#DejaVuSans-32" x="95.410156"/>
      </g>
     </g>
    </g>
    <g id="ytick_4">
     <g id="line2d_10">
      <g>
       <use xlink:href="#m00b1dff271" x="56.72" y="229.368182" style="stroke: #000000; stroke-width: 0.8"/>
      </g>
     </g>
     <g id="text_11">
      <!-- 0.4 -->
      <g transform="translate(33.816875 233.167401) scale(0.1 -0.1)">
       <use xlink:href="#DejaVuSans-30"/>
       <use xlink:href="#DejaVuSans-2e" x="63.623047"/>
       <use xlink:href="#DejaVuSans-34" x="95.410156"/>
      </g>
     </g>
    </g>
    <g id="ytick_5">
     <g id="line2d_11">
      <g>
       <use xlink:href="#m00b1dff271" x="56.72" y="187.971818" style="stroke: #000000; stroke-width: 0.8"/>
      </g>
     </g>
     <g id="text_12">
      <!-- 0.6 -->
      <g transform="translate(33.816875 191.771037) scale(0.1 -0.1)">
       <use xlink:href="#DejaVuSans-30"/>
       <use xlink:href="#DejaVuSans-2e" x="63.623047"/>
       <use xlink:href="#DejaVuSans-36" x="95.410156"/>
      </g>
     </g>
    </g>
    <g id="ytick_6">
     <g id="line2d_12">
      <g>
       <use xlink:href="#m00b1dff271" x="56.72" y="146.575455" style="stroke: #000000; stroke-width: 0.8"/>
      </g>
     </g>
     <g id="text_13">
      <!-- 0.8 -->
      <g transform="translate(33.816875 150.374673) scale(0.1 -0.1)">
       <use xlink:href="#DejaVuSans-30"/>
       <use xlink:href="#DejaVuSans-2e" x="63.623047"/>
       <use xlink:href="#DejaVuSans-38" x="95.410156"/>
      </g>
     </g>
    </g>
    <g id="ytick_7">
     <g id="line2d_13">
      <g>
       <use xlink:href="#m00b1dff271" x="56.72" y="105.179091" style="stroke: #000000; stroke-width: 0.8"/>
      </g>
     </g>
     <g id="text_14">
      <!-- 1.0 -->
      <g transform="translate(33.816875 108.97831) scale(0.1 -0.1)">
       <use xlink:href="#DejaVuSans-31"/>
       <use xlink:href="#DejaVuSans-2e" x="63.623047"/>
       <use xlink:href="#DejaVuSans-30" x="95.410156"/>
      </g>
     </g>
    </g>
    <g id="ytick_8">
     <g id="line2d_14">
      <g>
       <use xlink:href="#m00b1dff271" x="56.72" y="63.782727" style="stroke: #000000; stroke-width: 0.8"/>
      </g>
     </g>
     <g id="text_15">
      <!-- 1.2 -->
      <g transform="translate(33.816875 67.581946) scale(0.1 -0.1)">
       <use xlink:href="#DejaVuSans-31"/>
       <use xlink:href="#DejaVuSans-2e" x="63.623047"/>
       <use xlink:href="#DejaVuSans-32" x="95.410156"/>
      </g>
     </g>
    </g>
    <g id="text_16">
     <!-- $\eta$ -->
     <g transform="translate(19.337187 211.87) rotate(-90) scale(0.1 -0.1)">
      <defs>
       <path id="DejaVuSans-Oblique-3b7" d="M 3703 2113 
L 3034 -1331 
L 2459 -1331 
L 3125 2094 
Q 3222 2591 3075 2838 
Q 2931 3084 2544 3084 
Q 2078 3084 1750 2788 
Q 1425 2491 1325 1978 
L 941 0 
L 363 0 
L 1044 3500 
L 1622 3500 
L 1516 2956 
Q 1781 3272 2094 3428 
Q 2403 3584 2769 3584 
Q 3372 3584 3609 3213 
Q 3844 2838 3703 2113 
z
" transform="scale(0.015625)"/>
      </defs>
      <use xlink:href="#DejaVuSans-Oblique-3b7"/>
     </g>
    </g>
   </g>
   <g id="line2d_15">
    <path d="M 67.069091 312.160909 
L 274.050909 312.160909 
L 67.069091 105.179091 
L 67.069091 312.160909 
" clip-path="url(#pcc97a9c6b3)" style="fill: none; stroke: #000000; stroke-width: 1.5; stroke-linecap: square"/>
   </g>
   <g id="patch_3">
    <path d="M 56.72 387.16 
L 56.72 30.18 
" style="fill: none; stroke: #000000; stroke-width: 0.8; stroke-linejoin: miter; stroke-linecap: square"/>
   </g>
   <g id="patch_4">
    <path d="M 284.4 387.16 
L 284.4 30.18 
" style="fill: none; stroke: #000000; stroke-width: 0.8; stroke-linejoin: miter; stroke-linecap: square"/>
   </g>
   <g id="patch_5">
    <path d="M 56.72 387.16 
L 284.4 387.16 
" style="fill: none; stroke: #000000; stroke-width: 0.8; stroke-linejoin: miter; stroke-linecap: square"/>
   </g>
   <g id="patch_6">
    <path d="M 56.72 30.18 
L 284.4 30.18 
" style="fill: none; stroke: #000000; stroke-width: 0.8; stroke-linejoin: miter; stroke-linecap: square"/>
   </g>
   <g id="text_17">
    <!-- $\hat{\varphi}_{1}$ -->
    <g transform="translate(163.66 24.18) scale(0.12 -0.12)">
     <defs>
      <path id="DejaVuSans-302" d="M -1831 5119 
L -1369 5119 
L -603 3944 
L -1038 3944 
L -1600 4709 
L -2163 3944 
L -2597 3944 
L -1831 5119 
z
M -1600 3584 
L -1600 3584 
z
" transform="scale(0.015625)"/>
      <path id="DejaVuSans-Oblique-3c6" d="M 2969 3034 
Q 2766 3034 2675 2581 
L 2259 438 
Q 2553 438 2916 763 
Q 3244 1053 3375 1750 
Q 3497 2400 3300 2750 
Q 3138 3034 2969 3034 
z
M 3063 3525 
Q 3513 3525 3819 3113 
Q 4147 2672 3981 1750 
Q 3828 903 3291 400 
Q 2784 -75 2159 -75 
L 1916 -1331 
L 1344 -1331 
L 1588 -78 
Q 963 -78 641 400 
Q 309 888 475 1747 
Q 647 2641 1166 3097 
Q 1556 3438 2084 3525 
L 1984 3016 
Q 1766 2944 1538 2700 
Q 1194 2341 1081 1747 
Q 963 1116 1156 756 
Q 1334 434 1688 434 
L 2103 2581 
Q 2288 3525 3063 3525 
z
" transform="scale(0.015625)"/>
     </defs>
     <use xlink:href="#DejaVuSans-302" transform="translate(66.069824 12.015625)"/>
     <use xlink:href="#DejaVuSans-Oblique-3c6" transform="translate(0 0.4375)"/>
     <use xlink:href="#DejaVuSans-31" transform="translate(66.923828 -15.96875) scale(0.7)"/>
    </g>
   </g>
  </g>
  <g id="axes_2">
   <g id="patch_7">
    <path d="M 341.12 387.16 
L 568.8 387.16 
L 568.8 30.18 
L 341.12 30.18 
z
" style="fill: #ffffff"/>
   </g>
   <g id="Quiver_2">
    <path d="M 350.615291 312.160909 
L 350.615291 299.146927 
L 348.907691 300.000727 
L 351.469091 291.462727 
L 354.030491 300.000727 
L 352.322891 299.146927 
L 352.322891 312.160909 
L 350.615291 312.160909 
" clip-path="url(#paa88d95357)" style="fill: #ff0000"/>
    <path d="M 373.613271 312.160909 
L 373.613271 301.446725 
L 371.905671 302.300525 
L 374.467071 293.762525 
L 377.028471 302.300525 
L 375.320871 301.446725 
L 375.320871 312.160909 
L 373.613271 312.160909 
" clip-path="url(#paa88d95357)" style="fill: #ff0000"/>
    <path d="M 396.611251 312.160909 
L 396.611251 303.746523 
L 394.903651 304.600323 
L 397.465051 296.062323 
L 400.026451 304.600323 
L 398.318851 303.746523 
L 398.318851 312.160909 
L 396.611251 312.160909 
" clip-path="url(#paa88d95357)" style="fill: #ff0000"/>
    <path d="M 419.60923 312.160909 
L 419.60923 306.046321 
L 417.90163 306.900121 
L 420.46303 298.362121 
L 423.02443 306.900121 
L 421.31683 306.046321 
L 421.31683 312.160909 
L 419.60923 312.160909 
" clip-path="url(#paa88d95357)" style="fill: #ff0000"/>
    <path d="M 442.60721 312.160909 
L 442.60721 308.346119 
L 440.89961 309.199919 
L 443.46101 300.661919 
L 446.02241 309.199919 
L 444.31481 308.346119 
L 444.31481 312.160909 
L 442.60721 312.160909 
" clip-path="url(#paa88d95357)" style="fill: #ff0000"/>
    <path d="M 465.60519 312.160909 
L 465.60519 310.645917 
L 463.89759 311.499717 
L 466.45899 302.961717 
L 469.02039 311.499717 
L 467.31279 310.645917 
L 467.31279 312.160909 
L 465.60519 312.160909 
" clip-path="url(#paa88d95357)" style="fill: #ff0000"/>
    <path d="M 488.76703 312.160909 
L 488.76703 311.47097 
L 487.387152 312.160909 
L 489.45697 305.261515 
L 491.526788 312.160909 
L 490.146909 311.47097 
L 490.146909 312.160909 
L 488.76703 312.160909 
" clip-path="url(#paa88d95357)" style="fill: #ff0000"/>
    <path d="M 511.99499 312.160909 
L 511.99499 311.700949 
L 511.075071 312.160909 
L 512.454949 307.561313 
L 513.834828 312.160909 
L 512.914909 311.700949 
L 512.914909 312.160909 
L 511.99499 312.160909 
" clip-path="url(#paa88d95357)" style="fill: #ff0000"/>
    <path d="M 535.222949 312.160909 
L 535.222949 311.930929 
L 534.76299 312.160909 
L 535.452929 309.861111 
L 536.142869 312.160909 
L 535.682909 311.930929 
L 535.682909 312.160909 
L 535.222949 312.160909 
" clip-path="url(#paa88d95357)" style="fill: #ff0000"/>
    <path d="M 559.304709 312.160909 
L 558.877809 311.421497 
L 558.024009 311.421497 
L 557.597109 312.160909 
L 558.024009 312.900322 
L 558.877809 312.900322 
L 559.304709 312.160909 
L 558.877809 311.421497 
" clip-path="url(#paa88d95357)" style="fill: #ff0000"/>
    <path d="M 350.620513 289.068643 
L 352.071733 276.007662 
L 350.280291 276.667667 
L 353.768889 268.464747 
L 355.371758 277.233386 
L 353.768889 276.196235 
L 352.317669 289.257216 
L 350.620513 289.068643 
" clip-path="url(#paa88d95357)" style="fill: #ff0000"/>
    <path d="M 373.619864 289.057028 
L 374.966554 278.283506 
L 373.16624 278.918911 
L 376.766869 270.764545 
L 378.249481 279.554317 
L 376.660968 278.495308 
L 375.314278 289.26883 
L 373.619864 289.057028 
" clip-path="url(#paa88d95357)" style="fill: #ff0000"/>
    <path d="M 396.619832 289.042184 
L 397.83292 280.550568 
L 396.021736 281.154296 
L 399.764848 273.064343 
L 401.09305 281.878769 
L 399.523357 280.792059 
L 398.310269 289.283675 
L 396.619832 289.042184 
" clip-path="url(#paa88d95357)" style="fill: #ff0000"/>
    <path d="M 419.620847 289.022565 
L 420.65737 282.803426 
L 418.83264 283.364881 
L 422.762828 275.364141 
L 423.885739 284.207064 
L 422.341737 283.084153 
L 421.305213 289.303293 
L 419.620847 289.022565 
" clip-path="url(#paa88d95357)" style="fill: #ff0000"/>
    <path d="M 442.62379 288.995485 
L 443.416593 285.031473 
L 441.574709 285.533805 
L 445.760808 277.663939 
L 446.598028 286.538469 
L 445.091032 285.366361 
L 444.29823 289.330373 
L 442.62379 288.995485 
" clip-path="url(#paa88d95357)" style="fill: #ff0000"/>
    <path d="M 465.630682 288.955852 
L 466.066788 287.211429 
L 464.203096 287.625583 
L 468.758788 279.963737 
L 469.172942 288.868045 
L 467.723403 287.625583 
L 467.287298 289.370006 
L 465.630682 288.955852 
" clip-path="url(#paa88d95357)" style="fill: #ff0000"/>
    <path d="M 488.76703 288.932949 
L 488.99701 288.24301 
L 487.387152 288.47299 
L 491.756768 282.263535 
L 491.526788 289.852869 
L 490.376889 288.70297 
L 490.146909 289.392909 
L 488.76703 288.932949 
" clip-path="url(#paa88d95357)" style="fill: #ff0000"/>
    <path d="M 511.99499 288.932949 
L 512.22497 288.47299 
L 511.075071 288.47299 
L 514.754747 284.563333 
L 513.834828 289.852869 
L 513.144889 288.932949 
L 512.914909 289.392909 
L 511.99499 288.932949 
" clip-path="url(#paa88d95357)" style="fill: #ff0000"/>
    <path d="M 535.222949 288.932949 
L 535.452929 288.70297 
L 534.76299 288.47299 
L 537.752727 286.863131 
L 536.142869 289.852869 
L 535.912889 289.162929 
L 535.682909 289.392909 
L 535.222949 288.932949 
" clip-path="url(#paa88d95357)" style="fill: #ff0000"/>
    <path d="M 350.635622 265.979734 
L 353.568281 252.782769 
L 351.716129 253.245807 
L 356.068687 245.466768 
L 356.71694 254.357098 
L 355.235218 253.1532 
L 352.302559 266.350165 
L 350.635622 265.979734 
" clip-path="url(#paa88d95357)" style="fill: #ff0000"/>
    <path d="M 373.638763 265.957873 
L 376.374667 255.014258 
L 374.510975 255.428412 
L 379.066667 247.766566 
L 379.48082 256.670873 
L 378.031282 255.428412 
L 375.295378 266.372026 
L 373.638763 265.957873 
" clip-path="url(#paa88d95357)" style="fill: #ff0000"/>
    <path d="M 396.644101 265.930393 
L 399.132685 257.220349 
L 397.25623 257.572184 
L 402.064646 250.066364 
L 402.181925 258.979526 
L 400.774584 257.689463 
L 398.286 266.399506 
L 396.644101 265.930393 
" clip-path="url(#paa88d95357)" style="fill: #ff0000"/>
    <path d="M 419.653045 265.894954 
L 421.822683 259.386039 
L 419.932716 259.656034 
L 425.062626 252.366162 
L 424.792631 261.276005 
L 423.442655 259.926029 
L 421.273016 266.434945 
L 419.653045 265.894954 
" clip-path="url(#paa88d95357)" style="fill: #ff0000"/>
    <path d="M 442.668277 265.847856 
L 444.414032 261.483467 
L 442.511472 261.642014 
L 448.060606 254.66596 
L 447.267873 263.544574 
L 445.999499 262.117654 
L 444.253743 266.482043 
L 442.668277 265.847856 
" clip-path="url(#paa88d95357)" style="fill: #ff0000"/>
    <path d="M 465.695328 265.783119 
L 466.858445 263.456884 
L 464.94929 263.456884 
L 471.058586 256.965758 
L 469.531262 265.74787 
L 468.385769 264.220546 
L 467.222652 266.54678 
L 465.695328 265.783119 
" clip-path="url(#paa88d95357)" style="fill: #ff0000"/>
    <path d="M 488.76703 265.70499 
L 489.22699 265.015051 
L 487.387152 264.785071 
L 494.056566 259.265556 
L 491.526788 267.544828 
L 490.606869 265.93497 
L 490.146909 266.624909 
L 488.76703 265.70499 
" clip-path="url(#paa88d95357)" style="fill: #ff0000"/>
    <path d="M 511.99499 265.70499 
L 512.454949 265.24503 
L 511.075071 264.785071 
L 517.054545 261.565354 
L 513.834828 267.544828 
L 513.374869 266.164949 
L 512.914909 266.624909 
L 511.99499 265.70499 
" clip-path="url(#paa88d95357)" style="fill: #ff0000"/>
    <path d="M 350.659105 242.896974 
L 355.128542 229.488665 
L 353.238575 229.75866 
L 358.368485 222.468788 
L 358.09849 231.378632 
L 356.748513 230.028655 
L 352.279077 243.436965 
L 350.659105 242.896974 
" clip-path="url(#paa88d95357)" style="fill: #ff0000"/>
    <path d="M 373.667633 242.867181 
L 377.868924 231.663737 
L 375.970259 231.863597 
L 381.366465 224.768586 
L 380.766886 233.662332 
L 379.4678 232.263316 
L 375.266509 243.466759 
L 373.667633 242.867181 
" clip-path="url(#paa88d95357)" style="fill: #ff0000"/>
    <path d="M 396.680284 242.830641 
L 400.552724 233.79495 
L 398.646863 233.907059 
L 404.364444 227.068384 
L 403.35546 235.925029 
L 402.122256 234.467606 
L 398.249817 243.503298 
L 396.680284 242.830641 
" clip-path="url(#paa88d95357)" style="fill: #ff0000"/>
    <path d="M 419.699368 242.785139 
L 423.162284 235.859308 
L 421.253129 235.859308 
L 427.362424 229.368182 
L 425.8351 238.150294 
L 424.689607 236.62297 
L 421.226692 243.548801 
L 419.699368 242.785139 
" clip-path="url(#paa88d95357)" style="fill: #ff0000"/>
    <path d="M 442.728883 242.727693 
L 445.674788 237.81785 
L 443.771257 237.671425 
L 450.360404 231.66798 
L 448.164022 240.307084 
L 447.139043 238.696403 
L 444.193138 243.606246 
L 442.728883 242.727693 
" clip-path="url(#paa88d95357)" style="fill: #ff0000"/>
    <path d="M 465.77595 242.65469 
L 468.064824 239.602858 
L 466.186464 239.261338 
L 473.358384 233.967778 
L 470.284704 242.335018 
L 469.430904 240.627418 
L 467.14203 243.67925 
L 465.77595 242.65469 
" clip-path="url(#paa88d95357)" style="fill: #ff0000"/>
    <path d="M 488.853242 242.563242 
L 490.319086 241.097398 
L 488.507903 240.49367 
L 496.356364 236.267576 
L 492.130269 244.116037 
L 491.526541 242.304853 
L 490.060697 243.770697 
L 488.853242 242.563242 
" clip-path="url(#paa88d95357)" style="fill: #ff0000"/>
    <path d="M 350.688879 219.822229 
L 356.767221 206.145958 
L 354.860036 206.232648 
L 360.668283 199.470808 
L 359.54131 208.313214 
L 358.327646 206.83948 
L 352.249303 220.515751 
L 350.688879 219.822229 
" clip-path="url(#paa88d95357)" style="fill: #ff0000"/>
    <path d="M 373.703409 219.787159 
L 379.466122 208.261733 
L 377.556967 208.261733 
L 383.666263 201.770606 
L 382.138939 210.552718 
L 380.993446 209.025394 
L 375.230733 220.550821 
L 373.703409 219.787159 
" clip-path="url(#paa88d95357)" style="fill: #ff0000"/>
    <path d="M 396.723745 219.745386 
L 402.110506 210.318555 
L 400.20429 210.212654 
L 406.664242 204.070404 
L 404.652126 212.754274 
L 403.593118 211.165761 
L 398.206356 220.592593 
L 396.723745 219.745386 
" clip-path="url(#paa88d95357)" style="fill: #ff0000"/>
    <path d="M 419.752626 219.695387 
L 424.68939 212.29024 
L 422.794978 212.053438 
L 429.662222 206.370202 
L 427.057406 214.895057 
L 426.1102 213.237446 
L 421.173435 220.642593 
L 419.752626 219.695387 
" clip-path="url(#paa88d95357)" style="fill: #ff0000"/>
    <path d="M 442.794304 219.635625 
L 447.193215 214.136987 
L 445.326438 213.736964 
L 452.660202 208.67 
L 449.326673 216.937152 
L 448.526626 215.203717 
L 444.127716 220.702355 
L 442.794304 219.635625 
" clip-path="url(#paa88d95357)" style="fill: #ff0000"/>
    <path d="M 465.855262 219.565262 
L 469.620904 215.79962 
L 467.809721 215.195892 
L 475.658182 210.969798 
L 471.432087 218.818259 
L 470.82836 217.007076 
L 467.062718 220.772718 
L 465.855262 219.565262 
" clip-path="url(#paa88d95357)" style="fill: #ff0000"/>
    <path d="M 350.722735 196.756368 
L 358.489948 182.775386 
L 356.582595 182.692457 
L 362.968081 176.472828 
L 361.060728 185.180309 
L 359.982659 183.60467 
L 352.215446 197.585652 
L 350.722735 196.756368 
" clip-path="url(#paa88d95357)" style="fill: #ff0000"/>
    <path d="M 373.74305 196.718497 
L 381.169422 184.836302 
L 379.268867 184.655296 
L 385.966061 178.772626 
L 383.612993 187.370375 
L 382.617464 185.741328 
L 375.191092 197.623523 
L 373.74305 196.718497 
" clip-path="url(#paa88d95357)" style="fill: #ff0000"/>
    <path d="M 396.770285 196.674749 
L 403.802924 186.829054 
L 401.917132 186.531297 
L 408.96404 181.072424 
L 406.085726 189.508864 
L 405.192456 187.821576 
L 398.159816 197.667271 
L 396.770285 196.674749 
" clip-path="url(#paa88d95357)" style="fill: #ff0000"/>
    <path d="M 419.807123 196.624421 
L 426.386808 188.728799 
L 424.528404 188.291527 
L 431.96202 183.372222 
L 428.463848 191.571064 
L 427.698623 189.821978 
L 421.118938 197.7176 
L 419.807123 196.624421 
" clip-path="url(#paa88d95357)" style="fill: #ff0000"/>
    <path d="M 442.857282 196.567282 
L 448.922722 190.501842 
L 447.111539 189.898115 
L 454.96 185.67202 
L 450.733906 193.520481 
L 450.130178 191.709298 
L 444.064738 197.774738 
L 442.857282 196.567282 
" clip-path="url(#paa88d95357)" style="fill: #ff0000"/>
    <path d="M 350.758686 173.699427 
L 360.295047 159.394886 
L 358.400635 159.158085 
L 365.267879 153.474848 
L 362.663062 161.999703 
L 361.715856 160.342092 
L 352.179495 174.646633 
L 350.758686 173.699427 
" clip-path="url(#paa88d95357)" style="fill: #ff0000"/>
    <path d="M 373.784031 173.66075 
L 382.972299 161.409726 
L 381.093939 161.068206 
L 388.265859 155.774646 
L 385.192179 164.141886 
L 384.338379 162.434286 
L 375.150111 174.68531 
L 373.784031 173.66075 
" clip-path="url(#paa88d95357)" style="fill: #ff0000"/>
    <path d="M 396.816797 173.617385 
L 405.614774 163.353078 
L 403.762622 162.89004 
L 411.263838 158.074444 
L 407.652141 166.223914 
L 406.911281 164.46437 
L 398.113304 174.728676 
L 396.816797 173.617385 
" clip-path="url(#paa88d95357)" style="fill: #ff0000"/>
    <path d="M 419.859303 173.569303 
L 428.22454 165.204065 
L 426.413357 164.600337 
L 434.261818 160.374242 
L 430.035724 168.222703 
L 429.431996 166.41152 
L 421.066758 174.776758 
L 419.859303 173.569303 
" clip-path="url(#paa88d95357)" style="fill: #ff0000"/>
    <path d="M 350.795142 150.650868 
L 362.176085 136.018226 
L 360.304005 135.64381 
L 367.567677 130.476869 
L 364.347699 138.788905 
L 363.523983 137.066591 
L 352.14304 151.699233 
L 350.795142 150.650868 
" clip-path="url(#paa88d95357)" style="fill: #ff0000"/>
    <path d="M 373.824521 150.612819 
L 384.863025 137.997385 
L 383.015694 137.515473 
L 390.565657 132.776667 
L 386.870994 140.88886 
L 386.148125 139.121848 
L 375.109621 151.737282 
L 373.824521 150.612819 
" clip-path="url(#paa88d95357)" style="fill: #ff0000"/>
    <path d="M 396.861323 150.571323 
L 407.526359 139.906287 
L 405.715175 139.302559 
L 413.563636 135.076465 
L 409.337542 142.924926 
L 408.733814 141.113742 
L 398.068778 151.778778 
L 396.861323 150.571323 
" clip-path="url(#paa88d95357)" style="fill: #ff0000"/>
    <path d="M 350.830953 127.609837 
L 364.124232 112.654898 
L 362.280722 112.158568 
L 369.867475 107.478889 
L 366.109551 115.561971 
L 365.400508 113.789365 
L 352.107229 128.744305 
L 350.830953 127.609837 
" clip-path="url(#paa88d95357)" style="fill: #ff0000"/>
    <path d="M 373.863343 127.573343 
L 386.828177 114.608509 
L 385.016994 114.004781 
L 392.865455 109.778687 
L 388.63936 117.627148 
L 388.035632 115.815965 
L 375.070798 128.780798 
L 373.863343 127.573343 
" clip-path="url(#paa88d95357)" style="fill: #ff0000"/>
    <path d="M 350.865363 104.575363 
L 366.129995 89.310731 
L 364.318812 88.707003 
L 372.167273 84.480909 
L 367.941178 92.32937 
L 367.337451 90.518187 
L 352.072819 105.782819 
L 350.865363 104.575363 
" clip-path="url(#paa88d95357)" style="fill: #ff0000"/>
   </g>
   <g id="matplotlib.axis_3">
    <g id="xtick_7">
     <g id="line2d_16">
      <g>
       <use xlink:href="#m686641b768" x="351.469091" y="387.16" style="stroke: #000000; stroke-width: 0.8"/>
      </g>
     </g>
     <g id="text_18">
      <!-- 0.0 -->
      <g transform="translate(343.517528 401.758438) scale(0.1 -0.1)">
       <use xlink:href="#DejaVuSans-30"/>
       <use xlink:href="#DejaVuSans-2e" x="63.623047"/>
       <use xlink:href="#DejaVuSans-30" x="95.410156"/>
      </g>
     </g>
    </g>
    <g id="xtick_8">
     <g id="line2d_17">
      <g>
       <use xlink:href="#m686641b768" x="392.865455" y="387.16" style="stroke: #000000; stroke-width: 0.8"/>
      </g>
     </g>
     <g id="text_19">
      <!-- 0.2 -->
      <g transform="translate(384.913892 401.758438) scale(0.1 -0.1)">
       <use xlink:href="#DejaVuSans-30"/>
       <use xlink:href="#DejaVuSans-2e" x="63.623047"/>
       <use xlink:href="#DejaVuSans-32" x="95.410156"/>
      </g>
     </g>
    </g>
    <g id="xtick_9">
     <g id="line2d_18">
      <g>
       <use xlink:href="#m686641b768" x="434.261818" y="387.16" style="stroke: #000000; stroke-width: 0.8"/>
      </g>
     </g>
     <g id="text_20">
      <!-- 0.4 -->
      <g transform="translate(426.310256 401.758438) scale(0.1 -0.1)">
       <use xlink:href="#DejaVuSans-30"/>
       <use xlink:href="#DejaVuSans-2e" x="63.623047"/>
       <use xlink:href="#DejaVuSans-34" x="95.410156"/>
      </g>
     </g>
    </g>
    <g id="xtick_10">
     <g id="line2d_19">
      <g>
       <use xlink:href="#m686641b768" x="475.658182" y="387.16" style="stroke: #000000; stroke-width: 0.8"/>
      </g>
     </g>
     <g id="text_21">
      <!-- 0.6 -->
      <g transform="translate(467.706619 401.758438) scale(0.1 -0.1)">
       <use xlink:href="#DejaVuSans-30"/>
       <use xlink:href="#DejaVuSans-2e" x="63.623047"/>
       <use xlink:href="#DejaVuSans-36" x="95.410156"/>
      </g>
     </g>
    </g>
    <g id="xtick_11">
     <g id="line2d_20">
      <g>
       <use xlink:href="#m686641b768" x="517.054545" y="387.16" style="stroke: #000000; stroke-width: 0.8"/>
      </g>
     </g>
     <g id="text_22">
      <!-- 0.8 -->
      <g transform="translate(509.102983 401.758438) scale(0.1 -0.1)">
       <use xlink:href="#DejaVuSans-30"/>
       <use xlink:href="#DejaVuSans-2e" x="63.623047"/>
       <use xlink:href="#DejaVuSans-38" x="95.410156"/>
      </g>
     </g>
    </g>
    <g id="xtick_12">
     <g id="line2d_21">
      <g>
       <use xlink:href="#m686641b768" x="558.450909" y="387.16" style="stroke: #000000; stroke-width: 0.8"/>
      </g>
     </g>
     <g id="text_23">
      <!-- 1.0 -->
      <g transform="translate(550.499347 401.758438) scale(0.1 -0.1)">
       <use xlink:href="#DejaVuSans-31"/>
       <use xlink:href="#DejaVuSans-2e" x="63.623047"/>
       <use xlink:href="#DejaVuSans-30" x="95.410156"/>
      </g>
     </g>
    </g>
    <g id="text_24">
     <!-- $\xi$ -->
     <g transform="translate(452.16 415.438125) scale(0.1 -0.1)">
      <use xlink:href="#DejaVuSans-Oblique-3be" transform="translate(0 0.015625)"/>
     </g>
    </g>
   </g>
   <g id="matplotlib.axis_4">
    <g id="ytick_9">
     <g id="line2d_22">
      <g>
       <use xlink:href="#m00b1dff271" x="341.12" y="353.557273" style="stroke: #000000; stroke-width: 0.8"/>
      </g>
     </g>
     <g id="text_25">
      <!-- −0.2 -->
      <g transform="translate(309.837188 357.356491) scale(0.1 -0.1)">
       <use xlink:href="#DejaVuSans-2212"/>
       <use xlink:href="#DejaVuSans-30" x="83.789062"/>
       <use xlink:href="#DejaVuSans-2e" x="147.412109"/>
       <use xlink:href="#DejaVuSans-32" x="179.199219"/>
      </g>
     </g>
    </g>
    <g id="ytick_10">
     <g id="line2d_23">
      <g>
       <use xlink:href="#m00b1dff271" x="341.12" y="312.160909" style="stroke: #000000; stroke-width: 0.8"/>
      </g>
     </g>
     <g id="text_26">
      <!-- 0.0 -->
      <g transform="translate(318.216875 315.960128) scale(0.1 -0.1)">
       <use xlink:href="#DejaVuSans-30"/>
       <use xlink:href="#DejaVuSans-2e" x="63.623047"/>
       <use xlink:href="#DejaVuSans-30" x="95.410156"/>
      </g>
     </g>
    </g>
    <g id="ytick_11">
     <g id="line2d_24">
      <g>
       <use xlink:href="#m00b1dff271" x="341.12" y="270.764545" style="stroke: #000000; stroke-width: 0.8"/>
      </g>
     </g>
     <g id="text_27">
      <!-- 0.2 -->
      <g transform="translate(318.216875 274.563764) scale(0.1 -0.1)">
       <use xlink:href="#DejaVuSans-30"/>
       <use xlink:href="#DejaVuSans-2e" x="63.623047"/>
       <use xlink:href="#DejaVuSans-32" x="95.410156"/>
      </g>
     </g>
    </g>
    <g id="ytick_12">
     <g id="line2d_25">
      <g>
       <use xlink:href="#m00b1dff271" x="341.12" y="229.368182" style="stroke: #000000; stroke-width: 0.8"/>
      </g>
     </g>
     <g id="text_28">
      <!-- 0.4 -->
      <g transform="translate(318.216875 233.167401) scale(0.1 -0.1)">
       <use xlink:href="#DejaVuSans-30"/>
       <use xlink:href="#DejaVuSans-2e" x="63.623047"/>
       <use xlink:href="#DejaVuSans-34" x="95.410156"/>
      </g>
     </g>
    </g>
    <g id="ytick_13">
     <g id="line2d_26">
      <g>
       <use xlink:href="#m00b1dff271" x="341.12" y="187.971818" style="stroke: #000000; stroke-width: 0.8"/>
      </g>
     </g>
     <g id="text_29">
      <!-- 0.6 -->
      <g transform="translate(318.216875 191.771037) scale(0.1 -0.1)">
       <use xlink:href="#DejaVuSans-30"/>
       <use xlink:href="#DejaVuSans-2e" x="63.623047"/>
       <use xlink:href="#DejaVuSans-36" x="95.410156"/>
      </g>
     </g>
    </g>
    <g id="ytick_14">
     <g id="line2d_27">
      <g>
       <use xlink:href="#m00b1dff271" x="341.12" y="146.575455" style="stroke: #000000; stroke-width: 0.8"/>
      </g>
     </g>
     <g id="text_30">
      <!-- 0.8 -->
      <g transform="translate(318.216875 150.374673) scale(0.1 -0.1)">
       <use xlink:href="#DejaVuSans-30"/>
       <use xlink:href="#DejaVuSans-2e" x="63.623047"/>
       <use xlink:href="#DejaVuSans-38" x="95.410156"/>
      </g>
     </g>
    </g>
    <g id="ytick_15">
     <g id="line2d_28">
      <g>
       <use xlink:href="#m00b1dff271" x="341.12" y="105.179091" style="stroke: #000000; stroke-width: 0.8"/>
      </g>
     </g>
     <g id="text_31">
      <!-- 1.0 -->
      <g transform="translate(318.216875 108.97831) scale(0.1 -0.1)">
       <use xlink:href="#DejaVuSans-31"/>
       <use xlink:href="#DejaVuSans-2e" x="63.623047"/>
       <use xlink:href="#DejaVuSans-30" x="95.410156"/>
      </g>
     </g>
    </g>
    <g id="ytick_16">
     <g id="line2d_29">
      <g>
       <use xlink:href="#m00b1dff271" x="341.12" y="63.782727" style="stroke: #000000; stroke-width: 0.8"/>
      </g>
     </g>
     <g id="text_32">
      <!-- 1.2 -->
      <g transform="translate(318.216875 67.581946) scale(0.1 -0.1)">
       <use xlink:href="#DejaVuSans-31"/>
       <use xlink:href="#DejaVuSans-2e" x="63.623047"/>
       <use xlink:href="#DejaVuSans-32" x="95.410156"/>
      </g>
     </g>
    </g>
    <g id="text_33">
     <!-- $\eta$ -->
     <g transform="translate(303.737188 211.87) rotate(-90) scale(0.1 -0.1)">
      <use xlink:href="#DejaVuSans-Oblique-3b7"/>
     </g>
    </g>
   </g>
   <g id="line2d_30">
    <path d="M 351.469091 312.160909 
L 558.450909 312.160909 
L 351.469091 105.179091 
L 351.469091 312.160909 
" clip-path="url(#paa88d95357)" style="fill: none; stroke: #000000; stroke-width: 1.5; stroke-linecap: square"/>
   </g>
   <g id="patch_8">
    <path d="M 341.12 387.16 
L 341.12 30.18 
" style="fill: none; stroke: #000000; stroke-width: 0.8; stroke-linejoin: miter; stroke-linecap: square"/>
   </g>
   <g id="patch_9">
    <path d="M 568.8 387.16 
L 568.8 30.18 
" style="fill: none; stroke: #000000; stroke-width: 0.8; stroke-linejoin: miter; stroke-linecap: square"/>
   </g>
   <g id="patch_10">
    <path d="M 341.12 387.16 
L 568.8 387.16 
" style="fill: none; stroke: #000000; stroke-width: 0.8; stroke-linejoin: miter; stroke-linecap: square"/>
   </g>
   <g id="patch_11">
    <path d="M 341.12 30.18 
L 568.8 30.18 
" style="fill: none; stroke: #000000; stroke-width: 0.8; stroke-linejoin: miter; stroke-linecap: square"/>
   </g>
   <g id="text_34">
    <!-- $\hat{\varphi}_{2}$ -->
    <g transform="translate(448.06 24.18) scale(0.12 -0.12)">
     <use xlink:href="#DejaVuSans-302" transform="translate(66.069824 12.015625)"/>
     <use xlink:href="#DejaVuSans-Oblique-3c6" transform="translate(0 0.4375)"/>
     <use xlink:href="#DejaVuSans-32" transform="translate(66.923828 -15.96875) scale(0.7)"/>
    </g>
   </g>
  </g>
  <g id="axes_3">
   <g id="patch_12">
    <path d="M 625.52 387.16 
L 853.2 387.16 
L 853.2 30.18 
L 625.52 30.18 
z
" style="fill: #ffffff"/>
   </g>
   <g id="Quiver_3">
    <path d="M 636.722891 312.160909 
L 636.295991 311.421497 
L 635.442191 311.421497 
L 635.015291 312.160909 
L 635.442191 312.900322 
L 636.295991 312.900322 
L 636.722891 312.160909 
L 636.295991 311.421497 
" clip-path="url(#p9098f9932c)" style="fill: #008000"/>
    <path d="M 658.637091 312.160909 
L 658.637091 311.930929 
L 658.177131 312.160909 
L 658.867071 309.861111 
L 659.55701 312.160909 
L 659.097051 311.930929 
L 659.097051 312.160909 
L 658.637091 312.160909 
" clip-path="url(#p9098f9932c)" style="fill: #008000"/>
    <path d="M 681.405091 312.160909 
L 681.405091 311.700949 
L 680.485172 312.160909 
L 681.865051 307.561313 
L 683.244929 312.160909 
L 682.32501 311.700949 
L 682.32501 312.160909 
L 681.405091 312.160909 
" clip-path="url(#p9098f9932c)" style="fill: #008000"/>
    <path d="M 704.173091 312.160909 
L 704.173091 311.47097 
L 702.793212 312.160909 
L 704.86303 305.261515 
L 706.932848 312.160909 
L 705.55297 311.47097 
L 705.55297 312.160909 
L 704.173091 312.160909 
" clip-path="url(#p9098f9932c)" style="fill: #008000"/>
    <path d="M 727.00721 312.160909 
L 727.00721 310.645917 
L 725.29961 311.499717 
L 727.86101 302.961717 
L 730.42241 311.499717 
L 728.71481 310.645917 
L 728.71481 312.160909 
L 727.00721 312.160909 
" clip-path="url(#p9098f9932c)" style="fill: #008000"/>
    <path d="M 750.00519 312.160909 
L 750.00519 308.346119 
L 748.29759 309.199919 
L 750.85899 300.661919 
L 753.42039 309.199919 
L 751.71279 308.346119 
L 751.71279 312.160909 
L 750.00519 312.160909 
" clip-path="url(#p9098f9932c)" style="fill: #008000"/>
    <path d="M 773.00317 312.160909 
L 773.00317 306.046321 
L 771.29557 306.900121 
L 773.85697 298.362121 
L 776.41837 306.900121 
L 774.71077 306.046321 
L 774.71077 312.160909 
L 773.00317 312.160909 
" clip-path="url(#p9098f9932c)" style="fill: #008000"/>
    <path d="M 796.001149 312.160909 
L 796.001149 303.746523 
L 794.293549 304.600323 
L 796.854949 296.062323 
L 799.416349 304.600323 
L 797.708749 303.746523 
L 797.708749 312.160909 
L 796.001149 312.160909 
" clip-path="url(#p9098f9932c)" style="fill: #008000"/>
    <path d="M 818.999129 312.160909 
L 818.999129 301.446725 
L 817.291529 302.300525 
L 819.852929 293.762525 
L 822.414329 302.300525 
L 820.706729 301.446725 
L 820.706729 312.160909 
L 818.999129 312.160909 
" clip-path="url(#p9098f9932c)" style="fill: #008000"/>
    <path d="M 841.997109 312.160909 
L 841.997109 299.146927 
L 840.289509 300.000727 
L 842.850909 291.462727 
L 845.412309 300.000727 
L 843.704709 299.146927 
L 843.704709 312.160909 
L 841.997109 312.160909 
" clip-path="url(#p9098f9932c)" style="fill: #008000"/>
    <path d="M 635.869091 289.392909 
L 635.639111 289.392909 
L 635.869091 289.852869 
L 633.569293 289.162929 
L 635.869091 288.47299 
L 635.639111 288.932949 
L 635.869091 288.932949 
L 635.869091 289.392909 
" clip-path="url(#p9098f9932c)" style="fill: #008000"/>
    <path d="M 658.637091 289.392909 
L 658.407111 289.162929 
L 658.177131 289.852869 
L 656.567273 286.863131 
L 659.55701 288.47299 
L 658.867071 288.70297 
L 659.097051 288.932949 
L 658.637091 289.392909 
" clip-path="url(#p9098f9932c)" style="fill: #008000"/>
    <path d="M 681.405091 289.392909 
L 681.175111 288.932949 
L 680.485172 289.852869 
L 679.565253 284.563333 
L 683.244929 288.47299 
L 682.09503 288.47299 
L 682.32501 288.932949 
L 681.405091 289.392909 
" clip-path="url(#p9098f9932c)" style="fill: #008000"/>
    <path d="M 704.173091 289.392909 
L 703.943111 288.70297 
L 702.793212 289.852869 
L 702.563232 282.263535 
L 706.932848 288.47299 
L 705.32299 288.24301 
L 705.55297 288.932949 
L 704.173091 289.392909 
" clip-path="url(#p9098f9932c)" style="fill: #008000"/>
    <path d="M 727.032702 289.370006 
L 726.596597 287.625583 
L 725.147058 288.868045 
L 725.561212 279.963737 
L 730.116904 287.625583 
L 728.253212 287.211429 
L 728.689318 288.955852 
L 727.032702 289.370006 
" clip-path="url(#p9098f9932c)" style="fill: #008000"/>
    <path d="M 750.02177 289.330373 
L 749.228968 285.366361 
L 747.721972 286.538469 
L 748.559192 277.663939 
L 752.745291 285.533805 
L 750.903407 285.031473 
L 751.69621 288.995485 
L 750.02177 289.330373 
" clip-path="url(#p9098f9932c)" style="fill: #008000"/>
    <path d="M 773.014787 289.303293 
L 771.978263 283.084153 
L 770.434261 284.207064 
L 771.557172 275.364141 
L 775.48736 283.364881 
L 773.66263 282.803426 
L 774.699153 289.022565 
L 773.014787 289.303293 
" clip-path="url(#p9098f9932c)" style="fill: #008000"/>
    <path d="M 796.009731 289.283675 
L 794.796643 280.792059 
L 793.22695 281.878769 
L 794.555152 273.064343 
L 798.298264 281.154296 
L 796.48708 280.550568 
L 797.700168 289.042184 
L 796.009731 289.283675 
" clip-path="url(#p9098f9932c)" style="fill: #008000"/>
    <path d="M 819.005722 289.26883 
L 817.659032 278.495308 
L 816.070519 279.554317 
L 817.553131 270.764545 
L 821.15376 278.918911 
L 819.353446 278.283506 
L 820.700136 289.057028 
L 819.005722 289.26883 
" clip-path="url(#p9098f9932c)" style="fill: #008000"/>
    <path d="M 635.869091 266.624909 
L 635.409131 266.624909 
L 635.869091 267.544828 
L 631.269495 266.164949 
L 635.869091 264.785071 
L 635.409131 265.70499 
L 635.869091 265.70499 
L 635.869091 266.624909 
" clip-path="url(#p9098f9932c)" style="fill: #008000"/>
    <path d="M 658.637091 266.624909 
L 658.177131 266.394929 
L 658.177131 267.544828 
L 654.267475 263.865152 
L 659.55701 264.785071 
L 658.637091 265.47501 
L 659.097051 265.70499 
L 658.637091 266.624909 
" clip-path="url(#p9098f9932c)" style="fill: #008000"/>
    <path d="M 681.405091 266.624909 
L 680.945131 266.164949 
L 680.485172 267.544828 
L 677.265455 261.565354 
L 683.244929 264.785071 
L 681.865051 265.24503 
L 682.32501 265.70499 
L 681.405091 266.624909 
" clip-path="url(#p9098f9932c)" style="fill: #008000"/>
    <path d="M 704.173091 266.624909 
L 703.713131 265.93497 
L 702.793212 267.544828 
L 700.263434 259.265556 
L 706.932848 264.785071 
L 705.09301 265.015051 
L 705.55297 265.70499 
L 704.173091 266.624909 
" clip-path="url(#p9098f9932c)" style="fill: #008000"/>
    <path d="M 727.097348 266.54678 
L 725.934231 264.220546 
L 724.788738 265.74787 
L 723.261414 256.965758 
L 729.37071 263.456884 
L 727.461555 263.456884 
L 728.624672 265.783119 
L 727.097348 266.54678 
" clip-path="url(#p9098f9932c)" style="fill: #008000"/>
    <path d="M 750.066257 266.482043 
L 748.320501 262.117654 
L 747.052127 263.544574 
L 746.259394 254.66596 
L 751.808528 261.642014 
L 749.905968 261.483467 
L 751.651723 265.847856 
L 750.066257 266.482043 
" clip-path="url(#p9098f9932c)" style="fill: #008000"/>
    <path d="M 773.046984 266.434945 
L 770.877345 259.926029 
L 769.527369 261.276005 
L 769.257374 252.366162 
L 774.387284 259.656034 
L 772.497317 259.386039 
L 774.666955 265.894954 
L 773.046984 266.434945 
" clip-path="url(#p9098f9932c)" style="fill: #008000"/>
    <path d="M 796.034 266.399506 
L 793.545416 257.689463 
L 792.138075 258.979526 
L 792.255354 250.066364 
L 797.06377 257.572184 
L 795.187315 257.220349 
L 797.675899 265.930393 
L 796.034 266.399506 
" clip-path="url(#p9098f9932c)" style="fill: #008000"/>
    <path d="M 635.869091 243.856909 
L 635.179152 243.856909 
L 635.869091 245.236788 
L 628.969697 243.16697 
L 635.869091 241.097152 
L 635.179152 242.47703 
L 635.869091 242.47703 
L 635.869091 243.856909 
" clip-path="url(#p9098f9932c)" style="fill: #008000"/>
    <path d="M 658.637091 243.856909 
L 657.947152 243.626929 
L 658.177131 245.236788 
L 651.967677 240.867172 
L 659.55701 241.097152 
L 658.407111 242.247051 
L 659.097051 242.47703 
L 658.637091 243.856909 
" clip-path="url(#p9098f9932c)" style="fill: #008000"/>
    <path d="M 681.405091 243.856909 
L 680.715152 243.396949 
L 680.485172 245.236788 
L 674.965657 238.567374 
L 683.244929 241.097152 
L 681.635071 242.017071 
L 682.32501 242.47703 
L 681.405091 243.856909 
" clip-path="url(#p9098f9932c)" style="fill: #008000"/>
    <path d="M 704.259303 243.770697 
L 702.793459 242.304853 
L 702.189731 244.116037 
L 697.963636 236.267576 
L 705.812097 240.49367 
L 704.000914 241.097398 
L 705.466758 242.563242 
L 704.259303 243.770697 
" clip-path="url(#p9098f9932c)" style="fill: #008000"/>
    <path d="M 727.17797 243.67925 
L 724.889096 240.627418 
L 724.035296 242.335018 
L 720.961616 233.967778 
L 728.133536 239.261338 
L 726.255176 239.602858 
L 728.54405 242.65469 
L 727.17797 243.67925 
" clip-path="url(#p9098f9932c)" style="fill: #008000"/>
    <path d="M 750.126862 243.606246 
L 747.180957 238.696403 
L 746.155978 240.307084 
L 743.959596 231.66798 
L 750.548743 237.671425 
L 748.645212 237.81785 
L 751.591117 242.727693 
L 750.126862 243.606246 
" clip-path="url(#p9098f9932c)" style="fill: #008000"/>
    <path d="M 773.093308 243.548801 
L 769.630393 236.62297 
L 768.4849 238.150294 
L 766.957576 229.368182 
L 773.066871 235.859308 
L 771.157716 235.859308 
L 774.620632 242.785139 
L 773.093308 243.548801 
" clip-path="url(#p9098f9932c)" style="fill: #008000"/>
    <path d="M 635.869091 221.02279 
L 634.354099 221.02279 
L 635.207899 222.73039 
L 626.669899 220.16899 
L 635.207899 217.60759 
L 634.354099 219.31519 
L 635.869091 219.31519 
L 635.869091 221.02279 
" clip-path="url(#p9098f9932c)" style="fill: #008000"/>
    <path d="M 658.659994 220.997298 
L 656.915571 220.561192 
L 657.329725 222.424884 
L 649.667879 217.869192 
L 658.572186 217.455038 
L 657.329725 218.904577 
L 659.074148 219.340682 
L 658.659994 220.997298 
" clip-path="url(#p9098f9932c)" style="fill: #008000"/>
    <path d="M 681.48322 220.932652 
L 679.156985 219.769535 
L 679.156985 221.678689 
L 672.665859 215.569394 
L 681.447971 217.096718 
L 679.920647 218.242211 
L 682.246881 219.405328 
L 681.48322 220.932652 
" clip-path="url(#p9098f9932c)" style="fill: #008000"/>
    <path d="M 704.35075 220.85203 
L 701.298918 218.563156 
L 700.957398 220.441516 
L 695.663838 213.269596 
L 704.031078 216.343276 
L 702.323478 217.197076 
L 705.37531 219.48595 
L 704.35075 220.85203 
" clip-path="url(#p9098f9932c)" style="fill: #008000"/>
    <path d="M 727.257282 220.772718 
L 723.49164 217.007076 
L 722.887913 218.818259 
L 718.661818 210.969798 
L 726.510279 215.195892 
L 724.699096 215.79962 
L 728.464738 219.565262 
L 727.257282 220.772718 
" clip-path="url(#p9098f9932c)" style="fill: #008000"/>
    <path d="M 750.192284 220.702355 
L 745.793374 215.203717 
L 744.993327 216.937152 
L 741.659798 208.67 
L 748.993562 213.736964 
L 747.126785 214.136987 
L 751.525696 219.635625 
L 750.192284 220.702355 
" clip-path="url(#p9098f9932c)" style="fill: #008000"/>
    <path d="M 635.869091 198.02481 
L 632.054301 198.02481 
L 632.908101 199.73241 
L 624.370101 197.17101 
L 632.908101 194.60961 
L 632.054301 196.31721 
L 635.869091 196.31721 
L 635.869091 198.02481 
" clip-path="url(#p9098f9932c)" style="fill: #008000"/>
    <path d="M 658.699627 198.00823 
L 654.735615 197.215428 
L 655.237947 199.057311 
L 647.368081 194.871212 
L 656.24261 194.033992 
L 655.070503 195.540988 
L 659.034515 196.33379 
L 658.699627 198.00823 
" clip-path="url(#p9098f9932c)" style="fill: #008000"/>
    <path d="M 681.547957 197.963743 
L 677.183568 196.217988 
L 677.342115 198.120548 
L 670.366061 192.571414 
L 679.244675 193.364148 
L 677.817755 194.632521 
L 682.182144 196.378277 
L 681.547957 197.963743 
" clip-path="url(#p9098f9932c)" style="fill: #008000"/>
    <path d="M 704.423754 197.903138 
L 699.513911 194.957232 
L 699.367486 196.860763 
L 693.36404 190.271616 
L 702.003144 192.467999 
L 700.392464 193.492977 
L 705.302307 196.438883 
L 704.423754 197.903138 
" clip-path="url(#p9098f9932c)" style="fill: #008000"/>
    <path d="M 727.327645 197.837716 
L 721.829008 193.438806 
L 721.428984 195.305582 
L 716.36202 187.971818 
L 724.629172 191.305347 
L 722.895737 192.105394 
L 728.394375 196.504304 
L 727.327645 197.837716 
" clip-path="url(#p9098f9932c)" style="fill: #008000"/>
    <path d="M 635.869091 175.02683 
L 629.754503 175.02683 
L 630.608303 176.73443 
L 622.070303 174.17303 
L 630.608303 171.61163 
L 629.754503 173.31923 
L 635.869091 173.31923 
L 635.869091 175.02683 
" clip-path="url(#p9098f9932c)" style="fill: #008000"/>
    <path d="M 658.726707 175.015213 
L 652.507567 173.97869 
L 653.069023 175.80342 
L 645.068283 171.873232 
L 653.911206 170.750321 
L 652.788295 172.294324 
L 659.007435 173.330847 
L 658.726707 175.015213 
" clip-path="url(#p9098f9932c)" style="fill: #008000"/>
    <path d="M 681.595055 174.983016 
L 675.08614 172.813378 
L 675.356135 174.703344 
L 668.066263 169.573434 
L 676.976106 169.84343 
L 675.62613 171.193406 
L 682.135046 173.363045 
L 681.595055 174.983016 
" clip-path="url(#p9098f9932c)" style="fill: #008000"/>
    <path d="M 704.481199 174.936692 
L 697.555369 171.473777 
L 697.555369 173.382932 
L 691.064242 167.273636 
L 699.846355 168.80096 
L 698.319031 169.946453 
L 705.244861 173.409368 
L 704.481199 174.936692 
" clip-path="url(#p9098f9932c)" style="fill: #008000"/>
    <path d="M 635.869091 152.028851 
L 627.454705 152.028851 
L 628.308505 153.736451 
L 619.770505 151.175051 
L 628.308505 148.613651 
L 627.454705 150.321251 
L 635.869091 150.321251 
L 635.869091 152.028851 
" clip-path="url(#p9098f9932c)" style="fill: #008000"/>
    <path d="M 658.746325 152.020269 
L 650.254709 150.807181 
L 650.858437 152.618365 
L 642.768485 148.875253 
L 651.58291 147.547051 
L 650.4962 149.116744 
L 658.987816 150.329832 
L 658.746325 152.020269 
" clip-path="url(#p9098f9932c)" style="fill: #008000"/>
    <path d="M 681.630494 151.996 
L 672.92045 149.507416 
L 673.272285 151.383871 
L 665.766465 146.575455 
L 674.679627 146.458176 
L 673.389564 147.865517 
L 682.099607 150.354101 
L 681.630494 151.996 
" clip-path="url(#p9098f9932c)" style="fill: #008000"/>
    <path d="M 635.869091 129.030871 
L 625.154907 129.030871 
L 626.008707 130.738471 
L 617.470707 128.177071 
L 626.008707 125.615671 
L 625.154907 127.323271 
L 635.869091 127.323271 
L 635.869091 129.030871 
" clip-path="url(#p9098f9932c)" style="fill: #008000"/>
    <path d="M 658.76117 129.024278 
L 647.987648 127.677587 
L 648.623053 129.477902 
L 640.468687 125.877273 
L 649.258458 124.394661 
L 648.199449 125.983174 
L 658.972972 127.329864 
L 658.76117 129.024278 
" clip-path="url(#p9098f9932c)" style="fill: #008000"/>
    <path d="M 635.869091 106.032891 
L 622.855109 106.032891 
L 623.708909 107.740491 
L 615.170909 105.179091 
L 623.708909 102.617691 
L 622.855109 104.325291 
L 635.869091 104.325291 
L 635.869091 106.032891 
" clip-path="url(#p9098f9932c)" style="fill: #008000"/>
   </g>
   <g id="matplotlib.axis_5">
    <g id="xtick_13">
     <g id="line2d_31">
      <g>
       <use xlink:href="#m686641b768" x="635.869091" y="387.16" style="stroke: #000000; stroke-width: 0.8"/>
      </g>
     </g>
     <g id="text_35">
      <!-- 0.0 -->
      <g transform="translate(627.917528 401.758438) scale(0.1 -0.1)">
       <use xlink:href="#DejaVuSans-30"/>
       <use xlink:href="#DejaVuSans-2e" x="63.623047"/>
       <use xlink:href="#DejaVuSans-30" x="95.410156"/>
      </g>
     </g>
    </g>
    <g id="xtick_14">
     <g id="line2d_32">
      <g>
       <use xlink:href="#m686641b768" x="677.265455" y="387.16" style="stroke: #000000; stroke-width: 0.8"/>
      </g>
     </g>
     <g id="text_36">
      <!-- 0.2 -->
      <g transform="translate(669.313892 401.758438) scale(0.1 -0.1)">
       <use xlink:href="#DejaVuSans-30"/>
       <use xlink:href="#DejaVuSans-2e" x="63.623047"/>
       <use xlink:href="#DejaVuSans-32" x="95.410156"/>
      </g>
     </g>
    </g>
    <g id="xtick_15">
     <g id="line2d_33">
      <g>
       <use xlink:href="#m686641b768" x="718.661818" y="387.16" style="stroke: #000000; stroke-width: 0.8"/>
      </g>
     </g>
     <g id="text_37">
      <!-- 0.4 -->
      <g transform="translate(710.710256 401.758438) scale(0.1 -0.1)">
       <use xlink:href="#DejaVuSans-30"/>
       <use xlink:href="#DejaVuSans-2e" x="63.623047"/>
       <use xlink:href="#DejaVuSans-34" x="95.410156"/>
      </g>
     </g>
    </g>
    <g id="xtick_16">
     <g id="line2d_34">
      <g>
       <use xlink:href="#m686641b768" x="760.058182" y="387.16" style="stroke: #000000; stroke-width: 0.8"/>
      </g>
     </g>
     <g id="text_38">
      <!-- 0.6 -->
      <g transform="translate(752.106619 401.758438) scale(0.1 -0.1)">
       <use xlink:href="#DejaVuSans-30"/>
       <use xlink:href="#DejaVuSans-2e" x="63.623047"/>
       <use xlink:href="#DejaVuSans-36" x="95.410156"/>
      </g>
     </g>
    </g>
    <g id="xtick_17">
     <g id="line2d_35">
      <g>
       <use xlink:href="#m686641b768" x="801.454545" y="387.16" style="stroke: #000000; stroke-width: 0.8"/>
      </g>
     </g>
     <g id="text_39">
      <!-- 0.8 -->
      <g transform="translate(793.502983 401.758438) scale(0.1 -0.1)">
       <use xlink:href="#DejaVuSans-30"/>
       <use xlink:href="#DejaVuSans-2e" x="63.623047"/>
       <use xlink:href="#DejaVuSans-38" x="95.410156"/>
      </g>
     </g>
    </g>
    <g id="xtick_18">
     <g id="line2d_36">
      <g>
       <use xlink:href="#m686641b768" x="842.850909" y="387.16" style="stroke: #000000; stroke-width: 0.8"/>
      </g>
     </g>
     <g id="text_40">
      <!-- 1.0 -->
      <g transform="translate(834.899347 401.758438) scale(0.1 -0.1)">
       <use xlink:href="#DejaVuSans-31"/>
       <use xlink:href="#DejaVuSans-2e" x="63.623047"/>
       <use xlink:href="#DejaVuSans-30" x="95.410156"/>
      </g>
     </g>
    </g>
    <g id="text_41">
     <!-- $\xi$ -->
     <g transform="translate(736.56 415.438125) scale(0.1 -0.1)">
      <use xlink:href="#DejaVuSans-Oblique-3be" transform="translate(0 0.015625)"/>
     </g>
    </g>
   </g>
   <g id="matplotlib.axis_6">
    <g id="ytick_17">
     <g id="line2d_37">
      <g>
       <use xlink:href="#m00b1dff271" x="625.52" y="353.557273" style="stroke: #000000; stroke-width: 0.8"/>
      </g>
     </g>
     <g id="text_42">
      <!-- −0.2 -->
      <g transform="translate(594.237188 357.356491) scale(0.1 -0.1)">
       <use xlink:href="#DejaVuSans-2212"/>
       <use xlink:href="#DejaVuSans-30" x="83.789062"/>
       <use xlink:href="#DejaVuSans-2e" x="147.412109"/>
       <use xlink:href="#DejaVuSans-32" x="179.199219"/>
      </g>
     </g>
    </g>
    <g id="ytick_18">
     <g id="line2d_38">
      <g>
       <use xlink:href="#m00b1dff271" x="625.52" y="312.160909" style="stroke: #000000; stroke-width: 0.8"/>
      </g>
     </g>
     <g id="text_43">
      <!-- 0.0 -->
      <g transform="translate(602.616875 315.960128) scale(0.1 -0.1)">
       <use xlink:href="#DejaVuSans-30"/>
       <use xlink:href="#DejaVuSans-2e" x="63.623047"/>
       <use xlink:href="#DejaVuSans-30" x="95.410156"/>
      </g>
     </g>
    </g>
    <g id="ytick_19">
     <g id="line2d_39">
      <g>
       <use xlink:href="#m00b1dff271" x="625.52" y="270.764545" style="stroke: #000000; stroke-width: 0.8"/>
      </g>
     </g>
     <g id="text_44">
      <!-- 0.2 -->
      <g transform="translate(602.616875 274.563764) scale(0.1 -0.1)">
       <use xlink:href="#DejaVuSans-30"/>
       <use xlink:href="#DejaVuSans-2e" x="63.623047"/>
       <use xlink:href="#DejaVuSans-32" x="95.410156"/>
      </g>
     </g>
    </g>
    <g id="ytick_20">
     <g id="line2d_40">
      <g>
       <use xlink:href="#m00b1dff271" x="625.52" y="229.368182" style="stroke: #000000; stroke-width: 0.8"/>
      </g>
     </g>
     <g id="text_45">
      <!-- 0.4 -->
      <g transform="translate(602.616875 233.167401) scale(0.1 -0.1)">
       <use xlink:href="#DejaVuSans-30"/>
       <use xlink:href="#DejaVuSans-2e" x="63.623047"/>
       <use xlink:href="#DejaVuSans-34" x="95.410156"/>
      </g>
     </g>
    </g>
    <g id="ytick_21">
     <g id="line2d_41">
      <g>
       <use xlink:href="#m00b1dff271" x="625.52" y="187.971818" style="stroke: #000000; stroke-width: 0.8"/>
      </g>
     </g>
     <g id="text_46">
      <!-- 0.6 -->
      <g transform="translate(602.616875 191.771037) scale(0.1 -0.1)">
       <use xlink:href="#DejaVuSans-30"/>
       <use xlink:href="#DejaVuSans-2e" x="63.623047"/>
       <use xlink:href="#DejaVuSans-36" x="95.410156"/>
      </g>
     </g>
    </g>
    <g id="ytick_22">
     <g id="line2d_42">
      <g>
       <use xlink:href="#m00b1dff271" x="625.52" y="146.575455" style="stroke: #000000; stroke-width: 0.8"/>
      </g>
     </g>
     <g id="text_47">
      <!-- 0.8 -->
      <g transform="translate(602.616875 150.374673) scale(0.1 -0.1)">
       <use xlink:href="#DejaVuSans-30"/>
       <use xlink:href="#DejaVuSans-2e" x="63.623047"/>
       <use xlink:href="#DejaVuSans-38" x="95.410156"/>
      </g>
     </g>
    </g>
    <g id="ytick_23">
     <g id="line2d_43">
      <g>
       <use xlink:href="#m00b1dff271" x="625.52" y="105.179091" style="stroke: #000000; stroke-width: 0.8"/>
      </g>
     </g>
     <g id="text_48">
      <!-- 1.0 -->
      <g transform="translate(602.616875 108.97831) scale(0.1 -0.1)">
       <use xlink:href="#DejaVuSans-31"/>
       <use xlink:href="#DejaVuSans-2e" x="63.623047"/>
       <use xlink:href="#DejaVuSans-30" x="95.410156"/>
      </g>
     </g>
    </g>
    <g id="ytick_24">
     <g id="line2d_44">
      <g>
       <use xlink:href="#m00b1dff271" x="625.52" y="63.782727" style="stroke: #000000; stroke-width: 0.8"/>
      </g>
     </g>
     <g id="text_49">
      <!-- 1.2 -->
      <g transform="translate(602.616875 67.581946) scale(0.1 -0.1)">
       <use xlink:href="#DejaVuSans-31"/>
       <use xlink:href="#DejaVuSans-2e" x="63.623047"/>
       <use xlink:href="#DejaVuSans-32" x="95.410156"/>
      </g>
     </g>
    </g>
    <g id="text_50">
     <!-- $\eta$ -->
     <g transform="translate(588.137188 211.87) rotate(-90) scale(0.1 -0.1)">
      <use xlink:href="#DejaVuSans-Oblique-3b7"/>
     </g>
    </g>
   </g>
   <g id="line2d_45">
    <path d="M 635.869091 312.160909 
L 842.850909 312.160909 
L 635.869091 105.179091 
L 635.869091 312.160909 
" clip-path="url(#p9098f9932c)" style="fill: none; stroke: #000000; stroke-width: 1.5; stroke-linecap: square"/>
   </g>
   <g id="patch_13">
    <path d="M 625.52 387.16 
L 625.52 30.18 
" style="fill: none; stroke: #000000; stroke-width: 0.8; stroke-linejoin: miter; stroke-linecap: square"/>
   </g>
   <g id="patch_14">
    <path d="M 853.2 387.16 
L 853.2 30.18 
" style="fill: none; stroke: #000000; stroke-width: 0.8; stroke-linejoin: miter; stroke-linecap: square"/>
   </g>
   <g id="patch_15">
    <path d="M 625.52 387.16 
L 853.2 387.16 
" style="fill: none; stroke: #000000; stroke-width: 0.8; stroke-linejoin: miter; stroke-linecap: square"/>
   </g>
   <g id="patch_16">
    <path d="M 625.52 30.18 
L 853.2 30.18 
" style="fill: none; stroke: #000000; stroke-width: 0.8; stroke-linejoin: miter; stroke-linecap: square"/>
   </g>
   <g id="text_51">
    <!-- $\hat{\varphi}_{3}$ -->
    <g transform="translate(732.46 24.18) scale(0.12 -0.12)">
     <defs>
      <path id="DejaVuSans-33" d="M 2597 2516 
Q 3050 2419 3304 2112 
Q 3559 1806 3559 1356 
Q 3559 666 3084 287 
Q 2609 -91 1734 -91 
Q 1441 -91 1130 -33 
Q 819 25 488 141 
L 488 750 
Q 750 597 1062 519 
Q 1375 441 1716 441 
Q 2309 441 2620 675 
Q 2931 909 2931 1356 
Q 2931 1769 2642 2001 
Q 2353 2234 1838 2234 
L 1294 2234 
L 1294 2753 
L 1863 2753 
Q 2328 2753 2575 2939 
Q 2822 3125 2822 3475 
Q 2822 3834 2567 4026 
Q 2313 4219 1838 4219 
Q 1578 4219 1281 4162 
Q 984 4106 628 3988 
L 628 4550 
Q 988 4650 1302 4700 
Q 1616 4750 1894 4750 
Q 2613 4750 3031 4423 
Q 3450 4097 3450 3541 
Q 3450 3153 3228 2886 
Q 3006 2619 2597 2516 
z
" transform="scale(0.015625)"/>
     </defs>
     <use xlink:href="#DejaVuSans-302" transform="translate(66.069824 12.015625)"/>
     <use xlink:href="#DejaVuSans-Oblique-3c6" transform="translate(0 0.4375)"/>
     <use xlink:href="#DejaVuSans-33" transform="translate(66.923828 -15.96875) scale(0.7)"/>
    </g>
   </g>
  </g>
 </g>
 <defs>
  <clipPath id="pcc97a9c6b3">
   <rect x="56.72" y="30.18" width="227.68" height="356.98"/>
  </clipPath>
  <clipPath id="paa88d95357">
   <rect x="341.12" y="30.18" width="227.68" height="356.98"/>
  </clipPath>
  <clipPath id="p9098f9932c">
   <rect x="625.52" y="30.18" width="227.68" height="356.98"/>
  </clipPath>
 </defs>
</svg>
