<?xml version="1.0" encoding="utf-8" standalone="no"?>
<!DOCTYPE svg PUBLIC "-//W3C//DTD SVG 1.1//EN"
  "http://www.w3.org/Graphics/SVG/1.1/DTD/svg11.dtd">
<svg xmlns:xlink="http://www.w3.org/1999/xlink" width="576pt" height="432pt" viewBox="0 0 576 432" xmlns="http://www.w3.org/2000/svg" version="1.1">
 <metadata>
  <rdf:RDF xmlns:dc="http://purl.org/dc/elements/1.1/" xmlns:cc="http://creativecommons.org/ns#" xmlns:rdf="http://www.w3.org/1999/02/22-rdf-syntax-ns#">
   <cc:Work>
    <dc:type rdf:resource="http://purl.org/dc/dcmitype/StillImage"/>
    <dc:date>2024-12-18T14:26:48.135569</dc:date>
    <dc:format>image/svg+xml</dc:format>
    <dc:creator>
     <cc:Agent>
      <dc:title>Matplotlib v3.8.3, https://matplotlib.org/</dc:title>
     </cc:Agent>
    </dc:creator>
   </cc:Work>
  </rdf:RDF>
 </metadata>
 <defs>
  <style type="text/css">*{stroke-linejoin: round; stroke-linecap: butt}</style>
 </defs>
 <g id="figure_1">
  <g id="patch_1">
   <path d="M 0 432 
L 576 432 
L 576 0 
L 0 0 
z
" style="fill: #ffffff"/>
  </g>
  <g id="axes_1">
   <g id="patch_2">
    <path d="M 48.44 390.04 
L 461.848 390.04 
L 461.848 14.76 
L 48.44 14.76 
z
" style="fill: #ffffff"/>
   </g>
   <g id="TriContourSet_1">
    <path d="M 255.144 14.76 
L 213.8032 14.76 
L 172.4624 14.76 
L 131.1216 14.76 
L 89.7808 14.76 
L 48.44 14.76 
L 48.44 52.288 
L 48.44 89.816 
L 48.44 127.344 
L 48.44 164.872 
L 48.44 202.4 
L 48.44 239.928 
L 48.44 277.456 
L 48.44 314.984 
L 48.44 352.512 
L 48.44 390.04 
L 89.7808 390.04 
L 131.1216 390.04 
L 172.4624 390.04 
L 213.8032 390.04 
L 255.144 390.04 
L 296.4848 390.04 
L 337.8256 390.04 
L 379.1664 390.04 
L 420.5072 390.04 
L 461.848 390.04 
L 461.848 352.512 
L 461.848 314.984 
L 461.848 277.456 
L 461.848 239.928 
L 461.848 202.4 
L 461.848 164.872 
L 461.848 127.344 
L 461.848 89.816 
L 461.848 52.288 
L 461.848 14.76 
L 420.5072 14.76 
L 379.1664 14.76 
L 337.8256 14.76 
L 296.4848 14.76 
z
M 426.228863 86.517185 
L 432.619131 102.050197 
L 432.619131 109.975108 
L 439.104405 137.012361 
L 439.104405 154.013757 
L 441.57929 176.409206 
L 441.57929 192.234292 
L 441.545935 213.455829 
L 441.545935 229.102632 
L 439.330314 251.729567 
L 439.330314 265.654433 
L 433.562151 291.9912 
L 433.562151 299.921282 
L 426.846476 316.541972 
L 421.144191 329.885163 
L 397.162819 351.115171 
L 394.881275 352.963152 
L 383.419779 356.662438 
L 360.173035 364.636996 
L 353.991332 364.636996 
L 324.811071 369.577174 
L 309.499329 369.577174 
L 284.743894 371.5797 
L 266.884906 371.5797 
L 243.006482 371.599346 
L 225.868109 371.599346 
L 199.337626 369.541231 
L 185.566245 369.541231 
L 154.49146 364.069271 
L 147.179687 364.069271 
L 130.171541 358.373069 
L 113.205187 351.964441 
L 90.783356 331.690779 
L 83.428258 316.562094 
L 76.781054 300.130394 
L 76.781054 292.309606 
L 70.906814 264.831757 
L 70.906814 252.884135 
L 68.679384 227.87928 
L 68.679384 210.242098 
L 68.628085 188.358307 
L 68.628085 178.913693 
L 70.991775 153.140085 
L 70.991775 138.651891 
L 76.022319 111.175711 
L 76.403742 109.745333 
L 87.890044 77.518727 
L 90.22321 74.900613 
L 115.160199 51.523761 
L 130.106635 46.264383 
L 147.81768 40.448414 
L 156.303371 40.448414 
L 185.508661 35.198409 
L 200.827831 35.198409 
L 225.532836 33.202581 
L 243.414364 33.202581 
L 266.873998 33.202769 
L 284.755166 33.202769 
L 309.487588 35.204366 
L 324.822812 35.204366 
L 354.23726 40.504909 
L 362.708313 40.504909 
L 381.392093 46.804695 
L 397.163752 52.907721 
L 419.512581 73.027184 
z
" clip-path="url(#pff9cbc485c)" style="fill: #481b6d"/>
    <path d="M 419.512581 73.027184 
L 397.163752 52.907721 
L 381.392093 46.804695 
L 362.708313 40.504909 
L 354.23726 40.504909 
L 324.822812 35.204366 
L 309.487588 35.204366 
L 284.755166 33.202769 
L 266.873998 33.202769 
L 243.414364 33.202581 
L 225.532836 33.202581 
L 200.827831 35.198409 
L 185.508661 35.198409 
L 156.303371 40.448414 
L 147.81768 40.448414 
L 130.106635 46.264383 
L 115.160199 51.523761 
L 90.22321 74.900613 
L 87.890044 77.518727 
L 76.403742 109.745333 
L 76.022319 111.175711 
L 70.991775 138.651891 
L 70.991775 153.140085 
L 68.628085 178.913693 
L 68.628085 188.358307 
L 68.679384 210.242098 
L 68.679384 227.87928 
L 70.906814 252.884135 
L 70.906814 264.831757 
L 76.781054 292.309606 
L 76.781054 300.130394 
L 83.428258 316.562094 
L 90.783356 331.690779 
L 113.205187 351.964441 
L 130.171541 358.373069 
L 147.179687 364.069271 
L 154.49146 364.069271 
L 185.566245 369.541231 
L 199.337626 369.541231 
L 225.868109 371.599346 
L 243.006482 371.599346 
L 266.884906 371.5797 
L 284.743894 371.5797 
L 309.499329 369.577174 
L 324.811071 369.577174 
L 353.991332 364.636996 
L 360.173035 364.636996 
L 383.419779 356.662438 
L 394.881275 352.963152 
L 397.162819 351.115171 
L 421.144191 329.885163 
L 426.846476 316.541972 
L 433.562151 299.921282 
L 433.562151 291.9912 
L 439.330314 265.654433 
L 439.330314 251.729567 
L 441.545935 229.102632 
L 441.545935 213.455829 
L 441.57929 192.234292 
L 441.57929 176.409206 
L 439.104405 154.013757 
L 439.104405 137.012361 
L 432.619131 109.975108 
L 432.619131 102.050197 
L 426.228863 86.517185 
z
M 102.575915 289.058937 
L 97.477266 266.312997 
L 93.152184 254.957207 
L 89.524145 220.184522 
L 89.143282 216.914677 
L 89.131127 213.107295 
L 89.689942 182.109752 
L 92.156892 155.62382 
L 94.470724 145.561916 
L 102.338559 122.060113 
L 105.303216 110.942304 
L 106.979666 106.238762 
L 129.212975 81.290112 
L 131.096791 79.020552 
L 131.662278 78.690739 
L 162.070213 62.988812 
L 186.059225 58.445017 
L 198.23773 55.192744 
L 231.212966 52.38847 
L 237.408125 51.873708 
L 272.880307 51.874015 
L 279.076984 52.389301 
L 312.104535 55.201485 
L 324.157536 58.425059 
L 348.338116 63.012786 
L 383.546792 82.828343 
L 384.794664 83.575803 
L 385.815076 84.910891 
L 405.672848 111.692432 
L 413.194042 137.598352 
L 415.935512 144.992947 
L 416.896949 148.439793 
L 420.612058 182.260272 
L 420.948738 187.890163 
L 420.884123 219.07894 
L 420.294491 225.448244 
L 417.47787 253.420266 
L 414.053986 263.50124 
L 408.495339 287.524179 
L 393.929757 311.583468 
L 391.666503 314.27554 
L 368.495924 332.646428 
L 366.226639 333.724435 
L 344.944309 342.800908 
L 326.557234 346.105203 
L 310.81637 349.830621 
L 280.04349 352.39645 
L 272.06834 352.983903 
L 238.816643 352.986972 
L 229.369427 352.266779 
L 199.247165 349.82329 
L 181.016801 345.077991 
L 160.800308 341.31215 
L 128.407241 323.162899 
L 126.279848 321.969341 
L 125.24785 320.732309 
z
" clip-path="url(#pff9cbc485c)" style="fill: #3f4788"/>
    <path d="M 125.24785 320.732309 
L 126.279848 321.969341 
L 128.407241 323.162899 
L 160.800308 341.31215 
L 181.016801 345.077991 
L 199.247165 349.82329 
L 229.369427 352.266779 
L 238.816643 352.986972 
L 272.06834 352.983903 
L 280.04349 352.39645 
L 310.81637 349.830621 
L 326.557234 346.105203 
L 344.944309 342.800908 
L 366.226639 333.724435 
L 368.495924 332.646428 
L 391.666503 314.27554 
L 393.929757 311.583468 
L 408.495339 287.524179 
L 414.053986 263.50124 
L 417.47787 253.420266 
L 420.294491 225.448244 
L 420.884123 219.07894 
L 420.948738 187.890163 
L 420.612058 182.260272 
L 416.896949 148.439793 
L 415.935512 144.992947 
L 413.194042 137.598352 
L 405.672848 111.692432 
L 385.815076 84.910891 
L 384.794664 83.575803 
L 383.546792 82.828343 
L 348.338116 63.012786 
L 324.157536 58.425059 
L 312.104535 55.201485 
L 279.076984 52.389301 
L 272.880307 51.874015 
L 237.408125 51.873708 
L 231.212966 52.38847 
L 198.23773 55.192744 
L 186.059225 58.445017 
L 162.070213 62.988812 
L 131.662278 78.690739 
L 131.096791 79.020552 
L 129.212975 81.290112 
L 106.979666 106.238762 
L 105.303216 110.942304 
L 102.338559 122.060113 
L 94.470724 145.561916 
L 92.156892 155.62382 
L 89.689942 182.109752 
L 89.131127 213.107295 
L 89.143282 216.914677 
L 89.524145 220.184522 
L 93.152184 254.957207 
L 97.477266 266.312997 
L 102.575915 289.058937 
z
M 127.203913 278.829675 
L 120.572718 261.589748 
L 115.203482 247.492461 
L 115.106643 246.56431 
L 111.364239 214.434479 
L 111.262936 182.702409 
L 111.490067 179.903289 
L 112.834513 174.095632 
L 119.520494 145.021052 
L 123.318568 133.675925 
L 137.997487 111.674247 
L 145.741009 102.345104 
L 165.301087 90.936934 
L 175.499367 84.386173 
L 191.088186 79.738786 
L 210.512783 74.551442 
L 217.499157 73.957308 
L 249.750361 71.277526 
L 260.539948 71.277619 
L 292.796087 73.959885 
L 299.79515 74.555831 
L 319.440917 79.81009 
L 334.724965 84.369011 
L 343.762914 90.173748 
L 366.06524 103.532569 
L 374.362403 114.388423 
L 385.601848 131.040653 
L 390.715485 144.833721 
L 397.275183 168.350886 
L 397.764166 172.80234 
L 399.343981 199.219681 
L 399.319436 211.067263 
L 396.660341 239.791258 
L 396.582562 240.563684 
L 384.808589 275.229902 
L 384.606644 276.10265 
L 384.07748 276.976718 
L 358.781389 307.065644 
L 358.23625 307.497859 
L 357.073479 308.050225 
L 329.700376 322.519045 
L 298.162449 330.360477 
L 295.353023 331.024358 
L 277.560962 332.400805 
L 256.424187 333.957748 
L 253.90897 333.95798 
L 227.803915 331.967905 
L 213.647367 330.847223 
L 211.910103 330.417141 
L 176.163206 320.809379 
L 161.202251 312.374353 
L 149.835231 305.996972 
L 129.862995 282.056711 
L 127.693193 279.558707 
z
" clip-path="url(#pff9cbc485c)" style="fill: #2e6e8e"/>
    <path d="M 127.693193 279.558707 
L 129.862995 282.056711 
L 149.835231 305.996972 
L 161.202251 312.374353 
L 176.163206 320.809379 
L 211.910103 330.417141 
L 213.647367 330.847223 
L 227.803915 331.967905 
L 253.90897 333.95798 
L 256.424187 333.957748 
L 277.560962 332.400805 
L 295.353023 331.024358 
L 298.162449 330.360477 
L 329.700376 322.519045 
L 357.073479 308.050225 
L 358.23625 307.497859 
L 358.781389 307.065644 
L 384.07748 276.976718 
L 384.606644 276.10265 
L 384.808589 275.229902 
L 396.582562 240.563684 
L 396.660341 239.791258 
L 399.319436 211.067263 
L 399.343981 199.219681 
L 397.764166 172.80234 
L 397.275183 168.350886 
L 390.715485 144.833721 
L 385.601848 131.040653 
L 374.362403 114.388423 
L 366.06524 103.532569 
L 343.762914 90.173748 
L 334.724965 84.369011 
L 319.440917 79.81009 
L 299.79515 74.555831 
L 292.796087 73.959885 
L 260.539948 71.277619 
L 249.750361 71.277526 
L 217.499157 73.957308 
L 210.512783 74.551442 
L 191.088186 79.738786 
L 175.499367 84.386173 
L 165.301087 90.936934 
L 145.741009 102.345104 
L 137.997487 111.674247 
L 123.318568 133.675925 
L 119.520494 145.021052 
L 112.834513 174.095632 
L 111.490067 179.903289 
L 111.262936 182.702409 
L 111.364239 214.434479 
L 115.106643 246.56431 
L 115.203482 247.492461 
L 120.572718 261.589748 
L 127.203913 278.829675 
z
M 373.406121 222.795402 
L 370.653146 240.344645 
L 367.054853 250.945381 
L 351.692523 275.036787 
L 343.860275 284.377822 
L 324.252102 296.103307 
L 313.972217 302.237023 
L 295.207899 307.261812 
L 278.969522 311.099018 
L 272.230607 311.620361 
L 238.058037 311.621144 
L 231.109941 311.071108 
L 207.674491 305.269359 
L 194.52996 301.746293 
L 188.65654 298.170739 
L 166.588022 284.593355 
L 159.275391 276.174621 
L 144.677851 254.424136 
L 141.117406 245.167612 
L 135.342624 218.381695 
L 134.165072 212.023292 
L 134.289298 206.920069 
L 136.576512 178.732857 
L 140.415489 162.149471 
L 148.412684 144.788952 
L 160.648461 126.452783 
L 179.08288 112.003956 
L 189.026243 105.616938 
L 199.173933 102.591677 
L 223.82492 95.505621 
L 246.467281 93.404618 
L 263.823489 93.404819 
L 286.469861 95.507434 
L 310.805233 102.512639 
L 321.230839 105.622385 
L 331.969673 112.519537 
L 349.277536 126.005973 
L 361.893887 144.67803 
L 369.321149 160.175886 
L 373.123601 174.20908 
L 375.082201 193.85074 
L 375.507981 206.701146 
z
" clip-path="url(#pff9cbc485c)" style="fill: #21918c"/>
    <path d="M 375.507981 206.701146 
L 375.082201 193.85074 
L 373.123601 174.20908 
L 369.321149 160.175886 
L 361.893887 144.67803 
L 349.277536 126.005973 
L 331.969673 112.519537 
L 321.230839 105.622385 
L 310.805233 102.512639 
L 286.469861 95.507434 
L 263.823489 93.404819 
L 246.467281 93.404618 
L 223.82492 95.505621 
L 199.173933 102.591677 
L 189.026243 105.616938 
L 179.08288 112.003956 
L 160.648461 126.452783 
L 148.412684 144.788952 
L 140.415489 162.149471 
L 136.576512 178.732857 
L 134.289298 206.920069 
L 134.165072 212.023292 
L 135.342624 218.381695 
L 141.117406 245.167612 
L 144.677851 254.424136 
L 159.275391 276.174621 
L 166.588022 284.593355 
L 188.65654 298.170739 
L 194.52996 301.746293 
L 207.674491 305.269359 
L 231.109941 311.071108 
L 238.058037 311.621144 
L 272.230607 311.620361 
L 278.969522 311.099018 
L 295.207899 307.261812 
L 313.972217 302.237023 
L 324.252102 296.103307 
L 343.860275 284.377822 
L 351.692523 275.036787 
L 367.054853 250.945381 
L 370.653146 240.344645 
L 373.406121 222.795402 
z
M 346.654313 219.508042 
L 338.65932 241.232505 
L 327.676775 258.46349 
L 306.830415 274.727999 
L 299.367267 279.181047 
L 292.530708 281.01177 
L 262.65293 286.562892 
L 247.630586 286.563282 
L 217.864825 281.054525 
L 210.69163 279.131927 
L 203.456325 274.727301 
L 182.791247 258.658851 
L 172.388752 243.157065 
L 164.504339 222.595476 
L 162.21557 210.236859 
L 162.563296 195.952218 
L 165.960232 177.749557 
L 177.044961 152.840926 
L 184.562608 144.728565 
L 204.26172 129.709835 
L 228.771889 121.129013 
L 238.635944 118.80186 
L 271.654237 118.802211 
L 281.452237 121.110075 
L 305.998456 129.687435 
L 325.709473 144.610153 
L 332.946693 152.40668 
L 344.066923 176.503074 
L 347.714836 195.136201 
L 348.144332 208.098747 
z
" clip-path="url(#pff9cbc485c)" style="fill: #2db27d"/>
    <path d="M 348.144332 208.098747 
L 347.714836 195.136201 
L 344.066923 176.503074 
L 332.946693 152.40668 
L 325.709473 144.610153 
L 305.998456 129.687435 
L 281.452237 121.110075 
L 271.654237 118.802211 
L 238.635944 118.80186 
L 228.771889 121.129013 
L 204.26172 129.709835 
L 184.562608 144.728565 
L 177.044961 152.840926 
L 165.960232 177.749557 
L 162.563296 195.952218 
L 162.21557 210.236859 
L 164.504339 222.595476 
L 172.388752 243.157065 
L 182.791247 258.658851 
L 203.456325 274.727301 
L 210.69163 279.131927 
L 217.864825 281.054525 
L 247.630586 286.563282 
L 262.65293 286.562892 
L 292.530708 281.01177 
L 299.367267 279.181047 
L 306.830415 274.727999 
L 327.676775 258.46349 
L 338.65932 241.232505 
L 346.654313 219.508042 
z
M 207.413775 177.139242 
L 223.946386 160.89904 
L 250.446463 152.007719 
L 259.729578 151.981261 
L 286.211397 160.849597 
L 303.032928 177.247923 
L 308.591619 190.696321 
L 309.659931 209.37905 
L 305.359774 223.435919 
L 289.330883 242.161393 
L 279.921735 248.620409 
L 270.280928 250.951914 
L 239.970218 250.951464 
L 230.355049 248.633766 
L 220.82672 242.159039 
L 204.893495 223.497688 
L 200.421747 209.598943 
L 201.616916 191.110999 
z
" clip-path="url(#pff9cbc485c)" style="fill: #73d056"/>
    <path d="M 201.616916 191.110999 
L 200.421747 209.598943 
L 204.893495 223.497688 
L 220.82672 242.159039 
L 230.355049 248.633766 
L 239.970218 250.951464 
L 270.280928 250.951914 
L 279.921735 248.620409 
L 289.330883 242.161393 
L 305.359774 223.435919 
L 309.659931 209.37905 
L 308.591619 190.696321 
L 303.032928 177.247923 
L 286.211397 160.849597 
L 259.729578 151.981261 
L 250.446463 152.007719 
L 223.946386 160.89904 
L 207.413775 177.139242 
z
" clip-path="url(#pff9cbc485c)" style="fill: #d0e11c"/>
   </g>
   <g id="line2d_1">
    <path d="M 89.7808 390.04 
L 48.44 390.04 
M 131.1216 390.04 
L 89.7808 390.04 
M 172.4624 390.04 
L 131.1216 390.04 
M 213.8032 390.04 
L 172.4624 390.04 
M 255.144 390.04 
L 213.8032 390.04 
M 296.4848 390.04 
L 255.144 390.04 
M 337.8256 390.04 
L 296.4848 390.04 
M 379.1664 390.04 
L 337.8256 390.04 
M 420.5072 390.04 
L 461.848 390.04 
M 420.5072 390.04 
L 379.1664 390.04 
M 461.848 352.512 
L 461.848 390.04 
M 461.848 314.984 
L 461.848 352.512 
M 461.848 277.456 
L 461.848 314.984 
M 461.848 239.928 
L 461.848 277.456 
M 461.848 202.4 
L 461.848 239.928 
M 461.848 164.872 
L 461.848 202.4 
M 461.848 127.344 
L 461.848 164.872 
M 461.848 89.816 
L 461.848 127.344 
M 461.848 52.288 
L 461.848 14.76 
M 461.848 52.288 
L 461.848 89.816 
M 420.5072 14.76 
L 461.848 14.76 
M 379.1664 14.76 
L 420.5072 14.76 
M 337.8256 14.76 
L 379.1664 14.76 
M 296.4848 14.76 
L 337.8256 14.76 
M 255.144 14.76 
L 296.4848 14.76 
M 213.8032 14.76 
L 255.144 14.76 
M 172.4624 14.76 
L 213.8032 14.76 
M 131.1216 14.76 
L 172.4624 14.76 
M 89.7808 14.76 
L 48.44 14.76 
M 89.7808 14.76 
L 131.1216 14.76 
M 48.44 52.288 
L 48.44 14.76 
M 48.44 89.816 
L 48.44 52.288 
M 48.44 127.344 
L 48.44 89.816 
M 48.44 164.872 
L 48.44 127.344 
M 48.44 202.4 
L 48.44 164.872 
M 48.44 239.928 
L 48.44 202.4 
M 48.44 277.456 
L 48.44 239.928 
M 48.44 314.984 
L 48.44 277.456 
M 48.44 352.512 
L 48.44 390.04 
M 48.44 352.512 
L 48.44 314.984 
M 234.4736 47.260201 
L 255.144 14.76 
M 234.4736 47.260201 
L 213.8032 14.76 
M 86.62564 217.195684 
L 48.44 202.4 
M 86.62564 217.195684 
L 48.44 239.928 
M 275.8144 357.539799 
L 255.144 390.04 
M 275.8144 357.539799 
L 296.4848 390.04 
M 426.79998 184.821776 
L 461.848 202.4 
M 426.79998 184.821776 
L 461.848 164.872 
M 317.1552 47.260201 
L 337.8256 14.76 
M 317.1552 47.260201 
L 296.4848 14.76 
M 85.173079 145.762667 
L 48.44 127.344 
M 85.173079 145.762667 
L 48.44 164.872 
M 426.045817 258.692 
L 461.848 277.456 
M 426.045817 258.692 
L 461.848 239.928 
M 192.111833 359.301758 
L 172.4624 390.04 
M 192.111833 359.301758 
L 213.8032 390.04 
M 424.794401 105.32536 
L 461.848 127.344 
M 424.794401 105.32536 
L 461.848 89.816 
M 152.129879 47.083118 
L 172.4624 14.76 
M 152.129879 47.083118 
L 131.1216 14.76 
M 356.833605 360.170618 
L 337.8256 390.04 
M 356.833605 360.170618 
L 379.1664 390.04 
M 84.242183 296.22 
L 48.44 277.456 
M 84.242183 296.22 
L 48.44 314.984 
M 85.882249 74.498032 
L 48.44 52.288 
M 85.882249 74.498032 
L 48.44 89.816 
M 399.661624 46.537661 
L 420.5072 14.76 
M 399.661624 46.537661 
L 379.1664 14.76 
M 110.626376 358.262339 
L 89.7808 390.04 
M 110.626376 358.262339 
L 131.1216 390.04 
M 427.555914 333.525372 
L 461.848 352.512 
M 427.555914 333.525372 
L 461.848 314.984 
M 193.189113 47.230687 
L 213.8032 14.76 
M 193.189113 47.230687 
L 172.4624 14.76 
M 193.189113 47.230687 
L 234.4736 47.260201 
M 193.189113 47.230687 
L 152.129879 47.083118 
M 213.812586 79.755484 
L 234.4736 47.260201 
M 213.812586 79.755484 
L 193.189113 47.230687 
M 255.145564 79.759583 
L 234.4736 47.260201 
M 255.145564 79.759583 
L 213.812586 79.755484 
M 234.475425 112.259648 
L 213.812586 79.755484 
M 234.475425 112.259648 
L 255.145564 79.759583 
M 275.814965 112.260308 
L 255.145564 79.759583 
M 275.814965 112.260308 
L 234.475425 112.259648 
M 255.144398 144.760597 
L 234.475425 112.259648 
M 255.144398 144.760597 
L 275.814965 112.260308 
M 213.665135 144.620987 
L 234.475425 112.259648 
M 213.665135 144.620987 
L 255.144398 144.760597 
M 234.179678 177.101161 
L 255.144398 144.760597 
M 234.179678 177.101161 
L 213.665135 144.620987 
M 275.765479 177.234331 
L 255.144398 144.760597 
M 275.765479 177.234331 
L 234.179678 177.101161 
M 255.08686 209.730121 
L 234.179678 177.101161 
M 255.08686 209.730121 
L 275.765479 177.234331 
M 296.467123 209.751581 
L 275.765479 177.234331 
M 296.467123 209.751581 
L 255.08686 209.730121 
M 213.473712 209.592878 
L 234.179678 177.101161 
M 213.473712 209.592878 
L 255.08686 209.730121 
M 234.409162 242.228173 
L 255.08686 209.730121 
M 234.409162 242.228173 
L 213.473712 209.592878 
M 193.464111 242.019765 
L 213.473712 209.592878 
M 193.464111 242.019765 
L 234.409162 242.228173 
M 317.1441 177.254956 
L 275.765479 177.234331 
M 317.1441 177.254956 
L 296.467123 209.751581 
M 339.66701 208.531727 
L 296.467123 209.751581 
M 339.66701 208.531727 
L 317.1441 177.254956 
M 317.459155 242.054891 
L 296.467123 209.751581 
M 317.459155 242.054891 
L 339.66701 208.531727 
M 172.024895 209.612139 
L 213.473712 209.592878 
M 172.024895 209.612139 
L 193.464111 242.019765 
M 213.847679 274.715797 
L 234.409162 242.228173 
M 213.847679 274.715797 
L 193.464111 242.019765 
M 172.4624 274.761611 
L 193.464111 242.019765 
M 172.4624 274.761611 
L 213.847679 274.715797 
M 255.140673 274.748436 
L 234.409162 242.228173 
M 255.140673 274.748436 
L 213.847679 274.715797 
M 234.4736 307.261812 
L 213.847679 274.715797 
M 234.4736 307.261812 
L 255.140673 274.748436 
M 359.162612 176.081492 
L 317.1441 177.254956 
M 359.162612 176.081492 
L 339.66701 208.531727 
M 337.934852 144.563211 
L 317.1441 177.254956 
M 337.934852 144.563211 
L 359.162612 176.081492 
M 359.957733 240.406307 
L 339.66701 208.531727 
M 359.957733 240.406307 
L 317.459155 242.054891 
M 337.8256 274.761611 
L 317.459155 242.054891 
M 337.8256 274.761611 
L 359.957733 240.406307 
M 379.1664 144.760805 
L 359.162612 176.081492 
M 379.1664 144.760805 
L 337.934852 144.563211 
M 357.315063 112.856147 
L 337.934852 144.563211 
M 357.315063 112.856147 
L 379.1664 144.760805 
M 275.8144 307.261812 
L 255.140673 274.748436 
M 275.8144 307.261812 
L 234.4736 307.261812 
M 383.706056 275.672065 
L 426.045817 258.692 
M 383.706056 275.672065 
L 359.957733 240.406307 
M 383.706056 275.672065 
L 337.8256 274.761611 
M 357.989053 306.891928 
L 337.8256 274.761611 
M 357.989053 306.891928 
L 383.706056 275.672065 
M 172.529663 79.72515 
L 152.129879 47.083118 
M 172.529663 79.72515 
L 193.189113 47.230687 
M 172.529663 79.72515 
L 213.812586 79.755484 
M 130.877244 78.670868 
L 152.129879 47.083118 
M 130.877244 78.670868 
L 85.882249 74.498032 
M 130.877244 78.670868 
L 172.529663 79.72515 
M 151.762485 111.935798 
L 172.529663 79.72515 
M 151.762485 111.935798 
L 130.877244 78.670868 
M 110.241979 111.14686 
L 85.173079 145.762667 
M 110.241979 111.14686 
L 85.882249 74.498032 
M 110.241979 111.14686 
L 130.877244 78.670868 
M 110.241979 111.14686 
L 151.762485 111.935798 
M 129.775127 144.799638 
L 85.173079 145.762667 
M 129.775127 144.799638 
L 151.762485 111.935798 
M 129.775127 144.799638 
L 110.241979 111.14686 
M 109.420355 179.999853 
L 86.62564 217.195684 
M 109.420355 179.999853 
L 85.173079 145.762667 
M 109.420355 179.999853 
L 129.775127 144.799638 
M 150.196099 178.097422 
L 172.024895 209.612139 
M 150.196099 178.097422 
L 129.775127 144.799638 
M 150.196099 178.097422 
L 109.420355 179.999853 
M 131.374833 212.200992 
L 86.62564 217.195684 
M 131.374833 212.200992 
L 172.024895 209.612139 
M 131.374833 212.200992 
L 109.420355 179.999853 
M 131.374833 212.200992 
L 150.196099 178.097422 
M 115.808216 247.287748 
L 86.62564 217.195684 
M 115.808216 247.287748 
L 131.374833 212.200992 
M 192.666987 177.160223 
L 213.665135 144.620987 
M 192.666987 177.160223 
L 234.179678 177.101161 
M 192.666987 177.160223 
L 213.473712 209.592878 
M 192.666987 177.160223 
L 172.024895 209.612139 
M 192.666987 177.160223 
L 150.196099 178.097422 
M 296.485155 79.760217 
L 317.1552 47.260201 
M 296.485155 79.760217 
L 255.145564 79.759583 
M 296.485155 79.760217 
L 275.814965 112.260308 
M 420.26676 145.020293 
L 461.848 164.872 
M 420.26676 145.020293 
L 461.848 127.344 
M 420.26676 145.020293 
L 426.79998 184.821776 
M 420.26676 145.020293 
L 424.794401 105.32536 
M 420.26676 145.020293 
L 379.1664 144.760805 
M 317.1552 357.539799 
L 296.4848 390.04 
M 317.1552 357.539799 
L 337.8256 390.04 
M 317.1552 357.539799 
L 275.8144 357.539799 
M 317.1552 357.539799 
L 356.833605 360.170618 
M 427.028338 221.361629 
L 461.848 239.928 
M 427.028338 221.361629 
L 461.848 202.4 
M 427.028338 221.361629 
L 426.79998 184.821776 
M 427.028338 221.361629 
L 426.045817 258.692 
M 386.10984 206.159655 
L 426.79998 184.821776 
M 386.10984 206.159655 
L 339.66701 208.531727 
M 386.10984 206.159655 
L 359.162612 176.081492 
M 386.10984 206.159655 
L 359.957733 240.406307 
M 386.10984 206.159655 
L 427.028338 221.361629 
M 234.411588 358.541036 
L 213.8032 390.04 
M 234.411588 358.541036 
L 255.144 390.04 
M 234.411588 358.541036 
L 275.8144 357.539799 
M 234.411588 358.541036 
L 192.111833 359.301758 
M 275.81472 47.260034 
L 296.4848 14.76 
M 275.81472 47.260034 
L 255.144 14.76 
M 275.81472 47.260034 
L 234.4736 47.260201 
M 275.81472 47.260034 
L 317.1552 47.260201 
M 275.81472 47.260034 
L 255.145564 79.759583 
M 275.81472 47.260034 
L 296.485155 79.760217 
M 150.630067 358.488973 
L 131.1216 390.04 
M 150.630067 358.488973 
L 172.4624 390.04 
M 150.630067 358.488973 
L 192.111833 359.301758 
M 150.630067 358.488973 
L 110.626376 358.262339 
M 125.182709 322.713286 
L 84.242183 296.22 
M 125.182709 322.713286 
L 110.626376 358.262339 
M 125.182709 322.713286 
L 150.630067 358.488973 
M 425.983608 295.885573 
L 461.848 314.984 
M 425.983608 295.885573 
L 461.848 277.456 
M 425.983608 295.885573 
L 426.045817 258.692 
M 425.983608 295.885573 
L 427.555914 333.525372 
M 425.983608 295.885573 
L 383.706056 275.672065 
M 296.493166 144.722335 
L 275.814965 112.260308 
M 296.493166 144.722335 
L 255.144398 144.760597 
M 296.493166 144.722335 
L 275.765479 177.234331 
M 296.493166 144.722335 
L 317.1441 177.254956 
M 296.493166 144.722335 
L 337.934852 144.563211 
M 358.466804 47.139778 
L 379.1664 14.76 
M 358.466804 47.139778 
L 337.8256 14.76 
M 358.466804 47.139778 
L 317.1552 47.260201 
M 358.466804 47.139778 
L 399.661624 46.537661 
M 192.802361 304.16365 
L 213.847679 274.715797 
M 192.802361 304.16365 
L 172.4624 274.761611 
M 192.802361 304.16365 
L 234.4736 307.261812 
M 275.841296 242.212469 
L 255.08686 209.730121 
M 275.841296 242.212469 
L 296.467123 209.751581 
M 275.841296 242.212469 
L 234.409162 242.228173 
M 275.841296 242.212469 
L 317.459155 242.054891 
M 275.841296 242.212469 
L 255.140673 274.748436 
M 316.978133 112.320437 
L 275.814965 112.260308 
M 316.978133 112.320437 
L 337.934852 144.563211 
M 316.978133 112.320437 
L 357.315063 112.856147 
M 316.978133 112.320437 
L 296.485155 79.760217 
M 316.978133 112.320437 
L 296.493166 144.722335 
M 337.594459 79.84953 
L 317.1552 47.260201 
M 337.594459 79.84953 
L 357.315063 112.856147 
M 337.594459 79.84953 
L 296.485155 79.760217 
M 337.594459 79.84953 
L 358.466804 47.139778 
M 337.594459 79.84953 
L 316.978133 112.320437 
M 296.539387 274.716839 
L 317.459155 242.054891 
M 296.539387 274.716839 
L 255.140673 274.748436 
M 296.539387 274.716839 
L 337.8256 274.761611 
M 296.539387 274.716839 
L 275.8144 307.261812 
M 296.539387 274.716839 
L 275.841296 242.212469 
M 385.384363 82.947462 
L 424.794401 105.32536 
M 385.384363 82.947462 
L 399.661624 46.537661 
M 385.384363 82.947462 
L 357.315063 112.856147 
M 385.384363 82.947462 
L 358.466804 47.139778 
M 385.384363 82.947462 
L 337.594459 79.84953 
M 317.1552 307.261812 
L 337.8256 274.761611 
M 317.1552 307.261812 
L 275.8144 307.261812 
M 317.1552 307.261812 
L 357.989053 306.891928 
M 317.1552 307.261812 
L 296.539387 274.716839 
M 193.117949 112.03897 
L 213.812586 79.755484 
M 193.117949 112.03897 
L 234.475425 112.259648 
M 193.117949 112.03897 
L 213.665135 144.620987 
M 193.117949 112.03897 
L 172.529663 79.72515 
M 193.117949 112.03897 
L 151.762485 111.935798 
M 171.863964 144.775506 
L 213.665135 144.620987 
M 171.863964 144.775506 
L 151.762485 111.935798 
M 171.863964 144.775506 
L 129.775127 144.799638 
M 171.863964 144.775506 
L 150.196099 178.097422 
M 171.863964 144.775506 
L 192.666987 177.160223 
M 171.863964 144.775506 
L 193.117949 112.03897 
M 111.719485 45.580822 
L 131.1216 14.76 
M 111.719485 45.580822 
L 89.7808 14.76 
M 111.719485 45.580822 
L 152.129879 47.083118 
M 111.719485 45.580822 
L 85.882249 74.498032 
M 111.719485 45.580822 
L 130.877244 78.670868 
M 427.433316 70.724811 
L 461.848 89.816 
M 427.433316 70.724811 
L 461.848 52.288 
M 427.433316 70.724811 
L 424.794401 105.32536 
M 427.433316 70.724811 
L 399.661624 46.537661 
M 427.433316 70.724811 
L 385.384363 82.947462 
M 82.738928 333.790202 
L 48.44 314.984 
M 82.738928 333.790202 
L 48.44 352.512 
M 82.738928 333.790202 
L 84.242183 296.22 
M 82.738928 333.790202 
L 110.626376 358.262339 
M 82.738928 333.790202 
L 125.182709 322.713286 
M 126.597911 279.676068 
L 84.242183 296.22 
M 126.597911 279.676068 
L 172.4624 274.761611 
M 126.597911 279.676068 
L 115.808216 247.287748 
M 126.597911 279.676068 
L 125.182709 322.713286 
M 397.39496 354.818342 
L 379.1664 390.04 
M 397.39496 354.818342 
L 420.5072 390.04 
M 397.39496 354.818342 
L 356.833605 360.170618 
M 397.39496 354.818342 
L 427.555914 333.525372 
M 151.955394 244.25972 
L 193.464111 242.019765 
M 151.955394 244.25972 
L 172.024895 209.612139 
M 151.955394 244.25972 
L 172.4624 274.761611 
M 151.955394 244.25972 
L 131.374833 212.200992 
M 151.955394 244.25972 
L 115.808216 247.287748 
M 151.955394 244.25972 
L 126.597911 279.676068 
M 81.400209 258.935453 
L 48.44 239.928 
M 81.400209 258.935453 
L 48.44 277.456 
M 81.400209 258.935453 
L 86.62564 217.195684 
M 81.400209 258.935453 
L 84.242183 296.22 
M 81.400209 258.935453 
L 115.808216 247.287748 
M 81.400209 258.935453 
L 126.597911 279.676068 
M 394.897863 314.984 
L 427.555914 333.525372 
M 394.897863 314.984 
L 383.706056 275.672065 
M 394.897863 314.984 
L 357.989053 306.891928 
M 394.897863 314.984 
L 425.983608 295.885573 
M 394.897863 314.984 
L 397.39496 354.818342 
M 395.989168 240.198577 
L 426.045817 258.692 
M 395.989168 240.198577 
L 359.957733 240.406307 
M 395.989168 240.198577 
L 383.706056 275.672065 
M 395.989168 240.198577 
L 427.028338 221.361629 
M 395.989168 240.198577 
L 386.10984 206.159655 
M 168.256435 328.719274 
L 192.111833 359.301758 
M 168.256435 328.719274 
L 150.630067 358.488973 
M 168.256435 328.719274 
L 125.182709 322.713286 
M 168.256435 328.719274 
L 192.802361 304.16365 
M 75.635461 109.713512 
L 48.44 89.816 
M 75.635461 109.713512 
L 48.44 127.344 
M 75.635461 109.713512 
L 85.173079 145.762667 
M 75.635461 109.713512 
L 85.882249 74.498032 
M 75.635461 109.713512 
L 110.241979 111.14686 
M 337.8256 332.400805 
L 356.833605 360.170618 
M 337.8256 332.400805 
L 357.989053 306.891928 
M 337.8256 332.400805 
L 317.1552 357.539799 
M 337.8256 332.400805 
L 317.1552 307.261812 
M 296.4848 332.400805 
L 275.8144 357.539799 
M 296.4848 332.400805 
L 275.8144 307.261812 
M 296.4848 332.400805 
L 317.1552 357.539799 
M 296.4848 332.400805 
L 317.1552 307.261812 
M 296.4848 332.400805 
L 337.8256 332.400805 
M 255.144 332.400805 
L 275.8144 357.539799 
M 255.144 332.400805 
L 234.4736 307.261812 
M 255.144 332.400805 
L 275.8144 307.261812 
M 255.144 332.400805 
L 234.411588 358.541036 
M 255.144 332.400805 
L 296.4848 332.400805 
M 212.866636 331.731389 
L 192.111833 359.301758 
M 212.866636 331.731389 
L 234.4736 307.261812 
M 212.866636 331.731389 
L 234.411588 358.541036 
M 212.866636 331.731389 
L 192.802361 304.16365 
M 212.866636 331.731389 
L 168.256435 328.719274 
M 212.866636 331.731389 
L 255.144 332.400805 
M 392.641925 116.031453 
L 424.794401 105.32536 
M 392.641925 116.031453 
L 379.1664 144.760805 
M 392.641925 116.031453 
L 357.315063 112.856147 
M 392.641925 116.031453 
L 420.26676 145.020293 
M 392.641925 116.031453 
L 385.384363 82.947462 
M 75.417461 183.636 
L 48.44 164.872 
M 75.417461 183.636 
L 48.44 202.4 
M 75.417461 183.636 
L 86.62564 217.195684 
M 75.417461 183.636 
L 85.173079 145.762667 
M 75.417461 183.636 
L 109.420355 179.999853 
M 394.301119 171.368804 
L 426.79998 184.821776 
M 394.301119 171.368804 
L 359.162612 176.081492 
M 394.301119 171.368804 
L 379.1664 144.760805 
M 394.301119 171.368804 
L 420.26676 145.020293 
M 394.301119 171.368804 
L 386.10984 206.159655 
M 156.499585 301.478025 
L 172.4624 274.761611 
M 156.499585 301.478025 
L 125.182709 322.713286 
M 156.499585 301.478025 
L 192.802361 304.16365 
M 156.499585 301.478025 
L 126.597911 279.676068 
M 156.499585 301.478025 
L 168.256435 328.719274 
M 431.584434 42.232403 
L 461.848 14.76 
M 431.584434 42.232403 
L 461.848 52.288 
M 431.584434 42.232403 
L 420.5072 14.76 
M 431.584434 42.232403 
L 399.661624 46.537661 
M 431.584434 42.232403 
L 427.433316 70.724811 
M 78.703566 42.232403 
L 48.44 14.76 
M 78.703566 42.232403 
L 89.7808 14.76 
M 78.703566 42.232403 
L 48.44 52.288 
M 78.703566 42.232403 
L 85.882249 74.498032 
M 78.703566 42.232403 
L 111.719485 45.580822 
M 431.584434 362.567597 
L 461.848 390.04 
M 431.584434 362.567597 
L 420.5072 390.04 
M 431.584434 362.567597 
L 461.848 352.512 
M 431.584434 362.567597 
L 427.555914 333.525372 
M 431.584434 362.567597 
L 397.39496 354.818342 
M 78.703566 362.567597 
L 48.44 390.04 
M 78.703566 362.567597 
L 89.7808 390.04 
M 78.703566 362.567597 
L 48.44 352.512 
M 78.703566 362.567597 
L 110.626376 358.262339 
M 78.703566 362.567597 
L 82.738928 333.790202 
M 368.988216 333.853139 
L 356.833605 360.170618 
M 368.988216 333.853139 
L 357.989053 306.891928 
M 368.988216 333.853139 
L 397.39496 354.818342 
M 368.988216 333.853139 
L 394.897863 314.984 
M 368.988216 333.853139 
L 337.8256 332.400805 
L 337.8256 332.400805 
" clip-path="url(#pff9cbc485c)" style="fill: none; stroke: #808080; stroke-opacity: 0.5; stroke-width: 1.5; stroke-linecap: square"/>
   </g>
   <g id="matplotlib.axis_1">
    <g id="xtick_1">
     <g id="line2d_2">
      <defs>
       <path id="m42623ac5d3" d="M 0 0 
L 0 3.5 
" style="stroke: #000000; stroke-width: 0.8"/>
      </defs>
      <g>
       <use xlink:href="#m42623ac5d3" x="48.44" y="390.04" style="stroke: #000000; stroke-width: 0.8"/>
      </g>
     </g>
     <g id="text_1">
      <!-- 0.0 -->
      <g transform="translate(40.488438 404.638438) scale(0.1 -0.1)">
       <defs>
        <path id="DejaVuSans-30" d="M 2034 4250 
Q 1547 4250 1301 3770 
Q 1056 3291 1056 2328 
Q 1056 1369 1301 889 
Q 1547 409 2034 409 
Q 2525 409 2770 889 
Q 3016 1369 3016 2328 
Q 3016 3291 2770 3770 
Q 2525 4250 2034 4250 
z
M 2034 4750 
Q 2819 4750 3233 4129 
Q 3647 3509 3647 2328 
Q 3647 1150 3233 529 
Q 2819 -91 2034 -91 
Q 1250 -91 836 529 
Q 422 1150 422 2328 
Q 422 3509 836 4129 
Q 1250 4750 2034 4750 
z
" transform="scale(0.015625)"/>
        <path id="DejaVuSans-2e" d="M 684 794 
L 1344 794 
L 1344 0 
L 684 0 
L 684 794 
z
" transform="scale(0.015625)"/>
       </defs>
       <use xlink:href="#DejaVuSans-30"/>
       <use xlink:href="#DejaVuSans-2e" x="63.623047"/>
       <use xlink:href="#DejaVuSans-30" x="95.410156"/>
      </g>
     </g>
    </g>
    <g id="xtick_2">
     <g id="line2d_3">
      <g>
       <use xlink:href="#m42623ac5d3" x="131.1216" y="390.04" style="stroke: #000000; stroke-width: 0.8"/>
      </g>
     </g>
     <g id="text_2">
      <!-- 0.2 -->
      <g transform="translate(123.170038 404.638438) scale(0.1 -0.1)">
       <defs>
        <path id="DejaVuSans-32" d="M 1228 531 
L 3431 531 
L 3431 0 
L 469 0 
L 469 531 
Q 828 903 1448 1529 
Q 2069 2156 2228 2338 
Q 2531 2678 2651 2914 
Q 2772 3150 2772 3378 
Q 2772 3750 2511 3984 
Q 2250 4219 1831 4219 
Q 1534 4219 1204 4116 
Q 875 4013 500 3803 
L 500 4441 
Q 881 4594 1212 4672 
Q 1544 4750 1819 4750 
Q 2544 4750 2975 4387 
Q 3406 4025 3406 3419 
Q 3406 3131 3298 2873 
Q 3191 2616 2906 2266 
Q 2828 2175 2409 1742 
Q 1991 1309 1228 531 
z
" transform="scale(0.015625)"/>
       </defs>
       <use xlink:href="#DejaVuSans-30"/>
       <use xlink:href="#DejaVuSans-2e" x="63.623047"/>
       <use xlink:href="#DejaVuSans-32" x="95.410156"/>
      </g>
     </g>
    </g>
    <g id="xtick_3">
     <g id="line2d_4">
      <g>
       <use xlink:href="#m42623ac5d3" x="213.8032" y="390.04" style="stroke: #000000; stroke-width: 0.8"/>
      </g>
     </g>
     <g id="text_3">
      <!-- 0.4 -->
      <g transform="translate(205.851638 404.638438) scale(0.1 -0.1)">
       <defs>
        <path id="DejaVuSans-34" d="M 2419 4116 
L 825 1625 
L 2419 1625 
L 2419 4116 
z
M 2253 4666 
L 3047 4666 
L 3047 1625 
L 3713 1625 
L 3713 1100 
L 3047 1100 
L 3047 0 
L 2419 0 
L 2419 1100 
L 313 1100 
L 313 1709 
L 2253 4666 
z
" transform="scale(0.015625)"/>
       </defs>
       <use xlink:href="#DejaVuSans-30"/>
       <use xlink:href="#DejaVuSans-2e" x="63.623047"/>
       <use xlink:href="#DejaVuSans-34" x="95.410156"/>
      </g>
     </g>
    </g>
    <g id="xtick_4">
     <g id="line2d_5">
      <g>
       <use xlink:href="#m42623ac5d3" x="296.4848" y="390.04" style="stroke: #000000; stroke-width: 0.8"/>
      </g>
     </g>
     <g id="text_4">
      <!-- 0.6 -->
      <g transform="translate(288.533237 404.638438) scale(0.1 -0.1)">
       <defs>
        <path id="DejaVuSans-36" d="M 2113 2584 
Q 1688 2584 1439 2293 
Q 1191 2003 1191 1497 
Q 1191 994 1439 701 
Q 1688 409 2113 409 
Q 2538 409 2786 701 
Q 3034 994 3034 1497 
Q 3034 2003 2786 2293 
Q 2538 2584 2113 2584 
z
M 3366 4563 
L 3366 3988 
Q 3128 4100 2886 4159 
Q 2644 4219 2406 4219 
Q 1781 4219 1451 3797 
Q 1122 3375 1075 2522 
Q 1259 2794 1537 2939 
Q 1816 3084 2150 3084 
Q 2853 3084 3261 2657 
Q 3669 2231 3669 1497 
Q 3669 778 3244 343 
Q 2819 -91 2113 -91 
Q 1303 -91 875 529 
Q 447 1150 447 2328 
Q 447 3434 972 4092 
Q 1497 4750 2381 4750 
Q 2619 4750 2861 4703 
Q 3103 4656 3366 4563 
z
" transform="scale(0.015625)"/>
       </defs>
       <use xlink:href="#DejaVuSans-30"/>
       <use xlink:href="#DejaVuSans-2e" x="63.623047"/>
       <use xlink:href="#DejaVuSans-36" x="95.410156"/>
      </g>
     </g>
    </g>
    <g id="xtick_5">
     <g id="line2d_6">
      <g>
       <use xlink:href="#m42623ac5d3" x="379.1664" y="390.04" style="stroke: #000000; stroke-width: 0.8"/>
      </g>
     </g>
     <g id="text_5">
      <!-- 0.8 -->
      <g transform="translate(371.214837 404.638438) scale(0.1 -0.1)">
       <defs>
        <path id="DejaVuSans-38" d="M 2034 2216 
Q 1584 2216 1326 1975 
Q 1069 1734 1069 1313 
Q 1069 891 1326 650 
Q 1584 409 2034 409 
Q 2484 409 2743 651 
Q 3003 894 3003 1313 
Q 3003 1734 2745 1975 
Q 2488 2216 2034 2216 
z
M 1403 2484 
Q 997 2584 770 2862 
Q 544 3141 544 3541 
Q 544 4100 942 4425 
Q 1341 4750 2034 4750 
Q 2731 4750 3128 4425 
Q 3525 4100 3525 3541 
Q 3525 3141 3298 2862 
Q 3072 2584 2669 2484 
Q 3125 2378 3379 2068 
Q 3634 1759 3634 1313 
Q 3634 634 3220 271 
Q 2806 -91 2034 -91 
Q 1263 -91 848 271 
Q 434 634 434 1313 
Q 434 1759 690 2068 
Q 947 2378 1403 2484 
z
M 1172 3481 
Q 1172 3119 1398 2916 
Q 1625 2713 2034 2713 
Q 2441 2713 2670 2916 
Q 2900 3119 2900 3481 
Q 2900 3844 2670 4047 
Q 2441 4250 2034 4250 
Q 1625 4250 1398 4047 
Q 1172 3844 1172 3481 
z
" transform="scale(0.015625)"/>
       </defs>
       <use xlink:href="#DejaVuSans-30"/>
       <use xlink:href="#DejaVuSans-2e" x="63.623047"/>
       <use xlink:href="#DejaVuSans-38" x="95.410156"/>
      </g>
     </g>
    </g>
    <g id="xtick_6">
     <g id="line2d_7">
      <g>
       <use xlink:href="#m42623ac5d3" x="461.848" y="390.04" style="stroke: #000000; stroke-width: 0.8"/>
      </g>
     </g>
     <g id="text_6">
      <!-- 1.0 -->
      <g transform="translate(453.896437 404.638438) scale(0.1 -0.1)">
       <defs>
        <path id="DejaVuSans-31" d="M 794 531 
L 1825 531 
L 1825 4091 
L 703 3866 
L 703 4441 
L 1819 4666 
L 2450 4666 
L 2450 531 
L 3481 531 
L 3481 0 
L 794 0 
L 794 531 
z
" transform="scale(0.015625)"/>
       </defs>
       <use xlink:href="#DejaVuSans-31"/>
       <use xlink:href="#DejaVuSans-2e" x="63.623047"/>
       <use xlink:href="#DejaVuSans-30" x="95.410156"/>
      </g>
     </g>
    </g>
    <g id="text_7">
     <!-- $x$ -->
     <g transform="translate(252.144 418.316562) scale(0.1 -0.1)">
      <defs>
       <path id="DejaVuSans-Oblique-78" d="M 3841 3500 
L 2234 1784 
L 3219 0 
L 2559 0 
L 1819 1388 
L 531 0 
L -166 0 
L 1556 1844 
L 641 3500 
L 1300 3500 
L 1972 2234 
L 3144 3500 
L 3841 3500 
z
" transform="scale(0.015625)"/>
      </defs>
      <use xlink:href="#DejaVuSans-Oblique-78" transform="translate(0 0.3125)"/>
     </g>
    </g>
   </g>
   <g id="matplotlib.axis_2">
    <g id="ytick_1">
     <g id="line2d_8">
      <defs>
       <path id="mbe9218c46a" d="M 0 0 
L -3.5 0 
" style="stroke: #000000; stroke-width: 0.8"/>
      </defs>
      <g>
       <use xlink:href="#mbe9218c46a" x="48.44" y="390.04" style="stroke: #000000; stroke-width: 0.8"/>
      </g>
     </g>
     <g id="text_8">
      <!-- 0.0 -->
      <g transform="translate(25.536875 393.839219) scale(0.1 -0.1)">
       <use xlink:href="#DejaVuSans-30"/>
       <use xlink:href="#DejaVuSans-2e" x="63.623047"/>
       <use xlink:href="#DejaVuSans-30" x="95.410156"/>
      </g>
     </g>
    </g>
    <g id="ytick_2">
     <g id="line2d_9">
      <g>
       <use xlink:href="#mbe9218c46a" x="48.44" y="314.984" style="stroke: #000000; stroke-width: 0.8"/>
      </g>
     </g>
     <g id="text_9">
      <!-- 0.2 -->
      <g transform="translate(25.536875 318.783219) scale(0.1 -0.1)">
       <use xlink:href="#DejaVuSans-30"/>
       <use xlink:href="#DejaVuSans-2e" x="63.623047"/>
       <use xlink:href="#DejaVuSans-32" x="95.410156"/>
      </g>
     </g>
    </g>
    <g id="ytick_3">
     <g id="line2d_10">
      <g>
       <use xlink:href="#mbe9218c46a" x="48.44" y="239.928" style="stroke: #000000; stroke-width: 0.8"/>
      </g>
     </g>
     <g id="text_10">
      <!-- 0.4 -->
      <g transform="translate(25.536875 243.727219) scale(0.1 -0.1)">
       <use xlink:href="#DejaVuSans-30"/>
       <use xlink:href="#DejaVuSans-2e" x="63.623047"/>
       <use xlink:href="#DejaVuSans-34" x="95.410156"/>
      </g>
     </g>
    </g>
    <g id="ytick_4">
     <g id="line2d_11">
      <g>
       <use xlink:href="#mbe9218c46a" x="48.44" y="164.872" style="stroke: #000000; stroke-width: 0.8"/>
      </g>
     </g>
     <g id="text_11">
      <!-- 0.6 -->
      <g transform="translate(25.536875 168.671219) scale(0.1 -0.1)">
       <use xlink:href="#DejaVuSans-30"/>
       <use xlink:href="#DejaVuSans-2e" x="63.623047"/>
       <use xlink:href="#DejaVuSans-36" x="95.410156"/>
      </g>
     </g>
    </g>
    <g id="ytick_5">
     <g id="line2d_12">
      <g>
       <use xlink:href="#mbe9218c46a" x="48.44" y="89.816" style="stroke: #000000; stroke-width: 0.8"/>
      </g>
     </g>
     <g id="text_12">
      <!-- 0.8 -->
      <g transform="translate(25.536875 93.615219) scale(0.1 -0.1)">
       <use xlink:href="#DejaVuSans-30"/>
       <use xlink:href="#DejaVuSans-2e" x="63.623047"/>
       <use xlink:href="#DejaVuSans-38" x="95.410156"/>
      </g>
     </g>
    </g>
    <g id="ytick_6">
     <g id="line2d_13">
      <g>
       <use xlink:href="#mbe9218c46a" x="48.44" y="14.76" style="stroke: #000000; stroke-width: 0.8"/>
      </g>
     </g>
     <g id="text_13">
      <!-- 1.0 -->
      <g transform="translate(25.536875 18.559219) scale(0.1 -0.1)">
       <use xlink:href="#DejaVuSans-31"/>
       <use xlink:href="#DejaVuSans-2e" x="63.623047"/>
       <use xlink:href="#DejaVuSans-30" x="95.410156"/>
      </g>
     </g>
    </g>
    <g id="text_14">
     <!-- $y$ -->
     <g transform="translate(19.436875 205.4) rotate(-90) scale(0.1 -0.1)">
      <defs>
       <path id="DejaVuSans-Oblique-79" d="M 1588 -325 
Q 1188 -997 936 -1164 
Q 684 -1331 294 -1331 
L -159 -1331 
L -63 -850 
L 269 -850 
Q 509 -850 678 -719 
Q 847 -588 1056 -206 
L 1234 128 
L 459 3500 
L 1069 3500 
L 1650 819 
L 3256 3500 
L 3859 3500 
L 1588 -325 
z
" transform="scale(0.015625)"/>
      </defs>
      <use xlink:href="#DejaVuSans-Oblique-79" transform="translate(0 0.3125)"/>
     </g>
    </g>
   </g>
   <g id="line2d_14"/>
   <g id="patch_3">
    <path d="M 48.44 390.04 
L 48.44 14.76 
" style="fill: none; stroke: #000000; stroke-width: 0.8; stroke-linejoin: miter; stroke-linecap: square"/>
   </g>
   <g id="patch_4">
    <path d="M 461.848 390.04 
L 461.848 14.76 
" style="fill: none; stroke: #000000; stroke-width: 0.8; stroke-linejoin: miter; stroke-linecap: square"/>
   </g>
   <g id="patch_5">
    <path d="M 48.44 390.04 
L 461.848 390.04 
" style="fill: none; stroke: #000000; stroke-width: 0.8; stroke-linejoin: miter; stroke-linecap: square"/>
   </g>
   <g id="patch_6">
    <path d="M 48.44 14.76 
L 461.848 14.76 
" style="fill: none; stroke: #000000; stroke-width: 0.8; stroke-linejoin: miter; stroke-linecap: square"/>
   </g>
  </g>
  <g id="axes_2">
   <g id="patch_7">
    <path d="M 487.686 390.04 
L 506.45 390.04 
L 506.45 14.76 
L 487.686 14.76 
z
" style="fill: #ffffff"/>
   </g>
   <g id="QuadMesh_1">
    <path d="M 487.686 390.04 
L 506.45 390.04 
L 506.45 336.428571 
L 487.686 336.428571 
L 487.686 390.04 
" clip-path="url(#p3673bab505)" style="fill: #481b6d"/>
    <path d="M 487.686 336.428571 
L 506.45 336.428571 
L 506.45 282.817143 
L 487.686 282.817143 
L 487.686 336.428571 
" clip-path="url(#p3673bab505)" style="fill: #3f4788"/>
    <path d="M 487.686 282.817143 
L 506.45 282.817143 
L 506.45 229.205714 
L 487.686 229.205714 
L 487.686 282.817143 
" clip-path="url(#p3673bab505)" style="fill: #2e6e8e"/>
    <path d="M 487.686 229.205714 
L 506.45 229.205714 
L 506.45 175.594286 
L 487.686 175.594286 
L 487.686 229.205714 
" clip-path="url(#p3673bab505)" style="fill: #21918c"/>
    <path d="M 487.686 175.594286 
L 506.45 175.594286 
L 506.45 121.982857 
L 487.686 121.982857 
L 487.686 175.594286 
" clip-path="url(#p3673bab505)" style="fill: #2db27d"/>
    <path d="M 487.686 121.982857 
L 506.45 121.982857 
L 506.45 68.371429 
L 487.686 68.371429 
L 487.686 121.982857 
" clip-path="url(#p3673bab505)" style="fill: #73d056"/>
    <path d="M 487.686 68.371429 
L 506.45 68.371429 
L 506.45 14.76 
L 487.686 14.76 
L 487.686 68.371429 
" clip-path="url(#p3673bab505)" style="fill: #d0e11c"/>
   </g>
   <g id="matplotlib.axis_3"/>
   <g id="matplotlib.axis_4">
    <g id="ytick_7">
     <g id="line2d_15">
      <defs>
       <path id="m9e66b72572" d="M 0 0 
L 3.5 0 
" style="stroke: #000000; stroke-width: 0.8"/>
      </defs>
      <g>
       <use xlink:href="#m9e66b72572" x="506.45" y="390.04" style="stroke: #000000; stroke-width: 0.8"/>
      </g>
     </g>
     <g id="text_15">
      <!-- 0.00 -->
      <g transform="translate(513.45 393.839219) scale(0.1 -0.1)">
       <use xlink:href="#DejaVuSans-30"/>
       <use xlink:href="#DejaVuSans-2e" x="63.623047"/>
       <use xlink:href="#DejaVuSans-30" x="95.410156"/>
       <use xlink:href="#DejaVuSans-30" x="159.033203"/>
      </g>
     </g>
    </g>
    <g id="ytick_8">
     <g id="line2d_16">
      <g>
       <use xlink:href="#m9e66b72572" x="506.45" y="336.428571" style="stroke: #000000; stroke-width: 0.8"/>
      </g>
     </g>
     <g id="text_16">
      <!-- 0.15 -->
      <g transform="translate(513.45 340.22779) scale(0.1 -0.1)">
       <defs>
        <path id="DejaVuSans-35" d="M 691 4666 
L 3169 4666 
L 3169 4134 
L 1269 4134 
L 1269 2991 
Q 1406 3038 1543 3061 
Q 1681 3084 1819 3084 
Q 2600 3084 3056 2656 
Q 3513 2228 3513 1497 
Q 3513 744 3044 326 
Q 2575 -91 1722 -91 
Q 1428 -91 1123 -41 
Q 819 9 494 109 
L 494 744 
Q 775 591 1075 516 
Q 1375 441 1709 441 
Q 2250 441 2565 725 
Q 2881 1009 2881 1497 
Q 2881 1984 2565 2268 
Q 2250 2553 1709 2553 
Q 1456 2553 1204 2497 
Q 953 2441 691 2322 
L 691 4666 
z
" transform="scale(0.015625)"/>
       </defs>
       <use xlink:href="#DejaVuSans-30"/>
       <use xlink:href="#DejaVuSans-2e" x="63.623047"/>
       <use xlink:href="#DejaVuSans-31" x="95.410156"/>
       <use xlink:href="#DejaVuSans-35" x="159.033203"/>
      </g>
     </g>
    </g>
    <g id="ytick_9">
     <g id="line2d_17">
      <g>
       <use xlink:href="#m9e66b72572" x="506.45" y="282.817143" style="stroke: #000000; stroke-width: 0.8"/>
      </g>
     </g>
     <g id="text_17">
      <!-- 0.30 -->
      <g transform="translate(513.45 286.616362) scale(0.1 -0.1)">
       <defs>
        <path id="DejaVuSans-33" d="M 2597 2516 
Q 3050 2419 3304 2112 
Q 3559 1806 3559 1356 
Q 3559 666 3084 287 
Q 2609 -91 1734 -91 
Q 1441 -91 1130 -33 
Q 819 25 488 141 
L 488 750 
Q 750 597 1062 519 
Q 1375 441 1716 441 
Q 2309 441 2620 675 
Q 2931 909 2931 1356 
Q 2931 1769 2642 2001 
Q 2353 2234 1838 2234 
L 1294 2234 
L 1294 2753 
L 1863 2753 
Q 2328 2753 2575 2939 
Q 2822 3125 2822 3475 
Q 2822 3834 2567 4026 
Q 2313 4219 1838 4219 
Q 1578 4219 1281 4162 
Q 984 4106 628 3988 
L 628 4550 
Q 988 4650 1302 4700 
Q 1616 4750 1894 4750 
Q 2613 4750 3031 4423 
Q 3450 4097 3450 3541 
Q 3450 3153 3228 2886 
Q 3006 2619 2597 2516 
z
" transform="scale(0.015625)"/>
       </defs>
       <use xlink:href="#DejaVuSans-30"/>
       <use xlink:href="#DejaVuSans-2e" x="63.623047"/>
       <use xlink:href="#DejaVuSans-33" x="95.410156"/>
       <use xlink:href="#DejaVuSans-30" x="159.033203"/>
      </g>
     </g>
    </g>
    <g id="ytick_10">
     <g id="line2d_18">
      <g>
       <use xlink:href="#m9e66b72572" x="506.45" y="229.205714" style="stroke: #000000; stroke-width: 0.8"/>
      </g>
     </g>
     <g id="text_18">
      <!-- 0.45 -->
      <g transform="translate(513.45 233.004933) scale(0.1 -0.1)">
       <use xlink:href="#DejaVuSans-30"/>
       <use xlink:href="#DejaVuSans-2e" x="63.623047"/>
       <use xlink:href="#DejaVuSans-34" x="95.410156"/>
       <use xlink:href="#DejaVuSans-35" x="159.033203"/>
      </g>
     </g>
    </g>
    <g id="ytick_11">
     <g id="line2d_19">
      <g>
       <use xlink:href="#m9e66b72572" x="506.45" y="175.594286" style="stroke: #000000; stroke-width: 0.8"/>
      </g>
     </g>
     <g id="text_19">
      <!-- 0.60 -->
      <g transform="translate(513.45 179.393504) scale(0.1 -0.1)">
       <use xlink:href="#DejaVuSans-30"/>
       <use xlink:href="#DejaVuSans-2e" x="63.623047"/>
       <use xlink:href="#DejaVuSans-36" x="95.410156"/>
       <use xlink:href="#DejaVuSans-30" x="159.033203"/>
      </g>
     </g>
    </g>
    <g id="ytick_12">
     <g id="line2d_20">
      <g>
       <use xlink:href="#m9e66b72572" x="506.45" y="121.982857" style="stroke: #000000; stroke-width: 0.8"/>
      </g>
     </g>
     <g id="text_20">
      <!-- 0.75 -->
      <g transform="translate(513.45 125.782076) scale(0.1 -0.1)">
       <defs>
        <path id="DejaVuSans-37" d="M 525 4666 
L 3525 4666 
L 3525 4397 
L 1831 0 
L 1172 0 
L 2766 4134 
L 525 4134 
L 525 4666 
z
" transform="scale(0.015625)"/>
       </defs>
       <use xlink:href="#DejaVuSans-30"/>
       <use xlink:href="#DejaVuSans-2e" x="63.623047"/>
       <use xlink:href="#DejaVuSans-37" x="95.410156"/>
       <use xlink:href="#DejaVuSans-35" x="159.033203"/>
      </g>
     </g>
    </g>
    <g id="ytick_13">
     <g id="line2d_21">
      <g>
       <use xlink:href="#m9e66b72572" x="506.45" y="68.371429" style="stroke: #000000; stroke-width: 0.8"/>
      </g>
     </g>
     <g id="text_21">
      <!-- 0.90 -->
      <g transform="translate(513.45 72.170647) scale(0.1 -0.1)">
       <defs>
        <path id="DejaVuSans-39" d="M 703 97 
L 703 672 
Q 941 559 1184 500 
Q 1428 441 1663 441 
Q 2288 441 2617 861 
Q 2947 1281 2994 2138 
Q 2813 1869 2534 1725 
Q 2256 1581 1919 1581 
Q 1219 1581 811 2004 
Q 403 2428 403 3163 
Q 403 3881 828 4315 
Q 1253 4750 1959 4750 
Q 2769 4750 3195 4129 
Q 3622 3509 3622 2328 
Q 3622 1225 3098 567 
Q 2575 -91 1691 -91 
Q 1453 -91 1209 -44 
Q 966 3 703 97 
z
M 1959 2075 
Q 2384 2075 2632 2365 
Q 2881 2656 2881 3163 
Q 2881 3666 2632 3958 
Q 2384 4250 1959 4250 
Q 1534 4250 1286 3958 
Q 1038 3666 1038 3163 
Q 1038 2656 1286 2365 
Q 1534 2075 1959 2075 
z
" transform="scale(0.015625)"/>
       </defs>
       <use xlink:href="#DejaVuSans-30"/>
       <use xlink:href="#DejaVuSans-2e" x="63.623047"/>
       <use xlink:href="#DejaVuSans-39" x="95.410156"/>
       <use xlink:href="#DejaVuSans-30" x="159.033203"/>
      </g>
     </g>
    </g>
    <g id="ytick_14">
     <g id="line2d_22">
      <g>
       <use xlink:href="#m9e66b72572" x="506.45" y="14.76" style="stroke: #000000; stroke-width: 0.8"/>
      </g>
     </g>
     <g id="text_22">
      <!-- 1.05 -->
      <g transform="translate(513.45 18.559219) scale(0.1 -0.1)">
       <use xlink:href="#DejaVuSans-31"/>
       <use xlink:href="#DejaVuSans-2e" x="63.623047"/>
       <use xlink:href="#DejaVuSans-30" x="95.410156"/>
       <use xlink:href="#DejaVuSans-35" x="159.033203"/>
      </g>
     </g>
    </g>
    <g id="text_23">
     <!-- $u(x, y)$ -->
     <g transform="translate(547.315625 218) rotate(-90) scale(0.1 -0.1)">
      <defs>
       <path id="DejaVuSans-Oblique-75" d="M 428 1388 
L 838 3500 
L 1416 3500 
L 1006 1409 
Q 975 1256 961 1147 
Q 947 1038 947 966 
Q 947 700 1109 554 
Q 1272 409 1569 409 
Q 2031 409 2368 721 
Q 2706 1034 2809 1563 
L 3194 3500 
L 3769 3500 
L 3091 0 
L 2516 0 
L 2631 550 
Q 2388 244 2052 76 
Q 1716 -91 1338 -91 
Q 878 -91 622 161 
Q 366 413 366 863 
Q 366 956 381 1097 
Q 397 1238 428 1388 
z
" transform="scale(0.015625)"/>
       <path id="DejaVuSans-28" d="M 1984 4856 
Q 1566 4138 1362 3434 
Q 1159 2731 1159 2009 
Q 1159 1288 1364 580 
Q 1569 -128 1984 -844 
L 1484 -844 
Q 1016 -109 783 600 
Q 550 1309 550 2009 
Q 550 2706 781 3412 
Q 1013 4119 1484 4856 
L 1984 4856 
z
" transform="scale(0.015625)"/>
       <path id="DejaVuSans-2c" d="M 750 794 
L 1409 794 
L 1409 256 
L 897 -744 
L 494 -744 
L 750 256 
L 750 794 
z
" transform="scale(0.015625)"/>
       <path id="DejaVuSans-29" d="M 513 4856 
L 1013 4856 
Q 1481 4119 1714 3412 
Q 1947 2706 1947 2009 
Q 1947 1309 1714 600 
Q 1481 -109 1013 -844 
L 513 -844 
Q 928 -128 1133 580 
Q 1338 1288 1338 2009 
Q 1338 2731 1133 3434 
Q 928 4138 513 4856 
z
" transform="scale(0.015625)"/>
      </defs>
      <use xlink:href="#DejaVuSans-Oblique-75" transform="translate(0 0.125)"/>
      <use xlink:href="#DejaVuSans-28" transform="translate(63.378906 0.125)"/>
      <use xlink:href="#DejaVuSans-Oblique-78" transform="translate(102.392578 0.125)"/>
      <use xlink:href="#DejaVuSans-2c" transform="translate(161.572266 0.125)"/>
      <use xlink:href="#DejaVuSans-Oblique-79" transform="translate(212.841797 0.125)"/>
      <use xlink:href="#DejaVuSans-29" transform="translate(272.021484 0.125)"/>
     </g>
    </g>
   </g>
   <g id="LineCollection_1"/>
   <g id="patch_8">
    <path d="M 487.686 390.04 
L 497.068 390.04 
L 506.45 390.04 
L 506.45 14.76 
L 497.068 14.76 
L 487.686 14.76 
L 487.686 390.04 
z
" style="fill: none; stroke: #000000; stroke-width: 0.8; stroke-linejoin: miter; stroke-linecap: square"/>
   </g>
  </g>
 </g>
 <defs>
  <clipPath id="pff9cbc485c">
   <rect x="48.44" y="14.76" width="413.408" height="375.28"/>
  </clipPath>
  <clipPath id="p3673bab505">
   <rect x="487.686" y="14.76" width="18.764" height="375.28"/>
  </clipPath>
 </defs>
</svg>
