<?xml version="1.0" encoding="utf-8" standalone="no"?>
<!DOCTYPE svg PUBLIC "-//W3C//DTD SVG 1.1//EN"
  "http://www.w3.org/Graphics/SVG/1.1/DTD/svg11.dtd">
<svg xmlns:xlink="http://www.w3.org/1999/xlink" width="864pt" height="576pt" viewBox="0 0 864 576" xmlns="http://www.w3.org/2000/svg" version="1.1">
 <metadata>
  <rdf:RDF xmlns:dc="http://purl.org/dc/elements/1.1/" xmlns:cc="http://creativecommons.org/ns#" xmlns:rdf="http://www.w3.org/1999/02/22-rdf-syntax-ns#">
   <cc:Work>
    <dc:type rdf:resource="http://purl.org/dc/dcmitype/StillImage"/>
    <dc:date>2025-01-26T14:12:43.409320</dc:date>
    <dc:format>image/svg+xml</dc:format>
    <dc:creator>
     <cc:Agent>
      <dc:title>Matplotlib v3.8.3, https://matplotlib.org/</dc:title>
     </cc:Agent>
    </dc:creator>
   </cc:Work>
  </rdf:RDF>
 </metadata>
 <defs>
  <style type="text/css">*{stroke-linejoin: round; stroke-linecap: butt}</style>
 </defs>
 <g id="figure_1">
  <g id="patch_1">
   <path d="M 0 576 
L 864 576 
L 864 0 
L 0 0 
z
" style="fill: #ffffff"/>
  </g>
  <g id="axes_1">
   <g id="patch_2">
    <path d="M 58.538 532.6 
L 707.534252 532.6 
L 707.534252 43.584 
L 58.538 43.584 
z
" style="fill: #ffffff"/>
   </g>
   <g id="PolyCollection_1">
    <defs>
     <path id="mc5d2932f75" d="M 364.598733 -510.188 
L 364.598733 -65.628 
L 366.442472 -65.628 
L 368.286211 -65.628 
L 370.129951 -65.628 
L 371.97369 -65.628 
L 373.817429 -65.628 
L 375.661169 -65.628 
L 377.504908 -65.628 
L 379.348648 -65.628 
L 381.192387 -65.628 
L 383.036126 -65.628 
L 384.879866 -65.628 
L 386.723605 -65.628 
L 388.567344 -65.628 
L 390.411084 -65.628 
L 392.254823 -65.628 
L 394.098562 -65.628 
L 395.942302 -65.628 
L 397.786041 -65.628 
L 399.62978 -65.628 
L 401.47352 -65.628 
L 401.47352 -510.188 
L 401.47352 -510.188 
L 399.62978 -510.188 
L 397.786041 -510.188 
L 395.942302 -510.188 
L 394.098562 -510.188 
L 392.254823 -510.188 
L 390.411084 -510.188 
L 388.567344 -510.188 
L 386.723605 -510.188 
L 384.879866 -510.188 
L 383.036126 -510.188 
L 381.192387 -510.188 
L 379.348648 -510.188 
L 377.504908 -510.188 
L 375.661169 -510.188 
L 373.817429 -510.188 
L 371.97369 -510.188 
L 370.129951 -510.188 
L 368.286211 -510.188 
L 366.442472 -510.188 
L 364.598733 -510.188 
z
" style="stroke: #0000ff; stroke-opacity: 0.2"/>
    </defs>
    <g clip-path="url(#p97f124cf1e)">
     <use xlink:href="#mc5d2932f75" x="0" y="576" style="fill: #0000ff; fill-opacity: 0.2; stroke: #0000ff; stroke-opacity: 0.2"/>
    </g>
   </g>
   <g id="PolyCollection_2">
    <defs>
     <path id="m777b372d83" d="M 88.03783 -510.188 
L 88.03783 -65.628 
L 89.881569 -65.628 
L 91.725308 -65.628 
L 93.569048 -65.628 
L 95.412787 -65.628 
L 97.256526 -65.628 
L 99.100266 -65.628 
L 100.944005 -65.628 
L 102.787744 -65.628 
L 104.631484 -65.628 
L 106.475223 -65.628 
L 108.318963 -65.628 
L 110.162702 -65.628 
L 112.006441 -65.628 
L 113.850181 -65.628 
L 115.69392 -65.628 
L 117.537659 -65.628 
L 119.381399 -65.628 
L 121.225138 -65.628 
L 123.068877 -65.628 
L 124.912617 -65.628 
L 126.756356 -65.628 
L 128.600095 -65.628 
L 130.443835 -65.628 
L 132.287574 -65.628 
L 134.131313 -65.628 
L 135.975053 -65.628 
L 137.818792 -65.628 
L 139.662532 -65.628 
L 141.506271 -65.628 
L 143.35001 -65.628 
L 145.19375 -65.628 
L 147.037489 -65.628 
L 148.881228 -65.628 
L 150.724968 -65.628 
L 152.568707 -65.628 
L 154.412446 -65.628 
L 156.256186 -65.628 
L 158.099925 -65.628 
L 159.943664 -65.628 
L 161.787404 -65.628 
L 163.631143 -65.628 
L 165.474883 -65.628 
L 167.318622 -65.628 
L 169.162361 -65.628 
L 171.006101 -65.628 
L 172.84984 -65.628 
L 174.693579 -65.628 
L 176.537319 -65.628 
L 178.381058 -65.628 
L 180.224797 -65.628 
L 182.068537 -65.628 
L 183.912276 -65.628 
L 185.756015 -65.628 
L 187.599755 -65.628 
L 189.443494 -65.628 
L 191.287233 -65.628 
L 193.130973 -65.628 
L 194.974712 -65.628 
L 196.818452 -65.628 
L 198.662191 -65.628 
L 200.50593 -65.628 
L 202.34967 -65.628 
L 204.193409 -65.628 
L 206.037148 -65.628 
L 207.880888 -65.628 
L 209.724627 -65.628 
L 211.568366 -65.628 
L 213.412106 -65.628 
L 215.255845 -65.628 
L 217.099584 -65.628 
L 218.943324 -65.628 
L 220.787063 -65.628 
L 222.630802 -65.628 
L 224.474542 -65.628 
L 226.318281 -65.628 
L 228.162021 -65.628 
L 230.00576 -65.628 
L 231.849499 -65.628 
L 233.693239 -65.628 
L 235.536978 -65.628 
L 235.536978 -510.188 
L 235.536978 -510.188 
L 233.693239 -510.188 
L 231.849499 -510.188 
L 230.00576 -510.188 
L 228.162021 -510.188 
L 226.318281 -510.188 
L 224.474542 -510.188 
L 222.630802 -510.188 
L 220.787063 -510.188 
L 218.943324 -510.188 
L 217.099584 -510.188 
L 215.255845 -510.188 
L 213.412106 -510.188 
L 211.568366 -510.188 
L 209.724627 -510.188 
L 207.880888 -510.188 
L 206.037148 -510.188 
L 204.193409 -510.188 
L 202.34967 -510.188 
L 200.50593 -510.188 
L 198.662191 -510.188 
L 196.818452 -510.188 
L 194.974712 -510.188 
L 193.130973 -510.188 
L 191.287233 -510.188 
L 189.443494 -510.188 
L 187.599755 -510.188 
L 185.756015 -510.188 
L 183.912276 -510.188 
L 182.068537 -510.188 
L 180.224797 -510.188 
L 178.381058 -510.188 
L 176.537319 -510.188 
L 174.693579 -510.188 
L 172.84984 -510.188 
L 171.006101 -510.188 
L 169.162361 -510.188 
L 167.318622 -510.188 
L 165.474883 -510.188 
L 163.631143 -510.188 
L 161.787404 -510.188 
L 159.943664 -510.188 
L 158.099925 -510.188 
L 156.256186 -510.188 
L 154.412446 -510.188 
L 152.568707 -510.188 
L 150.724968 -510.188 
L 148.881228 -510.188 
L 147.037489 -510.188 
L 145.19375 -510.188 
L 143.35001 -510.188 
L 141.506271 -510.188 
L 139.662532 -510.188 
L 137.818792 -510.188 
L 135.975053 -510.188 
L 134.131313 -510.188 
L 132.287574 -510.188 
L 130.443835 -510.188 
L 128.600095 -510.188 
L 126.756356 -510.188 
L 124.912617 -510.188 
L 123.068877 -510.188 
L 121.225138 -510.188 
L 119.381399 -510.188 
L 117.537659 -510.188 
L 115.69392 -510.188 
L 113.850181 -510.188 
L 112.006441 -510.188 
L 110.162702 -510.188 
L 108.318963 -510.188 
L 106.475223 -510.188 
L 104.631484 -510.188 
L 102.787744 -510.188 
L 100.944005 -510.188 
L 99.100266 -510.188 
L 97.256526 -510.188 
L 95.412787 -510.188 
L 93.569048 -510.188 
L 91.725308 -510.188 
L 89.881569 -510.188 
L 88.03783 -510.188 
z
" style="stroke: #808080; stroke-opacity: 0.2"/>
    </defs>
    <g clip-path="url(#p97f124cf1e)">
     <use xlink:href="#m777b372d83" x="0" y="576" style="fill: #808080; fill-opacity: 0.2; stroke: #808080; stroke-opacity: 0.2"/>
    </g>
   </g>
   <g id="PolyCollection_3">
    <defs>
     <path id="m0f2f5fd628" d="M 530.535275 -510.188 
L 530.535275 -65.628 
L 532.379014 -65.628 
L 534.222753 -65.628 
L 536.066493 -65.628 
L 537.910232 -65.628 
L 539.753971 -65.628 
L 541.597711 -65.628 
L 543.44145 -65.628 
L 545.285189 -65.628 
L 547.128929 -65.628 
L 548.972668 -65.628 
L 550.816407 -65.628 
L 552.660147 -65.628 
L 554.503886 -65.628 
L 556.347625 -65.628 
L 558.191365 -65.628 
L 560.035104 -65.628 
L 561.878844 -65.628 
L 563.722583 -65.628 
L 565.566322 -65.628 
L 567.410062 -65.628 
L 569.253801 -65.628 
L 571.09754 -65.628 
L 572.94128 -65.628 
L 574.785019 -65.628 
L 576.628758 -65.628 
L 578.472498 -65.628 
L 580.316237 -65.628 
L 582.159976 -65.628 
L 584.003716 -65.628 
L 585.847455 -65.628 
L 587.691194 -65.628 
L 589.534934 -65.628 
L 591.378673 -65.628 
L 593.222413 -65.628 
L 595.066152 -65.628 
L 596.909891 -65.628 
L 598.753631 -65.628 
L 600.59737 -65.628 
L 602.441109 -65.628 
L 604.284849 -65.628 
L 606.128588 -65.628 
L 607.972327 -65.628 
L 609.816067 -65.628 
L 611.659806 -65.628 
L 613.503545 -65.628 
L 615.347285 -65.628 
L 617.191024 -65.628 
L 619.034763 -65.628 
L 620.878503 -65.628 
L 622.722242 -65.628 
L 624.565982 -65.628 
L 626.409721 -65.628 
L 628.25346 -65.628 
L 630.0972 -65.628 
L 631.940939 -65.628 
L 633.784678 -65.628 
L 635.628418 -65.628 
L 637.472157 -65.628 
L 639.315896 -65.628 
L 641.159636 -65.628 
L 643.003375 -65.628 
L 644.847114 -65.628 
L 646.690854 -65.628 
L 648.534593 -65.628 
L 650.378332 -65.628 
L 652.222072 -65.628 
L 654.065811 -65.628 
L 655.909551 -65.628 
L 657.75329 -65.628 
L 659.597029 -65.628 
L 661.440769 -65.628 
L 663.284508 -65.628 
L 665.128247 -65.628 
L 666.971987 -65.628 
L 668.815726 -65.628 
L 670.659465 -65.628 
L 672.503205 -65.628 
L 674.346944 -65.628 
L 676.190683 -65.628 
L 678.034423 -65.628 
L 678.034423 -510.188 
L 678.034423 -510.188 
L 676.190683 -510.188 
L 674.346944 -510.188 
L 672.503205 -510.188 
L 670.659465 -510.188 
L 668.815726 -510.188 
L 666.971987 -510.188 
L 665.128247 -510.188 
L 663.284508 -510.188 
L 661.440769 -510.188 
L 659.597029 -510.188 
L 657.75329 -510.188 
L 655.909551 -510.188 
L 654.065811 -510.188 
L 652.222072 -510.188 
L 650.378332 -510.188 
L 648.534593 -510.188 
L 646.690854 -510.188 
L 644.847114 -510.188 
L 643.003375 -510.188 
L 641.159636 -510.188 
L 639.315896 -510.188 
L 637.472157 -510.188 
L 635.628418 -510.188 
L 633.784678 -510.188 
L 631.940939 -510.188 
L 630.0972 -510.188 
L 628.25346 -510.188 
L 626.409721 -510.188 
L 624.565982 -510.188 
L 622.722242 -510.188 
L 620.878503 -510.188 
L 619.034763 -510.188 
L 617.191024 -510.188 
L 615.347285 -510.188 
L 613.503545 -510.188 
L 611.659806 -510.188 
L 609.816067 -510.188 
L 607.972327 -510.188 
L 606.128588 -510.188 
L 604.284849 -510.188 
L 602.441109 -510.188 
L 600.59737 -510.188 
L 598.753631 -510.188 
L 596.909891 -510.188 
L 595.066152 -510.188 
L 593.222413 -510.188 
L 591.378673 -510.188 
L 589.534934 -510.188 
L 587.691194 -510.188 
L 585.847455 -510.188 
L 584.003716 -510.188 
L 582.159976 -510.188 
L 580.316237 -510.188 
L 578.472498 -510.188 
L 576.628758 -510.188 
L 574.785019 -510.188 
L 572.94128 -510.188 
L 571.09754 -510.188 
L 569.253801 -510.188 
L 567.410062 -510.188 
L 565.566322 -510.188 
L 563.722583 -510.188 
L 561.878844 -510.188 
L 560.035104 -510.188 
L 558.191365 -510.188 
L 556.347625 -510.188 
L 554.503886 -510.188 
L 552.660147 -510.188 
L 550.816407 -510.188 
L 548.972668 -510.188 
L 547.128929 -510.188 
L 545.285189 -510.188 
L 543.44145 -510.188 
L 541.597711 -510.188 
L 539.753971 -510.188 
L 537.910232 -510.188 
L 536.066493 -510.188 
L 534.222753 -510.188 
L 532.379014 -510.188 
L 530.535275 -510.188 
z
" style="stroke: #808080; stroke-opacity: 0.2"/>
    </defs>
    <g clip-path="url(#p97f124cf1e)">
     <use xlink:href="#m0f2f5fd628" x="0" y="576" style="fill: #808080; fill-opacity: 0.2; stroke: #808080; stroke-opacity: 0.2"/>
    </g>
   </g>
   <g id="matplotlib.axis_1">
    <g id="xtick_1">
     <g id="line2d_1">
      <path d="M 87.833607 532.6 
L 87.833607 43.584 
" clip-path="url(#p97f124cf1e)" style="fill: none; stroke-dasharray: 2.96,1.28; stroke-dashoffset: 0; stroke: #b0b0b0; stroke-opacity: 0.7; stroke-width: 0.8"/>
     </g>
     <g id="line2d_2">
      <defs>
       <path id="m1531ce4831" d="M 0 0 
L 0 3.5 
" style="stroke: #000000; stroke-width: 0.8"/>
      </defs>
      <g>
       <use xlink:href="#m1531ce4831" x="87.833607" y="532.6" style="stroke: #000000; stroke-width: 0.8"/>
      </g>
     </g>
     <g id="text_1">
      <!-- −2.0 -->
      <g transform="translate(75.6922 547.198437) scale(0.1 -0.1)">
       <defs>
        <path id="DejaVuSans-2212" d="M 678 2272 
L 4684 2272 
L 4684 1741 
L 678 1741 
L 678 2272 
z
" transform="scale(0.015625)"/>
        <path id="DejaVuSans-32" d="M 1228 531 
L 3431 531 
L 3431 0 
L 469 0 
L 469 531 
Q 828 903 1448 1529 
Q 2069 2156 2228 2338 
Q 2531 2678 2651 2914 
Q 2772 3150 2772 3378 
Q 2772 3750 2511 3984 
Q 2250 4219 1831 4219 
Q 1534 4219 1204 4116 
Q 875 4013 500 3803 
L 500 4441 
Q 881 4594 1212 4672 
Q 1544 4750 1819 4750 
Q 2544 4750 2975 4387 
Q 3406 4025 3406 3419 
Q 3406 3131 3298 2873 
Q 3191 2616 2906 2266 
Q 2828 2175 2409 1742 
Q 1991 1309 1228 531 
z
" transform="scale(0.015625)"/>
        <path id="DejaVuSans-2e" d="M 684 794 
L 1344 794 
L 1344 0 
L 684 0 
L 684 794 
z
" transform="scale(0.015625)"/>
        <path id="DejaVuSans-30" d="M 2034 4250 
Q 1547 4250 1301 3770 
Q 1056 3291 1056 2328 
Q 1056 1369 1301 889 
Q 1547 409 2034 409 
Q 2525 409 2770 889 
Q 3016 1369 3016 2328 
Q 3016 3291 2770 3770 
Q 2525 4250 2034 4250 
z
M 2034 4750 
Q 2819 4750 3233 4129 
Q 3647 3509 3647 2328 
Q 3647 1150 3233 529 
Q 2819 -91 2034 -91 
Q 1250 -91 836 529 
Q 422 1150 422 2328 
Q 422 3509 836 4129 
Q 1250 4750 2034 4750 
z
" transform="scale(0.015625)"/>
       </defs>
       <use xlink:href="#DejaVuSans-2212"/>
       <use xlink:href="#DejaVuSans-32" x="83.789062"/>
       <use xlink:href="#DejaVuSans-2e" x="147.412109"/>
       <use xlink:href="#DejaVuSans-30" x="179.199219"/>
      </g>
     </g>
    </g>
    <g id="xtick_2">
     <g id="line2d_3">
      <path d="M 161.634236 532.6 
L 161.634236 43.584 
" clip-path="url(#p97f124cf1e)" style="fill: none; stroke-dasharray: 2.96,1.28; stroke-dashoffset: 0; stroke: #b0b0b0; stroke-opacity: 0.7; stroke-width: 0.8"/>
     </g>
     <g id="line2d_4">
      <g>
       <use xlink:href="#m1531ce4831" x="161.634236" y="532.6" style="stroke: #000000; stroke-width: 0.8"/>
      </g>
     </g>
     <g id="text_2">
      <!-- −1.5 -->
      <g transform="translate(149.49283 547.198437) scale(0.1 -0.1)">
       <defs>
        <path id="DejaVuSans-31" d="M 794 531 
L 1825 531 
L 1825 4091 
L 703 3866 
L 703 4441 
L 1819 4666 
L 2450 4666 
L 2450 531 
L 3481 531 
L 3481 0 
L 794 0 
L 794 531 
z
" transform="scale(0.015625)"/>
        <path id="DejaVuSans-35" d="M 691 4666 
L 3169 4666 
L 3169 4134 
L 1269 4134 
L 1269 2991 
Q 1406 3038 1543 3061 
Q 1681 3084 1819 3084 
Q 2600 3084 3056 2656 
Q 3513 2228 3513 1497 
Q 3513 744 3044 326 
Q 2575 -91 1722 -91 
Q 1428 -91 1123 -41 
Q 819 9 494 109 
L 494 744 
Q 775 591 1075 516 
Q 1375 441 1709 441 
Q 2250 441 2565 725 
Q 2881 1009 2881 1497 
Q 2881 1984 2565 2268 
Q 2250 2553 1709 2553 
Q 1456 2553 1204 2497 
Q 953 2441 691 2322 
L 691 4666 
z
" transform="scale(0.015625)"/>
       </defs>
       <use xlink:href="#DejaVuSans-2212"/>
       <use xlink:href="#DejaVuSans-31" x="83.789062"/>
       <use xlink:href="#DejaVuSans-2e" x="147.412109"/>
       <use xlink:href="#DejaVuSans-35" x="179.199219"/>
      </g>
     </g>
    </g>
    <g id="xtick_3">
     <g id="line2d_5">
      <path d="M 235.434866 532.6 
L 235.434866 43.584 
" clip-path="url(#p97f124cf1e)" style="fill: none; stroke-dasharray: 2.96,1.28; stroke-dashoffset: 0; stroke: #b0b0b0; stroke-opacity: 0.7; stroke-width: 0.8"/>
     </g>
     <g id="line2d_6">
      <g>
       <use xlink:href="#m1531ce4831" x="235.434866" y="532.6" style="stroke: #000000; stroke-width: 0.8"/>
      </g>
     </g>
     <g id="text_3">
      <!-- −1.0 -->
      <g transform="translate(223.29346 547.198437) scale(0.1 -0.1)">
       <use xlink:href="#DejaVuSans-2212"/>
       <use xlink:href="#DejaVuSans-31" x="83.789062"/>
       <use xlink:href="#DejaVuSans-2e" x="147.412109"/>
       <use xlink:href="#DejaVuSans-30" x="179.199219"/>
      </g>
     </g>
    </g>
    <g id="xtick_4">
     <g id="line2d_7">
      <path d="M 309.235496 532.6 
L 309.235496 43.584 
" clip-path="url(#p97f124cf1e)" style="fill: none; stroke-dasharray: 2.96,1.28; stroke-dashoffset: 0; stroke: #b0b0b0; stroke-opacity: 0.7; stroke-width: 0.8"/>
     </g>
     <g id="line2d_8">
      <g>
       <use xlink:href="#m1531ce4831" x="309.235496" y="532.6" style="stroke: #000000; stroke-width: 0.8"/>
      </g>
     </g>
     <g id="text_4">
      <!-- −0.5 -->
      <g transform="translate(297.09409 547.198437) scale(0.1 -0.1)">
       <use xlink:href="#DejaVuSans-2212"/>
       <use xlink:href="#DejaVuSans-30" x="83.789062"/>
       <use xlink:href="#DejaVuSans-2e" x="147.412109"/>
       <use xlink:href="#DejaVuSans-35" x="179.199219"/>
      </g>
     </g>
    </g>
    <g id="xtick_5">
     <g id="line2d_9">
      <path d="M 383.036126 532.6 
L 383.036126 43.584 
" clip-path="url(#p97f124cf1e)" style="fill: none; stroke-dasharray: 2.96,1.28; stroke-dashoffset: 0; stroke: #b0b0b0; stroke-opacity: 0.7; stroke-width: 0.8"/>
     </g>
     <g id="line2d_10">
      <g>
       <use xlink:href="#m1531ce4831" x="383.036126" y="532.6" style="stroke: #000000; stroke-width: 0.8"/>
      </g>
     </g>
     <g id="text_5">
      <!-- 0.0 -->
      <g transform="translate(375.084564 547.198437) scale(0.1 -0.1)">
       <use xlink:href="#DejaVuSans-30"/>
       <use xlink:href="#DejaVuSans-2e" x="63.623047"/>
       <use xlink:href="#DejaVuSans-30" x="95.410156"/>
      </g>
     </g>
    </g>
    <g id="xtick_6">
     <g id="line2d_11">
      <path d="M 456.836756 532.6 
L 456.836756 43.584 
" clip-path="url(#p97f124cf1e)" style="fill: none; stroke-dasharray: 2.96,1.28; stroke-dashoffset: 0; stroke: #b0b0b0; stroke-opacity: 0.7; stroke-width: 0.8"/>
     </g>
     <g id="line2d_12">
      <g>
       <use xlink:href="#m1531ce4831" x="456.836756" y="532.6" style="stroke: #000000; stroke-width: 0.8"/>
      </g>
     </g>
     <g id="text_6">
      <!-- 0.5 -->
      <g transform="translate(448.885194 547.198437) scale(0.1 -0.1)">
       <use xlink:href="#DejaVuSans-30"/>
       <use xlink:href="#DejaVuSans-2e" x="63.623047"/>
       <use xlink:href="#DejaVuSans-35" x="95.410156"/>
      </g>
     </g>
    </g>
    <g id="xtick_7">
     <g id="line2d_13">
      <path d="M 530.637386 532.6 
L 530.637386 43.584 
" clip-path="url(#p97f124cf1e)" style="fill: none; stroke-dasharray: 2.96,1.28; stroke-dashoffset: 0; stroke: #b0b0b0; stroke-opacity: 0.7; stroke-width: 0.8"/>
     </g>
     <g id="line2d_14">
      <g>
       <use xlink:href="#m1531ce4831" x="530.637386" y="532.6" style="stroke: #000000; stroke-width: 0.8"/>
      </g>
     </g>
     <g id="text_7">
      <!-- 1.0 -->
      <g transform="translate(522.685824 547.198437) scale(0.1 -0.1)">
       <use xlink:href="#DejaVuSans-31"/>
       <use xlink:href="#DejaVuSans-2e" x="63.623047"/>
       <use xlink:href="#DejaVuSans-30" x="95.410156"/>
      </g>
     </g>
    </g>
    <g id="xtick_8">
     <g id="line2d_15">
      <path d="M 604.438016 532.6 
L 604.438016 43.584 
" clip-path="url(#p97f124cf1e)" style="fill: none; stroke-dasharray: 2.96,1.28; stroke-dashoffset: 0; stroke: #b0b0b0; stroke-opacity: 0.7; stroke-width: 0.8"/>
     </g>
     <g id="line2d_16">
      <g>
       <use xlink:href="#m1531ce4831" x="604.438016" y="532.6" style="stroke: #000000; stroke-width: 0.8"/>
      </g>
     </g>
     <g id="text_8">
      <!-- 1.5 -->
      <g transform="translate(596.486453 547.198437) scale(0.1 -0.1)">
       <use xlink:href="#DejaVuSans-31"/>
       <use xlink:href="#DejaVuSans-2e" x="63.623047"/>
       <use xlink:href="#DejaVuSans-35" x="95.410156"/>
      </g>
     </g>
    </g>
    <g id="xtick_9">
     <g id="line2d_17">
      <path d="M 678.238646 532.6 
L 678.238646 43.584 
" clip-path="url(#p97f124cf1e)" style="fill: none; stroke-dasharray: 2.96,1.28; stroke-dashoffset: 0; stroke: #b0b0b0; stroke-opacity: 0.7; stroke-width: 0.8"/>
     </g>
     <g id="line2d_18">
      <g>
       <use xlink:href="#m1531ce4831" x="678.238646" y="532.6" style="stroke: #000000; stroke-width: 0.8"/>
      </g>
     </g>
     <g id="text_9">
      <!-- 2.0 -->
      <g transform="translate(670.287083 547.198437) scale(0.1 -0.1)">
       <use xlink:href="#DejaVuSans-32"/>
       <use xlink:href="#DejaVuSans-2e" x="63.623047"/>
       <use xlink:href="#DejaVuSans-30" x="95.410156"/>
      </g>
     </g>
    </g>
    <g id="text_10">
     <!-- $x$ (m) -->
     <g transform="translate(369.686126 560.876562) scale(0.1 -0.1)">
      <defs>
       <path id="DejaVuSans-Oblique-78" d="M 3841 3500 
L 2234 1784 
L 3219 0 
L 2559 0 
L 1819 1388 
L 531 0 
L -166 0 
L 1556 1844 
L 641 3500 
L 1300 3500 
L 1972 2234 
L 3144 3500 
L 3841 3500 
z
" transform="scale(0.015625)"/>
       <path id="DejaVuSans-20" transform="scale(0.015625)"/>
       <path id="DejaVuSans-28" d="M 1984 4856 
Q 1566 4138 1362 3434 
Q 1159 2731 1159 2009 
Q 1159 1288 1364 580 
Q 1569 -128 1984 -844 
L 1484 -844 
Q 1016 -109 783 600 
Q 550 1309 550 2009 
Q 550 2706 781 3412 
Q 1013 4119 1484 4856 
L 1984 4856 
z
" transform="scale(0.015625)"/>
       <path id="DejaVuSans-6d" d="M 3328 2828 
Q 3544 3216 3844 3400 
Q 4144 3584 4550 3584 
Q 5097 3584 5394 3201 
Q 5691 2819 5691 2113 
L 5691 0 
L 5113 0 
L 5113 2094 
Q 5113 2597 4934 2840 
Q 4756 3084 4391 3084 
Q 3944 3084 3684 2787 
Q 3425 2491 3425 1978 
L 3425 0 
L 2847 0 
L 2847 2094 
Q 2847 2600 2669 2842 
Q 2491 3084 2119 3084 
Q 1678 3084 1418 2786 
Q 1159 2488 1159 1978 
L 1159 0 
L 581 0 
L 581 3500 
L 1159 3500 
L 1159 2956 
Q 1356 3278 1631 3431 
Q 1906 3584 2284 3584 
Q 2666 3584 2933 3390 
Q 3200 3197 3328 2828 
z
" transform="scale(0.015625)"/>
       <path id="DejaVuSans-29" d="M 513 4856 
L 1013 4856 
Q 1481 4119 1714 3412 
Q 1947 2706 1947 2009 
Q 1947 1309 1714 600 
Q 1481 -109 1013 -844 
L 513 -844 
Q 928 -128 1133 580 
Q 1338 1288 1338 2009 
Q 1338 2731 1133 3434 
Q 928 4138 513 4856 
z
" transform="scale(0.015625)"/>
      </defs>
      <use xlink:href="#DejaVuSans-Oblique-78" transform="translate(0 0.125)"/>
      <use xlink:href="#DejaVuSans-20" transform="translate(59.179688 0.125)"/>
      <use xlink:href="#DejaVuSans-28" transform="translate(90.966797 0.125)"/>
      <use xlink:href="#DejaVuSans-6d" transform="translate(129.980469 0.125)"/>
      <use xlink:href="#DejaVuSans-29" transform="translate(227.392578 0.125)"/>
     </g>
    </g>
   </g>
   <g id="matplotlib.axis_2">
    <g id="ytick_1">
     <g id="line2d_19">
      <path d="M 58.538 490.164727 
L 707.534252 490.164727 
" clip-path="url(#p97f124cf1e)" style="fill: none; stroke-dasharray: 2.96,1.28; stroke-dashoffset: 0; stroke: #b0b0b0; stroke-opacity: 0.7; stroke-width: 0.8"/>
     </g>
     <g id="line2d_20">
      <defs>
       <path id="m4630dc1c5d" d="M 0 0 
L -3.5 0 
" style="stroke: #000000; stroke-width: 0.8"/>
      </defs>
      <g>
       <use xlink:href="#m4630dc1c5d" x="58.538" y="490.164727" style="stroke: #000000; stroke-width: 0.8"/>
      </g>
     </g>
     <g id="text_11">
      <!-- −1.0 -->
      <g transform="translate(27.255188 493.963946) scale(0.1 -0.1)">
       <use xlink:href="#DejaVuSans-2212"/>
       <use xlink:href="#DejaVuSans-31" x="83.789062"/>
       <use xlink:href="#DejaVuSans-2e" x="147.412109"/>
       <use xlink:href="#DejaVuSans-30" x="179.199219"/>
      </g>
     </g>
    </g>
    <g id="ytick_2">
     <g id="line2d_21">
      <path d="M 58.538 389.128364 
L 707.534252 389.128364 
" clip-path="url(#p97f124cf1e)" style="fill: none; stroke-dasharray: 2.96,1.28; stroke-dashoffset: 0; stroke: #b0b0b0; stroke-opacity: 0.7; stroke-width: 0.8"/>
     </g>
     <g id="line2d_22">
      <g>
       <use xlink:href="#m4630dc1c5d" x="58.538" y="389.128364" style="stroke: #000000; stroke-width: 0.8"/>
      </g>
     </g>
     <g id="text_12">
      <!-- −0.5 -->
      <g transform="translate(27.255188 392.927582) scale(0.1 -0.1)">
       <use xlink:href="#DejaVuSans-2212"/>
       <use xlink:href="#DejaVuSans-30" x="83.789062"/>
       <use xlink:href="#DejaVuSans-2e" x="147.412109"/>
       <use xlink:href="#DejaVuSans-35" x="179.199219"/>
      </g>
     </g>
    </g>
    <g id="ytick_3">
     <g id="line2d_23">
      <path d="M 58.538 288.092 
L 707.534252 288.092 
" clip-path="url(#p97f124cf1e)" style="fill: none; stroke-dasharray: 2.96,1.28; stroke-dashoffset: 0; stroke: #b0b0b0; stroke-opacity: 0.7; stroke-width: 0.8"/>
     </g>
     <g id="line2d_24">
      <g>
       <use xlink:href="#m4630dc1c5d" x="58.538" y="288.092" style="stroke: #000000; stroke-width: 0.8"/>
      </g>
     </g>
     <g id="text_13">
      <!-- 0.0 -->
      <g transform="translate(35.634875 291.891219) scale(0.1 -0.1)">
       <use xlink:href="#DejaVuSans-30"/>
       <use xlink:href="#DejaVuSans-2e" x="63.623047"/>
       <use xlink:href="#DejaVuSans-30" x="95.410156"/>
      </g>
     </g>
    </g>
    <g id="ytick_4">
     <g id="line2d_25">
      <path d="M 58.538 187.055636 
L 707.534252 187.055636 
" clip-path="url(#p97f124cf1e)" style="fill: none; stroke-dasharray: 2.96,1.28; stroke-dashoffset: 0; stroke: #b0b0b0; stroke-opacity: 0.7; stroke-width: 0.8"/>
     </g>
     <g id="line2d_26">
      <g>
       <use xlink:href="#m4630dc1c5d" x="58.538" y="187.055636" style="stroke: #000000; stroke-width: 0.8"/>
      </g>
     </g>
     <g id="text_14">
      <!-- 0.5 -->
      <g transform="translate(35.634875 190.854855) scale(0.1 -0.1)">
       <use xlink:href="#DejaVuSans-30"/>
       <use xlink:href="#DejaVuSans-2e" x="63.623047"/>
       <use xlink:href="#DejaVuSans-35" x="95.410156"/>
      </g>
     </g>
    </g>
    <g id="ytick_5">
     <g id="line2d_27">
      <path d="M 58.538 86.019273 
L 707.534252 86.019273 
" clip-path="url(#p97f124cf1e)" style="fill: none; stroke-dasharray: 2.96,1.28; stroke-dashoffset: 0; stroke: #b0b0b0; stroke-opacity: 0.7; stroke-width: 0.8"/>
     </g>
     <g id="line2d_28">
      <g>
       <use xlink:href="#m4630dc1c5d" x="58.538" y="86.019273" style="stroke: #000000; stroke-width: 0.8"/>
      </g>
     </g>
     <g id="text_15">
      <!-- 1.0 -->
      <g transform="translate(35.634875 89.818491) scale(0.1 -0.1)">
       <use xlink:href="#DejaVuSans-31"/>
       <use xlink:href="#DejaVuSans-2e" x="63.623047"/>
       <use xlink:href="#DejaVuSans-30" x="95.410156"/>
      </g>
     </g>
    </g>
    <g id="text_16">
     <!-- $\Re(E_z) (V/m)$ -->
     <g transform="translate(21.1755 315.092) rotate(-90) scale(0.1 -0.1)">
      <defs>
       <path id="DejaVuSans-Oblique-211c" d="M 4006 -91 
Q 3750 481 3750 978 
Q 3750 1416 3681 1700 
Q 3556 2219 3309 2219 
Q 3178 2219 2891 2084 
L 2516 1909 
L 2516 1288 
Q 2516 644 2194 275 
Q 1872 -91 1434 -91 
Q 994 -91 675 275 
Q 353 644 353 1194 
Q 494 1156 638 1119 
Q 638 738 838 469 
Q 1038 197 1263 197 
Q 1488 197 1684 469 
Q 1884 741 1884 1209 
L 1884 3294 
Q 1884 3759 1684 4034 
Q 1488 4306 1200 4306 
Q 947 4306 744 4034 
Q 544 3766 544 3450 
Q 544 3134 744 2866 
Q 944 2594 1203 2594 
L 1372 2306 
Q 900 2306 581 2672 
Q 259 3041 259 3528 
Q 259 4019 581 4384 
Q 900 4750 1372 4750 
Q 1878 4750 2194 4384 
Q 2288 4275 2338 4175 
L 2997 4481 
Q 3581 4753 3931 4753 
Q 4078 4753 4191 4709 
Q 4584 4556 4584 4003 
Q 4584 3731 4381 3347 
Q 4175 2959 3784 2666 
Q 3966 2666 4119 2513 
Q 4231 2400 4316 2075 
Q 4416 1691 4416 1281 
Q 4416 881 4556 513 
L 5006 722 
L 5138 438 
L 4006 -91 
z
M 2450 3897 
Q 2516 3663 2516 3375 
L 2516 2241 
L 2997 2463 
Q 3447 2672 3688 2997 
Q 3919 3316 3919 3694 
Q 3919 4166 3688 4266 
Q 3613 4297 3516 4297 
Q 3316 4297 2997 4150 
L 2450 3897 
z
" transform="scale(0.015625)"/>
       <path id="DejaVuSans-Oblique-45" d="M 1081 4666 
L 4031 4666 
L 3928 4134 
L 1606 4134 
L 1338 2753 
L 3566 2753 
L 3463 2222 
L 1234 2222 
L 909 531 
L 3284 531 
L 3181 0 
L 172 0 
L 1081 4666 
z
" transform="scale(0.015625)"/>
       <path id="DejaVuSans-Oblique-7a" d="M 744 3500 
L 3475 3500 
L 3372 2975 
L 738 459 
L 2913 459 
L 2822 0 
L -19 0 
L 84 525 
L 2719 3041 
L 653 3041 
L 744 3500 
z
" transform="scale(0.015625)"/>
       <path id="DejaVuSans-Oblique-56" d="M 1319 0 
L 500 4666 
L 1119 4666 
L 1797 653 
L 4063 4666 
L 4750 4666 
L 2053 0 
L 1319 0 
z
" transform="scale(0.015625)"/>
       <path id="DejaVuSans-2f" d="M 1625 4666 
L 2156 4666 
L 531 -594 
L 0 -594 
L 1625 4666 
z
" transform="scale(0.015625)"/>
       <path id="DejaVuSans-Oblique-6d" d="M 5747 2113 
L 5338 0 
L 4763 0 
L 5166 2094 
Q 5191 2228 5203 2325 
Q 5216 2422 5216 2491 
Q 5216 2772 5059 2928 
Q 4903 3084 4622 3084 
Q 4203 3084 3875 2770 
Q 3547 2456 3450 1953 
L 3066 0 
L 2491 0 
L 2900 2094 
Q 2925 2209 2937 2307 
Q 2950 2406 2950 2484 
Q 2950 2769 2794 2926 
Q 2638 3084 2363 3084 
Q 1938 3084 1609 2770 
Q 1281 2456 1184 1953 
L 800 0 
L 225 0 
L 909 3500 
L 1484 3500 
L 1375 2956 
Q 1609 3263 1923 3423 
Q 2238 3584 2597 3584 
Q 2978 3584 3223 3384 
Q 3469 3184 3519 2828 
Q 3781 3197 4126 3390 
Q 4472 3584 4856 3584 
Q 5306 3584 5551 3325 
Q 5797 3066 5797 2591 
Q 5797 2488 5784 2364 
Q 5772 2241 5747 2113 
z
" transform="scale(0.015625)"/>
      </defs>
      <use xlink:href="#DejaVuSans-Oblique-211c" transform="translate(0 0.125)"/>
      <use xlink:href="#DejaVuSans-28" transform="translate(81.396484 0.125)"/>
      <use xlink:href="#DejaVuSans-Oblique-45" transform="translate(120.410156 0.125)"/>
      <use xlink:href="#DejaVuSans-Oblique-7a" transform="translate(183.59375 -16.28125) scale(0.7)"/>
      <use xlink:href="#DejaVuSans-29" transform="translate(223.071289 0.125)"/>
      <use xlink:href="#DejaVuSans-28" transform="translate(262.084961 0.125)"/>
      <use xlink:href="#DejaVuSans-Oblique-56" transform="translate(301.098633 0.125)"/>
      <use xlink:href="#DejaVuSans-2f" transform="translate(369.506836 0.125)"/>
      <use xlink:href="#DejaVuSans-Oblique-6d" transform="translate(403.198242 0.125)"/>
      <use xlink:href="#DejaVuSans-29" transform="translate(500.610352 0.125)"/>
     </g>
    </g>
   </g>
   <g id="line2d_29">
    <path d="M 88.03783 288.092 
L 99.100266 288.205815 
L 106.475223 288.029001 
L 112.006441 287.657455 
L 117.537659 287.011972 
L 121.225138 286.404657 
L 124.912617 285.645898 
L 130.443835 284.228008 
L 135.975053 282.523415 
L 148.881228 278.265411 
L 152.568707 277.308252 
L 156.256186 276.645204 
L 158.099925 276.458366 
L 159.943664 276.38646 
L 161.787404 276.443024 
L 163.631143 276.641043 
L 165.474883 276.992681 
L 167.318622 277.509004 
L 169.162361 278.199708 
L 171.006101 279.07284 
L 172.84984 280.134533 
L 174.693579 281.388754 
L 176.537319 282.837074 
L 178.381058 284.478462 
L 180.224797 286.309112 
L 182.068537 288.322314 
L 185.756015 292.854507 
L 189.443494 297.961078 
L 193.130973 303.48118 
L 202.34967 317.679648 
L 206.037148 322.858921 
L 207.880888 325.209409 
L 209.724627 327.357781 
L 211.568366 329.273863 
L 213.412106 330.929577 
L 215.255845 332.299422 
L 217.099584 333.360943 
L 218.943324 334.095139 
L 220.787063 334.48684 
L 222.630802 334.525007 
L 224.474542 334.20298 
L 226.318281 333.518649 
L 228.162021 332.474545 
L 230.00576 331.077862 
L 231.849499 329.34039 
L 233.693239 327.278368 
L 235.536978 324.912272 
L 237.380717 322.291098 
L 241.068196 316.433978 
L 244.755675 309.879342 
L 248.443153 302.788504 
L 253.974371 291.531168 
L 261.349329 276.335556 
L 265.036808 269.078895 
L 268.724286 262.290161 
L 272.411765 256.136427 
L 274.255504 253.345728 
L 276.099244 250.769142 
L 277.942983 248.422546 
L 279.786722 246.320399 
L 281.630462 244.475656 
L 283.474201 242.899684 
L 285.31794 241.602195 
L 287.16168 240.591184 
L 289.005419 239.872881 
L 290.849159 239.451712 
L 292.692898 239.330272 
L 294.536637 239.509311 
L 296.380377 239.987724 
L 298.224116 240.762564 
L 300.067855 241.829056 
L 301.911595 243.180628 
L 303.755334 244.808951 
L 305.599073 246.703991 
L 307.442813 248.854072 
L 309.286552 251.245943 
L 311.130291 253.864866 
L 314.81777 259.718013 
L 318.505249 266.269464 
L 322.192728 273.357983 
L 327.723946 284.613584 
L 335.098903 299.810254 
L 338.786382 307.068866 
L 342.47386 313.860444 
L 346.161339 320.017842 
L 348.005079 322.810654 
L 349.848818 325.389523 
L 351.692557 327.738559 
L 353.536297 329.843287 
L 355.380036 331.690735 
L 357.223775 333.269521 
L 359.067515 334.569916 
L 360.911254 335.583906 
L 362.754993 336.305243 
L 364.598733 336.729482 
L 366.442472 337.503605 
L 368.286211 339.302232 
L 370.129951 342.164891 
L 371.97369 346.099857 
L 373.817429 351.084072 
L 375.661169 357.063681 
L 377.504908 363.95518 
L 379.348648 371.647134 
L 383.036126 388.861097 
L 390.411084 425.515681 
L 392.254823 433.931425 
L 394.098562 441.610309 
L 395.942302 448.337262 
L 397.786041 453.906226 
L 399.62978 458.124247 
L 401.47352 460.815338 
L 403.317259 462.166685 
L 405.160998 462.445355 
L 407.004738 461.64963 
L 408.848477 459.784414 
L 410.692217 456.8612 
L 412.535956 452.898002 
L 414.379695 447.919243 
L 416.223435 441.955601 
L 418.067174 435.043825 
L 419.910913 427.226508 
L 421.754653 418.551821 
L 423.598392 409.073218 
L 425.442131 398.849109 
L 429.12961 376.420588 
L 432.817089 351.818238 
L 436.504567 325.647542 
L 451.254482 218.405446 
L 454.941961 194.262444 
L 458.62944 172.428653 
L 460.473179 162.548224 
L 462.316918 153.441417 
L 464.160658 145.16435 
L 466.004397 137.768026 
L 467.848136 131.298025 
L 469.691876 125.794214 
L 471.535615 121.290509 
L 473.379355 117.814663 
L 475.223094 115.388094 
L 477.066833 114.025756 
L 478.910573 113.736043 
L 480.754312 114.52074 
L 482.598051 116.375013 
L 484.441791 119.287435 
L 486.28553 123.240059 
L 488.129269 128.208528 
L 489.973009 134.162225 
L 491.816748 141.064464 
L 493.660487 148.872711 
L 495.504227 157.538851 
L 497.347966 167.009481 
L 499.191705 177.226242 
L 502.879184 199.642116 
L 506.566663 224.234804 
L 510.254142 250.399062 
L 525.004056 357.649545 
L 528.691535 381.80292 
L 530.535275 393.049846 
L 532.379014 403.566949 
L 534.222753 413.177832 
L 536.066493 421.785286 
L 537.910232 429.305336 
L 539.753971 435.668429 
L 541.597711 440.820368 
L 543.44145 444.722979 
L 545.285189 447.354489 
L 547.128929 448.709635 
L 548.972668 448.799471 
L 550.816407 447.650923 
L 552.660147 445.306061 
L 554.503886 441.821145 
L 556.347625 437.265443 
L 558.191365 431.719857 
L 560.035104 425.275392 
L 561.878844 418.031496 
L 563.722583 410.094305 
L 567.410062 392.587142 
L 571.09754 373.667756 
L 578.472498 335.156523 
L 582.159976 317.154281 
L 585.847455 300.843169 
L 587.691194 293.469406 
L 589.534934 286.675137 
L 591.378673 280.491216 
L 593.222413 274.938422 
L 595.066152 270.027821 
L 596.909891 265.761281 
L 598.753631 262.132096 
L 600.59737 259.125721 
L 602.441109 256.720587 
L 604.284849 254.888967 
L 606.128588 253.597895 
L 607.972327 252.810088 
L 609.816067 252.484882 
L 611.659806 252.579136 
L 613.503545 253.048113 
L 615.347285 253.846306 
L 617.191024 254.928207 
L 619.034763 256.249007 
L 620.878503 257.765217 
L 624.565982 261.21968 
L 637.472157 274.235609 
L 641.159636 277.434403 
L 644.847114 280.205867 
L 648.534593 282.515526 
L 652.222072 284.362917 
L 655.909551 285.773578 
L 659.597029 286.791414 
L 663.284508 287.47203 
L 666.971987 287.877422 
L 670.659465 288.072254 
L 676.190683 288.112706 
L 678.034423 288.092 
L 678.034423 288.092 
" clip-path="url(#p97f124cf1e)" style="fill: none; stroke: #ff0000; stroke-linecap: square"/>
   </g>
   <g id="line2d_30">
    <path d="M 88.03783 86.019273 
L 89.881569 86.642196 
L 91.725308 88.507123 
L 93.569048 91.602558 
L 95.412787 95.909416 
L 97.256526 101.401143 
L 99.100266 108.043882 
L 100.944005 115.796677 
L 102.787744 124.61173 
L 104.631484 134.434693 
L 106.475223 145.205004 
L 108.318963 156.856262 
L 112.006441 182.50929 
L 115.69392 210.762115 
L 119.381399 240.919059 
L 126.756356 303.946443 
L 132.287574 350.535907 
L 135.975053 379.831098 
L 139.662532 406.867369 
L 141.506271 419.327738 
L 143.35001 430.978996 
L 145.19375 441.749307 
L 147.037489 451.57227 
L 148.881228 460.387323 
L 150.724968 468.140118 
L 152.568707 474.782857 
L 154.412446 480.274584 
L 156.256186 484.581442 
L 158.099925 487.676877 
L 159.943664 489.541804 
L 161.787404 490.164727 
L 163.631143 489.541804 
L 165.474883 487.676877 
L 167.318622 484.581442 
L 169.162361 480.274584 
L 171.006101 474.782857 
L 172.84984 468.140118 
L 174.693579 460.387323 
L 176.537319 451.57227 
L 178.381058 441.749307 
L 180.224797 430.978996 
L 182.068537 419.327738 
L 185.756015 393.67471 
L 189.443494 365.421885 
L 193.130973 335.264941 
L 200.50593 272.237557 
L 206.037148 225.648093 
L 209.724627 196.352902 
L 213.412106 169.316631 
L 215.255845 156.856262 
L 217.099584 145.205004 
L 218.943324 134.434693 
L 220.787063 124.61173 
L 222.630802 115.796677 
L 224.474542 108.043882 
L 226.318281 101.401143 
L 228.162021 95.909416 
L 230.00576 91.602558 
L 231.849499 88.507123 
L 233.693239 86.642196 
L 235.536978 86.019273 
L 237.380717 86.642196 
L 239.224457 88.507123 
L 241.068196 91.602558 
L 242.911935 95.909416 
L 244.755675 101.401143 
L 246.599414 108.043882 
L 248.443153 115.796677 
L 250.286893 124.61173 
L 252.130632 134.434693 
L 253.974371 145.205004 
L 255.818111 156.856262 
L 259.50559 182.50929 
L 263.193068 210.762115 
L 266.880547 240.919059 
L 274.255504 303.946443 
L 279.786722 350.535907 
L 283.474201 379.831098 
L 287.16168 406.867369 
L 289.005419 419.327738 
L 290.849159 430.978996 
L 292.692898 441.749307 
L 294.536637 451.57227 
L 296.380377 460.387323 
L 298.224116 468.140118 
L 300.067855 474.782857 
L 301.911595 480.274584 
L 303.755334 484.581442 
L 305.599073 487.676877 
L 307.442813 489.541804 
L 309.286552 490.164727 
L 311.130291 489.541804 
L 312.974031 487.676877 
L 314.81777 484.581442 
L 316.661509 480.274584 
L 318.505249 474.782857 
L 320.348988 468.140118 
L 322.192728 460.387323 
L 324.036467 451.57227 
L 325.880206 441.749307 
L 327.723946 430.978996 
L 329.567685 419.327738 
L 333.255164 393.67471 
L 336.942642 365.421885 
L 340.630121 335.264941 
L 348.005079 272.237557 
L 353.536297 225.648093 
L 357.223775 196.352902 
L 360.911254 169.316631 
L 362.754993 156.856262 
L 364.598733 145.205004 
L 366.442472 134.434693 
L 368.286211 124.61173 
L 370.129951 115.796677 
L 371.97369 108.043882 
L 373.817429 101.401143 
L 375.661169 95.909416 
L 377.504908 91.602558 
L 379.348648 88.507123 
L 381.192387 86.642196 
L 383.036126 86.019273 
L 384.879866 86.642196 
L 386.723605 88.507123 
L 388.567344 91.602558 
L 390.411084 95.909416 
L 392.254823 101.401143 
L 394.098562 108.043882 
L 395.942302 115.796677 
L 397.786041 124.61173 
L 399.62978 134.434693 
L 401.47352 145.205004 
L 403.317259 156.856262 
L 407.004738 182.50929 
L 410.692217 210.762115 
L 414.379695 240.919059 
L 421.754653 303.946443 
L 427.285871 350.535907 
L 430.973349 379.831098 
L 434.660828 406.867369 
L 436.504567 419.327738 
L 438.348307 430.978996 
L 440.192046 441.749307 
L 442.035786 451.57227 
L 443.879525 460.387323 
L 445.723264 468.140118 
L 447.567004 474.782857 
L 449.410743 480.274584 
L 451.254482 484.581442 
L 453.098222 487.676877 
L 454.941961 489.541804 
L 456.7857 490.164727 
L 458.62944 489.541804 
L 460.473179 487.676877 
L 462.316918 484.581442 
L 464.160658 480.274584 
L 466.004397 474.782857 
L 467.848136 468.140118 
L 469.691876 460.387323 
L 471.535615 451.57227 
L 473.379355 441.749307 
L 475.223094 430.978996 
L 477.066833 419.327738 
L 480.754312 393.67471 
L 484.441791 365.421885 
L 488.129269 335.264941 
L 495.504227 272.237557 
L 501.035445 225.648093 
L 504.722924 196.352902 
L 508.410402 169.316631 
L 510.254142 156.856262 
L 512.097881 145.205004 
L 513.94162 134.434693 
L 515.78536 124.61173 
L 517.629099 115.796677 
L 519.472838 108.043882 
L 521.316578 101.401143 
L 523.160317 95.909416 
L 525.004056 91.602558 
L 526.847796 88.507123 
L 528.691535 86.642196 
L 530.535275 86.019273 
L 532.379014 86.642196 
L 534.222753 88.507123 
L 536.066493 91.602558 
L 537.910232 95.909416 
L 539.753971 101.401143 
L 541.597711 108.043882 
L 543.44145 115.796677 
L 545.285189 124.61173 
L 547.128929 134.434693 
L 548.972668 145.205004 
L 550.816407 156.856262 
L 554.503886 182.50929 
L 558.191365 210.762115 
L 561.878844 240.919059 
L 569.253801 303.946443 
L 574.785019 350.535907 
L 578.472498 379.831098 
L 582.159976 406.867369 
L 584.003716 419.327738 
L 585.847455 430.978996 
L 587.691194 441.749307 
L 589.534934 451.57227 
L 591.378673 460.387323 
L 593.222413 468.140118 
L 595.066152 474.782857 
L 596.909891 480.274584 
L 598.753631 484.581442 
L 600.59737 487.676877 
L 602.441109 489.541804 
L 604.284849 490.164727 
L 606.128588 489.541804 
L 607.972327 487.676877 
L 609.816067 484.581442 
L 611.659806 480.274584 
L 613.503545 474.782857 
L 615.347285 468.140118 
L 617.191024 460.387323 
L 619.034763 451.57227 
L 620.878503 441.749307 
L 622.722242 430.978996 
L 624.565982 419.327738 
L 628.25346 393.67471 
L 631.940939 365.421885 
L 635.628418 335.264941 
L 643.003375 272.237557 
L 648.534593 225.648093 
L 652.222072 196.352902 
L 655.909551 169.316631 
L 657.75329 156.856262 
L 659.597029 145.205004 
L 661.440769 134.434693 
L 663.284508 124.61173 
L 665.128247 115.796677 
L 666.971987 108.043882 
L 668.815726 101.401143 
L 670.659465 95.909416 
L 672.503205 91.602558 
L 674.346944 88.507123 
L 676.190683 86.642196 
L 678.034423 86.019273 
L 678.034423 86.019273 
" clip-path="url(#p97f124cf1e)" style="fill: none; stroke-dasharray: 3.7,1.6; stroke-dashoffset: 0; stroke: #008000"/>
   </g>
   <g id="line2d_31">
    <path d="M 88.03783 86.019273 
L 89.881569 86.676212 
L 91.725308 88.571969 
L 93.569048 91.692937 
L 95.412787 96.017913 
L 97.256526 101.518188 
L 99.100266 108.157697 
L 100.944005 115.89322 
L 102.787744 124.674635 
L 104.631484 134.44522 
L 106.475223 145.142005 
L 108.318963 156.696165 
L 112.006441 182.074745 
L 115.69392 209.931101 
L 119.381399 239.553988 
L 132.287574 346.131177 
L 135.975053 374.262513 
L 139.662532 400.059787 
L 141.506271 411.889317 
L 143.35001 422.913225 
L 145.19375 433.069232 
L 147.037489 442.301454 
L 148.881228 450.560734 
L 150.724968 457.804928 
L 152.568707 463.999108 
L 154.412446 469.115718 
L 156.256186 473.134646 
L 158.099925 476.043243 
L 159.943664 477.836264 
L 161.787404 478.515751 
L 163.631143 478.090848 
L 165.474883 476.577557 
L 167.318622 473.998446 
L 169.162361 470.382292 
L 171.006101 465.763696 
L 172.84984 460.182651 
L 174.693579 453.684077 
L 176.537319 446.317345 
L 178.381058 438.135769 
L 180.224797 429.196108 
L 182.068537 419.558052 
L 185.756015 398.437217 
L 189.443494 375.290963 
L 193.130973 350.654122 
L 200.50593 299.06256 
L 206.037148 260.415014 
L 209.724627 235.618682 
L 213.412106 212.154208 
L 217.099584 190.473947 
L 220.787063 171.00657 
L 222.630802 162.229683 
L 224.474542 154.154862 
L 226.318281 146.827792 
L 228.162021 140.291961 
L 230.00576 134.588421 
L 231.849499 129.755513 
L 233.693239 125.828564 
L 235.536978 122.839545 
L 237.380717 120.841293 
L 239.224457 119.874306 
L 241.068196 119.944536 
L 242.911935 121.051541 
L 244.755675 123.188485 
L 246.599414 126.342183 
L 248.443153 130.493181 
L 250.286893 135.615874 
L 252.130632 141.678668 
L 253.974371 148.644172 
L 255.818111 156.469429 
L 257.66185 165.106182 
L 259.50559 174.50117 
L 261.349329 184.596458 
L 265.036808 206.634989 
L 268.724286 230.679022 
L 274.255504 269.200172 
L 283.474201 334.638783 
L 287.16168 359.366553 
L 290.849159 382.338707 
L 294.536637 402.989581 
L 296.380377 412.283048 
L 298.224116 420.810682 
L 300.067855 428.519913 
L 301.911595 435.363212 
L 303.755334 441.298393 
L 305.599073 446.288868 
L 307.442813 450.303876 
L 309.286552 453.31867 
L 311.130291 455.31467 
L 312.974031 456.279578 
L 314.81777 456.207455 
L 316.661509 455.098754 
L 318.505249 452.960321 
L 320.348988 449.805351 
L 322.192728 445.653307 
L 324.036467 440.529798 
L 325.880206 434.466424 
L 327.723946 427.50058 
L 329.567685 419.675225 
L 331.411424 411.038617 
L 333.255164 401.644015 
L 335.098903 391.549353 
L 338.786382 369.512773 
L 342.47386 345.471583 
L 348.005079 306.95621 
L 357.223775 241.530423 
L 360.911254 216.808537 
L 364.598733 193.842486 
L 366.442472 183.846298 
L 368.286211 175.821962 
L 370.129951 169.869567 
L 371.97369 166.051739 
L 373.817429 164.393215 
L 375.661169 164.881097 
L 377.504908 167.465738 
L 379.348648 172.062257 
L 381.192387 178.552639 
L 383.036126 186.78837 
L 384.879866 196.593557 
L 386.723605 207.768476 
L 388.567344 220.093464 
L 392.254823 247.240568 
L 399.62978 304.466939 
L 403.317259 330.930947 
L 407.004738 356.06692 
L 410.692217 379.531315 
L 414.379695 400.746301 
L 416.223435 410.344462 
L 418.067174 419.189382 
L 419.910913 427.226508 
L 421.754653 434.406264 
L 423.598392 440.684357 
L 425.442131 446.022051 
L 427.285871 450.386403 
L 429.12961 453.750473 
L 430.973349 456.093482 
L 432.817089 457.400948 
L 434.660828 457.66477 
L 436.504567 456.88328 
L 438.348307 455.061254 
L 440.192046 452.209884 
L 442.035786 448.346706 
L 443.879525 443.495493 
L 445.723264 437.686113 
L 447.567004 430.95434 
L 449.410743 423.341633 
L 451.254482 414.894888 
L 453.098222 405.66614 
L 454.941961 395.712248 
L 458.62944 373.878457 
L 462.316918 349.930859 
L 466.004397 324.458883 
L 480.754312 220.10345 
L 484.441791 196.61732 
L 488.129269 175.381469 
L 489.973009 165.773364 
L 491.816748 156.918908 
L 493.660487 148.872711 
L 495.504227 141.684408 
L 497.347966 135.398342 
L 499.191705 130.053301 
L 501.035445 125.682269 
L 502.879184 122.312232 
L 504.722924 119.964001 
L 506.566663 118.652094 
L 508.410402 118.384639 
L 510.254142 119.163324 
L 512.097881 120.983392 
L 513.94162 123.833663 
L 515.78536 127.696607 
L 517.629099 132.548453 
L 519.472838 138.359329 
L 521.316578 145.093453 
L 523.160317 152.709349 
L 525.004056 161.160103 
L 526.847796 170.393655 
L 528.691535 180.353116 
L 532.379014 202.117144 
L 537.910232 237.122752 
L 545.285189 283.874219 
L 548.972668 305.912476 
L 552.660147 326.530692 
L 556.347625 345.526345 
L 560.035104 362.831485 
L 563.722583 378.483166 
L 567.410062 392.587142 
L 571.09754 405.278895 
L 574.785019 416.68602 
L 578.472498 426.895621 
L 582.159976 435.92965 
L 584.003716 439.991021 
L 585.847455 443.730165 
L 587.691194 447.126714 
L 589.534934 450.155408 
L 591.378673 452.78654 
L 593.222413 454.98654 
L 595.066152 456.718678 
L 596.909891 457.943865 
L 598.753631 458.621537 
L 600.59737 458.710598 
L 602.441109 458.170391 
L 604.284849 456.961694 
L 606.128588 455.047699 
L 607.972327 452.394965 
L 609.816067 448.974324 
L 611.659806 444.76172 
L 613.503545 439.73897 
L 615.347285 433.894425 
L 617.191024 427.223531 
L 619.034763 419.729278 
L 620.878503 411.422524 
L 622.722242 402.322206 
L 624.565982 392.455419 
L 626.409721 381.857379 
L 630.0972 358.647983 
L 633.784678 333.129567 
L 637.472157 305.846748 
L 644.847114 248.594728 
L 650.378332 206.16604 
L 654.065811 179.537731 
L 657.75329 155.09259 
L 659.597029 143.904418 
L 661.440769 133.51279 
L 663.284508 123.99176 
L 665.128247 115.409795 
L 666.971987 107.829304 
L 668.815726 101.306222 
L 670.659465 95.88967 
L 672.503205 91.621677 
L 674.346944 88.536982 
L 676.190683 86.662901 
L 678.034423 86.019273 
L 678.034423 86.019273 
" clip-path="url(#p97f124cf1e)" style="fill: none; stroke: #0000ff; stroke-linecap: square"/>
   </g>
   <g id="patch_3">
    <path d="M 58.538 532.6 
L 58.538 43.584 
" style="fill: none; stroke: #000000; stroke-width: 0.8; stroke-linejoin: miter; stroke-linecap: square"/>
   </g>
   <g id="patch_4">
    <path d="M 707.534252 532.6 
L 707.534252 43.584 
" style="fill: none; stroke: #000000; stroke-width: 0.8; stroke-linejoin: miter; stroke-linecap: square"/>
   </g>
   <g id="patch_5">
    <path d="M 58.538 532.6 
L 707.534252 532.6 
" style="fill: none; stroke: #000000; stroke-width: 0.8; stroke-linejoin: miter; stroke-linecap: square"/>
   </g>
   <g id="patch_6">
    <path d="M 58.538 43.584 
L 707.534252 43.584 
" style="fill: none; stroke: #000000; stroke-width: 0.8; stroke-linejoin: miter; stroke-linecap: square"/>
   </g>
   <g id="text_17">
    <!-- Scattered and total fields for lossy dielectric slab -->
    <g transform="translate(236.314564 24.146625) scale(0.12 -0.12)">
     <defs>
      <path id="DejaVuSans-53" d="M 3425 4513 
L 3425 3897 
Q 3066 4069 2747 4153 
Q 2428 4238 2131 4238 
Q 1616 4238 1336 4038 
Q 1056 3838 1056 3469 
Q 1056 3159 1242 3001 
Q 1428 2844 1947 2747 
L 2328 2669 
Q 3034 2534 3370 2195 
Q 3706 1856 3706 1288 
Q 3706 609 3251 259 
Q 2797 -91 1919 -91 
Q 1588 -91 1214 -16 
Q 841 59 441 206 
L 441 856 
Q 825 641 1194 531 
Q 1563 422 1919 422 
Q 2459 422 2753 634 
Q 3047 847 3047 1241 
Q 3047 1584 2836 1778 
Q 2625 1972 2144 2069 
L 1759 2144 
Q 1053 2284 737 2584 
Q 422 2884 422 3419 
Q 422 4038 858 4394 
Q 1294 4750 2059 4750 
Q 2388 4750 2728 4690 
Q 3069 4631 3425 4513 
z
" transform="scale(0.015625)"/>
      <path id="DejaVuSans-63" d="M 3122 3366 
L 3122 2828 
Q 2878 2963 2633 3030 
Q 2388 3097 2138 3097 
Q 1578 3097 1268 2742 
Q 959 2388 959 1747 
Q 959 1106 1268 751 
Q 1578 397 2138 397 
Q 2388 397 2633 464 
Q 2878 531 3122 666 
L 3122 134 
Q 2881 22 2623 -34 
Q 2366 -91 2075 -91 
Q 1284 -91 818 406 
Q 353 903 353 1747 
Q 353 2603 823 3093 
Q 1294 3584 2113 3584 
Q 2378 3584 2631 3529 
Q 2884 3475 3122 3366 
z
" transform="scale(0.015625)"/>
      <path id="DejaVuSans-61" d="M 2194 1759 
Q 1497 1759 1228 1600 
Q 959 1441 959 1056 
Q 959 750 1161 570 
Q 1363 391 1709 391 
Q 2188 391 2477 730 
Q 2766 1069 2766 1631 
L 2766 1759 
L 2194 1759 
z
M 3341 1997 
L 3341 0 
L 2766 0 
L 2766 531 
Q 2569 213 2275 61 
Q 1981 -91 1556 -91 
Q 1019 -91 701 211 
Q 384 513 384 1019 
Q 384 1609 779 1909 
Q 1175 2209 1959 2209 
L 2766 2209 
L 2766 2266 
Q 2766 2663 2505 2880 
Q 2244 3097 1772 3097 
Q 1472 3097 1187 3025 
Q 903 2953 641 2809 
L 641 3341 
Q 956 3463 1253 3523 
Q 1550 3584 1831 3584 
Q 2591 3584 2966 3190 
Q 3341 2797 3341 1997 
z
" transform="scale(0.015625)"/>
      <path id="DejaVuSans-74" d="M 1172 4494 
L 1172 3500 
L 2356 3500 
L 2356 3053 
L 1172 3053 
L 1172 1153 
Q 1172 725 1289 603 
Q 1406 481 1766 481 
L 2356 481 
L 2356 0 
L 1766 0 
Q 1100 0 847 248 
Q 594 497 594 1153 
L 594 3053 
L 172 3053 
L 172 3500 
L 594 3500 
L 594 4494 
L 1172 4494 
z
" transform="scale(0.015625)"/>
      <path id="DejaVuSans-65" d="M 3597 1894 
L 3597 1613 
L 953 1613 
Q 991 1019 1311 708 
Q 1631 397 2203 397 
Q 2534 397 2845 478 
Q 3156 559 3463 722 
L 3463 178 
Q 3153 47 2828 -22 
Q 2503 -91 2169 -91 
Q 1331 -91 842 396 
Q 353 884 353 1716 
Q 353 2575 817 3079 
Q 1281 3584 2069 3584 
Q 2775 3584 3186 3129 
Q 3597 2675 3597 1894 
z
M 3022 2063 
Q 3016 2534 2758 2815 
Q 2500 3097 2075 3097 
Q 1594 3097 1305 2825 
Q 1016 2553 972 2059 
L 3022 2063 
z
" transform="scale(0.015625)"/>
      <path id="DejaVuSans-72" d="M 2631 2963 
Q 2534 3019 2420 3045 
Q 2306 3072 2169 3072 
Q 1681 3072 1420 2755 
Q 1159 2438 1159 1844 
L 1159 0 
L 581 0 
L 581 3500 
L 1159 3500 
L 1159 2956 
Q 1341 3275 1631 3429 
Q 1922 3584 2338 3584 
Q 2397 3584 2469 3576 
Q 2541 3569 2628 3553 
L 2631 2963 
z
" transform="scale(0.015625)"/>
      <path id="DejaVuSans-64" d="M 2906 2969 
L 2906 4863 
L 3481 4863 
L 3481 0 
L 2906 0 
L 2906 525 
Q 2725 213 2448 61 
Q 2172 -91 1784 -91 
Q 1150 -91 751 415 
Q 353 922 353 1747 
Q 353 2572 751 3078 
Q 1150 3584 1784 3584 
Q 2172 3584 2448 3432 
Q 2725 3281 2906 2969 
z
M 947 1747 
Q 947 1113 1208 752 
Q 1469 391 1925 391 
Q 2381 391 2643 752 
Q 2906 1113 2906 1747 
Q 2906 2381 2643 2742 
Q 2381 3103 1925 3103 
Q 1469 3103 1208 2742 
Q 947 2381 947 1747 
z
" transform="scale(0.015625)"/>
      <path id="DejaVuSans-6e" d="M 3513 2113 
L 3513 0 
L 2938 0 
L 2938 2094 
Q 2938 2591 2744 2837 
Q 2550 3084 2163 3084 
Q 1697 3084 1428 2787 
Q 1159 2491 1159 1978 
L 1159 0 
L 581 0 
L 581 3500 
L 1159 3500 
L 1159 2956 
Q 1366 3272 1645 3428 
Q 1925 3584 2291 3584 
Q 2894 3584 3203 3211 
Q 3513 2838 3513 2113 
z
" transform="scale(0.015625)"/>
      <path id="DejaVuSans-6f" d="M 1959 3097 
Q 1497 3097 1228 2736 
Q 959 2375 959 1747 
Q 959 1119 1226 758 
Q 1494 397 1959 397 
Q 2419 397 2687 759 
Q 2956 1122 2956 1747 
Q 2956 2369 2687 2733 
Q 2419 3097 1959 3097 
z
M 1959 3584 
Q 2709 3584 3137 3096 
Q 3566 2609 3566 1747 
Q 3566 888 3137 398 
Q 2709 -91 1959 -91 
Q 1206 -91 779 398 
Q 353 888 353 1747 
Q 353 2609 779 3096 
Q 1206 3584 1959 3584 
z
" transform="scale(0.015625)"/>
      <path id="DejaVuSans-6c" d="M 603 4863 
L 1178 4863 
L 1178 0 
L 603 0 
L 603 4863 
z
" transform="scale(0.015625)"/>
      <path id="DejaVuSans-66" d="M 2375 4863 
L 2375 4384 
L 1825 4384 
Q 1516 4384 1395 4259 
Q 1275 4134 1275 3809 
L 1275 3500 
L 2222 3500 
L 2222 3053 
L 1275 3053 
L 1275 0 
L 697 0 
L 697 3053 
L 147 3053 
L 147 3500 
L 697 3500 
L 697 3744 
Q 697 4328 969 4595 
Q 1241 4863 1831 4863 
L 2375 4863 
z
" transform="scale(0.015625)"/>
      <path id="DejaVuSans-69" d="M 603 3500 
L 1178 3500 
L 1178 0 
L 603 0 
L 603 3500 
z
M 603 4863 
L 1178 4863 
L 1178 4134 
L 603 4134 
L 603 4863 
z
" transform="scale(0.015625)"/>
      <path id="DejaVuSans-73" d="M 2834 3397 
L 2834 2853 
Q 2591 2978 2328 3040 
Q 2066 3103 1784 3103 
Q 1356 3103 1142 2972 
Q 928 2841 928 2578 
Q 928 2378 1081 2264 
Q 1234 2150 1697 2047 
L 1894 2003 
Q 2506 1872 2764 1633 
Q 3022 1394 3022 966 
Q 3022 478 2636 193 
Q 2250 -91 1575 -91 
Q 1294 -91 989 -36 
Q 684 19 347 128 
L 347 722 
Q 666 556 975 473 
Q 1284 391 1588 391 
Q 1994 391 2212 530 
Q 2431 669 2431 922 
Q 2431 1156 2273 1281 
Q 2116 1406 1581 1522 
L 1381 1569 
Q 847 1681 609 1914 
Q 372 2147 372 2553 
Q 372 3047 722 3315 
Q 1072 3584 1716 3584 
Q 2034 3584 2315 3537 
Q 2597 3491 2834 3397 
z
" transform="scale(0.015625)"/>
      <path id="DejaVuSans-79" d="M 2059 -325 
Q 1816 -950 1584 -1140 
Q 1353 -1331 966 -1331 
L 506 -1331 
L 506 -850 
L 844 -850 
Q 1081 -850 1212 -737 
Q 1344 -625 1503 -206 
L 1606 56 
L 191 3500 
L 800 3500 
L 1894 763 
L 2988 3500 
L 3597 3500 
L 2059 -325 
z
" transform="scale(0.015625)"/>
      <path id="DejaVuSans-62" d="M 3116 1747 
Q 3116 2381 2855 2742 
Q 2594 3103 2138 3103 
Q 1681 3103 1420 2742 
Q 1159 2381 1159 1747 
Q 1159 1113 1420 752 
Q 1681 391 2138 391 
Q 2594 391 2855 752 
Q 3116 1113 3116 1747 
z
M 1159 2969 
Q 1341 3281 1617 3432 
Q 1894 3584 2278 3584 
Q 2916 3584 3314 3078 
Q 3713 2572 3713 1747 
Q 3713 922 3314 415 
Q 2916 -91 2278 -91 
Q 1894 -91 1617 61 
Q 1341 213 1159 525 
L 1159 0 
L 581 0 
L 581 4863 
L 1159 4863 
L 1159 2969 
z
" transform="scale(0.015625)"/>
     </defs>
     <use xlink:href="#DejaVuSans-53"/>
     <use xlink:href="#DejaVuSans-63" x="63.476562"/>
     <use xlink:href="#DejaVuSans-61" x="118.457031"/>
     <use xlink:href="#DejaVuSans-74" x="179.736328"/>
     <use xlink:href="#DejaVuSans-74" x="218.945312"/>
     <use xlink:href="#DejaVuSans-65" x="258.154297"/>
     <use xlink:href="#DejaVuSans-72" x="319.677734"/>
     <use xlink:href="#DejaVuSans-65" x="358.541016"/>
     <use xlink:href="#DejaVuSans-64" x="420.064453"/>
     <use xlink:href="#DejaVuSans-20" x="483.541016"/>
     <use xlink:href="#DejaVuSans-61" x="515.328125"/>
     <use xlink:href="#DejaVuSans-6e" x="576.607422"/>
     <use xlink:href="#DejaVuSans-64" x="639.986328"/>
     <use xlink:href="#DejaVuSans-20" x="703.462891"/>
     <use xlink:href="#DejaVuSans-74" x="735.25"/>
     <use xlink:href="#DejaVuSans-6f" x="774.458984"/>
     <use xlink:href="#DejaVuSans-74" x="835.640625"/>
     <use xlink:href="#DejaVuSans-61" x="874.849609"/>
     <use xlink:href="#DejaVuSans-6c" x="936.128906"/>
     <use xlink:href="#DejaVuSans-20" x="963.912109"/>
     <use xlink:href="#DejaVuSans-66" x="995.699219"/>
     <use xlink:href="#DejaVuSans-69" x="1030.904297"/>
     <use xlink:href="#DejaVuSans-65" x="1058.6875"/>
     <use xlink:href="#DejaVuSans-6c" x="1120.210938"/>
     <use xlink:href="#DejaVuSans-64" x="1147.994141"/>
     <use xlink:href="#DejaVuSans-73" x="1211.470703"/>
     <use xlink:href="#DejaVuSans-20" x="1263.570312"/>
     <use xlink:href="#DejaVuSans-66" x="1295.357422"/>
     <use xlink:href="#DejaVuSans-6f" x="1330.5625"/>
     <use xlink:href="#DejaVuSans-72" x="1391.744141"/>
     <use xlink:href="#DejaVuSans-20" x="1432.857422"/>
     <use xlink:href="#DejaVuSans-6c" x="1464.644531"/>
     <use xlink:href="#DejaVuSans-6f" x="1492.427734"/>
     <use xlink:href="#DejaVuSans-73" x="1553.609375"/>
     <use xlink:href="#DejaVuSans-73" x="1605.708984"/>
     <use xlink:href="#DejaVuSans-79" x="1657.808594"/>
     <use xlink:href="#DejaVuSans-20" x="1716.988281"/>
     <use xlink:href="#DejaVuSans-64" x="1748.775391"/>
     <use xlink:href="#DejaVuSans-69" x="1812.251953"/>
     <use xlink:href="#DejaVuSans-65" x="1840.035156"/>
     <use xlink:href="#DejaVuSans-6c" x="1901.558594"/>
     <use xlink:href="#DejaVuSans-65" x="1929.341797"/>
     <use xlink:href="#DejaVuSans-63" x="1990.865234"/>
     <use xlink:href="#DejaVuSans-74" x="2045.845703"/>
     <use xlink:href="#DejaVuSans-72" x="2085.054688"/>
     <use xlink:href="#DejaVuSans-69" x="2126.167969"/>
     <use xlink:href="#DejaVuSans-63" x="2153.951172"/>
     <use xlink:href="#DejaVuSans-20" x="2208.931641"/>
     <use xlink:href="#DejaVuSans-73" x="2240.71875"/>
     <use xlink:href="#DejaVuSans-6c" x="2292.818359"/>
     <use xlink:href="#DejaVuSans-61" x="2320.601562"/>
     <use xlink:href="#DejaVuSans-62" x="2381.880859"/>
    </g>
    <!-- $\varepsilon_r = 2.7$ and $\sigma = 0.005$ S/m -->
    <g transform="translate(304.376126 37.584) scale(0.12 -0.12)">
     <defs>
      <path id="DejaVuSans-Oblique-3b5" d="M 1263 1888 
Q 925 1963 778 2166 
Q 669 2309 669 2503 
Q 669 3034 1175 3344 
Q 1575 3588 2188 3588 
Q 2425 3588 2684 3550 
Q 2944 3513 3234 3438 
L 3134 2916 
Q 2847 3006 2606 3047 
Q 2359 3088 2138 3088 
Q 1766 3088 1522 2944 
Q 1228 2772 1228 2522 
Q 1228 2356 1381 2241 
Q 1563 2103 1925 2103 
L 2409 2103 
L 2319 1628 
L 1856 1628 
Q 1425 1628 1172 1469 
Q 828 1253 828 916 
Q 828 703 1013 563 
Q 1244 388 1716 388 
Q 2006 388 2284 444 
Q 2563 503 2806 619 
L 2700 84 
Q 2403 -3 2131 -47 
Q 1859 -91 1609 -91 
Q 866 -91 516 194 
Q 250 413 250 781 
Q 250 1278 600 1584 
Q 859 1813 1263 1888 
z
" transform="scale(0.015625)"/>
      <path id="DejaVuSans-Oblique-72" d="M 2853 2969 
Q 2766 3016 2653 3041 
Q 2541 3066 2413 3066 
Q 1953 3066 1609 2717 
Q 1266 2369 1153 1784 
L 800 0 
L 225 0 
L 909 3500 
L 1484 3500 
L 1375 2956 
Q 1603 3259 1920 3421 
Q 2238 3584 2597 3584 
Q 2691 3584 2781 3573 
Q 2872 3563 2963 3538 
L 2853 2969 
z
" transform="scale(0.015625)"/>
      <path id="DejaVuSans-3d" d="M 678 2906 
L 4684 2906 
L 4684 2381 
L 678 2381 
L 678 2906 
z
M 678 1631 
L 4684 1631 
L 4684 1100 
L 678 1100 
L 678 1631 
z
" transform="scale(0.015625)"/>
      <path id="DejaVuSans-37" d="M 525 4666 
L 3525 4666 
L 3525 4397 
L 1831 0 
L 1172 0 
L 2766 4134 
L 525 4134 
L 525 4666 
z
" transform="scale(0.015625)"/>
      <path id="DejaVuSans-Oblique-3c3" d="M 2219 3044 
Q 1744 3044 1422 2700 
Q 1081 2341 969 1747 
Q 844 1119 1044 756 
Q 1241 397 1706 397 
Q 2166 397 2503 759 
Q 2844 1122 2966 1747 
Q 3075 2319 2881 2700 
Q 2700 3044 2219 3044 
z
M 2309 3503 
L 4219 3500 
L 4106 2925 
L 3463 2925 
Q 3706 2438 3575 1747 
Q 3406 888 2884 400 
Q 2359 -91 1609 -91 
Q 856 -91 525 400 
Q 194 888 363 1747 
Q 528 2609 1050 3097 
Q 1484 3503 2309 3503 
z
" transform="scale(0.015625)"/>
     </defs>
     <use xlink:href="#DejaVuSans-Oblique-3b5" transform="translate(0 0.015625)"/>
     <use xlink:href="#DejaVuSans-Oblique-72" transform="translate(54.052734 -16.390625) scale(0.7)"/>
     <use xlink:href="#DejaVuSans-3d" transform="translate(105.048828 0.015625)"/>
     <use xlink:href="#DejaVuSans-32" transform="translate(208.320312 0.015625)"/>
     <use xlink:href="#DejaVuSans-2e" transform="translate(271.943359 0.015625)"/>
     <use xlink:href="#DejaVuSans-37" transform="translate(295.980469 0.015625)"/>
     <use xlink:href="#DejaVuSans-20" transform="translate(359.603516 0.015625)"/>
     <use xlink:href="#DejaVuSans-61" transform="translate(391.390625 0.015625)"/>
     <use xlink:href="#DejaVuSans-6e" transform="translate(452.669922 0.015625)"/>
     <use xlink:href="#DejaVuSans-64" transform="translate(516.048828 0.015625)"/>
     <use xlink:href="#DejaVuSans-20" transform="translate(579.525391 0.015625)"/>
     <use xlink:href="#DejaVuSans-Oblique-3c3" transform="translate(611.3125 0.015625)"/>
     <use xlink:href="#DejaVuSans-3d" transform="translate(694.173828 0.015625)"/>
     <use xlink:href="#DejaVuSans-30" transform="translate(797.445312 0.015625)"/>
     <use xlink:href="#DejaVuSans-2e" transform="translate(861.068359 0.015625)"/>
     <use xlink:href="#DejaVuSans-30" transform="translate(892.855469 0.015625)"/>
     <use xlink:href="#DejaVuSans-30" transform="translate(956.478516 0.015625)"/>
     <use xlink:href="#DejaVuSans-35" transform="translate(1020.101562 0.015625)"/>
     <use xlink:href="#DejaVuSans-20" transform="translate(1083.724609 0.015625)"/>
     <use xlink:href="#DejaVuSans-53" transform="translate(1115.511719 0.015625)"/>
     <use xlink:href="#DejaVuSans-2f" transform="translate(1178.988281 0.015625)"/>
     <use xlink:href="#DejaVuSans-6d" transform="translate(1212.679688 0.015625)"/>
    </g>
   </g>
   <g id="legend_1">
    <g id="patch_7">
     <path d="M 714.534252 328.870125 
L 850.834252 328.870125 
Q 852.834252 328.870125 852.834252 326.870125 
L 852.834252 249.313875 
Q 852.834252 247.313875 850.834252 247.313875 
L 714.534252 247.313875 
Q 712.534252 247.313875 712.534252 249.313875 
L 712.534252 326.870125 
Q 712.534252 328.870125 714.534252 328.870125 
z
" style="fill: #ffffff; opacity: 0.8; stroke: #cccccc; stroke-linejoin: miter"/>
    </g>
    <g id="line2d_32">
     <path d="M 716.534252 255.613875 
L 726.534252 255.613875 
L 736.534252 255.613875 
" style="fill: none; stroke: #ff0000; stroke-linecap: square"/>
    </g>
    <g id="text_18">
     <!-- $|E_z^s|$ (Scattered Field) -->
     <g transform="translate(744.534252 259.113875) scale(0.1 -0.1)">
      <defs>
       <path id="DejaVuSans-7c" d="M 1344 4891 
L 1344 -1509 
L 813 -1509 
L 813 4891 
L 1344 4891 
z
" transform="scale(0.015625)"/>
       <path id="DejaVuSans-Oblique-73" d="M 3200 3397 
L 3091 2853 
Q 2863 2978 2609 3040 
Q 2356 3103 2088 3103 
Q 1634 3103 1373 2948 
Q 1113 2794 1113 2528 
Q 1113 2219 1719 2053 
Q 1766 2041 1788 2034 
L 1972 1978 
Q 2547 1819 2739 1644 
Q 2931 1469 2931 1166 
Q 2931 609 2489 259 
Q 2047 -91 1331 -91 
Q 1053 -91 747 -37 
Q 441 16 72 128 
L 184 722 
Q 500 559 806 475 
Q 1113 391 1394 391 
Q 1816 391 2080 572 
Q 2344 753 2344 1031 
Q 2344 1331 1650 1516 
L 1591 1531 
L 1394 1581 
Q 956 1697 753 1886 
Q 550 2075 550 2369 
Q 550 2928 970 3256 
Q 1391 3584 2113 3584 
Q 2397 3584 2667 3537 
Q 2938 3491 3200 3397 
z
" transform="scale(0.015625)"/>
       <path id="DejaVuSans-46" d="M 628 4666 
L 3309 4666 
L 3309 4134 
L 1259 4134 
L 1259 2759 
L 3109 2759 
L 3109 2228 
L 1259 2228 
L 1259 0 
L 628 0 
L 628 4666 
z
" transform="scale(0.015625)"/>
      </defs>
      <use xlink:href="#DejaVuSans-7c" transform="translate(0 0.51875)"/>
      <use xlink:href="#DejaVuSans-Oblique-45" transform="translate(33.691406 0.51875)"/>
      <use xlink:href="#DejaVuSans-Oblique-73" transform="translate(103.891771 38.8) scale(0.7)"/>
      <use xlink:href="#DejaVuSans-Oblique-7a" transform="translate(96.875 -26.825) scale(0.7)"/>
      <use xlink:href="#DejaVuSans-7c" transform="translate(143.095872 0.51875)"/>
      <use xlink:href="#DejaVuSans-20" transform="translate(176.787279 0.51875)"/>
      <use xlink:href="#DejaVuSans-28" transform="translate(208.574388 0.51875)"/>
      <use xlink:href="#DejaVuSans-53" transform="translate(247.58806 0.51875)"/>
      <use xlink:href="#DejaVuSans-63" transform="translate(311.064622 0.51875)"/>
      <use xlink:href="#DejaVuSans-61" transform="translate(366.045091 0.51875)"/>
      <use xlink:href="#DejaVuSans-74" transform="translate(427.324388 0.51875)"/>
      <use xlink:href="#DejaVuSans-74" transform="translate(466.533372 0.51875)"/>
      <use xlink:href="#DejaVuSans-65" transform="translate(505.742357 0.51875)"/>
      <use xlink:href="#DejaVuSans-72" transform="translate(567.265794 0.51875)"/>
      <use xlink:href="#DejaVuSans-65" transform="translate(608.379076 0.51875)"/>
      <use xlink:href="#DejaVuSans-64" transform="translate(669.902513 0.51875)"/>
      <use xlink:href="#DejaVuSans-20" transform="translate(733.379076 0.51875)"/>
      <use xlink:href="#DejaVuSans-46" transform="translate(765.166185 0.51875)"/>
      <use xlink:href="#DejaVuSans-69" transform="translate(822.685716 0.51875)"/>
      <use xlink:href="#DejaVuSans-65" transform="translate(850.468919 0.51875)"/>
      <use xlink:href="#DejaVuSans-6c" transform="translate(911.992357 0.51875)"/>
      <use xlink:href="#DejaVuSans-64" transform="translate(939.77556 0.51875)"/>
      <use xlink:href="#DejaVuSans-29" transform="translate(1003.252122 0.51875)"/>
     </g>
    </g>
    <g id="line2d_33">
     <path d="M 716.534252 272.613875 
L 726.534252 272.613875 
L 736.534252 272.613875 
" style="fill: none; stroke-dasharray: 3.7,1.6; stroke-dashoffset: 0; stroke: #008000"/>
    </g>
    <g id="text_19">
     <!-- $|E_z^i|$ (Incident Field) -->
     <g transform="translate(744.534252 276.113875) scale(0.1 -0.1)">
      <defs>
       <path id="DejaVuSans-Oblique-69" d="M 1172 4863 
L 1747 4863 
L 1606 4134 
L 1031 4134 
L 1172 4863 
z
M 909 3500 
L 1484 3500 
L 800 0 
L 225 0 
L 909 3500 
z
" transform="scale(0.015625)"/>
       <path id="DejaVuSans-49" d="M 628 4666 
L 1259 4666 
L 1259 0 
L 628 0 
L 628 4666 
z
" transform="scale(0.015625)"/>
      </defs>
      <use xlink:href="#DejaVuSans-7c" transform="translate(0 0.529687)"/>
      <use xlink:href="#DejaVuSans-Oblique-45" transform="translate(33.691406 0.529687)"/>
      <use xlink:href="#DejaVuSans-Oblique-69" transform="translate(103.891771 38.810938) scale(0.7)"/>
      <use xlink:href="#DejaVuSans-Oblique-7a" transform="translate(96.875 -26.814063) scale(0.7)"/>
      <use xlink:href="#DejaVuSans-7c" transform="translate(136.352539 0.529687)"/>
      <use xlink:href="#DejaVuSans-20" transform="translate(170.043945 0.529687)"/>
      <use xlink:href="#DejaVuSans-28" transform="translate(201.831055 0.529687)"/>
      <use xlink:href="#DejaVuSans-49" transform="translate(240.844727 0.529687)"/>
      <use xlink:href="#DejaVuSans-6e" transform="translate(270.336914 0.529687)"/>
      <use xlink:href="#DejaVuSans-63" transform="translate(333.71582 0.529687)"/>
      <use xlink:href="#DejaVuSans-69" transform="translate(388.696289 0.529687)"/>
      <use xlink:href="#DejaVuSans-64" transform="translate(416.479492 0.529687)"/>
      <use xlink:href="#DejaVuSans-65" transform="translate(479.956055 0.529687)"/>
      <use xlink:href="#DejaVuSans-6e" transform="translate(541.479492 0.529687)"/>
      <use xlink:href="#DejaVuSans-74" transform="translate(604.858398 0.529687)"/>
      <use xlink:href="#DejaVuSans-20" transform="translate(644.067383 0.529687)"/>
      <use xlink:href="#DejaVuSans-46" transform="translate(675.854492 0.529687)"/>
      <use xlink:href="#DejaVuSans-69" transform="translate(733.374023 0.529687)"/>
      <use xlink:href="#DejaVuSans-65" transform="translate(761.157227 0.529687)"/>
      <use xlink:href="#DejaVuSans-6c" transform="translate(822.680664 0.529687)"/>
      <use xlink:href="#DejaVuSans-64" transform="translate(850.463867 0.529687)"/>
      <use xlink:href="#DejaVuSans-29" transform="translate(913.94043 0.529687)"/>
     </g>
    </g>
    <g id="line2d_34">
     <path d="M 716.534252 289.213875 
L 726.534252 289.213875 
L 736.534252 289.213875 
" style="fill: none; stroke: #0000ff; stroke-linecap: square"/>
    </g>
    <g id="text_20">
     <!-- $|E_z^t|$ (Total Field) -->
     <g transform="translate(744.534252 292.713875) scale(0.1 -0.1)">
      <defs>
       <path id="DejaVuSans-Oblique-74" d="M 2706 3500 
L 2619 3053 
L 1472 3053 
L 1100 1153 
Q 1081 1047 1072 975 
Q 1063 903 1063 863 
Q 1063 663 1183 572 
Q 1303 481 1569 481 
L 2150 481 
L 2053 0 
L 1503 0 
Q 991 0 739 200 
Q 488 400 488 806 
Q 488 878 497 964 
Q 506 1050 525 1153 
L 897 3053 
L 409 3053 
L 500 3500 
L 978 3500 
L 1172 4494 
L 1747 4494 
L 1556 3500 
L 2706 3500 
z
" transform="scale(0.015625)"/>
       <path id="DejaVuSans-54" d="M -19 4666 
L 3928 4666 
L 3928 4134 
L 2272 4134 
L 2272 0 
L 1638 0 
L 1638 4134 
L -19 4134 
L -19 4666 
z
" transform="scale(0.015625)"/>
      </defs>
      <use xlink:href="#DejaVuSans-7c" transform="translate(0 0.565625)"/>
      <use xlink:href="#DejaVuSans-Oblique-45" transform="translate(33.691406 0.565625)"/>
      <use xlink:href="#DejaVuSans-Oblique-74" transform="translate(103.891771 38.846875) scale(0.7)"/>
      <use xlink:href="#DejaVuSans-Oblique-7a" transform="translate(96.875 -26.778125) scale(0.7)"/>
      <use xlink:href="#DejaVuSans-7c" transform="translate(136.352539 0.565625)"/>
      <use xlink:href="#DejaVuSans-20" transform="translate(170.043945 0.565625)"/>
      <use xlink:href="#DejaVuSans-28" transform="translate(201.831055 0.565625)"/>
      <use xlink:href="#DejaVuSans-54" transform="translate(240.844727 0.565625)"/>
      <use xlink:href="#DejaVuSans-6f" transform="translate(301.928711 0.565625)"/>
      <use xlink:href="#DejaVuSans-74" transform="translate(363.110352 0.565625)"/>
      <use xlink:href="#DejaVuSans-61" transform="translate(402.319336 0.565625)"/>
      <use xlink:href="#DejaVuSans-6c" transform="translate(463.598633 0.565625)"/>
      <use xlink:href="#DejaVuSans-20" transform="translate(491.381836 0.565625)"/>
      <use xlink:href="#DejaVuSans-46" transform="translate(523.168945 0.565625)"/>
      <use xlink:href="#DejaVuSans-69" transform="translate(580.688477 0.565625)"/>
      <use xlink:href="#DejaVuSans-65" transform="translate(608.47168 0.565625)"/>
      <use xlink:href="#DejaVuSans-6c" transform="translate(669.995117 0.565625)"/>
      <use xlink:href="#DejaVuSans-64" transform="translate(697.77832 0.565625)"/>
      <use xlink:href="#DejaVuSans-29" transform="translate(761.254883 0.565625)"/>
     </g>
    </g>
    <g id="patch_8">
     <path d="M 716.534252 308.112312 
L 736.534252 308.112312 
L 736.534252 301.112312 
L 716.534252 301.112312 
z
" style="fill: #0000ff; fill-opacity: 0.2; stroke: #0000ff; stroke-opacity: 0.2; stroke-linejoin: miter"/>
    </g>
    <g id="text_21">
     <!-- Lossy Dielectric Slab -->
     <g transform="translate(744.534252 308.112312) scale(0.1 -0.1)">
      <defs>
       <path id="DejaVuSans-4c" d="M 628 4666 
L 1259 4666 
L 1259 531 
L 3531 531 
L 3531 0 
L 628 0 
L 628 4666 
z
" transform="scale(0.015625)"/>
       <path id="DejaVuSans-44" d="M 1259 4147 
L 1259 519 
L 2022 519 
Q 2988 519 3436 956 
Q 3884 1394 3884 2338 
Q 3884 3275 3436 3711 
Q 2988 4147 2022 4147 
L 1259 4147 
z
M 628 4666 
L 1925 4666 
Q 3281 4666 3915 4102 
Q 4550 3538 4550 2338 
Q 4550 1131 3912 565 
Q 3275 0 1925 0 
L 628 0 
L 628 4666 
z
" transform="scale(0.015625)"/>
      </defs>
      <use xlink:href="#DejaVuSans-4c"/>
      <use xlink:href="#DejaVuSans-6f" x="53.962891"/>
      <use xlink:href="#DejaVuSans-73" x="115.144531"/>
      <use xlink:href="#DejaVuSans-73" x="167.244141"/>
      <use xlink:href="#DejaVuSans-79" x="219.34375"/>
      <use xlink:href="#DejaVuSans-20" x="278.523438"/>
      <use xlink:href="#DejaVuSans-44" x="310.310547"/>
      <use xlink:href="#DejaVuSans-69" x="387.3125"/>
      <use xlink:href="#DejaVuSans-65" x="415.095703"/>
      <use xlink:href="#DejaVuSans-6c" x="476.619141"/>
      <use xlink:href="#DejaVuSans-65" x="504.402344"/>
      <use xlink:href="#DejaVuSans-63" x="565.925781"/>
      <use xlink:href="#DejaVuSans-74" x="620.90625"/>
      <use xlink:href="#DejaVuSans-72" x="660.115234"/>
      <use xlink:href="#DejaVuSans-69" x="701.228516"/>
      <use xlink:href="#DejaVuSans-63" x="729.011719"/>
      <use xlink:href="#DejaVuSans-20" x="783.992188"/>
      <use xlink:href="#DejaVuSans-53" x="815.779297"/>
      <use xlink:href="#DejaVuSans-6c" x="879.255859"/>
      <use xlink:href="#DejaVuSans-61" x="907.039062"/>
      <use xlink:href="#DejaVuSans-62" x="968.318359"/>
     </g>
    </g>
    <g id="patch_9">
     <path d="M 716.534252 322.790437 
L 736.534252 322.790437 
L 736.534252 315.790437 
L 716.534252 315.790437 
z
" style="fill: #808080; fill-opacity: 0.2; stroke: #808080; stroke-opacity: 0.2; stroke-linejoin: miter"/>
    </g>
    <g id="text_22">
     <!-- PML -->
     <g transform="translate(744.534252 322.790437) scale(0.1 -0.1)">
      <defs>
       <path id="DejaVuSans-50" d="M 1259 4147 
L 1259 2394 
L 2053 2394 
Q 2494 2394 2734 2622 
Q 2975 2850 2975 3272 
Q 2975 3691 2734 3919 
Q 2494 4147 2053 4147 
L 1259 4147 
z
M 628 4666 
L 2053 4666 
Q 2838 4666 3239 4311 
Q 3641 3956 3641 3272 
Q 3641 2581 3239 2228 
Q 2838 1875 2053 1875 
L 1259 1875 
L 1259 0 
L 628 0 
L 628 4666 
z
" transform="scale(0.015625)"/>
       <path id="DejaVuSans-4d" d="M 628 4666 
L 1569 4666 
L 2759 1491 
L 3956 4666 
L 4897 4666 
L 4897 0 
L 4281 0 
L 4281 4097 
L 3078 897 
L 2444 897 
L 1241 4097 
L 1241 0 
L 628 0 
L 628 4666 
z
" transform="scale(0.015625)"/>
      </defs>
      <use xlink:href="#DejaVuSans-50"/>
      <use xlink:href="#DejaVuSans-4d" x="60.302734"/>
      <use xlink:href="#DejaVuSans-4c" x="146.582031"/>
     </g>
    </g>
   </g>
  </g>
 </g>
 <defs>
  <clipPath id="p97f124cf1e">
   <rect x="58.538" y="43.584" width="648.996252" height="489.016"/>
  </clipPath>
 </defs>
</svg>
