<?xml version="1.0" encoding="utf-8" standalone="no"?>
<!DOCTYPE svg PUBLIC "-//W3C//DTD SVG 1.1//EN"
  "http://www.w3.org/Graphics/SVG/1.1/DTD/svg11.dtd">
<svg xmlns:xlink="http://www.w3.org/1999/xlink" width="864pt" height="576pt" viewBox="0 0 864 576" xmlns="http://www.w3.org/2000/svg" version="1.1">
 <metadata>
  <rdf:RDF xmlns:dc="http://purl.org/dc/elements/1.1/" xmlns:cc="http://creativecommons.org/ns#" xmlns:rdf="http://www.w3.org/1999/02/22-rdf-syntax-ns#">
   <cc:Work>
    <dc:type rdf:resource="http://purl.org/dc/dcmitype/StillImage"/>
    <dc:date>2025-01-26T10:44:20.064214</dc:date>
    <dc:format>image/svg+xml</dc:format>
    <dc:creator>
     <cc:Agent>
      <dc:title>Matplotlib v3.8.3, https://matplotlib.org/</dc:title>
     </cc:Agent>
    </dc:creator>
   </cc:Work>
  </rdf:RDF>
 </metadata>
 <defs>
  <style type="text/css">*{stroke-linejoin: round; stroke-linecap: butt}</style>
 </defs>
 <g id="figure_1">
  <g id="patch_1">
   <path d="M 0 576 
L 864 576 
L 864 0 
L 0 0 
z
" style="fill: #ffffff"/>
  </g>
  <g id="axes_1">
   <g id="patch_2">
    <path d="M 58.538 532.6 
L 707.534252 532.6 
L 707.534252 43.584 
L 58.538 43.584 
z
" style="fill: #ffffff"/>
   </g>
   <g id="PolyCollection_1">
    <defs>
     <path id="mbba4191e8b" d="M 364.598733 -510.188 
L 364.598733 -65.628 
L 368.286211 -65.628 
L 371.97369 -65.628 
L 375.661169 -65.628 
L 379.348648 -65.628 
L 383.036126 -65.628 
L 386.723605 -65.628 
L 390.411084 -65.628 
L 394.098562 -65.628 
L 397.786041 -65.628 
L 401.47352 -65.628 
L 401.47352 -510.188 
L 401.47352 -510.188 
L 397.786041 -510.188 
L 394.098562 -510.188 
L 390.411084 -510.188 
L 386.723605 -510.188 
L 383.036126 -510.188 
L 379.348648 -510.188 
L 375.661169 -510.188 
L 371.97369 -510.188 
L 368.286211 -510.188 
L 364.598733 -510.188 
z
" style="stroke: #0000ff; stroke-opacity: 0.2"/>
    </defs>
    <g clip-path="url(#p196228a937)">
     <use xlink:href="#mbba4191e8b" x="0" y="576" style="fill: #0000ff; fill-opacity: 0.2; stroke: #0000ff; stroke-opacity: 0.2"/>
    </g>
   </g>
   <g id="PolyCollection_2">
    <defs>
     <path id="m1c26beb4db" d="M 88.03783 -510.188 
L 88.03783 -65.628 
L 91.725308 -65.628 
L 95.412787 -65.628 
L 99.100266 -65.628 
L 102.787744 -65.628 
L 106.475223 -65.628 
L 110.162702 -65.628 
L 113.850181 -65.628 
L 117.537659 -65.628 
L 121.225138 -65.628 
L 124.912617 -65.628 
L 128.600095 -65.628 
L 132.287574 -65.628 
L 135.975053 -65.628 
L 139.662532 -65.628 
L 143.35001 -65.628 
L 147.037489 -65.628 
L 150.724968 -65.628 
L 154.412446 -65.628 
L 158.099925 -65.628 
L 161.787404 -65.628 
L 165.474883 -65.628 
L 169.162361 -65.628 
L 172.84984 -65.628 
L 176.537319 -65.628 
L 180.224797 -65.628 
L 183.912276 -65.628 
L 187.599755 -65.628 
L 191.287233 -65.628 
L 194.974712 -65.628 
L 198.662191 -65.628 
L 202.34967 -65.628 
L 206.037148 -65.628 
L 209.724627 -65.628 
L 213.412106 -65.628 
L 217.099584 -65.628 
L 220.787063 -65.628 
L 224.474542 -65.628 
L 228.162021 -65.628 
L 231.849499 -65.628 
L 235.536978 -65.628 
L 235.536978 -510.188 
L 235.536978 -510.188 
L 231.849499 -510.188 
L 228.162021 -510.188 
L 224.474542 -510.188 
L 220.787063 -510.188 
L 217.099584 -510.188 
L 213.412106 -510.188 
L 209.724627 -510.188 
L 206.037148 -510.188 
L 202.34967 -510.188 
L 198.662191 -510.188 
L 194.974712 -510.188 
L 191.287233 -510.188 
L 187.599755 -510.188 
L 183.912276 -510.188 
L 180.224797 -510.188 
L 176.537319 -510.188 
L 172.84984 -510.188 
L 169.162361 -510.188 
L 165.474883 -510.188 
L 161.787404 -510.188 
L 158.099925 -510.188 
L 154.412446 -510.188 
L 150.724968 -510.188 
L 147.037489 -510.188 
L 143.35001 -510.188 
L 139.662532 -510.188 
L 135.975053 -510.188 
L 132.287574 -510.188 
L 128.600095 -510.188 
L 124.912617 -510.188 
L 121.225138 -510.188 
L 117.537659 -510.188 
L 113.850181 -510.188 
L 110.162702 -510.188 
L 106.475223 -510.188 
L 102.787744 -510.188 
L 99.100266 -510.188 
L 95.412787 -510.188 
L 91.725308 -510.188 
L 88.03783 -510.188 
z
" style="stroke: #808080; stroke-opacity: 0.2"/>
    </defs>
    <g clip-path="url(#p196228a937)">
     <use xlink:href="#m1c26beb4db" x="0" y="576" style="fill: #808080; fill-opacity: 0.2; stroke: #808080; stroke-opacity: 0.2"/>
    </g>
   </g>
   <g id="PolyCollection_3">
    <defs>
     <path id="m1211ba23a2" d="M 530.535275 -510.188 
L 530.535275 -65.628 
L 534.222753 -65.628 
L 537.910232 -65.628 
L 541.597711 -65.628 
L 545.285189 -65.628 
L 548.972668 -65.628 
L 552.660147 -65.628 
L 556.347625 -65.628 
L 560.035104 -65.628 
L 563.722583 -65.628 
L 567.410062 -65.628 
L 571.09754 -65.628 
L 574.785019 -65.628 
L 578.472498 -65.628 
L 582.159976 -65.628 
L 585.847455 -65.628 
L 589.534934 -65.628 
L 593.222413 -65.628 
L 596.909891 -65.628 
L 600.59737 -65.628 
L 604.284849 -65.628 
L 607.972327 -65.628 
L 611.659806 -65.628 
L 615.347285 -65.628 
L 619.034763 -65.628 
L 622.722242 -65.628 
L 626.409721 -65.628 
L 630.0972 -65.628 
L 633.784678 -65.628 
L 637.472157 -65.628 
L 641.159636 -65.628 
L 644.847114 -65.628 
L 648.534593 -65.628 
L 652.222072 -65.628 
L 655.909551 -65.628 
L 659.597029 -65.628 
L 663.284508 -65.628 
L 666.971987 -65.628 
L 670.659465 -65.628 
L 674.346944 -65.628 
L 678.034423 -65.628 
L 678.034423 -510.188 
L 678.034423 -510.188 
L 674.346944 -510.188 
L 670.659465 -510.188 
L 666.971987 -510.188 
L 663.284508 -510.188 
L 659.597029 -510.188 
L 655.909551 -510.188 
L 652.222072 -510.188 
L 648.534593 -510.188 
L 644.847114 -510.188 
L 641.159636 -510.188 
L 637.472157 -510.188 
L 633.784678 -510.188 
L 630.0972 -510.188 
L 626.409721 -510.188 
L 622.722242 -510.188 
L 619.034763 -510.188 
L 615.347285 -510.188 
L 611.659806 -510.188 
L 607.972327 -510.188 
L 604.284849 -510.188 
L 600.59737 -510.188 
L 596.909891 -510.188 
L 593.222413 -510.188 
L 589.534934 -510.188 
L 585.847455 -510.188 
L 582.159976 -510.188 
L 578.472498 -510.188 
L 574.785019 -510.188 
L 571.09754 -510.188 
L 567.410062 -510.188 
L 563.722583 -510.188 
L 560.035104 -510.188 
L 556.347625 -510.188 
L 552.660147 -510.188 
L 548.972668 -510.188 
L 545.285189 -510.188 
L 541.597711 -510.188 
L 537.910232 -510.188 
L 534.222753 -510.188 
L 530.535275 -510.188 
z
" style="stroke: #808080; stroke-opacity: 0.2"/>
    </defs>
    <g clip-path="url(#p196228a937)">
     <use xlink:href="#m1211ba23a2" x="0" y="576" style="fill: #808080; fill-opacity: 0.2; stroke: #808080; stroke-opacity: 0.2"/>
    </g>
   </g>
   <g id="matplotlib.axis_1">
    <g id="xtick_1">
     <g id="line2d_1">
      <path d="M 87.833607 532.6 
L 87.833607 43.584 
" clip-path="url(#p196228a937)" style="fill: none; stroke-dasharray: 2.96,1.28; stroke-dashoffset: 0; stroke: #b0b0b0; stroke-opacity: 0.7; stroke-width: 0.8"/>
     </g>
     <g id="line2d_2">
      <defs>
       <path id="m08cc5be651" d="M 0 0 
L 0 3.5 
" style="stroke: #000000; stroke-width: 0.8"/>
      </defs>
      <g>
       <use xlink:href="#m08cc5be651" x="87.833607" y="532.6" style="stroke: #000000; stroke-width: 0.8"/>
      </g>
     </g>
     <g id="text_1">
      <!-- −2.0 -->
      <g transform="translate(75.6922 547.198437) scale(0.1 -0.1)">
       <defs>
        <path id="DejaVuSans-2212" d="M 678 2272 
L 4684 2272 
L 4684 1741 
L 678 1741 
L 678 2272 
z
" transform="scale(0.015625)"/>
        <path id="DejaVuSans-32" d="M 1228 531 
L 3431 531 
L 3431 0 
L 469 0 
L 469 531 
Q 828 903 1448 1529 
Q 2069 2156 2228 2338 
Q 2531 2678 2651 2914 
Q 2772 3150 2772 3378 
Q 2772 3750 2511 3984 
Q 2250 4219 1831 4219 
Q 1534 4219 1204 4116 
Q 875 4013 500 3803 
L 500 4441 
Q 881 4594 1212 4672 
Q 1544 4750 1819 4750 
Q 2544 4750 2975 4387 
Q 3406 4025 3406 3419 
Q 3406 3131 3298 2873 
Q 3191 2616 2906 2266 
Q 2828 2175 2409 1742 
Q 1991 1309 1228 531 
z
" transform="scale(0.015625)"/>
        <path id="DejaVuSans-2e" d="M 684 794 
L 1344 794 
L 1344 0 
L 684 0 
L 684 794 
z
" transform="scale(0.015625)"/>
        <path id="DejaVuSans-30" d="M 2034 4250 
Q 1547 4250 1301 3770 
Q 1056 3291 1056 2328 
Q 1056 1369 1301 889 
Q 1547 409 2034 409 
Q 2525 409 2770 889 
Q 3016 1369 3016 2328 
Q 3016 3291 2770 3770 
Q 2525 4250 2034 4250 
z
M 2034 4750 
Q 2819 4750 3233 4129 
Q 3647 3509 3647 2328 
Q 3647 1150 3233 529 
Q 2819 -91 2034 -91 
Q 1250 -91 836 529 
Q 422 1150 422 2328 
Q 422 3509 836 4129 
Q 1250 4750 2034 4750 
z
" transform="scale(0.015625)"/>
       </defs>
       <use xlink:href="#DejaVuSans-2212"/>
       <use xlink:href="#DejaVuSans-32" x="83.789062"/>
       <use xlink:href="#DejaVuSans-2e" x="147.412109"/>
       <use xlink:href="#DejaVuSans-30" x="179.199219"/>
      </g>
     </g>
    </g>
    <g id="xtick_2">
     <g id="line2d_3">
      <path d="M 161.634236 532.6 
L 161.634236 43.584 
" clip-path="url(#p196228a937)" style="fill: none; stroke-dasharray: 2.96,1.28; stroke-dashoffset: 0; stroke: #b0b0b0; stroke-opacity: 0.7; stroke-width: 0.8"/>
     </g>
     <g id="line2d_4">
      <g>
       <use xlink:href="#m08cc5be651" x="161.634236" y="532.6" style="stroke: #000000; stroke-width: 0.8"/>
      </g>
     </g>
     <g id="text_2">
      <!-- −1.5 -->
      <g transform="translate(149.49283 547.198437) scale(0.1 -0.1)">
       <defs>
        <path id="DejaVuSans-31" d="M 794 531 
L 1825 531 
L 1825 4091 
L 703 3866 
L 703 4441 
L 1819 4666 
L 2450 4666 
L 2450 531 
L 3481 531 
L 3481 0 
L 794 0 
L 794 531 
z
" transform="scale(0.015625)"/>
        <path id="DejaVuSans-35" d="M 691 4666 
L 3169 4666 
L 3169 4134 
L 1269 4134 
L 1269 2991 
Q 1406 3038 1543 3061 
Q 1681 3084 1819 3084 
Q 2600 3084 3056 2656 
Q 3513 2228 3513 1497 
Q 3513 744 3044 326 
Q 2575 -91 1722 -91 
Q 1428 -91 1123 -41 
Q 819 9 494 109 
L 494 744 
Q 775 591 1075 516 
Q 1375 441 1709 441 
Q 2250 441 2565 725 
Q 2881 1009 2881 1497 
Q 2881 1984 2565 2268 
Q 2250 2553 1709 2553 
Q 1456 2553 1204 2497 
Q 953 2441 691 2322 
L 691 4666 
z
" transform="scale(0.015625)"/>
       </defs>
       <use xlink:href="#DejaVuSans-2212"/>
       <use xlink:href="#DejaVuSans-31" x="83.789062"/>
       <use xlink:href="#DejaVuSans-2e" x="147.412109"/>
       <use xlink:href="#DejaVuSans-35" x="179.199219"/>
      </g>
     </g>
    </g>
    <g id="xtick_3">
     <g id="line2d_5">
      <path d="M 235.434866 532.6 
L 235.434866 43.584 
" clip-path="url(#p196228a937)" style="fill: none; stroke-dasharray: 2.96,1.28; stroke-dashoffset: 0; stroke: #b0b0b0; stroke-opacity: 0.7; stroke-width: 0.8"/>
     </g>
     <g id="line2d_6">
      <g>
       <use xlink:href="#m08cc5be651" x="235.434866" y="532.6" style="stroke: #000000; stroke-width: 0.8"/>
      </g>
     </g>
     <g id="text_3">
      <!-- −1.0 -->
      <g transform="translate(223.29346 547.198437) scale(0.1 -0.1)">
       <use xlink:href="#DejaVuSans-2212"/>
       <use xlink:href="#DejaVuSans-31" x="83.789062"/>
       <use xlink:href="#DejaVuSans-2e" x="147.412109"/>
       <use xlink:href="#DejaVuSans-30" x="179.199219"/>
      </g>
     </g>
    </g>
    <g id="xtick_4">
     <g id="line2d_7">
      <path d="M 309.235496 532.6 
L 309.235496 43.584 
" clip-path="url(#p196228a937)" style="fill: none; stroke-dasharray: 2.96,1.28; stroke-dashoffset: 0; stroke: #b0b0b0; stroke-opacity: 0.7; stroke-width: 0.8"/>
     </g>
     <g id="line2d_8">
      <g>
       <use xlink:href="#m08cc5be651" x="309.235496" y="532.6" style="stroke: #000000; stroke-width: 0.8"/>
      </g>
     </g>
     <g id="text_4">
      <!-- −0.5 -->
      <g transform="translate(297.09409 547.198437) scale(0.1 -0.1)">
       <use xlink:href="#DejaVuSans-2212"/>
       <use xlink:href="#DejaVuSans-30" x="83.789062"/>
       <use xlink:href="#DejaVuSans-2e" x="147.412109"/>
       <use xlink:href="#DejaVuSans-35" x="179.199219"/>
      </g>
     </g>
    </g>
    <g id="xtick_5">
     <g id="line2d_9">
      <path d="M 383.036126 532.6 
L 383.036126 43.584 
" clip-path="url(#p196228a937)" style="fill: none; stroke-dasharray: 2.96,1.28; stroke-dashoffset: 0; stroke: #b0b0b0; stroke-opacity: 0.7; stroke-width: 0.8"/>
     </g>
     <g id="line2d_10">
      <g>
       <use xlink:href="#m08cc5be651" x="383.036126" y="532.6" style="stroke: #000000; stroke-width: 0.8"/>
      </g>
     </g>
     <g id="text_5">
      <!-- 0.0 -->
      <g transform="translate(375.084564 547.198437) scale(0.1 -0.1)">
       <use xlink:href="#DejaVuSans-30"/>
       <use xlink:href="#DejaVuSans-2e" x="63.623047"/>
       <use xlink:href="#DejaVuSans-30" x="95.410156"/>
      </g>
     </g>
    </g>
    <g id="xtick_6">
     <g id="line2d_11">
      <path d="M 456.836756 532.6 
L 456.836756 43.584 
" clip-path="url(#p196228a937)" style="fill: none; stroke-dasharray: 2.96,1.28; stroke-dashoffset: 0; stroke: #b0b0b0; stroke-opacity: 0.7; stroke-width: 0.8"/>
     </g>
     <g id="line2d_12">
      <g>
       <use xlink:href="#m08cc5be651" x="456.836756" y="532.6" style="stroke: #000000; stroke-width: 0.8"/>
      </g>
     </g>
     <g id="text_6">
      <!-- 0.5 -->
      <g transform="translate(448.885194 547.198437) scale(0.1 -0.1)">
       <use xlink:href="#DejaVuSans-30"/>
       <use xlink:href="#DejaVuSans-2e" x="63.623047"/>
       <use xlink:href="#DejaVuSans-35" x="95.410156"/>
      </g>
     </g>
    </g>
    <g id="xtick_7">
     <g id="line2d_13">
      <path d="M 530.637386 532.6 
L 530.637386 43.584 
" clip-path="url(#p196228a937)" style="fill: none; stroke-dasharray: 2.96,1.28; stroke-dashoffset: 0; stroke: #b0b0b0; stroke-opacity: 0.7; stroke-width: 0.8"/>
     </g>
     <g id="line2d_14">
      <g>
       <use xlink:href="#m08cc5be651" x="530.637386" y="532.6" style="stroke: #000000; stroke-width: 0.8"/>
      </g>
     </g>
     <g id="text_7">
      <!-- 1.0 -->
      <g transform="translate(522.685824 547.198437) scale(0.1 -0.1)">
       <use xlink:href="#DejaVuSans-31"/>
       <use xlink:href="#DejaVuSans-2e" x="63.623047"/>
       <use xlink:href="#DejaVuSans-30" x="95.410156"/>
      </g>
     </g>
    </g>
    <g id="xtick_8">
     <g id="line2d_15">
      <path d="M 604.438016 532.6 
L 604.438016 43.584 
" clip-path="url(#p196228a937)" style="fill: none; stroke-dasharray: 2.96,1.28; stroke-dashoffset: 0; stroke: #b0b0b0; stroke-opacity: 0.7; stroke-width: 0.8"/>
     </g>
     <g id="line2d_16">
      <g>
       <use xlink:href="#m08cc5be651" x="604.438016" y="532.6" style="stroke: #000000; stroke-width: 0.8"/>
      </g>
     </g>
     <g id="text_8">
      <!-- 1.5 -->
      <g transform="translate(596.486453 547.198437) scale(0.1 -0.1)">
       <use xlink:href="#DejaVuSans-31"/>
       <use xlink:href="#DejaVuSans-2e" x="63.623047"/>
       <use xlink:href="#DejaVuSans-35" x="95.410156"/>
      </g>
     </g>
    </g>
    <g id="xtick_9">
     <g id="line2d_17">
      <path d="M 678.238646 532.6 
L 678.238646 43.584 
" clip-path="url(#p196228a937)" style="fill: none; stroke-dasharray: 2.96,1.28; stroke-dashoffset: 0; stroke: #b0b0b0; stroke-opacity: 0.7; stroke-width: 0.8"/>
     </g>
     <g id="line2d_18">
      <g>
       <use xlink:href="#m08cc5be651" x="678.238646" y="532.6" style="stroke: #000000; stroke-width: 0.8"/>
      </g>
     </g>
     <g id="text_9">
      <!-- 2.0 -->
      <g transform="translate(670.287083 547.198437) scale(0.1 -0.1)">
       <use xlink:href="#DejaVuSans-32"/>
       <use xlink:href="#DejaVuSans-2e" x="63.623047"/>
       <use xlink:href="#DejaVuSans-30" x="95.410156"/>
      </g>
     </g>
    </g>
    <g id="text_10">
     <!-- $x$ (m) -->
     <g transform="translate(369.686126 560.876562) scale(0.1 -0.1)">
      <defs>
       <path id="DejaVuSans-Oblique-78" d="M 3841 3500 
L 2234 1784 
L 3219 0 
L 2559 0 
L 1819 1388 
L 531 0 
L -166 0 
L 1556 1844 
L 641 3500 
L 1300 3500 
L 1972 2234 
L 3144 3500 
L 3841 3500 
z
" transform="scale(0.015625)"/>
       <path id="DejaVuSans-20" transform="scale(0.015625)"/>
       <path id="DejaVuSans-28" d="M 1984 4856 
Q 1566 4138 1362 3434 
Q 1159 2731 1159 2009 
Q 1159 1288 1364 580 
Q 1569 -128 1984 -844 
L 1484 -844 
Q 1016 -109 783 600 
Q 550 1309 550 2009 
Q 550 2706 781 3412 
Q 1013 4119 1484 4856 
L 1984 4856 
z
" transform="scale(0.015625)"/>
       <path id="DejaVuSans-6d" d="M 3328 2828 
Q 3544 3216 3844 3400 
Q 4144 3584 4550 3584 
Q 5097 3584 5394 3201 
Q 5691 2819 5691 2113 
L 5691 0 
L 5113 0 
L 5113 2094 
Q 5113 2597 4934 2840 
Q 4756 3084 4391 3084 
Q 3944 3084 3684 2787 
Q 3425 2491 3425 1978 
L 3425 0 
L 2847 0 
L 2847 2094 
Q 2847 2600 2669 2842 
Q 2491 3084 2119 3084 
Q 1678 3084 1418 2786 
Q 1159 2488 1159 1978 
L 1159 0 
L 581 0 
L 581 3500 
L 1159 3500 
L 1159 2956 
Q 1356 3278 1631 3431 
Q 1906 3584 2284 3584 
Q 2666 3584 2933 3390 
Q 3200 3197 3328 2828 
z
" transform="scale(0.015625)"/>
       <path id="DejaVuSans-29" d="M 513 4856 
L 1013 4856 
Q 1481 4119 1714 3412 
Q 1947 2706 1947 2009 
Q 1947 1309 1714 600 
Q 1481 -109 1013 -844 
L 513 -844 
Q 928 -128 1133 580 
Q 1338 1288 1338 2009 
Q 1338 2731 1133 3434 
Q 928 4138 513 4856 
z
" transform="scale(0.015625)"/>
      </defs>
      <use xlink:href="#DejaVuSans-Oblique-78" transform="translate(0 0.125)"/>
      <use xlink:href="#DejaVuSans-20" transform="translate(59.179688 0.125)"/>
      <use xlink:href="#DejaVuSans-28" transform="translate(90.966797 0.125)"/>
      <use xlink:href="#DejaVuSans-6d" transform="translate(129.980469 0.125)"/>
      <use xlink:href="#DejaVuSans-29" transform="translate(227.392578 0.125)"/>
     </g>
    </g>
   </g>
   <g id="matplotlib.axis_2">
    <g id="ytick_1">
     <g id="line2d_19">
      <path d="M 58.538 490.164727 
L 707.534252 490.164727 
" clip-path="url(#p196228a937)" style="fill: none; stroke-dasharray: 2.96,1.28; stroke-dashoffset: 0; stroke: #b0b0b0; stroke-opacity: 0.7; stroke-width: 0.8"/>
     </g>
     <g id="line2d_20">
      <defs>
       <path id="m9f20cdd1d0" d="M 0 0 
L -3.5 0 
" style="stroke: #000000; stroke-width: 0.8"/>
      </defs>
      <g>
       <use xlink:href="#m9f20cdd1d0" x="58.538" y="490.164727" style="stroke: #000000; stroke-width: 0.8"/>
      </g>
     </g>
     <g id="text_11">
      <!-- −1.0 -->
      <g transform="translate(27.255188 493.963946) scale(0.1 -0.1)">
       <use xlink:href="#DejaVuSans-2212"/>
       <use xlink:href="#DejaVuSans-31" x="83.789062"/>
       <use xlink:href="#DejaVuSans-2e" x="147.412109"/>
       <use xlink:href="#DejaVuSans-30" x="179.199219"/>
      </g>
     </g>
    </g>
    <g id="ytick_2">
     <g id="line2d_21">
      <path d="M 58.538 389.128364 
L 707.534252 389.128364 
" clip-path="url(#p196228a937)" style="fill: none; stroke-dasharray: 2.96,1.28; stroke-dashoffset: 0; stroke: #b0b0b0; stroke-opacity: 0.7; stroke-width: 0.8"/>
     </g>
     <g id="line2d_22">
      <g>
       <use xlink:href="#m9f20cdd1d0" x="58.538" y="389.128364" style="stroke: #000000; stroke-width: 0.8"/>
      </g>
     </g>
     <g id="text_12">
      <!-- −0.5 -->
      <g transform="translate(27.255188 392.927582) scale(0.1 -0.1)">
       <use xlink:href="#DejaVuSans-2212"/>
       <use xlink:href="#DejaVuSans-30" x="83.789062"/>
       <use xlink:href="#DejaVuSans-2e" x="147.412109"/>
       <use xlink:href="#DejaVuSans-35" x="179.199219"/>
      </g>
     </g>
    </g>
    <g id="ytick_3">
     <g id="line2d_23">
      <path d="M 58.538 288.092 
L 707.534252 288.092 
" clip-path="url(#p196228a937)" style="fill: none; stroke-dasharray: 2.96,1.28; stroke-dashoffset: 0; stroke: #b0b0b0; stroke-opacity: 0.7; stroke-width: 0.8"/>
     </g>
     <g id="line2d_24">
      <g>
       <use xlink:href="#m9f20cdd1d0" x="58.538" y="288.092" style="stroke: #000000; stroke-width: 0.8"/>
      </g>
     </g>
     <g id="text_13">
      <!-- 0.0 -->
      <g transform="translate(35.634875 291.891219) scale(0.1 -0.1)">
       <use xlink:href="#DejaVuSans-30"/>
       <use xlink:href="#DejaVuSans-2e" x="63.623047"/>
       <use xlink:href="#DejaVuSans-30" x="95.410156"/>
      </g>
     </g>
    </g>
    <g id="ytick_4">
     <g id="line2d_25">
      <path d="M 58.538 187.055636 
L 707.534252 187.055636 
" clip-path="url(#p196228a937)" style="fill: none; stroke-dasharray: 2.96,1.28; stroke-dashoffset: 0; stroke: #b0b0b0; stroke-opacity: 0.7; stroke-width: 0.8"/>
     </g>
     <g id="line2d_26">
      <g>
       <use xlink:href="#m9f20cdd1d0" x="58.538" y="187.055636" style="stroke: #000000; stroke-width: 0.8"/>
      </g>
     </g>
     <g id="text_14">
      <!-- 0.5 -->
      <g transform="translate(35.634875 190.854855) scale(0.1 -0.1)">
       <use xlink:href="#DejaVuSans-30"/>
       <use xlink:href="#DejaVuSans-2e" x="63.623047"/>
       <use xlink:href="#DejaVuSans-35" x="95.410156"/>
      </g>
     </g>
    </g>
    <g id="ytick_5">
     <g id="line2d_27">
      <path d="M 58.538 86.019273 
L 707.534252 86.019273 
" clip-path="url(#p196228a937)" style="fill: none; stroke-dasharray: 2.96,1.28; stroke-dashoffset: 0; stroke: #b0b0b0; stroke-opacity: 0.7; stroke-width: 0.8"/>
     </g>
     <g id="line2d_28">
      <g>
       <use xlink:href="#m9f20cdd1d0" x="58.538" y="86.019273" style="stroke: #000000; stroke-width: 0.8"/>
      </g>
     </g>
     <g id="text_15">
      <!-- 1.0 -->
      <g transform="translate(35.634875 89.818491) scale(0.1 -0.1)">
       <use xlink:href="#DejaVuSans-31"/>
       <use xlink:href="#DejaVuSans-2e" x="63.623047"/>
       <use xlink:href="#DejaVuSans-30" x="95.410156"/>
      </g>
     </g>
    </g>
    <g id="text_16">
     <!-- $\Re(E_z) (V/m)$ -->
     <g transform="translate(21.1755 315.092) rotate(-90) scale(0.1 -0.1)">
      <defs>
       <path id="DejaVuSans-Oblique-211c" d="M 4006 -91 
Q 3750 481 3750 978 
Q 3750 1416 3681 1700 
Q 3556 2219 3309 2219 
Q 3178 2219 2891 2084 
L 2516 1909 
L 2516 1288 
Q 2516 644 2194 275 
Q 1872 -91 1434 -91 
Q 994 -91 675 275 
Q 353 644 353 1194 
Q 494 1156 638 1119 
Q 638 738 838 469 
Q 1038 197 1263 197 
Q 1488 197 1684 469 
Q 1884 741 1884 1209 
L 1884 3294 
Q 1884 3759 1684 4034 
Q 1488 4306 1200 4306 
Q 947 4306 744 4034 
Q 544 3766 544 3450 
Q 544 3134 744 2866 
Q 944 2594 1203 2594 
L 1372 2306 
Q 900 2306 581 2672 
Q 259 3041 259 3528 
Q 259 4019 581 4384 
Q 900 4750 1372 4750 
Q 1878 4750 2194 4384 
Q 2288 4275 2338 4175 
L 2997 4481 
Q 3581 4753 3931 4753 
Q 4078 4753 4191 4709 
Q 4584 4556 4584 4003 
Q 4584 3731 4381 3347 
Q 4175 2959 3784 2666 
Q 3966 2666 4119 2513 
Q 4231 2400 4316 2075 
Q 4416 1691 4416 1281 
Q 4416 881 4556 513 
L 5006 722 
L 5138 438 
L 4006 -91 
z
M 2450 3897 
Q 2516 3663 2516 3375 
L 2516 2241 
L 2997 2463 
Q 3447 2672 3688 2997 
Q 3919 3316 3919 3694 
Q 3919 4166 3688 4266 
Q 3613 4297 3516 4297 
Q 3316 4297 2997 4150 
L 2450 3897 
z
" transform="scale(0.015625)"/>
       <path id="DejaVuSans-Oblique-45" d="M 1081 4666 
L 4031 4666 
L 3928 4134 
L 1606 4134 
L 1338 2753 
L 3566 2753 
L 3463 2222 
L 1234 2222 
L 909 531 
L 3284 531 
L 3181 0 
L 172 0 
L 1081 4666 
z
" transform="scale(0.015625)"/>
       <path id="DejaVuSans-Oblique-7a" d="M 744 3500 
L 3475 3500 
L 3372 2975 
L 738 459 
L 2913 459 
L 2822 0 
L -19 0 
L 84 525 
L 2719 3041 
L 653 3041 
L 744 3500 
z
" transform="scale(0.015625)"/>
       <path id="DejaVuSans-Oblique-56" d="M 1319 0 
L 500 4666 
L 1119 4666 
L 1797 653 
L 4063 4666 
L 4750 4666 
L 2053 0 
L 1319 0 
z
" transform="scale(0.015625)"/>
       <path id="DejaVuSans-2f" d="M 1625 4666 
L 2156 4666 
L 531 -594 
L 0 -594 
L 1625 4666 
z
" transform="scale(0.015625)"/>
       <path id="DejaVuSans-Oblique-6d" d="M 5747 2113 
L 5338 0 
L 4763 0 
L 5166 2094 
Q 5191 2228 5203 2325 
Q 5216 2422 5216 2491 
Q 5216 2772 5059 2928 
Q 4903 3084 4622 3084 
Q 4203 3084 3875 2770 
Q 3547 2456 3450 1953 
L 3066 0 
L 2491 0 
L 2900 2094 
Q 2925 2209 2937 2307 
Q 2950 2406 2950 2484 
Q 2950 2769 2794 2926 
Q 2638 3084 2363 3084 
Q 1938 3084 1609 2770 
Q 1281 2456 1184 1953 
L 800 0 
L 225 0 
L 909 3500 
L 1484 3500 
L 1375 2956 
Q 1609 3263 1923 3423 
Q 2238 3584 2597 3584 
Q 2978 3584 3223 3384 
Q 3469 3184 3519 2828 
Q 3781 3197 4126 3390 
Q 4472 3584 4856 3584 
Q 5306 3584 5551 3325 
Q 5797 3066 5797 2591 
Q 5797 2488 5784 2364 
Q 5772 2241 5747 2113 
z
" transform="scale(0.015625)"/>
      </defs>
      <use xlink:href="#DejaVuSans-Oblique-211c" transform="translate(0 0.125)"/>
      <use xlink:href="#DejaVuSans-28" transform="translate(81.396484 0.125)"/>
      <use xlink:href="#DejaVuSans-Oblique-45" transform="translate(120.410156 0.125)"/>
      <use xlink:href="#DejaVuSans-Oblique-7a" transform="translate(183.59375 -16.28125) scale(0.7)"/>
      <use xlink:href="#DejaVuSans-29" transform="translate(223.071289 0.125)"/>
      <use xlink:href="#DejaVuSans-28" transform="translate(262.084961 0.125)"/>
      <use xlink:href="#DejaVuSans-Oblique-56" transform="translate(301.098633 0.125)"/>
      <use xlink:href="#DejaVuSans-2f" transform="translate(369.506836 0.125)"/>
      <use xlink:href="#DejaVuSans-Oblique-6d" transform="translate(403.198242 0.125)"/>
      <use xlink:href="#DejaVuSans-29" transform="translate(500.610352 0.125)"/>
     </g>
    </g>
   </g>
   <g id="line2d_29">
    <path d="M 88.03783 289.833494 
L 91.725308 289.944595 
L 95.412787 289.922868 
L 99.100266 289.712408 
L 102.787744 289.25464 
L 106.475223 288.493222 
L 110.162702 287.379962 
L 113.850181 285.881296 
L 117.537659 283.984732 
L 121.225138 281.704552 
L 124.912617 279.086067 
L 128.600095 276.207764 
L 139.662532 267.266979 
L 143.35001 264.722264 
L 147.037489 262.69403 
L 150.724968 261.356428 
L 154.412446 260.863444 
L 158.099925 261.337559 
L 161.787404 262.860093 
L 165.474883 265.464044 
L 169.162361 269.12998 
L 172.84984 273.785282 
L 176.537319 279.306771 
L 180.224797 285.526441 
L 183.912276 292.239818 
L 194.974712 312.974459 
L 198.662191 319.268705 
L 202.34967 324.872942 
L 206.037148 329.594753 
L 209.724627 333.276443 
L 213.412106 335.799689 
L 217.099584 337.087973 
L 220.787063 337.106912 
L 224.474542 335.8627 
L 228.162021 333.398985 
L 231.849499 329.792533 
L 235.536978 325.14807 
L 239.224457 319.591533 
L 242.911935 313.26096 
L 246.599414 306.311911 
L 250.286893 298.915145 
L 261.349329 275.884198 
L 265.036808 268.556339 
L 268.724286 261.708529 
L 272.411765 255.509039 
L 276.099244 250.110209 
L 279.786722 245.644704 
L 283.474201 242.222255 
L 287.16168 239.926961 
L 290.849159 238.815224 
L 294.536637 238.914364 
L 298.224116 240.221943 
L 301.911595 242.705832 
L 305.599073 246.304993 
L 309.286552 250.930984 
L 312.974031 256.470132 
L 316.661509 262.786322 
L 320.348988 269.724348 
L 324.036467 277.113721 
L 335.098903 300.145619 
L 338.786382 307.481478 
L 342.47386 314.34088 
L 346.161339 320.55527 
L 349.848818 325.971941 
L 353.536297 330.457789 
L 357.223775 333.902585 
L 360.911254 336.22168 
L 364.598733 337.358085 
L 368.286211 339.929567 
L 371.97369 346.658859 
L 375.661169 357.492656 
L 379.348648 371.896112 
L 383.036126 388.89708 
L 390.411084 425.110936 
L 394.098562 441.022207 
L 397.786041 453.186359 
L 401.47352 460.030591 
L 405.160998 461.714621 
L 408.848477 459.132231 
L 412.535956 452.346876 
L 416.223435 441.525292 
L 419.910913 426.933399 
L 423.598392 408.929761 
L 427.285871 387.956783 
L 430.973349 364.529831 
L 434.660828 339.224575 
L 442.035786 285.497328 
L 449.410743 232.02355 
L 453.098222 207.029293 
L 456.7857 184.026987 
L 460.473179 163.581866 
L 464.160658 146.196327 
L 467.848136 132.297585 
L 471.535615 122.227172 
L 475.223094 116.232549 
L 478.910573 114.461021 
L 482.598051 116.956121 
L 486.28553 123.656535 
L 489.973009 134.397615 
L 493.660487 148.915421 
L 497.347966 166.853207 
L 501.035445 187.770189 
L 504.722924 211.152374 
L 508.410402 236.425194 
L 515.78536 290.127427 
L 523.160317 343.630823 
L 526.847796 368.659676 
L 530.535275 391.708742 
L 534.222753 412.207186 
L 537.910232 429.613759 
L 541.597711 443.443384 
L 545.285189 453.291758 
L 548.972668 458.85654 
L 552.660147 459.956711 
L 556.347625 456.548672 
L 560.035104 448.737667 
L 563.722583 436.783185 
L 567.410062 421.097251 
L 571.09754 402.234819 
L 574.785019 380.875982 
L 578.472498 357.800256 
L 585.847455 309.911211 
L 589.534934 286.833639 
L 593.222413 265.426346 
L 596.909891 246.397999 
L 600.59737 230.324955 
L 604.284849 217.623117 
L 607.972327 208.529654 
L 611.659806 203.096101 
L 615.347285 201.193503 
L 619.034763 202.529225 
L 622.722242 206.674054 
L 626.409721 213.097324 
L 630.0972 221.207071 
L 633.784678 230.391835 
L 641.159636 249.678164 
L 644.847114 258.792075 
L 648.534593 267.051648 
L 652.222072 274.216182 
L 655.909551 280.15401 
L 659.597029 284.833162 
L 663.284508 288.305614 
L 666.971987 290.687441 
L 670.659465 292.137315 
L 674.346944 292.835579 
L 678.034423 292.965764 
L 678.034423 292.965764 
" clip-path="url(#p196228a937)" style="fill: none; stroke: #ff0000; stroke-linecap: square"/>
   </g>
   <g id="line2d_30">
    <path d="M 88.03783 86.019273 
L 91.725308 88.507123 
L 95.412787 95.909416 
L 99.100266 108.043882 
L 102.787744 124.61173 
L 106.475223 145.205004 
L 110.162702 169.316631 
L 113.850181 196.352902 
L 117.537659 225.648093 
L 124.912617 288.092 
L 132.287574 350.535907 
L 135.975053 379.831098 
L 139.662532 406.867369 
L 143.35001 430.978996 
L 147.037489 451.57227 
L 150.724968 468.140118 
L 154.412446 480.274584 
L 158.099925 487.676877 
L 161.787404 490.164727 
L 165.474883 487.676877 
L 169.162361 480.274584 
L 172.84984 468.140118 
L 176.537319 451.57227 
L 180.224797 430.978996 
L 183.912276 406.867369 
L 187.599755 379.831098 
L 191.287233 350.535907 
L 198.662191 288.092 
L 206.037148 225.648093 
L 209.724627 196.352902 
L 213.412106 169.316631 
L 217.099584 145.205004 
L 220.787063 124.61173 
L 224.474542 108.043882 
L 228.162021 95.909416 
L 231.849499 88.507123 
L 235.536978 86.019273 
L 239.224457 88.507123 
L 242.911935 95.909416 
L 246.599414 108.043882 
L 250.286893 124.61173 
L 253.974371 145.205004 
L 257.66185 169.316631 
L 261.349329 196.352902 
L 265.036808 225.648093 
L 272.411765 288.092 
L 279.786722 350.535907 
L 283.474201 379.831098 
L 287.16168 406.867369 
L 290.849159 430.978996 
L 294.536637 451.57227 
L 298.224116 468.140118 
L 301.911595 480.274584 
L 305.599073 487.676877 
L 309.286552 490.164727 
L 312.974031 487.676877 
L 316.661509 480.274584 
L 320.348988 468.140118 
L 324.036467 451.57227 
L 327.723946 430.978996 
L 331.411424 406.867369 
L 335.098903 379.831098 
L 338.786382 350.535907 
L 346.161339 288.092 
L 353.536297 225.648093 
L 357.223775 196.352902 
L 360.911254 169.316631 
L 364.598733 145.205004 
L 368.286211 124.61173 
L 371.97369 108.043882 
L 375.661169 95.909416 
L 379.348648 88.507123 
L 383.036126 86.019273 
L 386.723605 88.507123 
L 390.411084 95.909416 
L 394.098562 108.043882 
L 397.786041 124.61173 
L 401.47352 145.205004 
L 405.160998 169.316631 
L 408.848477 196.352902 
L 412.535956 225.648093 
L 419.910913 288.092 
L 427.285871 350.535907 
L 430.973349 379.831098 
L 434.660828 406.867369 
L 438.348307 430.978996 
L 442.035786 451.57227 
L 445.723264 468.140118 
L 449.410743 480.274584 
L 453.098222 487.676877 
L 456.7857 490.164727 
L 460.473179 487.676877 
L 464.160658 480.274584 
L 467.848136 468.140118 
L 471.535615 451.57227 
L 475.223094 430.978996 
L 478.910573 406.867369 
L 482.598051 379.831098 
L 486.28553 350.535907 
L 493.660487 288.092 
L 501.035445 225.648093 
L 504.722924 196.352902 
L 508.410402 169.316631 
L 512.097881 145.205004 
L 515.78536 124.61173 
L 519.472838 108.043882 
L 523.160317 95.909416 
L 526.847796 88.507123 
L 530.535275 86.019273 
L 534.222753 88.507123 
L 537.910232 95.909416 
L 541.597711 108.043882 
L 545.285189 124.61173 
L 548.972668 145.205004 
L 552.660147 169.316631 
L 556.347625 196.352902 
L 560.035104 225.648093 
L 567.410062 288.092 
L 574.785019 350.535907 
L 578.472498 379.831098 
L 582.159976 406.867369 
L 585.847455 430.978996 
L 589.534934 451.57227 
L 593.222413 468.140118 
L 596.909891 480.274584 
L 600.59737 487.676877 
L 604.284849 490.164727 
L 607.972327 487.676877 
L 611.659806 480.274584 
L 615.347285 468.140118 
L 619.034763 451.57227 
L 622.722242 430.978996 
L 626.409721 406.867369 
L 630.0972 379.831098 
L 633.784678 350.535907 
L 641.159636 288.092 
L 648.534593 225.648093 
L 652.222072 196.352902 
L 655.909551 169.316631 
L 659.597029 145.205004 
L 663.284508 124.61173 
L 666.971987 108.043882 
L 670.659465 95.909416 
L 674.346944 88.507123 
L 678.034423 86.019273 
L 678.034423 86.019273 
" clip-path="url(#p196228a937)" style="fill: none; stroke-dasharray: 3.7,1.6; stroke-dashoffset: 0; stroke: #0000ff"/>
   </g>
   <g id="line2d_31">
    <path d="M 88.03783 87.760767 
L 91.725308 90.359718 
L 95.412787 97.740284 
L 99.100266 109.66429 
L 102.787744 125.77437 
L 106.475223 145.606227 
L 110.162702 168.604593 
L 113.850181 194.142198 
L 117.537659 221.540825 
L 132.287574 335.624764 
L 135.975053 361.885071 
L 139.662532 386.042348 
L 143.35001 407.609259 
L 147.037489 426.174301 
L 150.724968 441.404546 
L 154.412446 453.046028 
L 158.099925 460.922435 
L 161.787404 464.93282 
L 165.474883 465.048921 
L 169.162361 461.312564 
L 172.84984 453.8334 
L 176.537319 442.787042 
L 180.224797 428.413437 
L 183.912276 411.015187 
L 187.599755 390.955371 
L 191.287233 368.654421 
L 194.974712 344.585598 
L 202.34967 293.261803 
L 209.724627 241.537344 
L 213.412106 217.02432 
L 217.099584 194.200978 
L 220.787063 173.626642 
L 224.474542 155.814582 
L 228.162021 141.216401 
L 231.849499 130.207656 
L 235.536978 123.075343 
L 239.224457 120.006657 
L 242.911935 121.078376 
L 246.599414 126.263793 
L 250.286893 135.434874 
L 253.974371 148.365426 
L 257.66185 164.736669 
L 261.349329 184.145099 
L 265.036808 206.112432 
L 268.724286 230.09739 
L 272.411765 255.509039 
L 283.474201 333.961353 
L 287.16168 358.70233 
L 290.849159 381.70222 
L 294.536637 402.394634 
L 298.224116 420.270062 
L 301.911595 434.888416 
L 305.599073 445.88987 
L 309.286552 453.003712 
L 312.974031 456.055008 
L 316.661509 454.968906 
L 320.348988 449.772466 
L 324.036467 440.593992 
L 327.723946 427.659859 
L 331.411424 411.288936 
L 335.098903 391.884717 
L 338.786382 369.925385 
L 342.47386 345.952019 
L 346.161339 320.55527 
L 357.223775 242.163487 
L 360.911254 217.446311 
L 364.598733 194.47109 
L 368.286211 176.449297 
L 371.97369 166.610741 
L 375.661169 165.310072 
L 379.348648 172.311236 
L 383.036126 186.824353 
L 386.723605 207.579096 
L 390.411084 232.928352 
L 401.47352 317.143595 
L 405.160998 342.939252 
L 408.848477 367.393132 
L 412.535956 389.902969 
L 416.223435 409.914153 
L 419.910913 426.933399 
L 423.598392 440.5409 
L 427.285871 450.400689 
L 430.973349 456.268929 
L 434.660828 457.999944 
L 438.348307 455.549837 
L 442.035786 448.977599 
L 445.723264 438.443693 
L 449.410743 424.206134 
L 453.098222 406.61417 
L 456.7857 386.099714 
L 460.473179 363.166742 
L 464.160658 338.378911 
L 471.535615 285.707443 
L 478.910573 233.23639 
L 482.598051 208.695219 
L 486.28553 186.100442 
L 489.973009 166.008754 
L 493.660487 148.915421 
L 497.347966 135.242068 
L 501.035445 125.326282 
L 504.722924 119.413276 
L 508.410402 117.649825 
L 512.097881 120.080625 
L 515.78536 126.647157 
L 519.472838 137.189099 
L 523.160317 151.448239 
L 526.847796 169.074799 
L 530.535275 189.636015 
L 534.222753 212.622309 
L 537.910232 237.431175 
L 552.660147 341.181342 
L 556.347625 364.809574 
L 560.035104 386.29376 
L 563.722583 405.172046 
L 567.410062 421.097251 
L 571.09754 433.845958 
L 574.785019 443.319889 
L 578.472498 449.539354 
L 582.159976 452.629185 
L 585.847455 452.798207 
L 589.534934 450.31391 
L 593.222413 445.474464 
L 596.909891 438.580583 
L 600.59737 429.909832 
L 604.284849 419.695844 
L 607.972327 408.11453 
L 611.659806 395.278685 
L 615.347285 381.241622 
L 619.034763 366.009495 
L 622.722242 349.561049 
L 626.409721 331.872693 
L 630.0972 312.94617 
L 633.784678 292.835742 
L 637.472157 271.671801 
L 644.847114 227.180936 
L 652.222072 182.477084 
L 655.909551 161.378641 
L 659.597029 141.946167 
L 663.284508 124.825344 
L 666.971987 110.639323 
L 670.659465 99.954731 
L 674.346944 93.250702 
L 678.034423 90.893037 
L 678.034423 90.893037 
" clip-path="url(#p196228a937)" style="fill: none; stroke: #008000; stroke-width: 2; stroke-linecap: square"/>
   </g>
   <g id="patch_3">
    <path d="M 58.538 532.6 
L 58.538 43.584 
" style="fill: none; stroke: #000000; stroke-width: 0.8; stroke-linejoin: miter; stroke-linecap: square"/>
   </g>
   <g id="patch_4">
    <path d="M 707.534252 532.6 
L 707.534252 43.584 
" style="fill: none; stroke: #000000; stroke-width: 0.8; stroke-linejoin: miter; stroke-linecap: square"/>
   </g>
   <g id="patch_5">
    <path d="M 58.538 532.6 
L 707.534252 532.6 
" style="fill: none; stroke: #000000; stroke-width: 0.8; stroke-linejoin: miter; stroke-linecap: square"/>
   </g>
   <g id="patch_6">
    <path d="M 58.538 43.584 
L 707.534252 43.584 
" style="fill: none; stroke: #000000; stroke-width: 0.8; stroke-linejoin: miter; stroke-linecap: square"/>
   </g>
   <g id="text_17">
    <!-- Scattered and total fields for lossy dielectric slab -->
    <g transform="translate(236.314564 24.146625) scale(0.12 -0.12)">
     <defs>
      <path id="DejaVuSans-53" d="M 3425 4513 
L 3425 3897 
Q 3066 4069 2747 4153 
Q 2428 4238 2131 4238 
Q 1616 4238 1336 4038 
Q 1056 3838 1056 3469 
Q 1056 3159 1242 3001 
Q 1428 2844 1947 2747 
L 2328 2669 
Q 3034 2534 3370 2195 
Q 3706 1856 3706 1288 
Q 3706 609 3251 259 
Q 2797 -91 1919 -91 
Q 1588 -91 1214 -16 
Q 841 59 441 206 
L 441 856 
Q 825 641 1194 531 
Q 1563 422 1919 422 
Q 2459 422 2753 634 
Q 3047 847 3047 1241 
Q 3047 1584 2836 1778 
Q 2625 1972 2144 2069 
L 1759 2144 
Q 1053 2284 737 2584 
Q 422 2884 422 3419 
Q 422 4038 858 4394 
Q 1294 4750 2059 4750 
Q 2388 4750 2728 4690 
Q 3069 4631 3425 4513 
z
" transform="scale(0.015625)"/>
      <path id="DejaVuSans-63" d="M 3122 3366 
L 3122 2828 
Q 2878 2963 2633 3030 
Q 2388 3097 2138 3097 
Q 1578 3097 1268 2742 
Q 959 2388 959 1747 
Q 959 1106 1268 751 
Q 1578 397 2138 397 
Q 2388 397 2633 464 
Q 2878 531 3122 666 
L 3122 134 
Q 2881 22 2623 -34 
Q 2366 -91 2075 -91 
Q 1284 -91 818 406 
Q 353 903 353 1747 
Q 353 2603 823 3093 
Q 1294 3584 2113 3584 
Q 2378 3584 2631 3529 
Q 2884 3475 3122 3366 
z
" transform="scale(0.015625)"/>
      <path id="DejaVuSans-61" d="M 2194 1759 
Q 1497 1759 1228 1600 
Q 959 1441 959 1056 
Q 959 750 1161 570 
Q 1363 391 1709 391 
Q 2188 391 2477 730 
Q 2766 1069 2766 1631 
L 2766 1759 
L 2194 1759 
z
M 3341 1997 
L 3341 0 
L 2766 0 
L 2766 531 
Q 2569 213 2275 61 
Q 1981 -91 1556 -91 
Q 1019 -91 701 211 
Q 384 513 384 1019 
Q 384 1609 779 1909 
Q 1175 2209 1959 2209 
L 2766 2209 
L 2766 2266 
Q 2766 2663 2505 2880 
Q 2244 3097 1772 3097 
Q 1472 3097 1187 3025 
Q 903 2953 641 2809 
L 641 3341 
Q 956 3463 1253 3523 
Q 1550 3584 1831 3584 
Q 2591 3584 2966 3190 
Q 3341 2797 3341 1997 
z
" transform="scale(0.015625)"/>
      <path id="DejaVuSans-74" d="M 1172 4494 
L 1172 3500 
L 2356 3500 
L 2356 3053 
L 1172 3053 
L 1172 1153 
Q 1172 725 1289 603 
Q 1406 481 1766 481 
L 2356 481 
L 2356 0 
L 1766 0 
Q 1100 0 847 248 
Q 594 497 594 1153 
L 594 3053 
L 172 3053 
L 172 3500 
L 594 3500 
L 594 4494 
L 1172 4494 
z
" transform="scale(0.015625)"/>
      <path id="DejaVuSans-65" d="M 3597 1894 
L 3597 1613 
L 953 1613 
Q 991 1019 1311 708 
Q 1631 397 2203 397 
Q 2534 397 2845 478 
Q 3156 559 3463 722 
L 3463 178 
Q 3153 47 2828 -22 
Q 2503 -91 2169 -91 
Q 1331 -91 842 396 
Q 353 884 353 1716 
Q 353 2575 817 3079 
Q 1281 3584 2069 3584 
Q 2775 3584 3186 3129 
Q 3597 2675 3597 1894 
z
M 3022 2063 
Q 3016 2534 2758 2815 
Q 2500 3097 2075 3097 
Q 1594 3097 1305 2825 
Q 1016 2553 972 2059 
L 3022 2063 
z
" transform="scale(0.015625)"/>
      <path id="DejaVuSans-72" d="M 2631 2963 
Q 2534 3019 2420 3045 
Q 2306 3072 2169 3072 
Q 1681 3072 1420 2755 
Q 1159 2438 1159 1844 
L 1159 0 
L 581 0 
L 581 3500 
L 1159 3500 
L 1159 2956 
Q 1341 3275 1631 3429 
Q 1922 3584 2338 3584 
Q 2397 3584 2469 3576 
Q 2541 3569 2628 3553 
L 2631 2963 
z
" transform="scale(0.015625)"/>
      <path id="DejaVuSans-64" d="M 2906 2969 
L 2906 4863 
L 3481 4863 
L 3481 0 
L 2906 0 
L 2906 525 
Q 2725 213 2448 61 
Q 2172 -91 1784 -91 
Q 1150 -91 751 415 
Q 353 922 353 1747 
Q 353 2572 751 3078 
Q 1150 3584 1784 3584 
Q 2172 3584 2448 3432 
Q 2725 3281 2906 2969 
z
M 947 1747 
Q 947 1113 1208 752 
Q 1469 391 1925 391 
Q 2381 391 2643 752 
Q 2906 1113 2906 1747 
Q 2906 2381 2643 2742 
Q 2381 3103 1925 3103 
Q 1469 3103 1208 2742 
Q 947 2381 947 1747 
z
" transform="scale(0.015625)"/>
      <path id="DejaVuSans-6e" d="M 3513 2113 
L 3513 0 
L 2938 0 
L 2938 2094 
Q 2938 2591 2744 2837 
Q 2550 3084 2163 3084 
Q 1697 3084 1428 2787 
Q 1159 2491 1159 1978 
L 1159 0 
L 581 0 
L 581 3500 
L 1159 3500 
L 1159 2956 
Q 1366 3272 1645 3428 
Q 1925 3584 2291 3584 
Q 2894 3584 3203 3211 
Q 3513 2838 3513 2113 
z
" transform="scale(0.015625)"/>
      <path id="DejaVuSans-6f" d="M 1959 3097 
Q 1497 3097 1228 2736 
Q 959 2375 959 1747 
Q 959 1119 1226 758 
Q 1494 397 1959 397 
Q 2419 397 2687 759 
Q 2956 1122 2956 1747 
Q 2956 2369 2687 2733 
Q 2419 3097 1959 3097 
z
M 1959 3584 
Q 2709 3584 3137 3096 
Q 3566 2609 3566 1747 
Q 3566 888 3137 398 
Q 2709 -91 1959 -91 
Q 1206 -91 779 398 
Q 353 888 353 1747 
Q 353 2609 779 3096 
Q 1206 3584 1959 3584 
z
" transform="scale(0.015625)"/>
      <path id="DejaVuSans-6c" d="M 603 4863 
L 1178 4863 
L 1178 0 
L 603 0 
L 603 4863 
z
" transform="scale(0.015625)"/>
      <path id="DejaVuSans-66" d="M 2375 4863 
L 2375 4384 
L 1825 4384 
Q 1516 4384 1395 4259 
Q 1275 4134 1275 3809 
L 1275 3500 
L 2222 3500 
L 2222 3053 
L 1275 3053 
L 1275 0 
L 697 0 
L 697 3053 
L 147 3053 
L 147 3500 
L 697 3500 
L 697 3744 
Q 697 4328 969 4595 
Q 1241 4863 1831 4863 
L 2375 4863 
z
" transform="scale(0.015625)"/>
      <path id="DejaVuSans-69" d="M 603 3500 
L 1178 3500 
L 1178 0 
L 603 0 
L 603 3500 
z
M 603 4863 
L 1178 4863 
L 1178 4134 
L 603 4134 
L 603 4863 
z
" transform="scale(0.015625)"/>
      <path id="DejaVuSans-73" d="M 2834 3397 
L 2834 2853 
Q 2591 2978 2328 3040 
Q 2066 3103 1784 3103 
Q 1356 3103 1142 2972 
Q 928 2841 928 2578 
Q 928 2378 1081 2264 
Q 1234 2150 1697 2047 
L 1894 2003 
Q 2506 1872 2764 1633 
Q 3022 1394 3022 966 
Q 3022 478 2636 193 
Q 2250 -91 1575 -91 
Q 1294 -91 989 -36 
Q 684 19 347 128 
L 347 722 
Q 666 556 975 473 
Q 1284 391 1588 391 
Q 1994 391 2212 530 
Q 2431 669 2431 922 
Q 2431 1156 2273 1281 
Q 2116 1406 1581 1522 
L 1381 1569 
Q 847 1681 609 1914 
Q 372 2147 372 2553 
Q 372 3047 722 3315 
Q 1072 3584 1716 3584 
Q 2034 3584 2315 3537 
Q 2597 3491 2834 3397 
z
" transform="scale(0.015625)"/>
      <path id="DejaVuSans-79" d="M 2059 -325 
Q 1816 -950 1584 -1140 
Q 1353 -1331 966 -1331 
L 506 -1331 
L 506 -850 
L 844 -850 
Q 1081 -850 1212 -737 
Q 1344 -625 1503 -206 
L 1606 56 
L 191 3500 
L 800 3500 
L 1894 763 
L 2988 3500 
L 3597 3500 
L 2059 -325 
z
" transform="scale(0.015625)"/>
      <path id="DejaVuSans-62" d="M 3116 1747 
Q 3116 2381 2855 2742 
Q 2594 3103 2138 3103 
Q 1681 3103 1420 2742 
Q 1159 2381 1159 1747 
Q 1159 1113 1420 752 
Q 1681 391 2138 391 
Q 2594 391 2855 752 
Q 3116 1113 3116 1747 
z
M 1159 2969 
Q 1341 3281 1617 3432 
Q 1894 3584 2278 3584 
Q 2916 3584 3314 3078 
Q 3713 2572 3713 1747 
Q 3713 922 3314 415 
Q 2916 -91 2278 -91 
Q 1894 -91 1617 61 
Q 1341 213 1159 525 
L 1159 0 
L 581 0 
L 581 4863 
L 1159 4863 
L 1159 2969 
z
" transform="scale(0.015625)"/>
     </defs>
     <use xlink:href="#DejaVuSans-53"/>
     <use xlink:href="#DejaVuSans-63" x="63.476562"/>
     <use xlink:href="#DejaVuSans-61" x="118.457031"/>
     <use xlink:href="#DejaVuSans-74" x="179.736328"/>
     <use xlink:href="#DejaVuSans-74" x="218.945312"/>
     <use xlink:href="#DejaVuSans-65" x="258.154297"/>
     <use xlink:href="#DejaVuSans-72" x="319.677734"/>
     <use xlink:href="#DejaVuSans-65" x="358.541016"/>
     <use xlink:href="#DejaVuSans-64" x="420.064453"/>
     <use xlink:href="#DejaVuSans-20" x="483.541016"/>
     <use xlink:href="#DejaVuSans-61" x="515.328125"/>
     <use xlink:href="#DejaVuSans-6e" x="576.607422"/>
     <use xlink:href="#DejaVuSans-64" x="639.986328"/>
     <use xlink:href="#DejaVuSans-20" x="703.462891"/>
     <use xlink:href="#DejaVuSans-74" x="735.25"/>
     <use xlink:href="#DejaVuSans-6f" x="774.458984"/>
     <use xlink:href="#DejaVuSans-74" x="835.640625"/>
     <use xlink:href="#DejaVuSans-61" x="874.849609"/>
     <use xlink:href="#DejaVuSans-6c" x="936.128906"/>
     <use xlink:href="#DejaVuSans-20" x="963.912109"/>
     <use xlink:href="#DejaVuSans-66" x="995.699219"/>
     <use xlink:href="#DejaVuSans-69" x="1030.904297"/>
     <use xlink:href="#DejaVuSans-65" x="1058.6875"/>
     <use xlink:href="#DejaVuSans-6c" x="1120.210938"/>
     <use xlink:href="#DejaVuSans-64" x="1147.994141"/>
     <use xlink:href="#DejaVuSans-73" x="1211.470703"/>
     <use xlink:href="#DejaVuSans-20" x="1263.570312"/>
     <use xlink:href="#DejaVuSans-66" x="1295.357422"/>
     <use xlink:href="#DejaVuSans-6f" x="1330.5625"/>
     <use xlink:href="#DejaVuSans-72" x="1391.744141"/>
     <use xlink:href="#DejaVuSans-20" x="1432.857422"/>
     <use xlink:href="#DejaVuSans-6c" x="1464.644531"/>
     <use xlink:href="#DejaVuSans-6f" x="1492.427734"/>
     <use xlink:href="#DejaVuSans-73" x="1553.609375"/>
     <use xlink:href="#DejaVuSans-73" x="1605.708984"/>
     <use xlink:href="#DejaVuSans-79" x="1657.808594"/>
     <use xlink:href="#DejaVuSans-20" x="1716.988281"/>
     <use xlink:href="#DejaVuSans-64" x="1748.775391"/>
     <use xlink:href="#DejaVuSans-69" x="1812.251953"/>
     <use xlink:href="#DejaVuSans-65" x="1840.035156"/>
     <use xlink:href="#DejaVuSans-6c" x="1901.558594"/>
     <use xlink:href="#DejaVuSans-65" x="1929.341797"/>
     <use xlink:href="#DejaVuSans-63" x="1990.865234"/>
     <use xlink:href="#DejaVuSans-74" x="2045.845703"/>
     <use xlink:href="#DejaVuSans-72" x="2085.054688"/>
     <use xlink:href="#DejaVuSans-69" x="2126.167969"/>
     <use xlink:href="#DejaVuSans-63" x="2153.951172"/>
     <use xlink:href="#DejaVuSans-20" x="2208.931641"/>
     <use xlink:href="#DejaVuSans-73" x="2240.71875"/>
     <use xlink:href="#DejaVuSans-6c" x="2292.818359"/>
     <use xlink:href="#DejaVuSans-61" x="2320.601562"/>
     <use xlink:href="#DejaVuSans-62" x="2381.880859"/>
    </g>
    <!-- $\varepsilon_r = 1$ and $\sigma = 0$ S/m -->
    <g transform="translate(323.036126 37.584) scale(0.12 -0.12)">
     <defs>
      <path id="DejaVuSans-Oblique-3b5" d="M 1263 1888 
Q 925 1963 778 2166 
Q 669 2309 669 2503 
Q 669 3034 1175 3344 
Q 1575 3588 2188 3588 
Q 2425 3588 2684 3550 
Q 2944 3513 3234 3438 
L 3134 2916 
Q 2847 3006 2606 3047 
Q 2359 3088 2138 3088 
Q 1766 3088 1522 2944 
Q 1228 2772 1228 2522 
Q 1228 2356 1381 2241 
Q 1563 2103 1925 2103 
L 2409 2103 
L 2319 1628 
L 1856 1628 
Q 1425 1628 1172 1469 
Q 828 1253 828 916 
Q 828 703 1013 563 
Q 1244 388 1716 388 
Q 2006 388 2284 444 
Q 2563 503 2806 619 
L 2700 84 
Q 2403 -3 2131 -47 
Q 1859 -91 1609 -91 
Q 866 -91 516 194 
Q 250 413 250 781 
Q 250 1278 600 1584 
Q 859 1813 1263 1888 
z
" transform="scale(0.015625)"/>
      <path id="DejaVuSans-Oblique-72" d="M 2853 2969 
Q 2766 3016 2653 3041 
Q 2541 3066 2413 3066 
Q 1953 3066 1609 2717 
Q 1266 2369 1153 1784 
L 800 0 
L 225 0 
L 909 3500 
L 1484 3500 
L 1375 2956 
Q 1603 3259 1920 3421 
Q 2238 3584 2597 3584 
Q 2691 3584 2781 3573 
Q 2872 3563 2963 3538 
L 2853 2969 
z
" transform="scale(0.015625)"/>
      <path id="DejaVuSans-3d" d="M 678 2906 
L 4684 2906 
L 4684 2381 
L 678 2381 
L 678 2906 
z
M 678 1631 
L 4684 1631 
L 4684 1100 
L 678 1100 
L 678 1631 
z
" transform="scale(0.015625)"/>
      <path id="DejaVuSans-Oblique-3c3" d="M 2219 3044 
Q 1744 3044 1422 2700 
Q 1081 2341 969 1747 
Q 844 1119 1044 756 
Q 1241 397 1706 397 
Q 2166 397 2503 759 
Q 2844 1122 2966 1747 
Q 3075 2319 2881 2700 
Q 2700 3044 2219 3044 
z
M 2309 3503 
L 4219 3500 
L 4106 2925 
L 3463 2925 
Q 3706 2438 3575 1747 
Q 3406 888 2884 400 
Q 2359 -91 1609 -91 
Q 856 -91 525 400 
Q 194 888 363 1747 
Q 528 2609 1050 3097 
Q 1484 3503 2309 3503 
z
" transform="scale(0.015625)"/>
     </defs>
     <use xlink:href="#DejaVuSans-Oblique-3b5" transform="translate(0 0.015625)"/>
     <use xlink:href="#DejaVuSans-Oblique-72" transform="translate(54.052734 -16.390625) scale(0.7)"/>
     <use xlink:href="#DejaVuSans-3d" transform="translate(105.048828 0.015625)"/>
     <use xlink:href="#DejaVuSans-31" transform="translate(208.320312 0.015625)"/>
     <use xlink:href="#DejaVuSans-20" transform="translate(271.943359 0.015625)"/>
     <use xlink:href="#DejaVuSans-61" transform="translate(303.730469 0.015625)"/>
     <use xlink:href="#DejaVuSans-6e" transform="translate(365.009766 0.015625)"/>
     <use xlink:href="#DejaVuSans-64" transform="translate(428.388672 0.015625)"/>
     <use xlink:href="#DejaVuSans-20" transform="translate(491.865234 0.015625)"/>
     <use xlink:href="#DejaVuSans-Oblique-3c3" transform="translate(523.652344 0.015625)"/>
     <use xlink:href="#DejaVuSans-3d" transform="translate(606.513672 0.015625)"/>
     <use xlink:href="#DejaVuSans-30" transform="translate(709.785156 0.015625)"/>
     <use xlink:href="#DejaVuSans-20" transform="translate(773.408203 0.015625)"/>
     <use xlink:href="#DejaVuSans-53" transform="translate(805.195312 0.015625)"/>
     <use xlink:href="#DejaVuSans-2f" transform="translate(868.671875 0.015625)"/>
     <use xlink:href="#DejaVuSans-6d" transform="translate(902.363281 0.015625)"/>
    </g>
   </g>
   <g id="legend_1">
    <g id="patch_7">
     <path d="M 714.534252 328.120125 
L 850.834252 328.120125 
Q 852.834252 328.120125 852.834252 326.120125 
L 852.834252 250.063875 
Q 852.834252 248.063875 850.834252 248.063875 
L 714.534252 248.063875 
Q 712.534252 248.063875 712.534252 250.063875 
L 712.534252 326.120125 
Q 712.534252 328.120125 714.534252 328.120125 
z
" style="fill: #ffffff; opacity: 0.8; stroke: #cccccc; stroke-linejoin: miter"/>
    </g>
    <g id="line2d_32">
     <path d="M 716.534252 256.363875 
L 726.534252 256.363875 
L 736.534252 256.363875 
" style="fill: none; stroke: #ff0000; stroke-linecap: square"/>
    </g>
    <g id="text_18">
     <!-- $|E_z^s|$ (Scattered Field) -->
     <g transform="translate(744.534252 259.863875) scale(0.1 -0.1)">
      <defs>
       <path id="DejaVuSans-7c" d="M 1344 4891 
L 1344 -1509 
L 813 -1509 
L 813 4891 
L 1344 4891 
z
" transform="scale(0.015625)"/>
       <path id="DejaVuSans-Oblique-73" d="M 3200 3397 
L 3091 2853 
Q 2863 2978 2609 3040 
Q 2356 3103 2088 3103 
Q 1634 3103 1373 2948 
Q 1113 2794 1113 2528 
Q 1113 2219 1719 2053 
Q 1766 2041 1788 2034 
L 1972 1978 
Q 2547 1819 2739 1644 
Q 2931 1469 2931 1166 
Q 2931 609 2489 259 
Q 2047 -91 1331 -91 
Q 1053 -91 747 -37 
Q 441 16 72 128 
L 184 722 
Q 500 559 806 475 
Q 1113 391 1394 391 
Q 1816 391 2080 572 
Q 2344 753 2344 1031 
Q 2344 1331 1650 1516 
L 1591 1531 
L 1394 1581 
Q 956 1697 753 1886 
Q 550 2075 550 2369 
Q 550 2928 970 3256 
Q 1391 3584 2113 3584 
Q 2397 3584 2667 3537 
Q 2938 3491 3200 3397 
z
" transform="scale(0.015625)"/>
       <path id="DejaVuSans-46" d="M 628 4666 
L 3309 4666 
L 3309 4134 
L 1259 4134 
L 1259 2759 
L 3109 2759 
L 3109 2228 
L 1259 2228 
L 1259 0 
L 628 0 
L 628 4666 
z
" transform="scale(0.015625)"/>
      </defs>
      <use xlink:href="#DejaVuSans-7c" transform="translate(0 0.51875)"/>
      <use xlink:href="#DejaVuSans-Oblique-45" transform="translate(33.691406 0.51875)"/>
      <use xlink:href="#DejaVuSans-Oblique-73" transform="translate(103.891771 38.8) scale(0.7)"/>
      <use xlink:href="#DejaVuSans-Oblique-7a" transform="translate(96.875 -26.825) scale(0.7)"/>
      <use xlink:href="#DejaVuSans-7c" transform="translate(143.095872 0.51875)"/>
      <use xlink:href="#DejaVuSans-20" transform="translate(176.787279 0.51875)"/>
      <use xlink:href="#DejaVuSans-28" transform="translate(208.574388 0.51875)"/>
      <use xlink:href="#DejaVuSans-53" transform="translate(247.58806 0.51875)"/>
      <use xlink:href="#DejaVuSans-63" transform="translate(311.064622 0.51875)"/>
      <use xlink:href="#DejaVuSans-61" transform="translate(366.045091 0.51875)"/>
      <use xlink:href="#DejaVuSans-74" transform="translate(427.324388 0.51875)"/>
      <use xlink:href="#DejaVuSans-74" transform="translate(466.533372 0.51875)"/>
      <use xlink:href="#DejaVuSans-65" transform="translate(505.742357 0.51875)"/>
      <use xlink:href="#DejaVuSans-72" transform="translate(567.265794 0.51875)"/>
      <use xlink:href="#DejaVuSans-65" transform="translate(608.379076 0.51875)"/>
      <use xlink:href="#DejaVuSans-64" transform="translate(669.902513 0.51875)"/>
      <use xlink:href="#DejaVuSans-20" transform="translate(733.379076 0.51875)"/>
      <use xlink:href="#DejaVuSans-46" transform="translate(765.166185 0.51875)"/>
      <use xlink:href="#DejaVuSans-69" transform="translate(822.685716 0.51875)"/>
      <use xlink:href="#DejaVuSans-65" transform="translate(850.468919 0.51875)"/>
      <use xlink:href="#DejaVuSans-6c" transform="translate(911.992357 0.51875)"/>
      <use xlink:href="#DejaVuSans-64" transform="translate(939.77556 0.51875)"/>
      <use xlink:href="#DejaVuSans-29" transform="translate(1003.252122 0.51875)"/>
     </g>
    </g>
    <g id="line2d_33">
     <path d="M 716.534252 273.363875 
L 726.534252 273.363875 
L 736.534252 273.363875 
" style="fill: none; stroke-dasharray: 3.7,1.6; stroke-dashoffset: 0; stroke: #0000ff"/>
    </g>
    <g id="text_19">
     <!-- $|E_z^i|$ (Incident Field) -->
     <g transform="translate(744.534252 276.863875) scale(0.1 -0.1)">
      <defs>
       <path id="DejaVuSans-Oblique-69" d="M 1172 4863 
L 1747 4863 
L 1606 4134 
L 1031 4134 
L 1172 4863 
z
M 909 3500 
L 1484 3500 
L 800 0 
L 225 0 
L 909 3500 
z
" transform="scale(0.015625)"/>
       <path id="DejaVuSans-49" d="M 628 4666 
L 1259 4666 
L 1259 0 
L 628 0 
L 628 4666 
z
" transform="scale(0.015625)"/>
      </defs>
      <use xlink:href="#DejaVuSans-7c" transform="translate(0 0.529687)"/>
      <use xlink:href="#DejaVuSans-Oblique-45" transform="translate(33.691406 0.529687)"/>
      <use xlink:href="#DejaVuSans-Oblique-69" transform="translate(103.891771 38.810938) scale(0.7)"/>
      <use xlink:href="#DejaVuSans-Oblique-7a" transform="translate(96.875 -26.814063) scale(0.7)"/>
      <use xlink:href="#DejaVuSans-7c" transform="translate(136.352539 0.529687)"/>
      <use xlink:href="#DejaVuSans-20" transform="translate(170.043945 0.529687)"/>
      <use xlink:href="#DejaVuSans-28" transform="translate(201.831055 0.529687)"/>
      <use xlink:href="#DejaVuSans-49" transform="translate(240.844727 0.529687)"/>
      <use xlink:href="#DejaVuSans-6e" transform="translate(270.336914 0.529687)"/>
      <use xlink:href="#DejaVuSans-63" transform="translate(333.71582 0.529687)"/>
      <use xlink:href="#DejaVuSans-69" transform="translate(388.696289 0.529687)"/>
      <use xlink:href="#DejaVuSans-64" transform="translate(416.479492 0.529687)"/>
      <use xlink:href="#DejaVuSans-65" transform="translate(479.956055 0.529687)"/>
      <use xlink:href="#DejaVuSans-6e" transform="translate(541.479492 0.529687)"/>
      <use xlink:href="#DejaVuSans-74" transform="translate(604.858398 0.529687)"/>
      <use xlink:href="#DejaVuSans-20" transform="translate(644.067383 0.529687)"/>
      <use xlink:href="#DejaVuSans-46" transform="translate(675.854492 0.529687)"/>
      <use xlink:href="#DejaVuSans-69" transform="translate(733.374023 0.529687)"/>
      <use xlink:href="#DejaVuSans-65" transform="translate(761.157227 0.529687)"/>
      <use xlink:href="#DejaVuSans-6c" transform="translate(822.680664 0.529687)"/>
      <use xlink:href="#DejaVuSans-64" transform="translate(850.463867 0.529687)"/>
      <use xlink:href="#DejaVuSans-29" transform="translate(913.94043 0.529687)"/>
     </g>
    </g>
    <g id="line2d_34">
     <path d="M 716.534252 288.863875 
L 726.534252 288.863875 
L 736.534252 288.863875 
" style="fill: none; stroke: #008000; stroke-width: 2; stroke-linecap: square"/>
    </g>
    <g id="text_20">
     <!-- $|E_z|$ (Total Field) -->
     <g transform="translate(744.534252 292.363875) scale(0.1 -0.1)">
      <defs>
       <path id="DejaVuSans-54" d="M -19 4666 
L 3928 4666 
L 3928 4134 
L 2272 4134 
L 2272 0 
L 1638 0 
L 1638 4134 
L -19 4134 
L -19 4666 
z
" transform="scale(0.015625)"/>
      </defs>
      <use xlink:href="#DejaVuSans-7c" transform="translate(0 0.578125)"/>
      <use xlink:href="#DejaVuSans-Oblique-45" transform="translate(33.691406 0.578125)"/>
      <use xlink:href="#DejaVuSans-Oblique-7a" transform="translate(96.875 -15.828125) scale(0.7)"/>
      <use xlink:href="#DejaVuSans-7c" transform="translate(136.352539 0.578125)"/>
      <use xlink:href="#DejaVuSans-20" transform="translate(170.043945 0.578125)"/>
      <use xlink:href="#DejaVuSans-28" transform="translate(201.831055 0.578125)"/>
      <use xlink:href="#DejaVuSans-54" transform="translate(240.844727 0.578125)"/>
      <use xlink:href="#DejaVuSans-6f" transform="translate(301.928711 0.578125)"/>
      <use xlink:href="#DejaVuSans-74" transform="translate(363.110352 0.578125)"/>
      <use xlink:href="#DejaVuSans-61" transform="translate(402.319336 0.578125)"/>
      <use xlink:href="#DejaVuSans-6c" transform="translate(463.598633 0.578125)"/>
      <use xlink:href="#DejaVuSans-20" transform="translate(491.381836 0.578125)"/>
      <use xlink:href="#DejaVuSans-46" transform="translate(523.168945 0.578125)"/>
      <use xlink:href="#DejaVuSans-69" transform="translate(580.688477 0.578125)"/>
      <use xlink:href="#DejaVuSans-65" transform="translate(608.47168 0.578125)"/>
      <use xlink:href="#DejaVuSans-6c" transform="translate(669.995117 0.578125)"/>
      <use xlink:href="#DejaVuSans-64" transform="translate(697.77832 0.578125)"/>
      <use xlink:href="#DejaVuSans-29" transform="translate(761.254883 0.578125)"/>
     </g>
    </g>
    <g id="patch_8">
     <path d="M 716.534252 307.362312 
L 736.534252 307.362312 
L 736.534252 300.362312 
L 716.534252 300.362312 
z
" style="fill: #0000ff; fill-opacity: 0.2; stroke: #0000ff; stroke-opacity: 0.2; stroke-linejoin: miter"/>
    </g>
    <g id="text_21">
     <!-- Lossy Dielectric Slab -->
     <g transform="translate(744.534252 307.362312) scale(0.1 -0.1)">
      <defs>
       <path id="DejaVuSans-4c" d="M 628 4666 
L 1259 4666 
L 1259 531 
L 3531 531 
L 3531 0 
L 628 0 
L 628 4666 
z
" transform="scale(0.015625)"/>
       <path id="DejaVuSans-44" d="M 1259 4147 
L 1259 519 
L 2022 519 
Q 2988 519 3436 956 
Q 3884 1394 3884 2338 
Q 3884 3275 3436 3711 
Q 2988 4147 2022 4147 
L 1259 4147 
z
M 628 4666 
L 1925 4666 
Q 3281 4666 3915 4102 
Q 4550 3538 4550 2338 
Q 4550 1131 3912 565 
Q 3275 0 1925 0 
L 628 0 
L 628 4666 
z
" transform="scale(0.015625)"/>
      </defs>
      <use xlink:href="#DejaVuSans-4c"/>
      <use xlink:href="#DejaVuSans-6f" x="53.962891"/>
      <use xlink:href="#DejaVuSans-73" x="115.144531"/>
      <use xlink:href="#DejaVuSans-73" x="167.244141"/>
      <use xlink:href="#DejaVuSans-79" x="219.34375"/>
      <use xlink:href="#DejaVuSans-20" x="278.523438"/>
      <use xlink:href="#DejaVuSans-44" x="310.310547"/>
      <use xlink:href="#DejaVuSans-69" x="387.3125"/>
      <use xlink:href="#DejaVuSans-65" x="415.095703"/>
      <use xlink:href="#DejaVuSans-6c" x="476.619141"/>
      <use xlink:href="#DejaVuSans-65" x="504.402344"/>
      <use xlink:href="#DejaVuSans-63" x="565.925781"/>
      <use xlink:href="#DejaVuSans-74" x="620.90625"/>
      <use xlink:href="#DejaVuSans-72" x="660.115234"/>
      <use xlink:href="#DejaVuSans-69" x="701.228516"/>
      <use xlink:href="#DejaVuSans-63" x="729.011719"/>
      <use xlink:href="#DejaVuSans-20" x="783.992188"/>
      <use xlink:href="#DejaVuSans-53" x="815.779297"/>
      <use xlink:href="#DejaVuSans-6c" x="879.255859"/>
      <use xlink:href="#DejaVuSans-61" x="907.039062"/>
      <use xlink:href="#DejaVuSans-62" x="968.318359"/>
     </g>
    </g>
    <g id="patch_9">
     <path d="M 716.534252 322.040437 
L 736.534252 322.040437 
L 736.534252 315.040437 
L 716.534252 315.040437 
z
" style="fill: #808080; fill-opacity: 0.2; stroke: #808080; stroke-opacity: 0.2; stroke-linejoin: miter"/>
    </g>
    <g id="text_22">
     <!-- PML -->
     <g transform="translate(744.534252 322.040437) scale(0.1 -0.1)">
      <defs>
       <path id="DejaVuSans-50" d="M 1259 4147 
L 1259 2394 
L 2053 2394 
Q 2494 2394 2734 2622 
Q 2975 2850 2975 3272 
Q 2975 3691 2734 3919 
Q 2494 4147 2053 4147 
L 1259 4147 
z
M 628 4666 
L 2053 4666 
Q 2838 4666 3239 4311 
Q 3641 3956 3641 3272 
Q 3641 2581 3239 2228 
Q 2838 1875 2053 1875 
L 1259 1875 
L 1259 0 
L 628 0 
L 628 4666 
z
" transform="scale(0.015625)"/>
       <path id="DejaVuSans-4d" d="M 628 4666 
L 1569 4666 
L 2759 1491 
L 3956 4666 
L 4897 4666 
L 4897 0 
L 4281 0 
L 4281 4097 
L 3078 897 
L 2444 897 
L 1241 4097 
L 1241 0 
L 628 0 
L 628 4666 
z
" transform="scale(0.015625)"/>
      </defs>
      <use xlink:href="#DejaVuSans-50"/>
      <use xlink:href="#DejaVuSans-4d" x="60.302734"/>
      <use xlink:href="#DejaVuSans-4c" x="146.582031"/>
     </g>
    </g>
   </g>
  </g>
 </g>
 <defs>
  <clipPath id="p196228a937">
   <rect x="58.538" y="43.584" width="648.996252" height="489.016"/>
  </clipPath>
 </defs>
</svg>
