<?xml version="1.0" encoding="utf-8" standalone="no"?>
<!DOCTYPE svg PUBLIC "-//W3C//DTD SVG 1.1//EN"
  "http://www.w3.org/Graphics/SVG/1.1/DTD/svg11.dtd">
<svg xmlns:xlink="http://www.w3.org/1999/xlink" width="864pt" height="576pt" viewBox="0 0 864 576" xmlns="http://www.w3.org/2000/svg" version="1.1">
 <metadata>
  <rdf:RDF xmlns:dc="http://purl.org/dc/elements/1.1/" xmlns:cc="http://creativecommons.org/ns#" xmlns:rdf="http://www.w3.org/1999/02/22-rdf-syntax-ns#">
   <cc:Work>
    <dc:type rdf:resource="http://purl.org/dc/dcmitype/StillImage"/>
    <dc:date>2025-01-27T08:11:14.007327</dc:date>
    <dc:format>image/svg+xml</dc:format>
    <dc:creator>
     <cc:Agent>
      <dc:title>Matplotlib v3.8.3, https://matplotlib.org/</dc:title>
     </cc:Agent>
    </dc:creator>
   </cc:Work>
  </rdf:RDF>
 </metadata>
 <defs>
  <style type="text/css">*{stroke-linejoin: round; stroke-linecap: butt}</style>
 </defs>
 <g id="figure_1">
  <g id="patch_1">
   <path d="M 0 576 
L 864 576 
L 864 0 
L 0 0 
z
" style="fill: #ffffff"/>
  </g>
  <g id="axes_1">
   <g id="patch_2">
    <path d="M 56.9 532.6 
L 707.534252 532.6 
L 707.534252 43.584 
L 56.9 43.584 
z
" style="fill: #ffffff"/>
   </g>
   <g id="matplotlib.axis_1">
    <g id="xtick_1">
     <g id="line2d_1">
      <path d="M 86.474284 532.6 
L 86.474284 43.584 
" clip-path="url(#p3a65dda872)" style="fill: none; stroke-dasharray: 2.96,1.28; stroke-dashoffset: 0; stroke: #b0b0b0; stroke-opacity: 0.7; stroke-width: 0.8"/>
     </g>
     <g id="line2d_2">
      <defs>
       <path id="mf81b7d0f9a" d="M 0 0 
L 0 3.5 
" style="stroke: #000000; stroke-width: 0.8"/>
      </defs>
      <g>
       <use xlink:href="#mf81b7d0f9a" x="86.474284" y="532.6" style="stroke: #000000; stroke-width: 0.8"/>
      </g>
     </g>
     <g id="text_1">
      <!-- 0.00 -->
      <g transform="translate(75.341472 547.198437) scale(0.1 -0.1)">
       <defs>
        <path id="DejaVuSans-30" d="M 2034 4250 
Q 1547 4250 1301 3770 
Q 1056 3291 1056 2328 
Q 1056 1369 1301 889 
Q 1547 409 2034 409 
Q 2525 409 2770 889 
Q 3016 1369 3016 2328 
Q 3016 3291 2770 3770 
Q 2525 4250 2034 4250 
z
M 2034 4750 
Q 2819 4750 3233 4129 
Q 3647 3509 3647 2328 
Q 3647 1150 3233 529 
Q 2819 -91 2034 -91 
Q 1250 -91 836 529 
Q 422 1150 422 2328 
Q 422 3509 836 4129 
Q 1250 4750 2034 4750 
z
" transform="scale(0.015625)"/>
        <path id="DejaVuSans-2e" d="M 684 794 
L 1344 794 
L 1344 0 
L 684 0 
L 684 794 
z
" transform="scale(0.015625)"/>
       </defs>
       <use xlink:href="#DejaVuSans-30"/>
       <use xlink:href="#DejaVuSans-2e" x="63.623047"/>
       <use xlink:href="#DejaVuSans-30" x="95.410156"/>
       <use xlink:href="#DejaVuSans-30" x="159.033203"/>
      </g>
     </g>
    </g>
    <g id="xtick_2">
     <g id="line2d_3">
      <path d="M 160.461179 532.6 
L 160.461179 43.584 
" clip-path="url(#p3a65dda872)" style="fill: none; stroke-dasharray: 2.96,1.28; stroke-dashoffset: 0; stroke: #b0b0b0; stroke-opacity: 0.7; stroke-width: 0.8"/>
     </g>
     <g id="line2d_4">
      <g>
       <use xlink:href="#mf81b7d0f9a" x="160.461179" y="532.6" style="stroke: #000000; stroke-width: 0.8"/>
      </g>
     </g>
     <g id="text_2">
      <!-- 0.25 -->
      <g transform="translate(149.328367 547.198437) scale(0.1 -0.1)">
       <defs>
        <path id="DejaVuSans-32" d="M 1228 531 
L 3431 531 
L 3431 0 
L 469 0 
L 469 531 
Q 828 903 1448 1529 
Q 2069 2156 2228 2338 
Q 2531 2678 2651 2914 
Q 2772 3150 2772 3378 
Q 2772 3750 2511 3984 
Q 2250 4219 1831 4219 
Q 1534 4219 1204 4116 
Q 875 4013 500 3803 
L 500 4441 
Q 881 4594 1212 4672 
Q 1544 4750 1819 4750 
Q 2544 4750 2975 4387 
Q 3406 4025 3406 3419 
Q 3406 3131 3298 2873 
Q 3191 2616 2906 2266 
Q 2828 2175 2409 1742 
Q 1991 1309 1228 531 
z
" transform="scale(0.015625)"/>
        <path id="DejaVuSans-35" d="M 691 4666 
L 3169 4666 
L 3169 4134 
L 1269 4134 
L 1269 2991 
Q 1406 3038 1543 3061 
Q 1681 3084 1819 3084 
Q 2600 3084 3056 2656 
Q 3513 2228 3513 1497 
Q 3513 744 3044 326 
Q 2575 -91 1722 -91 
Q 1428 -91 1123 -41 
Q 819 9 494 109 
L 494 744 
Q 775 591 1075 516 
Q 1375 441 1709 441 
Q 2250 441 2565 725 
Q 2881 1009 2881 1497 
Q 2881 1984 2565 2268 
Q 2250 2553 1709 2553 
Q 1456 2553 1204 2497 
Q 953 2441 691 2322 
L 691 4666 
z
" transform="scale(0.015625)"/>
       </defs>
       <use xlink:href="#DejaVuSans-30"/>
       <use xlink:href="#DejaVuSans-2e" x="63.623047"/>
       <use xlink:href="#DejaVuSans-32" x="95.410156"/>
       <use xlink:href="#DejaVuSans-35" x="159.033203"/>
      </g>
     </g>
    </g>
    <g id="xtick_3">
     <g id="line2d_5">
      <path d="M 234.448074 532.6 
L 234.448074 43.584 
" clip-path="url(#p3a65dda872)" style="fill: none; stroke-dasharray: 2.96,1.28; stroke-dashoffset: 0; stroke: #b0b0b0; stroke-opacity: 0.7; stroke-width: 0.8"/>
     </g>
     <g id="line2d_6">
      <g>
       <use xlink:href="#mf81b7d0f9a" x="234.448074" y="532.6" style="stroke: #000000; stroke-width: 0.8"/>
      </g>
     </g>
     <g id="text_3">
      <!-- 0.50 -->
      <g transform="translate(223.315262 547.198437) scale(0.1 -0.1)">
       <use xlink:href="#DejaVuSans-30"/>
       <use xlink:href="#DejaVuSans-2e" x="63.623047"/>
       <use xlink:href="#DejaVuSans-35" x="95.410156"/>
       <use xlink:href="#DejaVuSans-30" x="159.033203"/>
      </g>
     </g>
    </g>
    <g id="xtick_4">
     <g id="line2d_7">
      <path d="M 308.43497 532.6 
L 308.43497 43.584 
" clip-path="url(#p3a65dda872)" style="fill: none; stroke-dasharray: 2.96,1.28; stroke-dashoffset: 0; stroke: #b0b0b0; stroke-opacity: 0.7; stroke-width: 0.8"/>
     </g>
     <g id="line2d_8">
      <g>
       <use xlink:href="#mf81b7d0f9a" x="308.43497" y="532.6" style="stroke: #000000; stroke-width: 0.8"/>
      </g>
     </g>
     <g id="text_4">
      <!-- 0.75 -->
      <g transform="translate(297.302157 547.198437) scale(0.1 -0.1)">
       <defs>
        <path id="DejaVuSans-37" d="M 525 4666 
L 3525 4666 
L 3525 4397 
L 1831 0 
L 1172 0 
L 2766 4134 
L 525 4134 
L 525 4666 
z
" transform="scale(0.015625)"/>
       </defs>
       <use xlink:href="#DejaVuSans-30"/>
       <use xlink:href="#DejaVuSans-2e" x="63.623047"/>
       <use xlink:href="#DejaVuSans-37" x="95.410156"/>
       <use xlink:href="#DejaVuSans-35" x="159.033203"/>
      </g>
     </g>
    </g>
    <g id="xtick_5">
     <g id="line2d_9">
      <path d="M 382.421865 532.6 
L 382.421865 43.584 
" clip-path="url(#p3a65dda872)" style="fill: none; stroke-dasharray: 2.96,1.28; stroke-dashoffset: 0; stroke: #b0b0b0; stroke-opacity: 0.7; stroke-width: 0.8"/>
     </g>
     <g id="line2d_10">
      <g>
       <use xlink:href="#mf81b7d0f9a" x="382.421865" y="532.6" style="stroke: #000000; stroke-width: 0.8"/>
      </g>
     </g>
     <g id="text_5">
      <!-- 1.00 -->
      <g transform="translate(371.289052 547.198437) scale(0.1 -0.1)">
       <defs>
        <path id="DejaVuSans-31" d="M 794 531 
L 1825 531 
L 1825 4091 
L 703 3866 
L 703 4441 
L 1819 4666 
L 2450 4666 
L 2450 531 
L 3481 531 
L 3481 0 
L 794 0 
L 794 531 
z
" transform="scale(0.015625)"/>
       </defs>
       <use xlink:href="#DejaVuSans-31"/>
       <use xlink:href="#DejaVuSans-2e" x="63.623047"/>
       <use xlink:href="#DejaVuSans-30" x="95.410156"/>
       <use xlink:href="#DejaVuSans-30" x="159.033203"/>
      </g>
     </g>
    </g>
    <g id="xtick_6">
     <g id="line2d_11">
      <path d="M 456.40876 532.6 
L 456.40876 43.584 
" clip-path="url(#p3a65dda872)" style="fill: none; stroke-dasharray: 2.96,1.28; stroke-dashoffset: 0; stroke: #b0b0b0; stroke-opacity: 0.7; stroke-width: 0.8"/>
     </g>
     <g id="line2d_12">
      <g>
       <use xlink:href="#mf81b7d0f9a" x="456.40876" y="532.6" style="stroke: #000000; stroke-width: 0.8"/>
      </g>
     </g>
     <g id="text_6">
      <!-- 1.25 -->
      <g transform="translate(445.275947 547.198437) scale(0.1 -0.1)">
       <use xlink:href="#DejaVuSans-31"/>
       <use xlink:href="#DejaVuSans-2e" x="63.623047"/>
       <use xlink:href="#DejaVuSans-32" x="95.410156"/>
       <use xlink:href="#DejaVuSans-35" x="159.033203"/>
      </g>
     </g>
    </g>
    <g id="xtick_7">
     <g id="line2d_13">
      <path d="M 530.395655 532.6 
L 530.395655 43.584 
" clip-path="url(#p3a65dda872)" style="fill: none; stroke-dasharray: 2.96,1.28; stroke-dashoffset: 0; stroke: #b0b0b0; stroke-opacity: 0.7; stroke-width: 0.8"/>
     </g>
     <g id="line2d_14">
      <g>
       <use xlink:href="#mf81b7d0f9a" x="530.395655" y="532.6" style="stroke: #000000; stroke-width: 0.8"/>
      </g>
     </g>
     <g id="text_7">
      <!-- 1.50 -->
      <g transform="translate(519.262842 547.198437) scale(0.1 -0.1)">
       <use xlink:href="#DejaVuSans-31"/>
       <use xlink:href="#DejaVuSans-2e" x="63.623047"/>
       <use xlink:href="#DejaVuSans-35" x="95.410156"/>
       <use xlink:href="#DejaVuSans-30" x="159.033203"/>
      </g>
     </g>
    </g>
    <g id="xtick_8">
     <g id="line2d_15">
      <path d="M 604.38255 532.6 
L 604.38255 43.584 
" clip-path="url(#p3a65dda872)" style="fill: none; stroke-dasharray: 2.96,1.28; stroke-dashoffset: 0; stroke: #b0b0b0; stroke-opacity: 0.7; stroke-width: 0.8"/>
     </g>
     <g id="line2d_16">
      <g>
       <use xlink:href="#mf81b7d0f9a" x="604.38255" y="532.6" style="stroke: #000000; stroke-width: 0.8"/>
      </g>
     </g>
     <g id="text_8">
      <!-- 1.75 -->
      <g transform="translate(593.249738 547.198437) scale(0.1 -0.1)">
       <use xlink:href="#DejaVuSans-31"/>
       <use xlink:href="#DejaVuSans-2e" x="63.623047"/>
       <use xlink:href="#DejaVuSans-37" x="95.410156"/>
       <use xlink:href="#DejaVuSans-35" x="159.033203"/>
      </g>
     </g>
    </g>
    <g id="xtick_9">
     <g id="line2d_17">
      <path d="M 678.369445 532.6 
L 678.369445 43.584 
" clip-path="url(#p3a65dda872)" style="fill: none; stroke-dasharray: 2.96,1.28; stroke-dashoffset: 0; stroke: #b0b0b0; stroke-opacity: 0.7; stroke-width: 0.8"/>
     </g>
     <g id="line2d_18">
      <g>
       <use xlink:href="#mf81b7d0f9a" x="678.369445" y="532.6" style="stroke: #000000; stroke-width: 0.8"/>
      </g>
     </g>
     <g id="text_9">
      <!-- 2.00 -->
      <g transform="translate(667.236633 547.198437) scale(0.1 -0.1)">
       <use xlink:href="#DejaVuSans-32"/>
       <use xlink:href="#DejaVuSans-2e" x="63.623047"/>
       <use xlink:href="#DejaVuSans-30" x="95.410156"/>
       <use xlink:href="#DejaVuSans-30" x="159.033203"/>
      </g>
     </g>
    </g>
    <g id="text_10">
     <!-- $x$ (m) -->
     <g transform="translate(368.867126 560.876562) scale(0.1 -0.1)">
      <defs>
       <path id="DejaVuSans-Oblique-78" d="M 3841 3500 
L 2234 1784 
L 3219 0 
L 2559 0 
L 1819 1388 
L 531 0 
L -166 0 
L 1556 1844 
L 641 3500 
L 1300 3500 
L 1972 2234 
L 3144 3500 
L 3841 3500 
z
" transform="scale(0.015625)"/>
       <path id="DejaVuSans-20" transform="scale(0.015625)"/>
       <path id="DejaVuSans-28" d="M 1984 4856 
Q 1566 4138 1362 3434 
Q 1159 2731 1159 2009 
Q 1159 1288 1364 580 
Q 1569 -128 1984 -844 
L 1484 -844 
Q 1016 -109 783 600 
Q 550 1309 550 2009 
Q 550 2706 781 3412 
Q 1013 4119 1484 4856 
L 1984 4856 
z
" transform="scale(0.015625)"/>
       <path id="DejaVuSans-6d" d="M 3328 2828 
Q 3544 3216 3844 3400 
Q 4144 3584 4550 3584 
Q 5097 3584 5394 3201 
Q 5691 2819 5691 2113 
L 5691 0 
L 5113 0 
L 5113 2094 
Q 5113 2597 4934 2840 
Q 4756 3084 4391 3084 
Q 3944 3084 3684 2787 
Q 3425 2491 3425 1978 
L 3425 0 
L 2847 0 
L 2847 2094 
Q 2847 2600 2669 2842 
Q 2491 3084 2119 3084 
Q 1678 3084 1418 2786 
Q 1159 2488 1159 1978 
L 1159 0 
L 581 0 
L 581 3500 
L 1159 3500 
L 1159 2956 
Q 1356 3278 1631 3431 
Q 1906 3584 2284 3584 
Q 2666 3584 2933 3390 
Q 3200 3197 3328 2828 
z
" transform="scale(0.015625)"/>
       <path id="DejaVuSans-29" d="M 513 4856 
L 1013 4856 
Q 1481 4119 1714 3412 
Q 1947 2706 1947 2009 
Q 1947 1309 1714 600 
Q 1481 -109 1013 -844 
L 513 -844 
Q 928 -128 1133 580 
Q 1338 1288 1338 2009 
Q 1338 2731 1133 3434 
Q 928 4138 513 4856 
z
" transform="scale(0.015625)"/>
      </defs>
      <use xlink:href="#DejaVuSans-Oblique-78" transform="translate(0 0.125)"/>
      <use xlink:href="#DejaVuSans-20" transform="translate(59.179688 0.125)"/>
      <use xlink:href="#DejaVuSans-28" transform="translate(90.966797 0.125)"/>
      <use xlink:href="#DejaVuSans-6d" transform="translate(129.980469 0.125)"/>
      <use xlink:href="#DejaVuSans-29" transform="translate(227.392578 0.125)"/>
     </g>
    </g>
   </g>
   <g id="matplotlib.axis_2">
    <g id="ytick_1">
     <g id="line2d_19">
      <path d="M 56.9 510.372 
L 707.534252 510.372 
" clip-path="url(#p3a65dda872)" style="fill: none; stroke-dasharray: 2.96,1.28; stroke-dashoffset: 0; stroke: #b0b0b0; stroke-opacity: 0.7; stroke-width: 0.8"/>
     </g>
     <g id="line2d_20">
      <defs>
       <path id="md6d682932c" d="M 0 0 
L -3.5 0 
" style="stroke: #000000; stroke-width: 0.8"/>
      </defs>
      <g>
       <use xlink:href="#md6d682932c" x="56.9" y="510.372" style="stroke: #000000; stroke-width: 0.8"/>
      </g>
     </g>
     <g id="text_11">
      <!-- 0.00 -->
      <g transform="translate(27.634375 514.171219) scale(0.1 -0.1)">
       <use xlink:href="#DejaVuSans-30"/>
       <use xlink:href="#DejaVuSans-2e" x="63.623047"/>
       <use xlink:href="#DejaVuSans-30" x="95.410156"/>
       <use xlink:href="#DejaVuSans-30" x="159.033203"/>
      </g>
     </g>
    </g>
    <g id="ytick_2">
     <g id="line2d_21">
      <path d="M 56.9 454.830568 
L 707.534252 454.830568 
" clip-path="url(#p3a65dda872)" style="fill: none; stroke-dasharray: 2.96,1.28; stroke-dashoffset: 0; stroke: #b0b0b0; stroke-opacity: 0.7; stroke-width: 0.8"/>
     </g>
     <g id="line2d_22">
      <g>
       <use xlink:href="#md6d682932c" x="56.9" y="454.830568" style="stroke: #000000; stroke-width: 0.8"/>
      </g>
     </g>
     <g id="text_12">
      <!-- 0.25 -->
      <g transform="translate(27.634375 458.629787) scale(0.1 -0.1)">
       <use xlink:href="#DejaVuSans-30"/>
       <use xlink:href="#DejaVuSans-2e" x="63.623047"/>
       <use xlink:href="#DejaVuSans-32" x="95.410156"/>
       <use xlink:href="#DejaVuSans-35" x="159.033203"/>
      </g>
     </g>
    </g>
    <g id="ytick_3">
     <g id="line2d_23">
      <path d="M 56.9 399.289136 
L 707.534252 399.289136 
" clip-path="url(#p3a65dda872)" style="fill: none; stroke-dasharray: 2.96,1.28; stroke-dashoffset: 0; stroke: #b0b0b0; stroke-opacity: 0.7; stroke-width: 0.8"/>
     </g>
     <g id="line2d_24">
      <g>
       <use xlink:href="#md6d682932c" x="56.9" y="399.289136" style="stroke: #000000; stroke-width: 0.8"/>
      </g>
     </g>
     <g id="text_13">
      <!-- 0.50 -->
      <g transform="translate(27.634375 403.088354) scale(0.1 -0.1)">
       <use xlink:href="#DejaVuSans-30"/>
       <use xlink:href="#DejaVuSans-2e" x="63.623047"/>
       <use xlink:href="#DejaVuSans-35" x="95.410156"/>
       <use xlink:href="#DejaVuSans-30" x="159.033203"/>
      </g>
     </g>
    </g>
    <g id="ytick_4">
     <g id="line2d_25">
      <path d="M 56.9 343.747703 
L 707.534252 343.747703 
" clip-path="url(#p3a65dda872)" style="fill: none; stroke-dasharray: 2.96,1.28; stroke-dashoffset: 0; stroke: #b0b0b0; stroke-opacity: 0.7; stroke-width: 0.8"/>
     </g>
     <g id="line2d_26">
      <g>
       <use xlink:href="#md6d682932c" x="56.9" y="343.747703" style="stroke: #000000; stroke-width: 0.8"/>
      </g>
     </g>
     <g id="text_14">
      <!-- 0.75 -->
      <g transform="translate(27.634375 347.546922) scale(0.1 -0.1)">
       <use xlink:href="#DejaVuSans-30"/>
       <use xlink:href="#DejaVuSans-2e" x="63.623047"/>
       <use xlink:href="#DejaVuSans-37" x="95.410156"/>
       <use xlink:href="#DejaVuSans-35" x="159.033203"/>
      </g>
     </g>
    </g>
    <g id="ytick_5">
     <g id="line2d_27">
      <path d="M 56.9 288.206271 
L 707.534252 288.206271 
" clip-path="url(#p3a65dda872)" style="fill: none; stroke-dasharray: 2.96,1.28; stroke-dashoffset: 0; stroke: #b0b0b0; stroke-opacity: 0.7; stroke-width: 0.8"/>
     </g>
     <g id="line2d_28">
      <g>
       <use xlink:href="#md6d682932c" x="56.9" y="288.206271" style="stroke: #000000; stroke-width: 0.8"/>
      </g>
     </g>
     <g id="text_15">
      <!-- 1.00 -->
      <g transform="translate(27.634375 292.00549) scale(0.1 -0.1)">
       <use xlink:href="#DejaVuSans-31"/>
       <use xlink:href="#DejaVuSans-2e" x="63.623047"/>
       <use xlink:href="#DejaVuSans-30" x="95.410156"/>
       <use xlink:href="#DejaVuSans-30" x="159.033203"/>
      </g>
     </g>
    </g>
    <g id="ytick_6">
     <g id="line2d_29">
      <path d="M 56.9 232.664839 
L 707.534252 232.664839 
" clip-path="url(#p3a65dda872)" style="fill: none; stroke-dasharray: 2.96,1.28; stroke-dashoffset: 0; stroke: #b0b0b0; stroke-opacity: 0.7; stroke-width: 0.8"/>
     </g>
     <g id="line2d_30">
      <g>
       <use xlink:href="#md6d682932c" x="56.9" y="232.664839" style="stroke: #000000; stroke-width: 0.8"/>
      </g>
     </g>
     <g id="text_16">
      <!-- 1.25 -->
      <g transform="translate(27.634375 236.464058) scale(0.1 -0.1)">
       <use xlink:href="#DejaVuSans-31"/>
       <use xlink:href="#DejaVuSans-2e" x="63.623047"/>
       <use xlink:href="#DejaVuSans-32" x="95.410156"/>
       <use xlink:href="#DejaVuSans-35" x="159.033203"/>
      </g>
     </g>
    </g>
    <g id="ytick_7">
     <g id="line2d_31">
      <path d="M 56.9 177.123407 
L 707.534252 177.123407 
" clip-path="url(#p3a65dda872)" style="fill: none; stroke-dasharray: 2.96,1.28; stroke-dashoffset: 0; stroke: #b0b0b0; stroke-opacity: 0.7; stroke-width: 0.8"/>
     </g>
     <g id="line2d_32">
      <g>
       <use xlink:href="#md6d682932c" x="56.9" y="177.123407" style="stroke: #000000; stroke-width: 0.8"/>
      </g>
     </g>
     <g id="text_17">
      <!-- 1.50 -->
      <g transform="translate(27.634375 180.922625) scale(0.1 -0.1)">
       <use xlink:href="#DejaVuSans-31"/>
       <use xlink:href="#DejaVuSans-2e" x="63.623047"/>
       <use xlink:href="#DejaVuSans-35" x="95.410156"/>
       <use xlink:href="#DejaVuSans-30" x="159.033203"/>
      </g>
     </g>
    </g>
    <g id="ytick_8">
     <g id="line2d_33">
      <path d="M 56.9 121.581974 
L 707.534252 121.581974 
" clip-path="url(#p3a65dda872)" style="fill: none; stroke-dasharray: 2.96,1.28; stroke-dashoffset: 0; stroke: #b0b0b0; stroke-opacity: 0.7; stroke-width: 0.8"/>
     </g>
     <g id="line2d_34">
      <g>
       <use xlink:href="#md6d682932c" x="56.9" y="121.581974" style="stroke: #000000; stroke-width: 0.8"/>
      </g>
     </g>
     <g id="text_18">
      <!-- 1.75 -->
      <g transform="translate(27.634375 125.381193) scale(0.1 -0.1)">
       <use xlink:href="#DejaVuSans-31"/>
       <use xlink:href="#DejaVuSans-2e" x="63.623047"/>
       <use xlink:href="#DejaVuSans-37" x="95.410156"/>
       <use xlink:href="#DejaVuSans-35" x="159.033203"/>
      </g>
     </g>
    </g>
    <g id="ytick_9">
     <g id="line2d_35">
      <path d="M 56.9 66.040542 
L 707.534252 66.040542 
" clip-path="url(#p3a65dda872)" style="fill: none; stroke-dasharray: 2.96,1.28; stroke-dashoffset: 0; stroke: #b0b0b0; stroke-opacity: 0.7; stroke-width: 0.8"/>
     </g>
     <g id="line2d_36">
      <g>
       <use xlink:href="#md6d682932c" x="56.9" y="66.040542" style="stroke: #000000; stroke-width: 0.8"/>
      </g>
     </g>
     <g id="text_19">
      <!-- 2.00 -->
      <g transform="translate(27.634375 69.839761) scale(0.1 -0.1)">
       <use xlink:href="#DejaVuSans-32"/>
       <use xlink:href="#DejaVuSans-2e" x="63.623047"/>
       <use xlink:href="#DejaVuSans-30" x="95.410156"/>
       <use xlink:href="#DejaVuSans-30" x="159.033203"/>
      </g>
     </g>
    </g>
    <g id="text_20">
     <!-- $|E_z| (V/m)$ -->
     <g transform="translate(21.234375 310.492) rotate(-90) scale(0.1 -0.1)">
      <defs>
       <path id="DejaVuSans-7c" d="M 1344 4891 
L 1344 -1509 
L 813 -1509 
L 813 4891 
L 1344 4891 
z
" transform="scale(0.015625)"/>
       <path id="DejaVuSans-Oblique-45" d="M 1081 4666 
L 4031 4666 
L 3928 4134 
L 1606 4134 
L 1338 2753 
L 3566 2753 
L 3463 2222 
L 1234 2222 
L 909 531 
L 3284 531 
L 3181 0 
L 172 0 
L 1081 4666 
z
" transform="scale(0.015625)"/>
       <path id="DejaVuSans-Oblique-7a" d="M 744 3500 
L 3475 3500 
L 3372 2975 
L 738 459 
L 2913 459 
L 2822 0 
L -19 0 
L 84 525 
L 2719 3041 
L 653 3041 
L 744 3500 
z
" transform="scale(0.015625)"/>
       <path id="DejaVuSans-Oblique-56" d="M 1319 0 
L 500 4666 
L 1119 4666 
L 1797 653 
L 4063 4666 
L 4750 4666 
L 2053 0 
L 1319 0 
z
" transform="scale(0.015625)"/>
       <path id="DejaVuSans-2f" d="M 1625 4666 
L 2156 4666 
L 531 -594 
L 0 -594 
L 1625 4666 
z
" transform="scale(0.015625)"/>
       <path id="DejaVuSans-Oblique-6d" d="M 5747 2113 
L 5338 0 
L 4763 0 
L 5166 2094 
Q 5191 2228 5203 2325 
Q 5216 2422 5216 2491 
Q 5216 2772 5059 2928 
Q 4903 3084 4622 3084 
Q 4203 3084 3875 2770 
Q 3547 2456 3450 1953 
L 3066 0 
L 2491 0 
L 2900 2094 
Q 2925 2209 2937 2307 
Q 2950 2406 2950 2484 
Q 2950 2769 2794 2926 
Q 2638 3084 2363 3084 
Q 1938 3084 1609 2770 
Q 1281 2456 1184 1953 
L 800 0 
L 225 0 
L 909 3500 
L 1484 3500 
L 1375 2956 
Q 1609 3263 1923 3423 
Q 2238 3584 2597 3584 
Q 2978 3584 3223 3384 
Q 3469 3184 3519 2828 
Q 3781 3197 4126 3390 
Q 4472 3584 4856 3584 
Q 5306 3584 5551 3325 
Q 5797 3066 5797 2591 
Q 5797 2488 5784 2364 
Q 5772 2241 5747 2113 
z
" transform="scale(0.015625)"/>
      </defs>
      <use xlink:href="#DejaVuSans-7c" transform="translate(0 0.578125)"/>
      <use xlink:href="#DejaVuSans-Oblique-45" transform="translate(33.691406 0.578125)"/>
      <use xlink:href="#DejaVuSans-Oblique-7a" transform="translate(96.875 -15.828125) scale(0.7)"/>
      <use xlink:href="#DejaVuSans-7c" transform="translate(136.352539 0.578125)"/>
      <use xlink:href="#DejaVuSans-28" transform="translate(170.043945 0.578125)"/>
      <use xlink:href="#DejaVuSans-Oblique-56" transform="translate(209.057617 0.578125)"/>
      <use xlink:href="#DejaVuSans-2f" transform="translate(277.46582 0.578125)"/>
      <use xlink:href="#DejaVuSans-Oblique-6d" transform="translate(311.157227 0.578125)"/>
      <use xlink:href="#DejaVuSans-29" transform="translate(408.569336 0.578125)"/>
     </g>
    </g>
   </g>
   <g id="line2d_37">
    <path d="M 86.474284 288.206309 
L 93.867855 288.20072 
L 101.261426 288.184498 
L 108.654997 288.159231 
L 116.048568 288.127389 
L 123.442139 288.092085 
L 130.835711 288.056769 
L 138.229282 288.024889 
L 145.622853 287.999559 
L 153.016424 287.983249 
L 160.409995 287.977552 
L 167.803566 287.983022 
L 175.197137 287.999126 
L 182.590708 288.024294 
L 189.984279 288.056068 
L 197.37785 288.091348 
L 204.771421 288.126687 
L 212.164992 288.158633 
L 219.558563 288.184063 
L 226.952134 288.20049 
L 234.345705 288.206307 
L 241.739276 288.200945 
L 249.132847 288.184929 
L 256.526418 288.159825 
L 263.919989 288.128089 
L 271.31356 288.092822 
L 278.707132 288.057471 
L 286.100703 288.025488 
L 293.494274 287.999995 
L 300.887845 287.983481 
L 308.281416 287.977557 
L 315.674987 287.982799 
L 323.068558 287.998698 
L 330.462129 288.023701 
L 337.8557 288.05537 
L 345.249271 288.090611 
L 352.642842 288.125985 
L 360.036413 288.158033 
L 367.429984 288.183624 
L 374.823555 288.200255 
L 382.217126 288.2063 
L 389.610697 288.201166 
L 397.004268 288.185356 
L 404.397839 288.160417 
L 411.79141 288.128787 
L 419.184981 288.093558 
L 426.578553 288.058174 
L 433.972124 288.026089 
L 441.365695 288.000436 
L 448.759266 287.983718 
L 456.152837 287.977566 
L 463.546408 287.982581 
L 470.939979 287.998273 
L 478.33355 288.023111 
L 485.727121 288.054672 
L 493.120692 288.089875 
L 500.514263 288.125281 
L 507.907834 288.157431 
L 515.301405 288.183182 
L 522.694976 288.200017 
L 530.088547 288.206288 
L 537.482118 288.201382 
L 544.875689 288.185779 
L 552.26926 288.161005 
L 559.662831 288.129484 
L 567.056402 288.094295 
L 574.449974 288.058878 
L 581.843545 288.026692 
L 589.237116 288.000879 
L 596.630687 287.983958 
L 604.024258 287.97758 
L 611.417829 287.982367 
L 618.8114 287.997852 
L 626.204971 288.022524 
L 633.598542 288.053977 
L 640.992113 288.089138 
L 648.385684 288.124575 
L 655.779255 288.156825 
L 663.172826 288.182736 
L 670.566397 288.199773 
L 677.959968 288.206271 
" clip-path="url(#p3a65dda872)" style="fill: none; stroke: #ff0000; stroke-linecap: square"/>
   </g>
   <g id="line2d_38">
    <path d="M 86.474284 288.206271 
L 93.867855 288.206271 
L 101.261426 288.206271 
L 108.654997 288.206271 
L 116.048568 288.206271 
L 123.442139 288.206271 
L 130.835711 288.206271 
L 138.229282 288.206271 
L 145.622853 288.206271 
L 153.016424 288.206271 
L 160.409995 288.206271 
L 167.803566 288.206271 
L 175.197137 288.206271 
L 182.590708 288.206271 
L 189.984279 288.206271 
L 197.37785 288.206271 
L 204.771421 288.206271 
L 212.164992 288.206271 
L 219.558563 288.206271 
L 226.952134 288.206271 
L 234.345705 288.206271 
L 241.739276 288.206271 
L 249.132847 288.206271 
L 256.526418 288.206271 
L 263.919989 288.206271 
L 271.31356 288.206271 
L 278.707132 288.206271 
L 286.100703 288.206271 
L 293.494274 288.206271 
L 300.887845 288.206271 
L 308.281416 288.206271 
L 315.674987 288.206271 
L 323.068558 288.206271 
L 330.462129 288.206271 
L 337.8557 288.206271 
L 345.249271 288.206271 
L 352.642842 288.206271 
L 360.036413 288.206271 
L 367.429984 288.206271 
L 374.823555 288.206271 
L 382.217126 288.206271 
L 389.610697 288.206271 
L 397.004268 288.206271 
L 404.397839 288.206271 
L 411.79141 288.206271 
L 419.184981 288.206271 
L 426.578553 288.206271 
L 433.972124 288.206271 
L 441.365695 288.206271 
L 448.759266 288.206271 
L 456.152837 288.206271 
L 463.546408 288.206271 
L 470.939979 288.206271 
L 478.33355 288.206271 
L 485.727121 288.206271 
L 493.120692 288.206271 
L 500.514263 288.206271 
L 507.907834 288.206271 
L 515.301405 288.206271 
L 522.694976 288.206271 
L 530.088547 288.206271 
L 537.482118 288.206271 
L 544.875689 288.206271 
L 552.26926 288.206271 
L 559.662831 288.206271 
L 567.056402 288.206271 
L 574.449974 288.206271 
L 581.843545 288.206271 
L 589.237116 288.206271 
L 596.630687 288.206271 
L 604.024258 288.206271 
L 611.417829 288.206271 
L 618.8114 288.206271 
L 626.204971 288.206271 
L 633.598542 288.206271 
L 640.992113 288.206271 
L 648.385684 288.206271 
L 655.779255 288.206271 
L 663.172826 288.206271 
L 670.566397 288.206271 
L 677.959968 288.206271 
" clip-path="url(#p3a65dda872)" style="fill: none; stroke-dasharray: 3.7,1.6; stroke-dashoffset: 0; stroke: #0000ff"/>
   </g>
   <g id="line2d_39">
    <path d="M 86.474284 507.506797 
L 93.867855 438.034322 
L 101.261426 370.341218 
L 108.654997 306.092609 
L 116.048568 246.868888 
L 123.442139 194.126849 
L 130.835711 149.163845 
L 138.229282 113.085883 
L 145.622853 86.780412 
L 153.016424 70.894498 
L 160.409995 65.818904 
L 167.803566 71.67848 
L 175.197137 88.329091 
L 182.590708 115.361165 
L 189.984279 152.109762 
L 197.37785 197.670936 
L 204.771421 250.923968 
L 212.164992 310.558935 
L 219.558563 375.108926 
L 226.952134 442.986135 
L 234.345705 508.223091 
L 241.739276 438.741176 
L 249.132847 371.021245 
L 256.526418 306.72908 
L 263.919989 247.446148 
L 271.31356 194.630698 
L 278.707132 149.58189 
L 286.100703 113.40784 
L 293.494274 86.998363 
L 300.887845 71.00308 
L 308.281416 65.815447 
L 315.674987 71.563069 
L 323.068558 88.104565 
L 330.462129 115.033047 
L 337.8557 151.686123 
L 345.249271 197.162196 
L 352.642842 250.342642 
L 360.036413 309.919322 
L 367.429984 374.426759 
L 374.823555 442.278195 
L 382.217126 508.939391 
L 389.610697 439.448216 
L 397.004268 371.701633 
L 404.397839 307.36608 
L 411.79141 248.024091 
L 419.184981 195.135368 
L 426.578553 150.000873 
L 433.972124 113.73083 
L 441.365695 87.217414 
L 448.759266 71.112805 
L 456.152837 65.813146 
L 463.546408 71.448799 
L 470.939979 87.881137 
L 478.33355 114.705956 
L 485.727121 151.263416 
L 493.120692 196.654271 
L 500.514263 249.761992 
L 507.907834 309.28023 
L 515.301405 373.744946 
L 522.694976 441.570431 
L 530.088547 509.655695 
L 537.482118 440.15544 
L 544.875689 372.382381 
L 552.26926 308.003608 
L 559.662831 248.602716 
L 567.056402 195.640857 
L 574.449974 150.420792 
L 581.843545 114.05485 
L 589.237116 87.437564 
L 596.630687 71.223671 
L 604.024258 65.812 
L 611.417829 71.335669 
L 618.8114 87.658807 
L 626.204971 114.379894 
L 633.598542 150.841642 
L 640.992113 196.147161 
L 648.385684 249.182019 
L 655.779255 308.64166 
L 663.172826 373.063488 
L 670.566397 440.862847 
L 677.959968 510.372 
" clip-path="url(#p3a65dda872)" style="fill: none; stroke: #008000; stroke-width: 2; stroke-linecap: square"/>
   </g>
   <g id="line2d_40">
    <path d="M 677.959968 532.6 
L 677.959968 43.584 
" clip-path="url(#p3a65dda872)" style="fill: none; stroke: #000000; stroke-width: 2; stroke-linecap: square"/>
   </g>
   <g id="patch_3">
    <path d="M 56.9 532.6 
L 56.9 43.584 
" style="fill: none; stroke: #000000; stroke-width: 0.8; stroke-linejoin: miter; stroke-linecap: square"/>
   </g>
   <g id="patch_4">
    <path d="M 707.534252 532.6 
L 707.534252 43.584 
" style="fill: none; stroke: #000000; stroke-width: 0.8; stroke-linejoin: miter; stroke-linecap: square"/>
   </g>
   <g id="patch_5">
    <path d="M 56.9 532.6 
L 707.534252 532.6 
" style="fill: none; stroke: #000000; stroke-width: 0.8; stroke-linejoin: miter; stroke-linecap: square"/>
   </g>
   <g id="patch_6">
    <path d="M 56.9 43.584 
L 707.534252 43.584 
" style="fill: none; stroke: #000000; stroke-width: 0.8; stroke-linejoin: miter; stroke-linecap: square"/>
   </g>
   <g id="text_21">
    <!-- Scattered and total fields for lossy dielectric slab -->
    <g transform="translate(235.495564 24.146625) scale(0.12 -0.12)">
     <defs>
      <path id="DejaVuSans-53" d="M 3425 4513 
L 3425 3897 
Q 3066 4069 2747 4153 
Q 2428 4238 2131 4238 
Q 1616 4238 1336 4038 
Q 1056 3838 1056 3469 
Q 1056 3159 1242 3001 
Q 1428 2844 1947 2747 
L 2328 2669 
Q 3034 2534 3370 2195 
Q 3706 1856 3706 1288 
Q 3706 609 3251 259 
Q 2797 -91 1919 -91 
Q 1588 -91 1214 -16 
Q 841 59 441 206 
L 441 856 
Q 825 641 1194 531 
Q 1563 422 1919 422 
Q 2459 422 2753 634 
Q 3047 847 3047 1241 
Q 3047 1584 2836 1778 
Q 2625 1972 2144 2069 
L 1759 2144 
Q 1053 2284 737 2584 
Q 422 2884 422 3419 
Q 422 4038 858 4394 
Q 1294 4750 2059 4750 
Q 2388 4750 2728 4690 
Q 3069 4631 3425 4513 
z
" transform="scale(0.015625)"/>
      <path id="DejaVuSans-63" d="M 3122 3366 
L 3122 2828 
Q 2878 2963 2633 3030 
Q 2388 3097 2138 3097 
Q 1578 3097 1268 2742 
Q 959 2388 959 1747 
Q 959 1106 1268 751 
Q 1578 397 2138 397 
Q 2388 397 2633 464 
Q 2878 531 3122 666 
L 3122 134 
Q 2881 22 2623 -34 
Q 2366 -91 2075 -91 
Q 1284 -91 818 406 
Q 353 903 353 1747 
Q 353 2603 823 3093 
Q 1294 3584 2113 3584 
Q 2378 3584 2631 3529 
Q 2884 3475 3122 3366 
z
" transform="scale(0.015625)"/>
      <path id="DejaVuSans-61" d="M 2194 1759 
Q 1497 1759 1228 1600 
Q 959 1441 959 1056 
Q 959 750 1161 570 
Q 1363 391 1709 391 
Q 2188 391 2477 730 
Q 2766 1069 2766 1631 
L 2766 1759 
L 2194 1759 
z
M 3341 1997 
L 3341 0 
L 2766 0 
L 2766 531 
Q 2569 213 2275 61 
Q 1981 -91 1556 -91 
Q 1019 -91 701 211 
Q 384 513 384 1019 
Q 384 1609 779 1909 
Q 1175 2209 1959 2209 
L 2766 2209 
L 2766 2266 
Q 2766 2663 2505 2880 
Q 2244 3097 1772 3097 
Q 1472 3097 1187 3025 
Q 903 2953 641 2809 
L 641 3341 
Q 956 3463 1253 3523 
Q 1550 3584 1831 3584 
Q 2591 3584 2966 3190 
Q 3341 2797 3341 1997 
z
" transform="scale(0.015625)"/>
      <path id="DejaVuSans-74" d="M 1172 4494 
L 1172 3500 
L 2356 3500 
L 2356 3053 
L 1172 3053 
L 1172 1153 
Q 1172 725 1289 603 
Q 1406 481 1766 481 
L 2356 481 
L 2356 0 
L 1766 0 
Q 1100 0 847 248 
Q 594 497 594 1153 
L 594 3053 
L 172 3053 
L 172 3500 
L 594 3500 
L 594 4494 
L 1172 4494 
z
" transform="scale(0.015625)"/>
      <path id="DejaVuSans-65" d="M 3597 1894 
L 3597 1613 
L 953 1613 
Q 991 1019 1311 708 
Q 1631 397 2203 397 
Q 2534 397 2845 478 
Q 3156 559 3463 722 
L 3463 178 
Q 3153 47 2828 -22 
Q 2503 -91 2169 -91 
Q 1331 -91 842 396 
Q 353 884 353 1716 
Q 353 2575 817 3079 
Q 1281 3584 2069 3584 
Q 2775 3584 3186 3129 
Q 3597 2675 3597 1894 
z
M 3022 2063 
Q 3016 2534 2758 2815 
Q 2500 3097 2075 3097 
Q 1594 3097 1305 2825 
Q 1016 2553 972 2059 
L 3022 2063 
z
" transform="scale(0.015625)"/>
      <path id="DejaVuSans-72" d="M 2631 2963 
Q 2534 3019 2420 3045 
Q 2306 3072 2169 3072 
Q 1681 3072 1420 2755 
Q 1159 2438 1159 1844 
L 1159 0 
L 581 0 
L 581 3500 
L 1159 3500 
L 1159 2956 
Q 1341 3275 1631 3429 
Q 1922 3584 2338 3584 
Q 2397 3584 2469 3576 
Q 2541 3569 2628 3553 
L 2631 2963 
z
" transform="scale(0.015625)"/>
      <path id="DejaVuSans-64" d="M 2906 2969 
L 2906 4863 
L 3481 4863 
L 3481 0 
L 2906 0 
L 2906 525 
Q 2725 213 2448 61 
Q 2172 -91 1784 -91 
Q 1150 -91 751 415 
Q 353 922 353 1747 
Q 353 2572 751 3078 
Q 1150 3584 1784 3584 
Q 2172 3584 2448 3432 
Q 2725 3281 2906 2969 
z
M 947 1747 
Q 947 1113 1208 752 
Q 1469 391 1925 391 
Q 2381 391 2643 752 
Q 2906 1113 2906 1747 
Q 2906 2381 2643 2742 
Q 2381 3103 1925 3103 
Q 1469 3103 1208 2742 
Q 947 2381 947 1747 
z
" transform="scale(0.015625)"/>
      <path id="DejaVuSans-6e" d="M 3513 2113 
L 3513 0 
L 2938 0 
L 2938 2094 
Q 2938 2591 2744 2837 
Q 2550 3084 2163 3084 
Q 1697 3084 1428 2787 
Q 1159 2491 1159 1978 
L 1159 0 
L 581 0 
L 581 3500 
L 1159 3500 
L 1159 2956 
Q 1366 3272 1645 3428 
Q 1925 3584 2291 3584 
Q 2894 3584 3203 3211 
Q 3513 2838 3513 2113 
z
" transform="scale(0.015625)"/>
      <path id="DejaVuSans-6f" d="M 1959 3097 
Q 1497 3097 1228 2736 
Q 959 2375 959 1747 
Q 959 1119 1226 758 
Q 1494 397 1959 397 
Q 2419 397 2687 759 
Q 2956 1122 2956 1747 
Q 2956 2369 2687 2733 
Q 2419 3097 1959 3097 
z
M 1959 3584 
Q 2709 3584 3137 3096 
Q 3566 2609 3566 1747 
Q 3566 888 3137 398 
Q 2709 -91 1959 -91 
Q 1206 -91 779 398 
Q 353 888 353 1747 
Q 353 2609 779 3096 
Q 1206 3584 1959 3584 
z
" transform="scale(0.015625)"/>
      <path id="DejaVuSans-6c" d="M 603 4863 
L 1178 4863 
L 1178 0 
L 603 0 
L 603 4863 
z
" transform="scale(0.015625)"/>
      <path id="DejaVuSans-66" d="M 2375 4863 
L 2375 4384 
L 1825 4384 
Q 1516 4384 1395 4259 
Q 1275 4134 1275 3809 
L 1275 3500 
L 2222 3500 
L 2222 3053 
L 1275 3053 
L 1275 0 
L 697 0 
L 697 3053 
L 147 3053 
L 147 3500 
L 697 3500 
L 697 3744 
Q 697 4328 969 4595 
Q 1241 4863 1831 4863 
L 2375 4863 
z
" transform="scale(0.015625)"/>
      <path id="DejaVuSans-69" d="M 603 3500 
L 1178 3500 
L 1178 0 
L 603 0 
L 603 3500 
z
M 603 4863 
L 1178 4863 
L 1178 4134 
L 603 4134 
L 603 4863 
z
" transform="scale(0.015625)"/>
      <path id="DejaVuSans-73" d="M 2834 3397 
L 2834 2853 
Q 2591 2978 2328 3040 
Q 2066 3103 1784 3103 
Q 1356 3103 1142 2972 
Q 928 2841 928 2578 
Q 928 2378 1081 2264 
Q 1234 2150 1697 2047 
L 1894 2003 
Q 2506 1872 2764 1633 
Q 3022 1394 3022 966 
Q 3022 478 2636 193 
Q 2250 -91 1575 -91 
Q 1294 -91 989 -36 
Q 684 19 347 128 
L 347 722 
Q 666 556 975 473 
Q 1284 391 1588 391 
Q 1994 391 2212 530 
Q 2431 669 2431 922 
Q 2431 1156 2273 1281 
Q 2116 1406 1581 1522 
L 1381 1569 
Q 847 1681 609 1914 
Q 372 2147 372 2553 
Q 372 3047 722 3315 
Q 1072 3584 1716 3584 
Q 2034 3584 2315 3537 
Q 2597 3491 2834 3397 
z
" transform="scale(0.015625)"/>
      <path id="DejaVuSans-79" d="M 2059 -325 
Q 1816 -950 1584 -1140 
Q 1353 -1331 966 -1331 
L 506 -1331 
L 506 -850 
L 844 -850 
Q 1081 -850 1212 -737 
Q 1344 -625 1503 -206 
L 1606 56 
L 191 3500 
L 800 3500 
L 1894 763 
L 2988 3500 
L 3597 3500 
L 2059 -325 
z
" transform="scale(0.015625)"/>
      <path id="DejaVuSans-62" d="M 3116 1747 
Q 3116 2381 2855 2742 
Q 2594 3103 2138 3103 
Q 1681 3103 1420 2742 
Q 1159 2381 1159 1747 
Q 1159 1113 1420 752 
Q 1681 391 2138 391 
Q 2594 391 2855 752 
Q 3116 1113 3116 1747 
z
M 1159 2969 
Q 1341 3281 1617 3432 
Q 1894 3584 2278 3584 
Q 2916 3584 3314 3078 
Q 3713 2572 3713 1747 
Q 3713 922 3314 415 
Q 2916 -91 2278 -91 
Q 1894 -91 1617 61 
Q 1341 213 1159 525 
L 1159 0 
L 581 0 
L 581 4863 
L 1159 4863 
L 1159 2969 
z
" transform="scale(0.015625)"/>
     </defs>
     <use xlink:href="#DejaVuSans-53"/>
     <use xlink:href="#DejaVuSans-63" x="63.476562"/>
     <use xlink:href="#DejaVuSans-61" x="118.457031"/>
     <use xlink:href="#DejaVuSans-74" x="179.736328"/>
     <use xlink:href="#DejaVuSans-74" x="218.945312"/>
     <use xlink:href="#DejaVuSans-65" x="258.154297"/>
     <use xlink:href="#DejaVuSans-72" x="319.677734"/>
     <use xlink:href="#DejaVuSans-65" x="358.541016"/>
     <use xlink:href="#DejaVuSans-64" x="420.064453"/>
     <use xlink:href="#DejaVuSans-20" x="483.541016"/>
     <use xlink:href="#DejaVuSans-61" x="515.328125"/>
     <use xlink:href="#DejaVuSans-6e" x="576.607422"/>
     <use xlink:href="#DejaVuSans-64" x="639.986328"/>
     <use xlink:href="#DejaVuSans-20" x="703.462891"/>
     <use xlink:href="#DejaVuSans-74" x="735.25"/>
     <use xlink:href="#DejaVuSans-6f" x="774.458984"/>
     <use xlink:href="#DejaVuSans-74" x="835.640625"/>
     <use xlink:href="#DejaVuSans-61" x="874.849609"/>
     <use xlink:href="#DejaVuSans-6c" x="936.128906"/>
     <use xlink:href="#DejaVuSans-20" x="963.912109"/>
     <use xlink:href="#DejaVuSans-66" x="995.699219"/>
     <use xlink:href="#DejaVuSans-69" x="1030.904297"/>
     <use xlink:href="#DejaVuSans-65" x="1058.6875"/>
     <use xlink:href="#DejaVuSans-6c" x="1120.210938"/>
     <use xlink:href="#DejaVuSans-64" x="1147.994141"/>
     <use xlink:href="#DejaVuSans-73" x="1211.470703"/>
     <use xlink:href="#DejaVuSans-20" x="1263.570312"/>
     <use xlink:href="#DejaVuSans-66" x="1295.357422"/>
     <use xlink:href="#DejaVuSans-6f" x="1330.5625"/>
     <use xlink:href="#DejaVuSans-72" x="1391.744141"/>
     <use xlink:href="#DejaVuSans-20" x="1432.857422"/>
     <use xlink:href="#DejaVuSans-6c" x="1464.644531"/>
     <use xlink:href="#DejaVuSans-6f" x="1492.427734"/>
     <use xlink:href="#DejaVuSans-73" x="1553.609375"/>
     <use xlink:href="#DejaVuSans-73" x="1605.708984"/>
     <use xlink:href="#DejaVuSans-79" x="1657.808594"/>
     <use xlink:href="#DejaVuSans-20" x="1716.988281"/>
     <use xlink:href="#DejaVuSans-64" x="1748.775391"/>
     <use xlink:href="#DejaVuSans-69" x="1812.251953"/>
     <use xlink:href="#DejaVuSans-65" x="1840.035156"/>
     <use xlink:href="#DejaVuSans-6c" x="1901.558594"/>
     <use xlink:href="#DejaVuSans-65" x="1929.341797"/>
     <use xlink:href="#DejaVuSans-63" x="1990.865234"/>
     <use xlink:href="#DejaVuSans-74" x="2045.845703"/>
     <use xlink:href="#DejaVuSans-72" x="2085.054688"/>
     <use xlink:href="#DejaVuSans-69" x="2126.167969"/>
     <use xlink:href="#DejaVuSans-63" x="2153.951172"/>
     <use xlink:href="#DejaVuSans-20" x="2208.931641"/>
     <use xlink:href="#DejaVuSans-73" x="2240.71875"/>
     <use xlink:href="#DejaVuSans-6c" x="2292.818359"/>
     <use xlink:href="#DejaVuSans-61" x="2320.601562"/>
     <use xlink:href="#DejaVuSans-62" x="2381.880859"/>
    </g>
    <!-- $\varepsilon_r = 1$ and $\sigma = 0$ S/m -->
    <g transform="translate(322.217126 37.584) scale(0.12 -0.12)">
     <defs>
      <path id="DejaVuSans-Oblique-3b5" d="M 1263 1888 
Q 925 1963 778 2166 
Q 669 2309 669 2503 
Q 669 3034 1175 3344 
Q 1575 3588 2188 3588 
Q 2425 3588 2684 3550 
Q 2944 3513 3234 3438 
L 3134 2916 
Q 2847 3006 2606 3047 
Q 2359 3088 2138 3088 
Q 1766 3088 1522 2944 
Q 1228 2772 1228 2522 
Q 1228 2356 1381 2241 
Q 1563 2103 1925 2103 
L 2409 2103 
L 2319 1628 
L 1856 1628 
Q 1425 1628 1172 1469 
Q 828 1253 828 916 
Q 828 703 1013 563 
Q 1244 388 1716 388 
Q 2006 388 2284 444 
Q 2563 503 2806 619 
L 2700 84 
Q 2403 -3 2131 -47 
Q 1859 -91 1609 -91 
Q 866 -91 516 194 
Q 250 413 250 781 
Q 250 1278 600 1584 
Q 859 1813 1263 1888 
z
" transform="scale(0.015625)"/>
      <path id="DejaVuSans-Oblique-72" d="M 2853 2969 
Q 2766 3016 2653 3041 
Q 2541 3066 2413 3066 
Q 1953 3066 1609 2717 
Q 1266 2369 1153 1784 
L 800 0 
L 225 0 
L 909 3500 
L 1484 3500 
L 1375 2956 
Q 1603 3259 1920 3421 
Q 2238 3584 2597 3584 
Q 2691 3584 2781 3573 
Q 2872 3563 2963 3538 
L 2853 2969 
z
" transform="scale(0.015625)"/>
      <path id="DejaVuSans-3d" d="M 678 2906 
L 4684 2906 
L 4684 2381 
L 678 2381 
L 678 2906 
z
M 678 1631 
L 4684 1631 
L 4684 1100 
L 678 1100 
L 678 1631 
z
" transform="scale(0.015625)"/>
      <path id="DejaVuSans-Oblique-3c3" d="M 2219 3044 
Q 1744 3044 1422 2700 
Q 1081 2341 969 1747 
Q 844 1119 1044 756 
Q 1241 397 1706 397 
Q 2166 397 2503 759 
Q 2844 1122 2966 1747 
Q 3075 2319 2881 2700 
Q 2700 3044 2219 3044 
z
M 2309 3503 
L 4219 3500 
L 4106 2925 
L 3463 2925 
Q 3706 2438 3575 1747 
Q 3406 888 2884 400 
Q 2359 -91 1609 -91 
Q 856 -91 525 400 
Q 194 888 363 1747 
Q 528 2609 1050 3097 
Q 1484 3503 2309 3503 
z
" transform="scale(0.015625)"/>
     </defs>
     <use xlink:href="#DejaVuSans-Oblique-3b5" transform="translate(0 0.015625)"/>
     <use xlink:href="#DejaVuSans-Oblique-72" transform="translate(54.052734 -16.390625) scale(0.7)"/>
     <use xlink:href="#DejaVuSans-3d" transform="translate(105.048828 0.015625)"/>
     <use xlink:href="#DejaVuSans-31" transform="translate(208.320312 0.015625)"/>
     <use xlink:href="#DejaVuSans-20" transform="translate(271.943359 0.015625)"/>
     <use xlink:href="#DejaVuSans-61" transform="translate(303.730469 0.015625)"/>
     <use xlink:href="#DejaVuSans-6e" transform="translate(365.009766 0.015625)"/>
     <use xlink:href="#DejaVuSans-64" transform="translate(428.388672 0.015625)"/>
     <use xlink:href="#DejaVuSans-20" transform="translate(491.865234 0.015625)"/>
     <use xlink:href="#DejaVuSans-Oblique-3c3" transform="translate(523.652344 0.015625)"/>
     <use xlink:href="#DejaVuSans-3d" transform="translate(606.513672 0.015625)"/>
     <use xlink:href="#DejaVuSans-30" transform="translate(709.785156 0.015625)"/>
     <use xlink:href="#DejaVuSans-20" transform="translate(773.408203 0.015625)"/>
     <use xlink:href="#DejaVuSans-53" transform="translate(805.195312 0.015625)"/>
     <use xlink:href="#DejaVuSans-2f" transform="translate(868.671875 0.015625)"/>
     <use xlink:href="#DejaVuSans-6d" transform="translate(902.363281 0.015625)"/>
    </g>
   </g>
   <g id="legend_1">
    <g id="patch_7">
     <path d="M 714.534252 320.781062 
L 850.834252 320.781062 
Q 852.834252 320.781062 852.834252 318.781062 
L 852.834252 257.402937 
Q 852.834252 255.402937 850.834252 255.402937 
L 714.534252 255.402937 
Q 712.534252 255.402937 712.534252 257.402937 
L 712.534252 318.781062 
Q 712.534252 320.781062 714.534252 320.781062 
z
" style="fill: #ffffff; opacity: 0.8; stroke: #cccccc; stroke-linejoin: miter"/>
    </g>
    <g id="line2d_41">
     <path d="M 716.534252 263.702937 
L 726.534252 263.702937 
L 736.534252 263.702937 
" style="fill: none; stroke: #ff0000; stroke-linecap: square"/>
    </g>
    <g id="text_22">
     <!-- $|E_z^s|$ (Scattered Field) -->
     <g transform="translate(744.534252 267.202937) scale(0.1 -0.1)">
      <defs>
       <path id="DejaVuSans-Oblique-73" d="M 3200 3397 
L 3091 2853 
Q 2863 2978 2609 3040 
Q 2356 3103 2088 3103 
Q 1634 3103 1373 2948 
Q 1113 2794 1113 2528 
Q 1113 2219 1719 2053 
Q 1766 2041 1788 2034 
L 1972 1978 
Q 2547 1819 2739 1644 
Q 2931 1469 2931 1166 
Q 2931 609 2489 259 
Q 2047 -91 1331 -91 
Q 1053 -91 747 -37 
Q 441 16 72 128 
L 184 722 
Q 500 559 806 475 
Q 1113 391 1394 391 
Q 1816 391 2080 572 
Q 2344 753 2344 1031 
Q 2344 1331 1650 1516 
L 1591 1531 
L 1394 1581 
Q 956 1697 753 1886 
Q 550 2075 550 2369 
Q 550 2928 970 3256 
Q 1391 3584 2113 3584 
Q 2397 3584 2667 3537 
Q 2938 3491 3200 3397 
z
" transform="scale(0.015625)"/>
       <path id="DejaVuSans-46" d="M 628 4666 
L 3309 4666 
L 3309 4134 
L 1259 4134 
L 1259 2759 
L 3109 2759 
L 3109 2228 
L 1259 2228 
L 1259 0 
L 628 0 
L 628 4666 
z
" transform="scale(0.015625)"/>
      </defs>
      <use xlink:href="#DejaVuSans-7c" transform="translate(0 0.51875)"/>
      <use xlink:href="#DejaVuSans-Oblique-45" transform="translate(33.691406 0.51875)"/>
      <use xlink:href="#DejaVuSans-Oblique-73" transform="translate(103.891771 38.8) scale(0.7)"/>
      <use xlink:href="#DejaVuSans-Oblique-7a" transform="translate(96.875 -26.825) scale(0.7)"/>
      <use xlink:href="#DejaVuSans-7c" transform="translate(143.095872 0.51875)"/>
      <use xlink:href="#DejaVuSans-20" transform="translate(176.787279 0.51875)"/>
      <use xlink:href="#DejaVuSans-28" transform="translate(208.574388 0.51875)"/>
      <use xlink:href="#DejaVuSans-53" transform="translate(247.58806 0.51875)"/>
      <use xlink:href="#DejaVuSans-63" transform="translate(311.064622 0.51875)"/>
      <use xlink:href="#DejaVuSans-61" transform="translate(366.045091 0.51875)"/>
      <use xlink:href="#DejaVuSans-74" transform="translate(427.324388 0.51875)"/>
      <use xlink:href="#DejaVuSans-74" transform="translate(466.533372 0.51875)"/>
      <use xlink:href="#DejaVuSans-65" transform="translate(505.742357 0.51875)"/>
      <use xlink:href="#DejaVuSans-72" transform="translate(567.265794 0.51875)"/>
      <use xlink:href="#DejaVuSans-65" transform="translate(608.379076 0.51875)"/>
      <use xlink:href="#DejaVuSans-64" transform="translate(669.902513 0.51875)"/>
      <use xlink:href="#DejaVuSans-20" transform="translate(733.379076 0.51875)"/>
      <use xlink:href="#DejaVuSans-46" transform="translate(765.166185 0.51875)"/>
      <use xlink:href="#DejaVuSans-69" transform="translate(822.685716 0.51875)"/>
      <use xlink:href="#DejaVuSans-65" transform="translate(850.468919 0.51875)"/>
      <use xlink:href="#DejaVuSans-6c" transform="translate(911.992357 0.51875)"/>
      <use xlink:href="#DejaVuSans-64" transform="translate(939.77556 0.51875)"/>
      <use xlink:href="#DejaVuSans-29" transform="translate(1003.252122 0.51875)"/>
     </g>
    </g>
    <g id="line2d_42">
     <path d="M 716.534252 280.702937 
L 726.534252 280.702937 
L 736.534252 280.702937 
" style="fill: none; stroke-dasharray: 3.7,1.6; stroke-dashoffset: 0; stroke: #0000ff"/>
    </g>
    <g id="text_23">
     <!-- $|E_z^i|$ (Incident Field) -->
     <g transform="translate(744.534252 284.202937) scale(0.1 -0.1)">
      <defs>
       <path id="DejaVuSans-Oblique-69" d="M 1172 4863 
L 1747 4863 
L 1606 4134 
L 1031 4134 
L 1172 4863 
z
M 909 3500 
L 1484 3500 
L 800 0 
L 225 0 
L 909 3500 
z
" transform="scale(0.015625)"/>
       <path id="DejaVuSans-49" d="M 628 4666 
L 1259 4666 
L 1259 0 
L 628 0 
L 628 4666 
z
" transform="scale(0.015625)"/>
      </defs>
      <use xlink:href="#DejaVuSans-7c" transform="translate(0 0.529687)"/>
      <use xlink:href="#DejaVuSans-Oblique-45" transform="translate(33.691406 0.529687)"/>
      <use xlink:href="#DejaVuSans-Oblique-69" transform="translate(103.891771 38.810938) scale(0.7)"/>
      <use xlink:href="#DejaVuSans-Oblique-7a" transform="translate(96.875 -26.814063) scale(0.7)"/>
      <use xlink:href="#DejaVuSans-7c" transform="translate(136.352539 0.529687)"/>
      <use xlink:href="#DejaVuSans-20" transform="translate(170.043945 0.529687)"/>
      <use xlink:href="#DejaVuSans-28" transform="translate(201.831055 0.529687)"/>
      <use xlink:href="#DejaVuSans-49" transform="translate(240.844727 0.529687)"/>
      <use xlink:href="#DejaVuSans-6e" transform="translate(270.336914 0.529687)"/>
      <use xlink:href="#DejaVuSans-63" transform="translate(333.71582 0.529687)"/>
      <use xlink:href="#DejaVuSans-69" transform="translate(388.696289 0.529687)"/>
      <use xlink:href="#DejaVuSans-64" transform="translate(416.479492 0.529687)"/>
      <use xlink:href="#DejaVuSans-65" transform="translate(479.956055 0.529687)"/>
      <use xlink:href="#DejaVuSans-6e" transform="translate(541.479492 0.529687)"/>
      <use xlink:href="#DejaVuSans-74" transform="translate(604.858398 0.529687)"/>
      <use xlink:href="#DejaVuSans-20" transform="translate(644.067383 0.529687)"/>
      <use xlink:href="#DejaVuSans-46" transform="translate(675.854492 0.529687)"/>
      <use xlink:href="#DejaVuSans-69" transform="translate(733.374023 0.529687)"/>
      <use xlink:href="#DejaVuSans-65" transform="translate(761.157227 0.529687)"/>
      <use xlink:href="#DejaVuSans-6c" transform="translate(822.680664 0.529687)"/>
      <use xlink:href="#DejaVuSans-64" transform="translate(850.463867 0.529687)"/>
      <use xlink:href="#DejaVuSans-29" transform="translate(913.94043 0.529687)"/>
     </g>
    </g>
    <g id="line2d_43">
     <path d="M 716.534252 296.202937 
L 726.534252 296.202937 
L 736.534252 296.202937 
" style="fill: none; stroke: #008000; stroke-width: 2; stroke-linecap: square"/>
    </g>
    <g id="text_24">
     <!-- $|E_z|$ (Total Field) -->
     <g transform="translate(744.534252 299.702937) scale(0.1 -0.1)">
      <defs>
       <path id="DejaVuSans-54" d="M -19 4666 
L 3928 4666 
L 3928 4134 
L 2272 4134 
L 2272 0 
L 1638 0 
L 1638 4134 
L -19 4134 
L -19 4666 
z
" transform="scale(0.015625)"/>
      </defs>
      <use xlink:href="#DejaVuSans-7c" transform="translate(0 0.578125)"/>
      <use xlink:href="#DejaVuSans-Oblique-45" transform="translate(33.691406 0.578125)"/>
      <use xlink:href="#DejaVuSans-Oblique-7a" transform="translate(96.875 -15.828125) scale(0.7)"/>
      <use xlink:href="#DejaVuSans-7c" transform="translate(136.352539 0.578125)"/>
      <use xlink:href="#DejaVuSans-20" transform="translate(170.043945 0.578125)"/>
      <use xlink:href="#DejaVuSans-28" transform="translate(201.831055 0.578125)"/>
      <use xlink:href="#DejaVuSans-54" transform="translate(240.844727 0.578125)"/>
      <use xlink:href="#DejaVuSans-6f" transform="translate(301.928711 0.578125)"/>
      <use xlink:href="#DejaVuSans-74" transform="translate(363.110352 0.578125)"/>
      <use xlink:href="#DejaVuSans-61" transform="translate(402.319336 0.578125)"/>
      <use xlink:href="#DejaVuSans-6c" transform="translate(463.598633 0.578125)"/>
      <use xlink:href="#DejaVuSans-20" transform="translate(491.381836 0.578125)"/>
      <use xlink:href="#DejaVuSans-46" transform="translate(523.168945 0.578125)"/>
      <use xlink:href="#DejaVuSans-69" transform="translate(580.688477 0.578125)"/>
      <use xlink:href="#DejaVuSans-65" transform="translate(608.47168 0.578125)"/>
      <use xlink:href="#DejaVuSans-6c" transform="translate(669.995117 0.578125)"/>
      <use xlink:href="#DejaVuSans-64" transform="translate(697.77832 0.578125)"/>
      <use xlink:href="#DejaVuSans-29" transform="translate(761.254883 0.578125)"/>
     </g>
    </g>
    <g id="line2d_44">
     <path d="M 716.534252 311.201375 
L 726.534252 311.201375 
L 736.534252 311.201375 
" style="fill: none; stroke: #000000; stroke-width: 2; stroke-linecap: square"/>
    </g>
    <g id="text_25">
     <!-- PEC Boundary -->
     <g transform="translate(744.534252 314.701375) scale(0.1 -0.1)">
      <defs>
       <path id="DejaVuSans-50" d="M 1259 4147 
L 1259 2394 
L 2053 2394 
Q 2494 2394 2734 2622 
Q 2975 2850 2975 3272 
Q 2975 3691 2734 3919 
Q 2494 4147 2053 4147 
L 1259 4147 
z
M 628 4666 
L 2053 4666 
Q 2838 4666 3239 4311 
Q 3641 3956 3641 3272 
Q 3641 2581 3239 2228 
Q 2838 1875 2053 1875 
L 1259 1875 
L 1259 0 
L 628 0 
L 628 4666 
z
" transform="scale(0.015625)"/>
       <path id="DejaVuSans-45" d="M 628 4666 
L 3578 4666 
L 3578 4134 
L 1259 4134 
L 1259 2753 
L 3481 2753 
L 3481 2222 
L 1259 2222 
L 1259 531 
L 3634 531 
L 3634 0 
L 628 0 
L 628 4666 
z
" transform="scale(0.015625)"/>
       <path id="DejaVuSans-43" d="M 4122 4306 
L 4122 3641 
Q 3803 3938 3442 4084 
Q 3081 4231 2675 4231 
Q 1875 4231 1450 3742 
Q 1025 3253 1025 2328 
Q 1025 1406 1450 917 
Q 1875 428 2675 428 
Q 3081 428 3442 575 
Q 3803 722 4122 1019 
L 4122 359 
Q 3791 134 3420 21 
Q 3050 -91 2638 -91 
Q 1578 -91 968 557 
Q 359 1206 359 2328 
Q 359 3453 968 4101 
Q 1578 4750 2638 4750 
Q 3056 4750 3426 4639 
Q 3797 4528 4122 4306 
z
" transform="scale(0.015625)"/>
       <path id="DejaVuSans-42" d="M 1259 2228 
L 1259 519 
L 2272 519 
Q 2781 519 3026 730 
Q 3272 941 3272 1375 
Q 3272 1813 3026 2020 
Q 2781 2228 2272 2228 
L 1259 2228 
z
M 1259 4147 
L 1259 2741 
L 2194 2741 
Q 2656 2741 2882 2914 
Q 3109 3088 3109 3444 
Q 3109 3797 2882 3972 
Q 2656 4147 2194 4147 
L 1259 4147 
z
M 628 4666 
L 2241 4666 
Q 2963 4666 3353 4366 
Q 3744 4066 3744 3513 
Q 3744 3084 3544 2831 
Q 3344 2578 2956 2516 
Q 3422 2416 3680 2098 
Q 3938 1781 3938 1306 
Q 3938 681 3513 340 
Q 3088 0 2303 0 
L 628 0 
L 628 4666 
z
" transform="scale(0.015625)"/>
       <path id="DejaVuSans-75" d="M 544 1381 
L 544 3500 
L 1119 3500 
L 1119 1403 
Q 1119 906 1312 657 
Q 1506 409 1894 409 
Q 2359 409 2629 706 
Q 2900 1003 2900 1516 
L 2900 3500 
L 3475 3500 
L 3475 0 
L 2900 0 
L 2900 538 
Q 2691 219 2414 64 
Q 2138 -91 1772 -91 
Q 1169 -91 856 284 
Q 544 659 544 1381 
z
M 1991 3584 
L 1991 3584 
z
" transform="scale(0.015625)"/>
      </defs>
      <use xlink:href="#DejaVuSans-50"/>
      <use xlink:href="#DejaVuSans-45" x="60.302734"/>
      <use xlink:href="#DejaVuSans-43" x="123.486328"/>
      <use xlink:href="#DejaVuSans-20" x="193.310547"/>
      <use xlink:href="#DejaVuSans-42" x="225.097656"/>
      <use xlink:href="#DejaVuSans-6f" x="293.701172"/>
      <use xlink:href="#DejaVuSans-75" x="354.882812"/>
      <use xlink:href="#DejaVuSans-6e" x="418.261719"/>
      <use xlink:href="#DejaVuSans-64" x="481.640625"/>
      <use xlink:href="#DejaVuSans-61" x="545.117188"/>
      <use xlink:href="#DejaVuSans-72" x="606.396484"/>
      <use xlink:href="#DejaVuSans-79" x="647.509766"/>
     </g>
    </g>
   </g>
  </g>
 </g>
 <defs>
  <clipPath id="p3a65dda872">
   <rect x="56.9" y="43.584" width="650.634252" height="489.016"/>
  </clipPath>
 </defs>
</svg>
