<?xml version="1.0" encoding="utf-8" standalone="no"?>
<!DOCTYPE svg PUBLIC "-//W3C//DTD SVG 1.1//EN"
  "http://www.w3.org/Graphics/SVG/1.1/DTD/svg11.dtd">
<svg xmlns:xlink="http://www.w3.org/1999/xlink" width="576pt" height="432pt" viewBox="0 0 576 432" xmlns="http://www.w3.org/2000/svg" version="1.1">
 <metadata>
  <rdf:RDF xmlns:dc="http://purl.org/dc/elements/1.1/" xmlns:cc="http://creativecommons.org/ns#" xmlns:rdf="http://www.w3.org/1999/02/22-rdf-syntax-ns#">
   <cc:Work>
    <dc:type rdf:resource="http://purl.org/dc/dcmitype/StillImage"/>
    <dc:date>2025-01-25T09:35:43.916905</dc:date>
    <dc:format>image/svg+xml</dc:format>
    <dc:creator>
     <cc:Agent>
      <dc:title>Matplotlib v3.8.3, https://matplotlib.org/</dc:title>
     </cc:Agent>
    </dc:creator>
   </cc:Work>
  </rdf:RDF>
 </metadata>
 <defs>
  <style type="text/css">*{stroke-linejoin: round; stroke-linecap: butt}</style>
 </defs>
 <g id="figure_1">
  <g id="patch_1">
   <path d="M 0 432 
L 576 432 
L 576 0 
L 0 0 
z
" style="fill: #ffffff"/>
  </g>
  <g id="axes_1">
   <g id="patch_2">
    <path d="M 56.9 388.6 
L 565.2 388.6 
L 565.2 26.88 
L 56.9 26.88 
z
" style="fill: #ffffff"/>
   </g>
   <g id="PolyCollection_1">
    <defs>
     <path id="mdca29184a9" d="M 282.169318 -405.12 
L 282.169318 -43.4 
L 287.945455 -43.4 
L 293.721591 -43.4 
L 299.497727 -43.4 
L 305.273864 -43.4 
L 311.05 -43.4 
L 316.826136 -43.4 
L 322.602273 -43.4 
L 328.378409 -43.4 
L 334.154545 -43.4 
L 339.930682 -43.4 
L 339.930682 -405.12 
L 339.930682 -405.12 
L 334.154545 -405.12 
L 328.378409 -405.12 
L 322.602273 -405.12 
L 316.826136 -405.12 
L 311.05 -405.12 
L 305.273864 -405.12 
L 299.497727 -405.12 
L 293.721591 -405.12 
L 287.945455 -405.12 
L 282.169318 -405.12 
z
" style="stroke: #808080; stroke-opacity: 0.5"/>
    </defs>
    <g clip-path="url(#pb7a99fbbd3)">
     <use xlink:href="#mdca29184a9" x="0" y="432" style="fill: #808080; fill-opacity: 0.5; stroke: #808080; stroke-opacity: 0.5"/>
    </g>
   </g>
   <g id="matplotlib.axis_1">
    <g id="xtick_1">
     <g id="line2d_1">
      <path d="M 80.004545 388.6 
L 80.004545 26.88 
" clip-path="url(#pb7a99fbbd3)" style="fill: none; stroke-dasharray: 2.96,1.28; stroke-dashoffset: 0; stroke: #b0b0b0; stroke-opacity: 0.7; stroke-width: 0.8"/>
     </g>
     <g id="line2d_2">
      <defs>
       <path id="mf6299defd9" d="M 0 0 
L 0 3.5 
" style="stroke: #000000; stroke-width: 0.8"/>
      </defs>
      <g>
       <use xlink:href="#mf6299defd9" x="80.004545" y="388.6" style="stroke: #000000; stroke-width: 0.8"/>
      </g>
     </g>
     <g id="text_1">
      <!-- 0.00 -->
      <g transform="translate(68.871733 403.198438) scale(0.1 -0.1)">
       <defs>
        <path id="DejaVuSans-30" d="M 2034 4250 
Q 1547 4250 1301 3770 
Q 1056 3291 1056 2328 
Q 1056 1369 1301 889 
Q 1547 409 2034 409 
Q 2525 409 2770 889 
Q 3016 1369 3016 2328 
Q 3016 3291 2770 3770 
Q 2525 4250 2034 4250 
z
M 2034 4750 
Q 2819 4750 3233 4129 
Q 3647 3509 3647 2328 
Q 3647 1150 3233 529 
Q 2819 -91 2034 -91 
Q 1250 -91 836 529 
Q 422 1150 422 2328 
Q 422 3509 836 4129 
Q 1250 4750 2034 4750 
z
" transform="scale(0.015625)"/>
        <path id="DejaVuSans-2e" d="M 684 794 
L 1344 794 
L 1344 0 
L 684 0 
L 684 794 
z
" transform="scale(0.015625)"/>
       </defs>
       <use xlink:href="#DejaVuSans-30"/>
       <use xlink:href="#DejaVuSans-2e" x="63.623047"/>
       <use xlink:href="#DejaVuSans-30" x="95.410156"/>
       <use xlink:href="#DejaVuSans-30" x="159.033203"/>
      </g>
     </g>
    </g>
    <g id="xtick_2">
     <g id="line2d_3">
      <path d="M 137.805896 388.6 
L 137.805896 26.88 
" clip-path="url(#pb7a99fbbd3)" style="fill: none; stroke-dasharray: 2.96,1.28; stroke-dashoffset: 0; stroke: #b0b0b0; stroke-opacity: 0.7; stroke-width: 0.8"/>
     </g>
     <g id="line2d_4">
      <g>
       <use xlink:href="#mf6299defd9" x="137.805896" y="388.6" style="stroke: #000000; stroke-width: 0.8"/>
      </g>
     </g>
     <g id="text_2">
      <!-- 0.25 -->
      <g transform="translate(126.673084 403.198438) scale(0.1 -0.1)">
       <defs>
        <path id="DejaVuSans-32" d="M 1228 531 
L 3431 531 
L 3431 0 
L 469 0 
L 469 531 
Q 828 903 1448 1529 
Q 2069 2156 2228 2338 
Q 2531 2678 2651 2914 
Q 2772 3150 2772 3378 
Q 2772 3750 2511 3984 
Q 2250 4219 1831 4219 
Q 1534 4219 1204 4116 
Q 875 4013 500 3803 
L 500 4441 
Q 881 4594 1212 4672 
Q 1544 4750 1819 4750 
Q 2544 4750 2975 4387 
Q 3406 4025 3406 3419 
Q 3406 3131 3298 2873 
Q 3191 2616 2906 2266 
Q 2828 2175 2409 1742 
Q 1991 1309 1228 531 
z
" transform="scale(0.015625)"/>
        <path id="DejaVuSans-35" d="M 691 4666 
L 3169 4666 
L 3169 4134 
L 1269 4134 
L 1269 2991 
Q 1406 3038 1543 3061 
Q 1681 3084 1819 3084 
Q 2600 3084 3056 2656 
Q 3513 2228 3513 1497 
Q 3513 744 3044 326 
Q 2575 -91 1722 -91 
Q 1428 -91 1123 -41 
Q 819 9 494 109 
L 494 744 
Q 775 591 1075 516 
Q 1375 441 1709 441 
Q 2250 441 2565 725 
Q 2881 1009 2881 1497 
Q 2881 1984 2565 2268 
Q 2250 2553 1709 2553 
Q 1456 2553 1204 2497 
Q 953 2441 691 2322 
L 691 4666 
z
" transform="scale(0.015625)"/>
       </defs>
       <use xlink:href="#DejaVuSans-30"/>
       <use xlink:href="#DejaVuSans-2e" x="63.623047"/>
       <use xlink:href="#DejaVuSans-32" x="95.410156"/>
       <use xlink:href="#DejaVuSans-35" x="159.033203"/>
      </g>
     </g>
    </g>
    <g id="xtick_3">
     <g id="line2d_5">
      <path d="M 195.607247 388.6 
L 195.607247 26.88 
" clip-path="url(#pb7a99fbbd3)" style="fill: none; stroke-dasharray: 2.96,1.28; stroke-dashoffset: 0; stroke: #b0b0b0; stroke-opacity: 0.7; stroke-width: 0.8"/>
     </g>
     <g id="line2d_6">
      <g>
       <use xlink:href="#mf6299defd9" x="195.607247" y="388.6" style="stroke: #000000; stroke-width: 0.8"/>
      </g>
     </g>
     <g id="text_3">
      <!-- 0.50 -->
      <g transform="translate(184.474435 403.198438) scale(0.1 -0.1)">
       <use xlink:href="#DejaVuSans-30"/>
       <use xlink:href="#DejaVuSans-2e" x="63.623047"/>
       <use xlink:href="#DejaVuSans-35" x="95.410156"/>
       <use xlink:href="#DejaVuSans-30" x="159.033203"/>
      </g>
     </g>
    </g>
    <g id="xtick_4">
     <g id="line2d_7">
      <path d="M 253.408598 388.6 
L 253.408598 26.88 
" clip-path="url(#pb7a99fbbd3)" style="fill: none; stroke-dasharray: 2.96,1.28; stroke-dashoffset: 0; stroke: #b0b0b0; stroke-opacity: 0.7; stroke-width: 0.8"/>
     </g>
     <g id="line2d_8">
      <g>
       <use xlink:href="#mf6299defd9" x="253.408598" y="388.6" style="stroke: #000000; stroke-width: 0.8"/>
      </g>
     </g>
     <g id="text_4">
      <!-- 0.75 -->
      <g transform="translate(242.275786 403.198438) scale(0.1 -0.1)">
       <defs>
        <path id="DejaVuSans-37" d="M 525 4666 
L 3525 4666 
L 3525 4397 
L 1831 0 
L 1172 0 
L 2766 4134 
L 525 4134 
L 525 4666 
z
" transform="scale(0.015625)"/>
       </defs>
       <use xlink:href="#DejaVuSans-30"/>
       <use xlink:href="#DejaVuSans-2e" x="63.623047"/>
       <use xlink:href="#DejaVuSans-37" x="95.410156"/>
       <use xlink:href="#DejaVuSans-35" x="159.033203"/>
      </g>
     </g>
    </g>
    <g id="xtick_5">
     <g id="line2d_9">
      <path d="M 311.209949 388.6 
L 311.209949 26.88 
" clip-path="url(#pb7a99fbbd3)" style="fill: none; stroke-dasharray: 2.96,1.28; stroke-dashoffset: 0; stroke: #b0b0b0; stroke-opacity: 0.7; stroke-width: 0.8"/>
     </g>
     <g id="line2d_10">
      <g>
       <use xlink:href="#mf6299defd9" x="311.209949" y="388.6" style="stroke: #000000; stroke-width: 0.8"/>
      </g>
     </g>
     <g id="text_5">
      <!-- 1.00 -->
      <g transform="translate(300.077137 403.198438) scale(0.1 -0.1)">
       <defs>
        <path id="DejaVuSans-31" d="M 794 531 
L 1825 531 
L 1825 4091 
L 703 3866 
L 703 4441 
L 1819 4666 
L 2450 4666 
L 2450 531 
L 3481 531 
L 3481 0 
L 794 0 
L 794 531 
z
" transform="scale(0.015625)"/>
       </defs>
       <use xlink:href="#DejaVuSans-31"/>
       <use xlink:href="#DejaVuSans-2e" x="63.623047"/>
       <use xlink:href="#DejaVuSans-30" x="95.410156"/>
       <use xlink:href="#DejaVuSans-30" x="159.033203"/>
      </g>
     </g>
    </g>
    <g id="xtick_6">
     <g id="line2d_11">
      <path d="M 369.0113 388.6 
L 369.0113 26.88 
" clip-path="url(#pb7a99fbbd3)" style="fill: none; stroke-dasharray: 2.96,1.28; stroke-dashoffset: 0; stroke: #b0b0b0; stroke-opacity: 0.7; stroke-width: 0.8"/>
     </g>
     <g id="line2d_12">
      <g>
       <use xlink:href="#mf6299defd9" x="369.0113" y="388.6" style="stroke: #000000; stroke-width: 0.8"/>
      </g>
     </g>
     <g id="text_6">
      <!-- 1.25 -->
      <g transform="translate(357.878488 403.198438) scale(0.1 -0.1)">
       <use xlink:href="#DejaVuSans-31"/>
       <use xlink:href="#DejaVuSans-2e" x="63.623047"/>
       <use xlink:href="#DejaVuSans-32" x="95.410156"/>
       <use xlink:href="#DejaVuSans-35" x="159.033203"/>
      </g>
     </g>
    </g>
    <g id="xtick_7">
     <g id="line2d_13">
      <path d="M 426.812651 388.6 
L 426.812651 26.88 
" clip-path="url(#pb7a99fbbd3)" style="fill: none; stroke-dasharray: 2.96,1.28; stroke-dashoffset: 0; stroke: #b0b0b0; stroke-opacity: 0.7; stroke-width: 0.8"/>
     </g>
     <g id="line2d_14">
      <g>
       <use xlink:href="#mf6299defd9" x="426.812651" y="388.6" style="stroke: #000000; stroke-width: 0.8"/>
      </g>
     </g>
     <g id="text_7">
      <!-- 1.50 -->
      <g transform="translate(415.679839 403.198438) scale(0.1 -0.1)">
       <use xlink:href="#DejaVuSans-31"/>
       <use xlink:href="#DejaVuSans-2e" x="63.623047"/>
       <use xlink:href="#DejaVuSans-35" x="95.410156"/>
       <use xlink:href="#DejaVuSans-30" x="159.033203"/>
      </g>
     </g>
    </g>
    <g id="xtick_8">
     <g id="line2d_15">
      <path d="M 484.614002 388.6 
L 484.614002 26.88 
" clip-path="url(#pb7a99fbbd3)" style="fill: none; stroke-dasharray: 2.96,1.28; stroke-dashoffset: 0; stroke: #b0b0b0; stroke-opacity: 0.7; stroke-width: 0.8"/>
     </g>
     <g id="line2d_16">
      <g>
       <use xlink:href="#mf6299defd9" x="484.614002" y="388.6" style="stroke: #000000; stroke-width: 0.8"/>
      </g>
     </g>
     <g id="text_8">
      <!-- 1.75 -->
      <g transform="translate(473.48119 403.198438) scale(0.1 -0.1)">
       <use xlink:href="#DejaVuSans-31"/>
       <use xlink:href="#DejaVuSans-2e" x="63.623047"/>
       <use xlink:href="#DejaVuSans-37" x="95.410156"/>
       <use xlink:href="#DejaVuSans-35" x="159.033203"/>
      </g>
     </g>
    </g>
    <g id="xtick_9">
     <g id="line2d_17">
      <path d="M 542.415353 388.6 
L 542.415353 26.88 
" clip-path="url(#pb7a99fbbd3)" style="fill: none; stroke-dasharray: 2.96,1.28; stroke-dashoffset: 0; stroke: #b0b0b0; stroke-opacity: 0.7; stroke-width: 0.8"/>
     </g>
     <g id="line2d_18">
      <g>
       <use xlink:href="#mf6299defd9" x="542.415353" y="388.6" style="stroke: #000000; stroke-width: 0.8"/>
      </g>
     </g>
     <g id="text_9">
      <!-- 2.00 -->
      <g transform="translate(531.282541 403.198438) scale(0.1 -0.1)">
       <use xlink:href="#DejaVuSans-32"/>
       <use xlink:href="#DejaVuSans-2e" x="63.623047"/>
       <use xlink:href="#DejaVuSans-30" x="95.410156"/>
       <use xlink:href="#DejaVuSans-30" x="159.033203"/>
      </g>
     </g>
    </g>
    <g id="text_10">
     <!-- $x$ (m) -->
     <g transform="translate(297.7 416.876562) scale(0.1 -0.1)">
      <defs>
       <path id="DejaVuSans-Oblique-78" d="M 3841 3500 
L 2234 1784 
L 3219 0 
L 2559 0 
L 1819 1388 
L 531 0 
L -166 0 
L 1556 1844 
L 641 3500 
L 1300 3500 
L 1972 2234 
L 3144 3500 
L 3841 3500 
z
" transform="scale(0.015625)"/>
       <path id="DejaVuSans-20" transform="scale(0.015625)"/>
       <path id="DejaVuSans-28" d="M 1984 4856 
Q 1566 4138 1362 3434 
Q 1159 2731 1159 2009 
Q 1159 1288 1364 580 
Q 1569 -128 1984 -844 
L 1484 -844 
Q 1016 -109 783 600 
Q 550 1309 550 2009 
Q 550 2706 781 3412 
Q 1013 4119 1484 4856 
L 1984 4856 
z
" transform="scale(0.015625)"/>
       <path id="DejaVuSans-6d" d="M 3328 2828 
Q 3544 3216 3844 3400 
Q 4144 3584 4550 3584 
Q 5097 3584 5394 3201 
Q 5691 2819 5691 2113 
L 5691 0 
L 5113 0 
L 5113 2094 
Q 5113 2597 4934 2840 
Q 4756 3084 4391 3084 
Q 3944 3084 3684 2787 
Q 3425 2491 3425 1978 
L 3425 0 
L 2847 0 
L 2847 2094 
Q 2847 2600 2669 2842 
Q 2491 3084 2119 3084 
Q 1678 3084 1418 2786 
Q 1159 2488 1159 1978 
L 1159 0 
L 581 0 
L 581 3500 
L 1159 3500 
L 1159 2956 
Q 1356 3278 1631 3431 
Q 1906 3584 2284 3584 
Q 2666 3584 2933 3390 
Q 3200 3197 3328 2828 
z
" transform="scale(0.015625)"/>
       <path id="DejaVuSans-29" d="M 513 4856 
L 1013 4856 
Q 1481 4119 1714 3412 
Q 1947 2706 1947 2009 
Q 1947 1309 1714 600 
Q 1481 -109 1013 -844 
L 513 -844 
Q 928 -128 1133 580 
Q 1338 1288 1338 2009 
Q 1338 2731 1133 3434 
Q 928 4138 513 4856 
z
" transform="scale(0.015625)"/>
      </defs>
      <use xlink:href="#DejaVuSans-Oblique-78" transform="translate(0 0.125)"/>
      <use xlink:href="#DejaVuSans-20" transform="translate(59.179688 0.125)"/>
      <use xlink:href="#DejaVuSans-28" transform="translate(90.966797 0.125)"/>
      <use xlink:href="#DejaVuSans-6d" transform="translate(129.980469 0.125)"/>
      <use xlink:href="#DejaVuSans-29" transform="translate(227.392578 0.125)"/>
     </g>
    </g>
   </g>
   <g id="matplotlib.axis_2">
    <g id="ytick_1">
     <g id="line2d_19">
      <path d="M 56.9 388.6 
L 565.2 388.6 
" clip-path="url(#pb7a99fbbd3)" style="fill: none; stroke-dasharray: 2.96,1.28; stroke-dashoffset: 0; stroke: #b0b0b0; stroke-opacity: 0.7; stroke-width: 0.8"/>
     </g>
     <g id="line2d_20">
      <defs>
       <path id="m1262c4b458" d="M 0 0 
L -3.5 0 
" style="stroke: #000000; stroke-width: 0.8"/>
      </defs>
      <g>
       <use xlink:href="#m1262c4b458" x="56.9" y="388.6" style="stroke: #000000; stroke-width: 0.8"/>
      </g>
     </g>
     <g id="text_11">
      <!-- 0.00 -->
      <g transform="translate(27.634375 392.399219) scale(0.1 -0.1)">
       <use xlink:href="#DejaVuSans-30"/>
       <use xlink:href="#DejaVuSans-2e" x="63.623047"/>
       <use xlink:href="#DejaVuSans-30" x="95.410156"/>
       <use xlink:href="#DejaVuSans-30" x="159.033203"/>
      </g>
     </g>
    </g>
    <g id="ytick_2">
     <g id="line2d_21">
      <path d="M 56.9 343.385 
L 565.2 343.385 
" clip-path="url(#pb7a99fbbd3)" style="fill: none; stroke-dasharray: 2.96,1.28; stroke-dashoffset: 0; stroke: #b0b0b0; stroke-opacity: 0.7; stroke-width: 0.8"/>
     </g>
     <g id="line2d_22">
      <g>
       <use xlink:href="#m1262c4b458" x="56.9" y="343.385" style="stroke: #000000; stroke-width: 0.8"/>
      </g>
     </g>
     <g id="text_12">
      <!-- 0.25 -->
      <g transform="translate(27.634375 347.184219) scale(0.1 -0.1)">
       <use xlink:href="#DejaVuSans-30"/>
       <use xlink:href="#DejaVuSans-2e" x="63.623047"/>
       <use xlink:href="#DejaVuSans-32" x="95.410156"/>
       <use xlink:href="#DejaVuSans-35" x="159.033203"/>
      </g>
     </g>
    </g>
    <g id="ytick_3">
     <g id="line2d_23">
      <path d="M 56.9 298.17 
L 565.2 298.17 
" clip-path="url(#pb7a99fbbd3)" style="fill: none; stroke-dasharray: 2.96,1.28; stroke-dashoffset: 0; stroke: #b0b0b0; stroke-opacity: 0.7; stroke-width: 0.8"/>
     </g>
     <g id="line2d_24">
      <g>
       <use xlink:href="#m1262c4b458" x="56.9" y="298.17" style="stroke: #000000; stroke-width: 0.8"/>
      </g>
     </g>
     <g id="text_13">
      <!-- 0.50 -->
      <g transform="translate(27.634375 301.969219) scale(0.1 -0.1)">
       <use xlink:href="#DejaVuSans-30"/>
       <use xlink:href="#DejaVuSans-2e" x="63.623047"/>
       <use xlink:href="#DejaVuSans-35" x="95.410156"/>
       <use xlink:href="#DejaVuSans-30" x="159.033203"/>
      </g>
     </g>
    </g>
    <g id="ytick_4">
     <g id="line2d_25">
      <path d="M 56.9 252.955 
L 565.2 252.955 
" clip-path="url(#pb7a99fbbd3)" style="fill: none; stroke-dasharray: 2.96,1.28; stroke-dashoffset: 0; stroke: #b0b0b0; stroke-opacity: 0.7; stroke-width: 0.8"/>
     </g>
     <g id="line2d_26">
      <g>
       <use xlink:href="#m1262c4b458" x="56.9" y="252.955" style="stroke: #000000; stroke-width: 0.8"/>
      </g>
     </g>
     <g id="text_14">
      <!-- 0.75 -->
      <g transform="translate(27.634375 256.754219) scale(0.1 -0.1)">
       <use xlink:href="#DejaVuSans-30"/>
       <use xlink:href="#DejaVuSans-2e" x="63.623047"/>
       <use xlink:href="#DejaVuSans-37" x="95.410156"/>
       <use xlink:href="#DejaVuSans-35" x="159.033203"/>
      </g>
     </g>
    </g>
    <g id="ytick_5">
     <g id="line2d_27">
      <path d="M 56.9 207.74 
L 565.2 207.74 
" clip-path="url(#pb7a99fbbd3)" style="fill: none; stroke-dasharray: 2.96,1.28; stroke-dashoffset: 0; stroke: #b0b0b0; stroke-opacity: 0.7; stroke-width: 0.8"/>
     </g>
     <g id="line2d_28">
      <g>
       <use xlink:href="#m1262c4b458" x="56.9" y="207.74" style="stroke: #000000; stroke-width: 0.8"/>
      </g>
     </g>
     <g id="text_15">
      <!-- 1.00 -->
      <g transform="translate(27.634375 211.539219) scale(0.1 -0.1)">
       <use xlink:href="#DejaVuSans-31"/>
       <use xlink:href="#DejaVuSans-2e" x="63.623047"/>
       <use xlink:href="#DejaVuSans-30" x="95.410156"/>
       <use xlink:href="#DejaVuSans-30" x="159.033203"/>
      </g>
     </g>
    </g>
    <g id="ytick_6">
     <g id="line2d_29">
      <path d="M 56.9 162.525 
L 565.2 162.525 
" clip-path="url(#pb7a99fbbd3)" style="fill: none; stroke-dasharray: 2.96,1.28; stroke-dashoffset: 0; stroke: #b0b0b0; stroke-opacity: 0.7; stroke-width: 0.8"/>
     </g>
     <g id="line2d_30">
      <g>
       <use xlink:href="#m1262c4b458" x="56.9" y="162.525" style="stroke: #000000; stroke-width: 0.8"/>
      </g>
     </g>
     <g id="text_16">
      <!-- 1.25 -->
      <g transform="translate(27.634375 166.324219) scale(0.1 -0.1)">
       <use xlink:href="#DejaVuSans-31"/>
       <use xlink:href="#DejaVuSans-2e" x="63.623047"/>
       <use xlink:href="#DejaVuSans-32" x="95.410156"/>
       <use xlink:href="#DejaVuSans-35" x="159.033203"/>
      </g>
     </g>
    </g>
    <g id="ytick_7">
     <g id="line2d_31">
      <path d="M 56.9 117.31 
L 565.2 117.31 
" clip-path="url(#pb7a99fbbd3)" style="fill: none; stroke-dasharray: 2.96,1.28; stroke-dashoffset: 0; stroke: #b0b0b0; stroke-opacity: 0.7; stroke-width: 0.8"/>
     </g>
     <g id="line2d_32">
      <g>
       <use xlink:href="#m1262c4b458" x="56.9" y="117.31" style="stroke: #000000; stroke-width: 0.8"/>
      </g>
     </g>
     <g id="text_17">
      <!-- 1.50 -->
      <g transform="translate(27.634375 121.109219) scale(0.1 -0.1)">
       <use xlink:href="#DejaVuSans-31"/>
       <use xlink:href="#DejaVuSans-2e" x="63.623047"/>
       <use xlink:href="#DejaVuSans-35" x="95.410156"/>
       <use xlink:href="#DejaVuSans-30" x="159.033203"/>
      </g>
     </g>
    </g>
    <g id="ytick_8">
     <g id="line2d_33">
      <path d="M 56.9 72.095 
L 565.2 72.095 
" clip-path="url(#pb7a99fbbd3)" style="fill: none; stroke-dasharray: 2.96,1.28; stroke-dashoffset: 0; stroke: #b0b0b0; stroke-opacity: 0.7; stroke-width: 0.8"/>
     </g>
     <g id="line2d_34">
      <g>
       <use xlink:href="#m1262c4b458" x="56.9" y="72.095" style="stroke: #000000; stroke-width: 0.8"/>
      </g>
     </g>
     <g id="text_18">
      <!-- 1.75 -->
      <g transform="translate(27.634375 75.894219) scale(0.1 -0.1)">
       <use xlink:href="#DejaVuSans-31"/>
       <use xlink:href="#DejaVuSans-2e" x="63.623047"/>
       <use xlink:href="#DejaVuSans-37" x="95.410156"/>
       <use xlink:href="#DejaVuSans-35" x="159.033203"/>
      </g>
     </g>
    </g>
    <g id="ytick_9">
     <g id="line2d_35">
      <path d="M 56.9 26.88 
L 565.2 26.88 
" clip-path="url(#pb7a99fbbd3)" style="fill: none; stroke-dasharray: 2.96,1.28; stroke-dashoffset: 0; stroke: #b0b0b0; stroke-opacity: 0.7; stroke-width: 0.8"/>
     </g>
     <g id="line2d_36">
      <g>
       <use xlink:href="#m1262c4b458" x="56.9" y="26.88" style="stroke: #000000; stroke-width: 0.8"/>
      </g>
     </g>
     <g id="text_19">
      <!-- 2.00 -->
      <g transform="translate(27.634375 30.679219) scale(0.1 -0.1)">
       <use xlink:href="#DejaVuSans-32"/>
       <use xlink:href="#DejaVuSans-2e" x="63.623047"/>
       <use xlink:href="#DejaVuSans-30" x="95.410156"/>
       <use xlink:href="#DejaVuSans-30" x="159.033203"/>
      </g>
     </g>
    </g>
    <g id="text_20">
     <!-- $|E_z| (V/m)$ -->
     <g transform="translate(21.234375 230.14) rotate(-90) scale(0.1 -0.1)">
      <defs>
       <path id="DejaVuSans-7c" d="M 1344 4891 
L 1344 -1509 
L 813 -1509 
L 813 4891 
L 1344 4891 
z
" transform="scale(0.015625)"/>
       <path id="DejaVuSans-Oblique-45" d="M 1081 4666 
L 4031 4666 
L 3928 4134 
L 1606 4134 
L 1338 2753 
L 3566 2753 
L 3463 2222 
L 1234 2222 
L 909 531 
L 3284 531 
L 3181 0 
L 172 0 
L 1081 4666 
z
" transform="scale(0.015625)"/>
       <path id="DejaVuSans-Oblique-7a" d="M 744 3500 
L 3475 3500 
L 3372 2975 
L 738 459 
L 2913 459 
L 2822 0 
L -19 0 
L 84 525 
L 2719 3041 
L 653 3041 
L 744 3500 
z
" transform="scale(0.015625)"/>
       <path id="DejaVuSans-Oblique-56" d="M 1319 0 
L 500 4666 
L 1119 4666 
L 1797 653 
L 4063 4666 
L 4750 4666 
L 2053 0 
L 1319 0 
z
" transform="scale(0.015625)"/>
       <path id="DejaVuSans-2f" d="M 1625 4666 
L 2156 4666 
L 531 -594 
L 0 -594 
L 1625 4666 
z
" transform="scale(0.015625)"/>
       <path id="DejaVuSans-Oblique-6d" d="M 5747 2113 
L 5338 0 
L 4763 0 
L 5166 2094 
Q 5191 2228 5203 2325 
Q 5216 2422 5216 2491 
Q 5216 2772 5059 2928 
Q 4903 3084 4622 3084 
Q 4203 3084 3875 2770 
Q 3547 2456 3450 1953 
L 3066 0 
L 2491 0 
L 2900 2094 
Q 2925 2209 2937 2307 
Q 2950 2406 2950 2484 
Q 2950 2769 2794 2926 
Q 2638 3084 2363 3084 
Q 1938 3084 1609 2770 
Q 1281 2456 1184 1953 
L 800 0 
L 225 0 
L 909 3500 
L 1484 3500 
L 1375 2956 
Q 1609 3263 1923 3423 
Q 2238 3584 2597 3584 
Q 2978 3584 3223 3384 
Q 3469 3184 3519 2828 
Q 3781 3197 4126 3390 
Q 4472 3584 4856 3584 
Q 5306 3584 5551 3325 
Q 5797 3066 5797 2591 
Q 5797 2488 5784 2364 
Q 5772 2241 5747 2113 
z
" transform="scale(0.015625)"/>
      </defs>
      <use xlink:href="#DejaVuSans-7c" transform="translate(0 0.578125)"/>
      <use xlink:href="#DejaVuSans-Oblique-45" transform="translate(33.691406 0.578125)"/>
      <use xlink:href="#DejaVuSans-Oblique-7a" transform="translate(96.875 -15.828125) scale(0.7)"/>
      <use xlink:href="#DejaVuSans-7c" transform="translate(136.352539 0.578125)"/>
      <use xlink:href="#DejaVuSans-28" transform="translate(170.043945 0.578125)"/>
      <use xlink:href="#DejaVuSans-Oblique-56" transform="translate(209.057617 0.578125)"/>
      <use xlink:href="#DejaVuSans-2f" transform="translate(277.46582 0.578125)"/>
      <use xlink:href="#DejaVuSans-Oblique-6d" transform="translate(311.157227 0.578125)"/>
      <use xlink:href="#DejaVuSans-29" transform="translate(408.569336 0.578125)"/>
     </g>
    </g>
   </g>
   <g id="line2d_37">
    <path d="M 80.004545 344.470524 
L 85.780682 344.469413 
L 91.556818 344.466191 
L 97.332955 344.461172 
L 103.109091 344.454847 
L 108.885227 344.447835 
L 114.661364 344.44082 
L 120.4375 344.434488 
L 126.213636 344.429456 
L 131.989773 344.426216 
L 137.765909 344.425085 
L 143.542045 344.426171 
L 149.318182 344.42937 
L 155.094318 344.434369 
L 160.870455 344.440681 
L 166.646591 344.447688 
L 172.422727 344.454708 
L 178.198864 344.461054 
L 183.975 344.466105 
L 189.751136 344.469368 
L 195.527273 344.470523 
L 201.303409 344.469458 
L 207.079545 344.466277 
L 212.855682 344.46129 
L 218.631818 344.454986 
L 224.407955 344.447981 
L 230.184091 344.440959 
L 235.960227 344.434606 
L 241.736364 344.429543 
L 247.5125 344.426263 
L 253.288636 344.425086 
L 259.064773 344.426127 
L 264.840909 344.429285 
L 270.617045 344.434252 
L 276.393182 344.440542 
L 282.169318 344.447542 
L 287.945455 341.869641 
L 293.721591 333.126742 
L 299.497727 318.764454 
L 305.273864 301.102665 
L 311.05 282.608294 
L 316.826136 265.372437 
L 322.602273 251.03141 
L 328.378409 240.699649 
L 334.154545 234.852733 
L 339.930682 233.172492 
L 345.706818 233.14785 
L 351.482955 233.125706 
L 357.259091 233.108222 
L 363.035227 233.097106 
L 368.811364 233.09344 
L 374.5875 233.097582 
L 380.363636 233.10913 
L 386.139773 233.126955 
L 391.915909 233.149319 
L 397.692045 233.174037 
L 403.468182 233.198697 
L 409.244318 233.220889 
L 415.020455 233.238442 
L 420.796591 233.249641 
L 426.572727 233.25339 
L 432.348864 233.249323 
L 438.125 233.237837 
L 443.901136 233.220055 
L 449.677273 233.197718 
L 455.453409 233.173007 
L 461.229545 233.148338 
L 467.005682 233.12612 
L 472.781818 233.108522 
L 478.557955 233.097261 
L 484.334091 233.093436 
L 490.110227 233.09742 
L 495.886364 233.108825 
L 501.6625 233.126537 
L 507.438636 233.148828 
L 513.214773 233.173522 
L 518.990909 233.198208 
L 524.767045 233.220473 
L 530.543182 233.238141 
L 536.319318 233.249484 
L 542.095455 233.253392 
" clip-path="url(#pb7a99fbbd3)" style="fill: none; stroke: #ff0000; stroke-linecap: square"/>
   </g>
   <g id="line2d_38">
    <path d="M 80.004545 207.74 
L 85.780682 207.74 
L 91.556818 207.74 
L 97.332955 207.74 
L 103.109091 207.74 
L 108.885227 207.74 
L 114.661364 207.74 
L 120.4375 207.74 
L 126.213636 207.74 
L 131.989773 207.74 
L 137.765909 207.74 
L 143.542045 207.74 
L 149.318182 207.74 
L 155.094318 207.74 
L 160.870455 207.74 
L 166.646591 207.74 
L 172.422727 207.74 
L 178.198864 207.74 
L 183.975 207.74 
L 189.751136 207.74 
L 195.527273 207.74 
L 201.303409 207.74 
L 207.079545 207.74 
L 212.855682 207.74 
L 218.631818 207.74 
L 224.407955 207.74 
L 230.184091 207.74 
L 235.960227 207.74 
L 241.736364 207.74 
L 247.5125 207.74 
L 253.288636 207.74 
L 259.064773 207.74 
L 264.840909 207.74 
L 270.617045 207.74 
L 276.393182 207.74 
L 282.169318 207.74 
L 287.945455 207.74 
L 293.721591 207.74 
L 299.497727 207.74 
L 305.273864 207.74 
L 311.05 207.74 
L 316.826136 207.74 
L 322.602273 207.74 
L 328.378409 207.74 
L 334.154545 207.74 
L 339.930682 207.74 
L 345.706818 207.74 
L 351.482955 207.74 
L 357.259091 207.74 
L 363.035227 207.74 
L 368.811364 207.74 
L 374.5875 207.74 
L 380.363636 207.74 
L 386.139773 207.74 
L 391.915909 207.74 
L 397.692045 207.74 
L 403.468182 207.74 
L 409.244318 207.74 
L 415.020455 207.74 
L 420.796591 207.74 
L 426.572727 207.74 
L 432.348864 207.74 
L 438.125 207.74 
L 443.901136 207.74 
L 449.677273 207.74 
L 455.453409 207.74 
L 461.229545 207.74 
L 467.005682 207.74 
L 472.781818 207.74 
L 478.557955 207.74 
L 484.334091 207.74 
L 490.110227 207.74 
L 495.886364 207.74 
L 501.6625 207.74 
L 507.438636 207.74 
L 513.214773 207.74 
L 518.990909 207.74 
L 524.767045 207.74 
L 530.543182 207.74 
L 536.319318 207.74 
L 542.095455 207.74 
" clip-path="url(#pb7a99fbbd3)" style="fill: none; stroke-dasharray: 3.7,1.6; stroke-dashoffset: 0; stroke: #0000ff"/>
   </g>
   <g id="line2d_39">
    <path d="M 80.004545 237.96427 
L 85.780682 225.685346 
L 91.556818 212.005146 
L 97.332955 198.414255 
L 103.109091 186.094811 
L 108.885227 175.93624 
L 114.661364 168.575533 
L 120.4375 164.431352 
L 126.213636 163.725998 
L 131.989773 166.496433 
L 137.765909 172.596044 
L 143.542045 181.687516 
L 149.318182 193.225535 
L 155.094318 206.427512 
L 160.870455 220.234071 
L 166.646591 233.276924 
L 172.422727 243.913537 
L 178.198864 250.448349 
L 183.975 251.628779 
L 189.751136 247.208202 
L 195.527273 238.077164 
L 201.303409 225.821268 
L 207.079545 212.14737 
L 212.855682 198.54903 
L 218.631818 186.211561 
L 224.407955 176.027191 
L 230.184091 168.635306 
L 235.960227 164.456676 
L 241.736364 163.715545 
L 247.5125 166.450751 
L 253.288636 172.517584 
L 259.064773 181.580756 
L 264.840909 193.097212 
L 270.617045 206.286988 
L 276.393182 220.093754 
L 282.169318 233.152412 
L 287.945455 246.990965 
L 293.721591 262.492826 
L 299.497727 276.086969 
L 305.273864 283.548921 
L 311.05 282.160058 
L 316.826136 273.09034 
L 322.602273 260.406806 
L 328.378409 248.298729 
L 334.154545 239.807597 
L 339.930682 236.771015 
L 345.706818 236.735627 
L 351.482955 236.693957 
L 357.259091 236.647753 
L 363.035227 236.599204 
L 368.811364 236.55073 
L 374.5875 236.50474 
L 380.363636 236.463401 
L 386.139773 236.428424 
L 391.915909 236.4009 
L 397.692045 236.381191 
L 403.468182 236.368896 
L 409.244318 236.362892 
L 415.020455 236.36144 
L 420.796591 236.362357 
L 426.572727 236.363225 
L 432.348864 236.361633 
L 438.125 236.355408 
L 443.901136 236.342829 
L 449.677273 236.322797 
L 455.453409 236.294945 
L 461.229545 236.259667 
L 467.005682 236.218089 
L 472.781818 236.171949 
L 478.557955 236.123433 
L 484.334091 236.074959 
L 490.110227 236.028937 
L 495.886364 235.98754 
L 501.6625 235.952486 
L 507.438636 235.924874 
L 513.214773 235.905077 
L 518.990909 235.892705 
L 524.767045 235.886644 
L 530.543182 235.885162 
L 536.319318 235.886079 
L 542.095455 235.886982 
" clip-path="url(#pb7a99fbbd3)" style="fill: none; stroke: #008000; stroke-width: 2; stroke-linecap: square"/>
   </g>
   <g id="patch_3">
    <path d="M 56.9 388.6 
L 56.9 26.88 
" style="fill: none; stroke: #000000; stroke-width: 0.8; stroke-linejoin: miter; stroke-linecap: square"/>
   </g>
   <g id="patch_4">
    <path d="M 565.2 388.6 
L 565.2 26.88 
" style="fill: none; stroke: #000000; stroke-width: 0.8; stroke-linejoin: miter; stroke-linecap: square"/>
   </g>
   <g id="patch_5">
    <path d="M 56.9 388.6 
L 565.2 388.6 
" style="fill: none; stroke: #000000; stroke-width: 0.8; stroke-linejoin: miter; stroke-linecap: square"/>
   </g>
   <g id="patch_6">
    <path d="M 56.9 26.88 
L 565.2 26.88 
" style="fill: none; stroke: #000000; stroke-width: 0.8; stroke-linejoin: miter; stroke-linecap: square"/>
   </g>
   <g id="text_21">
    <!-- Scattered and total fields for lossy dielectric slab with εr = 2.7 and σ = 5×10–3 S/m -->
    <g transform="translate(59.067812 20.88) scale(0.12 -0.12)">
     <defs>
      <path id="DejaVuSans-53" d="M 3425 4513 
L 3425 3897 
Q 3066 4069 2747 4153 
Q 2428 4238 2131 4238 
Q 1616 4238 1336 4038 
Q 1056 3838 1056 3469 
Q 1056 3159 1242 3001 
Q 1428 2844 1947 2747 
L 2328 2669 
Q 3034 2534 3370 2195 
Q 3706 1856 3706 1288 
Q 3706 609 3251 259 
Q 2797 -91 1919 -91 
Q 1588 -91 1214 -16 
Q 841 59 441 206 
L 441 856 
Q 825 641 1194 531 
Q 1563 422 1919 422 
Q 2459 422 2753 634 
Q 3047 847 3047 1241 
Q 3047 1584 2836 1778 
Q 2625 1972 2144 2069 
L 1759 2144 
Q 1053 2284 737 2584 
Q 422 2884 422 3419 
Q 422 4038 858 4394 
Q 1294 4750 2059 4750 
Q 2388 4750 2728 4690 
Q 3069 4631 3425 4513 
z
" transform="scale(0.015625)"/>
      <path id="DejaVuSans-63" d="M 3122 3366 
L 3122 2828 
Q 2878 2963 2633 3030 
Q 2388 3097 2138 3097 
Q 1578 3097 1268 2742 
Q 959 2388 959 1747 
Q 959 1106 1268 751 
Q 1578 397 2138 397 
Q 2388 397 2633 464 
Q 2878 531 3122 666 
L 3122 134 
Q 2881 22 2623 -34 
Q 2366 -91 2075 -91 
Q 1284 -91 818 406 
Q 353 903 353 1747 
Q 353 2603 823 3093 
Q 1294 3584 2113 3584 
Q 2378 3584 2631 3529 
Q 2884 3475 3122 3366 
z
" transform="scale(0.015625)"/>
      <path id="DejaVuSans-61" d="M 2194 1759 
Q 1497 1759 1228 1600 
Q 959 1441 959 1056 
Q 959 750 1161 570 
Q 1363 391 1709 391 
Q 2188 391 2477 730 
Q 2766 1069 2766 1631 
L 2766 1759 
L 2194 1759 
z
M 3341 1997 
L 3341 0 
L 2766 0 
L 2766 531 
Q 2569 213 2275 61 
Q 1981 -91 1556 -91 
Q 1019 -91 701 211 
Q 384 513 384 1019 
Q 384 1609 779 1909 
Q 1175 2209 1959 2209 
L 2766 2209 
L 2766 2266 
Q 2766 2663 2505 2880 
Q 2244 3097 1772 3097 
Q 1472 3097 1187 3025 
Q 903 2953 641 2809 
L 641 3341 
Q 956 3463 1253 3523 
Q 1550 3584 1831 3584 
Q 2591 3584 2966 3190 
Q 3341 2797 3341 1997 
z
" transform="scale(0.015625)"/>
      <path id="DejaVuSans-74" d="M 1172 4494 
L 1172 3500 
L 2356 3500 
L 2356 3053 
L 1172 3053 
L 1172 1153 
Q 1172 725 1289 603 
Q 1406 481 1766 481 
L 2356 481 
L 2356 0 
L 1766 0 
Q 1100 0 847 248 
Q 594 497 594 1153 
L 594 3053 
L 172 3053 
L 172 3500 
L 594 3500 
L 594 4494 
L 1172 4494 
z
" transform="scale(0.015625)"/>
      <path id="DejaVuSans-65" d="M 3597 1894 
L 3597 1613 
L 953 1613 
Q 991 1019 1311 708 
Q 1631 397 2203 397 
Q 2534 397 2845 478 
Q 3156 559 3463 722 
L 3463 178 
Q 3153 47 2828 -22 
Q 2503 -91 2169 -91 
Q 1331 -91 842 396 
Q 353 884 353 1716 
Q 353 2575 817 3079 
Q 1281 3584 2069 3584 
Q 2775 3584 3186 3129 
Q 3597 2675 3597 1894 
z
M 3022 2063 
Q 3016 2534 2758 2815 
Q 2500 3097 2075 3097 
Q 1594 3097 1305 2825 
Q 1016 2553 972 2059 
L 3022 2063 
z
" transform="scale(0.015625)"/>
      <path id="DejaVuSans-72" d="M 2631 2963 
Q 2534 3019 2420 3045 
Q 2306 3072 2169 3072 
Q 1681 3072 1420 2755 
Q 1159 2438 1159 1844 
L 1159 0 
L 581 0 
L 581 3500 
L 1159 3500 
L 1159 2956 
Q 1341 3275 1631 3429 
Q 1922 3584 2338 3584 
Q 2397 3584 2469 3576 
Q 2541 3569 2628 3553 
L 2631 2963 
z
" transform="scale(0.015625)"/>
      <path id="DejaVuSans-64" d="M 2906 2969 
L 2906 4863 
L 3481 4863 
L 3481 0 
L 2906 0 
L 2906 525 
Q 2725 213 2448 61 
Q 2172 -91 1784 -91 
Q 1150 -91 751 415 
Q 353 922 353 1747 
Q 353 2572 751 3078 
Q 1150 3584 1784 3584 
Q 2172 3584 2448 3432 
Q 2725 3281 2906 2969 
z
M 947 1747 
Q 947 1113 1208 752 
Q 1469 391 1925 391 
Q 2381 391 2643 752 
Q 2906 1113 2906 1747 
Q 2906 2381 2643 2742 
Q 2381 3103 1925 3103 
Q 1469 3103 1208 2742 
Q 947 2381 947 1747 
z
" transform="scale(0.015625)"/>
      <path id="DejaVuSans-6e" d="M 3513 2113 
L 3513 0 
L 2938 0 
L 2938 2094 
Q 2938 2591 2744 2837 
Q 2550 3084 2163 3084 
Q 1697 3084 1428 2787 
Q 1159 2491 1159 1978 
L 1159 0 
L 581 0 
L 581 3500 
L 1159 3500 
L 1159 2956 
Q 1366 3272 1645 3428 
Q 1925 3584 2291 3584 
Q 2894 3584 3203 3211 
Q 3513 2838 3513 2113 
z
" transform="scale(0.015625)"/>
      <path id="DejaVuSans-6f" d="M 1959 3097 
Q 1497 3097 1228 2736 
Q 959 2375 959 1747 
Q 959 1119 1226 758 
Q 1494 397 1959 397 
Q 2419 397 2687 759 
Q 2956 1122 2956 1747 
Q 2956 2369 2687 2733 
Q 2419 3097 1959 3097 
z
M 1959 3584 
Q 2709 3584 3137 3096 
Q 3566 2609 3566 1747 
Q 3566 888 3137 398 
Q 2709 -91 1959 -91 
Q 1206 -91 779 398 
Q 353 888 353 1747 
Q 353 2609 779 3096 
Q 1206 3584 1959 3584 
z
" transform="scale(0.015625)"/>
      <path id="DejaVuSans-6c" d="M 603 4863 
L 1178 4863 
L 1178 0 
L 603 0 
L 603 4863 
z
" transform="scale(0.015625)"/>
      <path id="DejaVuSans-66" d="M 2375 4863 
L 2375 4384 
L 1825 4384 
Q 1516 4384 1395 4259 
Q 1275 4134 1275 3809 
L 1275 3500 
L 2222 3500 
L 2222 3053 
L 1275 3053 
L 1275 0 
L 697 0 
L 697 3053 
L 147 3053 
L 147 3500 
L 697 3500 
L 697 3744 
Q 697 4328 969 4595 
Q 1241 4863 1831 4863 
L 2375 4863 
z
" transform="scale(0.015625)"/>
      <path id="DejaVuSans-69" d="M 603 3500 
L 1178 3500 
L 1178 0 
L 603 0 
L 603 3500 
z
M 603 4863 
L 1178 4863 
L 1178 4134 
L 603 4134 
L 603 4863 
z
" transform="scale(0.015625)"/>
      <path id="DejaVuSans-73" d="M 2834 3397 
L 2834 2853 
Q 2591 2978 2328 3040 
Q 2066 3103 1784 3103 
Q 1356 3103 1142 2972 
Q 928 2841 928 2578 
Q 928 2378 1081 2264 
Q 1234 2150 1697 2047 
L 1894 2003 
Q 2506 1872 2764 1633 
Q 3022 1394 3022 966 
Q 3022 478 2636 193 
Q 2250 -91 1575 -91 
Q 1294 -91 989 -36 
Q 684 19 347 128 
L 347 722 
Q 666 556 975 473 
Q 1284 391 1588 391 
Q 1994 391 2212 530 
Q 2431 669 2431 922 
Q 2431 1156 2273 1281 
Q 2116 1406 1581 1522 
L 1381 1569 
Q 847 1681 609 1914 
Q 372 2147 372 2553 
Q 372 3047 722 3315 
Q 1072 3584 1716 3584 
Q 2034 3584 2315 3537 
Q 2597 3491 2834 3397 
z
" transform="scale(0.015625)"/>
      <path id="DejaVuSans-79" d="M 2059 -325 
Q 1816 -950 1584 -1140 
Q 1353 -1331 966 -1331 
L 506 -1331 
L 506 -850 
L 844 -850 
Q 1081 -850 1212 -737 
Q 1344 -625 1503 -206 
L 1606 56 
L 191 3500 
L 800 3500 
L 1894 763 
L 2988 3500 
L 3597 3500 
L 2059 -325 
z
" transform="scale(0.015625)"/>
      <path id="DejaVuSans-62" d="M 3116 1747 
Q 3116 2381 2855 2742 
Q 2594 3103 2138 3103 
Q 1681 3103 1420 2742 
Q 1159 2381 1159 1747 
Q 1159 1113 1420 752 
Q 1681 391 2138 391 
Q 2594 391 2855 752 
Q 3116 1113 3116 1747 
z
M 1159 2969 
Q 1341 3281 1617 3432 
Q 1894 3584 2278 3584 
Q 2916 3584 3314 3078 
Q 3713 2572 3713 1747 
Q 3713 922 3314 415 
Q 2916 -91 2278 -91 
Q 1894 -91 1617 61 
Q 1341 213 1159 525 
L 1159 0 
L 581 0 
L 581 4863 
L 1159 4863 
L 1159 2969 
z
" transform="scale(0.015625)"/>
      <path id="DejaVuSans-77" d="M 269 3500 
L 844 3500 
L 1563 769 
L 2278 3500 
L 2956 3500 
L 3675 769 
L 4391 3500 
L 4966 3500 
L 4050 0 
L 3372 0 
L 2619 2869 
L 1863 0 
L 1184 0 
L 269 3500 
z
" transform="scale(0.015625)"/>
      <path id="DejaVuSans-68" d="M 3513 2113 
L 3513 0 
L 2938 0 
L 2938 2094 
Q 2938 2591 2744 2837 
Q 2550 3084 2163 3084 
Q 1697 3084 1428 2787 
Q 1159 2491 1159 1978 
L 1159 0 
L 581 0 
L 581 4863 
L 1159 4863 
L 1159 2956 
Q 1366 3272 1645 3428 
Q 1925 3584 2291 3584 
Q 2894 3584 3203 3211 
Q 3513 2838 3513 2113 
z
" transform="scale(0.015625)"/>
      <path id="DejaVuSans-3b5" d="M 1234 1888 
Q 884 1963 697 2166 
Q 509 2366 509 2656 
Q 509 3097 866 3344 
Q 1219 3588 1831 3588 
Q 2069 3588 2334 3550 
Q 2600 3513 2906 3438 
L 2906 2916 
Q 2603 3006 2353 3047 
Q 2100 3088 1878 3088 
Q 1506 3088 1291 2944 
Q 1072 2800 1072 2600 
Q 1072 2381 1284 2241 
Q 1494 2103 1856 2103 
L 2341 2103 
L 2341 1628 
L 1878 1628 
Q 1450 1628 1225 1469 
Q 981 1294 981 1019 
Q 981 738 1244 563 
Q 1509 388 1981 388 
Q 2272 388 2538 444 
Q 2803 503 3025 619 
L 3025 84 
Q 2744 -3 2481 -47 
Q 2216 -91 1966 -91 
Q 1222 -91 819 194 
Q 416 478 416 1019 
Q 416 1356 631 1584 
Q 847 1813 1234 1888 
z
" transform="scale(0.015625)"/>
      <path id="DejaVuSans-3d" d="M 678 2906 
L 4684 2906 
L 4684 2381 
L 678 2381 
L 678 2906 
z
M 678 1631 
L 4684 1631 
L 4684 1100 
L 678 1100 
L 678 1631 
z
" transform="scale(0.015625)"/>
      <path id="DejaVuSans-3c3" d="M 1959 3044 
Q 1484 3044 1228 2700 
Q 959 2341 959 1747 
Q 959 1119 1226 758 
Q 1494 397 1959 397 
Q 2419 397 2687 759 
Q 2956 1122 2956 1747 
Q 2956 2319 2688 2700 
Q 2441 3044 1959 3044 
z
M 1959 3500 
L 3869 3500 
L 3869 2925 
L 3225 2925 
Q 3566 2438 3566 1747 
Q 3566 888 3138 400 
Q 2709 -91 1959 -91 
Q 1206 -91 781 400 
Q 353 888 353 1747 
Q 353 2613 781 3097 
Q 1134 3500 1959 3500 
z
" transform="scale(0.015625)"/>
      <path id="DejaVuSans-d7" d="M 4488 3438 
L 3059 2003 
L 4488 575 
L 4116 197 
L 2681 1631 
L 1247 197 
L 878 575 
L 2303 2003 
L 878 3438 
L 1247 3816 
L 2681 2381 
L 4116 3816 
L 4488 3438 
z
" transform="scale(0.015625)"/>
      <path id="DejaVuSans-2013" d="M 313 1978 
L 2888 1978 
L 2888 1528 
L 313 1528 
L 313 1978 
z
" transform="scale(0.015625)"/>
      <path id="DejaVuSans-33" d="M 2597 2516 
Q 3050 2419 3304 2112 
Q 3559 1806 3559 1356 
Q 3559 666 3084 287 
Q 2609 -91 1734 -91 
Q 1441 -91 1130 -33 
Q 819 25 488 141 
L 488 750 
Q 750 597 1062 519 
Q 1375 441 1716 441 
Q 2309 441 2620 675 
Q 2931 909 2931 1356 
Q 2931 1769 2642 2001 
Q 2353 2234 1838 2234 
L 1294 2234 
L 1294 2753 
L 1863 2753 
Q 2328 2753 2575 2939 
Q 2822 3125 2822 3475 
Q 2822 3834 2567 4026 
Q 2313 4219 1838 4219 
Q 1578 4219 1281 4162 
Q 984 4106 628 3988 
L 628 4550 
Q 988 4650 1302 4700 
Q 1616 4750 1894 4750 
Q 2613 4750 3031 4423 
Q 3450 4097 3450 3541 
Q 3450 3153 3228 2886 
Q 3006 2619 2597 2516 
z
" transform="scale(0.015625)"/>
     </defs>
     <use xlink:href="#DejaVuSans-53"/>
     <use xlink:href="#DejaVuSans-63" x="63.476562"/>
     <use xlink:href="#DejaVuSans-61" x="118.457031"/>
     <use xlink:href="#DejaVuSans-74" x="179.736328"/>
     <use xlink:href="#DejaVuSans-74" x="218.945312"/>
     <use xlink:href="#DejaVuSans-65" x="258.154297"/>
     <use xlink:href="#DejaVuSans-72" x="319.677734"/>
     <use xlink:href="#DejaVuSans-65" x="358.541016"/>
     <use xlink:href="#DejaVuSans-64" x="420.064453"/>
     <use xlink:href="#DejaVuSans-20" x="483.541016"/>
     <use xlink:href="#DejaVuSans-61" x="515.328125"/>
     <use xlink:href="#DejaVuSans-6e" x="576.607422"/>
     <use xlink:href="#DejaVuSans-64" x="639.986328"/>
     <use xlink:href="#DejaVuSans-20" x="703.462891"/>
     <use xlink:href="#DejaVuSans-74" x="735.25"/>
     <use xlink:href="#DejaVuSans-6f" x="774.458984"/>
     <use xlink:href="#DejaVuSans-74" x="835.640625"/>
     <use xlink:href="#DejaVuSans-61" x="874.849609"/>
     <use xlink:href="#DejaVuSans-6c" x="936.128906"/>
     <use xlink:href="#DejaVuSans-20" x="963.912109"/>
     <use xlink:href="#DejaVuSans-66" x="995.699219"/>
     <use xlink:href="#DejaVuSans-69" x="1030.904297"/>
     <use xlink:href="#DejaVuSans-65" x="1058.6875"/>
     <use xlink:href="#DejaVuSans-6c" x="1120.210938"/>
     <use xlink:href="#DejaVuSans-64" x="1147.994141"/>
     <use xlink:href="#DejaVuSans-73" x="1211.470703"/>
     <use xlink:href="#DejaVuSans-20" x="1263.570312"/>
     <use xlink:href="#DejaVuSans-66" x="1295.357422"/>
     <use xlink:href="#DejaVuSans-6f" x="1330.5625"/>
     <use xlink:href="#DejaVuSans-72" x="1391.744141"/>
     <use xlink:href="#DejaVuSans-20" x="1432.857422"/>
     <use xlink:href="#DejaVuSans-6c" x="1464.644531"/>
     <use xlink:href="#DejaVuSans-6f" x="1492.427734"/>
     <use xlink:href="#DejaVuSans-73" x="1553.609375"/>
     <use xlink:href="#DejaVuSans-73" x="1605.708984"/>
     <use xlink:href="#DejaVuSans-79" x="1657.808594"/>
     <use xlink:href="#DejaVuSans-20" x="1716.988281"/>
     <use xlink:href="#DejaVuSans-64" x="1748.775391"/>
     <use xlink:href="#DejaVuSans-69" x="1812.251953"/>
     <use xlink:href="#DejaVuSans-65" x="1840.035156"/>
     <use xlink:href="#DejaVuSans-6c" x="1901.558594"/>
     <use xlink:href="#DejaVuSans-65" x="1929.341797"/>
     <use xlink:href="#DejaVuSans-63" x="1990.865234"/>
     <use xlink:href="#DejaVuSans-74" x="2045.845703"/>
     <use xlink:href="#DejaVuSans-72" x="2085.054688"/>
     <use xlink:href="#DejaVuSans-69" x="2126.167969"/>
     <use xlink:href="#DejaVuSans-63" x="2153.951172"/>
     <use xlink:href="#DejaVuSans-20" x="2208.931641"/>
     <use xlink:href="#DejaVuSans-73" x="2240.71875"/>
     <use xlink:href="#DejaVuSans-6c" x="2292.818359"/>
     <use xlink:href="#DejaVuSans-61" x="2320.601562"/>
     <use xlink:href="#DejaVuSans-62" x="2381.880859"/>
     <use xlink:href="#DejaVuSans-20" x="2445.357422"/>
     <use xlink:href="#DejaVuSans-77" x="2477.144531"/>
     <use xlink:href="#DejaVuSans-69" x="2558.931641"/>
     <use xlink:href="#DejaVuSans-74" x="2586.714844"/>
     <use xlink:href="#DejaVuSans-68" x="2625.923828"/>
     <use xlink:href="#DejaVuSans-20" x="2689.302734"/>
     <use xlink:href="#DejaVuSans-3b5" x="2721.089844"/>
     <use xlink:href="#DejaVuSans-72" x="2775.142578"/>
     <use xlink:href="#DejaVuSans-20" x="2816.255859"/>
     <use xlink:href="#DejaVuSans-3d" x="2848.042969"/>
     <use xlink:href="#DejaVuSans-20" x="2931.832031"/>
     <use xlink:href="#DejaVuSans-32" x="2963.619141"/>
     <use xlink:href="#DejaVuSans-2e" x="3027.242188"/>
     <use xlink:href="#DejaVuSans-37" x="3059.029297"/>
     <use xlink:href="#DejaVuSans-20" x="3122.652344"/>
     <use xlink:href="#DejaVuSans-61" x="3154.439453"/>
     <use xlink:href="#DejaVuSans-6e" x="3215.71875"/>
     <use xlink:href="#DejaVuSans-64" x="3279.097656"/>
     <use xlink:href="#DejaVuSans-20" x="3342.574219"/>
     <use xlink:href="#DejaVuSans-3c3" x="3374.361328"/>
     <use xlink:href="#DejaVuSans-20" x="3437.740234"/>
     <use xlink:href="#DejaVuSans-3d" x="3469.527344"/>
     <use xlink:href="#DejaVuSans-20" x="3553.316406"/>
     <use xlink:href="#DejaVuSans-35" x="3585.103516"/>
     <use xlink:href="#DejaVuSans-d7" x="3648.726562"/>
     <use xlink:href="#DejaVuSans-31" x="3732.515625"/>
     <use xlink:href="#DejaVuSans-30" x="3796.138672"/>
     <use xlink:href="#DejaVuSans-2013" x="3859.761719"/>
     <use xlink:href="#DejaVuSans-33" x="3909.761719"/>
     <use xlink:href="#DejaVuSans-20" x="3973.384766"/>
     <use xlink:href="#DejaVuSans-53" x="4005.171875"/>
     <use xlink:href="#DejaVuSans-2f" x="4068.648438"/>
     <use xlink:href="#DejaVuSans-6d" x="4102.339844"/>
    </g>
   </g>
   <g id="legend_1">
    <g id="patch_7">
     <path d="M 421.9 97.258125 
L 558.2 97.258125 
Q 560.2 97.258125 560.2 95.258125 
L 560.2 33.88 
Q 560.2 31.88 558.2 31.88 
L 421.9 31.88 
Q 419.9 31.88 419.9 33.88 
L 419.9 95.258125 
Q 419.9 97.258125 421.9 97.258125 
z
" style="fill: #ffffff; opacity: 0.8; stroke: #cccccc; stroke-linejoin: miter"/>
    </g>
    <g id="line2d_40">
     <path d="M 423.9 40.18 
L 433.9 40.18 
L 443.9 40.18 
" style="fill: none; stroke: #ff0000; stroke-linecap: square"/>
    </g>
    <g id="text_22">
     <!-- $|E_z^s|$ (Scattered Field) -->
     <g transform="translate(451.9 43.68) scale(0.1 -0.1)">
      <defs>
       <path id="DejaVuSans-Oblique-73" d="M 3200 3397 
L 3091 2853 
Q 2863 2978 2609 3040 
Q 2356 3103 2088 3103 
Q 1634 3103 1373 2948 
Q 1113 2794 1113 2528 
Q 1113 2219 1719 2053 
Q 1766 2041 1788 2034 
L 1972 1978 
Q 2547 1819 2739 1644 
Q 2931 1469 2931 1166 
Q 2931 609 2489 259 
Q 2047 -91 1331 -91 
Q 1053 -91 747 -37 
Q 441 16 72 128 
L 184 722 
Q 500 559 806 475 
Q 1113 391 1394 391 
Q 1816 391 2080 572 
Q 2344 753 2344 1031 
Q 2344 1331 1650 1516 
L 1591 1531 
L 1394 1581 
Q 956 1697 753 1886 
Q 550 2075 550 2369 
Q 550 2928 970 3256 
Q 1391 3584 2113 3584 
Q 2397 3584 2667 3537 
Q 2938 3491 3200 3397 
z
" transform="scale(0.015625)"/>
       <path id="DejaVuSans-46" d="M 628 4666 
L 3309 4666 
L 3309 4134 
L 1259 4134 
L 1259 2759 
L 3109 2759 
L 3109 2228 
L 1259 2228 
L 1259 0 
L 628 0 
L 628 4666 
z
" transform="scale(0.015625)"/>
      </defs>
      <use xlink:href="#DejaVuSans-7c" transform="translate(0 0.51875)"/>
      <use xlink:href="#DejaVuSans-Oblique-45" transform="translate(33.691406 0.51875)"/>
      <use xlink:href="#DejaVuSans-Oblique-73" transform="translate(103.891771 38.8) scale(0.7)"/>
      <use xlink:href="#DejaVuSans-Oblique-7a" transform="translate(96.875 -26.825) scale(0.7)"/>
      <use xlink:href="#DejaVuSans-7c" transform="translate(143.095872 0.51875)"/>
      <use xlink:href="#DejaVuSans-20" transform="translate(176.787279 0.51875)"/>
      <use xlink:href="#DejaVuSans-28" transform="translate(208.574388 0.51875)"/>
      <use xlink:href="#DejaVuSans-53" transform="translate(247.58806 0.51875)"/>
      <use xlink:href="#DejaVuSans-63" transform="translate(311.064622 0.51875)"/>
      <use xlink:href="#DejaVuSans-61" transform="translate(366.045091 0.51875)"/>
      <use xlink:href="#DejaVuSans-74" transform="translate(427.324388 0.51875)"/>
      <use xlink:href="#DejaVuSans-74" transform="translate(466.533372 0.51875)"/>
      <use xlink:href="#DejaVuSans-65" transform="translate(505.742357 0.51875)"/>
      <use xlink:href="#DejaVuSans-72" transform="translate(567.265794 0.51875)"/>
      <use xlink:href="#DejaVuSans-65" transform="translate(608.379076 0.51875)"/>
      <use xlink:href="#DejaVuSans-64" transform="translate(669.902513 0.51875)"/>
      <use xlink:href="#DejaVuSans-20" transform="translate(733.379076 0.51875)"/>
      <use xlink:href="#DejaVuSans-46" transform="translate(765.166185 0.51875)"/>
      <use xlink:href="#DejaVuSans-69" transform="translate(822.685716 0.51875)"/>
      <use xlink:href="#DejaVuSans-65" transform="translate(850.468919 0.51875)"/>
      <use xlink:href="#DejaVuSans-6c" transform="translate(911.992357 0.51875)"/>
      <use xlink:href="#DejaVuSans-64" transform="translate(939.77556 0.51875)"/>
      <use xlink:href="#DejaVuSans-29" transform="translate(1003.252122 0.51875)"/>
     </g>
    </g>
    <g id="line2d_41">
     <path d="M 423.9 57.18 
L 433.9 57.18 
L 443.9 57.18 
" style="fill: none; stroke-dasharray: 3.7,1.6; stroke-dashoffset: 0; stroke: #0000ff"/>
    </g>
    <g id="text_23">
     <!-- $|E_z^i|$ (Incident Field) -->
     <g transform="translate(451.9 60.68) scale(0.1 -0.1)">
      <defs>
       <path id="DejaVuSans-Oblique-69" d="M 1172 4863 
L 1747 4863 
L 1606 4134 
L 1031 4134 
L 1172 4863 
z
M 909 3500 
L 1484 3500 
L 800 0 
L 225 0 
L 909 3500 
z
" transform="scale(0.015625)"/>
       <path id="DejaVuSans-49" d="M 628 4666 
L 1259 4666 
L 1259 0 
L 628 0 
L 628 4666 
z
" transform="scale(0.015625)"/>
      </defs>
      <use xlink:href="#DejaVuSans-7c" transform="translate(0 0.529687)"/>
      <use xlink:href="#DejaVuSans-Oblique-45" transform="translate(33.691406 0.529687)"/>
      <use xlink:href="#DejaVuSans-Oblique-69" transform="translate(103.891771 38.810938) scale(0.7)"/>
      <use xlink:href="#DejaVuSans-Oblique-7a" transform="translate(96.875 -26.814063) scale(0.7)"/>
      <use xlink:href="#DejaVuSans-7c" transform="translate(136.352539 0.529687)"/>
      <use xlink:href="#DejaVuSans-20" transform="translate(170.043945 0.529687)"/>
      <use xlink:href="#DejaVuSans-28" transform="translate(201.831055 0.529687)"/>
      <use xlink:href="#DejaVuSans-49" transform="translate(240.844727 0.529687)"/>
      <use xlink:href="#DejaVuSans-6e" transform="translate(270.336914 0.529687)"/>
      <use xlink:href="#DejaVuSans-63" transform="translate(333.71582 0.529687)"/>
      <use xlink:href="#DejaVuSans-69" transform="translate(388.696289 0.529687)"/>
      <use xlink:href="#DejaVuSans-64" transform="translate(416.479492 0.529687)"/>
      <use xlink:href="#DejaVuSans-65" transform="translate(479.956055 0.529687)"/>
      <use xlink:href="#DejaVuSans-6e" transform="translate(541.479492 0.529687)"/>
      <use xlink:href="#DejaVuSans-74" transform="translate(604.858398 0.529687)"/>
      <use xlink:href="#DejaVuSans-20" transform="translate(644.067383 0.529687)"/>
      <use xlink:href="#DejaVuSans-46" transform="translate(675.854492 0.529687)"/>
      <use xlink:href="#DejaVuSans-69" transform="translate(733.374023 0.529687)"/>
      <use xlink:href="#DejaVuSans-65" transform="translate(761.157227 0.529687)"/>
      <use xlink:href="#DejaVuSans-6c" transform="translate(822.680664 0.529687)"/>
      <use xlink:href="#DejaVuSans-64" transform="translate(850.463867 0.529687)"/>
      <use xlink:href="#DejaVuSans-29" transform="translate(913.94043 0.529687)"/>
     </g>
    </g>
    <g id="line2d_42">
     <path d="M 423.9 72.68 
L 433.9 72.68 
L 443.9 72.68 
" style="fill: none; stroke: #008000; stroke-width: 2; stroke-linecap: square"/>
    </g>
    <g id="text_24">
     <!-- $|E_z|$ (Total Field) -->
     <g transform="translate(451.9 76.18) scale(0.1 -0.1)">
      <defs>
       <path id="DejaVuSans-54" d="M -19 4666 
L 3928 4666 
L 3928 4134 
L 2272 4134 
L 2272 0 
L 1638 0 
L 1638 4134 
L -19 4134 
L -19 4666 
z
" transform="scale(0.015625)"/>
      </defs>
      <use xlink:href="#DejaVuSans-7c" transform="translate(0 0.578125)"/>
      <use xlink:href="#DejaVuSans-Oblique-45" transform="translate(33.691406 0.578125)"/>
      <use xlink:href="#DejaVuSans-Oblique-7a" transform="translate(96.875 -15.828125) scale(0.7)"/>
      <use xlink:href="#DejaVuSans-7c" transform="translate(136.352539 0.578125)"/>
      <use xlink:href="#DejaVuSans-20" transform="translate(170.043945 0.578125)"/>
      <use xlink:href="#DejaVuSans-28" transform="translate(201.831055 0.578125)"/>
      <use xlink:href="#DejaVuSans-54" transform="translate(240.844727 0.578125)"/>
      <use xlink:href="#DejaVuSans-6f" transform="translate(301.928711 0.578125)"/>
      <use xlink:href="#DejaVuSans-74" transform="translate(363.110352 0.578125)"/>
      <use xlink:href="#DejaVuSans-61" transform="translate(402.319336 0.578125)"/>
      <use xlink:href="#DejaVuSans-6c" transform="translate(463.598633 0.578125)"/>
      <use xlink:href="#DejaVuSans-20" transform="translate(491.381836 0.578125)"/>
      <use xlink:href="#DejaVuSans-46" transform="translate(523.168945 0.578125)"/>
      <use xlink:href="#DejaVuSans-69" transform="translate(580.688477 0.578125)"/>
      <use xlink:href="#DejaVuSans-65" transform="translate(608.47168 0.578125)"/>
      <use xlink:href="#DejaVuSans-6c" transform="translate(669.995117 0.578125)"/>
      <use xlink:href="#DejaVuSans-64" transform="translate(697.77832 0.578125)"/>
      <use xlink:href="#DejaVuSans-29" transform="translate(761.254883 0.578125)"/>
     </g>
    </g>
    <g id="patch_8">
     <path d="M 423.9 91.178437 
L 443.9 91.178437 
L 443.9 84.178437 
L 423.9 84.178437 
z
" style="fill: #808080; fill-opacity: 0.5; stroke: #808080; stroke-opacity: 0.5; stroke-linejoin: miter"/>
    </g>
    <g id="text_25">
     <!-- Lossy Dielectric Slab -->
     <g transform="translate(451.9 91.178437) scale(0.1 -0.1)">
      <defs>
       <path id="DejaVuSans-4c" d="M 628 4666 
L 1259 4666 
L 1259 531 
L 3531 531 
L 3531 0 
L 628 0 
L 628 4666 
z
" transform="scale(0.015625)"/>
       <path id="DejaVuSans-44" d="M 1259 4147 
L 1259 519 
L 2022 519 
Q 2988 519 3436 956 
Q 3884 1394 3884 2338 
Q 3884 3275 3436 3711 
Q 2988 4147 2022 4147 
L 1259 4147 
z
M 628 4666 
L 1925 4666 
Q 3281 4666 3915 4102 
Q 4550 3538 4550 2338 
Q 4550 1131 3912 565 
Q 3275 0 1925 0 
L 628 0 
L 628 4666 
z
" transform="scale(0.015625)"/>
      </defs>
      <use xlink:href="#DejaVuSans-4c"/>
      <use xlink:href="#DejaVuSans-6f" x="53.962891"/>
      <use xlink:href="#DejaVuSans-73" x="115.144531"/>
      <use xlink:href="#DejaVuSans-73" x="167.244141"/>
      <use xlink:href="#DejaVuSans-79" x="219.34375"/>
      <use xlink:href="#DejaVuSans-20" x="278.523438"/>
      <use xlink:href="#DejaVuSans-44" x="310.310547"/>
      <use xlink:href="#DejaVuSans-69" x="387.3125"/>
      <use xlink:href="#DejaVuSans-65" x="415.095703"/>
      <use xlink:href="#DejaVuSans-6c" x="476.619141"/>
      <use xlink:href="#DejaVuSans-65" x="504.402344"/>
      <use xlink:href="#DejaVuSans-63" x="565.925781"/>
      <use xlink:href="#DejaVuSans-74" x="620.90625"/>
      <use xlink:href="#DejaVuSans-72" x="660.115234"/>
      <use xlink:href="#DejaVuSans-69" x="701.228516"/>
      <use xlink:href="#DejaVuSans-63" x="729.011719"/>
      <use xlink:href="#DejaVuSans-20" x="783.992188"/>
      <use xlink:href="#DejaVuSans-53" x="815.779297"/>
      <use xlink:href="#DejaVuSans-6c" x="879.255859"/>
      <use xlink:href="#DejaVuSans-61" x="907.039062"/>
      <use xlink:href="#DejaVuSans-62" x="968.318359"/>
     </g>
    </g>
   </g>
  </g>
 </g>
 <defs>
  <clipPath id="pb7a99fbbd3">
   <rect x="56.9" y="26.88" width="508.3" height="361.72"/>
  </clipPath>
 </defs>
</svg>
