<?xml version="1.0" encoding="utf-8" standalone="no"?>
<!DOCTYPE svg PUBLIC "-//W3C//DTD SVG 1.1//EN"
  "http://www.w3.org/Graphics/SVG/1.1/DTD/svg11.dtd">
<svg xmlns:xlink="http://www.w3.org/1999/xlink" width="576pt" height="432pt" viewBox="0 0 576 432" xmlns="http://www.w3.org/2000/svg" version="1.1">
 <metadata>
  <rdf:RDF xmlns:dc="http://purl.org/dc/elements/1.1/" xmlns:cc="http://creativecommons.org/ns#" xmlns:rdf="http://www.w3.org/1999/02/22-rdf-syntax-ns#">
   <cc:Work>
    <dc:type rdf:resource="http://purl.org/dc/dcmitype/StillImage"/>
    <dc:date>2024-12-05T19:04:09.321245</dc:date>
    <dc:format>image/svg+xml</dc:format>
    <dc:creator>
     <cc:Agent>
      <dc:title>Matplotlib v3.8.3, https://matplotlib.org/</dc:title>
     </cc:Agent>
    </dc:creator>
   </cc:Work>
  </rdf:RDF>
 </metadata>
 <defs>
  <style type="text/css">*{stroke-linejoin: round; stroke-linecap: butt}</style>
 </defs>
 <g id="figure_1">
  <g id="patch_1">
   <path d="M 0 432 
L 576 432 
L 576 0 
L 0 0 
z
" style="fill: #ffffff"/>
  </g>
  <g id="axes_1">
   <g id="patch_2">
    <path d="M 58.877054 390.04 
L 565.2 390.04 
L 565.2 10.8 
L 58.877054 10.8 
z
" style="fill: #ffffff"/>
   </g>
   <g id="matplotlib.axis_1">
    <g id="xtick_1">
     <g id="line2d_1">
      <path d="M 81.22045 390.04 
L 81.22045 10.8 
" clip-path="url(#p5efafb5c59)" style="fill: none; stroke: #b0b0b0; stroke-width: 0.8; stroke-linecap: square"/>
     </g>
     <g id="line2d_2">
      <defs>
       <path id="m1373658df4" d="M 0 0 
L 0 3.5 
" style="stroke: #000000; stroke-width: 0.8"/>
      </defs>
      <g>
       <use xlink:href="#m1373658df4" x="81.22045" y="390.04" style="stroke: #000000; stroke-width: 0.8"/>
      </g>
     </g>
     <g id="text_1">
      <!-- 0.0 -->
      <g transform="translate(73.268887 404.638438) scale(0.1 -0.1)">
       <defs>
        <path id="DejaVuSans-30" d="M 2034 4250 
Q 1547 4250 1301 3770 
Q 1056 3291 1056 2328 
Q 1056 1369 1301 889 
Q 1547 409 2034 409 
Q 2525 409 2770 889 
Q 3016 1369 3016 2328 
Q 3016 3291 2770 3770 
Q 2525 4250 2034 4250 
z
M 2034 4750 
Q 2819 4750 3233 4129 
Q 3647 3509 3647 2328 
Q 3647 1150 3233 529 
Q 2819 -91 2034 -91 
Q 1250 -91 836 529 
Q 422 1150 422 2328 
Q 422 3509 836 4129 
Q 1250 4750 2034 4750 
z
" transform="scale(0.015625)"/>
        <path id="DejaVuSans-2e" d="M 684 794 
L 1344 794 
L 1344 0 
L 684 0 
L 684 794 
z
" transform="scale(0.015625)"/>
       </defs>
       <use xlink:href="#DejaVuSans-30"/>
       <use xlink:href="#DejaVuSans-2e" x="63.623047"/>
       <use xlink:href="#DejaVuSans-30" x="95.410156"/>
      </g>
     </g>
    </g>
    <g id="xtick_2">
     <g id="line2d_3">
      <path d="M 174.753432 390.04 
L 174.753432 10.8 
" clip-path="url(#p5efafb5c59)" style="fill: none; stroke: #b0b0b0; stroke-width: 0.8; stroke-linecap: square"/>
     </g>
     <g id="line2d_4">
      <g>
       <use xlink:href="#m1373658df4" x="174.753432" y="390.04" style="stroke: #000000; stroke-width: 0.8"/>
      </g>
     </g>
     <g id="text_2">
      <!-- 0.1 -->
      <g transform="translate(166.801869 404.638438) scale(0.1 -0.1)">
       <defs>
        <path id="DejaVuSans-31" d="M 794 531 
L 1825 531 
L 1825 4091 
L 703 3866 
L 703 4441 
L 1819 4666 
L 2450 4666 
L 2450 531 
L 3481 531 
L 3481 0 
L 794 0 
L 794 531 
z
" transform="scale(0.015625)"/>
       </defs>
       <use xlink:href="#DejaVuSans-30"/>
       <use xlink:href="#DejaVuSans-2e" x="63.623047"/>
       <use xlink:href="#DejaVuSans-31" x="95.410156"/>
      </g>
     </g>
    </g>
    <g id="xtick_3">
     <g id="line2d_5">
      <path d="M 268.286413 390.04 
L 268.286413 10.8 
" clip-path="url(#p5efafb5c59)" style="fill: none; stroke: #b0b0b0; stroke-width: 0.8; stroke-linecap: square"/>
     </g>
     <g id="line2d_6">
      <g>
       <use xlink:href="#m1373658df4" x="268.286413" y="390.04" style="stroke: #000000; stroke-width: 0.8"/>
      </g>
     </g>
     <g id="text_3">
      <!-- 0.2 -->
      <g transform="translate(260.334851 404.638438) scale(0.1 -0.1)">
       <defs>
        <path id="DejaVuSans-32" d="M 1228 531 
L 3431 531 
L 3431 0 
L 469 0 
L 469 531 
Q 828 903 1448 1529 
Q 2069 2156 2228 2338 
Q 2531 2678 2651 2914 
Q 2772 3150 2772 3378 
Q 2772 3750 2511 3984 
Q 2250 4219 1831 4219 
Q 1534 4219 1204 4116 
Q 875 4013 500 3803 
L 500 4441 
Q 881 4594 1212 4672 
Q 1544 4750 1819 4750 
Q 2544 4750 2975 4387 
Q 3406 4025 3406 3419 
Q 3406 3131 3298 2873 
Q 3191 2616 2906 2266 
Q 2828 2175 2409 1742 
Q 1991 1309 1228 531 
z
" transform="scale(0.015625)"/>
       </defs>
       <use xlink:href="#DejaVuSans-30"/>
       <use xlink:href="#DejaVuSans-2e" x="63.623047"/>
       <use xlink:href="#DejaVuSans-32" x="95.410156"/>
      </g>
     </g>
    </g>
    <g id="xtick_4">
     <g id="line2d_7">
      <path d="M 361.819395 390.04 
L 361.819395 10.8 
" clip-path="url(#p5efafb5c59)" style="fill: none; stroke: #b0b0b0; stroke-width: 0.8; stroke-linecap: square"/>
     </g>
     <g id="line2d_8">
      <g>
       <use xlink:href="#m1373658df4" x="361.819395" y="390.04" style="stroke: #000000; stroke-width: 0.8"/>
      </g>
     </g>
     <g id="text_4">
      <!-- 0.3 -->
      <g transform="translate(353.867832 404.638438) scale(0.1 -0.1)">
       <defs>
        <path id="DejaVuSans-33" d="M 2597 2516 
Q 3050 2419 3304 2112 
Q 3559 1806 3559 1356 
Q 3559 666 3084 287 
Q 2609 -91 1734 -91 
Q 1441 -91 1130 -33 
Q 819 25 488 141 
L 488 750 
Q 750 597 1062 519 
Q 1375 441 1716 441 
Q 2309 441 2620 675 
Q 2931 909 2931 1356 
Q 2931 1769 2642 2001 
Q 2353 2234 1838 2234 
L 1294 2234 
L 1294 2753 
L 1863 2753 
Q 2328 2753 2575 2939 
Q 2822 3125 2822 3475 
Q 2822 3834 2567 4026 
Q 2313 4219 1838 4219 
Q 1578 4219 1281 4162 
Q 984 4106 628 3988 
L 628 4550 
Q 988 4650 1302 4700 
Q 1616 4750 1894 4750 
Q 2613 4750 3031 4423 
Q 3450 4097 3450 3541 
Q 3450 3153 3228 2886 
Q 3006 2619 2597 2516 
z
" transform="scale(0.015625)"/>
       </defs>
       <use xlink:href="#DejaVuSans-30"/>
       <use xlink:href="#DejaVuSans-2e" x="63.623047"/>
       <use xlink:href="#DejaVuSans-33" x="95.410156"/>
      </g>
     </g>
    </g>
    <g id="xtick_5">
     <g id="line2d_9">
      <path d="M 455.352376 390.04 
L 455.352376 10.8 
" clip-path="url(#p5efafb5c59)" style="fill: none; stroke: #b0b0b0; stroke-width: 0.8; stroke-linecap: square"/>
     </g>
     <g id="line2d_10">
      <g>
       <use xlink:href="#m1373658df4" x="455.352376" y="390.04" style="stroke: #000000; stroke-width: 0.8"/>
      </g>
     </g>
     <g id="text_5">
      <!-- 0.4 -->
      <g transform="translate(447.400814 404.638438) scale(0.1 -0.1)">
       <defs>
        <path id="DejaVuSans-34" d="M 2419 4116 
L 825 1625 
L 2419 1625 
L 2419 4116 
z
M 2253 4666 
L 3047 4666 
L 3047 1625 
L 3713 1625 
L 3713 1100 
L 3047 1100 
L 3047 0 
L 2419 0 
L 2419 1100 
L 313 1100 
L 313 1709 
L 2253 4666 
z
" transform="scale(0.015625)"/>
       </defs>
       <use xlink:href="#DejaVuSans-30"/>
       <use xlink:href="#DejaVuSans-2e" x="63.623047"/>
       <use xlink:href="#DejaVuSans-34" x="95.410156"/>
      </g>
     </g>
    </g>
    <g id="xtick_6">
     <g id="line2d_11">
      <path d="M 548.885358 390.04 
L 548.885358 10.8 
" clip-path="url(#p5efafb5c59)" style="fill: none; stroke: #b0b0b0; stroke-width: 0.8; stroke-linecap: square"/>
     </g>
     <g id="line2d_12">
      <g>
       <use xlink:href="#m1373658df4" x="548.885358" y="390.04" style="stroke: #000000; stroke-width: 0.8"/>
      </g>
     </g>
     <g id="text_6">
      <!-- 0.5 -->
      <g transform="translate(540.933796 404.638438) scale(0.1 -0.1)">
       <defs>
        <path id="DejaVuSans-35" d="M 691 4666 
L 3169 4666 
L 3169 4134 
L 1269 4134 
L 1269 2991 
Q 1406 3038 1543 3061 
Q 1681 3084 1819 3084 
Q 2600 3084 3056 2656 
Q 3513 2228 3513 1497 
Q 3513 744 3044 326 
Q 2575 -91 1722 -91 
Q 1428 -91 1123 -41 
Q 819 9 494 109 
L 494 744 
Q 775 591 1075 516 
Q 1375 441 1709 441 
Q 2250 441 2565 725 
Q 2881 1009 2881 1497 
Q 2881 1984 2565 2268 
Q 2250 2553 1709 2553 
Q 1456 2553 1204 2497 
Q 953 2441 691 2322 
L 691 4666 
z
" transform="scale(0.015625)"/>
       </defs>
       <use xlink:href="#DejaVuSans-30"/>
       <use xlink:href="#DejaVuSans-2e" x="63.623047"/>
       <use xlink:href="#DejaVuSans-35" x="95.410156"/>
      </g>
     </g>
    </g>
    <g id="text_7">
     <!-- Diagonal coordinate (m) -->
     <g transform="translate(251.261183 418.316562) scale(0.1 -0.1)">
      <defs>
       <path id="DejaVuSans-44" d="M 1259 4147 
L 1259 519 
L 2022 519 
Q 2988 519 3436 956 
Q 3884 1394 3884 2338 
Q 3884 3275 3436 3711 
Q 2988 4147 2022 4147 
L 1259 4147 
z
M 628 4666 
L 1925 4666 
Q 3281 4666 3915 4102 
Q 4550 3538 4550 2338 
Q 4550 1131 3912 565 
Q 3275 0 1925 0 
L 628 0 
L 628 4666 
z
" transform="scale(0.015625)"/>
       <path id="DejaVuSans-69" d="M 603 3500 
L 1178 3500 
L 1178 0 
L 603 0 
L 603 3500 
z
M 603 4863 
L 1178 4863 
L 1178 4134 
L 603 4134 
L 603 4863 
z
" transform="scale(0.015625)"/>
       <path id="DejaVuSans-61" d="M 2194 1759 
Q 1497 1759 1228 1600 
Q 959 1441 959 1056 
Q 959 750 1161 570 
Q 1363 391 1709 391 
Q 2188 391 2477 730 
Q 2766 1069 2766 1631 
L 2766 1759 
L 2194 1759 
z
M 3341 1997 
L 3341 0 
L 2766 0 
L 2766 531 
Q 2569 213 2275 61 
Q 1981 -91 1556 -91 
Q 1019 -91 701 211 
Q 384 513 384 1019 
Q 384 1609 779 1909 
Q 1175 2209 1959 2209 
L 2766 2209 
L 2766 2266 
Q 2766 2663 2505 2880 
Q 2244 3097 1772 3097 
Q 1472 3097 1187 3025 
Q 903 2953 641 2809 
L 641 3341 
Q 956 3463 1253 3523 
Q 1550 3584 1831 3584 
Q 2591 3584 2966 3190 
Q 3341 2797 3341 1997 
z
" transform="scale(0.015625)"/>
       <path id="DejaVuSans-67" d="M 2906 1791 
Q 2906 2416 2648 2759 
Q 2391 3103 1925 3103 
Q 1463 3103 1205 2759 
Q 947 2416 947 1791 
Q 947 1169 1205 825 
Q 1463 481 1925 481 
Q 2391 481 2648 825 
Q 2906 1169 2906 1791 
z
M 3481 434 
Q 3481 -459 3084 -895 
Q 2688 -1331 1869 -1331 
Q 1566 -1331 1297 -1286 
Q 1028 -1241 775 -1147 
L 775 -588 
Q 1028 -725 1275 -790 
Q 1522 -856 1778 -856 
Q 2344 -856 2625 -561 
Q 2906 -266 2906 331 
L 2906 616 
Q 2728 306 2450 153 
Q 2172 0 1784 0 
Q 1141 0 747 490 
Q 353 981 353 1791 
Q 353 2603 747 3093 
Q 1141 3584 1784 3584 
Q 2172 3584 2450 3431 
Q 2728 3278 2906 2969 
L 2906 3500 
L 3481 3500 
L 3481 434 
z
" transform="scale(0.015625)"/>
       <path id="DejaVuSans-6f" d="M 1959 3097 
Q 1497 3097 1228 2736 
Q 959 2375 959 1747 
Q 959 1119 1226 758 
Q 1494 397 1959 397 
Q 2419 397 2687 759 
Q 2956 1122 2956 1747 
Q 2956 2369 2687 2733 
Q 2419 3097 1959 3097 
z
M 1959 3584 
Q 2709 3584 3137 3096 
Q 3566 2609 3566 1747 
Q 3566 888 3137 398 
Q 2709 -91 1959 -91 
Q 1206 -91 779 398 
Q 353 888 353 1747 
Q 353 2609 779 3096 
Q 1206 3584 1959 3584 
z
" transform="scale(0.015625)"/>
       <path id="DejaVuSans-6e" d="M 3513 2113 
L 3513 0 
L 2938 0 
L 2938 2094 
Q 2938 2591 2744 2837 
Q 2550 3084 2163 3084 
Q 1697 3084 1428 2787 
Q 1159 2491 1159 1978 
L 1159 0 
L 581 0 
L 581 3500 
L 1159 3500 
L 1159 2956 
Q 1366 3272 1645 3428 
Q 1925 3584 2291 3584 
Q 2894 3584 3203 3211 
Q 3513 2838 3513 2113 
z
" transform="scale(0.015625)"/>
       <path id="DejaVuSans-6c" d="M 603 4863 
L 1178 4863 
L 1178 0 
L 603 0 
L 603 4863 
z
" transform="scale(0.015625)"/>
       <path id="DejaVuSans-20" transform="scale(0.015625)"/>
       <path id="DejaVuSans-63" d="M 3122 3366 
L 3122 2828 
Q 2878 2963 2633 3030 
Q 2388 3097 2138 3097 
Q 1578 3097 1268 2742 
Q 959 2388 959 1747 
Q 959 1106 1268 751 
Q 1578 397 2138 397 
Q 2388 397 2633 464 
Q 2878 531 3122 666 
L 3122 134 
Q 2881 22 2623 -34 
Q 2366 -91 2075 -91 
Q 1284 -91 818 406 
Q 353 903 353 1747 
Q 353 2603 823 3093 
Q 1294 3584 2113 3584 
Q 2378 3584 2631 3529 
Q 2884 3475 3122 3366 
z
" transform="scale(0.015625)"/>
       <path id="DejaVuSans-72" d="M 2631 2963 
Q 2534 3019 2420 3045 
Q 2306 3072 2169 3072 
Q 1681 3072 1420 2755 
Q 1159 2438 1159 1844 
L 1159 0 
L 581 0 
L 581 3500 
L 1159 3500 
L 1159 2956 
Q 1341 3275 1631 3429 
Q 1922 3584 2338 3584 
Q 2397 3584 2469 3576 
Q 2541 3569 2628 3553 
L 2631 2963 
z
" transform="scale(0.015625)"/>
       <path id="DejaVuSans-64" d="M 2906 2969 
L 2906 4863 
L 3481 4863 
L 3481 0 
L 2906 0 
L 2906 525 
Q 2725 213 2448 61 
Q 2172 -91 1784 -91 
Q 1150 -91 751 415 
Q 353 922 353 1747 
Q 353 2572 751 3078 
Q 1150 3584 1784 3584 
Q 2172 3584 2448 3432 
Q 2725 3281 2906 2969 
z
M 947 1747 
Q 947 1113 1208 752 
Q 1469 391 1925 391 
Q 2381 391 2643 752 
Q 2906 1113 2906 1747 
Q 2906 2381 2643 2742 
Q 2381 3103 1925 3103 
Q 1469 3103 1208 2742 
Q 947 2381 947 1747 
z
" transform="scale(0.015625)"/>
       <path id="DejaVuSans-74" d="M 1172 4494 
L 1172 3500 
L 2356 3500 
L 2356 3053 
L 1172 3053 
L 1172 1153 
Q 1172 725 1289 603 
Q 1406 481 1766 481 
L 2356 481 
L 2356 0 
L 1766 0 
Q 1100 0 847 248 
Q 594 497 594 1153 
L 594 3053 
L 172 3053 
L 172 3500 
L 594 3500 
L 594 4494 
L 1172 4494 
z
" transform="scale(0.015625)"/>
       <path id="DejaVuSans-65" d="M 3597 1894 
L 3597 1613 
L 953 1613 
Q 991 1019 1311 708 
Q 1631 397 2203 397 
Q 2534 397 2845 478 
Q 3156 559 3463 722 
L 3463 178 
Q 3153 47 2828 -22 
Q 2503 -91 2169 -91 
Q 1331 -91 842 396 
Q 353 884 353 1716 
Q 353 2575 817 3079 
Q 1281 3584 2069 3584 
Q 2775 3584 3186 3129 
Q 3597 2675 3597 1894 
z
M 3022 2063 
Q 3016 2534 2758 2815 
Q 2500 3097 2075 3097 
Q 1594 3097 1305 2825 
Q 1016 2553 972 2059 
L 3022 2063 
z
" transform="scale(0.015625)"/>
       <path id="DejaVuSans-28" d="M 1984 4856 
Q 1566 4138 1362 3434 
Q 1159 2731 1159 2009 
Q 1159 1288 1364 580 
Q 1569 -128 1984 -844 
L 1484 -844 
Q 1016 -109 783 600 
Q 550 1309 550 2009 
Q 550 2706 781 3412 
Q 1013 4119 1484 4856 
L 1984 4856 
z
" transform="scale(0.015625)"/>
       <path id="DejaVuSans-6d" d="M 3328 2828 
Q 3544 3216 3844 3400 
Q 4144 3584 4550 3584 
Q 5097 3584 5394 3201 
Q 5691 2819 5691 2113 
L 5691 0 
L 5113 0 
L 5113 2094 
Q 5113 2597 4934 2840 
Q 4756 3084 4391 3084 
Q 3944 3084 3684 2787 
Q 3425 2491 3425 1978 
L 3425 0 
L 2847 0 
L 2847 2094 
Q 2847 2600 2669 2842 
Q 2491 3084 2119 3084 
Q 1678 3084 1418 2786 
Q 1159 2488 1159 1978 
L 1159 0 
L 581 0 
L 581 3500 
L 1159 3500 
L 1159 2956 
Q 1356 3278 1631 3431 
Q 1906 3584 2284 3584 
Q 2666 3584 2933 3390 
Q 3200 3197 3328 2828 
z
" transform="scale(0.015625)"/>
       <path id="DejaVuSans-29" d="M 513 4856 
L 1013 4856 
Q 1481 4119 1714 3412 
Q 1947 2706 1947 2009 
Q 1947 1309 1714 600 
Q 1481 -109 1013 -844 
L 513 -844 
Q 928 -128 1133 580 
Q 1338 1288 1338 2009 
Q 1338 2731 1133 3434 
Q 928 4138 513 4856 
z
" transform="scale(0.015625)"/>
      </defs>
      <use xlink:href="#DejaVuSans-44"/>
      <use xlink:href="#DejaVuSans-69" x="77.001953"/>
      <use xlink:href="#DejaVuSans-61" x="104.785156"/>
      <use xlink:href="#DejaVuSans-67" x="166.064453"/>
      <use xlink:href="#DejaVuSans-6f" x="229.541016"/>
      <use xlink:href="#DejaVuSans-6e" x="290.722656"/>
      <use xlink:href="#DejaVuSans-61" x="354.101562"/>
      <use xlink:href="#DejaVuSans-6c" x="415.380859"/>
      <use xlink:href="#DejaVuSans-20" x="443.164062"/>
      <use xlink:href="#DejaVuSans-63" x="474.951172"/>
      <use xlink:href="#DejaVuSans-6f" x="529.931641"/>
      <use xlink:href="#DejaVuSans-6f" x="591.113281"/>
      <use xlink:href="#DejaVuSans-72" x="652.294922"/>
      <use xlink:href="#DejaVuSans-64" x="691.658203"/>
      <use xlink:href="#DejaVuSans-69" x="755.134766"/>
      <use xlink:href="#DejaVuSans-6e" x="782.917969"/>
      <use xlink:href="#DejaVuSans-61" x="846.296875"/>
      <use xlink:href="#DejaVuSans-74" x="907.576172"/>
      <use xlink:href="#DejaVuSans-65" x="946.785156"/>
      <use xlink:href="#DejaVuSans-20" x="1008.308594"/>
      <use xlink:href="#DejaVuSans-28" x="1040.095703"/>
      <use xlink:href="#DejaVuSans-6d" x="1079.109375"/>
      <use xlink:href="#DejaVuSans-29" x="1176.521484"/>
     </g>
    </g>
   </g>
   <g id="matplotlib.axis_2">
    <g id="ytick_1">
     <g id="line2d_13">
      <path d="M 58.877054 365.910868 
L 565.2 365.910868 
" clip-path="url(#p5efafb5c59)" style="fill: none; stroke: #b0b0b0; stroke-width: 0.8; stroke-linecap: square"/>
     </g>
     <g id="line2d_14">
      <defs>
       <path id="m9b082ef148" d="M 0 0 
L -3.5 0 
" style="stroke: #000000; stroke-width: 0.8"/>
      </defs>
      <g>
       <use xlink:href="#m9b082ef148" x="58.877054" y="365.910868" style="stroke: #000000; stroke-width: 0.8"/>
      </g>
     </g>
     <g id="text_8">
      <!-- $\mathdefault{10^{-4}}$ -->
      <g transform="translate(28.377054 369.710087) scale(0.1 -0.1)">
       <defs>
        <path id="DejaVuSans-2212" d="M 678 2272 
L 4684 2272 
L 4684 1741 
L 678 1741 
L 678 2272 
z
" transform="scale(0.015625)"/>
       </defs>
       <use xlink:href="#DejaVuSans-31" transform="translate(0 0.684375)"/>
       <use xlink:href="#DejaVuSans-30" transform="translate(63.623047 0.684375)"/>
       <use xlink:href="#DejaVuSans-2212" transform="translate(128.203125 38.965625) scale(0.7)"/>
       <use xlink:href="#DejaVuSans-34" transform="translate(186.855469 38.965625) scale(0.7)"/>
      </g>
     </g>
    </g>
    <g id="ytick_2">
     <g id="line2d_15">
      <path d="M 58.877054 283.829151 
L 565.2 283.829151 
" clip-path="url(#p5efafb5c59)" style="fill: none; stroke: #b0b0b0; stroke-width: 0.8; stroke-linecap: square"/>
     </g>
     <g id="line2d_16">
      <g>
       <use xlink:href="#m9b082ef148" x="58.877054" y="283.829151" style="stroke: #000000; stroke-width: 0.8"/>
      </g>
     </g>
     <g id="text_9">
      <!-- $\mathdefault{10^{-3}}$ -->
      <g transform="translate(28.377054 287.62837) scale(0.1 -0.1)">
       <use xlink:href="#DejaVuSans-31" transform="translate(0 0.765625)"/>
       <use xlink:href="#DejaVuSans-30" transform="translate(63.623047 0.765625)"/>
       <use xlink:href="#DejaVuSans-2212" transform="translate(128.203125 39.046875) scale(0.7)"/>
       <use xlink:href="#DejaVuSans-33" transform="translate(186.855469 39.046875) scale(0.7)"/>
      </g>
     </g>
    </g>
    <g id="ytick_3">
     <g id="line2d_17">
      <path d="M 58.877054 201.747435 
L 565.2 201.747435 
" clip-path="url(#p5efafb5c59)" style="fill: none; stroke: #b0b0b0; stroke-width: 0.8; stroke-linecap: square"/>
     </g>
     <g id="line2d_18">
      <g>
       <use xlink:href="#m9b082ef148" x="58.877054" y="201.747435" style="stroke: #000000; stroke-width: 0.8"/>
      </g>
     </g>
     <g id="text_10">
      <!-- $\mathdefault{10^{-2}}$ -->
      <g transform="translate(28.377054 205.546653) scale(0.1 -0.1)">
       <use xlink:href="#DejaVuSans-31" transform="translate(0 0.765625)"/>
       <use xlink:href="#DejaVuSans-30" transform="translate(63.623047 0.765625)"/>
       <use xlink:href="#DejaVuSans-2212" transform="translate(128.203125 39.046875) scale(0.7)"/>
       <use xlink:href="#DejaVuSans-32" transform="translate(186.855469 39.046875) scale(0.7)"/>
      </g>
     </g>
    </g>
    <g id="ytick_4">
     <g id="line2d_19">
      <path d="M 58.877054 119.665718 
L 565.2 119.665718 
" clip-path="url(#p5efafb5c59)" style="fill: none; stroke: #b0b0b0; stroke-width: 0.8; stroke-linecap: square"/>
     </g>
     <g id="line2d_20">
      <g>
       <use xlink:href="#m9b082ef148" x="58.877054" y="119.665718" style="stroke: #000000; stroke-width: 0.8"/>
      </g>
     </g>
     <g id="text_11">
      <!-- $\mathdefault{10^{-1}}$ -->
      <g transform="translate(28.377054 123.464937) scale(0.1 -0.1)">
       <use xlink:href="#DejaVuSans-31" transform="translate(0 0.684375)"/>
       <use xlink:href="#DejaVuSans-30" transform="translate(63.623047 0.684375)"/>
       <use xlink:href="#DejaVuSans-2212" transform="translate(128.203125 38.965625) scale(0.7)"/>
       <use xlink:href="#DejaVuSans-31" transform="translate(186.855469 38.965625) scale(0.7)"/>
      </g>
     </g>
    </g>
    <g id="ytick_5">
     <g id="line2d_21">
      <path d="M 58.877054 37.584001 
L 565.2 37.584001 
" clip-path="url(#p5efafb5c59)" style="fill: none; stroke: #b0b0b0; stroke-width: 0.8; stroke-linecap: square"/>
     </g>
     <g id="line2d_22">
      <g>
       <use xlink:href="#m9b082ef148" x="58.877054" y="37.584001" style="stroke: #000000; stroke-width: 0.8"/>
      </g>
     </g>
     <g id="text_12">
      <!-- $\mathdefault{10^{0}}$ -->
      <g transform="translate(34.277054 41.38322) scale(0.1 -0.1)">
       <use xlink:href="#DejaVuSans-31" transform="translate(0 0.765625)"/>
       <use xlink:href="#DejaVuSans-30" transform="translate(63.623047 0.765625)"/>
       <use xlink:href="#DejaVuSans-30" transform="translate(128.203125 39.046875) scale(0.7)"/>
      </g>
     </g>
    </g>
    <g id="ytick_6">
     <g id="line2d_23">
      <defs>
       <path id="m4ad10fb63c" d="M 0 0 
L -2 0 
" style="stroke: #000000; stroke-width: 0.6"/>
      </defs>
      <g>
       <use xlink:href="#m4ad10fb63c" x="58.877054" y="384.120594" style="stroke: #000000; stroke-width: 0.6"/>
      </g>
     </g>
    </g>
    <g id="ytick_7">
     <g id="line2d_24">
      <g>
       <use xlink:href="#m4ad10fb63c" x="58.877054" y="378.625487" style="stroke: #000000; stroke-width: 0.6"/>
      </g>
     </g>
    </g>
    <g id="ytick_8">
     <g id="line2d_25">
      <g>
       <use xlink:href="#m4ad10fb63c" x="58.877054" y="373.865408" style="stroke: #000000; stroke-width: 0.6"/>
      </g>
     </g>
    </g>
    <g id="ytick_9">
     <g id="line2d_26">
      <g>
       <use xlink:href="#m4ad10fb63c" x="58.877054" y="369.666722" style="stroke: #000000; stroke-width: 0.6"/>
      </g>
     </g>
    </g>
    <g id="ytick_10">
     <g id="line2d_27">
      <g>
       <use xlink:href="#m4ad10fb63c" x="58.877054" y="341.201809" style="stroke: #000000; stroke-width: 0.6"/>
      </g>
     </g>
    </g>
    <g id="ytick_11">
     <g id="line2d_28">
      <g>
       <use xlink:href="#m4ad10fb63c" x="58.877054" y="326.747937" style="stroke: #000000; stroke-width: 0.6"/>
      </g>
     </g>
    </g>
    <g id="ytick_12">
     <g id="line2d_29">
      <g>
       <use xlink:href="#m4ad10fb63c" x="58.877054" y="316.492751" style="stroke: #000000; stroke-width: 0.6"/>
      </g>
     </g>
    </g>
    <g id="ytick_13">
     <g id="line2d_30">
      <g>
       <use xlink:href="#m4ad10fb63c" x="58.877054" y="308.53821" style="stroke: #000000; stroke-width: 0.6"/>
      </g>
     </g>
    </g>
    <g id="ytick_14">
     <g id="line2d_31">
      <g>
       <use xlink:href="#m4ad10fb63c" x="58.877054" y="302.038878" style="stroke: #000000; stroke-width: 0.6"/>
      </g>
     </g>
    </g>
    <g id="ytick_15">
     <g id="line2d_32">
      <g>
       <use xlink:href="#m4ad10fb63c" x="58.877054" y="296.54377" style="stroke: #000000; stroke-width: 0.6"/>
      </g>
     </g>
    </g>
    <g id="ytick_16">
     <g id="line2d_33">
      <g>
       <use xlink:href="#m4ad10fb63c" x="58.877054" y="291.783692" style="stroke: #000000; stroke-width: 0.6"/>
      </g>
     </g>
    </g>
    <g id="ytick_17">
     <g id="line2d_34">
      <g>
       <use xlink:href="#m4ad10fb63c" x="58.877054" y="287.585005" style="stroke: #000000; stroke-width: 0.6"/>
      </g>
     </g>
    </g>
    <g id="ytick_18">
     <g id="line2d_35">
      <g>
       <use xlink:href="#m4ad10fb63c" x="58.877054" y="259.120093" style="stroke: #000000; stroke-width: 0.6"/>
      </g>
     </g>
    </g>
    <g id="ytick_19">
     <g id="line2d_36">
      <g>
       <use xlink:href="#m4ad10fb63c" x="58.877054" y="244.66622" style="stroke: #000000; stroke-width: 0.6"/>
      </g>
     </g>
    </g>
    <g id="ytick_20">
     <g id="line2d_37">
      <g>
       <use xlink:href="#m4ad10fb63c" x="58.877054" y="234.411034" style="stroke: #000000; stroke-width: 0.6"/>
      </g>
     </g>
    </g>
    <g id="ytick_21">
     <g id="line2d_38">
      <g>
       <use xlink:href="#m4ad10fb63c" x="58.877054" y="226.456493" style="stroke: #000000; stroke-width: 0.6"/>
      </g>
     </g>
    </g>
    <g id="ytick_22">
     <g id="line2d_39">
      <g>
       <use xlink:href="#m4ad10fb63c" x="58.877054" y="219.957161" style="stroke: #000000; stroke-width: 0.6"/>
      </g>
     </g>
    </g>
    <g id="ytick_23">
     <g id="line2d_40">
      <g>
       <use xlink:href="#m4ad10fb63c" x="58.877054" y="214.462053" style="stroke: #000000; stroke-width: 0.6"/>
      </g>
     </g>
    </g>
    <g id="ytick_24">
     <g id="line2d_41">
      <g>
       <use xlink:href="#m4ad10fb63c" x="58.877054" y="209.701975" style="stroke: #000000; stroke-width: 0.6"/>
      </g>
     </g>
    </g>
    <g id="ytick_25">
     <g id="line2d_42">
      <g>
       <use xlink:href="#m4ad10fb63c" x="58.877054" y="205.503288" style="stroke: #000000; stroke-width: 0.6"/>
      </g>
     </g>
    </g>
    <g id="ytick_26">
     <g id="line2d_43">
      <g>
       <use xlink:href="#m4ad10fb63c" x="58.877054" y="177.038376" style="stroke: #000000; stroke-width: 0.6"/>
      </g>
     </g>
    </g>
    <g id="ytick_27">
     <g id="line2d_44">
      <g>
       <use xlink:href="#m4ad10fb63c" x="58.877054" y="162.584503" style="stroke: #000000; stroke-width: 0.6"/>
      </g>
     </g>
    </g>
    <g id="ytick_28">
     <g id="line2d_45">
      <g>
       <use xlink:href="#m4ad10fb63c" x="58.877054" y="152.329317" style="stroke: #000000; stroke-width: 0.6"/>
      </g>
     </g>
    </g>
    <g id="ytick_29">
     <g id="line2d_46">
      <g>
       <use xlink:href="#m4ad10fb63c" x="58.877054" y="144.374777" style="stroke: #000000; stroke-width: 0.6"/>
      </g>
     </g>
    </g>
    <g id="ytick_30">
     <g id="line2d_47">
      <g>
       <use xlink:href="#m4ad10fb63c" x="58.877054" y="137.875444" style="stroke: #000000; stroke-width: 0.6"/>
      </g>
     </g>
    </g>
    <g id="ytick_31">
     <g id="line2d_48">
      <g>
       <use xlink:href="#m4ad10fb63c" x="58.877054" y="132.380337" style="stroke: #000000; stroke-width: 0.6"/>
      </g>
     </g>
    </g>
    <g id="ytick_32">
     <g id="line2d_49">
      <g>
       <use xlink:href="#m4ad10fb63c" x="58.877054" y="127.620258" style="stroke: #000000; stroke-width: 0.6"/>
      </g>
     </g>
    </g>
    <g id="ytick_33">
     <g id="line2d_50">
      <g>
       <use xlink:href="#m4ad10fb63c" x="58.877054" y="123.421571" style="stroke: #000000; stroke-width: 0.6"/>
      </g>
     </g>
    </g>
    <g id="ytick_34">
     <g id="line2d_51">
      <g>
       <use xlink:href="#m4ad10fb63c" x="58.877054" y="94.956659" style="stroke: #000000; stroke-width: 0.6"/>
      </g>
     </g>
    </g>
    <g id="ytick_35">
     <g id="line2d_52">
      <g>
       <use xlink:href="#m4ad10fb63c" x="58.877054" y="80.502786" style="stroke: #000000; stroke-width: 0.6"/>
      </g>
     </g>
    </g>
    <g id="ytick_36">
     <g id="line2d_53">
      <g>
       <use xlink:href="#m4ad10fb63c" x="58.877054" y="70.2476" style="stroke: #000000; stroke-width: 0.6"/>
      </g>
     </g>
    </g>
    <g id="ytick_37">
     <g id="line2d_54">
      <g>
       <use xlink:href="#m4ad10fb63c" x="58.877054" y="62.29306" style="stroke: #000000; stroke-width: 0.6"/>
      </g>
     </g>
    </g>
    <g id="ytick_38">
     <g id="line2d_55">
      <g>
       <use xlink:href="#m4ad10fb63c" x="58.877054" y="55.793727" style="stroke: #000000; stroke-width: 0.6"/>
      </g>
     </g>
    </g>
    <g id="ytick_39">
     <g id="line2d_56">
      <g>
       <use xlink:href="#m4ad10fb63c" x="58.877054" y="50.29862" style="stroke: #000000; stroke-width: 0.6"/>
      </g>
     </g>
    </g>
    <g id="ytick_40">
     <g id="line2d_57">
      <g>
       <use xlink:href="#m4ad10fb63c" x="58.877054" y="45.538541" style="stroke: #000000; stroke-width: 0.6"/>
      </g>
     </g>
    </g>
    <g id="ytick_41">
     <g id="line2d_58">
      <g>
       <use xlink:href="#m4ad10fb63c" x="58.877054" y="41.339854" style="stroke: #000000; stroke-width: 0.6"/>
      </g>
     </g>
    </g>
    <g id="ytick_42">
     <g id="line2d_59">
      <g>
       <use xlink:href="#m4ad10fb63c" x="58.877054" y="12.874942" style="stroke: #000000; stroke-width: 0.6"/>
      </g>
     </g>
    </g>
    <g id="text_13">
     <!-- |$\mathbf{B}$| (T) -->
     <g transform="translate(21.977054 216.17) rotate(-90) scale(0.1 -0.1)">
      <defs>
       <path id="DejaVuSans-7c" d="M 1344 4891 
L 1344 -1509 
L 813 -1509 
L 813 4891 
L 1344 4891 
z
" transform="scale(0.015625)"/>
       <path id="DejaVuSans-Bold-42" d="M 2456 2859 
Q 2741 2859 2887 2984 
Q 3034 3109 3034 3353 
Q 3034 3594 2887 3720 
Q 2741 3847 2456 3847 
L 1791 3847 
L 1791 2859 
L 2456 2859 
z
M 2497 819 
Q 2859 819 3042 972 
Q 3225 1125 3225 1434 
Q 3225 1738 3044 1889 
Q 2863 2041 2497 2041 
L 1791 2041 
L 1791 819 
L 2497 819 
z
M 3616 2497 
Q 4003 2384 4215 2081 
Q 4428 1778 4428 1338 
Q 4428 663 3972 331 
Q 3516 0 2584 0 
L 588 0 
L 588 4666 
L 2394 4666 
Q 3366 4666 3802 4372 
Q 4238 4078 4238 3431 
Q 4238 3091 4078 2852 
Q 3919 2613 3616 2497 
z
" transform="scale(0.015625)"/>
       <path id="DejaVuSans-54" d="M -19 4666 
L 3928 4666 
L 3928 4134 
L 2272 4134 
L 2272 0 
L 1638 0 
L 1638 4134 
L -19 4134 
L -19 4666 
z
" transform="scale(0.015625)"/>
      </defs>
      <use xlink:href="#DejaVuSans-7c" transform="translate(0 0.578125)"/>
      <use xlink:href="#DejaVuSans-Bold-42" transform="translate(33.691406 0.578125)"/>
      <use xlink:href="#DejaVuSans-7c" transform="translate(109.912109 0.578125)"/>
      <use xlink:href="#DejaVuSans-20" transform="translate(143.603516 0.578125)"/>
      <use xlink:href="#DejaVuSans-28" transform="translate(175.390625 0.578125)"/>
      <use xlink:href="#DejaVuSans-54" transform="translate(214.404297 0.578125)"/>
      <use xlink:href="#DejaVuSans-29" transform="translate(275.488281 0.578125)"/>
     </g>
    </g>
   </g>
   <g id="line2d_60">
    <path d="M 81.891733 370.826037 
L 82.001023 368.484241 
L 82.003052 369.349524 
L 82.00368 364.742576 
L 82.019566 366.243253 
L 82.68587 355.263627 
L 82.791606 350.706444 
L 82.792186 356.276025 
L 82.807553 350.527512 
L 82.813703 350.753473 
L 84.177827 359.396089 
L 84.30068 366.034206 
L 84.358452 355.136206 
L 84.381116 369.792385 
L 84.401687 366.643319 
L 85.073957 359.276438 
L 85.147472 358.026234 
L 85.152089 366.046862 
L 85.164912 350.837371 
L 85.190796 355.810776 
L 85.463377 361.060392 
L 86.647242 359.53531 
L 86.735399 349.753268 
L 86.739659 352.768558 
L 86.743426 351.02432 
L 86.838862 366.309934 
L 87.372304 357.955587 
L 87.52513 369.67595 
L 87.54842 369.609534 
L 87.565985 357.48258 
L 87.568728 368.634048 
L 88.097875 349.670919 
L 89.073912 355.150918 
L 89.13387 369.848863 
L 89.13295 353.732787 
L 89.156437 362.29214 
L 89.457461 366.829271 
L 89.895704 355.619932 
L 89.902762 369.424934 
L 89.961487 365.70182 
L 90.832946 364.034744 
L 91.479681 364.435439 
L 91.483442 370.125296 
L 91.546382 354.927109 
L 91.588084 353.323066 
L 92.156935 367.395472 
L 92.280673 350.066838 
L 92.285772 365.789625 
L 92.287377 371.588513 
L 92.290961 351.561416 
L 92.368178 363.505008 
L 92.482993 360.202159 
L 93.54832 350.426436 
L 93.865772 360.554499 
L 93.867875 353.856321 
L 93.884078 369.787109 
L 93.949914 361.269242 
L 94.16193 357.786199 
L 94.659808 365.685115 
L 94.67062 369.443256 
L 94.663836 353.817487 
L 94.752862 368.918806 
L 94.848756 363.24589 
L 96.179842 356.19135 
L 96.24975 358.801307 
L 96.258926 351.148908 
L 96.259795 367.654039 
L 96.324067 358.483015 
L 96.362536 364.795836 
L 97.044918 362.318292 
L 97.050724 372.450249 
L 97.054132 352.694275 
L 97.122382 365.410038 
L 97.555327 367.989605 
L 97.561186 353.15047 
L 98.634681 359.975806 
L 98.637155 368.214091 
L 98.686365 355.335427 
L 98.713819 357.292551 
L 99.070171 368.31322 
L 99.101755 361.39429 
L 99.429165 368.725744 
L 99.437992 351.489817 
L 99.530183 365.683017 
L 100.432017 360.962581 
L 100.469459 361.949753 
L 101.021987 352.114218 
L 101.029241 372.801818 
L 101.131349 357.903617 
L 101.719727 360.434297 
L 101.822704 368.920168 
L 101.82327 360.338529 
L 101.823954 364.178661 
L 101.844944 351.635241 
L 101.887296 369.756225 
L 101.904138 364.633567 
L 102.017332 359.035542 
L 103.209749 354.645293 
L 103.297523 370.887338 
L 103.423188 351.896091 
L 103.42724 353.573286 
L 103.468215 369.076444 
L 103.490837 358.223565 
L 103.586682 355.79691 
L 104.210054 368.393501 
L 104.213627 367.623901 
L 104.26014 354.92149 
L 104.290942 370.915718 
L 104.680789 361.966532 
L 105.773034 370.330014 
L 105.817111 350.907567 
L 105.812998 370.786252 
L 105.862138 367.720409 
L 106.058622 366.784234 
L 106.53595 354.861277 
L 106.60035 364.753963 
L 106.601589 363.502168 
L 106.634666 369.646524 
L 106.6092 353.671424 
L 106.655499 366.960376 
L 107.357013 349.137801 
L 108.195439 366.736321 
L 108.220462 369.646909 
L 108.209778 352.377773 
L 108.24446 356.551227 
L 108.681672 366.58072 
L 108.993088 353.194227 
L 108.993515 352.317076 
L 109.056372 370.609105 
L 110.054809 362.339501 
L 110.539886 371.550325 
L 110.626871 351.974151 
L 110.599941 371.742804 
L 110.628242 358.501921 
L 111.280682 356.336699 
L 111.3831 351.10687 
L 111.397984 350.847267 
L 111.452232 371.446478 
L 111.579093 355.156204 
L 112.82995 360.414496 
L 112.878544 352.069409 
L 112.978476 363.343388 
L 112.979333 362.113538 
L 113.000718 368.05259 
L 112.989643 352.152316 
L 113.078909 361.245594 
L 113.740831 359.184243 
L 113.773491 357.456393 
L 113.784571 371.838322 
L 113.778225 351.248898 
L 113.806693 369.140011 
L 114.327533 361.295328 
L 115.344039 359.229133 
L 115.393222 369.358185 
L 115.369076 350.127198 
L 115.396257 358.089254 
L 115.607576 361.329099 
L 115.680358 369.202602 
L 116.139555 360.731479 
L 116.171736 370.83618 
L 116.191075 351.479872 
L 116.19114 365.88293 
L 116.982338 354.844614 
L 116.983061 371.407835 
L 117.623903 359.827537 
L 117.756673 365.110408 
L 117.768528 353.235176 
L 117.769299 368.688112 
L 117.818746 358.569112 
L 118.276539 362.437891 
L 118.358546 352.007641 
L 118.560982 367.756053 
L 118.565294 361.746996 
L 118.570824 350.164546 
L 118.566765 366.498391 
L 118.615128 360.816692 
L 119.606166 359.792428 
L 119.68745 362.282183 
L 119.84848 352.111401 
L 120.04609 354.341938 
L 120.147386 361.212471 
L 120.160129 372.344817 
L 120.534596 70.580041 
L 120.827299 367.452309 
L 120.950374 349.729952 
L 120.958885 370.832305 
L 121.062935 360.582335 
L 121.088618 358.648574 
L 122.126583 55.705139 
L 122.331778 362.073666 
L 122.455883 367.883438 
L 122.552673 352.853948 
L 122.550851 369.143258 
L 122.618337 355.175306 
L 122.793856 67.218308 
L 123.02594 68.403524 
L 123.279864 358.435844 
L 123.350887 371.095404 
L 123.340698 353.377377 
L 123.35286 360.410971 
L 123.877949 354.345055 
L 124.342373 59.425122 
L 124.622234 52.691744 
L 124.767655 368.819269 
L 124.857069 354.692008 
L 124.932072 362.82678 
L 124.930872 352.844447 
L 124.932592 361.417086 
L 124.93467 57.582619 
L 124.948867 370.25972 
L 124.94932 365.99269 
L 125.223124 367.707339 
L 125.271394 69.012484 
L 125.514133 64.349495 
L 125.610429 369.317318 
L 125.624098 355.42983 
L 125.728267 369.670568 
L 125.730342 359.459269 
L 125.746868 351.636896 
L 125.733154 372.359498 
L 125.747425 354.845242 
L 126.416351 65.2671 
L 126.581147 359.312417 
L 126.824262 55.716546 
L 127.012742 55.457262 
L 127.11829 48.325922 
L 127.2764 363.466857 
L 127.305693 350.566472 
L 127.325115 369.435789 
L 127.353664 357.621205 
L 127.376923 58.962115 
L 127.779259 65.223866 
L 127.912392 369.213882 
L 127.96838 61.950281 
L 128.112489 368.62385 
L 128.142552 366.30069 
L 128.14415 353.774803 
L 128.15573 369.734775 
L 128.467349 66.903238 
L 128.552959 69.021214 
L 128.86097 55.748489 
L 129.280671 63.07993 
L 129.304114 56.006884 
L 129.440616 53.624056 
L 129.509197 49.532785 
L 129.653081 367.277597 
L 129.708164 364.547838 
L 129.7114 371.654477 
L 129.833165 59.796121 
L 129.860425 364.080215 
L 130.183963 55.15546 
L 130.311773 62.506886 
L 130.504514 368.889895 
L 130.506276 365.745467 
L 130.508022 352.426257 
L 130.506984 369.48132 
L 130.550166 363.506901 
L 130.846946 57.185346 
L 130.88976 67.504925 
L 130.97424 73.406495 
L 131.279465 59.518875 
L 131.578348 58.760493 
L 131.65967 65.237829 
L 131.695672 62.982501 
L 131.924443 47.594525 
L 131.936031 355.150044 
L 131.966497 352.497288 
L 132.064052 355.234142 
L 132.097008 370.676032 
L 132.102209 355.080061 
L 132.13765 367.109583 
L 132.144801 52.85567 
L 132.516253 63.952258 
L 132.69916 370.131241 
L 132.748594 57.790684 
L 132.767177 367.993687 
L 132.893057 351.802645 
L 132.896394 365.073724 
L 132.899589 368.408769 
L 132.925477 352.00479 
L 132.937172 354.83481 
L 133.241549 53.673112 
L 133.298247 68.063012 
L 133.40617 55.777394 
L 133.512739 59.165438 
L 133.896615 47.612251 
L 133.994777 66.07155 
L 134.074214 62.389969 
L 134.110646 61.897226 
L 134.181234 49.650512 
L 134.220178 367.812652 
L 134.287657 362.811411 
L 134.362258 43.367899 
L 134.494903 369.98955 
L 134.5729 365.435113 
L 135.007996 354.010695 
L 135.070713 57.70227 
L 135.304021 371.553892 
L 135.330829 357.064495 
L 135.333447 56.28179 
L 135.40879 351.766593 
L 135.663984 50.548321 
L 135.721497 62.677362 
L 135.793797 61.535191 
L 135.822735 69.89115 
L 135.858319 67.113464 
L 136.462914 65.412876 
L 136.498868 65.592377 
L 136.520112 361.565801 
L 136.52324 47.528617 
L 136.57731 99.299894 
L 136.64926 43.412825 
L 136.734204 53.686424 
L 136.746144 366.395022 
L 136.869591 360.953338 
L 136.886367 368.991193 
L 136.8845 353.161352 
L 136.926734 367.96539 
L 137.040283 46.471368 
L 137.273289 357.768787 
L 137.364123 55.424731 
L 137.68175 369.432298 
L 137.682986 364.452763 
L 137.683746 368.909507 
L 137.741871 119.135561 
L 138.02674 353.215291 
L 138.10293 49.997981 
L 138.092811 356.593604 
L 138.139687 112.505408 
L 138.337032 55.38875 
L 138.352939 60.603558 
L 138.694018 99.395587 
L 138.712837 356.556743 
L 138.784292 41.89893 
L 138.909522 60.102695 
L 138.936884 58.686607 
L 138.938054 49.490091 
L 138.954383 55.783155 
L 139.019432 370.139221 
L 139.039431 92.024862 
L 139.124886 50.971859 
L 139.298468 370.027777 
L 139.313471 366.809662 
L 139.342222 42.689708 
L 139.348787 99.948952 
L 139.437521 363.766864 
L 139.65403 55.351351 
L 139.914848 355.486823 
L 140.054694 360.922213 
L 140.062308 360.770256 
L 140.096613 350.355711 
L 140.07457 368.115896 
L 140.103815 360.022876 
L 140.123882 99.481936 
L 140.39749 51.422745 
L 140.486666 98.925004 
L 140.496618 50.054968 
L 140.547706 64.435889 
L 140.66915 60.586448 
L 140.704294 363.481518 
L 140.721634 106.023633 
L 140.843111 56.213389 
L 141.12872 39.993761 
L 141.235413 57.971241 
L 141.320444 357.200592 
L 141.327242 61.37006 
L 141.478744 43.705786 
L 141.52809 359.685639 
L 141.579407 98.783688 
L 141.668832 368.559597 
L 141.672764 54.212923 
L 141.692419 364.486003 
L 141.75987 45.445489 
L 141.898305 365.304661 
L 141.905706 56.826645 
L 141.907706 102.055653 
L 142.330945 110.250817 
L 142.458489 370.290569 
L 142.491838 349.132288 
L 142.71533 61.109291 
L 142.879122 353.853858 
L 142.915075 46.615347 
L 143.007237 63.846952 
L 143.042185 54.095592 
L 143.206522 357.289862 
L 143.216647 40.356487 
L 143.258234 47.176008 
L 143.358933 42.920599 
L 143.587784 63.315054 
L 143.610958 53.300071 
L 143.728939 51.797486 
L 143.755824 57.873758 
L 143.806854 53.206598 
L 143.904917 43.162349 
L 144.059618 369.223215 
L 144.061178 368.014693 
L 144.06828 362.415647 
L 144.068711 365.055327 
L 144.080311 41.038325 
L 144.12622 363.442207 
L 144.338004 97.369119 
L 144.351803 107.64368 
L 144.662538 357.521081 
L 144.827135 363.51034 
L 144.861989 350.89572 
L 144.856472 371.444356 
L 144.924831 356.529049 
L 144.934179 99.10832 
L 144.965216 359.213464 
L 144.97583 104.904739 
L 145.105528 97.106273 
L 145.148716 361.549327 
L 145.229714 49.63923 
L 145.318895 57.598981 
L 145.375049 38.499894 
L 145.375236 57.058813 
L 145.434887 57.276818 
L 145.475 110.518138 
L 145.616447 39.714431 
L 145.805604 115.221406 
L 145.903333 51.3982 
L 145.970631 53.996609 
L 146.150499 51.339996 
L 146.239998 95.98565 
L 146.295205 41.805663 
L 146.324343 54.894706 
L 146.414828 369.698761 
L 146.405435 44.109048 
L 146.448404 363.32064 
L 146.450992 369.604698 
L 146.578588 103.115493 
L 146.835373 107.98698 
L 146.838048 360.824466 
L 146.960484 100.140241 
L 147.086509 351.508904 
L 147.149104 359.49487 
L 147.195433 94.806508 
L 147.249186 369.505603 
L 147.34233 358.590397 
L 147.416129 48.089841 
L 147.521364 60.76582 
L 147.599275 36.745678 
L 147.626491 103.030859 
L 147.776052 44.61924 
L 147.80577 56.21989 
L 147.83301 106.405045 
L 147.862878 41.530686 
L 148.047813 49.055213 
L 148.056235 99.3958 
L 148.426292 48.971515 
L 148.439324 365.12779 
L 148.502954 102.789684 
L 148.594016 52.879968 
L 148.586328 109.859044 
L 148.612875 97.557679 
L 148.628099 363.442327 
L 148.683587 40.971938 
L 148.733452 363.039525 
L 148.782333 362.567977 
L 148.820174 363.215249 
L 148.822464 365.43684 
L 148.831792 110.019646 
L 148.844566 368.274758 
L 148.846172 353.409119 
L 149.22802 356.045376 
L 149.318598 111.150743 
L 149.457232 355.996949 
L 149.59421 36.477286 
L 149.613741 106.628281 
L 149.642479 369.282373 
L 149.685733 359.882011 
L 149.857792 50.541652 
L 149.894965 357.855502 
L 149.943987 109.209071 
L 150.073321 107.632557 
L 150.127653 110.5221 
L 150.243749 39.255233 
L 150.459222 106.271491 
L 150.535109 46.437298 
L 150.578117 362.927279 
L 150.709481 361.85646 
L 150.873983 50.709372 
L 150.903891 62.580448 
L 151.000085 57.189469 
L 151.033784 39.77443 
L 151.050415 113.696661 
L 151.08006 102.716917 
L 151.11533 362.950494 
L 151.166638 36.38343 
L 151.2373 365.849991 
L 151.309055 363.231169 
L 151.401008 36.014956 
L 151.375536 368.669063 
L 151.445153 50.086157 
L 151.589278 98.536618 
L 151.613 358.90784 
L 151.755208 48.764158 
L 151.99559 365.226255 
L 152.011027 109.928074 
L 152.034682 370.289525 
L 152.053189 361.435495 
L 152.143875 64.97595 
L 152.152644 106.513999 
L 152.295036 115.687229 
L 152.336722 100.025852 
L 152.357505 367.22593 
L 152.34648 39.502833 
L 152.403866 43.87847 
L 152.589795 352.424726 
L 152.658549 40.530036 
L 152.709592 48.218366 
L 152.723901 97.667346 
L 152.769244 45.904568 
L 152.85712 56.020257 
L 153.051893 369.30881 
L 153.27131 33.832697 
L 153.298612 102.672227 
L 153.303118 352.483072 
L 153.315715 55.663162 
L 153.360622 117.118084 
L 153.421081 113.051819 
L 153.426191 36.528554 
L 153.463705 56.83483 
L 153.568093 47.811917 
L 153.633158 368.810709 
L 153.74193 363.047822 
L 153.743811 118.891134 
L 154.024129 114.045111 
L 154.062068 364.212934 
L 154.264978 49.790702 
L 154.430083 365.807941 
L 154.354332 34.938138 
L 154.431942 352.546204 
L 154.461359 105.218752 
L 154.66152 45.670199 
L 154.713102 362.218097 
L 154.810305 354.549012 
L 154.905811 44.338117 
L 154.93155 106.075492 
L 155.035107 111.870923 
L 155.056094 32.876337 
L 155.073519 57.092752 
L 155.317778 47.083246 
L 155.326382 49.519947 
L 155.332542 103.331978 
L 155.434929 97.728368 
L 155.460585 108.646637 
L 155.500429 98.03189 
L 155.540707 45.722918 
L 155.720026 40.182829 
L 155.768422 360.620418 
L 155.810474 36.793858 
L 155.832313 358.639442 
L 155.881302 44.826477 
L 155.982017 367.959033 
L 155.998061 365.215775 
L 156.039633 38.461968 
L 156.029497 368.359603 
L 156.094649 118.841854 
L 156.137424 48.686983 
L 156.140157 368.991554 
L 156.169485 105.977162 
L 156.459053 107.141035 
L 156.483472 65.466203 
L 156.487812 107.000111 
L 156.687283 47.491171 
L 156.745863 360.954986 
L 156.828056 352.713059 
L 156.94049 32.808113 
L 157.09007 109.742063 
L 157.232874 39.542488 
L 157.367696 366.791164 
L 157.36994 107.525089 
L 157.420412 46.50375 
L 157.467052 357.152124 
L 157.585354 32.055562 
L 157.608556 46.87364 
L 157.690351 107.68347 
L 157.722387 101.3327 
L 157.84342 46.94855 
L 157.921561 118.543951 
L 158.126241 36.275551 
L 158.126737 39.505908 
L 158.162998 101.239736 
L 158.178785 42.273475 
L 158.198972 368.63932 
L 158.267118 117.345739 
L 158.302056 46.65236 
L 158.42488 366.39467 
L 158.443111 365.265055 
L 158.473081 40.3955 
L 158.490594 106.964684 
L 158.640015 31.363325 
L 158.666034 46.037204 
L 158.719283 114.068457 
L 158.790047 112.713514 
L 158.871828 105.4022 
L 158.87388 366.737213 
L 159.043916 43.9027 
L 159.065242 359.209368 
L 159.121299 353.545218 
L 159.223194 357.161632 
L 159.26175 352.104508 
L 159.347789 57.21385 
L 159.414038 42.484397 
L 159.574091 103.599695 
L 159.726927 34.357249 
L 159.799627 54.682042 
L 159.872564 47.397291 
L 159.941933 116.579041 
L 159.950546 34.77596 
L 160.029907 107.933947 
L 160.114384 31.986105 
L 160.162748 38.930423 
L 160.37615 51.856986 
L 160.41098 106.917357 
L 160.427891 369.298352 
L 160.452079 35.598775 
L 160.535828 362.495754 
L 160.625644 45.524915 
L 160.66301 48.388755 
L 160.69707 368.418603 
L 160.736559 44.913278 
L 160.778765 367.285326 
L 160.817508 49.544912 
L 160.85673 360.590272 
L 160.930049 108.908213 
L 161.031827 42.611126 
L 161.288024 111.542158 
L 161.308032 36.357492 
L 161.394722 46.236787 
L 161.493629 360.551111 
L 161.620261 48.993793 
L 161.672682 363.193553 
L 161.648096 34.425257 
L 161.71959 118.105307 
L 161.789843 121.224362 
L 161.964336 115.928579 
L 161.990254 108.050076 
L 162.122975 107.328231 
L 162.202455 46.165306 
L 162.252325 46.193975 
L 162.294544 53.948378 
L 162.395522 115.20018 
L 162.41857 108.151882 
L 162.423149 45.624923 
L 162.581111 61.943089 
L 162.585308 38.41773 
L 162.596859 105.954881 
L 162.770728 39.904742 
L 162.803539 41.205207 
L 162.878997 106.606787 
L 162.897454 369.000198 
L 162.915611 30.576405 
L 162.959175 118.538623 
L 163.004754 49.753504 
L 163.009636 370.561635 
L 163.115401 32.43739 
L 163.134617 41.647313 
L 163.146257 112.477527 
L 163.354631 101.371403 
L 163.377884 113.652748 
L 163.492764 115.528689 
L 163.566574 44.009366 
L 163.577025 115.857842 
L 163.731541 33.588336 
L 163.806479 109.391644 
L 163.83027 46.113875 
L 163.978714 107.349404 
L 164.033265 355.730943 
L 164.104145 51.134872 
L 164.106604 114.562378 
L 164.252337 351.868199 
L 164.261053 108.090846 
L 164.33003 365.062149 
L 164.506777 28.038182 
L 164.561633 35.671427 
L 164.589463 32.821475 
L 164.612073 122.043405 
L 164.687191 52.790443 
L 165.153743 31.437435 
L 165.216703 117.114007 
L 165.269712 109.22847 
L 165.303513 104.567083 
L 165.355571 44.939616 
L 165.389558 46.814171 
L 165.460985 109.358208 
L 165.495073 42.528382 
L 165.511541 102.951642 
L 165.542908 38.099039 
L 165.559407 357.298163 
L 165.655786 114.123391 
L 165.699058 102.511776 
L 165.745137 108.528424 
L 165.826312 29.352092 
L 165.857952 45.692491 
L 165.878363 116.823924 
L 165.953467 36.059898 
L 165.959854 37.439334 
L 166.103359 52.682447 
L 166.215372 112.560533 
L 166.258834 102.419067 
L 166.380788 111.879442 
L 166.39032 39.904963 
L 166.398646 110.173365 
L 166.719251 111.549913 
L 166.734798 49.934331 
L 166.932745 108.62263 
L 166.935131 43.403061 
L 166.977601 112.999358 
L 167.128142 37.277238 
L 167.171752 51.464898 
L 167.172096 30.549329 
L 167.181186 50.074531 
L 167.206023 115.790982 
L 167.299118 38.387975 
L 167.394673 101.759379 
L 167.430132 47.028499 
L 167.486433 49.621469 
L 167.608226 42.459012 
L 167.814684 57.996767 
L 167.891447 103.085738 
L 167.899364 45.543851 
L 167.90365 43.110132 
L 167.906039 117.759719 
L 167.953706 31.523279 
L 168.01413 111.546382 
L 168.04629 38.179094 
L 168.220582 116.501552 
L 168.249811 31.530447 
L 168.278184 46.016706 
L 168.367718 42.622956 
L 168.370148 101.570985 
L 168.478272 29.5857 
L 168.500676 111.863654 
L 168.553059 102.809355 
L 168.724513 109.583656 
L 168.74376 103.36006 
L 168.888918 120.506885 
L 168.916907 36.695502 
L 168.98963 50.880603 
L 169.018022 115.414843 
L 169.129297 109.771595 
L 169.138008 112.608523 
L 169.210644 115.421382 
L 169.309995 37.611943 
L 169.486103 43.727721 
L 169.489026 41.882999 
L 169.521607 34.387238 
L 169.536091 51.978885 
L 169.55158 48.005718 
L 169.727694 28.89082 
L 169.746132 110.26928 
L 169.837443 33.020417 
L 169.957177 117.590043 
L 170.006417 113.120076 
L 170.062218 108.050258 
L 170.077417 117.804445 
L 170.079123 39.520179 
L 170.176186 45.081713 
L 170.272767 37.428873 
L 170.295506 40.016618 
L 170.342786 40.881215 
L 170.343447 39.739005 
L 170.446765 38.202221 
L 170.466527 119.1471 
L 170.499656 33.338155 
L 170.605574 109.637993 
L 170.775776 102.991055 
L 170.868237 114.665829 
L 171.123194 114.898521 
L 171.140632 111.055902 
L 171.190074 45.186786 
L 171.343282 116.929973 
L 171.49142 49.38489 
L 171.603399 117.717872 
L 171.767663 114.325839 
L 171.780383 48.951452 
L 171.785395 54.264541 
L 171.914272 36.072357 
L 171.915156 108.808184 
L 171.978477 49.406105 
L 172.074751 119.417357 
L 172.243351 40.159993 
L 172.252924 121.990104 
L 172.375182 108.621702 
L 172.557484 116.224517 
L 172.602928 36.46223 
L 172.67364 38.568334 
L 172.674755 110.275305 
L 172.729597 38.224089 
L 172.78377 40.60629 
L 173.007777 115.547984 
L 173.049563 112.691591 
L 173.303395 56.785802 
L 173.321376 114.329824 
L 173.501419 36.276348 
L 173.914789 124.654991 
L 174.042889 40.560432 
L 174.074788 122.741396 
L 174.179766 111.467817 
L 174.321758 36.329145 
L 174.380388 45.738233 
L 174.420155 116.190839 
L 174.61669 118.93712 
L 174.732716 47.029615 
L 174.871266 120.282492 
L 175.006759 38.760952 
L 175.051973 118.952196 
L 175.145343 33.840364 
L 175.185022 34.26346 
L 175.185524 110.472484 
L 175.259105 46.176381 
L 175.446843 123.599841 
L 175.937499 113.30432 
L 175.981199 124.902734 
L 176.074035 111.304004 
L 176.130725 113.043425 
L 176.23256 123.054461 
L 176.248836 118.638473 
L 176.403596 37.305094 
L 176.543943 108.437961 
L 176.633048 49.373905 
L 176.804236 131.402102 
L 176.853226 34.322391 
L 176.912962 45.604679 
L 176.984988 118.957417 
L 177.2004 120.657503 
L 177.221512 110.88737 
L 177.37099 108.425069 
L 177.3823 126.253032 
L 177.558205 33.039723 
L 177.582746 120.64883 
L 177.665462 40.301891 
L 177.702891 123.813179 
L 177.841975 34.50818 
L 177.894315 118.845385 
L 178.021122 109.907806 
L 178.551714 112.710012 
L 178.625763 126.002669 
L 178.834458 115.52483 
L 178.852872 121.718507 
L 178.901749 120.827768 
L 179.053409 49.895417 
L 179.101467 112.414827 
L 179.161462 35.323757 
L 179.194545 112.229174 
L 179.22705 112.438719 
L 179.231422 113.359188 
L 179.254614 112.705191 
L 179.301315 55.208759 
L 179.52448 123.022186 
L 179.815759 112.159551 
L 179.959518 118.772287 
L 179.978558 106.550003 
L 180.175786 129.848954 
L 180.176205 117.72184 
L 180.248988 119.790762 
L 180.276525 119.518551 
L 180.312458 113.408635 
L 180.354487 35.812297 
L 180.387109 47.519059 
L 180.547913 114.415672 
L 180.767442 123.24935 
L 180.824681 114.259053 
L 180.912737 115.043328 
L 181.229497 119.959998 
L 181.30336 106.704264 
L 181.308204 107.299644 
L 181.367278 122.297685 
L 181.442576 117.977881 
L 181.466108 117.580173 
L 181.691055 118.51513 
L 181.7241 125.660652 
L 181.88358 122.983319 
L 181.921283 111.966153 
L 181.996184 128.773924 
L 182.166292 126.930956 
L 182.207501 116.902912 
L 182.234874 124.583372 
L 182.446677 114.008244 
L 182.533189 130.846308 
L 182.72516 107.840789 
L 183.026999 121.526347 
L 183.280162 114.066117 
L 183.293208 122.88021 
L 183.448025 110.232652 
L 183.652156 121.238616 
L 183.879788 117.728364 
L 183.988911 127.233797 
L 183.993835 119.980145 
L 184.144572 110.472593 
L 184.210506 122.818395 
L 184.280343 115.74296 
L 184.330526 106.576387 
L 184.354192 124.381502 
L 184.516956 121.151656 
L 184.560487 124.730588 
L 184.621485 121.873582 
L 184.881348 122.746212 
L 184.91787 107.841522 
L 185.24575 120.575168 
L 185.331477 134.478416 
L 185.383486 131.960103 
L 185.584866 117.65435 
L 185.771862 113.143986 
L 185.882815 118.360734 
L 185.94107 112.789497 
L 186.063102 129.015234 
L 186.356527 118.40809 
L 186.43247 106.315305 
L 186.779023 124.288446 
L 186.988953 119.572663 
L 187.118443 113.682662 
L 187.645076 125.936173 
L 187.8391 122.536243 
L 188.193859 122.845193 
L 188.204408 107.000673 
L 188.322228 112.558301 
L 188.575649 112.749655 
L 188.722793 127.224683 
L 188.800805 125.911952 
L 189.230109 117.130063 
L 189.520939 121.782646 
L 189.812329 129.353067 
L 190.013896 115.112842 
L 190.01948 116.326855 
L 190.327025 118.505834 
L 190.490842 122.350043 
L 190.680865 122.241624 
L 190.844422 110.98782 
L 190.871714 118.037741 
L 191.280132 110.856642 
L 191.551677 125.387664 
L 191.803595 113.626099 
L 192.419374 131.424046 
L 192.487996 112.966929 
L 192.631131 120.984083 
L 193.093626 116.783874 
L 193.184463 121.490878 
L 193.517618 115.195837 
L 193.733435 115.902445 
L 193.854218 121.167218 
L 194.300866 110.312969 
L 194.613979 122.468965 
L 194.786694 115.636327 
L 195.077476 126.804227 
L 195.511711 127.222487 
L 195.791458 129.721828 
L 196.399672 128.092472 
L 196.509759 115.042578 
L 196.655103 112.995898 
L 197.665816 120.31925 
L 197.699383 113.31747 
L 197.915119 115.533624 
L 198.580047 128.060662 
L 199.202172 108.916739 
L 199.306954 122.959782 
L 199.42466 119.417422 
L 199.540621 124.211398 
L 199.553416 112.905231 
L 200.035181 117.44672 
L 200.04023 125.210689 
L 200.871568 109.948927 
L 201.401717 121.235769 
L 201.792068 118.814558 
L 201.820154 114.564198 
L 202.126851 129.254257 
L 202.512072 116.787737 
L 202.754819 114.596541 
L 203.001138 123.667875 
L 203.026325 128.860735 
L 203.532666 108.884087 
L 203.831014 124.399236 
L 205.225472 126.404905 
L 205.557193 111.460727 
L 206.099319 126.652278 
L 206.714293 127.60904 
L 206.745838 125.792212 
L 207.115725 120.288107 
L 207.899424 120.700432 
L 207.921379 108.897531 
L 208.407851 114.472741 
L 208.779157 126.379709 
L 209.138675 125.034834 
L 209.345916 108.194499 
L 209.743985 130.097717 
L 210.106188 112.919575 
L 210.406407 118.571606 
L 212.355253 124.3805 
L 212.554239 124.443275 
L 212.630828 118.82207 
L 213.332154 128.946403 
L 213.402247 109.031249 
L 213.516414 120.209885 
L 214.47205 115.072182 
L 214.827218 108.161797 
L 215.625339 128.993453 
L 216.138613 115.347526 
L 217.466924 122.646387 
L 218.237068 114.310224 
L 218.822079 119.541796 
L 219.050742 126.346967 
L 219.354126 115.013115 
L 219.648028 119.162928 
L 221.127322 117.448591 
L 221.140186 126.206695 
L 223.826385 119.267275 
L 224.81856 125.456141 
L 224.828001 112.454749 
L 225.201202 113.757399 
L 226.556659 122.587567 
L 227.449795 112.868642 
L 227.796011 121.466024 
L 229.166763 129.113027 
L 231.497406 126.015045 
L 232.173991 114.104234 
L 232.570633 115.128372 
L 233.332035 121.526213 
L 235.175286 124.609227 
L 236.025824 108.851009 
L 236.026701 129.968344 
L 237.355728 122.752819 
L 239.241514 120.458434 
L 240.020798 116.203999 
L 241.047196 131.012991 
L 241.812528 126.840205 
L 242.762643 118.669378 
L 244.684572 128.984608 
L 244.803925 132.593828 
L 245.893773 120.338694 
L 246.501988 114.835348 
L 247.802332 129.924368 
L 248.83266 119.017521 
L 250.79257 127.335656 
L 251.181855 132.264334 
L 251.983315 117.97327 
L 253.679665 123.748513 
L 254.80894 119.963636 
L 256.02862 132.637439 
L 256.919852 118.16123 
L 257.929647 118.97816 
L 258.389274 129.163871 
L 260.614301 123.05082 
L 262.927425 111.596998 
L 263.050209 120.429408 
L 264.130793 121.511523 
L 265.560117 117.341172 
L 267.019909 119.517434 
L 268.5097 112.552956 
L 270.327907 113.034478 
L 270.608948 118.14298 
L 272.580871 113.605518 
L 273.0004 113.701844 
L 273.381268 122.686146 
L 276.602889 125.937709 
L 277.083103 115.962741 
L 279.104634 126.607433 
L 280.277014 121.711312 
L 280.857664 121.160904 
L 281.037882 128.181822 
L 281.097219 125.840859 
L 281.422803 119.081394 
L 287.608528 122.420869 
L 289.413898 132.723776 
L 289.755237 121.095134 
L 289.764055 121.806862 
L 291.15887 125.614944 
L 292.877445 125.858353 
L 296.167132 121.728958 
L 299.428401 128.875734 
L 301.198872 113.414853 
L 301.373837 113.929151 
L 306.103604 126.499937 
L 307.575013 112.48751 
L 309.621549 118.690864 
L 311.732849 130.161726 
L 313.496011 113.245296 
L 313.733508 122.907968 
L 316.644996 128.29355 
L 320.343959 119.192445 
L 321.625582 112.239395 
L 323.192097 117.35386 
L 324.228064 118.385706 
L 328.241559 116.203612 
L 329.893986 121.751391 
L 332.437761 117.75238 
L 332.661968 121.259061 
L 333.27708 115.257902 
L 340.917706 126.580471 
L 342.179858 121.762641 
L 344.144724 124.685341 
L 344.565578 111.634117 
L 345.784061 113.116384 
L 353.416319 130.186531 
L 354.541866 118.06994 
L 356.08611 124.853986 
L 357.024579 123.812906 
L 359.527987 126.381404 
L 363.456147 122.425983 
L 366.076391 128.892577 
L 367.199781 121.640455 
L 369.445078 130.016704 
L 370.678642 119.517339 
L 376.616941 126.711247 
L 379.198891 128.915381 
L 380.505719 117.423696 
L 383.136169 120.994042 
L 384.532192 115.901366 
L 388.704872 122.995518 
L 390.163432 121.201739 
L 392.885816 121.160516 
L 394.282702 111.735485 
L 397.024999 124.687292 
L 398.249159 112.393617 
L 402.571076 111.385821 
L 406.765015 134.668844 
L 408.11129 114.484542 
L 410.568172 114.862729 
L 416.669136 121.923318 
L 418.050634 114.877392 
L 420.714135 116.551696 
L 421.946858 119.319705 
L 424.242992 126.599604 
L 430.896555 119.578774 
L 432.213781 119.416727 
L 434.720874 128.970866 
L 435.913459 119.858316 
L 445.337312 130.899685 
L 446.611682 122.375544 
L 447.834027 131.106394 
L 449.40733 116.395782 
L 457.28419 120.462944 
L 461.084287 123.703053 
L 461.114046 117.486149 
L 462.209854 125.52786 
L 464.331054 128.400061 
L 471.135277 116.737292 
L 472.467869 112.517763 
L 473.335749 113.768632 
L 486.933646 116.178515 
L 487.817716 113.357641 
L 487.959132 114.156746 
L 493.131784 127.716872 
L 493.986512 118.333124 
L 495.398464 124.21213 
L 495.47927 129.33542 
L 506.994632 122.411084 
L 510.924131 118.625328 
L 517.772254 129.163589 
L 518.367614 125.093826 
L 519.684118 118.158572 
L 533.148811 111.835867 
L 533.232278 110.942211 
L 534.465315 114.785306 
L 541.165352 125.337279 
L 542.185321 130.193844 
L 542.185321 130.193844 
" clip-path="url(#p5efafb5c59)" style="fill: none; stroke: #1f77b4; stroke-width: 1.5; stroke-linecap: square"/>
   </g>
   <g id="patch_3">
    <path d="M 58.877054 390.04 
L 58.877054 10.8 
" style="fill: none; stroke: #000000; stroke-width: 0.8; stroke-linejoin: miter; stroke-linecap: square"/>
   </g>
   <g id="patch_4">
    <path d="M 565.2 390.04 
L 565.2 10.8 
" style="fill: none; stroke: #000000; stroke-width: 0.8; stroke-linejoin: miter; stroke-linecap: square"/>
   </g>
   <g id="patch_5">
    <path d="M 58.877054 390.04 
L 565.2 390.04 
" style="fill: none; stroke: #000000; stroke-width: 0.8; stroke-linejoin: miter; stroke-linecap: square"/>
   </g>
   <g id="patch_6">
    <path d="M 58.877054 10.8 
L 565.2 10.8 
" style="fill: none; stroke: #000000; stroke-width: 0.8; stroke-linejoin: miter; stroke-linecap: square"/>
   </g>
   <g id="legend_1">
    <g id="patch_7">
     <path d="M 511.8 33.9 
L 558.2 33.9 
Q 560.2 33.9 560.2 31.9 
L 560.2 17.8 
Q 560.2 15.8 558.2 15.8 
L 511.8 15.8 
Q 509.8 15.8 509.8 17.8 
L 509.8 31.9 
Q 509.8 33.9 511.8 33.9 
z
" style="fill: #ffffff; opacity: 0.8; stroke: #cccccc; stroke-linejoin: miter"/>
    </g>
    <g id="line2d_61">
     <path d="M 513.8 24 
L 523.8 24 
L 533.8 24 
" style="fill: none; stroke: #1f77b4; stroke-width: 1.5; stroke-linecap: square"/>
    </g>
    <g id="text_14">
     <!-- |$\mathbf{B}$| -->
     <g transform="translate(541.8 27.5) scale(0.1 -0.1)">
      <use xlink:href="#DejaVuSans-7c" transform="translate(0 0.578125)"/>
      <use xlink:href="#DejaVuSans-Bold-42" transform="translate(33.691406 0.578125)"/>
      <use xlink:href="#DejaVuSans-7c" transform="translate(109.912109 0.578125)"/>
     </g>
    </g>
   </g>
  </g>
 </g>
 <defs>
  <clipPath id="p5efafb5c59">
   <rect x="58.877054" y="10.8" width="506.322946" height="379.24"/>
  </clipPath>
 </defs>
</svg>
