<?xml version="1.0" encoding="utf-8" standalone="no"?>
<!DOCTYPE svg PUBLIC "-//W3C//DTD SVG 1.1//EN"
  "http://www.w3.org/Graphics/SVG/1.1/DTD/svg11.dtd">
<svg xmlns:xlink="http://www.w3.org/1999/xlink" width="576pt" height="432pt" viewBox="0 0 576 432" xmlns="http://www.w3.org/2000/svg" version="1.1">
 <metadata>
  <rdf:RDF xmlns:dc="http://purl.org/dc/elements/1.1/" xmlns:cc="http://creativecommons.org/ns#" xmlns:rdf="http://www.w3.org/1999/02/22-rdf-syntax-ns#">
   <cc:Work>
    <dc:type rdf:resource="http://purl.org/dc/dcmitype/StillImage"/>
    <dc:date>2024-12-05T19:04:07.717695</dc:date>
    <dc:format>image/svg+xml</dc:format>
    <dc:creator>
     <cc:Agent>
      <dc:title>Matplotlib v3.8.3, https://matplotlib.org/</dc:title>
     </cc:Agent>
    </dc:creator>
   </cc:Work>
  </rdf:RDF>
 </metadata>
 <defs>
  <style type="text/css">*{stroke-linejoin: round; stroke-linecap: butt}</style>
 </defs>
 <g id="figure_1">
  <g id="patch_1">
   <path d="M 0 432 
L 576 432 
L 576 0 
L 0 0 
z
" style="fill: #ffffff"/>
  </g>
  <g id="axes_1">
   <g id="patch_2">
    <path d="M 58.877054 390.04 
L 565.2 390.04 
L 565.2 10.8 
L 58.877054 10.8 
z
" style="fill: #ffffff"/>
   </g>
   <g id="matplotlib.axis_1">
    <g id="xtick_1">
     <g id="line2d_1">
      <path d="M 81.22134 390.04 
L 81.22134 10.8 
" clip-path="url(#pd768bdf52d)" style="fill: none; stroke: #b0b0b0; stroke-width: 0.8; stroke-linecap: square"/>
     </g>
     <g id="line2d_2">
      <defs>
       <path id="med5b068bd7" d="M 0 0 
L 0 3.5 
" style="stroke: #000000; stroke-width: 0.8"/>
      </defs>
      <g>
       <use xlink:href="#med5b068bd7" x="81.22134" y="390.04" style="stroke: #000000; stroke-width: 0.8"/>
      </g>
     </g>
     <g id="text_1">
      <!-- 0.0 -->
      <g transform="translate(73.269778 404.638438) scale(0.1 -0.1)">
       <defs>
        <path id="DejaVuSans-30" d="M 2034 4250 
Q 1547 4250 1301 3770 
Q 1056 3291 1056 2328 
Q 1056 1369 1301 889 
Q 1547 409 2034 409 
Q 2525 409 2770 889 
Q 3016 1369 3016 2328 
Q 3016 3291 2770 3770 
Q 2525 4250 2034 4250 
z
M 2034 4750 
Q 2819 4750 3233 4129 
Q 3647 3509 3647 2328 
Q 3647 1150 3233 529 
Q 2819 -91 2034 -91 
Q 1250 -91 836 529 
Q 422 1150 422 2328 
Q 422 3509 836 4129 
Q 1250 4750 2034 4750 
z
" transform="scale(0.015625)"/>
        <path id="DejaVuSans-2e" d="M 684 794 
L 1344 794 
L 1344 0 
L 684 0 
L 684 794 
z
" transform="scale(0.015625)"/>
       </defs>
       <use xlink:href="#DejaVuSans-30"/>
       <use xlink:href="#DejaVuSans-2e" x="63.623047"/>
       <use xlink:href="#DejaVuSans-30" x="95.410156"/>
      </g>
     </g>
    </g>
    <g id="xtick_2">
     <g id="line2d_3">
      <path d="M 174.630297 390.04 
L 174.630297 10.8 
" clip-path="url(#pd768bdf52d)" style="fill: none; stroke: #b0b0b0; stroke-width: 0.8; stroke-linecap: square"/>
     </g>
     <g id="line2d_4">
      <g>
       <use xlink:href="#med5b068bd7" x="174.630297" y="390.04" style="stroke: #000000; stroke-width: 0.8"/>
      </g>
     </g>
     <g id="text_2">
      <!-- 0.1 -->
      <g transform="translate(166.678735 404.638438) scale(0.1 -0.1)">
       <defs>
        <path id="DejaVuSans-31" d="M 794 531 
L 1825 531 
L 1825 4091 
L 703 3866 
L 703 4441 
L 1819 4666 
L 2450 4666 
L 2450 531 
L 3481 531 
L 3481 0 
L 794 0 
L 794 531 
z
" transform="scale(0.015625)"/>
       </defs>
       <use xlink:href="#DejaVuSans-30"/>
       <use xlink:href="#DejaVuSans-2e" x="63.623047"/>
       <use xlink:href="#DejaVuSans-31" x="95.410156"/>
      </g>
     </g>
    </g>
    <g id="xtick_3">
     <g id="line2d_5">
      <path d="M 268.039254 390.04 
L 268.039254 10.8 
" clip-path="url(#pd768bdf52d)" style="fill: none; stroke: #b0b0b0; stroke-width: 0.8; stroke-linecap: square"/>
     </g>
     <g id="line2d_6">
      <g>
       <use xlink:href="#med5b068bd7" x="268.039254" y="390.04" style="stroke: #000000; stroke-width: 0.8"/>
      </g>
     </g>
     <g id="text_3">
      <!-- 0.2 -->
      <g transform="translate(260.087692 404.638438) scale(0.1 -0.1)">
       <defs>
        <path id="DejaVuSans-32" d="M 1228 531 
L 3431 531 
L 3431 0 
L 469 0 
L 469 531 
Q 828 903 1448 1529 
Q 2069 2156 2228 2338 
Q 2531 2678 2651 2914 
Q 2772 3150 2772 3378 
Q 2772 3750 2511 3984 
Q 2250 4219 1831 4219 
Q 1534 4219 1204 4116 
Q 875 4013 500 3803 
L 500 4441 
Q 881 4594 1212 4672 
Q 1544 4750 1819 4750 
Q 2544 4750 2975 4387 
Q 3406 4025 3406 3419 
Q 3406 3131 3298 2873 
Q 3191 2616 2906 2266 
Q 2828 2175 2409 1742 
Q 1991 1309 1228 531 
z
" transform="scale(0.015625)"/>
       </defs>
       <use xlink:href="#DejaVuSans-30"/>
       <use xlink:href="#DejaVuSans-2e" x="63.623047"/>
       <use xlink:href="#DejaVuSans-32" x="95.410156"/>
      </g>
     </g>
    </g>
    <g id="xtick_4">
     <g id="line2d_7">
      <path d="M 361.448211 390.04 
L 361.448211 10.8 
" clip-path="url(#pd768bdf52d)" style="fill: none; stroke: #b0b0b0; stroke-width: 0.8; stroke-linecap: square"/>
     </g>
     <g id="line2d_8">
      <g>
       <use xlink:href="#med5b068bd7" x="361.448211" y="390.04" style="stroke: #000000; stroke-width: 0.8"/>
      </g>
     </g>
     <g id="text_4">
      <!-- 0.3 -->
      <g transform="translate(353.496649 404.638438) scale(0.1 -0.1)">
       <defs>
        <path id="DejaVuSans-33" d="M 2597 2516 
Q 3050 2419 3304 2112 
Q 3559 1806 3559 1356 
Q 3559 666 3084 287 
Q 2609 -91 1734 -91 
Q 1441 -91 1130 -33 
Q 819 25 488 141 
L 488 750 
Q 750 597 1062 519 
Q 1375 441 1716 441 
Q 2309 441 2620 675 
Q 2931 909 2931 1356 
Q 2931 1769 2642 2001 
Q 2353 2234 1838 2234 
L 1294 2234 
L 1294 2753 
L 1863 2753 
Q 2328 2753 2575 2939 
Q 2822 3125 2822 3475 
Q 2822 3834 2567 4026 
Q 2313 4219 1838 4219 
Q 1578 4219 1281 4162 
Q 984 4106 628 3988 
L 628 4550 
Q 988 4650 1302 4700 
Q 1616 4750 1894 4750 
Q 2613 4750 3031 4423 
Q 3450 4097 3450 3541 
Q 3450 3153 3228 2886 
Q 3006 2619 2597 2516 
z
" transform="scale(0.015625)"/>
       </defs>
       <use xlink:href="#DejaVuSans-30"/>
       <use xlink:href="#DejaVuSans-2e" x="63.623047"/>
       <use xlink:href="#DejaVuSans-33" x="95.410156"/>
      </g>
     </g>
    </g>
    <g id="xtick_5">
     <g id="line2d_9">
      <path d="M 454.857168 390.04 
L 454.857168 10.8 
" clip-path="url(#pd768bdf52d)" style="fill: none; stroke: #b0b0b0; stroke-width: 0.8; stroke-linecap: square"/>
     </g>
     <g id="line2d_10">
      <g>
       <use xlink:href="#med5b068bd7" x="454.857168" y="390.04" style="stroke: #000000; stroke-width: 0.8"/>
      </g>
     </g>
     <g id="text_5">
      <!-- 0.4 -->
      <g transform="translate(446.905606 404.638438) scale(0.1 -0.1)">
       <defs>
        <path id="DejaVuSans-34" d="M 2419 4116 
L 825 1625 
L 2419 1625 
L 2419 4116 
z
M 2253 4666 
L 3047 4666 
L 3047 1625 
L 3713 1625 
L 3713 1100 
L 3047 1100 
L 3047 0 
L 2419 0 
L 2419 1100 
L 313 1100 
L 313 1709 
L 2253 4666 
z
" transform="scale(0.015625)"/>
       </defs>
       <use xlink:href="#DejaVuSans-30"/>
       <use xlink:href="#DejaVuSans-2e" x="63.623047"/>
       <use xlink:href="#DejaVuSans-34" x="95.410156"/>
      </g>
     </g>
    </g>
    <g id="xtick_6">
     <g id="line2d_11">
      <path d="M 548.266125 390.04 
L 548.266125 10.8 
" clip-path="url(#pd768bdf52d)" style="fill: none; stroke: #b0b0b0; stroke-width: 0.8; stroke-linecap: square"/>
     </g>
     <g id="line2d_12">
      <g>
       <use xlink:href="#med5b068bd7" x="548.266125" y="390.04" style="stroke: #000000; stroke-width: 0.8"/>
      </g>
     </g>
     <g id="text_6">
      <!-- 0.5 -->
      <g transform="translate(540.314563 404.638438) scale(0.1 -0.1)">
       <defs>
        <path id="DejaVuSans-35" d="M 691 4666 
L 3169 4666 
L 3169 4134 
L 1269 4134 
L 1269 2991 
Q 1406 3038 1543 3061 
Q 1681 3084 1819 3084 
Q 2600 3084 3056 2656 
Q 3513 2228 3513 1497 
Q 3513 744 3044 326 
Q 2575 -91 1722 -91 
Q 1428 -91 1123 -41 
Q 819 9 494 109 
L 494 744 
Q 775 591 1075 516 
Q 1375 441 1709 441 
Q 2250 441 2565 725 
Q 2881 1009 2881 1497 
Q 2881 1984 2565 2268 
Q 2250 2553 1709 2553 
Q 1456 2553 1204 2497 
Q 953 2441 691 2322 
L 691 4666 
z
" transform="scale(0.015625)"/>
       </defs>
       <use xlink:href="#DejaVuSans-30"/>
       <use xlink:href="#DejaVuSans-2e" x="63.623047"/>
       <use xlink:href="#DejaVuSans-35" x="95.410156"/>
      </g>
     </g>
    </g>
    <g id="text_7">
     <!-- x-coordinate (m) -->
     <g transform="translate(270.245558 418.316562) scale(0.1 -0.1)">
      <defs>
       <path id="DejaVuSans-78" d="M 3513 3500 
L 2247 1797 
L 3578 0 
L 2900 0 
L 1881 1375 
L 863 0 
L 184 0 
L 1544 1831 
L 300 3500 
L 978 3500 
L 1906 2253 
L 2834 3500 
L 3513 3500 
z
" transform="scale(0.015625)"/>
       <path id="DejaVuSans-2d" d="M 313 2009 
L 1997 2009 
L 1997 1497 
L 313 1497 
L 313 2009 
z
" transform="scale(0.015625)"/>
       <path id="DejaVuSans-63" d="M 3122 3366 
L 3122 2828 
Q 2878 2963 2633 3030 
Q 2388 3097 2138 3097 
Q 1578 3097 1268 2742 
Q 959 2388 959 1747 
Q 959 1106 1268 751 
Q 1578 397 2138 397 
Q 2388 397 2633 464 
Q 2878 531 3122 666 
L 3122 134 
Q 2881 22 2623 -34 
Q 2366 -91 2075 -91 
Q 1284 -91 818 406 
Q 353 903 353 1747 
Q 353 2603 823 3093 
Q 1294 3584 2113 3584 
Q 2378 3584 2631 3529 
Q 2884 3475 3122 3366 
z
" transform="scale(0.015625)"/>
       <path id="DejaVuSans-6f" d="M 1959 3097 
Q 1497 3097 1228 2736 
Q 959 2375 959 1747 
Q 959 1119 1226 758 
Q 1494 397 1959 397 
Q 2419 397 2687 759 
Q 2956 1122 2956 1747 
Q 2956 2369 2687 2733 
Q 2419 3097 1959 3097 
z
M 1959 3584 
Q 2709 3584 3137 3096 
Q 3566 2609 3566 1747 
Q 3566 888 3137 398 
Q 2709 -91 1959 -91 
Q 1206 -91 779 398 
Q 353 888 353 1747 
Q 353 2609 779 3096 
Q 1206 3584 1959 3584 
z
" transform="scale(0.015625)"/>
       <path id="DejaVuSans-72" d="M 2631 2963 
Q 2534 3019 2420 3045 
Q 2306 3072 2169 3072 
Q 1681 3072 1420 2755 
Q 1159 2438 1159 1844 
L 1159 0 
L 581 0 
L 581 3500 
L 1159 3500 
L 1159 2956 
Q 1341 3275 1631 3429 
Q 1922 3584 2338 3584 
Q 2397 3584 2469 3576 
Q 2541 3569 2628 3553 
L 2631 2963 
z
" transform="scale(0.015625)"/>
       <path id="DejaVuSans-64" d="M 2906 2969 
L 2906 4863 
L 3481 4863 
L 3481 0 
L 2906 0 
L 2906 525 
Q 2725 213 2448 61 
Q 2172 -91 1784 -91 
Q 1150 -91 751 415 
Q 353 922 353 1747 
Q 353 2572 751 3078 
Q 1150 3584 1784 3584 
Q 2172 3584 2448 3432 
Q 2725 3281 2906 2969 
z
M 947 1747 
Q 947 1113 1208 752 
Q 1469 391 1925 391 
Q 2381 391 2643 752 
Q 2906 1113 2906 1747 
Q 2906 2381 2643 2742 
Q 2381 3103 1925 3103 
Q 1469 3103 1208 2742 
Q 947 2381 947 1747 
z
" transform="scale(0.015625)"/>
       <path id="DejaVuSans-69" d="M 603 3500 
L 1178 3500 
L 1178 0 
L 603 0 
L 603 3500 
z
M 603 4863 
L 1178 4863 
L 1178 4134 
L 603 4134 
L 603 4863 
z
" transform="scale(0.015625)"/>
       <path id="DejaVuSans-6e" d="M 3513 2113 
L 3513 0 
L 2938 0 
L 2938 2094 
Q 2938 2591 2744 2837 
Q 2550 3084 2163 3084 
Q 1697 3084 1428 2787 
Q 1159 2491 1159 1978 
L 1159 0 
L 581 0 
L 581 3500 
L 1159 3500 
L 1159 2956 
Q 1366 3272 1645 3428 
Q 1925 3584 2291 3584 
Q 2894 3584 3203 3211 
Q 3513 2838 3513 2113 
z
" transform="scale(0.015625)"/>
       <path id="DejaVuSans-61" d="M 2194 1759 
Q 1497 1759 1228 1600 
Q 959 1441 959 1056 
Q 959 750 1161 570 
Q 1363 391 1709 391 
Q 2188 391 2477 730 
Q 2766 1069 2766 1631 
L 2766 1759 
L 2194 1759 
z
M 3341 1997 
L 3341 0 
L 2766 0 
L 2766 531 
Q 2569 213 2275 61 
Q 1981 -91 1556 -91 
Q 1019 -91 701 211 
Q 384 513 384 1019 
Q 384 1609 779 1909 
Q 1175 2209 1959 2209 
L 2766 2209 
L 2766 2266 
Q 2766 2663 2505 2880 
Q 2244 3097 1772 3097 
Q 1472 3097 1187 3025 
Q 903 2953 641 2809 
L 641 3341 
Q 956 3463 1253 3523 
Q 1550 3584 1831 3584 
Q 2591 3584 2966 3190 
Q 3341 2797 3341 1997 
z
" transform="scale(0.015625)"/>
       <path id="DejaVuSans-74" d="M 1172 4494 
L 1172 3500 
L 2356 3500 
L 2356 3053 
L 1172 3053 
L 1172 1153 
Q 1172 725 1289 603 
Q 1406 481 1766 481 
L 2356 481 
L 2356 0 
L 1766 0 
Q 1100 0 847 248 
Q 594 497 594 1153 
L 594 3053 
L 172 3053 
L 172 3500 
L 594 3500 
L 594 4494 
L 1172 4494 
z
" transform="scale(0.015625)"/>
       <path id="DejaVuSans-65" d="M 3597 1894 
L 3597 1613 
L 953 1613 
Q 991 1019 1311 708 
Q 1631 397 2203 397 
Q 2534 397 2845 478 
Q 3156 559 3463 722 
L 3463 178 
Q 3153 47 2828 -22 
Q 2503 -91 2169 -91 
Q 1331 -91 842 396 
Q 353 884 353 1716 
Q 353 2575 817 3079 
Q 1281 3584 2069 3584 
Q 2775 3584 3186 3129 
Q 3597 2675 3597 1894 
z
M 3022 2063 
Q 3016 2534 2758 2815 
Q 2500 3097 2075 3097 
Q 1594 3097 1305 2825 
Q 1016 2553 972 2059 
L 3022 2063 
z
" transform="scale(0.015625)"/>
       <path id="DejaVuSans-20" transform="scale(0.015625)"/>
       <path id="DejaVuSans-28" d="M 1984 4856 
Q 1566 4138 1362 3434 
Q 1159 2731 1159 2009 
Q 1159 1288 1364 580 
Q 1569 -128 1984 -844 
L 1484 -844 
Q 1016 -109 783 600 
Q 550 1309 550 2009 
Q 550 2706 781 3412 
Q 1013 4119 1484 4856 
L 1984 4856 
z
" transform="scale(0.015625)"/>
       <path id="DejaVuSans-6d" d="M 3328 2828 
Q 3544 3216 3844 3400 
Q 4144 3584 4550 3584 
Q 5097 3584 5394 3201 
Q 5691 2819 5691 2113 
L 5691 0 
L 5113 0 
L 5113 2094 
Q 5113 2597 4934 2840 
Q 4756 3084 4391 3084 
Q 3944 3084 3684 2787 
Q 3425 2491 3425 1978 
L 3425 0 
L 2847 0 
L 2847 2094 
Q 2847 2600 2669 2842 
Q 2491 3084 2119 3084 
Q 1678 3084 1418 2786 
Q 1159 2488 1159 1978 
L 1159 0 
L 581 0 
L 581 3500 
L 1159 3500 
L 1159 2956 
Q 1356 3278 1631 3431 
Q 1906 3584 2284 3584 
Q 2666 3584 2933 3390 
Q 3200 3197 3328 2828 
z
" transform="scale(0.015625)"/>
       <path id="DejaVuSans-29" d="M 513 4856 
L 1013 4856 
Q 1481 4119 1714 3412 
Q 1947 2706 1947 2009 
Q 1947 1309 1714 600 
Q 1481 -109 1013 -844 
L 513 -844 
Q 928 -128 1133 580 
Q 1338 1288 1338 2009 
Q 1338 2731 1133 3434 
Q 928 4138 513 4856 
z
" transform="scale(0.015625)"/>
      </defs>
      <use xlink:href="#DejaVuSans-78"/>
      <use xlink:href="#DejaVuSans-2d" x="59.179688"/>
      <use xlink:href="#DejaVuSans-63" x="95.263672"/>
      <use xlink:href="#DejaVuSans-6f" x="150.244141"/>
      <use xlink:href="#DejaVuSans-6f" x="211.425781"/>
      <use xlink:href="#DejaVuSans-72" x="272.607422"/>
      <use xlink:href="#DejaVuSans-64" x="311.970703"/>
      <use xlink:href="#DejaVuSans-69" x="375.447266"/>
      <use xlink:href="#DejaVuSans-6e" x="403.230469"/>
      <use xlink:href="#DejaVuSans-61" x="466.609375"/>
      <use xlink:href="#DejaVuSans-74" x="527.888672"/>
      <use xlink:href="#DejaVuSans-65" x="567.097656"/>
      <use xlink:href="#DejaVuSans-20" x="628.621094"/>
      <use xlink:href="#DejaVuSans-28" x="660.408203"/>
      <use xlink:href="#DejaVuSans-6d" x="699.421875"/>
      <use xlink:href="#DejaVuSans-29" x="796.833984"/>
     </g>
    </g>
   </g>
   <g id="matplotlib.axis_2">
    <g id="ytick_1">
     <g id="line2d_13">
      <path d="M 58.877054 363.426312 
L 565.2 363.426312 
" clip-path="url(#pd768bdf52d)" style="fill: none; stroke: #b0b0b0; stroke-width: 0.8; stroke-linecap: square"/>
     </g>
     <g id="line2d_14">
      <defs>
       <path id="mc702f42c92" d="M 0 0 
L -3.5 0 
" style="stroke: #000000; stroke-width: 0.8"/>
      </defs>
      <g>
       <use xlink:href="#mc702f42c92" x="58.877054" y="363.426312" style="stroke: #000000; stroke-width: 0.8"/>
      </g>
     </g>
     <g id="text_8">
      <!-- $\mathdefault{10^{-4}}$ -->
      <g transform="translate(28.377054 367.225531) scale(0.1 -0.1)">
       <defs>
        <path id="DejaVuSans-2212" d="M 678 2272 
L 4684 2272 
L 4684 1741 
L 678 1741 
L 678 2272 
z
" transform="scale(0.015625)"/>
       </defs>
       <use xlink:href="#DejaVuSans-31" transform="translate(0 0.684375)"/>
       <use xlink:href="#DejaVuSans-30" transform="translate(63.623047 0.684375)"/>
       <use xlink:href="#DejaVuSans-2212" transform="translate(128.203125 38.965625) scale(0.7)"/>
       <use xlink:href="#DejaVuSans-34" transform="translate(186.855469 38.965625) scale(0.7)"/>
      </g>
     </g>
    </g>
    <g id="ytick_2">
     <g id="line2d_15">
      <path d="M 58.877054 283.643247 
L 565.2 283.643247 
" clip-path="url(#pd768bdf52d)" style="fill: none; stroke: #b0b0b0; stroke-width: 0.8; stroke-linecap: square"/>
     </g>
     <g id="line2d_16">
      <g>
       <use xlink:href="#mc702f42c92" x="58.877054" y="283.643247" style="stroke: #000000; stroke-width: 0.8"/>
      </g>
     </g>
     <g id="text_9">
      <!-- $\mathdefault{10^{-3}}$ -->
      <g transform="translate(28.377054 287.442466) scale(0.1 -0.1)">
       <use xlink:href="#DejaVuSans-31" transform="translate(0 0.765625)"/>
       <use xlink:href="#DejaVuSans-30" transform="translate(63.623047 0.765625)"/>
       <use xlink:href="#DejaVuSans-2212" transform="translate(128.203125 39.046875) scale(0.7)"/>
       <use xlink:href="#DejaVuSans-33" transform="translate(186.855469 39.046875) scale(0.7)"/>
      </g>
     </g>
    </g>
    <g id="ytick_3">
     <g id="line2d_17">
      <path d="M 58.877054 203.860183 
L 565.2 203.860183 
" clip-path="url(#pd768bdf52d)" style="fill: none; stroke: #b0b0b0; stroke-width: 0.8; stroke-linecap: square"/>
     </g>
     <g id="line2d_18">
      <g>
       <use xlink:href="#mc702f42c92" x="58.877054" y="203.860183" style="stroke: #000000; stroke-width: 0.8"/>
      </g>
     </g>
     <g id="text_10">
      <!-- $\mathdefault{10^{-2}}$ -->
      <g transform="translate(28.377054 207.659401) scale(0.1 -0.1)">
       <use xlink:href="#DejaVuSans-31" transform="translate(0 0.765625)"/>
       <use xlink:href="#DejaVuSans-30" transform="translate(63.623047 0.765625)"/>
       <use xlink:href="#DejaVuSans-2212" transform="translate(128.203125 39.046875) scale(0.7)"/>
       <use xlink:href="#DejaVuSans-32" transform="translate(186.855469 39.046875) scale(0.7)"/>
      </g>
     </g>
    </g>
    <g id="ytick_4">
     <g id="line2d_19">
      <path d="M 58.877054 124.077118 
L 565.2 124.077118 
" clip-path="url(#pd768bdf52d)" style="fill: none; stroke: #b0b0b0; stroke-width: 0.8; stroke-linecap: square"/>
     </g>
     <g id="line2d_20">
      <g>
       <use xlink:href="#mc702f42c92" x="58.877054" y="124.077118" style="stroke: #000000; stroke-width: 0.8"/>
      </g>
     </g>
     <g id="text_11">
      <!-- $\mathdefault{10^{-1}}$ -->
      <g transform="translate(28.377054 127.876337) scale(0.1 -0.1)">
       <use xlink:href="#DejaVuSans-31" transform="translate(0 0.684375)"/>
       <use xlink:href="#DejaVuSans-30" transform="translate(63.623047 0.684375)"/>
       <use xlink:href="#DejaVuSans-2212" transform="translate(128.203125 38.965625) scale(0.7)"/>
       <use xlink:href="#DejaVuSans-31" transform="translate(186.855469 38.965625) scale(0.7)"/>
      </g>
     </g>
    </g>
    <g id="ytick_5">
     <g id="line2d_21">
      <path d="M 58.877054 44.294053 
L 565.2 44.294053 
" clip-path="url(#pd768bdf52d)" style="fill: none; stroke: #b0b0b0; stroke-width: 0.8; stroke-linecap: square"/>
     </g>
     <g id="line2d_22">
      <g>
       <use xlink:href="#mc702f42c92" x="58.877054" y="44.294053" style="stroke: #000000; stroke-width: 0.8"/>
      </g>
     </g>
     <g id="text_12">
      <!-- $\mathdefault{10^{0}}$ -->
      <g transform="translate(34.277054 48.093272) scale(0.1 -0.1)">
       <use xlink:href="#DejaVuSans-31" transform="translate(0 0.765625)"/>
       <use xlink:href="#DejaVuSans-30" transform="translate(63.623047 0.765625)"/>
       <use xlink:href="#DejaVuSans-30" transform="translate(128.203125 39.046875) scale(0.7)"/>
      </g>
     </g>
    </g>
    <g id="ytick_6">
     <g id="line2d_23">
      <defs>
       <path id="m06c8da0668" d="M 0 0 
L -2 0 
" style="stroke: #000000; stroke-width: 0.6"/>
      </defs>
      <g>
       <use xlink:href="#m06c8da0668" x="58.877054" y="387.443408" style="stroke: #000000; stroke-width: 0.6"/>
      </g>
     </g>
    </g>
    <g id="ytick_7">
     <g id="line2d_24">
      <g>
       <use xlink:href="#m06c8da0668" x="58.877054" y="381.126085" style="stroke: #000000; stroke-width: 0.6"/>
      </g>
     </g>
    </g>
    <g id="ytick_8">
     <g id="line2d_25">
      <g>
       <use xlink:href="#m06c8da0668" x="58.877054" y="375.784865" style="stroke: #000000; stroke-width: 0.6"/>
      </g>
     </g>
    </g>
    <g id="ytick_9">
     <g id="line2d_26">
      <g>
       <use xlink:href="#m06c8da0668" x="58.877054" y="371.15809" style="stroke: #000000; stroke-width: 0.6"/>
      </g>
     </g>
    </g>
    <g id="ytick_10">
     <g id="line2d_27">
      <g>
       <use xlink:href="#m06c8da0668" x="58.877054" y="367.076985" style="stroke: #000000; stroke-width: 0.6"/>
      </g>
     </g>
    </g>
    <g id="ytick_11">
     <g id="line2d_28">
      <g>
       <use xlink:href="#m06c8da0668" x="58.877054" y="339.409216" style="stroke: #000000; stroke-width: 0.6"/>
      </g>
     </g>
    </g>
    <g id="ytick_12">
     <g id="line2d_29">
      <g>
       <use xlink:href="#m06c8da0668" x="58.877054" y="325.360116" style="stroke: #000000; stroke-width: 0.6"/>
      </g>
     </g>
    </g>
    <g id="ytick_13">
     <g id="line2d_30">
      <g>
       <use xlink:href="#m06c8da0668" x="58.877054" y="315.392121" style="stroke: #000000; stroke-width: 0.6"/>
      </g>
     </g>
    </g>
    <g id="ytick_14">
     <g id="line2d_31">
      <g>
       <use xlink:href="#m06c8da0668" x="58.877054" y="307.660343" style="stroke: #000000; stroke-width: 0.6"/>
      </g>
     </g>
    </g>
    <g id="ytick_15">
     <g id="line2d_32">
      <g>
       <use xlink:href="#m06c8da0668" x="58.877054" y="301.343021" style="stroke: #000000; stroke-width: 0.6"/>
      </g>
     </g>
    </g>
    <g id="ytick_16">
     <g id="line2d_33">
      <g>
       <use xlink:href="#m06c8da0668" x="58.877054" y="296.0018" style="stroke: #000000; stroke-width: 0.6"/>
      </g>
     </g>
    </g>
    <g id="ytick_17">
     <g id="line2d_34">
      <g>
       <use xlink:href="#m06c8da0668" x="58.877054" y="291.375025" style="stroke: #000000; stroke-width: 0.6"/>
      </g>
     </g>
    </g>
    <g id="ytick_18">
     <g id="line2d_35">
      <g>
       <use xlink:href="#m06c8da0668" x="58.877054" y="287.29392" style="stroke: #000000; stroke-width: 0.6"/>
      </g>
     </g>
    </g>
    <g id="ytick_19">
     <g id="line2d_36">
      <g>
       <use xlink:href="#m06c8da0668" x="58.877054" y="259.626152" style="stroke: #000000; stroke-width: 0.6"/>
      </g>
     </g>
    </g>
    <g id="ytick_20">
     <g id="line2d_37">
      <g>
       <use xlink:href="#m06c8da0668" x="58.877054" y="245.577051" style="stroke: #000000; stroke-width: 0.6"/>
      </g>
     </g>
    </g>
    <g id="ytick_21">
     <g id="line2d_38">
      <g>
       <use xlink:href="#m06c8da0668" x="58.877054" y="235.609056" style="stroke: #000000; stroke-width: 0.6"/>
      </g>
     </g>
    </g>
    <g id="ytick_22">
     <g id="line2d_39">
      <g>
       <use xlink:href="#m06c8da0668" x="58.877054" y="227.877278" style="stroke: #000000; stroke-width: 0.6"/>
      </g>
     </g>
    </g>
    <g id="ytick_23">
     <g id="line2d_40">
      <g>
       <use xlink:href="#m06c8da0668" x="58.877054" y="221.559956" style="stroke: #000000; stroke-width: 0.6"/>
      </g>
     </g>
    </g>
    <g id="ytick_24">
     <g id="line2d_41">
      <g>
       <use xlink:href="#m06c8da0668" x="58.877054" y="216.218736" style="stroke: #000000; stroke-width: 0.6"/>
      </g>
     </g>
    </g>
    <g id="ytick_25">
     <g id="line2d_42">
      <g>
       <use xlink:href="#m06c8da0668" x="58.877054" y="211.59196" style="stroke: #000000; stroke-width: 0.6"/>
      </g>
     </g>
    </g>
    <g id="ytick_26">
     <g id="line2d_43">
      <g>
       <use xlink:href="#m06c8da0668" x="58.877054" y="207.510855" style="stroke: #000000; stroke-width: 0.6"/>
      </g>
     </g>
    </g>
    <g id="ytick_27">
     <g id="line2d_44">
      <g>
       <use xlink:href="#m06c8da0668" x="58.877054" y="179.843087" style="stroke: #000000; stroke-width: 0.6"/>
      </g>
     </g>
    </g>
    <g id="ytick_28">
     <g id="line2d_45">
      <g>
       <use xlink:href="#m06c8da0668" x="58.877054" y="165.793987" style="stroke: #000000; stroke-width: 0.6"/>
      </g>
     </g>
    </g>
    <g id="ytick_29">
     <g id="line2d_46">
      <g>
       <use xlink:href="#m06c8da0668" x="58.877054" y="155.825991" style="stroke: #000000; stroke-width: 0.6"/>
      </g>
     </g>
    </g>
    <g id="ytick_30">
     <g id="line2d_47">
      <g>
       <use xlink:href="#m06c8da0668" x="58.877054" y="148.094213" style="stroke: #000000; stroke-width: 0.6"/>
      </g>
     </g>
    </g>
    <g id="ytick_31">
     <g id="line2d_48">
      <g>
       <use xlink:href="#m06c8da0668" x="58.877054" y="141.776891" style="stroke: #000000; stroke-width: 0.6"/>
      </g>
     </g>
    </g>
    <g id="ytick_32">
     <g id="line2d_49">
      <g>
       <use xlink:href="#m06c8da0668" x="58.877054" y="136.435671" style="stroke: #000000; stroke-width: 0.6"/>
      </g>
     </g>
    </g>
    <g id="ytick_33">
     <g id="line2d_50">
      <g>
       <use xlink:href="#m06c8da0668" x="58.877054" y="131.808896" style="stroke: #000000; stroke-width: 0.6"/>
      </g>
     </g>
    </g>
    <g id="ytick_34">
     <g id="line2d_51">
      <g>
       <use xlink:href="#m06c8da0668" x="58.877054" y="127.727791" style="stroke: #000000; stroke-width: 0.6"/>
      </g>
     </g>
    </g>
    <g id="ytick_35">
     <g id="line2d_52">
      <g>
       <use xlink:href="#m06c8da0668" x="58.877054" y="100.060022" style="stroke: #000000; stroke-width: 0.6"/>
      </g>
     </g>
    </g>
    <g id="ytick_36">
     <g id="line2d_53">
      <g>
       <use xlink:href="#m06c8da0668" x="58.877054" y="86.010922" style="stroke: #000000; stroke-width: 0.6"/>
      </g>
     </g>
    </g>
    <g id="ytick_37">
     <g id="line2d_54">
      <g>
       <use xlink:href="#m06c8da0668" x="58.877054" y="76.042927" style="stroke: #000000; stroke-width: 0.6"/>
      </g>
     </g>
    </g>
    <g id="ytick_38">
     <g id="line2d_55">
      <g>
       <use xlink:href="#m06c8da0668" x="58.877054" y="68.311149" style="stroke: #000000; stroke-width: 0.6"/>
      </g>
     </g>
    </g>
    <g id="ytick_39">
     <g id="line2d_56">
      <g>
       <use xlink:href="#m06c8da0668" x="58.877054" y="61.993826" style="stroke: #000000; stroke-width: 0.6"/>
      </g>
     </g>
    </g>
    <g id="ytick_40">
     <g id="line2d_57">
      <g>
       <use xlink:href="#m06c8da0668" x="58.877054" y="56.652606" style="stroke: #000000; stroke-width: 0.6"/>
      </g>
     </g>
    </g>
    <g id="ytick_41">
     <g id="line2d_58">
      <g>
       <use xlink:href="#m06c8da0668" x="58.877054" y="52.025831" style="stroke: #000000; stroke-width: 0.6"/>
      </g>
     </g>
    </g>
    <g id="ytick_42">
     <g id="line2d_59">
      <g>
       <use xlink:href="#m06c8da0668" x="58.877054" y="47.944726" style="stroke: #000000; stroke-width: 0.6"/>
      </g>
     </g>
    </g>
    <g id="ytick_43">
     <g id="line2d_60">
      <g>
       <use xlink:href="#m06c8da0668" x="58.877054" y="20.276957" style="stroke: #000000; stroke-width: 0.6"/>
      </g>
     </g>
    </g>
    <g id="text_13">
     <!-- |$\mathbf{B}$| (T) -->
     <g transform="translate(21.977054 216.17) rotate(-90) scale(0.1 -0.1)">
      <defs>
       <path id="DejaVuSans-7c" d="M 1344 4891 
L 1344 -1509 
L 813 -1509 
L 813 4891 
L 1344 4891 
z
" transform="scale(0.015625)"/>
       <path id="DejaVuSans-Bold-42" d="M 2456 2859 
Q 2741 2859 2887 2984 
Q 3034 3109 3034 3353 
Q 3034 3594 2887 3720 
Q 2741 3847 2456 3847 
L 1791 3847 
L 1791 2859 
L 2456 2859 
z
M 2497 819 
Q 2859 819 3042 972 
Q 3225 1125 3225 1434 
Q 3225 1738 3044 1889 
Q 2863 2041 2497 2041 
L 1791 2041 
L 1791 819 
L 2497 819 
z
M 3616 2497 
Q 4003 2384 4215 2081 
Q 4428 1778 4428 1338 
Q 4428 663 3972 331 
Q 3516 0 2584 0 
L 588 0 
L 588 4666 
L 2394 4666 
Q 3366 4666 3802 4372 
Q 4238 4078 4238 3431 
Q 4238 3091 4078 2852 
Q 3919 2613 3616 2497 
z
" transform="scale(0.015625)"/>
       <path id="DejaVuSans-54" d="M -19 4666 
L 3928 4666 
L 3928 4134 
L 2272 4134 
L 2272 0 
L 1638 0 
L 1638 4134 
L -19 4134 
L -19 4666 
z
" transform="scale(0.015625)"/>
      </defs>
      <use xlink:href="#DejaVuSans-7c" transform="translate(0 0.578125)"/>
      <use xlink:href="#DejaVuSans-Bold-42" transform="translate(33.691406 0.578125)"/>
      <use xlink:href="#DejaVuSans-7c" transform="translate(109.912109 0.578125)"/>
      <use xlink:href="#DejaVuSans-20" transform="translate(143.603516 0.578125)"/>
      <use xlink:href="#DejaVuSans-28" transform="translate(175.390625 0.578125)"/>
      <use xlink:href="#DejaVuSans-54" transform="translate(214.404297 0.578125)"/>
      <use xlink:href="#DejaVuSans-29" transform="translate(275.488281 0.578125)"/>
     </g>
    </g>
   </g>
   <g id="line2d_61">
    <path d="M 81.891733 368.203834 
L 82.000878 365.927619 
L 82.002904 366.768671 
L 82.003532 362.290737 
L 82.019397 363.749388 
L 82.684817 353.077241 
L 82.790413 348.647679 
L 82.790992 354.061287 
L 82.806339 348.473758 
L 82.81248 348.693391 
L 84.174796 357.093976 
L 84.297486 363.546196 
L 84.355181 352.953389 
L 84.377815 367.199129 
L 84.398359 364.138251 
L 85.069737 356.977675 
L 85.147765 363.558497 
L 85.160572 348.77494 
L 85.186422 353.609067 
L 85.458641 358.711671 
L 86.640936 357.229298 
L 86.728976 347.721196 
L 86.73323 350.652045 
L 86.736993 348.956653 
L 86.832302 363.814202 
L 87.365037 355.693814 
L 87.511801 361.715303 
L 87.517661 367.085955 
L 87.558461 355.234053 
L 87.5612 366.073231 
L 88.089646 347.641154 
L 89.064389 352.967688 
L 89.124267 367.254026 
L 89.123348 351.589271 
L 89.146804 359.908924 
L 89.447428 364.318995 
L 89.889548 359.988099 
L 89.892139 366.841969 
L 89.894193 353.586075 
L 89.950787 363.223118 
L 90.82109 361.602728 
L 91.473786 365.971659 
L 91.531661 367.194095 
L 91.575226 351.191024 
L 92.143324 364.86934 
L 92.270354 349.546108 
L 92.270919 355.776881 
L 92.273592 368.944957 
L 92.277171 349.478708 
L 92.354286 361.087827 
L 92.468949 357.877472 
L 93.532863 348.375513 
L 93.855351 353.25457 
L 93.868176 367.194001 
L 93.91885 352.841421 
L 93.933924 358.914672 
L 94.14566 355.52917 
L 94.64859 363.348753 
L 94.687902 352.423712 
L 94.653675 366.859777 
L 94.735808 366.350015 
L 94.831575 360.835965 
L 96.160896 353.978984 
L 96.239875 349.077752 
L 96.240696 350.361352 
L 96.240743 365.120667 
L 96.343348 362.342506 
L 97.031614 362.266765 
L 97.032814 369.229094 
L 97.034027 350.579842 
L 97.102186 362.939507 
L 97.534557 365.446835 
L 97.540408 351.023262 
L 98.61801 360.61475 
L 98.684613 365.525065 
L 98.664095 353.14703 
L 98.691513 355.049346 
L 99.047392 365.761387 
L 99.078935 359.036218 
L 99.411931 356.45758 
L 99.41513 364.377566 
L 99.414725 349.409114 
L 99.506794 363.204841 
L 100.407432 358.616599 
L 100.444825 359.576126 
L 101.002128 366.573152 
L 101.07051 352.426157 
L 101.003864 370.124285 
L 101.105837 355.6433 
L 101.693435 358.103109 
L 101.796841 358.010023 
L 101.818487 349.550466 
L 101.860782 367.163982 
L 101.877602 362.184781 
L 101.990645 356.743525 
L 103.181481 352.476223 
L 103.269139 368.263419 
L 103.394637 349.80401 
L 103.398684 351.434237 
L 103.439605 366.503238 
L 103.462196 355.954287 
L 103.557914 353.595589 
L 104.189541 364.891209 
L 104.23048 352.744685 
L 104.261241 368.291004 
L 104.650571 359.592435 
L 105.741368 367.721702 
L 105.785386 348.84317 
L 105.830353 365.185178 
L 106.026577 364.27522 
L 106.503272 352.686158 
L 106.601857 367.057353 
L 106.607889 358.117945 
L 106.610693 351.992392 
L 106.614873 365.789934 
L 106.622662 364.446429 
L 107.323246 347.122966 
L 108.174881 350.272204 
L 108.18555 367.057727 
L 108.209516 354.328782 
L 108.646148 364.077405 
L 108.969836 361.690843 
L 108.990892 351.028882 
L 109.020352 367.992978 
L 110.017465 359.954959 
L 110.501898 368.907839 
L 110.588768 349.879885 
L 110.561873 369.094928 
L 110.590137 356.224849 
L 111.241712 354.120262 
L 111.356738 359.363151 
L 111.356892 354.836669 
L 111.358858 348.784559 
L 111.413035 368.8069 
L 111.539728 352.972826 
L 112.788926 358.083863 
L 112.837455 349.972475 
L 112.959468 365.508057 
L 113.037555 358.891686 
L 113.698599 356.888062 
L 113.743561 352.578668 
L 113.743597 355.918275 
L 113.759927 367.689193 
L 113.750228 352.890692 
L 113.764374 366.565025 
L 114.284523 358.940027 
L 115.299681 356.931695 
L 115.335061 349.083368 
L 115.348799 366.777089 
L 115.35183 355.823738 
L 115.562868 358.972853 
L 115.635554 366.625863 
L 116.094143 358.391969 
L 116.134813 367.949943 
L 116.136578 355.632185 
L 116.145594 349.399448 
L 116.143013 366.831691 
L 116.145659 363.399157 
L 116.935808 352.669962 
L 116.93653 368.769339 
L 117.722413 360.982651 
L 117.730575 365.937326 
L 117.771107 356.290157 
L 118.228293 360.050594 
L 118.310191 349.912437 
L 118.518134 363.997382 
L 118.520181 357.229083 
L 118.526838 350.213883 
L 118.526862 362.79735 
L 118.566433 358.474796 
L 119.556157 357.479215 
L 119.637333 359.899246 
L 120.108615 365.971182 
L 120.113601 351.225736 
L 120.109385 369.680082 
L 120.153847 363.986307 
L 120.775671 364.924586 
L 120.9035 350.537228 
L 120.905296 352.439898 
L 120.907082 368.209926 
L 120.907549 350.649546 
L 121.010994 358.247002 
L 121.036643 356.367395 
L 122.247948 351.393976 
L 122.402095 365.343641 
L 122.491308 363.766098 
L 122.49736 352.248876 
L 122.496937 366.56818 
L 122.564334 352.991394 
L 123.267214 360.644126 
L 123.288273 367.66975 
L 123.285737 351.243814 
L 123.293975 356.93399 
L 123.822275 352.184393 
L 124.710802 366.253264 
L 124.873803 350.725809 
L 124.877664 361.211026 
L 124.879508 365.105886 
L 124.880085 351.590935 
L 124.886417 364.662403 
L 125.165667 365.172474 
L 125.566109 353.238789 
L 125.67014 367.080723 
L 125.672212 357.155386 
L 125.673485 350.305191 
L 125.675021 369.694351 
L 125.680166 358.345624 
L 126.521888 357.012647 
L 127.179763 352.596443 
L 127.245474 348.511627 
L 127.26487 366.85252 
L 127.293382 355.368796 
L 127.851369 366.636827 
L 128.04639 364.436219 
L 128.058715 349.021111 
L 128.094384 367.143132 
L 129.255299 356.116736 
L 129.643243 359.540099 
L 129.647991 369.009075 
L 129.646565 349.177464 
L 129.650791 363.356953 
L 129.796819 361.646926 
L 130.439968 363.054898 
L 130.44252 366.896775 
L 130.443557 350.31933 
L 130.485645 361.089666 
L 130.62896 361.335704 
L 130.857634 357.438516 
L 132.02967 366.222403 
L 132.030436 368.05803 
L 132.046802 347.902461 
L 132.061647 364.014088 
L 132.244104 360.626476 
L 132.816306 351.188884 
L 132.824633 351.549866 
L 132.825429 349.713181 
L 132.831953 365.854261 
L 132.833451 355.457908 
L 133.375471 353.182295 
L 133.406842 366.392215 
L 134.17466 361.141974 
L 134.413592 351.184346 
L 134.425151 367.390773 
L 134.42265 348.866188 
L 134.425308 362.195869 
L 134.561626 372.801818 
L 134.780503 356.479736 
L 135.085272 357.929509 
L 135.207625 363.184093 
L 135.221595 351.927123 
L 135.227688 365.90012 
L 135.944059 354.528459 
L 136.131564 367.507645 
L 136.747444 350.30781 
L 136.813444 366.420374 
L 136.817543 355.307947 
L 137.219265 356.206215 
L 137.518847 349.779484 
L 137.607772 366.849126 
L 137.67659 362.509604 
L 138.71629 356.866146 
L 138.828366 360.017676 
L 139.180314 365.395647 
L 139.201716 348.868108 
L 139.194258 366.771439 
L 139.26146 357.457673 
L 139.939361 364.131462 
L 139.998863 350.307653 
L 139.99742 365.569589 
L 140.000738 351.578701 
L 140.178177 359.432449 
L 140.224627 358.204987 
L 141.443213 352.591133 
L 141.563057 363.745682 
L 141.577523 359.654898 
L 141.586551 354.071665 
L 141.589567 366.000865 
L 141.69717 354.351222 
L 142.357159 356.205809 
L 142.383997 349.067476 
L 142.378177 367.683362 
L 142.456384 366.233881 
L 143.054205 351.530437 
L 143.940717 367.369273 
L 143.974336 350.346667 
L 143.986264 362.59473 
L 144.516292 365.169322 
L 144.588289 351.604832 
L 144.740467 352.11117 
L 144.772981 368.804838 
L 144.77849 348.831654 
L 145.871839 357.588018 
L 146.096466 354.384347 
L 146.267713 363.203716 
L 146.330142 363.70852 
L 146.364383 350.65016 
L 146.365386 367.016698 
L 146.370197 363.753493 
L 147.03777 364.135759 
L 147.123929 356.068808 
L 147.127952 359.23173 
L 147.143297 369.875453 
L 147.16781 350.244633 
L 147.300132 359.803588 
L 147.467902 356.866678 
L 148.585367 349.542931 
L 148.739768 368.268779 
L 148.751015 349.129913 
L 148.813022 359.674628 
L 149.336316 355.696549 
L 149.49456 357.363452 
L 149.545485 353.945407 
L 149.552641 366.7034 
L 149.970736 368.861686 
L 150.030621 352.139592 
L 151.008728 358.627256 
L 151.081074 363.922754 
L 151.101576 361.236867 
L 151.144098 350.248491 
L 151.142545 365.376771 
L 151.145585 362.49082 
L 151.289766 358.177605 
L 151.358284 366.060642 
L 151.873217 356.755467 
L 151.891864 351.064462 
L 151.941673 367.682347 
L 151.943275 362.988097 
L 152.663427 359.885401 
L 152.672061 359.084443 
L 153.47386 364.607848 
L 153.488335 357.465277 
L 153.538029 366.244945 
L 153.992845 358.034339 
L 154.02538 348.611658 
L 154.298048 357.45726 
L 154.335754 350.435918 
L 154.333898 363.326268 
L 154.339865 354.17751 
L 155.472065 351.545662 
L 155.513234 366.510567 
L 155.882081 365.287658 
L 155.911104 353.277044 
L 155.923815 367.55112 
L 155.944973 354.229414 
L 156.627919 367.730748 
L 156.727661 348.414087 
L 156.728691 350.5981 
L 156.886895 358.143982 
L 158.097788 366.078355 
L 158.121957 354.59102 
L 158.292124 350.062469 
L 158.299748 366.541688 
L 158.341604 362.798584 
L 158.836842 357.45893 
L 158.943452 352.635675 
L 158.973575 350.845085 
L 159.092297 366.307344 
L 159.112251 367.746196 
L 159.159158 350.006591 
L 159.559216 348.034661 
L 160.323752 366.718932 
L 160.336484 364.720599 
L 160.556755 357.218258 
L 160.592574 365.863819 
L 160.674161 364.762279 
L 160.690893 355.459784 
L 160.692422 365.728017 
L 160.752023 358.254716 
L 160.935435 366.350232 
L 161.388077 358.216652 
L 161.421058 361.597095 
L 161.459803 350.603751 
L 161.486362 365.441541 
L 161.56041 351.799232 
L 161.566893 360.785094 
L 162.269905 354.54264 
L 162.902073 367.946837 
L 163.026889 48.243575 
L 163.109069 365.496874 
L 163.125582 362.083636 
L 163.160219 361.483036 
L 163.591099 349.053485 
L 163.68892 349.306012 
L 163.721506 365.519401 
L 163.863911 350.234087 
L 163.989363 354.254932 
L 164.143127 349.7769 
L 164.220717 362.60136 
L 164.397229 35.015559 
L 164.939913 349.686503 
L 165.09261 358.645955 
L 165.215092 356.827817 
L 165.341715 350.282234 
L 165.454634 365.557457 
L 165.593395 360.165974 
L 165.715015 36.292674 
L 165.746613 52.175469 
L 165.87535 366.576421 
L 166.140459 360.763015 
L 166.191634 361.768145 
L 166.293135 347.25162 
L 166.506937 359.975301 
L 166.572362 357.787853 
L 166.604742 353.789573 
L 166.647168 357.03184 
L 167.059014 37.456383 
L 167.323937 349.03083 
L 167.599678 367.012104 
L 167.613207 365.388707 
L 167.638762 365.365828 
L 167.725456 363.318706 
L 167.802657 349.638666 
L 167.89501 351.639589 
L 167.989852 46.641683 
L 168.08799 362.565539 
L 168.113514 359.787666 
L 168.1353 38.410026 
L 168.163636 52.490605 
L 168.251063 36.71861 
L 168.253051 49.191895 
L 168.483356 357.522499 
L 168.678518 352.689986 
L 168.704271 363.795481 
L 169.022391 46.785167 
L 169.171945 367.851365 
L 169.208912 347.381893 
L 169.255136 32.149751 
L 169.339801 363.312323 
L 169.342571 352.380554 
L 169.40541 41.186813 
L 169.407974 349.483823 
L 169.611223 35.84432 
L 169.641829 355.920502 
L 169.83049 44.148421 
L 169.947974 355.931395 
L 169.974107 48.273678 
L 169.979736 356.23618 
L 170.055835 351.514591 
L 170.237401 33.772258 
L 170.306426 361.953143 
L 170.381078 33.404937 
L 170.400713 361.022227 
L 170.50494 357.456232 
L 170.742463 48.690686 
L 170.796989 359.862054 
L 170.902784 356.448382 
L 170.955685 366.072028 
L 170.991463 352.754541 
L 171.019351 362.763812 
L 171.056606 35.065461 
L 171.332184 364.623009 
L 171.337917 33.972278 
L 171.422349 362.685445 
L 171.675325 361.809279 
L 171.783068 37.147262 
L 171.794902 42.824741 
L 171.796748 356.057308 
L 171.990971 37.619645 
L 172.013195 47.106556 
L 172.169634 365.51485 
L 172.226435 32.660748 
L 172.287198 346.286258 
L 172.406125 47.73198 
L 172.483574 48.362659 
L 172.518074 349.330257 
L 172.553264 45.250821 
L 172.653781 350.895504 
L 172.679194 366.538438 
L 172.70133 43.762082 
L 172.818774 33.89241 
L 172.889575 40.68831 
L 172.938423 350.07708 
L 173.05336 348.429642 
L 173.161109 348.648188 
L 173.187508 361.567721 
L 173.195546 45.036435 
L 173.278078 366.685079 
L 173.604985 42.743194 
L 173.60978 364.106757 
L 173.611268 32.838551 
L 173.661373 45.566482 
L 173.767589 362.94148 
L 173.783444 37.887076 
L 173.949134 46.814174 
L 173.95546 365.45675 
L 174.12287 36.699236 
L 174.222657 48.73331 
L 174.2564 32.07327 
L 174.332668 48.505259 
L 174.360602 46.250897 
L 174.557164 45.023117 
L 174.669136 31.235152 
L 174.764705 35.41339 
L 174.851936 44.536536 
L 174.949804 31.952876 
L 174.998587 46.622887 
L 175.035101 46.020227 
L 175.089983 51.150539 
L 175.112726 47.222729 
L 175.115797 33.663082 
L 175.183164 45.491249 
L 175.272662 34.368339 
L 175.293061 42.234478 
L 175.461587 30.009318 
L 175.730584 32.471984 
L 175.757231 42.664058 
L 176.009255 28.038182 
L 176.236411 43.387107 
L 176.251098 36.050091 
L 176.427678 39.147199 
L 176.463078 51.192633 
L 176.520881 38.387786 
L 176.5488 35.570697 
L 176.6059 33.597216 
L 176.614638 55.072923 
L 176.729479 30.82511 
L 177.031755 44.288494 
L 177.15179 35.943145 
L 177.195174 37.287799 
L 177.319846 49.565203 
L 177.337862 49.004877 
L 177.378358 39.837235 
L 177.416083 46.671364 
L 177.748526 30.831944 
L 178.074183 47.637935 
L 178.153095 32.151101 
L 178.28847 41.631159 
L 178.326324 36.690429 
L 178.769562 39.011198 
L 178.803571 35.533489 
L 178.946997 37.09215 
L 178.979477 55.426449 
L 179.021486 29.902724 
L 179.070369 45.33913 
L 179.149548 35.556045 
L 179.417393 47.920648 
L 179.46455 34.012691 
L 179.521265 35.580181 
L 179.657167 47.935948 
L 179.733216 45.190821 
L 179.785046 47.268511 
L 179.792545 36.154415 
L 179.908682 46.175544 
L 180.173124 37.646633 
L 180.340012 46.507064 
L 180.995752 34.471429 
L 181.126164 37.338607 
L 181.141526 46.25677 
L 181.316012 33.977073 
L 181.341705 54.174309 
L 181.382261 50.590512 
L 181.514002 33.186621 
L 181.52735 40.746244 
L 181.594284 48.072475 
L 181.599584 34.394358 
L 182.103865 47.844847 
L 182.122498 46.539403 
L 182.150822 35.893946 
L 182.174685 53.53809 
L 182.179618 48.473443 
L 182.327119 48.555339 
L 182.359022 52.07883 
L 182.550027 47.895362 
L 182.730817 34.802541 
L 183.463086 48.616034 
L 183.668915 50.322095 
L 183.685046 52.997047 
L 183.714172 41.363623 
L 183.75795 50.476502 
L 183.799831 40.985748 
L 183.865402 49.717184 
L 184.138667 51.893164 
L 184.195841 42.595617 
L 184.357121 37.338215 
L 184.514304 48.597723 
L 184.515823 44.450689 
L 184.537261 36.570287 
L 184.524595 47.086347 
L 184.597562 37.01297 
L 185.058249 39.052206 
L 185.136241 54.059799 
L 185.683875 42.023276 
L 185.80684 51.411487 
L 185.923756 45.657392 
L 186.038982 49.40837 
L 186.049058 53.492701 
L 186.113825 41.242583 
L 186.13126 48.172116 
L 186.140863 40.616508 
L 186.33173 51.732078 
L 186.449592 60.44947 
L 186.615835 39.16688 
L 186.723357 122.603551 
L 186.837986 36.318993 
L 186.890296 39.289145 
L 186.942888 42.813075 
L 187.011119 39.127705 
L 187.032226 43.167771 
L 187.099288 42.035326 
L 187.228145 45.423974 
L 187.230573 50.692416 
L 187.69644 39.492432 
L 187.852316 136.453627 
L 187.941517 39.939654 
L 188.048088 135.872741 
L 188.156523 36.995385 
L 188.261887 39.408158 
L 188.354084 51.517372 
L 188.614502 40.33583 
L 188.829516 50.730216 
L 188.846708 128.681551 
L 188.846965 38.926929 
L 188.877288 49.017971 
L 189.039182 37.145302 
L 189.049319 40.10564 
L 189.132685 142.252122 
L 189.172885 38.569635 
L 189.256803 46.632622 
L 189.303419 39.726732 
L 189.482502 133.724066 
L 189.539485 39.093587 
L 189.585811 126.308323 
L 189.78109 141.939142 
L 189.784137 37.371813 
L 189.856885 51.624123 
L 190.029145 38.092757 
L 190.086761 141.709772 
L 190.316931 37.353624 
L 190.477397 38.296591 
L 190.585063 36.916411 
L 190.6985 138.662135 
L 190.748782 41.597337 
L 190.819468 43.999077 
L 190.852545 135.435557 
L 190.896358 40.722812 
L 190.929747 44.623341 
L 190.983518 153.433887 
L 191.008336 50.574906 
L 191.264194 48.960215 
L 191.291777 37.655521 
L 191.386657 57.855514 
L 191.445064 51.430493 
L 191.479601 144.197771 
L 191.624308 143.929607 
L 191.673157 45.96589 
L 191.803495 43.168715 
L 191.808809 39.634512 
L 191.83717 149.700156 
L 191.944181 49.981049 
L 191.95007 130.742632 
L 192.280607 131.161396 
L 192.299172 137.424779 
L 192.301753 136.783421 
L 192.417805 38.117668 
L 192.493048 47.410697 
L 192.506624 144.374264 
L 192.703665 149.940366 
L 192.799156 37.808124 
L 192.841742 150.878293 
L 192.973269 51.367326 
L 192.985394 152.463631 
L 193.063103 36.444398 
L 193.293512 35.871438 
L 193.348674 136.210256 
L 193.454941 37.797395 
L 193.496472 149.583067 
L 193.572698 146.726387 
L 193.688128 146.303107 
L 193.707557 132.338922 
L 193.709008 140.171147 
L 193.74555 34.442901 
L 193.987177 49.730712 
L 194.123613 160.892534 
L 194.201549 49.635475 
L 194.291922 149.162288 
L 194.320158 48.016204 
L 194.384878 139.659614 
L 194.559114 167.787843 
L 194.57397 51.539793 
L 194.642409 160.008127 
L 194.728744 144.085767 
L 195.116767 173.221122 
L 195.285896 134.926747 
L 195.333475 175.308031 
L 195.379049 151.830481 
L 195.5461 173.852438 
L 195.559055 149.838815 
L 195.591888 185.586223 
L 195.770006 141.107441 
L 195.774526 223.986922 
L 195.826267 155.137025 
L 195.943967 176.038684 
L 195.95694 210.853436 
L 196.011005 148.765845 
L 196.270174 186.616475 
L 196.289611 136.600491 
L 196.400759 139.518671 
L 196.561723 227.955055 
L 196.570625 148.054408 
L 196.676579 204.967725 
L 196.740578 148.521967 
L 196.743597 224.5031 
L 196.90884 149.406939 
L 197.10299 164.007143 
L 197.210485 134.534067 
L 197.300987 141.444777 
L 197.320274 165.703208 
L 197.371154 152.738837 
L 197.468017 181.198268 
L 197.653962 136.89999 
L 197.708323 147.432849 
L 197.720959 209.883542 
L 197.841457 173.27784 
L 197.891384 222.731496 
L 198.038268 165.016677 
L 198.071039 187.972013 
L 198.213204 145.688252 
L 198.281851 190.279027 
L 198.428809 181.52586 
L 198.641717 135.722685 
L 198.751131 190.059092 
L 198.955748 152.306755 
L 199.00759 203.861789 
L 199.027321 144.834543 
L 199.182431 148.76369 
L 199.298307 159.79385 
L 199.474951 202.96711 
L 199.643326 142.794596 
L 199.652102 161.941839 
L 199.835023 131.809178 
L 199.943316 170.279005 
L 200.055514 138.808438 
L 200.201895 174.130216 
L 200.293108 157.573496 
L 200.354934 151.752283 
L 200.362962 201.637816 
L 200.428599 148.136512 
L 200.502326 178.237611 
L 200.605026 152.872271 
L 200.641886 183.397517 
L 200.846866 194.250698 
L 200.934272 185.154663 
L 201.179495 135.375535 
L 201.371673 196.936781 
L 201.436842 148.692638 
L 201.637174 150.385912 
L 201.746563 167.674731 
L 201.817808 162.098236 
L 201.940635 165.963327 
L 202.007594 158.00337 
L 202.058439 130.860556 
L 202.08855 201.235185 
L 202.160751 191.499966 
L 202.334354 142.949477 
L 202.545957 178.593773 
L 202.763277 187.329825 
L 202.893088 135.456817 
L 202.993311 170.587758 
L 203.266213 183.980277 
L 203.507622 186.86515 
L 203.684432 150.166123 
L 203.763525 169.755431 
L 203.85535 166.539823 
L 204.018398 189.415636 
L 204.081025 146.775854 
L 204.142632 180.465583 
L 204.243018 176.762241 
L 204.249221 161.791031 
L 204.55896 181.337406 
L 204.804449 136.747567 
L 205.215877 188.769366 
L 205.521058 141.889046 
L 205.766664 146.750992 
L 205.946079 188.381584 
L 206.040263 187.973961 
L 206.386226 166.310904 
L 207.101454 151.400566 
L 207.295829 156.662999 
L 207.413564 166.451891 
L 208.078974 175.614333 
L 208.179735 190.077169 
L 208.501634 165.594429 
L 208.558629 143.780554 
L 208.638572 166.224938 
L 209.20979 175.699899 
L 209.306129 150.385302 
L 209.555606 172.951793 
L 210.040372 176.04473 
L 210.442593 139.665784 
L 210.628513 169.140593 
L 211.318688 151.297602 
L 212.599173 153.948064 
L 212.680106 150.239181 
L 213.785863 174.192579 
L 214.041897 160.706586 
L 214.616929 163.361779 
L 215.690206 140.294635 
L 215.984705 159.564146 
L 216.246038 156.495255 
L 217.783052 165.723891 
L 217.994923 145.951677 
L 219.559725 151.912737 
L 220.057961 146.110846 
L 220.841906 148.360414 
L 220.915187 164.452127 
L 221.964821 158.245826 
L 222.074536 147.935258 
L 222.897405 152.143332 
L 224.995463 139.903645 
L 225.406703 148.56591 
L 225.65653 150.335821 
L 228.005862 146.373783 
L 228.206343 148.141933 
L 229.361987 136.565056 
L 229.392402 144.353433 
L 231.258274 158.656499 
L 232.484284 145.430297 
L 235.052041 148.519503 
L 237.452438 160.831146 
L 237.882459 148.355171 
L 239.715443 142.974643 
L 240.927076 151.622081 
L 245.026506 149.41805 
L 245.404971 148.264379 
L 246.234357 135.626471 
L 247.704857 131.666291 
L 252.920362 145.698768 
L 255.718997 147.117343 
L 255.977864 138.309911 
L 262.076656 137.648833 
L 262.408646 147.998215 
L 264.097461 143.685686 
L 264.245411 135.330924 
L 270.415094 144.65995 
L 273.54988 144.012444 
L 276.777171 141.341158 
L 281.662609 143.947732 
L 282.776589 131.053008 
L 289.061663 131.497854 
L 292.732169 144.41459 
L 292.755372 134.092918 
L 304.664872 135.861495 
L 305.802056 146.088368 
L 315.74164 136.413347 
L 316.230898 133.528862 
L 318.972587 136.377159 
L 328.271531 127.310388 
L 329.876036 129.574365 
L 338.406686 128.099496 
L 338.490325 142.505786 
L 343.756044 126.517826 
L 348.599683 141.823847 
L 352.344537 134.531672 
L 359.408486 126.762924 
L 360.656299 136.529631 
L 364.419018 138.670472 
L 368.180142 132.34391 
L 373.781653 121.64753 
L 380.747754 126.894446 
L 384.617543 123.986993 
L 385.962194 138.349783 
L 398.67423 134.616261 
L 398.886518 131.632953 
L 412.085774 127.212 
L 412.219091 138.235768 
L 426.08882 134.93101 
L 426.965241 123.840139 
L 439.188504 129.505215 
L 439.93161 139.411701 
L 450.101278 133.180556 
L 453.525728 128.39764 
L 463.775276 122.005597 
L 466.456622 134.683657 
L 471.09837 135.904797 
L 480.416945 125.176934 
L 484.584644 131.434155 
L 493.576439 127.359563 
L 495.405805 120.801288 
L 507.572237 119.11747 
L 510.715903 123.402768 
L 519.44256 137.462838 
L 520.756861 131.278231 
L 533.209757 119.219948 
L 534.524058 123.679522 
L 540.604863 133.326214 
L 542.185321 138.450492 
L 542.185321 138.450492 
" clip-path="url(#pd768bdf52d)" style="fill: none; stroke: #1f77b4; stroke-width: 1.5; stroke-linecap: square"/>
   </g>
   <g id="patch_3">
    <path d="M 58.877054 390.04 
L 58.877054 10.8 
" style="fill: none; stroke: #000000; stroke-width: 0.8; stroke-linejoin: miter; stroke-linecap: square"/>
   </g>
   <g id="patch_4">
    <path d="M 565.2 390.04 
L 565.2 10.8 
" style="fill: none; stroke: #000000; stroke-width: 0.8; stroke-linejoin: miter; stroke-linecap: square"/>
   </g>
   <g id="patch_5">
    <path d="M 58.877054 390.04 
L 565.2 390.04 
" style="fill: none; stroke: #000000; stroke-width: 0.8; stroke-linejoin: miter; stroke-linecap: square"/>
   </g>
   <g id="patch_6">
    <path d="M 58.877054 10.8 
L 565.2 10.8 
" style="fill: none; stroke: #000000; stroke-width: 0.8; stroke-linejoin: miter; stroke-linecap: square"/>
   </g>
   <g id="legend_1">
    <g id="patch_7">
     <path d="M 511.8 33.9 
L 558.2 33.9 
Q 560.2 33.9 560.2 31.9 
L 560.2 17.8 
Q 560.2 15.8 558.2 15.8 
L 511.8 15.8 
Q 509.8 15.8 509.8 17.8 
L 509.8 31.9 
Q 509.8 33.9 511.8 33.9 
z
" style="fill: #ffffff; opacity: 0.8; stroke: #cccccc; stroke-linejoin: miter"/>
    </g>
    <g id="line2d_62">
     <path d="M 513.8 24 
L 523.8 24 
L 533.8 24 
" style="fill: none; stroke: #1f77b4; stroke-width: 1.5; stroke-linecap: square"/>
    </g>
    <g id="text_14">
     <!-- |$\mathbf{B}$| -->
     <g transform="translate(541.8 27.5) scale(0.1 -0.1)">
      <use xlink:href="#DejaVuSans-7c" transform="translate(0 0.578125)"/>
      <use xlink:href="#DejaVuSans-Bold-42" transform="translate(33.691406 0.578125)"/>
      <use xlink:href="#DejaVuSans-7c" transform="translate(109.912109 0.578125)"/>
     </g>
    </g>
   </g>
  </g>
 </g>
 <defs>
  <clipPath id="pd768bdf52d">
   <rect x="58.877054" y="10.8" width="506.322946" height="379.24"/>
  </clipPath>
 </defs>
</svg>
