<?xml version="1.0" encoding="utf-8" standalone="no"?>
<!DOCTYPE svg PUBLIC "-//W3C//DTD SVG 1.1//EN"
  "http://www.w3.org/Graphics/SVG/1.1/DTD/svg11.dtd">
<svg xmlns:xlink="http://www.w3.org/1999/xlink" width="576pt" height="432pt" viewBox="0 0 576 432" xmlns="http://www.w3.org/2000/svg" version="1.1">
 <metadata>
  <rdf:RDF xmlns:dc="http://purl.org/dc/elements/1.1/" xmlns:cc="http://creativecommons.org/ns#" xmlns:rdf="http://www.w3.org/1999/02/22-rdf-syntax-ns#">
   <cc:Work>
    <dc:type rdf:resource="http://purl.org/dc/dcmitype/StillImage"/>
    <dc:date>2024-12-07T19:50:46.989584</dc:date>
    <dc:format>image/svg+xml</dc:format>
    <dc:creator>
     <cc:Agent>
      <dc:title>Matplotlib v3.8.3, https://matplotlib.org/</dc:title>
     </cc:Agent>
    </dc:creator>
   </cc:Work>
  </rdf:RDF>
 </metadata>
 <defs>
  <style type="text/css">*{stroke-linejoin: round; stroke-linecap: butt}</style>
 </defs>
 <g id="figure_1">
  <g id="patch_1">
   <path d="M 0 432 
L 576 432 
L 576 0 
L 0 0 
z
" style="fill: #ffffff"/>
  </g>
  <g id="axes_1">
   <g id="patch_2">
    <path d="M 58.877054 390.04 
L 565.2 390.04 
L 565.2 10.8 
L 58.877054 10.8 
z
" style="fill: #ffffff"/>
   </g>
   <g id="matplotlib.axis_1">
    <g id="xtick_1">
     <g id="line2d_1">
      <path d="M 81.22134 390.04 
L 81.22134 10.8 
" clip-path="url(#p9fad5a9a81)" style="fill: none; stroke: #b0b0b0; stroke-width: 0.8; stroke-linecap: square"/>
     </g>
     <g id="line2d_2">
      <defs>
       <path id="m69424d57a0" d="M 0 0 
L 0 3.5 
" style="stroke: #000000; stroke-width: 0.8"/>
      </defs>
      <g>
       <use xlink:href="#m69424d57a0" x="81.22134" y="390.04" style="stroke: #000000; stroke-width: 0.8"/>
      </g>
     </g>
     <g id="text_1">
      <!-- 0.0 -->
      <g transform="translate(73.269778 404.638438) scale(0.1 -0.1)">
       <defs>
        <path id="DejaVuSans-30" d="M 2034 4250 
Q 1547 4250 1301 3770 
Q 1056 3291 1056 2328 
Q 1056 1369 1301 889 
Q 1547 409 2034 409 
Q 2525 409 2770 889 
Q 3016 1369 3016 2328 
Q 3016 3291 2770 3770 
Q 2525 4250 2034 4250 
z
M 2034 4750 
Q 2819 4750 3233 4129 
Q 3647 3509 3647 2328 
Q 3647 1150 3233 529 
Q 2819 -91 2034 -91 
Q 1250 -91 836 529 
Q 422 1150 422 2328 
Q 422 3509 836 4129 
Q 1250 4750 2034 4750 
z
" transform="scale(0.015625)"/>
        <path id="DejaVuSans-2e" d="M 684 794 
L 1344 794 
L 1344 0 
L 684 0 
L 684 794 
z
" transform="scale(0.015625)"/>
       </defs>
       <use xlink:href="#DejaVuSans-30"/>
       <use xlink:href="#DejaVuSans-2e" x="63.623047"/>
       <use xlink:href="#DejaVuSans-30" x="95.410156"/>
      </g>
     </g>
    </g>
    <g id="xtick_2">
     <g id="line2d_3">
      <path d="M 174.630297 390.04 
L 174.630297 10.8 
" clip-path="url(#p9fad5a9a81)" style="fill: none; stroke: #b0b0b0; stroke-width: 0.8; stroke-linecap: square"/>
     </g>
     <g id="line2d_4">
      <g>
       <use xlink:href="#m69424d57a0" x="174.630297" y="390.04" style="stroke: #000000; stroke-width: 0.8"/>
      </g>
     </g>
     <g id="text_2">
      <!-- 0.1 -->
      <g transform="translate(166.678735 404.638438) scale(0.1 -0.1)">
       <defs>
        <path id="DejaVuSans-31" d="M 794 531 
L 1825 531 
L 1825 4091 
L 703 3866 
L 703 4441 
L 1819 4666 
L 2450 4666 
L 2450 531 
L 3481 531 
L 3481 0 
L 794 0 
L 794 531 
z
" transform="scale(0.015625)"/>
       </defs>
       <use xlink:href="#DejaVuSans-30"/>
       <use xlink:href="#DejaVuSans-2e" x="63.623047"/>
       <use xlink:href="#DejaVuSans-31" x="95.410156"/>
      </g>
     </g>
    </g>
    <g id="xtick_3">
     <g id="line2d_5">
      <path d="M 268.039254 390.04 
L 268.039254 10.8 
" clip-path="url(#p9fad5a9a81)" style="fill: none; stroke: #b0b0b0; stroke-width: 0.8; stroke-linecap: square"/>
     </g>
     <g id="line2d_6">
      <g>
       <use xlink:href="#m69424d57a0" x="268.039254" y="390.04" style="stroke: #000000; stroke-width: 0.8"/>
      </g>
     </g>
     <g id="text_3">
      <!-- 0.2 -->
      <g transform="translate(260.087692 404.638438) scale(0.1 -0.1)">
       <defs>
        <path id="DejaVuSans-32" d="M 1228 531 
L 3431 531 
L 3431 0 
L 469 0 
L 469 531 
Q 828 903 1448 1529 
Q 2069 2156 2228 2338 
Q 2531 2678 2651 2914 
Q 2772 3150 2772 3378 
Q 2772 3750 2511 3984 
Q 2250 4219 1831 4219 
Q 1534 4219 1204 4116 
Q 875 4013 500 3803 
L 500 4441 
Q 881 4594 1212 4672 
Q 1544 4750 1819 4750 
Q 2544 4750 2975 4387 
Q 3406 4025 3406 3419 
Q 3406 3131 3298 2873 
Q 3191 2616 2906 2266 
Q 2828 2175 2409 1742 
Q 1991 1309 1228 531 
z
" transform="scale(0.015625)"/>
       </defs>
       <use xlink:href="#DejaVuSans-30"/>
       <use xlink:href="#DejaVuSans-2e" x="63.623047"/>
       <use xlink:href="#DejaVuSans-32" x="95.410156"/>
      </g>
     </g>
    </g>
    <g id="xtick_4">
     <g id="line2d_7">
      <path d="M 361.448211 390.04 
L 361.448211 10.8 
" clip-path="url(#p9fad5a9a81)" style="fill: none; stroke: #b0b0b0; stroke-width: 0.8; stroke-linecap: square"/>
     </g>
     <g id="line2d_8">
      <g>
       <use xlink:href="#m69424d57a0" x="361.448211" y="390.04" style="stroke: #000000; stroke-width: 0.8"/>
      </g>
     </g>
     <g id="text_4">
      <!-- 0.3 -->
      <g transform="translate(353.496649 404.638438) scale(0.1 -0.1)">
       <defs>
        <path id="DejaVuSans-33" d="M 2597 2516 
Q 3050 2419 3304 2112 
Q 3559 1806 3559 1356 
Q 3559 666 3084 287 
Q 2609 -91 1734 -91 
Q 1441 -91 1130 -33 
Q 819 25 488 141 
L 488 750 
Q 750 597 1062 519 
Q 1375 441 1716 441 
Q 2309 441 2620 675 
Q 2931 909 2931 1356 
Q 2931 1769 2642 2001 
Q 2353 2234 1838 2234 
L 1294 2234 
L 1294 2753 
L 1863 2753 
Q 2328 2753 2575 2939 
Q 2822 3125 2822 3475 
Q 2822 3834 2567 4026 
Q 2313 4219 1838 4219 
Q 1578 4219 1281 4162 
Q 984 4106 628 3988 
L 628 4550 
Q 988 4650 1302 4700 
Q 1616 4750 1894 4750 
Q 2613 4750 3031 4423 
Q 3450 4097 3450 3541 
Q 3450 3153 3228 2886 
Q 3006 2619 2597 2516 
z
" transform="scale(0.015625)"/>
       </defs>
       <use xlink:href="#DejaVuSans-30"/>
       <use xlink:href="#DejaVuSans-2e" x="63.623047"/>
       <use xlink:href="#DejaVuSans-33" x="95.410156"/>
      </g>
     </g>
    </g>
    <g id="xtick_5">
     <g id="line2d_9">
      <path d="M 454.857168 390.04 
L 454.857168 10.8 
" clip-path="url(#p9fad5a9a81)" style="fill: none; stroke: #b0b0b0; stroke-width: 0.8; stroke-linecap: square"/>
     </g>
     <g id="line2d_10">
      <g>
       <use xlink:href="#m69424d57a0" x="454.857168" y="390.04" style="stroke: #000000; stroke-width: 0.8"/>
      </g>
     </g>
     <g id="text_5">
      <!-- 0.4 -->
      <g transform="translate(446.905606 404.638438) scale(0.1 -0.1)">
       <defs>
        <path id="DejaVuSans-34" d="M 2419 4116 
L 825 1625 
L 2419 1625 
L 2419 4116 
z
M 2253 4666 
L 3047 4666 
L 3047 1625 
L 3713 1625 
L 3713 1100 
L 3047 1100 
L 3047 0 
L 2419 0 
L 2419 1100 
L 313 1100 
L 313 1709 
L 2253 4666 
z
" transform="scale(0.015625)"/>
       </defs>
       <use xlink:href="#DejaVuSans-30"/>
       <use xlink:href="#DejaVuSans-2e" x="63.623047"/>
       <use xlink:href="#DejaVuSans-34" x="95.410156"/>
      </g>
     </g>
    </g>
    <g id="xtick_6">
     <g id="line2d_11">
      <path d="M 548.266125 390.04 
L 548.266125 10.8 
" clip-path="url(#p9fad5a9a81)" style="fill: none; stroke: #b0b0b0; stroke-width: 0.8; stroke-linecap: square"/>
     </g>
     <g id="line2d_12">
      <g>
       <use xlink:href="#m69424d57a0" x="548.266125" y="390.04" style="stroke: #000000; stroke-width: 0.8"/>
      </g>
     </g>
     <g id="text_6">
      <!-- 0.5 -->
      <g transform="translate(540.314563 404.638438) scale(0.1 -0.1)">
       <defs>
        <path id="DejaVuSans-35" d="M 691 4666 
L 3169 4666 
L 3169 4134 
L 1269 4134 
L 1269 2991 
Q 1406 3038 1543 3061 
Q 1681 3084 1819 3084 
Q 2600 3084 3056 2656 
Q 3513 2228 3513 1497 
Q 3513 744 3044 326 
Q 2575 -91 1722 -91 
Q 1428 -91 1123 -41 
Q 819 9 494 109 
L 494 744 
Q 775 591 1075 516 
Q 1375 441 1709 441 
Q 2250 441 2565 725 
Q 2881 1009 2881 1497 
Q 2881 1984 2565 2268 
Q 2250 2553 1709 2553 
Q 1456 2553 1204 2497 
Q 953 2441 691 2322 
L 691 4666 
z
" transform="scale(0.015625)"/>
       </defs>
       <use xlink:href="#DejaVuSans-30"/>
       <use xlink:href="#DejaVuSans-2e" x="63.623047"/>
       <use xlink:href="#DejaVuSans-35" x="95.410156"/>
      </g>
     </g>
    </g>
    <g id="text_7">
     <!-- x-coordinate (m) -->
     <g transform="translate(270.245558 418.316562) scale(0.1 -0.1)">
      <defs>
       <path id="DejaVuSans-78" d="M 3513 3500 
L 2247 1797 
L 3578 0 
L 2900 0 
L 1881 1375 
L 863 0 
L 184 0 
L 1544 1831 
L 300 3500 
L 978 3500 
L 1906 2253 
L 2834 3500 
L 3513 3500 
z
" transform="scale(0.015625)"/>
       <path id="DejaVuSans-2d" d="M 313 2009 
L 1997 2009 
L 1997 1497 
L 313 1497 
L 313 2009 
z
" transform="scale(0.015625)"/>
       <path id="DejaVuSans-63" d="M 3122 3366 
L 3122 2828 
Q 2878 2963 2633 3030 
Q 2388 3097 2138 3097 
Q 1578 3097 1268 2742 
Q 959 2388 959 1747 
Q 959 1106 1268 751 
Q 1578 397 2138 397 
Q 2388 397 2633 464 
Q 2878 531 3122 666 
L 3122 134 
Q 2881 22 2623 -34 
Q 2366 -91 2075 -91 
Q 1284 -91 818 406 
Q 353 903 353 1747 
Q 353 2603 823 3093 
Q 1294 3584 2113 3584 
Q 2378 3584 2631 3529 
Q 2884 3475 3122 3366 
z
" transform="scale(0.015625)"/>
       <path id="DejaVuSans-6f" d="M 1959 3097 
Q 1497 3097 1228 2736 
Q 959 2375 959 1747 
Q 959 1119 1226 758 
Q 1494 397 1959 397 
Q 2419 397 2687 759 
Q 2956 1122 2956 1747 
Q 2956 2369 2687 2733 
Q 2419 3097 1959 3097 
z
M 1959 3584 
Q 2709 3584 3137 3096 
Q 3566 2609 3566 1747 
Q 3566 888 3137 398 
Q 2709 -91 1959 -91 
Q 1206 -91 779 398 
Q 353 888 353 1747 
Q 353 2609 779 3096 
Q 1206 3584 1959 3584 
z
" transform="scale(0.015625)"/>
       <path id="DejaVuSans-72" d="M 2631 2963 
Q 2534 3019 2420 3045 
Q 2306 3072 2169 3072 
Q 1681 3072 1420 2755 
Q 1159 2438 1159 1844 
L 1159 0 
L 581 0 
L 581 3500 
L 1159 3500 
L 1159 2956 
Q 1341 3275 1631 3429 
Q 1922 3584 2338 3584 
Q 2397 3584 2469 3576 
Q 2541 3569 2628 3553 
L 2631 2963 
z
" transform="scale(0.015625)"/>
       <path id="DejaVuSans-64" d="M 2906 2969 
L 2906 4863 
L 3481 4863 
L 3481 0 
L 2906 0 
L 2906 525 
Q 2725 213 2448 61 
Q 2172 -91 1784 -91 
Q 1150 -91 751 415 
Q 353 922 353 1747 
Q 353 2572 751 3078 
Q 1150 3584 1784 3584 
Q 2172 3584 2448 3432 
Q 2725 3281 2906 2969 
z
M 947 1747 
Q 947 1113 1208 752 
Q 1469 391 1925 391 
Q 2381 391 2643 752 
Q 2906 1113 2906 1747 
Q 2906 2381 2643 2742 
Q 2381 3103 1925 3103 
Q 1469 3103 1208 2742 
Q 947 2381 947 1747 
z
" transform="scale(0.015625)"/>
       <path id="DejaVuSans-69" d="M 603 3500 
L 1178 3500 
L 1178 0 
L 603 0 
L 603 3500 
z
M 603 4863 
L 1178 4863 
L 1178 4134 
L 603 4134 
L 603 4863 
z
" transform="scale(0.015625)"/>
       <path id="DejaVuSans-6e" d="M 3513 2113 
L 3513 0 
L 2938 0 
L 2938 2094 
Q 2938 2591 2744 2837 
Q 2550 3084 2163 3084 
Q 1697 3084 1428 2787 
Q 1159 2491 1159 1978 
L 1159 0 
L 581 0 
L 581 3500 
L 1159 3500 
L 1159 2956 
Q 1366 3272 1645 3428 
Q 1925 3584 2291 3584 
Q 2894 3584 3203 3211 
Q 3513 2838 3513 2113 
z
" transform="scale(0.015625)"/>
       <path id="DejaVuSans-61" d="M 2194 1759 
Q 1497 1759 1228 1600 
Q 959 1441 959 1056 
Q 959 750 1161 570 
Q 1363 391 1709 391 
Q 2188 391 2477 730 
Q 2766 1069 2766 1631 
L 2766 1759 
L 2194 1759 
z
M 3341 1997 
L 3341 0 
L 2766 0 
L 2766 531 
Q 2569 213 2275 61 
Q 1981 -91 1556 -91 
Q 1019 -91 701 211 
Q 384 513 384 1019 
Q 384 1609 779 1909 
Q 1175 2209 1959 2209 
L 2766 2209 
L 2766 2266 
Q 2766 2663 2505 2880 
Q 2244 3097 1772 3097 
Q 1472 3097 1187 3025 
Q 903 2953 641 2809 
L 641 3341 
Q 956 3463 1253 3523 
Q 1550 3584 1831 3584 
Q 2591 3584 2966 3190 
Q 3341 2797 3341 1997 
z
" transform="scale(0.015625)"/>
       <path id="DejaVuSans-74" d="M 1172 4494 
L 1172 3500 
L 2356 3500 
L 2356 3053 
L 1172 3053 
L 1172 1153 
Q 1172 725 1289 603 
Q 1406 481 1766 481 
L 2356 481 
L 2356 0 
L 1766 0 
Q 1100 0 847 248 
Q 594 497 594 1153 
L 594 3053 
L 172 3053 
L 172 3500 
L 594 3500 
L 594 4494 
L 1172 4494 
z
" transform="scale(0.015625)"/>
       <path id="DejaVuSans-65" d="M 3597 1894 
L 3597 1613 
L 953 1613 
Q 991 1019 1311 708 
Q 1631 397 2203 397 
Q 2534 397 2845 478 
Q 3156 559 3463 722 
L 3463 178 
Q 3153 47 2828 -22 
Q 2503 -91 2169 -91 
Q 1331 -91 842 396 
Q 353 884 353 1716 
Q 353 2575 817 3079 
Q 1281 3584 2069 3584 
Q 2775 3584 3186 3129 
Q 3597 2675 3597 1894 
z
M 3022 2063 
Q 3016 2534 2758 2815 
Q 2500 3097 2075 3097 
Q 1594 3097 1305 2825 
Q 1016 2553 972 2059 
L 3022 2063 
z
" transform="scale(0.015625)"/>
       <path id="DejaVuSans-20" transform="scale(0.015625)"/>
       <path id="DejaVuSans-28" d="M 1984 4856 
Q 1566 4138 1362 3434 
Q 1159 2731 1159 2009 
Q 1159 1288 1364 580 
Q 1569 -128 1984 -844 
L 1484 -844 
Q 1016 -109 783 600 
Q 550 1309 550 2009 
Q 550 2706 781 3412 
Q 1013 4119 1484 4856 
L 1984 4856 
z
" transform="scale(0.015625)"/>
       <path id="DejaVuSans-6d" d="M 3328 2828 
Q 3544 3216 3844 3400 
Q 4144 3584 4550 3584 
Q 5097 3584 5394 3201 
Q 5691 2819 5691 2113 
L 5691 0 
L 5113 0 
L 5113 2094 
Q 5113 2597 4934 2840 
Q 4756 3084 4391 3084 
Q 3944 3084 3684 2787 
Q 3425 2491 3425 1978 
L 3425 0 
L 2847 0 
L 2847 2094 
Q 2847 2600 2669 2842 
Q 2491 3084 2119 3084 
Q 1678 3084 1418 2786 
Q 1159 2488 1159 1978 
L 1159 0 
L 581 0 
L 581 3500 
L 1159 3500 
L 1159 2956 
Q 1356 3278 1631 3431 
Q 1906 3584 2284 3584 
Q 2666 3584 2933 3390 
Q 3200 3197 3328 2828 
z
" transform="scale(0.015625)"/>
       <path id="DejaVuSans-29" d="M 513 4856 
L 1013 4856 
Q 1481 4119 1714 3412 
Q 1947 2706 1947 2009 
Q 1947 1309 1714 600 
Q 1481 -109 1013 -844 
L 513 -844 
Q 928 -128 1133 580 
Q 1338 1288 1338 2009 
Q 1338 2731 1133 3434 
Q 928 4138 513 4856 
z
" transform="scale(0.015625)"/>
      </defs>
      <use xlink:href="#DejaVuSans-78"/>
      <use xlink:href="#DejaVuSans-2d" x="59.179688"/>
      <use xlink:href="#DejaVuSans-63" x="95.263672"/>
      <use xlink:href="#DejaVuSans-6f" x="150.244141"/>
      <use xlink:href="#DejaVuSans-6f" x="211.425781"/>
      <use xlink:href="#DejaVuSans-72" x="272.607422"/>
      <use xlink:href="#DejaVuSans-64" x="311.970703"/>
      <use xlink:href="#DejaVuSans-69" x="375.447266"/>
      <use xlink:href="#DejaVuSans-6e" x="403.230469"/>
      <use xlink:href="#DejaVuSans-61" x="466.609375"/>
      <use xlink:href="#DejaVuSans-74" x="527.888672"/>
      <use xlink:href="#DejaVuSans-65" x="567.097656"/>
      <use xlink:href="#DejaVuSans-20" x="628.621094"/>
      <use xlink:href="#DejaVuSans-28" x="660.408203"/>
      <use xlink:href="#DejaVuSans-6d" x="699.421875"/>
      <use xlink:href="#DejaVuSans-29" x="796.833984"/>
     </g>
    </g>
   </g>
   <g id="matplotlib.axis_2">
    <g id="ytick_1">
     <g id="line2d_13">
      <path d="M 58.877054 378.334357 
L 565.2 378.334357 
" clip-path="url(#p9fad5a9a81)" style="fill: none; stroke: #b0b0b0; stroke-width: 0.8; stroke-linecap: square"/>
     </g>
     <g id="line2d_14">
      <defs>
       <path id="m27e4d5a7a1" d="M 0 0 
L -3.5 0 
" style="stroke: #000000; stroke-width: 0.8"/>
      </defs>
      <g>
       <use xlink:href="#m27e4d5a7a1" x="58.877054" y="378.334357" style="stroke: #000000; stroke-width: 0.8"/>
      </g>
     </g>
     <g id="text_8">
      <!-- $\mathdefault{10^{-4}}$ -->
      <g transform="translate(28.377054 382.133576) scale(0.1 -0.1)">
       <defs>
        <path id="DejaVuSans-2212" d="M 678 2272 
L 4684 2272 
L 4684 1741 
L 678 1741 
L 678 2272 
z
" transform="scale(0.015625)"/>
       </defs>
       <use xlink:href="#DejaVuSans-31" transform="translate(0 0.684375)"/>
       <use xlink:href="#DejaVuSans-30" transform="translate(63.623047 0.684375)"/>
       <use xlink:href="#DejaVuSans-2212" transform="translate(128.203125 38.965625) scale(0.7)"/>
       <use xlink:href="#DejaVuSans-34" transform="translate(186.855469 38.965625) scale(0.7)"/>
      </g>
     </g>
    </g>
    <g id="ytick_2">
     <g id="line2d_15">
      <path d="M 58.877054 292.080449 
L 565.2 292.080449 
" clip-path="url(#p9fad5a9a81)" style="fill: none; stroke: #b0b0b0; stroke-width: 0.8; stroke-linecap: square"/>
     </g>
     <g id="line2d_16">
      <g>
       <use xlink:href="#m27e4d5a7a1" x="58.877054" y="292.080449" style="stroke: #000000; stroke-width: 0.8"/>
      </g>
     </g>
     <g id="text_9">
      <!-- $\mathdefault{10^{-3}}$ -->
      <g transform="translate(28.377054 295.879668) scale(0.1 -0.1)">
       <use xlink:href="#DejaVuSans-31" transform="translate(0 0.765625)"/>
       <use xlink:href="#DejaVuSans-30" transform="translate(63.623047 0.765625)"/>
       <use xlink:href="#DejaVuSans-2212" transform="translate(128.203125 39.046875) scale(0.7)"/>
       <use xlink:href="#DejaVuSans-33" transform="translate(186.855469 39.046875) scale(0.7)"/>
      </g>
     </g>
    </g>
    <g id="ytick_3">
     <g id="line2d_17">
      <path d="M 58.877054 205.826541 
L 565.2 205.826541 
" clip-path="url(#p9fad5a9a81)" style="fill: none; stroke: #b0b0b0; stroke-width: 0.8; stroke-linecap: square"/>
     </g>
     <g id="line2d_18">
      <g>
       <use xlink:href="#m27e4d5a7a1" x="58.877054" y="205.826541" style="stroke: #000000; stroke-width: 0.8"/>
      </g>
     </g>
     <g id="text_10">
      <!-- $\mathdefault{10^{-2}}$ -->
      <g transform="translate(28.377054 209.62576) scale(0.1 -0.1)">
       <use xlink:href="#DejaVuSans-31" transform="translate(0 0.765625)"/>
       <use xlink:href="#DejaVuSans-30" transform="translate(63.623047 0.765625)"/>
       <use xlink:href="#DejaVuSans-2212" transform="translate(128.203125 39.046875) scale(0.7)"/>
       <use xlink:href="#DejaVuSans-32" transform="translate(186.855469 39.046875) scale(0.7)"/>
      </g>
     </g>
    </g>
    <g id="ytick_4">
     <g id="line2d_19">
      <path d="M 58.877054 119.572633 
L 565.2 119.572633 
" clip-path="url(#p9fad5a9a81)" style="fill: none; stroke: #b0b0b0; stroke-width: 0.8; stroke-linecap: square"/>
     </g>
     <g id="line2d_20">
      <g>
       <use xlink:href="#m27e4d5a7a1" x="58.877054" y="119.572633" style="stroke: #000000; stroke-width: 0.8"/>
      </g>
     </g>
     <g id="text_11">
      <!-- $\mathdefault{10^{-1}}$ -->
      <g transform="translate(28.377054 123.371852) scale(0.1 -0.1)">
       <use xlink:href="#DejaVuSans-31" transform="translate(0 0.684375)"/>
       <use xlink:href="#DejaVuSans-30" transform="translate(63.623047 0.684375)"/>
       <use xlink:href="#DejaVuSans-2212" transform="translate(128.203125 38.965625) scale(0.7)"/>
       <use xlink:href="#DejaVuSans-31" transform="translate(186.855469 38.965625) scale(0.7)"/>
      </g>
     </g>
    </g>
    <g id="ytick_5">
     <g id="line2d_21">
      <path d="M 58.877054 33.318725 
L 565.2 33.318725 
" clip-path="url(#p9fad5a9a81)" style="fill: none; stroke: #b0b0b0; stroke-width: 0.8; stroke-linecap: square"/>
     </g>
     <g id="line2d_22">
      <g>
       <use xlink:href="#m27e4d5a7a1" x="58.877054" y="33.318725" style="stroke: #000000; stroke-width: 0.8"/>
      </g>
     </g>
     <g id="text_12">
      <!-- $\mathdefault{10^{0}}$ -->
      <g transform="translate(34.277054 37.117944) scale(0.1 -0.1)">
       <use xlink:href="#DejaVuSans-31" transform="translate(0 0.765625)"/>
       <use xlink:href="#DejaVuSans-30" transform="translate(63.623047 0.765625)"/>
       <use xlink:href="#DejaVuSans-30" transform="translate(128.203125 39.046875) scale(0.7)"/>
      </g>
     </g>
    </g>
    <g id="ytick_6">
     <g id="line2d_23">
      <defs>
       <path id="mc1fc8c32c9" d="M 0 0 
L -2 0 
" style="stroke: #000000; stroke-width: 0.6"/>
      </defs>
      <g>
       <use xlink:href="#mc1fc8c32c9" x="58.877054" y="386.693224" style="stroke: #000000; stroke-width: 0.6"/>
      </g>
     </g>
    </g>
    <g id="ytick_7">
     <g id="line2d_24">
      <g>
       <use xlink:href="#mc1fc8c32c9" x="58.877054" y="382.281119" style="stroke: #000000; stroke-width: 0.6"/>
      </g>
     </g>
    </g>
    <g id="ytick_8">
     <g id="line2d_25">
      <g>
       <use xlink:href="#mc1fc8c32c9" x="58.877054" y="352.369343" style="stroke: #000000; stroke-width: 0.6"/>
      </g>
     </g>
    </g>
    <g id="ytick_9">
     <g id="line2d_26">
      <g>
       <use xlink:href="#mc1fc8c32c9" x="58.877054" y="337.180784" style="stroke: #000000; stroke-width: 0.6"/>
      </g>
     </g>
    </g>
    <g id="ytick_10">
     <g id="line2d_27">
      <g>
       <use xlink:href="#mc1fc8c32c9" x="58.877054" y="326.40433" style="stroke: #000000; stroke-width: 0.6"/>
      </g>
     </g>
    </g>
    <g id="ytick_11">
     <g id="line2d_28">
      <g>
       <use xlink:href="#mc1fc8c32c9" x="58.877054" y="318.045462" style="stroke: #000000; stroke-width: 0.6"/>
      </g>
     </g>
    </g>
    <g id="ytick_12">
     <g id="line2d_29">
      <g>
       <use xlink:href="#mc1fc8c32c9" x="58.877054" y="311.215771" style="stroke: #000000; stroke-width: 0.6"/>
      </g>
     </g>
    </g>
    <g id="ytick_13">
     <g id="line2d_30">
      <g>
       <use xlink:href="#mc1fc8c32c9" x="58.877054" y="305.441348" style="stroke: #000000; stroke-width: 0.6"/>
      </g>
     </g>
    </g>
    <g id="ytick_14">
     <g id="line2d_31">
      <g>
       <use xlink:href="#mc1fc8c32c9" x="58.877054" y="300.439316" style="stroke: #000000; stroke-width: 0.6"/>
      </g>
     </g>
    </g>
    <g id="ytick_15">
     <g id="line2d_32">
      <g>
       <use xlink:href="#mc1fc8c32c9" x="58.877054" y="296.027211" style="stroke: #000000; stroke-width: 0.6"/>
      </g>
     </g>
    </g>
    <g id="ytick_16">
     <g id="line2d_33">
      <g>
       <use xlink:href="#mc1fc8c32c9" x="58.877054" y="266.115435" style="stroke: #000000; stroke-width: 0.6"/>
      </g>
     </g>
    </g>
    <g id="ytick_17">
     <g id="line2d_34">
      <g>
       <use xlink:href="#mc1fc8c32c9" x="58.877054" y="250.926876" style="stroke: #000000; stroke-width: 0.6"/>
      </g>
     </g>
    </g>
    <g id="ytick_18">
     <g id="line2d_35">
      <g>
       <use xlink:href="#mc1fc8c32c9" x="58.877054" y="240.150422" style="stroke: #000000; stroke-width: 0.6"/>
      </g>
     </g>
    </g>
    <g id="ytick_19">
     <g id="line2d_36">
      <g>
       <use xlink:href="#mc1fc8c32c9" x="58.877054" y="231.791555" style="stroke: #000000; stroke-width: 0.6"/>
      </g>
     </g>
    </g>
    <g id="ytick_20">
     <g id="line2d_37">
      <g>
       <use xlink:href="#mc1fc8c32c9" x="58.877054" y="224.961863" style="stroke: #000000; stroke-width: 0.6"/>
      </g>
     </g>
    </g>
    <g id="ytick_21">
     <g id="line2d_38">
      <g>
       <use xlink:href="#mc1fc8c32c9" x="58.877054" y="219.18744" style="stroke: #000000; stroke-width: 0.6"/>
      </g>
     </g>
    </g>
    <g id="ytick_22">
     <g id="line2d_39">
      <g>
       <use xlink:href="#mc1fc8c32c9" x="58.877054" y="214.185408" style="stroke: #000000; stroke-width: 0.6"/>
      </g>
     </g>
    </g>
    <g id="ytick_23">
     <g id="line2d_40">
      <g>
       <use xlink:href="#mc1fc8c32c9" x="58.877054" y="209.773303" style="stroke: #000000; stroke-width: 0.6"/>
      </g>
     </g>
    </g>
    <g id="ytick_24">
     <g id="line2d_41">
      <g>
       <use xlink:href="#mc1fc8c32c9" x="58.877054" y="179.861528" style="stroke: #000000; stroke-width: 0.6"/>
      </g>
     </g>
    </g>
    <g id="ytick_25">
     <g id="line2d_42">
      <g>
       <use xlink:href="#mc1fc8c32c9" x="58.877054" y="164.672968" style="stroke: #000000; stroke-width: 0.6"/>
      </g>
     </g>
    </g>
    <g id="ytick_26">
     <g id="line2d_43">
      <g>
       <use xlink:href="#mc1fc8c32c9" x="58.877054" y="153.896514" style="stroke: #000000; stroke-width: 0.6"/>
      </g>
     </g>
    </g>
    <g id="ytick_27">
     <g id="line2d_44">
      <g>
       <use xlink:href="#mc1fc8c32c9" x="58.877054" y="145.537647" style="stroke: #000000; stroke-width: 0.6"/>
      </g>
     </g>
    </g>
    <g id="ytick_28">
     <g id="line2d_45">
      <g>
       <use xlink:href="#mc1fc8c32c9" x="58.877054" y="138.707955" style="stroke: #000000; stroke-width: 0.6"/>
      </g>
     </g>
    </g>
    <g id="ytick_29">
     <g id="line2d_46">
      <g>
       <use xlink:href="#mc1fc8c32c9" x="58.877054" y="132.933533" style="stroke: #000000; stroke-width: 0.6"/>
      </g>
     </g>
    </g>
    <g id="ytick_30">
     <g id="line2d_47">
      <g>
       <use xlink:href="#mc1fc8c32c9" x="58.877054" y="127.9315" style="stroke: #000000; stroke-width: 0.6"/>
      </g>
     </g>
    </g>
    <g id="ytick_31">
     <g id="line2d_48">
      <g>
       <use xlink:href="#mc1fc8c32c9" x="58.877054" y="123.519396" style="stroke: #000000; stroke-width: 0.6"/>
      </g>
     </g>
    </g>
    <g id="ytick_32">
     <g id="line2d_49">
      <g>
       <use xlink:href="#mc1fc8c32c9" x="58.877054" y="93.60762" style="stroke: #000000; stroke-width: 0.6"/>
      </g>
     </g>
    </g>
    <g id="ytick_33">
     <g id="line2d_50">
      <g>
       <use xlink:href="#mc1fc8c32c9" x="58.877054" y="78.41906" style="stroke: #000000; stroke-width: 0.6"/>
      </g>
     </g>
    </g>
    <g id="ytick_34">
     <g id="line2d_51">
      <g>
       <use xlink:href="#mc1fc8c32c9" x="58.877054" y="67.642606" style="stroke: #000000; stroke-width: 0.6"/>
      </g>
     </g>
    </g>
    <g id="ytick_35">
     <g id="line2d_52">
      <g>
       <use xlink:href="#mc1fc8c32c9" x="58.877054" y="59.283739" style="stroke: #000000; stroke-width: 0.6"/>
      </g>
     </g>
    </g>
    <g id="ytick_36">
     <g id="line2d_53">
      <g>
       <use xlink:href="#mc1fc8c32c9" x="58.877054" y="52.454047" style="stroke: #000000; stroke-width: 0.6"/>
      </g>
     </g>
    </g>
    <g id="ytick_37">
     <g id="line2d_54">
      <g>
       <use xlink:href="#mc1fc8c32c9" x="58.877054" y="46.679625" style="stroke: #000000; stroke-width: 0.6"/>
      </g>
     </g>
    </g>
    <g id="ytick_38">
     <g id="line2d_55">
      <g>
       <use xlink:href="#mc1fc8c32c9" x="58.877054" y="41.677593" style="stroke: #000000; stroke-width: 0.6"/>
      </g>
     </g>
    </g>
    <g id="ytick_39">
     <g id="line2d_56">
      <g>
       <use xlink:href="#mc1fc8c32c9" x="58.877054" y="37.265488" style="stroke: #000000; stroke-width: 0.6"/>
      </g>
     </g>
    </g>
    <g id="text_13">
     <!-- |$\mathbf{B}$| (T) -->
     <g transform="translate(21.977054 216.17) rotate(-90) scale(0.1 -0.1)">
      <defs>
       <path id="DejaVuSans-7c" d="M 1344 4891 
L 1344 -1509 
L 813 -1509 
L 813 4891 
L 1344 4891 
z
" transform="scale(0.015625)"/>
       <path id="DejaVuSans-Bold-42" d="M 2456 2859 
Q 2741 2859 2887 2984 
Q 3034 3109 3034 3353 
Q 3034 3594 2887 3720 
Q 2741 3847 2456 3847 
L 1791 3847 
L 1791 2859 
L 2456 2859 
z
M 2497 819 
Q 2859 819 3042 972 
Q 3225 1125 3225 1434 
Q 3225 1738 3044 1889 
Q 2863 2041 2497 2041 
L 1791 2041 
L 1791 819 
L 2497 819 
z
M 3616 2497 
Q 4003 2384 4215 2081 
Q 4428 1778 4428 1338 
Q 4428 663 3972 331 
Q 3516 0 2584 0 
L 588 0 
L 588 4666 
L 2394 4666 
Q 3366 4666 3802 4372 
Q 4238 4078 4238 3431 
Q 4238 3091 4078 2852 
Q 3919 2613 3616 2497 
z
" transform="scale(0.015625)"/>
       <path id="DejaVuSans-54" d="M -19 4666 
L 3928 4666 
L 3928 4134 
L 2272 4134 
L 2272 0 
L 1638 0 
L 1638 4134 
L -19 4134 
L -19 4666 
z
" transform="scale(0.015625)"/>
      </defs>
      <use xlink:href="#DejaVuSans-7c" transform="translate(0 0.578125)"/>
      <use xlink:href="#DejaVuSans-Bold-42" transform="translate(33.691406 0.578125)"/>
      <use xlink:href="#DejaVuSans-7c" transform="translate(109.912109 0.578125)"/>
      <use xlink:href="#DejaVuSans-20" transform="translate(143.603516 0.578125)"/>
      <use xlink:href="#DejaVuSans-28" transform="translate(175.390625 0.578125)"/>
      <use xlink:href="#DejaVuSans-54" transform="translate(214.404297 0.578125)"/>
      <use xlink:href="#DejaVuSans-29" transform="translate(275.488281 0.578125)"/>
     </g>
    </g>
   </g>
   <g id="line2d_57">
    <path d="M 81.891733 372.755172 
L 82.81248 372.754911 
L 162.985721 372.780513 
L 163.026889 33.64589 
L 163.038528 372.78335 
L 163.081296 372.780861 
L 164.220717 372.78842 
L 164.397229 33.023043 
L 164.939913 372.782015 
L 165.593395 372.780342 
L 165.715015 32.448522 
L 165.746613 34.237977 
L 165.87535 372.78107 
L 166.647168 372.786548 
L 166.940321 32.038402 
L 167.015118 33.612496 
L 167.059014 31.951879 
L 167.323937 372.791147 
L 167.89501 372.78462 
L 167.989852 31.508199 
L 168.113514 372.787665 
L 168.1353 33.085113 
L 168.163636 34.634342 
L 168.251063 31.443139 
L 168.253051 33.187304 
L 168.41833 372.785793 
L 168.483356 372.783229 
L 168.704271 372.783773 
L 169.022391 31.040389 
L 169.171945 372.789593 
L 169.208912 372.764746 
L 169.255136 30.942779 
L 169.342571 372.789424 
L 169.40541 34.102032 
L 169.407974 372.7874 
L 169.611223 33.101392 
L 169.641829 372.786534 
L 169.83049 32.585692 
L 169.882754 372.786775 
L 169.947974 372.786763 
L 169.974107 30.645572 
L 170.055835 372.795303 
L 170.237401 30.51182 
L 170.306426 372.78638 
L 170.381078 32.91738 
L 170.369111 372.788076 
L 170.400713 372.785838 
L 170.50494 372.79163 
L 170.742463 32.127814 
L 170.796989 372.790361 
L 170.902784 372.785445 
L 171.019351 372.787771 
L 171.048009 30.311523 
L 171.056606 32.129095 
L 171.332184 372.789564 
L 171.337917 30.147144 
L 171.422349 372.785435 
L 171.675325 372.794007 
L 171.71003 29.919265 
L 171.718453 372.795454 
L 171.794902 34.955397 
L 171.796748 372.793007 
L 171.990971 31.615276 
L 172.013195 33.500551 
L 172.169634 372.791599 
L 172.226435 29.825189 
L 172.287198 372.783566 
L 172.406125 29.616782 
L 172.483574 33.078711 
L 172.518074 372.784726 
L 172.553264 34.915798 
L 172.653781 372.792796 
L 172.70133 31.402758 
L 172.815592 29.435962 
L 172.818774 31.222875 
L 172.889575 33.233552 
L 172.938423 372.784203 
L 173.187508 372.784593 
L 173.195546 29.355086 
L 173.278078 372.788849 
L 173.604985 32.798241 
L 173.60978 372.787958 
L 173.661373 29.102205 
L 173.767589 372.793658 
L 173.783444 32.680286 
L 173.949134 30.905341 
L 173.95546 372.798229 
L 174.138138 28.889189 
L 174.222657 34.341774 
L 174.2564 28.942563 
L 174.332668 30.54772 
L 174.360602 33.675419 
L 174.669136 28.676984 
L 174.782675 32.33839 
L 174.851936 28.591623 
L 174.949804 30.601439 
L 174.960729 30.347364 
L 175.015468 35.806003 
L 175.035101 34.222955 
L 175.183164 28.302474 
L 175.272662 30.125849 
L 175.293061 28.422957 
L 175.730584 28.203984 
L 175.757231 29.971998 
L 175.914286 28.038182 
L 176.009255 28.219154 
L 176.251098 30.218863 
L 176.463078 33.746498 
L 176.520881 31.965308 
L 176.5488 32.554597 
L 176.586394 35.983246 
L 176.605558 29.698557 
L 176.614638 34.526291 
L 176.729479 29.665486 
L 177.008959 29.313693 
L 177.031755 29.538749 
L 177.15179 28.887297 
L 177.195174 29.459043 
L 177.232411 33.636837 
L 177.233086 28.761322 
L 177.372599 32.894607 
L 177.378358 35.862037 
L 177.394891 31.198642 
L 177.416083 34.366801 
L 177.700478 29.121264 
L 177.748526 28.895693 
L 178.153095 29.101169 
L 178.28847 30.624489 
L 178.29138 29.221432 
L 178.326324 30.78294 
L 178.769562 30.648071 
L 178.803571 31.362467 
L 178.946997 31.896128 
L 178.971912 36.108787 
L 179.021486 29.892094 
L 179.070369 29.788825 
L 179.149548 30.457502 
L 179.407644 30.473167 
L 179.417393 31.236337 
L 179.46455 29.999162 
L 179.657167 29.65047 
L 179.665695 36.614138 
L 179.771901 33.881576 
L 179.785046 35.94449 
L 179.792545 35.233882 
L 179.908682 29.7503 
L 180.087076 30.321618 
L 180.340012 29.74634 
L 180.995752 30.115019 
L 181.064028 31.627001 
L 181.126164 37.018386 
L 181.141526 31.912432 
L 181.316012 31.383516 
L 181.33602 30.746237 
L 181.382261 35.617209 
L 181.514002 30.901138 
L 181.52735 36.34073 
L 181.594284 30.703038 
L 181.599584 31.212599 
L 181.9121 31.583005 
L 182.029556 31.243839 
L 182.071994 30.536526 
L 182.174685 36.652514 
L 182.14616 30.419868 
L 182.179618 31.018241 
L 182.327119 36.150998 
L 182.359022 30.827052 
L 182.730817 30.757949 
L 183.463086 35.21619 
L 183.689637 31.432428 
L 183.713043 31.993522 
L 183.740317 31.779872 
L 183.799831 37.47285 
L 184.138667 31.215726 
L 184.195841 31.238442 
L 184.357121 35.677386 
L 184.496806 31.28485 
L 184.537261 33.018442 
L 184.574657 36.18861 
L 184.597562 34.500958 
L 185.058249 37.111253 
L 185.136241 37.028762 
L 185.568876 31.752826 
L 185.683875 35.692667 
L 185.710554 35.531625 
L 185.80684 31.72283 
L 185.923756 34.527647 
L 186.018325 34.168475 
L 186.069899 32.391988 
L 186.113825 36.755145 
L 186.129291 32.280855 
L 186.140863 33.438458 
L 186.270075 33.127326 
L 186.449592 36.73633 
L 186.615835 34.209389 
L 186.723357 130.497229 
L 186.879081 32.088255 
L 186.890296 34.959932 
L 186.942888 33.470781 
L 187.011119 36.467444 
L 187.022919 32.875284 
L 187.032226 32.042529 
L 187.099288 33.129329 
L 187.230573 36.365171 
L 187.69644 32.477302 
L 187.852316 132.73193 
L 187.941517 34.972859 
L 188.048088 132.387528 
L 188.261887 32.724846 
L 188.297185 33.303163 
L 188.321584 36.069288 
L 188.333422 33.161885 
L 188.354084 34.657828 
L 188.470932 33.039747 
L 188.513841 33.457585 
L 188.611282 34.360283 
L 188.614502 32.955069 
L 188.829516 34.107979 
L 188.846708 135.12403 
L 188.877288 32.510209 
L 189.039182 33.302063 
L 189.049319 33.034483 
L 189.132685 134.811836 
L 189.256803 32.755062 
L 189.286029 35.855488 
L 189.315752 34.305109 
L 189.482502 132.380814 
L 189.539485 34.001472 
L 189.585811 131.979983 
L 189.78109 137.714677 
L 189.784137 34.01799 
L 189.856885 35.517709 
L 190.029145 33.846622 
L 190.086761 137.251472 
L 190.316931 33.475422 
L 190.477397 34.010044 
L 190.585063 33.865673 
L 190.653518 140.527466 
L 190.6985 134.616943 
L 190.819468 33.465735 
L 190.852545 134.168986 
L 190.929747 33.663491 
L 190.983518 139.886425 
L 191.008336 33.864209 
L 191.264194 33.314986 
L 191.386657 35.063874 
L 191.445064 33.615419 
L 191.479601 143.553799 
L 191.624308 137.053521 
L 191.673157 33.515353 
L 191.803495 33.441061 
L 191.808809 34.794699 
L 191.83717 142.789116 
L 191.944181 34.86489 
L 191.95007 136.754678 
L 192.280607 133.580913 
L 192.299172 146.919015 
L 192.301753 134.190444 
L 192.361472 34.653373 
L 192.417805 34.683035 
L 192.483333 33.705578 
L 192.493048 33.789472 
L 192.506624 139.666753 
L 192.703665 145.959592 
L 192.799156 34.571421 
L 192.841742 139.20131 
L 192.973269 34.542499 
L 192.985394 150.541664 
L 193.063103 34.466188 
L 193.293512 34.394429 
L 193.348674 142.558323 
L 193.454941 34.352019 
L 193.572698 154.578413 
L 193.707557 133.564278 
L 193.709008 135.935344 
L 193.74555 34.212191 
L 193.987177 34.221337 
L 194.083586 159.184021 
L 194.123613 153.53749 
L 194.201549 34.150713 
L 194.291922 145.929484 
L 194.320158 34.129218 
L 194.384878 138.81511 
L 194.559114 164.501415 
L 194.57397 34.166283 
L 194.642409 157.840998 
L 194.728744 138.521938 
L 194.957328 170.663984 
L 195.116767 162.543222 
L 195.285896 135.079204 
L 195.333475 178.035687 
L 195.379049 149.220183 
L 195.5461 168.310176 
L 195.559055 141.063992 
L 195.591888 187.388775 
L 195.770006 147.970044 
L 195.774526 247.591095 
L 195.826267 152.925913 
L 195.943967 175.169341 
L 195.95694 216.834554 
L 196.011005 144.496283 
L 196.270174 183.847447 
L 196.289611 143.774716 
L 196.400759 137.986364 
L 196.561723 236.893038 
L 196.570625 152.629575 
L 196.676579 209.737753 
L 196.740578 137.72034 
L 196.743597 251.293919 
L 196.90884 156.330216 
L 197.10299 167.244012 
L 197.300987 134.999723 
L 197.320274 160.665353 
L 197.371154 148.28898 
L 197.468017 174.01738 
L 197.708323 140.437721 
L 197.720959 218.683604 
L 197.841457 181.527477 
L 197.891384 241.935308 
L 198.038268 171.644862 
L 198.071039 190.671693 
L 198.213204 143.246696 
L 198.281851 202.391266 
L 198.641717 137.276742 
L 198.719606 144.700898 
L 198.751131 187.349171 
L 198.955748 159.337431 
L 199.00759 213.240637 
L 199.027321 147.971661 
L 199.182431 137.007326 
L 199.474951 216.300585 
L 199.643326 152.015097 
L 199.652102 158.789376 
L 199.835023 139.559125 
L 199.943316 175.906978 
L 200.055514 142.363499 
L 200.201895 168.443505 
L 200.293108 146.155186 
L 200.354934 144.464692 
L 200.362962 217.993836 
L 200.428599 139.502001 
L 200.502326 173.906499 
L 200.605026 149.411003 
L 200.641886 190.62973 
L 200.846866 199.292245 
L 201.179495 143.040647 
L 201.371673 197.381418 
L 201.436842 146.977895 
L 201.637174 153.248683 
L 201.746563 165.993367 
L 201.817808 149.878945 
L 201.940635 171.314886 
L 202.007594 161.06816 
L 202.058439 136.143747 
L 202.08855 201.21872 
L 202.160751 196.989333 
L 202.334354 149.116244 
L 202.763277 188.477571 
L 202.893088 138.564636 
L 202.993311 173.540583 
L 203.266213 195.934271 
L 203.507622 178.976563 
L 203.684432 141.091582 
L 204.018398 194.403669 
L 204.081025 144.963209 
L 204.104157 156.637887 
L 204.142632 187.442835 
L 204.243018 180.609 
L 204.249221 167.058308 
L 204.55896 171.763436 
L 204.804449 141.211841 
L 205.215877 185.538566 
L 205.521058 145.497331 
L 205.766664 151.171298 
L 206.040263 190.839449 
L 206.386226 155.863542 
L 207.101454 151.226251 
L 207.413564 162.8841 
L 208.078974 173.445758 
L 208.179735 177.553637 
L 208.501634 167.056736 
L 208.558629 139.455114 
L 208.638572 158.81662 
L 209.20979 177.315289 
L 209.306129 142.6062 
L 209.555606 166.31329 
L 210.040372 172.711612 
L 210.442593 140.128727 
L 210.628513 179.340779 
L 211.318688 147.357121 
L 212.599173 153.518691 
L 212.680106 146.176103 
L 213.298484 167.057584 
L 213.785863 169.05158 
L 214.041897 159.562679 
L 214.616929 153.081094 
L 215.690206 137.26196 
L 215.984705 159.357985 
L 216.246038 165.199424 
L 217.783052 165.456304 
L 217.994923 142.562716 
L 219.559725 142.22632 
L 220.057961 147.414062 
L 220.841906 152.693175 
L 220.915187 159.189501 
L 221.964821 160.97909 
L 222.074536 147.067499 
L 222.897405 152.530856 
L 224.995463 138.754601 
L 225.406703 153.403987 
L 225.65653 154.736237 
L 228.005862 142.519131 
L 228.206343 154.468625 
L 229.361987 142.028131 
L 229.392402 146.134453 
L 231.07808 155.623323 
L 231.258274 150.423468 
L 232.484284 146.124347 
L 235.052041 138.957035 
L 237.452438 148.170277 
L 237.882459 147.037018 
L 239.715443 141.066049 
L 240.927076 139.565705 
L 245.026506 146.44658 
L 245.404971 143.217144 
L 246.234357 142.104441 
L 247.704857 136.419513 
L 252.868806 142.304936 
L 252.920362 143.115859 
L 255.718997 138.095921 
L 255.977864 136.919022 
L 262.076656 138.364245 
L 262.408646 135.728684 
L 264.097461 138.468581 
L 264.245411 139.200025 
L 270.415094 139.417711 
L 273.54988 135.004183 
L 281.662609 135.348258 
L 282.776589 135.306053 
L 289.061663 132.213015 
L 292.732169 133.636432 
L 292.755372 134.474708 
L 304.664872 132.152624 
L 305.802056 132.633144 
L 315.74164 130.628778 
L 316.230898 130.819391 
L 318.972587 131.467583 
L 329.876036 130.355634 
L 338.406686 129.202091 
L 338.490325 129.373347 
L 343.756044 129.460921 
L 348.599683 129.093782 
L 352.344537 129.25228 
L 359.408486 128.261529 
L 360.656299 128.344193 
L 364.419018 128.150806 
L 368.180142 128.388682 
L 373.781653 128.078699 
L 380.747754 127.404248 
L 385.962194 127.713139 
L 398.67423 126.656617 
L 398.886518 127.100147 
L 412.219091 126.744075 
L 426.08882 126.19774 
L 426.965241 126.472417 
L 450.101278 125.832422 
L 453.525728 125.968091 
L 463.775276 125.703086 
L 466.456622 125.78314 
L 471.09837 125.673433 
L 480.416945 125.635664 
L 484.584644 125.358462 
L 495.405805 125.494972 
L 507.572237 125.437739 
L 510.715903 125.2565 
L 520.756861 125.355281 
L 542.185321 125.302256 
L 542.185321 125.302256 
" clip-path="url(#p9fad5a9a81)" style="fill: none; stroke: #1f77b4; stroke-width: 1.5; stroke-linecap: square"/>
   </g>
   <g id="patch_3">
    <path d="M 58.877054 390.04 
L 58.877054 10.8 
" style="fill: none; stroke: #000000; stroke-width: 0.8; stroke-linejoin: miter; stroke-linecap: square"/>
   </g>
   <g id="patch_4">
    <path d="M 565.2 390.04 
L 565.2 10.8 
" style="fill: none; stroke: #000000; stroke-width: 0.8; stroke-linejoin: miter; stroke-linecap: square"/>
   </g>
   <g id="patch_5">
    <path d="M 58.877054 390.04 
L 565.2 390.04 
" style="fill: none; stroke: #000000; stroke-width: 0.8; stroke-linejoin: miter; stroke-linecap: square"/>
   </g>
   <g id="patch_6">
    <path d="M 58.877054 10.8 
L 565.2 10.8 
" style="fill: none; stroke: #000000; stroke-width: 0.8; stroke-linejoin: miter; stroke-linecap: square"/>
   </g>
   <g id="legend_1">
    <g id="patch_7">
     <path d="M 511.8 33.9 
L 558.2 33.9 
Q 560.2 33.9 560.2 31.9 
L 560.2 17.8 
Q 560.2 15.8 558.2 15.8 
L 511.8 15.8 
Q 509.8 15.8 509.8 17.8 
L 509.8 31.9 
Q 509.8 33.9 511.8 33.9 
z
" style="fill: #ffffff; opacity: 0.8; stroke: #cccccc; stroke-linejoin: miter"/>
    </g>
    <g id="line2d_58">
     <path d="M 513.8 24 
L 523.8 24 
L 533.8 24 
" style="fill: none; stroke: #1f77b4; stroke-width: 1.5; stroke-linecap: square"/>
    </g>
    <g id="text_14">
     <!-- |$\mathbf{B}$| -->
     <g transform="translate(541.8 27.5) scale(0.1 -0.1)">
      <use xlink:href="#DejaVuSans-7c" transform="translate(0 0.578125)"/>
      <use xlink:href="#DejaVuSans-Bold-42" transform="translate(33.691406 0.578125)"/>
      <use xlink:href="#DejaVuSans-7c" transform="translate(109.912109 0.578125)"/>
     </g>
    </g>
   </g>
  </g>
 </g>
 <defs>
  <clipPath id="p9fad5a9a81">
   <rect x="58.877054" y="10.8" width="506.322946" height="379.24"/>
  </clipPath>
 </defs>
</svg>
