<?xml version="1.0" encoding="utf-8" standalone="no"?>
<!DOCTYPE svg PUBLIC "-//W3C//DTD SVG 1.1//EN"
  "http://www.w3.org/Graphics/SVG/1.1/DTD/svg11.dtd">
<svg xmlns:xlink="http://www.w3.org/1999/xlink" width="576pt" height="432pt" viewBox="0 0 576 432" xmlns="http://www.w3.org/2000/svg" version="1.1">
 <metadata>
  <rdf:RDF xmlns:dc="http://purl.org/dc/elements/1.1/" xmlns:cc="http://creativecommons.org/ns#" xmlns:rdf="http://www.w3.org/1999/02/22-rdf-syntax-ns#">
   <cc:Work>
    <dc:type rdf:resource="http://purl.org/dc/dcmitype/StillImage"/>
    <dc:date>2024-12-04T09:48:09.781115</dc:date>
    <dc:format>image/svg+xml</dc:format>
    <dc:creator>
     <cc:Agent>
      <dc:title>Matplotlib v3.8.3, https://matplotlib.org/</dc:title>
     </cc:Agent>
    </dc:creator>
   </cc:Work>
  </rdf:RDF>
 </metadata>
 <defs>
  <style type="text/css">*{stroke-linejoin: round; stroke-linecap: butt}</style>
 </defs>
 <g id="figure_1">
  <g id="patch_1">
   <path d="M 0 432 
L 576 432 
L 576 0 
L 0 0 
z
" style="fill: #ffffff"/>
  </g>
  <g id="axes_1">
   <g id="patch_2">
    <path d="M 69.5 390.04 
L 565.2 390.04 
L 565.2 10.8 
L 69.5 10.8 
z
" style="fill: #ffffff"/>
   </g>
   <g id="matplotlib.axis_1">
    <g id="xtick_1">
     <g id="line2d_1">
      <path d="M 86.006195 390.04 
L 86.006195 10.8 
" clip-path="url(#p95817d2f95)" style="fill: none; stroke: #b0b0b0; stroke-width: 0.8; stroke-linecap: square"/>
     </g>
     <g id="line2d_2">
      <defs>
       <path id="m863df321ad" d="M 0 0 
L 0 3.5 
" style="stroke: #000000; stroke-width: 0.8"/>
      </defs>
      <g>
       <use xlink:href="#m863df321ad" x="86.006195" y="390.04" style="stroke: #000000; stroke-width: 0.8"/>
      </g>
     </g>
     <g id="text_1">
      <!-- 0.0 -->
      <g transform="translate(78.054632 404.638438) scale(0.1 -0.1)">
       <defs>
        <path id="DejaVuSans-30" d="M 2034 4250 
Q 1547 4250 1301 3770 
Q 1056 3291 1056 2328 
Q 1056 1369 1301 889 
Q 1547 409 2034 409 
Q 2525 409 2770 889 
Q 3016 1369 3016 2328 
Q 3016 3291 2770 3770 
Q 2525 4250 2034 4250 
z
M 2034 4750 
Q 2819 4750 3233 4129 
Q 3647 3509 3647 2328 
Q 3647 1150 3233 529 
Q 2819 -91 2034 -91 
Q 1250 -91 836 529 
Q 422 1150 422 2328 
Q 422 3509 836 4129 
Q 1250 4750 2034 4750 
z
" transform="scale(0.015625)"/>
        <path id="DejaVuSans-2e" d="M 684 794 
L 1344 794 
L 1344 0 
L 684 0 
L 684 794 
z
" transform="scale(0.015625)"/>
       </defs>
       <use xlink:href="#DejaVuSans-30"/>
       <use xlink:href="#DejaVuSans-2e" x="63.623047"/>
       <use xlink:href="#DejaVuSans-30" x="95.410156"/>
      </g>
     </g>
    </g>
    <g id="xtick_2">
     <g id="line2d_3">
      <path d="M 151.376764 390.04 
L 151.376764 10.8 
" clip-path="url(#p95817d2f95)" style="fill: none; stroke: #b0b0b0; stroke-width: 0.8; stroke-linecap: square"/>
     </g>
     <g id="line2d_4">
      <g>
       <use xlink:href="#m863df321ad" x="151.376764" y="390.04" style="stroke: #000000; stroke-width: 0.8"/>
      </g>
     </g>
     <g id="text_2">
      <!-- 0.2 -->
      <g transform="translate(143.425201 404.638438) scale(0.1 -0.1)">
       <defs>
        <path id="DejaVuSans-32" d="M 1228 531 
L 3431 531 
L 3431 0 
L 469 0 
L 469 531 
Q 828 903 1448 1529 
Q 2069 2156 2228 2338 
Q 2531 2678 2651 2914 
Q 2772 3150 2772 3378 
Q 2772 3750 2511 3984 
Q 2250 4219 1831 4219 
Q 1534 4219 1204 4116 
Q 875 4013 500 3803 
L 500 4441 
Q 881 4594 1212 4672 
Q 1544 4750 1819 4750 
Q 2544 4750 2975 4387 
Q 3406 4025 3406 3419 
Q 3406 3131 3298 2873 
Q 3191 2616 2906 2266 
Q 2828 2175 2409 1742 
Q 1991 1309 1228 531 
z
" transform="scale(0.015625)"/>
       </defs>
       <use xlink:href="#DejaVuSans-30"/>
       <use xlink:href="#DejaVuSans-2e" x="63.623047"/>
       <use xlink:href="#DejaVuSans-32" x="95.410156"/>
      </g>
     </g>
    </g>
    <g id="xtick_3">
     <g id="line2d_5">
      <path d="M 216.747333 390.04 
L 216.747333 10.8 
" clip-path="url(#p95817d2f95)" style="fill: none; stroke: #b0b0b0; stroke-width: 0.8; stroke-linecap: square"/>
     </g>
     <g id="line2d_6">
      <g>
       <use xlink:href="#m863df321ad" x="216.747333" y="390.04" style="stroke: #000000; stroke-width: 0.8"/>
      </g>
     </g>
     <g id="text_3">
      <!-- 0.4 -->
      <g transform="translate(208.79577 404.638438) scale(0.1 -0.1)">
       <defs>
        <path id="DejaVuSans-34" d="M 2419 4116 
L 825 1625 
L 2419 1625 
L 2419 4116 
z
M 2253 4666 
L 3047 4666 
L 3047 1625 
L 3713 1625 
L 3713 1100 
L 3047 1100 
L 3047 0 
L 2419 0 
L 2419 1100 
L 313 1100 
L 313 1709 
L 2253 4666 
z
" transform="scale(0.015625)"/>
       </defs>
       <use xlink:href="#DejaVuSans-30"/>
       <use xlink:href="#DejaVuSans-2e" x="63.623047"/>
       <use xlink:href="#DejaVuSans-34" x="95.410156"/>
      </g>
     </g>
    </g>
    <g id="xtick_4">
     <g id="line2d_7">
      <path d="M 282.117902 390.04 
L 282.117902 10.8 
" clip-path="url(#p95817d2f95)" style="fill: none; stroke: #b0b0b0; stroke-width: 0.8; stroke-linecap: square"/>
     </g>
     <g id="line2d_8">
      <g>
       <use xlink:href="#m863df321ad" x="282.117902" y="390.04" style="stroke: #000000; stroke-width: 0.8"/>
      </g>
     </g>
     <g id="text_4">
      <!-- 0.6 -->
      <g transform="translate(274.166339 404.638438) scale(0.1 -0.1)">
       <defs>
        <path id="DejaVuSans-36" d="M 2113 2584 
Q 1688 2584 1439 2293 
Q 1191 2003 1191 1497 
Q 1191 994 1439 701 
Q 1688 409 2113 409 
Q 2538 409 2786 701 
Q 3034 994 3034 1497 
Q 3034 2003 2786 2293 
Q 2538 2584 2113 2584 
z
M 3366 4563 
L 3366 3988 
Q 3128 4100 2886 4159 
Q 2644 4219 2406 4219 
Q 1781 4219 1451 3797 
Q 1122 3375 1075 2522 
Q 1259 2794 1537 2939 
Q 1816 3084 2150 3084 
Q 2853 3084 3261 2657 
Q 3669 2231 3669 1497 
Q 3669 778 3244 343 
Q 2819 -91 2113 -91 
Q 1303 -91 875 529 
Q 447 1150 447 2328 
Q 447 3434 972 4092 
Q 1497 4750 2381 4750 
Q 2619 4750 2861 4703 
Q 3103 4656 3366 4563 
z
" transform="scale(0.015625)"/>
       </defs>
       <use xlink:href="#DejaVuSans-30"/>
       <use xlink:href="#DejaVuSans-2e" x="63.623047"/>
       <use xlink:href="#DejaVuSans-36" x="95.410156"/>
      </g>
     </g>
    </g>
    <g id="xtick_5">
     <g id="line2d_9">
      <path d="M 347.488471 390.04 
L 347.488471 10.8 
" clip-path="url(#p95817d2f95)" style="fill: none; stroke: #b0b0b0; stroke-width: 0.8; stroke-linecap: square"/>
     </g>
     <g id="line2d_10">
      <g>
       <use xlink:href="#m863df321ad" x="347.488471" y="390.04" style="stroke: #000000; stroke-width: 0.8"/>
      </g>
     </g>
     <g id="text_5">
      <!-- 0.8 -->
      <g transform="translate(339.536908 404.638438) scale(0.1 -0.1)">
       <defs>
        <path id="DejaVuSans-38" d="M 2034 2216 
Q 1584 2216 1326 1975 
Q 1069 1734 1069 1313 
Q 1069 891 1326 650 
Q 1584 409 2034 409 
Q 2484 409 2743 651 
Q 3003 894 3003 1313 
Q 3003 1734 2745 1975 
Q 2488 2216 2034 2216 
z
M 1403 2484 
Q 997 2584 770 2862 
Q 544 3141 544 3541 
Q 544 4100 942 4425 
Q 1341 4750 2034 4750 
Q 2731 4750 3128 4425 
Q 3525 4100 3525 3541 
Q 3525 3141 3298 2862 
Q 3072 2584 2669 2484 
Q 3125 2378 3379 2068 
Q 3634 1759 3634 1313 
Q 3634 634 3220 271 
Q 2806 -91 2034 -91 
Q 1263 -91 848 271 
Q 434 634 434 1313 
Q 434 1759 690 2068 
Q 947 2378 1403 2484 
z
M 1172 3481 
Q 1172 3119 1398 2916 
Q 1625 2713 2034 2713 
Q 2441 2713 2670 2916 
Q 2900 3119 2900 3481 
Q 2900 3844 2670 4047 
Q 2441 4250 2034 4250 
Q 1625 4250 1398 4047 
Q 1172 3844 1172 3481 
z
" transform="scale(0.015625)"/>
       </defs>
       <use xlink:href="#DejaVuSans-30"/>
       <use xlink:href="#DejaVuSans-2e" x="63.623047"/>
       <use xlink:href="#DejaVuSans-38" x="95.410156"/>
      </g>
     </g>
    </g>
    <g id="xtick_6">
     <g id="line2d_11">
      <path d="M 412.85904 390.04 
L 412.85904 10.8 
" clip-path="url(#p95817d2f95)" style="fill: none; stroke: #b0b0b0; stroke-width: 0.8; stroke-linecap: square"/>
     </g>
     <g id="line2d_12">
      <g>
       <use xlink:href="#m863df321ad" x="412.85904" y="390.04" style="stroke: #000000; stroke-width: 0.8"/>
      </g>
     </g>
     <g id="text_6">
      <!-- 1.0 -->
      <g transform="translate(404.907477 404.638438) scale(0.1 -0.1)">
       <defs>
        <path id="DejaVuSans-31" d="M 794 531 
L 1825 531 
L 1825 4091 
L 703 3866 
L 703 4441 
L 1819 4666 
L 2450 4666 
L 2450 531 
L 3481 531 
L 3481 0 
L 794 0 
L 794 531 
z
" transform="scale(0.015625)"/>
       </defs>
       <use xlink:href="#DejaVuSans-31"/>
       <use xlink:href="#DejaVuSans-2e" x="63.623047"/>
       <use xlink:href="#DejaVuSans-30" x="95.410156"/>
      </g>
     </g>
    </g>
    <g id="xtick_7">
     <g id="line2d_13">
      <path d="M 478.229609 390.04 
L 478.229609 10.8 
" clip-path="url(#p95817d2f95)" style="fill: none; stroke: #b0b0b0; stroke-width: 0.8; stroke-linecap: square"/>
     </g>
     <g id="line2d_14">
      <g>
       <use xlink:href="#m863df321ad" x="478.229609" y="390.04" style="stroke: #000000; stroke-width: 0.8"/>
      </g>
     </g>
     <g id="text_7">
      <!-- 1.2 -->
      <g transform="translate(470.278047 404.638438) scale(0.1 -0.1)">
       <use xlink:href="#DejaVuSans-31"/>
       <use xlink:href="#DejaVuSans-2e" x="63.623047"/>
       <use xlink:href="#DejaVuSans-32" x="95.410156"/>
      </g>
     </g>
    </g>
    <g id="xtick_8">
     <g id="line2d_15">
      <path d="M 543.600178 390.04 
L 543.600178 10.8 
" clip-path="url(#p95817d2f95)" style="fill: none; stroke: #b0b0b0; stroke-width: 0.8; stroke-linecap: square"/>
     </g>
     <g id="line2d_16">
      <g>
       <use xlink:href="#m863df321ad" x="543.600178" y="390.04" style="stroke: #000000; stroke-width: 0.8"/>
      </g>
     </g>
     <g id="text_8">
      <!-- 1.4 -->
      <g transform="translate(535.648616 404.638438) scale(0.1 -0.1)">
       <use xlink:href="#DejaVuSans-31"/>
       <use xlink:href="#DejaVuSans-2e" x="63.623047"/>
       <use xlink:href="#DejaVuSans-34" x="95.410156"/>
      </g>
     </g>
    </g>
    <g id="text_9">
     <!-- Radial distance (m) -->
     <g transform="translate(268.771094 418.316562) scale(0.1 -0.1)">
      <defs>
       <path id="DejaVuSans-52" d="M 2841 2188 
Q 3044 2119 3236 1894 
Q 3428 1669 3622 1275 
L 4263 0 
L 3584 0 
L 2988 1197 
Q 2756 1666 2539 1819 
Q 2322 1972 1947 1972 
L 1259 1972 
L 1259 0 
L 628 0 
L 628 4666 
L 2053 4666 
Q 2853 4666 3247 4331 
Q 3641 3997 3641 3322 
Q 3641 2881 3436 2590 
Q 3231 2300 2841 2188 
z
M 1259 4147 
L 1259 2491 
L 2053 2491 
Q 2509 2491 2742 2702 
Q 2975 2913 2975 3322 
Q 2975 3731 2742 3939 
Q 2509 4147 2053 4147 
L 1259 4147 
z
" transform="scale(0.015625)"/>
       <path id="DejaVuSans-61" d="M 2194 1759 
Q 1497 1759 1228 1600 
Q 959 1441 959 1056 
Q 959 750 1161 570 
Q 1363 391 1709 391 
Q 2188 391 2477 730 
Q 2766 1069 2766 1631 
L 2766 1759 
L 2194 1759 
z
M 3341 1997 
L 3341 0 
L 2766 0 
L 2766 531 
Q 2569 213 2275 61 
Q 1981 -91 1556 -91 
Q 1019 -91 701 211 
Q 384 513 384 1019 
Q 384 1609 779 1909 
Q 1175 2209 1959 2209 
L 2766 2209 
L 2766 2266 
Q 2766 2663 2505 2880 
Q 2244 3097 1772 3097 
Q 1472 3097 1187 3025 
Q 903 2953 641 2809 
L 641 3341 
Q 956 3463 1253 3523 
Q 1550 3584 1831 3584 
Q 2591 3584 2966 3190 
Q 3341 2797 3341 1997 
z
" transform="scale(0.015625)"/>
       <path id="DejaVuSans-64" d="M 2906 2969 
L 2906 4863 
L 3481 4863 
L 3481 0 
L 2906 0 
L 2906 525 
Q 2725 213 2448 61 
Q 2172 -91 1784 -91 
Q 1150 -91 751 415 
Q 353 922 353 1747 
Q 353 2572 751 3078 
Q 1150 3584 1784 3584 
Q 2172 3584 2448 3432 
Q 2725 3281 2906 2969 
z
M 947 1747 
Q 947 1113 1208 752 
Q 1469 391 1925 391 
Q 2381 391 2643 752 
Q 2906 1113 2906 1747 
Q 2906 2381 2643 2742 
Q 2381 3103 1925 3103 
Q 1469 3103 1208 2742 
Q 947 2381 947 1747 
z
" transform="scale(0.015625)"/>
       <path id="DejaVuSans-69" d="M 603 3500 
L 1178 3500 
L 1178 0 
L 603 0 
L 603 3500 
z
M 603 4863 
L 1178 4863 
L 1178 4134 
L 603 4134 
L 603 4863 
z
" transform="scale(0.015625)"/>
       <path id="DejaVuSans-6c" d="M 603 4863 
L 1178 4863 
L 1178 0 
L 603 0 
L 603 4863 
z
" transform="scale(0.015625)"/>
       <path id="DejaVuSans-20" transform="scale(0.015625)"/>
       <path id="DejaVuSans-73" d="M 2834 3397 
L 2834 2853 
Q 2591 2978 2328 3040 
Q 2066 3103 1784 3103 
Q 1356 3103 1142 2972 
Q 928 2841 928 2578 
Q 928 2378 1081 2264 
Q 1234 2150 1697 2047 
L 1894 2003 
Q 2506 1872 2764 1633 
Q 3022 1394 3022 966 
Q 3022 478 2636 193 
Q 2250 -91 1575 -91 
Q 1294 -91 989 -36 
Q 684 19 347 128 
L 347 722 
Q 666 556 975 473 
Q 1284 391 1588 391 
Q 1994 391 2212 530 
Q 2431 669 2431 922 
Q 2431 1156 2273 1281 
Q 2116 1406 1581 1522 
L 1381 1569 
Q 847 1681 609 1914 
Q 372 2147 372 2553 
Q 372 3047 722 3315 
Q 1072 3584 1716 3584 
Q 2034 3584 2315 3537 
Q 2597 3491 2834 3397 
z
" transform="scale(0.015625)"/>
       <path id="DejaVuSans-74" d="M 1172 4494 
L 1172 3500 
L 2356 3500 
L 2356 3053 
L 1172 3053 
L 1172 1153 
Q 1172 725 1289 603 
Q 1406 481 1766 481 
L 2356 481 
L 2356 0 
L 1766 0 
Q 1100 0 847 248 
Q 594 497 594 1153 
L 594 3053 
L 172 3053 
L 172 3500 
L 594 3500 
L 594 4494 
L 1172 4494 
z
" transform="scale(0.015625)"/>
       <path id="DejaVuSans-6e" d="M 3513 2113 
L 3513 0 
L 2938 0 
L 2938 2094 
Q 2938 2591 2744 2837 
Q 2550 3084 2163 3084 
Q 1697 3084 1428 2787 
Q 1159 2491 1159 1978 
L 1159 0 
L 581 0 
L 581 3500 
L 1159 3500 
L 1159 2956 
Q 1366 3272 1645 3428 
Q 1925 3584 2291 3584 
Q 2894 3584 3203 3211 
Q 3513 2838 3513 2113 
z
" transform="scale(0.015625)"/>
       <path id="DejaVuSans-63" d="M 3122 3366 
L 3122 2828 
Q 2878 2963 2633 3030 
Q 2388 3097 2138 3097 
Q 1578 3097 1268 2742 
Q 959 2388 959 1747 
Q 959 1106 1268 751 
Q 1578 397 2138 397 
Q 2388 397 2633 464 
Q 2878 531 3122 666 
L 3122 134 
Q 2881 22 2623 -34 
Q 2366 -91 2075 -91 
Q 1284 -91 818 406 
Q 353 903 353 1747 
Q 353 2603 823 3093 
Q 1294 3584 2113 3584 
Q 2378 3584 2631 3529 
Q 2884 3475 3122 3366 
z
" transform="scale(0.015625)"/>
       <path id="DejaVuSans-65" d="M 3597 1894 
L 3597 1613 
L 953 1613 
Q 991 1019 1311 708 
Q 1631 397 2203 397 
Q 2534 397 2845 478 
Q 3156 559 3463 722 
L 3463 178 
Q 3153 47 2828 -22 
Q 2503 -91 2169 -91 
Q 1331 -91 842 396 
Q 353 884 353 1716 
Q 353 2575 817 3079 
Q 1281 3584 2069 3584 
Q 2775 3584 3186 3129 
Q 3597 2675 3597 1894 
z
M 3022 2063 
Q 3016 2534 2758 2815 
Q 2500 3097 2075 3097 
Q 1594 3097 1305 2825 
Q 1016 2553 972 2059 
L 3022 2063 
z
" transform="scale(0.015625)"/>
       <path id="DejaVuSans-28" d="M 1984 4856 
Q 1566 4138 1362 3434 
Q 1159 2731 1159 2009 
Q 1159 1288 1364 580 
Q 1569 -128 1984 -844 
L 1484 -844 
Q 1016 -109 783 600 
Q 550 1309 550 2009 
Q 550 2706 781 3412 
Q 1013 4119 1484 4856 
L 1984 4856 
z
" transform="scale(0.015625)"/>
       <path id="DejaVuSans-6d" d="M 3328 2828 
Q 3544 3216 3844 3400 
Q 4144 3584 4550 3584 
Q 5097 3584 5394 3201 
Q 5691 2819 5691 2113 
L 5691 0 
L 5113 0 
L 5113 2094 
Q 5113 2597 4934 2840 
Q 4756 3084 4391 3084 
Q 3944 3084 3684 2787 
Q 3425 2491 3425 1978 
L 3425 0 
L 2847 0 
L 2847 2094 
Q 2847 2600 2669 2842 
Q 2491 3084 2119 3084 
Q 1678 3084 1418 2786 
Q 1159 2488 1159 1978 
L 1159 0 
L 581 0 
L 581 3500 
L 1159 3500 
L 1159 2956 
Q 1356 3278 1631 3431 
Q 1906 3584 2284 3584 
Q 2666 3584 2933 3390 
Q 3200 3197 3328 2828 
z
" transform="scale(0.015625)"/>
       <path id="DejaVuSans-29" d="M 513 4856 
L 1013 4856 
Q 1481 4119 1714 3412 
Q 1947 2706 1947 2009 
Q 1947 1309 1714 600 
Q 1481 -109 1013 -844 
L 513 -844 
Q 928 -128 1133 580 
Q 1338 1288 1338 2009 
Q 1338 2731 1133 3434 
Q 928 4138 513 4856 
z
" transform="scale(0.015625)"/>
      </defs>
      <use xlink:href="#DejaVuSans-52"/>
      <use xlink:href="#DejaVuSans-61" x="67.232422"/>
      <use xlink:href="#DejaVuSans-64" x="128.511719"/>
      <use xlink:href="#DejaVuSans-69" x="191.988281"/>
      <use xlink:href="#DejaVuSans-61" x="219.771484"/>
      <use xlink:href="#DejaVuSans-6c" x="281.050781"/>
      <use xlink:href="#DejaVuSans-20" x="308.833984"/>
      <use xlink:href="#DejaVuSans-64" x="340.621094"/>
      <use xlink:href="#DejaVuSans-69" x="404.097656"/>
      <use xlink:href="#DejaVuSans-73" x="431.880859"/>
      <use xlink:href="#DejaVuSans-74" x="483.980469"/>
      <use xlink:href="#DejaVuSans-61" x="523.189453"/>
      <use xlink:href="#DejaVuSans-6e" x="584.46875"/>
      <use xlink:href="#DejaVuSans-63" x="647.847656"/>
      <use xlink:href="#DejaVuSans-65" x="702.828125"/>
      <use xlink:href="#DejaVuSans-20" x="764.351562"/>
      <use xlink:href="#DejaVuSans-28" x="796.138672"/>
      <use xlink:href="#DejaVuSans-6d" x="835.152344"/>
      <use xlink:href="#DejaVuSans-29" x="932.564453"/>
     </g>
    </g>
   </g>
   <g id="matplotlib.axis_2">
    <g id="ytick_1">
     <g id="line2d_17">
      <path d="M 69.5 346.812464 
L 565.2 346.812464 
" clip-path="url(#p95817d2f95)" style="fill: none; stroke: #b0b0b0; stroke-width: 0.8; stroke-linecap: square"/>
     </g>
     <g id="line2d_18">
      <defs>
       <path id="m8e66b72565" d="M 0 0 
L -3.5 0 
" style="stroke: #000000; stroke-width: 0.8"/>
      </defs>
      <g>
       <use xlink:href="#m8e66b72565" x="69.5" y="346.812464" style="stroke: #000000; stroke-width: 0.8"/>
      </g>
     </g>
     <g id="text_10">
      <!-- 0.0150 -->
      <g transform="translate(27.509375 350.611683) scale(0.1 -0.1)">
       <defs>
        <path id="DejaVuSans-35" d="M 691 4666 
L 3169 4666 
L 3169 4134 
L 1269 4134 
L 1269 2991 
Q 1406 3038 1543 3061 
Q 1681 3084 1819 3084 
Q 2600 3084 3056 2656 
Q 3513 2228 3513 1497 
Q 3513 744 3044 326 
Q 2575 -91 1722 -91 
Q 1428 -91 1123 -41 
Q 819 9 494 109 
L 494 744 
Q 775 591 1075 516 
Q 1375 441 1709 441 
Q 2250 441 2565 725 
Q 2881 1009 2881 1497 
Q 2881 1984 2565 2268 
Q 2250 2553 1709 2553 
Q 1456 2553 1204 2497 
Q 953 2441 691 2322 
L 691 4666 
z
" transform="scale(0.015625)"/>
       </defs>
       <use xlink:href="#DejaVuSans-30"/>
       <use xlink:href="#DejaVuSans-2e" x="63.623047"/>
       <use xlink:href="#DejaVuSans-30" x="95.410156"/>
       <use xlink:href="#DejaVuSans-31" x="159.033203"/>
       <use xlink:href="#DejaVuSans-35" x="222.65625"/>
       <use xlink:href="#DejaVuSans-30" x="286.279297"/>
      </g>
     </g>
    </g>
    <g id="ytick_2">
     <g id="line2d_19">
      <path d="M 69.5 294.227313 
L 565.2 294.227313 
" clip-path="url(#p95817d2f95)" style="fill: none; stroke: #b0b0b0; stroke-width: 0.8; stroke-linecap: square"/>
     </g>
     <g id="line2d_20">
      <g>
       <use xlink:href="#m8e66b72565" x="69.5" y="294.227313" style="stroke: #000000; stroke-width: 0.8"/>
      </g>
     </g>
     <g id="text_11">
      <!-- 0.0175 -->
      <g transform="translate(27.509375 298.026532) scale(0.1 -0.1)">
       <defs>
        <path id="DejaVuSans-37" d="M 525 4666 
L 3525 4666 
L 3525 4397 
L 1831 0 
L 1172 0 
L 2766 4134 
L 525 4134 
L 525 4666 
z
" transform="scale(0.015625)"/>
       </defs>
       <use xlink:href="#DejaVuSans-30"/>
       <use xlink:href="#DejaVuSans-2e" x="63.623047"/>
       <use xlink:href="#DejaVuSans-30" x="95.410156"/>
       <use xlink:href="#DejaVuSans-31" x="159.033203"/>
       <use xlink:href="#DejaVuSans-37" x="222.65625"/>
       <use xlink:href="#DejaVuSans-35" x="286.279297"/>
      </g>
     </g>
    </g>
    <g id="ytick_3">
     <g id="line2d_21">
      <path d="M 69.5 241.642163 
L 565.2 241.642163 
" clip-path="url(#p95817d2f95)" style="fill: none; stroke: #b0b0b0; stroke-width: 0.8; stroke-linecap: square"/>
     </g>
     <g id="line2d_22">
      <g>
       <use xlink:href="#m8e66b72565" x="69.5" y="241.642163" style="stroke: #000000; stroke-width: 0.8"/>
      </g>
     </g>
     <g id="text_12">
      <!-- 0.0200 -->
      <g transform="translate(27.509375 245.441382) scale(0.1 -0.1)">
       <use xlink:href="#DejaVuSans-30"/>
       <use xlink:href="#DejaVuSans-2e" x="63.623047"/>
       <use xlink:href="#DejaVuSans-30" x="95.410156"/>
       <use xlink:href="#DejaVuSans-32" x="159.033203"/>
       <use xlink:href="#DejaVuSans-30" x="222.65625"/>
       <use xlink:href="#DejaVuSans-30" x="286.279297"/>
      </g>
     </g>
    </g>
    <g id="ytick_4">
     <g id="line2d_23">
      <path d="M 69.5 189.057013 
L 565.2 189.057013 
" clip-path="url(#p95817d2f95)" style="fill: none; stroke: #b0b0b0; stroke-width: 0.8; stroke-linecap: square"/>
     </g>
     <g id="line2d_24">
      <g>
       <use xlink:href="#m8e66b72565" x="69.5" y="189.057013" style="stroke: #000000; stroke-width: 0.8"/>
      </g>
     </g>
     <g id="text_13">
      <!-- 0.0225 -->
      <g transform="translate(27.509375 192.856231) scale(0.1 -0.1)">
       <use xlink:href="#DejaVuSans-30"/>
       <use xlink:href="#DejaVuSans-2e" x="63.623047"/>
       <use xlink:href="#DejaVuSans-30" x="95.410156"/>
       <use xlink:href="#DejaVuSans-32" x="159.033203"/>
       <use xlink:href="#DejaVuSans-32" x="222.65625"/>
       <use xlink:href="#DejaVuSans-35" x="286.279297"/>
      </g>
     </g>
    </g>
    <g id="ytick_5">
     <g id="line2d_25">
      <path d="M 69.5 136.471862 
L 565.2 136.471862 
" clip-path="url(#p95817d2f95)" style="fill: none; stroke: #b0b0b0; stroke-width: 0.8; stroke-linecap: square"/>
     </g>
     <g id="line2d_26">
      <g>
       <use xlink:href="#m8e66b72565" x="69.5" y="136.471862" style="stroke: #000000; stroke-width: 0.8"/>
      </g>
     </g>
     <g id="text_14">
      <!-- 0.0250 -->
      <g transform="translate(27.509375 140.271081) scale(0.1 -0.1)">
       <use xlink:href="#DejaVuSans-30"/>
       <use xlink:href="#DejaVuSans-2e" x="63.623047"/>
       <use xlink:href="#DejaVuSans-30" x="95.410156"/>
       <use xlink:href="#DejaVuSans-32" x="159.033203"/>
       <use xlink:href="#DejaVuSans-35" x="222.65625"/>
       <use xlink:href="#DejaVuSans-30" x="286.279297"/>
      </g>
     </g>
    </g>
    <g id="ytick_6">
     <g id="line2d_27">
      <path d="M 69.5 83.886712 
L 565.2 83.886712 
" clip-path="url(#p95817d2f95)" style="fill: none; stroke: #b0b0b0; stroke-width: 0.8; stroke-linecap: square"/>
     </g>
     <g id="line2d_28">
      <g>
       <use xlink:href="#m8e66b72565" x="69.5" y="83.886712" style="stroke: #000000; stroke-width: 0.8"/>
      </g>
     </g>
     <g id="text_15">
      <!-- 0.0275 -->
      <g transform="translate(27.509375 87.685931) scale(0.1 -0.1)">
       <use xlink:href="#DejaVuSans-30"/>
       <use xlink:href="#DejaVuSans-2e" x="63.623047"/>
       <use xlink:href="#DejaVuSans-30" x="95.410156"/>
       <use xlink:href="#DejaVuSans-32" x="159.033203"/>
       <use xlink:href="#DejaVuSans-37" x="222.65625"/>
       <use xlink:href="#DejaVuSans-35" x="286.279297"/>
      </g>
     </g>
    </g>
    <g id="ytick_7">
     <g id="line2d_29">
      <path d="M 69.5 31.301562 
L 565.2 31.301562 
" clip-path="url(#p95817d2f95)" style="fill: none; stroke: #b0b0b0; stroke-width: 0.8; stroke-linecap: square"/>
     </g>
     <g id="line2d_30">
      <g>
       <use xlink:href="#m8e66b72565" x="69.5" y="31.301562" style="stroke: #000000; stroke-width: 0.8"/>
      </g>
     </g>
     <g id="text_16">
      <!-- 0.0300 -->
      <g transform="translate(27.509375 35.10078) scale(0.1 -0.1)">
       <defs>
        <path id="DejaVuSans-33" d="M 2597 2516 
Q 3050 2419 3304 2112 
Q 3559 1806 3559 1356 
Q 3559 666 3084 287 
Q 2609 -91 1734 -91 
Q 1441 -91 1130 -33 
Q 819 25 488 141 
L 488 750 
Q 750 597 1062 519 
Q 1375 441 1716 441 
Q 2309 441 2620 675 
Q 2931 909 2931 1356 
Q 2931 1769 2642 2001 
Q 2353 2234 1838 2234 
L 1294 2234 
L 1294 2753 
L 1863 2753 
Q 2328 2753 2575 2939 
Q 2822 3125 2822 3475 
Q 2822 3834 2567 4026 
Q 2313 4219 1838 4219 
Q 1578 4219 1281 4162 
Q 984 4106 628 3988 
L 628 4550 
Q 988 4650 1302 4700 
Q 1616 4750 1894 4750 
Q 2613 4750 3031 4423 
Q 3450 4097 3450 3541 
Q 3450 3153 3228 2886 
Q 3006 2619 2597 2516 
z
" transform="scale(0.015625)"/>
       </defs>
       <use xlink:href="#DejaVuSans-30"/>
       <use xlink:href="#DejaVuSans-2e" x="63.623047"/>
       <use xlink:href="#DejaVuSans-30" x="95.410156"/>
       <use xlink:href="#DejaVuSans-33" x="159.033203"/>
       <use xlink:href="#DejaVuSans-30" x="222.65625"/>
       <use xlink:href="#DejaVuSans-30" x="286.279297"/>
      </g>
     </g>
    </g>
    <g id="text_17">
     <!-- |$\mathbf{B}$| (T) -->
     <g transform="translate(21.109375 216.17) rotate(-90) scale(0.1 -0.1)">
      <defs>
       <path id="DejaVuSans-7c" d="M 1344 4891 
L 1344 -1509 
L 813 -1509 
L 813 4891 
L 1344 4891 
z
" transform="scale(0.015625)"/>
       <path id="DejaVuSans-Bold-42" d="M 2456 2859 
Q 2741 2859 2887 2984 
Q 3034 3109 3034 3353 
Q 3034 3594 2887 3720 
Q 2741 3847 2456 3847 
L 1791 3847 
L 1791 2859 
L 2456 2859 
z
M 2497 819 
Q 2859 819 3042 972 
Q 3225 1125 3225 1434 
Q 3225 1738 3044 1889 
Q 2863 2041 2497 2041 
L 1791 2041 
L 1791 819 
L 2497 819 
z
M 3616 2497 
Q 4003 2384 4215 2081 
Q 4428 1778 4428 1338 
Q 4428 663 3972 331 
Q 3516 0 2584 0 
L 588 0 
L 588 4666 
L 2394 4666 
Q 3366 4666 3802 4372 
Q 4238 4078 4238 3431 
Q 4238 3091 4078 2852 
Q 3919 2613 3616 2497 
z
" transform="scale(0.015625)"/>
       <path id="DejaVuSans-54" d="M -19 4666 
L 3928 4666 
L 3928 4134 
L 2272 4134 
L 2272 0 
L 1638 0 
L 1638 4134 
L -19 4134 
L -19 4666 
z
" transform="scale(0.015625)"/>
      </defs>
      <use xlink:href="#DejaVuSans-7c" transform="translate(0 0.578125)"/>
      <use xlink:href="#DejaVuSans-Bold-42" transform="translate(33.691406 0.578125)"/>
      <use xlink:href="#DejaVuSans-7c" transform="translate(109.912109 0.578125)"/>
      <use xlink:href="#DejaVuSans-20" transform="translate(143.603516 0.578125)"/>
      <use xlink:href="#DejaVuSans-28" transform="translate(175.390625 0.578125)"/>
      <use xlink:href="#DejaVuSans-54" transform="translate(214.404297 0.578125)"/>
      <use xlink:href="#DejaVuSans-29" transform="translate(275.488281 0.578125)"/>
     </g>
    </g>
   </g>
   <g id="line2d_31">
    <path d="M 92.031818 372.801818 
L 92.031818 28.038182 
L 97.453501 159.870216 
L 97.454128 41.150734 
L 100.581896 190.397325 
L 100.635676 92.08607 
L 104.683268 126.334403 
L 105.676778 154.451457 
L 105.965791 105.406643 
L 107.464801 153.501167 
L 107.768911 131.09077 
L 109.944082 156.611292 
L 110.223473 118.697635 
L 112.253429 139.511098 
L 113.419929 126.16214 
L 115.077669 147.731372 
L 115.402049 122.863858 
L 115.694819 147.341204 
L 115.990625 136.178928 
L 116.948571 129.992624 
L 119.692547 147.077833 
L 119.771205 127.193388 
L 120.341366 141.673411 
L 121.835844 132.134723 
L 122.198592 141.308689 
L 122.418989 129.429308 
L 123.840564 142.159221 
L 123.925512 137.507461 
L 124.795445 143.553251 
L 124.861921 129.023364 
L 124.890424 133.751929 
L 125.717396 143.715864 
L 126.056012 131.515085 
L 128.154316 140.429704 
L 129.324623 135.606992 
L 129.355051 143.052836 
L 129.355051 130.875795 
L 129.998721 132.842924 
L 130.183297 140.425139 
L 130.852272 141.384032 
L 131.404249 131.689799 
L 131.897954 141.375689 
L 132.984798 133.751483 
L 133.71113 134.605217 
L 133.783261 135.861869 
L 134.278522 141.309624 
L 134.390351 131.819056 
L 134.978357 141.457988 
L 135.298747 132.856104 
L 135.661642 138.688295 
L 136.501243 137.124352 
L 137.012448 139.963858 
L 138.496636 133.632907 
L 138.699701 139.959935 
L 138.856115 140.961246 
L 138.952564 132.780552 
L 139.221195 135.841868 
L 139.999925 140.206972 
L 140.540188 133.131069 
L 141.008217 140.218091 
L 142.16838 134.294754 
L 143.127419 140.192128 
L 143.641224 140.265798 
L 143.687586 135.213814 
L 143.944591 133.332773 
L 144.224306 138.697807 
L 144.661129 133.851497 
L 145.631522 136.745356 
L 146.16207 139.333896 
L 146.758091 138.696899 
L 147.240035 134.19263 
L 147.433807 137.741902 
L 147.655846 139.29547 
L 147.858525 139.723493 
L 148.550538 133.891809 
L 148.642888 139.363937 
L 148.665618 135.11548 
L 149.580148 136.753378 
L 149.768428 134.077588 
L 149.94712 135.0416 
L 150.121525 139.487461 
L 150.772474 134.645852 
L 151.284928 139.636059 
L 152.309623 137.937576 
L 152.926067 137.250928 
L 153.065536 135.566527 
L 153.080279 136.010989 
L 153.149456 138.505641 
L 153.521906 134.239255 
L 154.809495 134.922311 
L 154.897316 136.606819 
L 155.192919 134.799678 
L 155.294905 138.831286 
L 155.299237 138.502572 
L 155.825069 138.949425 
L 156.462847 137.252835 
L 156.805221 138.825173 
L 157.916613 135.532292 
L 158.098068 136.115373 
L 158.159475 134.579803 
L 158.401607 135.338076 
L 158.818428 139.068767 
L 158.973127 136.611712 
L 159.363426 134.740711 
L 159.541751 134.937275 
L 159.546333 138.96708 
L 159.589362 138.817968 
L 160.754672 137.484614 
L 160.834202 137.944266 
L 161.910592 136.993376 
L 162.200964 138.287217 
L 162.433722 135.817592 
L 162.607206 136.117546 
L 163.066349 134.819839 
L 163.290387 135.340204 
L 163.408522 137.944185 
L 163.734915 135.003042 
L 163.81749 138.698915 
L 163.93581 137.485189 
L 164.013475 135.292419 
L 164.092034 138.285825 
L 164.242398 136.555961 
L 164.252235 138.665392 
L 164.850666 138.447631 
L 165.629957 136.994495 
L 165.953146 138.468395 
L 167.279037 135.812005 
L 167.646131 135.669938 
L 167.647236 136.223211 
L 167.719213 135.051268 
L 167.839025 138.568613 
L 168.418731 136.557301 
L 168.636156 138.432797 
L 168.722536 135.0944 
L 168.956148 137.5703 
L 169.166227 138.427745 
L 169.294172 135.299155 
L 169.587412 137.878572 
L 171.035026 136.853139 
L 171.059269 135.433117 
L 171.285719 138.090227 
L 171.836222 137.570392 
L 171.895043 137.878357 
L 171.998668 136.007836 
L 172.195521 136.224371 
L 172.506301 135.214437 
L 172.682477 135.670163 
L 172.767582 138.378586 
L 172.847163 137.211103 
L 172.857992 135.300081 
L 173.158896 138.347899 
L 173.60164 135.630731 
L 173.651975 136.543164 
L 174.193089 138.194697 
L 174.89274 136.853871 
L 175.178901 138.194429 
L 176.812396 135.419384 
L 176.838016 136.008566 
L 177.157837 135.891044 
L 177.212024 136.305721 
L 177.220776 135.354338 
L 177.374879 138.250223 
L 177.435222 137.581586 
L 177.605399 135.430545 
L 177.903536 136.543952 
L 177.934793 138.168498 
L 178.330181 137.040908 
L 178.450034 138.167135 
L 178.495598 137.791759 
L 178.849581 135.627563 
L 180.055957 137.581557 
L 180.256875 136.774356 
L 180.318025 135.665829 
L 180.433186 137.929789 
L 180.492081 137.321111 
L 180.599877 137.79159 
L 181.609832 136.144651 
L 181.78854 136.306402 
L 181.890079 135.486537 
L 181.894885 137.041276 
L 181.929873 135.531736 
L 182.018954 137.925874 
L 182.216811 135.891578 
L 182.381919 138.102506 
L 182.597101 138.086708 
L 182.996463 135.851067 
L 183.101478 136.546253 
L 183.499729 137.99005 
L 184.222935 136.774833 
L 184.456207 137.984062 
L 185.606126 137.368841 
L 185.648705 135.650698 
L 186.216656 138.049298 
L 186.449436 135.60477 
L 186.721968 135.585411 
L 186.786304 136.369159 
L 187.060339 138.023026 
L 187.334167 137.707564 
L 187.412548 136.546736 
L 187.929483 135.749238 
L 188.220178 135.851359 
L 188.50044 137.559001 
L 189.178524 137.81377 
L 189.31783 137.153164 
L 189.32624 137.706303 
L 189.402248 135.852171 
L 189.549986 136.729299 
L 190.338768 137.854144 
L 190.504453 137.796245 
L 191.043172 136.933395 
L 191.357636 135.689706 
L 191.385513 136.36957 
L 191.643767 135.68412 
L 191.774931 136.050296 
L 192.122488 137.902894 
L 192.484621 136.004861 
L 192.580287 136.555609 
L 193.213757 135.736419 
L 193.229059 137.914453 
L 193.602994 136.729613 
L 193.767898 137.758087 
L 194.014794 137.215942 
L 194.043598 137.381926 
L 194.283608 137.85278 
L 194.743245 135.852325 
L 194.82199 137.521421 
L 195.20663 135.805704 
L 195.876826 137.631546 
L 196.057022 136.244337 
L 196.317162 135.888202 
L 196.367371 136.418519 
L 196.459674 136.863006 
L 196.585061 135.759133 
L 196.73847 137.860166 
L 196.939541 136.555914 
L 197.149897 137.521461 
L 197.678292 136.005057 
L 198.082175 137.731222 
L 198.194119 137.634136 
L 198.273006 137.038174 
L 198.32632 137.79054 
L 198.761251 135.993155 
L 198.896742 136.703293 
L 198.975925 137.774056 
L 199.794854 135.805022 
L 200.267849 136.863199 
L 200.836388 136.317751 
L 200.985217 136.418776 
L 201.342228 136.164201 
L 201.642661 137.776453 
L 201.713034 135.813004 
L 201.993392 136.118702 
L 202.081222 136.567007 
L 202.147344 137.774739 
L 202.177151 137.617146 
L 202.256681 137.248583 
L 202.609799 137.105168 
L 202.697165 137.378075 
L 202.806479 135.884382 
L 203.02092 136.703502 
L 203.197299 135.922847 
L 203.571777 137.675226 
L 203.749379 136.957839 
L 203.783165 137.486086 
L 204.070249 135.993263 
L 204.563134 137.673297 
L 205.107405 137.248611 
L 205.15018 137.378064 
L 205.454048 136.001019 
L 205.652949 136.816348 
L 205.668116 136.317947 
L 205.838324 137.105242 
L 205.911111 136.248543 
L 205.9536 136.457456 
L 205.965821 137.48605 
L 206.204722 137.738087 
L 206.413818 135.880295 
L 206.480251 136.567204 
L 207.077402 137.691948 
L 207.16084 136.118834 
L 207.40578 137.566505 
L 207.835315 137.689714 
L 208.15976 136.097547 
L 208.284837 136.688397 
L 208.308573 135.907277 
L 209.551799 136.816485 
L 209.655262 137.585905 
L 210.449675 136.373886 
L 210.506397 137.58558 
L 210.58702 136.457622 
L 210.695109 137.263415 
L 210.84139 136.002789 
L 210.916586 136.24868 
L 211.105549 137.681808 
L 211.352816 137.023639 
L 211.353814 135.916984 
L 211.474216 137.681901 
L 211.474709 137.366526 
L 211.518085 136.204047 
L 211.599262 136.578686 
L 212.173711 135.958683 
L 212.180763 136.011857 
L 212.468254 136.688538 
L 212.778621 136.900769 
L 213.053428 137.598219 
L 213.35708 137.263424 
L 213.439113 136.097623 
L 213.759296 137.366513 
L 213.928431 137.593972 
L 214.721112 137.023703 
L 214.744069 136.092664 
L 214.879363 137.450125 
L 214.907523 136.78472 
L 215.27954 136.374014 
L 215.447654 137.512501 
L 215.504498 136.312825 
L 215.543844 136.488824 
L 215.818774 137.65396 
L 215.855708 135.961945 
L 216.031656 136.578816 
L 216.464688 136.900854 
L 216.545143 137.615586 
L 216.66244 136.204135 
L 216.698827 137.512478 
L 217.047487 135.971165 
L 217.359937 137.616055 
L 217.671017 136.01766 
L 217.825467 137.557665 
L 218.882599 136.784815 
L 218.907287 137.172062 
L 219.216274 137.068494 
L 219.292755 137.268297 
L 219.50978 136.040782 
L 220.062967 136.417865 
L 220.102865 136.092904 
L 220.366701 137.353086 
L 220.496498 136.312917 
L 220.713426 137.613057 
L 220.753136 135.989042 
L 221.055288 136.269442 
L 221.072759 137.613161 
L 221.132902 136.013384 
L 221.689262 136.092384 
L 221.706896 137.501943 
L 221.786273 137.268298 
L 221.938865 136.680365 
L 222.165709 137.422864 
L 222.390503 137.068528 
L 222.638629 137.542521 
L 222.842073 136.177243 
L 223.702064 136.962665 
L 223.946212 137.421289 
L 224.055881 136.160753 
L 224.186851 137.545173 
L 224.211082 136.763082 
L 225.100638 136.363126 
L 225.376724 137.48106 
L 225.430474 137.595559 
L 225.43441 136.017625 
L 225.85307 137.466489 
L 226.094942 136.034251 
L 226.105016 137.564149 
L 226.179304 136.269506 
L 226.858072 137.564256 
L 227.098154 136.092308 
L 227.296346 137.098551 
L 227.332405 137.186679 
L 227.913022 137.007158 
L 228.02306 137.267982 
L 228.25103 136.763149 
L 228.963708 136.093544 
L 229.333953 137.482075 
L 229.393094 136.160868 
L 229.422302 137.33889 
L 229.676263 136.453599 
L 229.795244 136.514967 
L 229.861539 137.472073 
L 230.00771 137.186686 
L 230.080867 136.363188 
L 230.316117 137.567235 
L 230.320084 136.036637 
L 230.36605 137.267977 
L 230.599731 136.057323 
L 230.602645 136.320969 
L 230.633379 137.567116 
L 230.673147 136.601377 
L 230.850809 136.149602 
L 231.263927 137.399159 
L 231.368959 137.338745 
L 231.428205 136.676645 
L 231.972259 137.508892 
L 232.273154 136.238597 
L 232.763159 136.91622 
L 232.912839 137.509615 
L 233.042991 137.39957 
L 233.343134 137.442135 
L 233.413025 136.215154 
L 233.55436 136.748446 
L 234.401324 136.092033 
L 234.503125 136.453654 
L 234.699001 136.404032 
L 235.038479 137.558702 
L 235.039735 136.055404 
L 235.158335 136.601435 
L 235.557926 137.118265 
L 235.654597 137.531121 
L 235.747639 136.063297 
L 235.903426 137.194763 
L 236.243322 136.149693 
L 236.247296 137.530876 
L 236.517817 136.287378 
L 236.871715 137.265761 
L 237.280071 136.105445 
L 237.388063 137.430412 
L 237.650117 136.748492 
L 237.918041 137.461527 
L 237.936997 136.141342 
L 238.431186 137.330684 
L 238.727904 136.215281 
L 239.068666 137.265763 
L 239.289561 136.484089 
L 239.401086 136.53761 
L 239.468044 137.459157 
L 239.668859 136.404072 
L 239.919405 137.540761 
L 239.920475 136.064155 
L 240.105871 136.194119 
L 240.219333 137.540761 
L 240.224317 136.612923 
L 240.290384 136.806696 
L 240.313751 137.330856 
L 240.344304 136.082197 
L 240.932833 136.676211 
L 241.388336 137.491316 
L 241.518253 137.389358 
L 241.726483 136.287421 
L 242.139853 137.490338 
L 242.264784 137.387454 
L 242.556555 136.098572 
L 242.799894 136.258223 
L 242.930263 136.739091 
L 243.332282 136.14227 
L 243.972913 137.130763 
L 244.115196 136.484125 
L 244.211849 136.806727 
L 244.299179 136.439088 
L 244.331369 136.558469 
L 244.650232 137.540848 
L 244.650232 136.07288 
L 244.730733 136.612961 
L 245.108172 136.131182 
L 245.231703 137.514958 
L 245.253121 136.080862 
L 245.48884 136.194812 
L 245.811058 137.514958 
L 245.965445 136.109867 
L 246.009123 136.328154 
L 246.104749 136.678567 
L 246.658419 137.130767 
L 246.914072 137.060196 
L 246.978159 137.199102 
L 247.036405 136.172101 
L 247.074494 136.739122 
L 247.20755 137.457988 
L 247.318292 136.852638 
L 247.696075 137.323874 
L 247.741787 136.989092 
L 248.081995 137.45804 
L 248.092199 136.258231 
L 249.00781 136.558499 
L 249.132803 136.919321 
L 249.259832 136.439113 
L 249.349523 137.32381 
L 249.370404 136.072969 
L 249.40685 136.229859 
L 249.526838 137.532099 
L 249.555862 136.088376 
L 249.562695 136.790559 
L 249.720505 136.400155 
L 249.782759 136.625375 
L 249.809176 137.532099 
L 250.239179 137.378228 
L 250.365813 136.134319 
L 250.450097 136.678596 
L 250.797913 136.102301 
L 250.933695 137.48221 
L 251.198348 136.32817 
L 251.603233 137.48221 
L 252.208642 137.074138 
L 252.21062 136.29527 
L 252.455769 137.010247 
L 252.486 136.174655 
L 252.517424 137.138107 
L 253.095029 137.426217 
L 253.25606 136.947645 
L 253.383824 137.201155 
L 253.762101 136.081201 
L 253.931209 136.579081 
L 254.038113 136.143287 
L 254.102975 137.425289 
L 254.107073 136.073052 
L 254.262164 137.540667 
L 254.296994 136.109077 
L 254.307795 136.625399 
L 254.601586 136.887599 
L 254.765454 136.229861 
L 254.795633 136.40017 
L 254.810528 137.514903 
L 254.814079 137.262447 
L 255.036979 137.074141 
L 255.067175 137.138108 
L 255.357117 137.514903 
L 255.514067 136.364569 
L 255.644127 137.201155 
L 256.301759 136.199928 
L 256.631636 137.45899 
L 256.768597 137.262445 
L 256.768666 137.321829 
L 257.249739 137.45899 
L 257.481694 136.295273 
L 258.197438 136.88761 
L 258.404856 136.083491 
L 258.432911 137.321829 
L 258.516165 136.538681 
L 258.615268 136.579099 
L 258.724821 136.261388 
L 258.853287 136.471189 
L 258.872266 136.779555 
L 258.914972 136.063474 
L 259.134926 137.540454 
L 259.15605 136.098725 
L 259.197187 137.379467 
L 259.288469 136.434633 
L 259.347271 136.639457 
L 259.40162 137.540454 
L 259.602851 136.14698 
L 259.977924 136.683756 
L 260.301807 136.831279 
L 260.464319 137.488789 
L 260.685437 136.364572 
L 261.084973 136.966876 
L 261.097416 137.488788 
L 261.173183 137.141505 
L 261.712735 136.200153 
L 261.75904 136.733035 
L 261.786388 136.114063 
L 261.902258 136.074457 
L 262.300143 137.43391 
L 262.904268 136.779568 
L 263.225484 137.433909 
L 263.457009 136.161741 
L 263.532508 136.600725 
L 263.598267 137.141505 
L 263.647282 136.861977 
L 263.80616 136.056103 
L 263.874246 137.558048 
L 263.888769 136.639471 
L 264.062515 136.261382 
L 264.291306 136.966879 
L 264.350413 136.434636 
L 264.369853 137.530797 
L 264.407189 137.201714 
L 264.886835 137.530682 
L 265.03051 136.399765 
L 265.115877 136.69189 
L 265.517605 136.223085 
L 265.554153 136.912758 
L 265.687836 136.815257 
L 265.73017 137.262504 
L 265.949609 137.323992 
L 265.983217 136.733048 
L 266.11731 137.470784 
L 266.702968 137.470782 
L 266.839188 136.073986 
L 266.894636 136.329419 
L 267.546523 137.323991 
L 267.546787 136.11163 
L 268.073505 136.291613 
L 268.213385 136.773112 
L 268.223344 136.600734 
L 268.274906 136.039255 
L 268.448828 136.502723 
L 268.526165 137.386153 
L 268.743563 137.566375 
L 268.859269 137.029977 
L 268.909817 136.16156 
L 268.9169 136.655923 
L 268.973235 137.566372 
L 269.083969 136.978033 
L 269.139733 137.084525 
L 269.490931 136.039119 
L 269.570194 136.815265 
L 269.811876 136.929022 
L 269.849492 136.067647 
L 269.852985 137.386148 
L 269.923498 137.141547 
L 269.979877 137.509227 
L 270.18555 136.399759 
L 270.603931 137.509222 
L 270.825412 136.114932 
L 270.90912 136.223072 
L 271.037049 136.883387 
L 271.094002 136.363931 
L 271.204009 137.201188 
L 271.204089 136.735814 
L 271.710325 137.084525 
L 271.745109 137.449238 
L 272.152572 136.978034 
L 272.234783 137.141547 
L 272.291261 136.77312 
L 272.558602 136.176432 
L 272.619984 137.449233 
L 272.749702 136.841592 
L 272.952178 136.566605 
L 272.969032 137.263847 
L 273.089961 136.023013 
L 273.10781 136.535817 
L 273.115645 136.929024 
L 273.135042 136.624594 
L 273.252427 137.201188 
L 273.391495 136.291598 
L 273.473055 136.65593 
L 273.486455 137.593961 
L 273.816582 137.563676 
L 273.911153 136.469392 
L 274.305355 137.562645 
L 274.556769 136.436619 
L 274.564544 136.88339 
L 274.637824 136.703364 
L 274.706008 136.036839 
L 274.754779 137.263847 
L 274.774688 136.247672 
L 274.936577 136.804032 
L 275.185092 136.065794 
L 275.206988 137.330059 
L 275.452208 137.494426 
L 275.461577 136.735821 
L 276.008826 137.494272 
L 276.299096 136.114986 
L 276.327611 136.363915 
L 276.488181 136.841596 
L 276.687242 135.991436 
L 276.728937 137.330057 
L 277.231707 136.981735 
L 277.258351 137.030048 
L 277.404134 136.012073 
L 277.448402 136.324163 
L 277.687799 136.937038 
L 277.742776 136.59707 
L 277.767532 137.082091 
L 277.831946 136.624596 
L 277.90127 137.400242 
L 277.993074 136.176411 
L 278.046148 136.535812 
L 278.336686 137.609554 
L 278.360627 136.054415 
L 278.437932 136.506817 
L 278.623198 136.896039 
L 278.755428 137.138255 
L 278.872354 136.804037 
L 279.05901 136.703369 
L 279.163805 137.400235 
L 279.398359 137.546834 
L 279.820763 136.117623 
L 279.945501 137.54581 
L 279.959729 137.030048 
L 280.030972 136.858935 
L 280.147246 136.247646 
L 280.214754 137.199247 
L 280.224063 137.082091 
L 280.56088 136.40199 
L 280.665613 136.742506 
L 280.96265 137.138256 
L 281.075855 137.479841 
L 281.12397 135.992459 
L 281.700229 136.770976 
L 281.718882 136.193705 
L 282.066281 137.477154 
L 282.135076 137.266075 
L 282.170139 137.199247 
L 282.543167 136.013416 
L 282.577318 137.613314 
L 282.747853 136.324135 
L 282.983281 137.653184 
L 283.060169 136.675502 
L 283.143193 137.604679 
L 283.476999 136.506803 
L 283.631761 136.858937 
L 283.660157 137.509832 
L 283.837972 137.266074 
L 283.937917 135.940259 
L 284.220015 136.797298 
L 284.282858 135.947375 
L 284.50287 137.34002 
L 285.290735 136.117594 
L 285.509961 136.978188 
L 285.699501 136.825959 
L 285.715929 136.937118 
L 285.766951 137.023758 
L 285.838409 135.976281 
L 285.954653 137.340014 
L 286.383426 136.900271 
L 286.485117 137.074398 
L 286.845842 136.36273 
L 286.972656 136.773067 
L 287.136225 136.193669 
L 287.275997 137.680483 
L 287.281763 136.041781 
L 287.356083 136.631381 
L 287.440998 136.651728 
L 287.507865 136.867572 
L 287.597615 137.575262 
L 287.644993 136.572272 
L 287.659539 137.131043 
L 287.7703 137.673988 
L 288.018161 136.548973 
L 288.068602 136.698839 
L 288.147948 137.645149 
L 288.203624 136.7973 
L 288.505979 137.422881 
L 288.727773 135.94794 
L 288.793751 135.916522 
L 288.836096 137.074401 
L 288.88315 136.125141 
L 289.081658 136.83906 
L 289.217723 136.477773 
L 289.28232 137.195052 
L 289.420047 136.276981 
L 289.770333 137.131047 
L 290.014994 137.59115 
L 290.041453 136.446681 
L 290.141322 136.753267 
L 290.818765 137.646893 
L 290.921224 136.218367 
L 290.977347 136.867572 
L 291.128149 136.773069 
L 291.151299 137.195054 
L 291.342785 137.268209 
L 291.461497 137.515875 
L 291.48156 135.980653 
L 291.655996 137.517589 
L 292.12786 136.362686 
L 292.177296 136.631371 
L 292.343122 136.682999 
L 292.632725 137.736821 
L 292.711182 135.876165 
L 292.748327 136.83906 
L 292.785896 136.041779 
L 292.970056 137.268208 
L 293.047243 136.54895 
L 293.386122 136.315493 
L 293.533494 136.794933 
L 293.633363 136.525699 
L 293.827954 137.352617 
L 293.903143 136.967191 
L 294.298276 136.896203 
L 294.337414 136.12506 
L 294.371653 137.010623 
L 294.455382 136.753268 
L 294.840616 137.750706 
L 294.947042 136.814823 
L 295.005223 137.623784 
L 295.009488 135.937633 
L 295.215136 137.352608 
L 295.242816 136.446639 
L 295.281179 137.060604 
L 295.874938 137.613691 
L 296.252022 136.036436 
L 296.320539 136.218286 
L 296.456589 136.843467 
L 296.626012 137.118687 
L 296.805551 136.929268 
L 296.853889 137.010628 
L 296.873546 137.449774 
L 296.969392 136.670556 
L 297.050438 136.682992 
L 297.245154 136.613617 
L 297.43804 136.896204 
L 297.499668 135.815511 
L 297.496294 137.777335 
L 297.534417 137.060612 
L 297.601391 136.597591 
L 297.649548 136.726457 
L 297.830963 137.769214 
L 297.873073 137.449753 
L 297.992284 136.14277 
L 298.359267 137.720683 
L 298.397877 137.187029 
L 298.503992 136.867654 
L 298.647818 137.118696 
L 298.722972 136.315425 
L 298.729663 137.718584 
L 298.746924 136.525662 
L 299.533896 136.500837 
L 299.629328 136.768265 
L 299.996929 136.843467 
L 300.158328 136.256022 
L 300.284061 137.565989 
L 300.324819 136.808079 
L 300.572523 136.779423 
L 300.580762 135.934011 
L 300.586195 137.26844 
L 301.07897 137.565154 
L 301.730852 136.036133 
L 301.907993 136.823604 
L 301.997953 135.793895 
L 302.143877 137.268441 
L 302.160664 136.913167 
L 302.241378 136.726452 
L 302.250603 135.758724 
L 302.323673 137.854609 
L 302.35078 136.88372 
L 302.39788 136.948136 
L 302.732121 136.367805 
L 302.788712 137.814613 
L 302.873142 136.796909 
L 302.967104 136.859183 
L 303.007798 137.814272 
L 303.061027 136.989636 
L 303.178382 137.366338 
L 303.181584 136.582297 
L 303.25196 136.761384 
L 303.296127 135.823552 
L 303.428047 136.142614 
L 303.795011 137.694104 
L 303.838984 135.916218 
L 304.006023 136.839223 
L 304.14622 137.03922 
L 304.226199 136.808079 
L 304.487228 137.691757 
L 304.506226 137.366325 
L 304.720786 136.50078 
L 305.000176 136.948144 
L 305.254423 136.042204 
L 305.444993 136.989648 
L 305.461533 136.823684 
L 305.541033 136.25592 
L 305.647204 137.099154 
L 305.696772 136.472523 
L 306.160165 137.485072 
L 306.193129 136.859184 
L 306.308807 137.039235 
L 306.660217 136.719014 
L 306.846459 136.66099 
L 306.938732 136.796909 
L 307.077988 135.751641 
L 307.141154 136.178592 
L 307.179751 137.914638 
L 307.26139 137.485037 
L 307.305216 135.673757 
L 307.334235 137.909551 
L 307.425685 136.839224 
L 307.708011 137.823376 
L 307.727795 136.761382 
L 308.052442 136.367707 
L 308.110832 137.835204 
L 308.28337 136.582251 
L 308.762873 135.808013 
L 309.27161 137.172619 
L 309.331764 135.914004 
L 309.42787 136.3132 
L 309.515957 137.626996 
L 309.587458 136.805693 
L 309.860774 137.263812 
L 310.031269 136.790095 
L 310.394895 137.626925 
L 310.718793 136.042066 
L 310.914711 136.842009 
L 310.936417 135.636003 
L 310.982668 136.919989 
L 311.105495 136.812511 
L 311.35436 137.26382 
L 311.402672 136.715261 
L 311.554364 136.760151 
L 311.555285 135.76018 
L 311.825299 136.959225 
L 311.83488 136.75869 
L 311.935055 138.020533 
L 312.128014 135.589957 
L 312.177278 137.949274 
L 312.235718 136.803231 
L 312.331629 137.952919 
L 312.550827 137.378263 
L 312.561916 136.17844 
L 312.690355 135.908084 
L 312.802718 136.789472 
L 312.915026 136.815063 
L 313.063973 137.78565 
L 313.072164 137.007991 
L 313.441974 136.862491 
L 313.486778 136.920005 
L 313.488311 136.78762 
L 313.533105 136.805693 
L 313.779074 137.790231 
L 313.824054 137.378252 
L 314.028322 136.842013 
L 314.11769 136.959247 
L 314.315274 136.075319 
L 314.51605 136.808236 
L 314.716651 137.069369 
L 314.794459 136.313052 
L 315.017066 136.826287 
L 315.14565 136.550118 
L 315.150526 137.00802 
L 315.256811 136.805125 
L 315.612161 137.522301 
L 316.098016 135.64034 
L 316.270291 136.76014 
L 316.330303 136.242002 
L 316.336667 136.803231 
L 316.507219 136.805769 
L 316.579886 137.069403 
L 316.609372 137.942294 
L 316.668265 137.522251 
L 316.775361 136.718549 
L 316.786198 138.104791 
L 316.890383 138.09894 
L 316.928325 137.956928 
L 316.972447 135.505021 
L 317.019154 135.758673 
L 317.293514 136.789469 
L 317.40515 136.438419 
L 317.826166 136.648882 
L 318.165267 135.907883 
L 318.179086 136.808236 
L 318.398452 137.147814 
L 318.548579 136.64599 
L 318.636211 136.811384 
L 318.695576 135.416141 
L 318.725308 136.396189 
L 318.919263 137.702699 
L 318.987904 136.815848 
L 319.031641 136.853433 
L 319.162803 137.249403 
L 319.382321 135.537463 
L 319.560329 136.804527 
L 319.647581 136.881294 
L 319.767347 136.075085 
L 319.873328 137.702578 
L 320.271262 135.72361 
L 320.33638 136.805769 
L 320.381353 136.550012 
L 320.525751 136.797701 
L 320.597173 137.24943 
L 320.656078 136.917201 
L 321.160929 136.806402 
L 321.408386 138.149154 
L 321.542205 135.367294 
L 321.54686 138.24821 
L 321.647942 135.934068 
L 321.779003 136.71851 
L 321.83065 138.107304 
L 321.879344 136.795248 
L 321.942664 137.382592 
L 321.995022 136.815856 
L 321.995126 137.935226 
L 322.059789 136.881322 
L 322.293864 136.726061 
L 322.358549 136.822063 
L 322.755428 136.804532 
L 322.863016 136.917239 
L 322.864489 136.807659 
L 323.016501 136.811383 
L 323.260226 137.920791 
L 323.421393 136.14675 
L 323.614474 136.797139 
L 323.70934 136.645909 
L 323.828826 137.024899 
L 323.902188 136.797703 
L 324.052073 136.963802 
L 324.076407 136.395989 
L 324.607667 136.645407 
L 324.714421 136.824511 
L 324.718754 135.414811 
L 324.952799 135.534418 
L 324.96075 138.044413 
L 325.077028 137.558102 
L 325.552748 136.341902 
L 325.621216 137.024961 
L 325.751683 136.813904 
L 325.806085 135.722156 
L 325.809322 136.821987 
L 325.880625 136.806391 
L 325.977797 137.106539 
L 326.051955 136.775953 
L 326.0915 137.558044 
L 326.205639 135.185238 
L 326.365502 136.791293 
L 326.398619 138.345869 
L 326.407897 136.837311 
L 326.586047 138.361268 
L 326.778387 136.531263 
L 326.863025 136.822059 
L 327.125496 135.934914 
L 327.195198 136.791443 
L 327.535873 136.773778 
L 327.563038 137.106611 
L 327.599155 136.807706 
L 327.693319 135.224697 
L 328.068478 136.738605 
L 328.124822 135.465361 
L 328.152664 136.839512 
L 328.278888 136.771539 
L 328.384025 136.83019 
L 328.489117 137.217361 
L 328.508543 137.791702 
L 328.859304 136.146386 
L 328.882484 138.227606 
L 328.985162 136.824511 
L 329.180333 135.738257 
L 329.370457 137.790393 
L 329.399626 136.77354 
L 329.596851 136.803379 
L 329.829703 136.645287 
L 329.868636 137.217433 
L 329.911852 136.791463 
L 330.626822 136.773785 
L 330.628247 136.82197 
L 330.684738 136.015674 
L 330.710128 136.830234 
L 330.892901 136.779806 
L 330.976232 135.068673 
L 331.161208 138.566409 
L 331.33261 138.36346 
L 331.361898 136.791253 
L 331.548736 136.771543 
L 331.632518 138.368428 
L 331.673216 136.860787 
L 332.217567 136.813975 
L 332.468756 138.100906 
L 332.566022 136.270833 
L 332.841889 136.773542 
L 332.979001 136.959611 
L 332.979345 138.094878 
L 333.006979 136.902375 
L 333.383668 136.509761 
L 333.424413 135.206473 
L 333.677427 135.460087 
L 334.183997 136.848217 
L 334.500485 136.779806 
L 334.561116 137.582837 
L 334.705454 136.959723 
L 334.728667 135.735398 
L 334.804787 136.485552 
L 334.968575 136.805339 
L 335.175216 138.216755 
L 335.181842 136.828923 
L 335.234502 137.040106 
L 335.462091 136.735047 
L 335.491189 136.857449 
L 335.529238 137.582804 
L 335.819912 134.840221 
L 335.992887 138.715533 
L 336.013458 138.71159 
L 336.238681 135.097411 
L 336.242662 136.749683 
L 336.76123 137.040249 
L 336.861852 134.825785 
L 336.909876 135.456742 
L 336.927911 136.812917 
L 337.391481 136.656692 
L 337.837016 137.155399 
L 337.989966 136.270321 
L 338.144919 137.881252 
L 338.155191 135.83615 
L 338.327686 136.753805 
L 338.477576 136.848217 
L 338.489189 136.786381 
L 338.679319 136.749729 
L 338.869077 137.882099 
L 338.883659 136.805338 
L 338.94382 138.624189 
L 339.329324 136.736553 
L 339.429876 136.764572 
L 339.764112 136.177128 
L 339.950455 136.768711 
L 340.037689 138.566737 
L 340.180961 136.485164 
L 340.241095 136.883108 
L 340.315488 136.787709 
L 340.355557 136.915349 
L 340.37559 136.91268 
L 340.401384 136.743142 
L 340.435678 136.848282 
L 340.541553 136.786477 
L 340.624355 136.883239 
L 340.769382 134.576702 
L 340.774262 139.022912 
L 340.77591 137.323668 
L 340.947085 136.871008 
L 341.589957 136.824647 
L 341.745032 136.458516 
L 341.753692 135.067428 
L 341.830448 136.753806 
L 341.879294 134.705541 
L 341.908744 137.323838 
L 341.924289 136.78798 
L 342.163104 136.865433 
L 342.444207 135.456952 
L 342.688458 138.307906 
L 342.713488 136.656422 
L 342.765633 138.298897 
L 343.610575 136.768711 
L 343.65654 135.832872 
L 343.664219 136.876188 
L 343.822379 136.684748 
L 343.828065 136.865624 
L 343.842142 136.679704 
L 343.97736 134.621773 
L 344.152277 139.160533 
L 344.220057 136.677453 
L 344.24114 136.811659 
L 344.517239 136.936189 
L 344.625488 136.848281 
L 344.733323 135.046524 
L 344.979892 137.572894 
L 345.215939 136.174987 
L 345.260585 136.915327 
L 345.550928 136.955804 
L 345.577551 136.787533 
L 345.59019 136.932959 
L 345.663166 134.220599 
L 345.671018 139.343295 
L 345.766675 135.5686 
L 345.989461 136.936455 
L 346.011742 136.90004 
L 346.042614 136.681972 
L 346.485674 136.907647 
L 346.562572 136.679732 
L 346.566196 139.16287 
L 346.759397 136.677496 
L 346.891868 136.839706 
L 347.118913 136.048582 
L 347.204184 137.044878 
L 347.231973 136.692797 
L 347.304375 136.738392 
L 347.309986 136.678113 
L 347.312687 138.857353 
L 347.479822 136.690419 
L 347.620334 138.851201 
L 347.978808 136.876188 
L 348.095485 136.704161 
L 348.194005 136.811657 
L 348.212109 136.682067 
L 348.367528 137.944004 
L 348.48536 137.045239 
L 348.762308 136.885073 
L 348.853675 136.432048 
L 348.942138 134.672628 
L 349.04746 136.761891 
L 349.462156 136.690559 
L 349.853977 136.94811 
L 349.866411 136.872006 
L 349.964271 136.990856 
L 349.983574 136.971164 
L 350.108507 133.971218 
L 350.213785 137.215794 
L 350.223293 136.932956 
L 350.286349 135.046324 
L 350.437915 133.879715 
L 350.442198 139.708129 
L 350.534312 136.955774 
L 350.954848 136.712578 
L 350.993309 137.007029 
L 351.055205 136.705983 
L 351.127878 136.789888 
L 351.247577 135.56174 
L 351.403808 139.604215 
L 351.607168 139.505484 
L 351.637882 136.908341 
L 351.701654 138.510056 
L 352.112813 136.62655 
L 352.201077 138.504767 
L 352.278041 134.384279 
L 352.305536 136.614234 
L 352.579981 136.045054 
L 352.755988 136.761888 
L 352.768287 136.656873 
L 352.844681 136.602853 
L 352.985115 136.732796 
L 353.058569 137.021265 
L 353.153954 136.908396 
L 353.385347 136.904776 
L 353.48051 135.169493 
L 353.535154 137.491209 
L 353.613935 136.67635 
L 353.728155 136.591794 
L 353.823302 136.778669 
L 354.081197 136.872005 
L 354.292799 136.430978 
L 354.442099 137.491704 
L 354.59981 135.870705 
L 354.649258 137.015546 
L 354.712908 136.971159 
L 354.800954 136.69959 
L 354.865866 136.99084 
L 354.952566 136.580644 
L 354.979554 136.789884 
L 354.999794 136.944579 
L 355.145846 137.042828 
L 355.183709 136.985812 
L 355.224092 140.143075 
L 355.245937 136.640528 
L 355.301095 140.119227 
L 355.333052 133.981211 
L 355.59026 136.944804 
L 355.645081 139.312137 
L 355.735072 133.268439 
L 356.037489 139.317223 
L 356.117421 136.413998 
L 356.136285 137.030682 
L 356.513282 136.569353 
L 356.6678 137.072787 
L 357.050753 136.580774 
L 357.180501 137.94662 
L 357.525468 136.822387 
L 357.759883 134.489146 
L 357.885208 137.946852 
L 357.992683 136.785384 
L 358.179961 136.759256 
L 358.244066 137.021182 
L 358.261502 136.699588 
L 358.429892 136.569549 
L 358.73411 136.904409 
L 358.953048 135.154548 
L 359.197981 137.110139 
L 359.309867 136.900206 
L 359.42328 140.157442 
L 359.46689 137.015538 
L 359.563785 140.225029 
L 359.573308 137.067475 
L 359.591934 137.031858 
L 359.636491 133.189786 
L 359.663874 137.002453 
L 359.823241 136.98581 
L 359.934872 136.727108 
L 359.947867 140.900488 
L 360.081154 135.865443 
L 360.139412 136.558844 
L 360.192366 137.019272 
L 360.359571 136.796149 
L 360.384757 136.859251 
L 360.448417 132.616239 
L 360.489548 136.559798 
L 360.566334 137.106847 
L 360.619464 136.55015 
L 360.622004 136.99294 
L 360.71883 137.003557 
L 360.844573 136.53903 
L 360.981769 138.700075 
L 361.188485 136.948728 
L 361.23879 134.476753 
L 361.431629 137.030488 
L 361.442274 136.625596 
L 361.580858 136.412101 
L 361.626204 138.699284 
L 361.785441 137.072742 
L 361.933214 136.75925 
L 362.173178 136.550631 
L 362.202138 135.615947 
L 362.428586 136.652636 
L 362.557591 136.490678 
L 362.560113 137.158519 
L 362.652222 136.9449 
L 362.708733 137.157396 
L 362.856014 136.837682 
L 363.042166 137.263996 
L 363.15034 136.548795 
L 363.213296 136.559828 
L 363.398307 136.539078 
L 363.41919 136.784342 
L 363.52606 136.425237 
L 363.547735 136.900205 
L 363.909403 136.459598 
L 363.914678 137.265627 
L 363.915933 136.516604 
L 364.159738 141.470584 
L 364.249527 136.796142 
L 364.324022 137.031855 
L 364.405441 140.078475 
L 364.435102 137.110041 
L 364.471701 137.067465 
L 364.524086 136.549579 
L 364.654625 136.625598 
L 364.742033 137.128935 
L 364.750619 141.159144 
L 364.764321 136.490787 
L 364.778592 137.04114 
L 365.184171 136.926799 
L 365.286818 131.984335 
L 365.323228 133.369226 
L 365.419943 139.977398 
L 365.58542 136.421059 
L 365.61263 137.106824 
L 365.794807 136.652633 
L 365.940464 136.459764 
L 365.988585 136.56459 
L 366.211869 137.186839 
L 366.284598 136.992979 
L 366.694548 137.758319 
L 366.71262 134.468399 
L 366.875943 136.837677 
L 367.163328 137.207235 
L 367.184183 136.565919 
L 367.259141 136.6838 
L 367.344501 136.760761 
L 367.367467 131.493765 
L 367.406204 137.760532 
L 367.440253 136.421317 
L 367.482586 140.778755 
L 367.700461 135.610232 
L 367.734742 137.158472 
L 368.044517 137.157158 
L 368.656628 137.271936 
L 368.763539 136.513114 
L 368.764772 136.933154 
L 368.9089 136.539926 
L 368.916891 133.2141 
L 369.009781 136.421307 
L 369.182636 137.142883 
L 369.20063 137.093688 
L 369.258547 136.372708 
L 369.380501 136.567752 
L 369.452417 136.455192 
L 369.454878 137.348016 
L 369.576771 142.850422 
L 369.607385 130.762165 
L 369.616622 136.80691 
L 369.714066 137.128923 
L 369.803853 136.88352 
L 369.88599 136.309902 
L 369.925572 135.243173 
L 370.14208 137.202638 
L 370.195875 137.044168 
L 370.284283 136.419618 
L 370.529573 138.739853 
L 370.635917 136.925112 
L 370.743309 136.992979 
L 370.816106 137.233532 
L 371.064473 136.515791 
L 371.139181 136.76075 
L 371.161035 138.740967 
L 371.389258 136.310584 
L 371.392728 142.015252 
L 371.437682 136.375839 
L 371.570193 136.513136 
L 371.588036 136.485586 
L 371.92928 136.455247 
L 372.051314 137.407839 
L 372.069127 137.288097 
L 372.496306 136.229798 
L 372.577424 137.206533 
L 372.592771 136.419702 
L 372.731077 136.671421 
L 372.908735 136.319949 
L 373.02403 136.933151 
L 373.331229 131.73054 
L 373.396604 136.76838 
L 373.452216 136.598122 
L 373.542049 136.806899 
L 373.576276 136.375966 
L 373.825448 136.230981 
L 373.882188 137.2719 
L 373.935284 137.093686 
L 374.078035 137.142878 
L 374.28634 137.523622 
L 374.339361 137.210916 
L 374.419459 143.498619 
L 374.456697 128.648712 
L 374.540281 143.407194 
L 374.692588 136.246517 
L 374.754235 137.044168 
L 374.813047 140.65509 
L 374.826021 137.347763 
L 374.876529 136.320145 
L 374.944418 137.423693 
L 375.067837 136.912983 
L 375.112401 140.688564 
L 375.181065 137.20263 
L 375.402568 136.127493 
L 375.447665 135.228228 
L 375.760517 137.292111 
L 375.83085 137.041199 
L 376.243592 136.857854 
L 376.296256 136.671407 
L 376.362612 137.639874 
L 376.559432 136.129661 
L 376.563033 136.508679 
L 376.717586 130.962357 
L 376.783483 136.147439 
L 376.929876 137.137516 
L 377.137338 136.440553 
L 377.233463 137.288087 
L 377.374598 137.407771 
L 377.472085 136.405592 
L 377.667978 134.686343 
L 377.990816 137.202517 
L 378.122986 136.364801 
L 378.125374 137.417466 
L 378.230014 136.971372 
L 378.409344 136.147943 
L 378.595959 135.989638 
L 378.740011 137.656209 
L 378.792226 137.214902 
L 378.966208 136.573399 
L 379.025766 137.098363 
L 379.173375 136.010873 
L 379.222785 146.813771 
L 379.231846 127.168949 
L 379.235555 136.912975 
L 379.306244 137.210913 
L 379.43736 143.064658 
L 379.582891 135.993994 
L 379.604173 143.017863 
L 379.772322 137.09838 
L 379.864024 136.440577 
L 379.982765 137.769239 
L 380.038558 136.405632 
L 380.208006 136.614657 
L 380.222955 138.089933 
L 380.301943 137.041198 
L 380.363841 136.250503 
L 380.371191 136.766453 
L 380.629279 136.01161 
L 380.734478 138.103266 
L 380.860205 137.292111 
L 381.327613 136.314723 
L 381.411269 137.627921 
L 381.549229 136.883547 
L 381.550409 138.069446 
L 381.584889 137.40166 
L 381.757228 136.661935 
L 381.764543 137.639714 
L 381.851055 135.817978 
L 381.946686 136.166098 
L 381.953532 130.901478 
L 382.054116 135.826683 
L 382.300499 136.573387 
L 382.438046 136.25064 
L 382.509147 136.971367 
L 382.855002 136.82251 
L 382.874103 135.832636 
L 383.136881 135.819332 
L 383.153636 134.764604 
L 383.420676 138.092301 
L 383.609074 136.715906 
L 383.683649 136.614639 
L 383.684821 137.214901 
L 383.831573 136.052131 
L 383.854774 136.166308 
L 383.93772 137.285965 
L 383.971924 137.157088 
L 384.057442 147.632249 
L 384.098864 137.65625 
L 384.165753 147.567115 
L 384.23675 136.818926 
L 384.339247 137.09838 
L 384.368491 137.583256 
L 384.405151 122.810225 
L 384.499035 140.550479 
L 384.752383 137.290157 
L 384.800045 140.563143 
L 384.889274 135.522995 
L 385.076087 133.756017 
L 385.313305 137.383245 
L 385.318586 129.961392 
L 385.414268 136.401644 
L 385.473708 137.765331 
L 385.573453 136.05246 
L 385.585568 136.36485 
L 385.587897 138.011378 
L 385.626805 136.883532 
L 385.726401 135.655574 
L 385.757934 136.776672 
L 385.996988 136.47074 
L 386.000359 135.536254 
L 386.05515 137.031978 
L 386.064922 136.322588 
L 386.370157 135.642009 
L 386.450484 137.787641 
L 386.722522 137.628002 
L 386.850856 136.271151 
L 387.012757 138.068897 
L 387.352286 136.71588 
L 387.569475 138.957307 
L 387.588919 135.893298 
L 387.603267 137.536083 
L 387.940976 136.205843 
L 388.04568 137.901946 
L 388.063145 135.069037 
L 388.305784 137.216605 
L 388.402053 137.281761 
L 388.418903 137.217187 
L 388.465304 135.66766 
L 388.507984 136.436053 
L 388.558513 136.322628 
L 388.628177 137.157088 
L 388.678686 136.948418 
L 388.829634 156.34191 
L 388.899764 137.285967 
L 388.945388 139.029919 
L 389.008922 144.691371 
L 389.162217 117.453292 
L 389.163971 136.598681 
L 389.176101 144.655569 
L 389.185614 136.271211 
L 389.300704 137.366022 
L 389.332004 136.120596 
L 389.351101 137.155709 
L 389.62687 136.776645 
L 389.628018 137.583328 
L 389.864027 137.093741 
L 389.885043 135.667896 
L 389.998152 136.508068 
L 390.115462 136.205932 
L 390.249332 135.483278 
L 390.404753 137.383259 
L 390.470562 134.876039 
L 390.61862 138.794546 
L 390.666892 135.314241 
L 390.786996 137.794417 
L 390.819287 136.654898 
L 390.874485 127.230632 
L 390.920714 136.915775 
L 390.977938 138.011686 
L 391.019821 136.006797 
L 391.106767 137.49291 
L 391.190261 137.083888 
L 391.24884 135.34392 
L 391.345292 136.120727 
L 391.371336 134.390327 
L 391.971459 137.794335 
L 392.002266 137.015736 
L 392.186523 136.843668 
L 392.244403 134.424951 
L 392.429221 135.345808 
L 392.584303 138.514013 
L 392.68879 136.598651 
L 392.767074 136.719409 
L 392.807345 137.536135 
L 392.871498 136.006993 
L 392.999533 135.853011 
L 393.075743 138.954019 
L 393.102512 137.278804 
L 393.158193 137.217187 
L 393.292015 137.281763 
L 393.392626 137.902183 
L 393.537014 137.352015 
L 393.554547 157.036261 
L 393.57015 137.217175 
L 393.634323 155.394922 
L 393.785448 136.329738 
L 393.804269 137.699858 
L 394.052488 136.401236 
L 394.063596 140.737941 
L 394.102108 136.288963 
L 394.112928 106.441688 
L 394.426588 139.031192 
L 394.475017 136.654863 
L 394.635408 136.438028 
L 394.738458 134.730517 
L 394.836852 138.26344 
L 394.869849 137.456578 
L 394.91541 132.652869 
L 394.935832 137.151284 
L 395.204467 135.633309 
L 395.232875 133.608826 
L 395.265769 141.615524 
L 395.301177 133.16844 
L 395.588795 137.083883 
L 395.777997 134.786658 
L 396.070242 138.79584 
L 396.086676 137.794577 
L 396.252083 137.492944 
L 396.46244 140.725542 
L 396.514756 136.329751 
L 396.548697 136.71937 
L 396.743304 135.630179 
L 396.827361 133.981674 
L 396.83919 136.099272 
L 397.076682 136.40123 
L 397.089471 137.621285 
L 397.142197 136.240186 
L 397.187734 137.067634 
L 397.370042 138.058044 
L 397.517292 136.871611 
L 397.536344 135.329645 
L 397.802181 136.438012 
L 397.900219 136.178913 
L 397.946763 139.859382 
L 398.028426 137.277734 
L 398.132208 136.991129 
L 398.159042 136.583462 
L 398.231259 137.217175 
L 398.29292 134.157752 
L 398.33659 191.333898 
L 398.338551 135.994994 
L 398.461728 136.329159 
L 398.4945 137.352019 
L 398.556996 92.024399 
L 398.626933 137.014067 
L 398.821567 136.479114 
L 398.883146 137.428153 
L 398.892904 135.332269 
L 398.951852 136.099349 
L 399.052873 137.699958 
L 399.429246 137.151282 
L 399.661228 140.827572 
L 399.700751 126.965627 
L 399.719294 139.200319 
L 399.914143 136.649984 
L 399.953498 137.456598 
L 400.0553 129.651482 
L 400.215295 138.263927 
L 400.29415 135.995101 
L 400.306807 136.956208 
L 400.328981 129.335287 
L 400.412397 132.460089 
L 400.786585 141.624889 
L 400.869361 134.895462 
L 401.063709 132.517822 
L 401.453824 134.874189 
L 401.502665 137.067624 
L 401.534965 136.871575 
L 401.729797 136.583416 
L 401.774673 138.721205 
L 401.923406 135.853994 
L 401.952127 136.726966 
L 401.95949 140.732991 
L 402.065 136.296929 
L 402.227281 136.259925 
L 402.265301 153.772445 
L 402.272281 131.908818 
L 402.283561 137.621346 
L 402.4259 159.86822 
L 402.446467 129.763261 
L 402.617076 136.36547 
L 402.623945 135.667191 
L 402.642452 159.74022 
L 402.648963 42.800016 
L 402.715826 137.337261 
L 402.769818 137.277734 
L 402.899581 137.342262 
L 403.089206 147.514721 
L 403.169291 137.278747 
L 403.250709 137.768685 
L 403.329908 136.403483 
L 403.346071 157.687832 
L 403.426239 136.162659 
L 403.446977 133.377437 
L 403.514405 137.216572 
L 403.591227 131.140482 
L 403.61068 136.64993 
L 403.902622 137.428164 
L 403.979502 135.378392 
L 404.09493 143.53357 
L 404.107414 138.373613 
L 404.318602 135.652972 
L 404.331593 136.448117 
L 404.429811 137.510536 
L 404.434415 136.956178 
L 404.442571 136.094293 
L 404.493814 137.214853 
L 404.884342 136.259936 
L 405.127221 137.142922 
L 405.160246 139.201908 
L 405.186312 133.329362 
L 405.396142 141.343466 
L 405.465631 137.89549 
L 405.676907 136.002355 
L 405.704796 136.365454 
L 405.758414 134.105818 
L 405.770724 137.558606 
L 405.78817 135.063254 
L 406.165119 135.420354 
L 406.554943 136.403455 
L 406.583248 137.67155 
L 406.649112 136.094579 
L 406.678602 137.129019 
L 406.711468 138.119281 
L 406.822294 134.043313 
L 406.854431 136.908249 
L 406.96243 135.079016 
L 406.983629 140.057972 
L 407.180807 138.721973 
L 407.263701 135.888572 
L 407.317351 28.332902 
L 407.317351 371.45166 
L 407.583863 45.86369 
L 407.595204 137.043047 
L 407.622333 137.3958 
L 407.638176 137.337214 
L 407.713629 136.004136 
L 407.834953 137.278747 
L 408.058985 160.303166 
L 408.201068 136.813656 
L 408.433948 123.062416 
L 408.488854 137.768776 
L 408.514827 137.28165 
L 408.620824 147.608199 
L 408.849686 139.253079 
L 408.976854 129.131122 
L 408.997321 137.214852 
L 409.063644 135.888578 
L 409.107733 136.502138 
L 409.384725 135.750847 
L 409.474564 138.374001 
L 409.506067 137.510555 
L 409.580282 137.931568 
L 409.604659 143.553549 
L 409.670056 134.632209 
L 409.706238 137.007381 
L 410.083638 95.860584 
L 410.166718 137.59853 
L 410.245303 137.210864 
L 410.33927 131.754759 
L 410.418124 136.263068 
L 410.43383 136.231715 
L 410.541535 135.737384 
L 410.560689 372.43461 
L 410.560689 30.083012 
L 410.687178 136.293252 
L 410.715797 136.196117 
L 410.803676 136.56797 
L 410.884255 141.348817 
L 410.898865 136.908199 
L 410.931635 118.530448 
L 410.989515 138.721995 
L 410.990853 156.570516 
L 411.009704 137.129008 
L 411.296368 136.152564 
L 411.443574 135.119888 
L 411.699415 126.893124 
L 411.828831 146.965157 
L 412.165434 136.093794 
L 412.329141 137.391737 
L 412.381542 137.337215 
L 412.445054 140.059915 
L 412.465293 130.975815 
L 412.546257 133.293367 
L 412.706884 137.792445 
L 412.773751 136.647027 
L 412.816043 137.106998 
L 412.95847 142.947626 
L 413.113957 134.918373 
L 413.192157 136.412569 
L 413.309121 136.195802 
L 413.397747 138.357338 
L 413.57523 136.013467 
L 413.698865 136.293237 
L 413.725521 136.152327 
L 413.856451 137.007343 
L 413.874811 135.923871 
L 413.992893 137.545521 
L 414.055029 137.285805 
L 414.071844 135.225281 
L 414.280067 139.253881 
L 414.318505 132.874541 
L 414.368722 140.921799 
L 414.387641 136.325766 
L 414.460464 136.093848 
L 414.585899 136.473997 
L 414.858122 137.931678 
L 414.932761 134.20696 
L 415.013033 136.739468 
L 415.289138 135.526741 
L 415.294865 137.598557 
L 415.355697 136.364292 
L 415.923311 135.805984 
L 416.05307 139.766376 
L 416.083946 137.689742 
L 416.176556 137.202601 
L 416.202406 133.942668 
L 416.253711 136.551475 
L 416.352601 135.937613 
L 416.384726 138.722359 
L 416.600579 136.412505 
L 417.23275 137.442271 
L 417.236138 134.819732 
L 417.248133 137.395672 
L 417.439204 137.342124 
L 417.459618 135.805571 
L 417.516066 136.843783 
L 417.687201 137.453356 
L 417.935012 137.792504 
L 418.007343 139.049255 
L 418.119174 136.473911 
L 418.191465 136.646602 
L 418.272364 135.687812 
L 418.505557 134.582426 
L 418.568006 137.285807 
L 418.715735 136.200693 
L 418.753913 138.357515 
L 418.856765 136.173752 
L 418.995481 137.913962 
L 419.062133 137.545534 
L 419.090597 135.216914 
L 419.188127 136.143003 
L 419.239995 136.249422 
L 419.703865 137.615235 
L 419.917573 136.278796 
L 420.226806 138.576878 
L 420.276926 136.956628 
L 420.394468 136.759031 
L 420.474531 136.096188 
L 420.522819 137.202593 
L 420.579912 135.035068 
L 420.869643 136.317241 
L 421.01744 136.043583 
L 421.175831 135.489793 
L 421.382023 138.099694 
L 421.503548 135.908218 
L 421.532883 136.173754 
L 421.776192 136.224758 
L 421.942456 137.442191 
L 421.961987 136.646483 
L 421.993358 137.395673 
L 422.097356 135.885282 
L 422.171973 137.779104 
L 422.27806 137.186849 
L 422.312498 136.24939 
L 422.339702 137.488715 
L 422.370001 137.407648 
L 422.690273 135.353175 
L 422.706214 138.252367 
L 422.771074 136.094507 
L 422.857516 136.885905 
L 423.06156 137.509578 
L 423.12099 136.278753 
L 423.289282 137.073 
L 423.38498 136.04566 
L 423.558828 137.563393 
L 423.576573 135.686956 
L 423.619204 137.365703 
L 424.200697 136.317173 
L 424.263021 137.914009 
L 424.277053 136.75891 
L 424.824044 137.615251 
L 425.24957 135.586442 
L 425.439872 138.02296 
L 425.496629 135.960703 
L 425.57495 137.021685 
L 425.590982 137.681559 
L 425.681 137.291895 
L 426.546459 137.186828 
L 426.84333 137.481822 
L 426.891803 135.813817 
L 427.025619 136.148872 
L 427.043967 137.407653 
L 427.077565 136.131325 
L 427.163475 136.440039 
L 427.284984 137.488716 
L 427.301853 136.17852 
L 427.390503 137.779129 
L 427.685621 137.42776 
L 427.93085 135.760567 
L 428.141081 137.365712 
L 428.421689 137.858013 
L 428.454115 136.106794 
L 428.540716 137.158622 
L 428.621402 137.5634 
L 428.644831 136.220269 
L 428.830867 136.037231 
L 429.039606 136.532745 
L 429.245262 137.612646 
L 429.31948 137.382843 
L 429.64788 136.788722 
L 429.667988 137.021603 
L 429.703322 136.126824 
L 429.751501 136.147898 
L 429.905495 136.16381 
L 429.906067 136.015417 
L 430.041504 137.291896 
L 430.229923 136.098767 
L 430.303769 136.178605 
L 430.757763 137.681571 
L 430.838133 135.917952 
L 431.555771 137.488524 
L 431.605257 137.453112 
L 431.637481 135.881744 
L 431.645244 137.738858 
L 431.748424 137.287896 
L 431.901017 136.220205 
L 431.941978 137.514665 
L 431.971436 137.475427 
L 432.178578 136.945391 
L 432.287846 137.427771 
L 432.622855 136.397989 
L 432.64384 137.530601 
L 432.732027 137.158576 
L 432.818899 136.059065 
L 433.08656 136.257842 
L 433.127382 137.566773 
L 433.186094 137.456045 
L 433.560047 136.788546 
L 433.767245 137.382858 
L 434.357846 137.612652 
L 434.557253 135.990755 
L 434.90411 136.112146 
L 434.95585 137.110407 
L 435.10384 137.653744 
L 435.188771 135.964205 
L 435.225124 136.115364 
L 435.846187 136.120324 
L 436.03335 137.287886 
L 436.19444 136.945244 
L 436.23799 136.397786 
L 436.454061 137.514558 
L 436.468601 137.509181 
L 436.526206 136.126871 
L 436.570341 136.658093 
L 436.649199 137.475435 
L 436.883618 137.514665 
L 437.205332 136.09806 
L 437.229787 137.540467 
L 437.273307 137.509934 
L 437.418337 136.144724 
L 437.706654 136.108474 
L 437.716351 137.456065 
L 437.91149 136.083397 
L 437.973139 136.114477 
L 437.973859 137.271804 
L 438.183613 137.566776 
L 438.239291 136.038576 
L 438.285815 136.118096 
L 438.585329 136.18078 
L 438.790564 137.595161 
L 438.862775 137.492236 
L 438.905099 136.021012 
L 438.939723 136.120295 
L 439.071013 137.11031 
L 439.56531 137.401211 
L 439.70993 136.12664 
L 440.008706 136.244204 
L 440.406101 136.657823 
L 440.724255 136.144631 
L 441.169086 137.530273 
L 441.226469 137.416963 
L 441.332955 137.514558 
L 441.515206 137.031219 
L 441.573513 137.544911 
L 441.687841 136.343922 
L 441.881387 137.509953 
L 441.963286 136.083442 
L 442.009338 136.180628 
L 442.227793 137.540467 
L 442.373728 136.065044 
L 442.638126 136.056564 
L 442.755479 137.557765 
L 442.769877 136.087382 
L 442.860532 136.834093 
L 442.905129 136.072435 
L 443.321067 137.492269 
L 443.371749 136.078513 
L 443.549023 136.243969 
L 443.617098 136.487442 
L 444.164722 136.052279 
L 444.349069 137.23365 
L 444.568087 136.041229 
L 444.707298 137.535273 
L 445.236181 136.038032 
L 445.323967 136.086878 
L 445.340354 136.343594 
L 445.526958 137.416981 
L 445.555303 137.031026 
L 445.79301 136.67683 
L 445.824735 136.077587 
L 446.079081 137.562831 
L 446.234711 136.044425 
L 446.254862 137.544925 
L 446.483034 137.531824 
L 446.797827 136.074471 
L 446.862357 137.597675 
L 447.024334 136.073966 
L 447.293643 137.5578 
L 447.349075 136.055493 
L 447.378115 136.487046 
L 447.416497 137.423213 
L 447.495836 136.07837 
L 447.681531 136.04042 
L 448.210949 136.905738 
L 448.409771 137.620256 
L 448.455994 136.037958 
L 448.485071 137.233551 
L 449.015953 136.149132 
L 449.093834 137.535324 
L 449.583161 136.044286 
L 449.658577 136.676416 
L 450.592724 136.064966 
L 450.711595 137.582334 
L 450.792934 136.05123 
L 450.82928 137.562838 
L 450.866205 137.157679 
L 450.941954 137.540238 
L 450.96303 136.078161 
L 451.122109 136.027849 
L 451.176182 137.614405 
L 451.259482 136.074885 
L 451.475966 137.597702 
L 452.177177 136.905374 
L 452.327166 137.67041 
L 452.59585 136.148719 
L 452.739555 135.979717 
L 452.877998 137.620317 
L 453.740015 135.939715 
L 453.753665 137.407472 
L 453.93796 135.918011 
L 454.228252 137.698591 
L 454.468555 136.272539 
L 455.026765 137.582405 
L 455.060796 135.911305 
L 455.142816 136.040752 
L 455.220548 136.05847 
L 455.567854 136.01043 
L 455.68971 137.611902 
L 455.860922 137.614421 
L 456.021113 135.979826 
L 456.403595 135.941166 
L 456.452665 137.688597 
L 456.58123 136.460378 
L 456.774718 135.934245 
L 456.872798 137.67046 
L 457.19603 135.91577 
L 457.517796 137.019961 
L 457.909324 137.407404 
L 457.960183 137.76721 
L 458.051476 136.018396 
L 458.414477 135.911216 
L 458.626714 137.698691 
L 458.929306 136.713606 
L 459.900141 136.179108 
L 459.913386 135.940155 
L 460.203264 137.792918 
L 460.230497 137.347874 
L 460.395717 137.594543 
L 460.441392 137.611908 
L 460.494138 135.99286 
L 460.779397 137.680497 
L 461.11226 137.627028 
L 461.326353 135.883905 
L 461.478755 135.945171 
L 461.508778 137.019445 
L 461.668698 136.017382 
L 461.900977 137.790915 
L 462.076539 135.827398 
L 462.4378 137.7673 
L 462.556783 135.761488 
L 463.168785 137.655301 
L 463.621825 136.178262 
L 463.753884 137.893464 
L 464.187652 135.723779 
L 464.315016 137.347622 
L 464.532303 137.793077 
L 464.608423 135.816498 
L 465.283621 135.750521 
L 465.300475 137.652825 
L 465.35078 135.962958 
L 465.467351 137.680509 
L 465.753254 135.865445 
L 465.804743 136.434101 
L 465.910645 135.795786 
L 466.044136 137.777651 
L 466.19422 135.767389 
L 466.32743 137.90028 
L 466.453677 137.790973 
L 466.839869 137.20736 
L 467.099534 135.841181 
L 467.343016 137.655342 
L 467.513755 137.929553 
L 467.545584 135.707311 
L 468.163624 137.893622 
L 468.216954 136.785581 
L 468.855248 135.738025 
L 469.044255 136.053923 
L 469.70099 138.055743 
L 470.017751 135.656175 
L 470.383117 137.737577 
L 470.545123 135.874966 
L 470.587538 137.900517 
L 470.667933 137.777676 
L 470.770724 135.816651 
L 470.854212 137.20666 
L 471.066072 135.541419 
L 471.476755 137.912008 
L 472.00026 137.929661 
L 472.530989 135.5183 
L 472.59366 138.009756 
L 472.842353 135.659729 
L 473.28385 138.116642 
L 473.574999 136.926805 
L 473.711994 137.639041 
L 474.043152 138.056021 
L 474.152192 135.48194 
L 474.919259 135.547618 
L 475.047029 136.413907 
L 475.462798 135.402903 
L 475.572698 135.495932 
L 475.636684 137.856272 
L 475.671183 135.671517 
L 475.79448 138.260752 
L 476.17579 137.523233 
L 476.187564 135.571768 
L 476.785463 138.010064 
L 477.070256 138.096976 
L 477.520072 136.92512 
L 477.70427 138.116844 
L 477.833404 135.47582 
L 478.177507 135.872269 
L 478.994917 138.091182 
L 479.009061 135.397797 
L 479.204335 138.370169 
L 479.857994 135.576888 
L 480.069503 138.261237 
L 480.158749 135.141841 
L 480.212102 137.522413 
L 480.429445 136.422442 
L 480.751646 135.593863 
L 481.054356 138.020606 
L 481.407488 135.495453 
L 481.565186 138.097066 
L 481.960034 135.873793 
L 482.027595 138.511334 
L 482.817837 138.353755 
L 482.868945 137.204689 
L 483.119188 138.091412 
L 483.275861 135.29918 
L 483.479227 134.992248 
L 483.55893 138.370555 
L 483.870754 135.111089 
L 484.30688 136.418872 
L 484.386644 135.187571 
L 484.882736 135.174628 
L 485.26852 138.716789 
L 485.523705 138.069143 
L 486.236046 138.512164 
L 486.629475 138.249148 
L 486.770479 135.362643 
L 486.836804 137.201975 
L 486.854813 135.001432 
L 487.027035 135.61769 
L 487.248384 138.35393 
L 487.390238 135.21374 
L 488.270176 135.228017 
L 488.393153 138.793489 
L 488.709696 135.006229 
L 488.7129 138.716965 
L 489.20602 134.685695 
L 489.557683 138.717553 
L 489.580978 138.068619 
L 489.634357 136.52619 
L 490.824806 135.687261 
L 491.469823 139.195087 
L 492.169374 137.76466 
L 492.177415 134.550437 
L 492.355562 135.055949 
L 492.355562 138.572341 
L 492.494657 134.640824 
L 492.53578 138.794764 
L 493.079291 134.82621 
L 493.079291 138.717325 
L 493.529639 136.527073 
L 494.43682 134.335651 
L 494.458078 134.540407 
L 494.749064 139.245651 
L 494.883802 139.036597 
L 495.694067 139.196652 
L 495.704773 134.157192 
L 495.98137 135.195363 
L 496.159623 137.761277 
L 496.41264 134.892557 
L 497.801501 139.855489 
L 498.226324 134.59677 
L 498.226324 139.042487 
L 498.714255 136.837254 
L 499.051651 139.246444 
L 499.159121 134.187852 
L 499.972571 135.333552 
L 500.381533 133.487825 
L 500.920037 140.045988 
L 501.29489 133.801715 
L 501.462169 139.003676 
L 501.961928 139.858875 
L 502.49878 133.154881 
L 502.657801 136.835079 
L 504.23567 139.755239 
L 504.256698 140.734655 
L 504.288972 133.859788 
L 504.690216 135.152621 
L 505.018853 133.821471 
L 505.159416 140.047906 
L 505.238522 133.319473 
L 505.481734 138.999793 
L 506.811487 132.847171 
L 507.219912 141.320344 
L 507.460026 132.827073 
L 508.129555 137.731873 
L 508.35451 140.743342 
L 508.752668 131.656315 
L 508.910476 135.270417 
L 510.377711 140.900643 
L 510.403348 132.764279 
L 510.797657 141.70996 
L 511.396702 141.325566 
L 511.422314 131.801892 
L 511.863282 133.578111 
L 512.248671 137.743656 
L 513.129294 132.74983 
L 513.642153 143.475085 
L 513.818436 131.341628 
L 514.861232 141.728453 
L 515.142524 129.299112 
L 516.646718 142.902318 
L 516.646772 130.845595 
L 517.455444 134.617058 
L 517.75063 128.999075 
L 517.758 143.491811 
L 517.84428 141.877212 
L 519.820133 132.932006 
L 520.18305 147.289557 
L 520.224348 129.375086 
L 521.271989 126.072067 
L 521.716019 141.849246 
L 523.029822 127.195508 
L 523.037384 146.877971 
L 524.181988 123.028814 
L 524.243912 147.370529 
L 526.237357 129.058721 
L 527.097735 154.152977 
L 529.040877 132.608393 
L 529.495575 119.381819 
L 529.550263 156.679141 
L 530.504228 106.25891 
L 530.872189 154.62085 
L 533.963271 156.628545 
L 535.886578 97.688267 
L 536.197457 190.021367 
L 537.040145 44.026679 
L 537.351078 157.807472 
L 542.668182 372.257415 
L 542.668182 30.146107 
L 542.668182 30.146107 
" clip-path="url(#p95817d2f95)" style="fill: none; stroke: #1f77b4; stroke-width: 1.5; stroke-linecap: square"/>
   </g>
   <g id="patch_3">
    <path d="M 69.5 390.04 
L 69.5 10.8 
" style="fill: none; stroke: #000000; stroke-width: 0.8; stroke-linejoin: miter; stroke-linecap: square"/>
   </g>
   <g id="patch_4">
    <path d="M 565.2 390.04 
L 565.2 10.8 
" style="fill: none; stroke: #000000; stroke-width: 0.8; stroke-linejoin: miter; stroke-linecap: square"/>
   </g>
   <g id="patch_5">
    <path d="M 69.5 390.04 
L 565.2 390.04 
" style="fill: none; stroke: #000000; stroke-width: 0.8; stroke-linejoin: miter; stroke-linecap: square"/>
   </g>
   <g id="patch_6">
    <path d="M 69.5 10.8 
L 565.2 10.8 
" style="fill: none; stroke: #000000; stroke-width: 0.8; stroke-linejoin: miter; stroke-linecap: square"/>
   </g>
   <g id="legend_1">
    <g id="patch_7">
     <path d="M 294.15 385.04 
L 340.55 385.04 
Q 342.55 385.04 342.55 383.04 
L 342.55 368.94 
Q 342.55 366.94 340.55 366.94 
L 294.15 366.94 
Q 292.15 366.94 292.15 368.94 
L 292.15 383.04 
Q 292.15 385.04 294.15 385.04 
z
" style="fill: #ffffff; opacity: 0.8; stroke: #cccccc; stroke-linejoin: miter"/>
    </g>
    <g id="line2d_32">
     <path d="M 296.15 375.14 
L 306.15 375.14 
L 316.15 375.14 
" style="fill: none; stroke: #1f77b4; stroke-width: 1.5; stroke-linecap: square"/>
    </g>
    <g id="text_18">
     <!-- |$\mathbf{B}$| -->
     <g transform="translate(324.15 378.64) scale(0.1 -0.1)">
      <use xlink:href="#DejaVuSans-7c" transform="translate(0 0.578125)"/>
      <use xlink:href="#DejaVuSans-Bold-42" transform="translate(33.691406 0.578125)"/>
      <use xlink:href="#DejaVuSans-7c" transform="translate(109.912109 0.578125)"/>
     </g>
    </g>
   </g>
  </g>
 </g>
 <defs>
  <clipPath id="p95817d2f95">
   <rect x="69.5" y="10.8" width="495.7" height="379.24"/>
  </clipPath>
 </defs>
</svg>
