<?xml version="1.0" encoding="utf-8" standalone="no"?>
<!DOCTYPE svg PUBLIC "-//W3C//DTD SVG 1.1//EN"
  "http://www.w3.org/Graphics/SVG/1.1/DTD/svg11.dtd">
<svg xmlns:xlink="http://www.w3.org/1999/xlink" width="864pt" height="432pt" viewBox="0 0 864 432" xmlns="http://www.w3.org/2000/svg" version="1.1">
 <metadata>
  <rdf:RDF xmlns:dc="http://purl.org/dc/elements/1.1/" xmlns:cc="http://creativecommons.org/ns#" xmlns:rdf="http://www.w3.org/1999/02/22-rdf-syntax-ns#">
   <cc:Work>
    <dc:type rdf:resource="http://purl.org/dc/dcmitype/StillImage"/>
    <dc:date>2025-01-18T09:07:04.659386</dc:date>
    <dc:format>image/svg+xml</dc:format>
    <dc:creator>
     <cc:Agent>
      <dc:title>Matplotlib v3.8.3, https://matplotlib.org/</dc:title>
     </cc:Agent>
    </dc:creator>
   </cc:Work>
  </rdf:RDF>
 </metadata>
 <defs>
  <style type="text/css">*{stroke-linejoin: round; stroke-linecap: butt}</style>
 </defs>
 <g id="figure_1">
  <g id="patch_1">
   <path d="M 0 432 
L 864 432 
L 864 0 
L 0 0 
z
" style="fill: #ffffff"/>
  </g>
  <g id="axes_1">
   <g id="patch_2">
    <path d="M 56.72 387.16 
L 273.33 387.16 
L 273.33 30.18 
L 56.72 30.18 
z
" style="fill: #ffffff"/>
   </g>
   <g id="Quiver_1">
    <path d="M 92.821667 326.851046 
L 99.951746 326.851046 
L 99.139458 325.226471 
L 107.262333 327.663333 
L 99.139458 330.100196 
L 99.951746 328.475621 
L 92.821667 328.475621 
L 92.821667 326.851046 
" clip-path="url(#pf0ed510cb6)" style="fill: #0000ff"/>
    <path d="M 108.720543 326.864331 
L 115.970189 325.536815 
L 114.878569 324.08512 
L 123.307519 325.019037 
L 115.756422 328.879133 
L 116.262807 327.13482 
L 109.013161 328.462336 
L 108.720543 326.864331 
" clip-path="url(#pf0ed510cb6)" style="fill: #0000ff"/>
    <path d="M 124.632697 326.900588 
L 132.208656 324.126051 
L 130.887232 322.8799 
L 139.352704 322.374741 
L 132.563269 327.456372 
L 132.767335 325.651542 
L 125.191377 328.426079 
L 124.632697 326.900588 
" clip-path="url(#pf0ed510cb6)" style="fill: #0000ff"/>
    <path d="M 140.566124 326.951397 
L 148.599363 322.538388 
L 147.105231 321.505613 
L 155.397889 319.730444 
L 149.451818 325.777232 
L 149.381559 323.962261 
L 141.34832 328.37527 
L 140.566124 326.951397 
" clip-path="url(#pf0ed510cb6)" style="fill: #0000ff"/>
    <path d="M 156.522423 327.008027 
L 165.065335 320.750701 
L 163.45006 319.920073 
L 171.443074 317.086148 
L 166.329966 323.85191 
L 166.025304 322.061313 
L 157.482392 328.318639 
L 156.522423 327.008027 
" clip-path="url(#pf0ed510cb6)" style="fill: #0000ff"/>
    <path d="M 172.499066 327.064226 
L 181.547766 318.779483 
L 179.851606 318.129794 
L 187.488259 314.441852 
L 183.142764 321.724439 
L 182.644819 319.977697 
L 173.596119 328.262441 
L 172.499066 327.064226 
" clip-path="url(#pf0ed510cb6)" style="fill: #0000ff"/>
    <path d="M 188.492059 327.116572 
L 198.011878 316.657268 
L 196.263678 316.164465 
L 203.533444 311.797556 
L 199.867994 319.44503 
L 199.213316 317.750789 
L 189.693497 328.210094 
L 188.492059 327.116572 
" clip-path="url(#pf0ed510cb6)" style="fill: #0000ff"/>
    <path d="M 204.49752 327.16369 
L 214.441399 314.417607 
L 212.660869 314.058764 
L 219.57863 309.153259 
L 216.503529 317.056623 
L 215.722285 315.416893 
L 205.778406 328.162976 
L 204.49752 327.16369 
" clip-path="url(#pf0ed510cb6)" style="fill: #0000ff"/>
    <path d="M 220.512268 327.205369 
L 230.831255 312.088916 
L 229.031531 311.843866 
L 235.623815 306.508963 
L 233.056809 314.591653 
L 232.173014 313.004844 
L 221.854028 328.121298 
L 220.512268 327.205369 
" clip-path="url(#pf0ed510cb6)" style="fill: #0000ff"/>
    <path d="M 236.53389 327.241956 
L 247.182157 309.693281 
L 245.371892 309.544969 
L 251.669 303.864667 
L 249.538554 312.073235 
L 248.571044 310.536036 
L 237.922777 328.084711 
L 236.53389 327.241956 
" clip-path="url(#pf0ed510cb6)" style="fill: #0000ff"/>
    <path d="M 92.821667 300.408083 
L 98.347227 300.408083 
L 97.53494 298.783508 
L 105.657815 301.22037 
L 97.53494 303.657233 
L 98.347227 302.032658 
L 92.821667 302.032658 
L 92.821667 300.408083 
" clip-path="url(#pf0ed510cb6)" style="fill: #0000ff"/>
    <path d="M 108.702959 300.424789 
L 114.378873 299.255529 
L 113.255505 297.828258 
L 121.703 298.576074 
L 114.238863 302.601748 
L 114.706658 300.846692 
L 109.030745 302.015952 
L 108.702959 300.424789 
" clip-path="url(#pf0ed510cb6)" style="fill: #0000ff"/>
    <path d="M 124.602603 300.46933 
L 130.679389 297.965647 
L 129.30948 296.773001 
L 137.748185 295.931778 
L 131.166087 301.279242 
L 131.298258 299.467727 
L 125.221471 301.971411 
L 124.602603 300.46933 
" clip-path="url(#pf0ed510cb6)" style="fill: #0000ff"/>
    <path d="M 140.530189 300.52939 
L 147.147517 296.439804 
L 145.60247 295.484878 
L 153.79337 293.287481 
L 148.164672 299.630758 
L 148.001585 297.821764 
L 141.384256 301.91135 
L 140.530189 300.52939 
" clip-path="url(#pf0ed510cb6)" style="fill: #0000ff"/>
    <path d="M 156.485849 300.593491 
L 163.680079 294.665333 
L 162.020083 293.928132 
L 169.838556 290.643185 
L 165.119434 297.68941 
L 164.713197 295.919092 
L 157.518966 301.84725 
L 156.485849 300.593491 
" clip-path="url(#pf0ed510cb6)" style="fill: #0000ff"/>
    <path d="M 172.464789 300.654552 
L 180.208571 292.678306 
L 178.477144 292.129473 
L 185.883741 287.998889 
L 181.973968 295.524384 
L 181.374179 293.809943 
L 173.630397 301.786189 
L 172.464789 300.654552 
" clip-path="url(#pf0ed510cb6)" style="fill: #0000ff"/>
    <path d="M 188.461284 300.709463 
L 196.699263 290.527129 
L 194.925368 290.136807 
L 201.928926 285.354593 
L 198.714331 293.202253 
L 197.962251 291.548944 
L 189.724272 301.731278 
L 188.461284 300.709463 
" clip-path="url(#pf0ed510cb6)" style="fill: #0000ff"/>
    <path d="M 204.470469 300.757485 
L 213.140646 288.254854 
L 211.342773 287.996576 
L 217.974111 282.710296 
L 215.347736 290.77389 
L 214.475634 289.180625 
L 205.805457 301.683256 
L 204.470469 300.757485 
" clip-path="url(#pf0ed510cb6)" style="fill: #0000ff"/>
    <path d="M 220.488705 300.798993 
L 229.532453 285.894614 
L 227.722189 285.746302 
L 234.019296 280.066 
L 231.88885 288.274568 
L 230.92134 286.737369 
L 221.877592 301.641748 
L 220.488705 300.798993 
" clip-path="url(#pf0ed510cb6)" style="fill: #0000ff"/>
    <path d="M 92.821667 273.96512 
L 96.742709 273.96512 
L 95.930421 272.340545 
L 104.053296 274.777407 
L 95.930421 277.21427 
L 96.742709 275.589695 
L 92.821667 275.589695 
L 92.821667 273.96512 
" clip-path="url(#pf0ed510cb6)" style="fill: #0000ff"/>
    <path d="M 108.680702 273.986737 
L 112.796301 273.01779 
L 111.633331 271.622599 
L 120.098481 272.133111 
L 112.75023 276.36662 
L 113.1686 274.59913 
L 109.053002 275.568078 
L 108.680702 273.986737 
" clip-path="url(#pf0ed510cb6)" style="fill: #0000ff"/>
    <path d="M 124.566 274.042513 
L 129.183582 271.868251 
L 127.756614 270.744499 
L 136.143667 269.488815 
L 129.832834 275.153865 
L 129.875655 273.33804 
L 125.258074 275.512302 
L 124.566 274.042513 
" clip-path="url(#pf0ed510cb6)" style="fill: #0000ff"/>
    <path d="M 140.488605 274.113925 
L 145.748892 270.398589 
L 144.148176 269.540241 
L 152.188852 266.844519 
L 146.959878 273.521137 
L 146.686126 271.725554 
L 141.425839 275.44089 
L 140.488605 274.113925 
" clip-path="url(#pf0ed510cb6)" style="fill: #0000ff"/>
    <path d="M 156.44552 274.186064 
L 162.355056 268.620865 
L 160.649937 267.995064 
L 168.234037 264.200222 
L 163.991261 271.543127 
L 163.46883 269.803552 
L 157.559295 275.368751 
L 156.44552 274.186064 
" clip-path="url(#pf0ed510cb6)" style="fill: #0000ff"/>
    <path d="M 172.428526 274.251511 
L 178.927087 266.601632 
L 177.163057 266.168906 
L 184.279222 261.555926 
L 180.877458 269.324285 
L 180.165221 267.653425 
L 173.66666 275.303304 
L 172.428526 274.251511 
" clip-path="url(#pf0ed510cb6)" style="fill: #0000ff"/>
    <path d="M 188.429801 274.308076 
L 195.437444 264.409092 
L 193.642158 264.133406 
L 200.324407 258.91163 
L 197.620021 266.949396 
L 196.763399 265.347756 
L 189.755755 275.246739 
L 188.429801 274.308076 
" clip-path="url(#pf0ed510cb6)" style="fill: #0000ff"/>
    <path d="M 204.443519 274.35603 
L 211.88275 262.095947 
L 210.072485 261.947636 
L 216.369593 256.267333 
L 214.239146 264.475902 
L 213.271637 262.938703 
L 205.832406 275.198785 
L 204.443519 274.35603 
" clip-path="url(#pf0ed510cb6)" style="fill: #0000ff"/>
    <path d="M 92.821667 247.522157 
L 95.13819 247.522157 
L 94.325903 245.897582 
L 102.448778 248.334444 
L 94.325903 250.771307 
L 95.13819 249.146732 
L 92.821667 249.146732 
L 92.821667 247.522157 
" clip-path="url(#pf0ed510cb6)" style="fill: #0000ff"/>
    <path d="M 108.651708 247.551167 
L 111.22932 246.843169 
L 110.015753 245.491758 
L 118.493963 245.690148 
L 111.306619 250.191424 
L 111.659608 248.409725 
L 109.081996 249.117722 
L 108.651708 247.551167 
" clip-path="url(#pf0ed510cb6)" style="fill: #0000ff"/>
    <path d="M 124.520939 247.622508 
L 127.740622 245.853795 
L 126.24649 244.82102 
L 134.539148 243.045852 
L 128.593077 249.092639 
L 128.522818 247.277668 
L 125.303135 249.046381 
L 124.520939 247.622508 
" clip-path="url(#pf0ed510cb6)" style="fill: #0000ff"/>
    <path d="M 140.440664 247.707565 
L 144.425857 244.423703 
L 142.76586 243.686503 
L 150.584333 240.401556 
L 145.865212 247.447781 
L 145.458974 245.677463 
L 141.473781 248.961324 
L 140.440664 247.707565 
" clip-path="url(#pf0ed510cb6)" style="fill: #0000ff"/>
    <path d="M 156.401688 247.787684 
L 161.107952 242.616971 
L 159.359753 242.124169 
L 166.629519 237.757259 
L 162.964068 245.404734 
L 162.30939 243.710493 
L 157.603127 248.881205 
L 156.401688 247.787684 
" clip-path="url(#pf0ed510cb6)" style="fill: #0000ff"/>
    <path d="M 172.390938 247.856307 
L 177.71481 240.544718 
L 175.923363 240.245097 
L 182.674704 235.112963 
L 179.863292 243.113923 
L 179.02812 241.500993 
L 173.704247 248.812582 
L 172.390938 247.856307 
" clip-path="url(#pf0ed510cb6)" style="fill: #0000ff"/>
    <path d="M 188.398334 247.913067 
L 194.233046 238.297281 
L 192.422781 238.148969 
L 198.719889 232.468667 
L 196.589442 240.677235 
L 195.621933 239.140036 
L 189.787221 248.755822 
L 188.398334 247.913067 
" clip-path="url(#pf0ed510cb6)" style="fill: #0000ff"/>
    <path d="M 92.821667 221.089222 
L 93.623926 221.089222 
L 92.821667 219.484704 
L 100.844259 221.891481 
L 92.821667 224.298259 
L 93.623926 222.693741 
L 92.821667 222.693741 
L 92.821667 221.089222 
" clip-path="url(#pf0ed510cb6)" style="fill: #0000ff"/>
    <path d="M 108.612573 221.12002 
L 109.692009 220.764231 
L 108.41199 219.475586 
L 116.889444 219.247185 
L 109.937662 224.104357 
L 110.200566 222.307155 
L 109.12113 222.662943 
L 108.612573 221.12002 
" clip-path="url(#pf0ed510cb6)" style="fill: #0000ff"/>
    <path d="M 124.464967 221.213293 
L 126.383865 219.948332 
L 124.811537 219.039025 
L 132.93463 216.602889 
L 127.493957 223.108155 
L 127.278006 221.304708 
L 125.359107 222.56967 
L 124.464967 221.213293 
" clip-path="url(#pf0ed510cb6)" style="fill: #0000ff"/>
    <path d="M 140.386086 221.313887 
L 143.210332 218.52122 
L 141.490467 217.937168 
L 148.979815 213.958593 
L 144.917281 221.402733 
L 144.352604 219.676409 
L 141.528358 222.469076 
L 140.386086 221.313887 
" clip-path="url(#pf0ed510cb6)" style="fill: #0000ff"/>
    <path d="M 156.355221 221.400603 
L 159.959911 216.648092 
L 158.174661 216.313521 
L 165.025 211.314296 
L 162.057776 219.25879 
L 161.254283 217.629848 
L 157.649593 222.38236 
L 156.355221 221.400603 
" clip-path="url(#pf0ed510cb6)" style="fill: #0000ff"/>
    <path d="M 172.353149 221.470104 
L 176.583342 214.498614 
L 174.773078 214.350302 
L 181.070185 208.67 
L 178.939739 216.878568 
L 177.972229 215.341369 
L 173.742036 222.312859 
L 172.353149 221.470104 
" clip-path="url(#pf0ed510cb6)" style="fill: #0000ff"/>
    <path d="M 92.821667 194.806711 
L 93.463474 194.806711 
L 92.821667 193.523096 
L 99.239741 195.448519 
L 92.821667 197.373941 
L 93.463474 196.090326 
L 92.821667 196.090326 
L 92.821667 194.806711 
" clip-path="url(#pf0ed510cb6)" style="fill: #0000ff"/>
    <path d="M 108.602422 194.806711 
L 109.24423 194.542281 
L 108.073563 193.523096 
L 115.284926 192.804222 
L 109.660141 197.373941 
L 109.773089 195.825896 
L 109.131281 196.090326 
L 108.602422 194.806711 
" clip-path="url(#pf0ed510cb6)" style="fill: #0000ff"/>
    <path d="M 124.395478 194.821639 
L 125.171635 194.182074 
L 123.511638 193.444873 
L 131.330111 190.159926 
L 126.61099 197.206151 
L 126.204752 195.435833 
L 125.428596 196.075398 
L 124.395478 194.821639 
" clip-path="url(#pf0ed510cb6)" style="fill: #0000ff"/>
    <path d="M 140.325728 194.937611 
L 142.145634 192.688166 
L 140.371739 192.297844 
L 147.375296 187.51563 
L 144.160701 195.36329 
L 143.408621 193.709981 
L 141.588716 195.959426 
L 140.325728 194.937611 
" clip-path="url(#pf0ed510cb6)" style="fill: #0000ff"/>
    <path d="M 156.307964 195.027141 
L 158.933639 190.699947 
L 157.123374 190.551636 
L 163.420481 184.871333 
L 161.290035 193.079902 
L 160.322526 191.542703 
L 157.696851 195.869896 
L 156.307964 195.027141 
" clip-path="url(#pf0ed510cb6)" style="fill: #0000ff"/>
    <path d="M 92.821667 168.5242 
L 93.303022 168.5242 
L 92.821667 167.561489 
L 97.635222 169.005556 
L 92.821667 170.449622 
L 93.303022 169.486911 
L 92.821667 169.486911 
L 92.821667 168.5242 
" clip-path="url(#pf0ed510cb6)" style="fill: #0000ff"/>
    <path d="M 108.602422 168.5242 
L 109.083778 168.25977 
L 108.073563 167.561489 
L 113.680407 166.361259 
L 109.660141 170.449622 
L 109.612637 169.222481 
L 109.131281 169.486911 
L 108.602422 168.5242 
" clip-path="url(#pf0ed510cb6)" style="fill: #0000ff"/>
    <path d="M 124.383178 168.5242 
L 124.864533 167.995341 
L 123.325459 167.561489 
L 129.725593 163.716963 
L 126.498615 170.449622 
L 125.922252 168.958052 
L 125.440896 169.486911 
L 124.383178 168.5242 
" clip-path="url(#pf0ed510cb6)" style="fill: #0000ff"/>
    <path d="M 140.262779 168.584178 
L 141.283935 166.901281 
L 139.47367 166.752969 
L 145.770778 161.072667 
L 143.640331 169.281235 
L 142.672822 167.744036 
L 141.651666 169.426933 
L 140.262779 168.584178 
" clip-path="url(#pf0ed510cb6)" style="fill: #0000ff"/>
    <path d="M 92.821667 142.241689 
L 93.14257 142.241689 
L 92.821667 141.599881 
L 96.030704 142.562593 
L 92.821667 143.525304 
L 93.14257 142.883496 
L 92.821667 142.883496 
L 92.821667 142.241689 
" clip-path="url(#pf0ed510cb6)" style="fill: #0000ff"/>
    <path d="M 108.602422 142.241689 
L 108.923326 141.977259 
L 108.073563 141.599881 
L 112.075889 139.918296 
L 109.660141 143.525304 
L 109.452185 142.619067 
L 109.131281 142.883496 
L 108.602422 142.241689 
" clip-path="url(#pf0ed510cb6)" style="fill: #0000ff"/>
    <path d="M 124.383178 142.241689 
L 124.704081 141.71283 
L 123.325459 141.599881 
L 128.121074 137.274 
L 126.498615 143.525304 
L 125.7618 142.354637 
L 125.440896 142.883496 
L 124.383178 142.241689 
" clip-path="url(#pf0ed510cb6)" style="fill: #0000ff"/>
    <path d="M 93.633954 116.11963 
L 93.22781 115.416168 
L 92.415523 115.416168 
L 92.009379 116.11963 
L 92.415523 116.823091 
L 93.22781 116.823091 
L 93.633954 116.11963 
L 93.22781 115.416168 
" clip-path="url(#pf0ed510cb6)" style="fill: #0000ff"/>
    <path d="M 108.602422 115.959178 
L 108.762874 115.694748 
L 108.073563 115.638274 
L 110.47137 113.475333 
L 109.660141 116.600985 
L 109.291733 116.015652 
L 109.131281 116.280081 
L 108.602422 115.959178 
" clip-path="url(#pf0ed510cb6)" style="fill: #0000ff"/>
    <path d="M 93.633954 89.676667 
L 93.22781 88.973205 
L 92.415523 88.973205 
L 92.009379 89.676667 
L 92.415523 90.380128 
L 93.22781 90.380128 
L 93.633954 89.676667 
L 93.22781 88.973205 
" clip-path="url(#pf0ed510cb6)" style="fill: #0000ff"/>
   </g>
   <g id="matplotlib.axis_1">
    <g id="xtick_1">
     <g id="line2d_1">
      <defs>
       <path id="me8b629c118" d="M 0 0 
L 0 3.5 
" style="stroke: #000000; stroke-width: 0.8"/>
      </defs>
      <g>
       <use xlink:href="#me8b629c118" x="56.72" y="387.16" style="stroke: #000000; stroke-width: 0.8"/>
      </g>
     </g>
     <g id="text_1">
      <!-- −0.25 -->
      <g transform="translate(41.397344 401.758438) scale(0.1 -0.1)">
       <defs>
        <path id="DejaVuSans-2212" d="M 678 2272 
L 4684 2272 
L 4684 1741 
L 678 1741 
L 678 2272 
z
" transform="scale(0.015625)"/>
        <path id="DejaVuSans-30" d="M 2034 4250 
Q 1547 4250 1301 3770 
Q 1056 3291 1056 2328 
Q 1056 1369 1301 889 
Q 1547 409 2034 409 
Q 2525 409 2770 889 
Q 3016 1369 3016 2328 
Q 3016 3291 2770 3770 
Q 2525 4250 2034 4250 
z
M 2034 4750 
Q 2819 4750 3233 4129 
Q 3647 3509 3647 2328 
Q 3647 1150 3233 529 
Q 2819 -91 2034 -91 
Q 1250 -91 836 529 
Q 422 1150 422 2328 
Q 422 3509 836 4129 
Q 1250 4750 2034 4750 
z
" transform="scale(0.015625)"/>
        <path id="DejaVuSans-2e" d="M 684 794 
L 1344 794 
L 1344 0 
L 684 0 
L 684 794 
z
" transform="scale(0.015625)"/>
        <path id="DejaVuSans-32" d="M 1228 531 
L 3431 531 
L 3431 0 
L 469 0 
L 469 531 
Q 828 903 1448 1529 
Q 2069 2156 2228 2338 
Q 2531 2678 2651 2914 
Q 2772 3150 2772 3378 
Q 2772 3750 2511 3984 
Q 2250 4219 1831 4219 
Q 1534 4219 1204 4116 
Q 875 4013 500 3803 
L 500 4441 
Q 881 4594 1212 4672 
Q 1544 4750 1819 4750 
Q 2544 4750 2975 4387 
Q 3406 4025 3406 3419 
Q 3406 3131 3298 2873 
Q 3191 2616 2906 2266 
Q 2828 2175 2409 1742 
Q 1991 1309 1228 531 
z
" transform="scale(0.015625)"/>
        <path id="DejaVuSans-35" d="M 691 4666 
L 3169 4666 
L 3169 4134 
L 1269 4134 
L 1269 2991 
Q 1406 3038 1543 3061 
Q 1681 3084 1819 3084 
Q 2600 3084 3056 2656 
Q 3513 2228 3513 1497 
Q 3513 744 3044 326 
Q 2575 -91 1722 -91 
Q 1428 -91 1123 -41 
Q 819 9 494 109 
L 494 744 
Q 775 591 1075 516 
Q 1375 441 1709 441 
Q 2250 441 2565 725 
Q 2881 1009 2881 1497 
Q 2881 1984 2565 2268 
Q 2250 2553 1709 2553 
Q 1456 2553 1204 2497 
Q 953 2441 691 2322 
L 691 4666 
z
" transform="scale(0.015625)"/>
       </defs>
       <use xlink:href="#DejaVuSans-2212"/>
       <use xlink:href="#DejaVuSans-30" x="83.789062"/>
       <use xlink:href="#DejaVuSans-2e" x="147.412109"/>
       <use xlink:href="#DejaVuSans-32" x="179.199219"/>
       <use xlink:href="#DejaVuSans-35" x="242.822266"/>
      </g>
     </g>
    </g>
    <g id="xtick_2">
     <g id="line2d_2">
      <g>
       <use xlink:href="#me8b629c118" x="92.821667" y="387.16" style="stroke: #000000; stroke-width: 0.8"/>
      </g>
     </g>
     <g id="text_2">
      <!-- 0.00 -->
      <g transform="translate(81.688854 401.758438) scale(0.1 -0.1)">
       <use xlink:href="#DejaVuSans-30"/>
       <use xlink:href="#DejaVuSans-2e" x="63.623047"/>
       <use xlink:href="#DejaVuSans-30" x="95.410156"/>
       <use xlink:href="#DejaVuSans-30" x="159.033203"/>
      </g>
     </g>
    </g>
    <g id="xtick_3">
     <g id="line2d_3">
      <g>
       <use xlink:href="#me8b629c118" x="128.923333" y="387.16" style="stroke: #000000; stroke-width: 0.8"/>
      </g>
     </g>
     <g id="text_3">
      <!-- 0.25 -->
      <g transform="translate(117.790521 401.758438) scale(0.1 -0.1)">
       <use xlink:href="#DejaVuSans-30"/>
       <use xlink:href="#DejaVuSans-2e" x="63.623047"/>
       <use xlink:href="#DejaVuSans-32" x="95.410156"/>
       <use xlink:href="#DejaVuSans-35" x="159.033203"/>
      </g>
     </g>
    </g>
    <g id="xtick_4">
     <g id="line2d_4">
      <g>
       <use xlink:href="#me8b629c118" x="165.025" y="387.16" style="stroke: #000000; stroke-width: 0.8"/>
      </g>
     </g>
     <g id="text_4">
      <!-- 0.50 -->
      <g transform="translate(153.892188 401.758438) scale(0.1 -0.1)">
       <use xlink:href="#DejaVuSans-30"/>
       <use xlink:href="#DejaVuSans-2e" x="63.623047"/>
       <use xlink:href="#DejaVuSans-35" x="95.410156"/>
       <use xlink:href="#DejaVuSans-30" x="159.033203"/>
      </g>
     </g>
    </g>
    <g id="xtick_5">
     <g id="line2d_5">
      <g>
       <use xlink:href="#me8b629c118" x="201.126667" y="387.16" style="stroke: #000000; stroke-width: 0.8"/>
      </g>
     </g>
     <g id="text_5">
      <!-- 0.75 -->
      <g transform="translate(189.993854 401.758438) scale(0.1 -0.1)">
       <defs>
        <path id="DejaVuSans-37" d="M 525 4666 
L 3525 4666 
L 3525 4397 
L 1831 0 
L 1172 0 
L 2766 4134 
L 525 4134 
L 525 4666 
z
" transform="scale(0.015625)"/>
       </defs>
       <use xlink:href="#DejaVuSans-30"/>
       <use xlink:href="#DejaVuSans-2e" x="63.623047"/>
       <use xlink:href="#DejaVuSans-37" x="95.410156"/>
       <use xlink:href="#DejaVuSans-35" x="159.033203"/>
      </g>
     </g>
    </g>
    <g id="xtick_6">
     <g id="line2d_6">
      <g>
       <use xlink:href="#me8b629c118" x="237.228333" y="387.16" style="stroke: #000000; stroke-width: 0.8"/>
      </g>
     </g>
     <g id="text_6">
      <!-- 1.00 -->
      <g transform="translate(226.095521 401.758438) scale(0.1 -0.1)">
       <defs>
        <path id="DejaVuSans-31" d="M 794 531 
L 1825 531 
L 1825 4091 
L 703 3866 
L 703 4441 
L 1819 4666 
L 2450 4666 
L 2450 531 
L 3481 531 
L 3481 0 
L 794 0 
L 794 531 
z
" transform="scale(0.015625)"/>
       </defs>
       <use xlink:href="#DejaVuSans-31"/>
       <use xlink:href="#DejaVuSans-2e" x="63.623047"/>
       <use xlink:href="#DejaVuSans-30" x="95.410156"/>
       <use xlink:href="#DejaVuSans-30" x="159.033203"/>
      </g>
     </g>
    </g>
    <g id="xtick_7">
     <g id="line2d_7">
      <g>
       <use xlink:href="#me8b629c118" x="273.33" y="387.16" style="stroke: #000000; stroke-width: 0.8"/>
      </g>
     </g>
     <g id="text_7">
      <!-- 1.25 -->
      <g transform="translate(262.197188 401.758438) scale(0.1 -0.1)">
       <use xlink:href="#DejaVuSans-31"/>
       <use xlink:href="#DejaVuSans-2e" x="63.623047"/>
       <use xlink:href="#DejaVuSans-32" x="95.410156"/>
       <use xlink:href="#DejaVuSans-35" x="159.033203"/>
      </g>
     </g>
    </g>
    <g id="text_8">
     <!-- $\xi$ -->
     <g transform="translate(162.225 415.438125) scale(0.1 -0.1)">
      <defs>
       <path id="DejaVuSans-Oblique-3be" d="M 2016 397 
Q 2428 394 2628 159 
Q 2844 -88 2772 -463 
Q 2700 -822 2422 -1072 
Q 2119 -1344 1609 -1344 
Q 1656 -1109 1700 -872 
Q 1913 -888 2072 -750 
Q 2194 -641 2216 -525 
Q 2247 -359 2175 -222 
Q 2100 -91 1922 -91 
Q -25 -91 241 1275 
Q 422 2213 1516 2488 
Q 663 2600 822 3413 
Q 941 4028 1678 4284 
L 1028 4284 
L 1141 4863 
L 3606 4863 
L 3494 4284 
Q 1528 4284 1350 3375 
Q 1234 2778 2881 2750 
L 2778 2219 
Q 1009 2288 819 1275 
Q 659 428 2016 397 
z
" transform="scale(0.015625)"/>
      </defs>
      <use xlink:href="#DejaVuSans-Oblique-3be" transform="translate(0 0.015625)"/>
     </g>
    </g>
   </g>
   <g id="matplotlib.axis_2">
    <g id="ytick_1">
     <g id="line2d_8">
      <defs>
       <path id="m7d00121ac7" d="M 0 0 
L -3.5 0 
" style="stroke: #000000; stroke-width: 0.8"/>
      </defs>
      <g>
       <use xlink:href="#m7d00121ac7" x="56.72" y="375.260667" style="stroke: #000000; stroke-width: 0.8"/>
      </g>
     </g>
     <g id="text_9">
      <!-- −0.2 -->
      <g transform="translate(25.437187 379.059885) scale(0.1 -0.1)">
       <use xlink:href="#DejaVuSans-2212"/>
       <use xlink:href="#DejaVuSans-30" x="83.789062"/>
       <use xlink:href="#DejaVuSans-2e" x="147.412109"/>
       <use xlink:href="#DejaVuSans-32" x="179.199219"/>
      </g>
     </g>
    </g>
    <g id="ytick_2">
     <g id="line2d_9">
      <g>
       <use xlink:href="#m7d00121ac7" x="56.72" y="327.663333" style="stroke: #000000; stroke-width: 0.8"/>
      </g>
     </g>
     <g id="text_10">
      <!-- 0.0 -->
      <g transform="translate(33.816875 331.462552) scale(0.1 -0.1)">
       <use xlink:href="#DejaVuSans-30"/>
       <use xlink:href="#DejaVuSans-2e" x="63.623047"/>
       <use xlink:href="#DejaVuSans-30" x="95.410156"/>
      </g>
     </g>
    </g>
    <g id="ytick_3">
     <g id="line2d_10">
      <g>
       <use xlink:href="#m7d00121ac7" x="56.72" y="280.066" style="stroke: #000000; stroke-width: 0.8"/>
      </g>
     </g>
     <g id="text_11">
      <!-- 0.2 -->
      <g transform="translate(33.816875 283.865219) scale(0.1 -0.1)">
       <use xlink:href="#DejaVuSans-30"/>
       <use xlink:href="#DejaVuSans-2e" x="63.623047"/>
       <use xlink:href="#DejaVuSans-32" x="95.410156"/>
      </g>
     </g>
    </g>
    <g id="ytick_4">
     <g id="line2d_11">
      <g>
       <use xlink:href="#m7d00121ac7" x="56.72" y="232.468667" style="stroke: #000000; stroke-width: 0.8"/>
      </g>
     </g>
     <g id="text_12">
      <!-- 0.4 -->
      <g transform="translate(33.816875 236.267885) scale(0.1 -0.1)">
       <defs>
        <path id="DejaVuSans-34" d="M 2419 4116 
L 825 1625 
L 2419 1625 
L 2419 4116 
z
M 2253 4666 
L 3047 4666 
L 3047 1625 
L 3713 1625 
L 3713 1100 
L 3047 1100 
L 3047 0 
L 2419 0 
L 2419 1100 
L 313 1100 
L 313 1709 
L 2253 4666 
z
" transform="scale(0.015625)"/>
       </defs>
       <use xlink:href="#DejaVuSans-30"/>
       <use xlink:href="#DejaVuSans-2e" x="63.623047"/>
       <use xlink:href="#DejaVuSans-34" x="95.410156"/>
      </g>
     </g>
    </g>
    <g id="ytick_5">
     <g id="line2d_12">
      <g>
       <use xlink:href="#m7d00121ac7" x="56.72" y="184.871333" style="stroke: #000000; stroke-width: 0.8"/>
      </g>
     </g>
     <g id="text_13">
      <!-- 0.6 -->
      <g transform="translate(33.816875 188.670552) scale(0.1 -0.1)">
       <defs>
        <path id="DejaVuSans-36" d="M 2113 2584 
Q 1688 2584 1439 2293 
Q 1191 2003 1191 1497 
Q 1191 994 1439 701 
Q 1688 409 2113 409 
Q 2538 409 2786 701 
Q 3034 994 3034 1497 
Q 3034 2003 2786 2293 
Q 2538 2584 2113 2584 
z
M 3366 4563 
L 3366 3988 
Q 3128 4100 2886 4159 
Q 2644 4219 2406 4219 
Q 1781 4219 1451 3797 
Q 1122 3375 1075 2522 
Q 1259 2794 1537 2939 
Q 1816 3084 2150 3084 
Q 2853 3084 3261 2657 
Q 3669 2231 3669 1497 
Q 3669 778 3244 343 
Q 2819 -91 2113 -91 
Q 1303 -91 875 529 
Q 447 1150 447 2328 
Q 447 3434 972 4092 
Q 1497 4750 2381 4750 
Q 2619 4750 2861 4703 
Q 3103 4656 3366 4563 
z
" transform="scale(0.015625)"/>
       </defs>
       <use xlink:href="#DejaVuSans-30"/>
       <use xlink:href="#DejaVuSans-2e" x="63.623047"/>
       <use xlink:href="#DejaVuSans-36" x="95.410156"/>
      </g>
     </g>
    </g>
    <g id="ytick_6">
     <g id="line2d_13">
      <g>
       <use xlink:href="#m7d00121ac7" x="56.72" y="137.274" style="stroke: #000000; stroke-width: 0.8"/>
      </g>
     </g>
     <g id="text_14">
      <!-- 0.8 -->
      <g transform="translate(33.816875 141.073219) scale(0.1 -0.1)">
       <defs>
        <path id="DejaVuSans-38" d="M 2034 2216 
Q 1584 2216 1326 1975 
Q 1069 1734 1069 1313 
Q 1069 891 1326 650 
Q 1584 409 2034 409 
Q 2484 409 2743 651 
Q 3003 894 3003 1313 
Q 3003 1734 2745 1975 
Q 2488 2216 2034 2216 
z
M 1403 2484 
Q 997 2584 770 2862 
Q 544 3141 544 3541 
Q 544 4100 942 4425 
Q 1341 4750 2034 4750 
Q 2731 4750 3128 4425 
Q 3525 4100 3525 3541 
Q 3525 3141 3298 2862 
Q 3072 2584 2669 2484 
Q 3125 2378 3379 2068 
Q 3634 1759 3634 1313 
Q 3634 634 3220 271 
Q 2806 -91 2034 -91 
Q 1263 -91 848 271 
Q 434 634 434 1313 
Q 434 1759 690 2068 
Q 947 2378 1403 2484 
z
M 1172 3481 
Q 1172 3119 1398 2916 
Q 1625 2713 2034 2713 
Q 2441 2713 2670 2916 
Q 2900 3119 2900 3481 
Q 2900 3844 2670 4047 
Q 2441 4250 2034 4250 
Q 1625 4250 1398 4047 
Q 1172 3844 1172 3481 
z
" transform="scale(0.015625)"/>
       </defs>
       <use xlink:href="#DejaVuSans-30"/>
       <use xlink:href="#DejaVuSans-2e" x="63.623047"/>
       <use xlink:href="#DejaVuSans-38" x="95.410156"/>
      </g>
     </g>
    </g>
    <g id="ytick_7">
     <g id="line2d_14">
      <g>
       <use xlink:href="#m7d00121ac7" x="56.72" y="89.676667" style="stroke: #000000; stroke-width: 0.8"/>
      </g>
     </g>
     <g id="text_15">
      <!-- 1.0 -->
      <g transform="translate(33.816875 93.475885) scale(0.1 -0.1)">
       <use xlink:href="#DejaVuSans-31"/>
       <use xlink:href="#DejaVuSans-2e" x="63.623047"/>
       <use xlink:href="#DejaVuSans-30" x="95.410156"/>
      </g>
     </g>
    </g>
    <g id="ytick_8">
     <g id="line2d_15">
      <g>
       <use xlink:href="#m7d00121ac7" x="56.72" y="42.079333" style="stroke: #000000; stroke-width: 0.8"/>
      </g>
     </g>
     <g id="text_16">
      <!-- 1.2 -->
      <g transform="translate(33.816875 45.878552) scale(0.1 -0.1)">
       <use xlink:href="#DejaVuSans-31"/>
       <use xlink:href="#DejaVuSans-2e" x="63.623047"/>
       <use xlink:href="#DejaVuSans-32" x="95.410156"/>
      </g>
     </g>
    </g>
    <g id="text_17">
     <!-- $\eta$ -->
     <g transform="translate(19.337187 211.87) rotate(-90) scale(0.1 -0.1)">
      <defs>
       <path id="DejaVuSans-Oblique-3b7" d="M 3703 2113 
L 3034 -1331 
L 2459 -1331 
L 3125 2094 
Q 3222 2591 3075 2838 
Q 2931 3084 2544 3084 
Q 2078 3084 1750 2788 
Q 1425 2491 1325 1978 
L 941 0 
L 363 0 
L 1044 3500 
L 1622 3500 
L 1516 2956 
Q 1781 3272 2094 3428 
Q 2403 3584 2769 3584 
Q 3372 3584 3609 3213 
Q 3844 2838 3703 2113 
z
" transform="scale(0.015625)"/>
      </defs>
      <use xlink:href="#DejaVuSans-Oblique-3b7"/>
     </g>
    </g>
   </g>
   <g id="line2d_16">
    <path d="M 92.821667 327.663333 
L 237.228333 327.663333 
L 92.821667 89.676667 
L 92.821667 327.663333 
" clip-path="url(#pf0ed510cb6)" style="fill: none; stroke: #000000; stroke-width: 1.5; stroke-linecap: square"/>
   </g>
   <g id="patch_3">
    <path d="M 56.72 387.16 
L 56.72 30.18 
" style="fill: none; stroke: #000000; stroke-width: 0.8; stroke-linejoin: miter; stroke-linecap: square"/>
   </g>
   <g id="patch_4">
    <path d="M 273.33 387.16 
L 273.33 30.18 
" style="fill: none; stroke: #000000; stroke-width: 0.8; stroke-linejoin: miter; stroke-linecap: square"/>
   </g>
   <g id="patch_5">
    <path d="M 56.72 387.16 
L 273.33 387.16 
" style="fill: none; stroke: #000000; stroke-width: 0.8; stroke-linejoin: miter; stroke-linecap: square"/>
   </g>
   <g id="patch_6">
    <path d="M 56.72 30.18 
L 273.33 30.18 
" style="fill: none; stroke: #000000; stroke-width: 0.8; stroke-linejoin: miter; stroke-linecap: square"/>
   </g>
   <g id="text_18">
    <!-- $\hat{\varphi}_{1}$ -->
    <g transform="translate(158.125 24.18) scale(0.12 -0.12)">
     <defs>
      <path id="DejaVuSans-302" d="M -1831 5119 
L -1369 5119 
L -603 3944 
L -1038 3944 
L -1600 4709 
L -2163 3944 
L -2597 3944 
L -1831 5119 
z
M -1600 3584 
L -1600 3584 
z
" transform="scale(0.015625)"/>
      <path id="DejaVuSans-Oblique-3c6" d="M 2969 3034 
Q 2766 3034 2675 2581 
L 2259 438 
Q 2553 438 2916 763 
Q 3244 1053 3375 1750 
Q 3497 2400 3300 2750 
Q 3138 3034 2969 3034 
z
M 3063 3525 
Q 3513 3525 3819 3113 
Q 4147 2672 3981 1750 
Q 3828 903 3291 400 
Q 2784 -75 2159 -75 
L 1916 -1331 
L 1344 -1331 
L 1588 -78 
Q 963 -78 641 400 
Q 309 888 475 1747 
Q 647 2641 1166 3097 
Q 1556 3438 2084 3525 
L 1984 3016 
Q 1766 2944 1538 2700 
Q 1194 2341 1081 1747 
Q 963 1116 1156 756 
Q 1334 434 1688 434 
L 2103 2581 
Q 2288 3525 3063 3525 
z
" transform="scale(0.015625)"/>
     </defs>
     <use xlink:href="#DejaVuSans-302" transform="translate(66.069824 12.015625)"/>
     <use xlink:href="#DejaVuSans-Oblique-3c6" transform="translate(0 0.4375)"/>
     <use xlink:href="#DejaVuSans-31" transform="translate(66.923828 -15.96875) scale(0.7)"/>
    </g>
   </g>
  </g>
  <g id="axes_2">
   <g id="patch_7">
    <path d="M 341.12 387.16 
L 557.73 387.16 
L 557.73 30.18 
L 341.12 30.18 
z
" style="fill: #ffffff"/>
   </g>
   <g id="Quiver_2">
    <path d="M 376.409379 327.663333 
L 376.409379 311.175254 
L 374.784804 311.987542 
L 377.221667 303.864667 
L 379.658529 311.987542 
L 378.033954 311.175254 
L 378.033954 327.663333 
L 376.409379 327.663333 
" clip-path="url(#p68634bd258)" style="fill: #ff0000"/>
    <path d="M 392.454564 327.663333 
L 392.454564 313.81955 
L 390.829989 314.631838 
L 393.266852 306.508963 
L 395.703714 314.631838 
L 394.079139 313.81955 
L 394.079139 327.663333 
L 392.454564 327.663333 
" clip-path="url(#p68634bd258)" style="fill: #ff0000"/>
    <path d="M 408.49975 327.663333 
L 408.49975 316.463847 
L 406.875175 317.276134 
L 409.312037 309.153259 
L 411.7489 317.276134 
L 410.124325 316.463847 
L 410.124325 327.663333 
L 408.49975 327.663333 
" clip-path="url(#p68634bd258)" style="fill: #ff0000"/>
    <path d="M 424.544935 327.663333 
L 424.544935 319.108143 
L 422.92036 319.920431 
L 425.357222 311.797556 
L 427.794085 319.920431 
L 426.16951 319.108143 
L 426.16951 327.663333 
L 424.544935 327.663333 
" clip-path="url(#p68634bd258)" style="fill: #ff0000"/>
    <path d="M 440.59012 327.663333 
L 440.59012 321.752439 
L 438.965545 322.564727 
L 441.402407 314.441852 
L 443.83927 322.564727 
L 442.214695 321.752439 
L 442.214695 327.663333 
L 440.59012 327.663333 
" clip-path="url(#p68634bd258)" style="fill: #ff0000"/>
    <path d="M 456.635305 327.663333 
L 456.635305 324.396736 
L 455.01073 325.209023 
L 457.447593 317.086148 
L 459.884455 325.209023 
L 458.25988 324.396736 
L 458.25988 327.663333 
L 456.635305 327.663333 
" clip-path="url(#p68634bd258)" style="fill: #ff0000"/>
    <path d="M 472.699489 327.663333 
L 472.699489 326.870044 
L 471.112911 327.663333 
L 473.492778 319.730444 
L 475.872644 327.663333 
L 474.286067 326.870044 
L 474.286067 327.663333 
L 472.699489 327.663333 
" clip-path="url(#p68634bd258)" style="fill: #ff0000"/>
    <path d="M 489.009104 327.663333 
L 489.009104 327.134474 
L 487.951385 327.663333 
L 489.537963 322.374741 
L 491.124541 327.663333 
L 490.066822 327.134474 
L 490.066822 327.663333 
L 489.009104 327.663333 
" clip-path="url(#p68634bd258)" style="fill: #ff0000"/>
    <path d="M 505.318719 327.663333 
L 505.318719 327.398904 
L 504.789859 327.663333 
L 505.583148 325.019037 
L 506.376437 327.663333 
L 505.847578 327.398904 
L 505.847578 327.663333 
L 505.318719 327.663333 
" clip-path="url(#p68634bd258)" style="fill: #ff0000"/>
    <path d="M 522.440621 327.663333 
L 522.034477 326.959872 
L 521.22219 326.959872 
L 520.816046 327.663333 
L 521.22219 328.366795 
L 522.034477 328.366795 
L 522.440621 327.663333 
L 522.034477 326.959872 
" clip-path="url(#p68634bd258)" style="fill: #ff0000"/>
    <path d="M 376.411219 301.16573 
L 377.52397 284.661092 
L 375.848434 285.362258 
L 378.826185 277.421704 
L 380.71112 285.690102 
L 379.144866 284.770373 
L 378.032114 301.275011 
L 376.411219 301.16573 
" clip-path="url(#p68634bd258)" style="fill: #ff0000"/>
    <path d="M 392.456891 301.158936 
L 393.508503 287.294215 
L 391.827147 287.981308 
L 394.87137 280.066 
L 396.686913 288.349912 
L 395.128425 287.417083 
L 394.076813 301.281804 
L 392.456891 301.158936 
" clip-path="url(#p68634bd258)" style="fill: #ff0000"/>
    <path d="M 408.502784 301.150221 
L 409.475963 289.923423 
L 407.787308 290.592378 
L 410.916556 282.710296 
L 412.642825 291.013271 
L 411.094468 290.063721 
L 410.12129 301.290519 
L 408.502784 301.150221 
" clip-path="url(#p68634bd258)" style="fill: #ff0000"/>
    <path d="M 424.549057 301.13864 
L 425.418002 292.54635 
L 423.719941 293.191054 
L 426.961741 285.354593 
L 428.568933 293.681437 
L 427.034333 292.709811 
L 426.165388 301.302101 
L 424.549057 301.13864 
" clip-path="url(#p68634bd258)" style="fill: #ff0000"/>
    <path d="M 440.596036 301.122512 
L 441.319826 295.158372 
L 439.609225 295.769025 
L 443.006926 287.998889 
L 444.447452 296.356178 
L 442.932568 295.354089 
L 442.208779 301.318229 
L 440.596036 301.122512 
" clip-path="url(#p68634bd258)" style="fill: #ff0000"/>
    <path d="M 456.644493 301.098543 
L 457.152567 297.749255 
L 455.42454 298.308701 
L 459.052111 290.643185 
L 460.243139 299.039664 
L 458.758766 297.99291 
L 458.250692 301.342198 
L 456.644493 301.098543 
" clip-path="url(#p68634bd258)" style="fill: #ff0000"/>
    <path d="M 472.699489 301.059919 
L 472.859941 300.26663 
L 471.112911 300.739015 
L 475.097296 293.287481 
L 475.872644 301.701726 
L 474.446519 300.587533 
L 474.286067 301.380822 
L 472.699489 301.059919 
" clip-path="url(#p68634bd258)" style="fill: #ff0000"/>
    <path d="M 489.009104 301.059919 
L 489.169556 300.531059 
L 487.951385 300.739015 
L 491.142481 295.931778 
L 491.124541 301.701726 
L 490.227274 300.851963 
L 490.066822 301.380822 
L 489.009104 301.059919 
" clip-path="url(#p68634bd258)" style="fill: #ff0000"/>
    <path d="M 505.318719 301.059919 
L 505.47917 300.795489 
L 504.789859 300.739015 
L 507.187667 298.576074 
L 506.376437 301.701726 
L 506.00803 301.116393 
L 505.847578 301.380822 
L 505.318719 301.059919 
" clip-path="url(#p68634bd258)" style="fill: #ff0000"/>
    <path d="M 376.416665 274.66886 
L 378.648776 258.115213 
L 376.930224 258.70312 
L 380.430704 250.978741 
L 381.760237 259.354404 
L 380.25878 258.332307 
L 378.026669 274.885955 
L 376.416665 274.66886 
" clip-path="url(#p68634bd258)" style="fill: #ff0000"/>
    <path d="M 392.463752 274.65558 
L 394.576345 260.729107 
L 392.848318 261.288553 
L 396.475889 253.623037 
L 397.666916 262.019515 
L 396.182544 260.972761 
L 394.069952 274.899235 
L 392.463752 274.65558 
" clip-path="url(#p68634bd258)" style="fill: #ff0000"/>
    <path d="M 408.511688 274.638653 
L 410.471938 263.331719 
L 408.732486 263.854559 
L 412.521074 256.267333 
L 413.534579 264.687084 
L 412.072636 263.609227 
L 410.112386 274.916162 
L 408.511688 274.638653 
" clip-path="url(#p68634bd258)" style="fill: #ff0000"/>
    <path d="M 424.561057 274.616374 
L 426.320791 265.916084 
L 424.567427 266.390182 
L 428.566259 258.91163 
L 429.344419 267.356383 
L 427.913122 266.238151 
L 426.153388 274.938441 
L 424.561057 274.616374 
" clip-path="url(#p68634bd258)" style="fill: #ff0000"/>
    <path d="M 440.613038 274.585817 
L 442.097757 268.468659 
L 440.327428 268.874846 
L 444.611444 261.555926 
L 445.063644 270.024392 
L 443.676496 268.851841 
L 442.191777 274.968998 
L 440.613038 274.585817 
" clip-path="url(#p68634bd258)" style="fill: #ff0000"/>
    <path d="M 456.670292 274.54158 
L 457.756885 270.960102 
L 455.966456 271.265749 
L 460.65663 264.200222 
L 460.630261 272.680712 
L 459.311486 271.431757 
L 458.224893 275.013235 
L 456.670292 274.54158 
" clip-path="url(#p68634bd258)" style="fill: #ff0000"/>
    <path d="M 472.739768 274.472798 
L 473.207316 273.316997 
L 471.396686 273.460787 
L 476.701815 266.844519 
L 475.914745 275.288446 
L 474.713336 273.926217 
L 474.245788 275.082017 
L 472.739768 274.472798 
" clip-path="url(#p68634bd258)" style="fill: #ff0000"/>
    <path d="M 489.009104 274.456504 
L 489.330007 273.927644 
L 487.951385 273.814696 
L 492.747 269.488815 
L 491.124541 275.740119 
L 490.387726 274.569452 
L 490.066822 275.098311 
L 489.009104 274.456504 
" clip-path="url(#p68634bd258)" style="fill: #ff0000"/>
    <path d="M 376.425501 248.173411 
L 379.789754 231.540232 
L 378.03639 232.01433 
L 382.035222 224.535778 
L 382.813382 232.980531 
L 381.382085 231.862299 
L 378.017832 248.495478 
L 376.425501 248.173411 
" clip-path="url(#p68634bd258)" style="fill: #ff0000"/>
    <path d="M 392.47481 248.15422 
L 395.666345 234.128225 
L 393.902037 234.559818 
L 398.080407 227.180074 
L 398.654287 235.641165 
L 397.250428 234.488674 
L 394.058894 248.514669 
L 392.47481 248.15422 
" clip-path="url(#p68634bd258)" style="fill: #ff0000"/>
    <path d="M 408.525897 248.130008 
L 411.499526 236.695198 
L 409.722808 237.072466 
L 414.125593 229.82437 
L 414.439651 238.299084 
L 413.071807 237.104071 
L 410.098177 248.538881 
L 408.525897 248.130008 
" clip-path="url(#p68634bd258)" style="fill: #ff0000"/>
    <path d="M 424.579921 248.098617 
L 427.271033 239.228547 
L 425.480604 239.534193 
L 430.170778 232.468667 
L 430.144409 240.949156 
L 428.825635 239.700201 
L 426.134523 248.570272 
L 424.579921 248.098617 
" clip-path="url(#p68634bd258)" style="fill: #ff0000"/>
    <path d="M 440.639132 248.056558 
L 442.951709 241.70456 
L 441.147271 241.912062 
L 446.215963 235.112963 
L 445.726926 243.579381 
L 444.478261 242.260332 
L 442.165683 248.612331 
L 440.639132 248.056558 
" clip-path="url(#p68634bd258)" style="fill: #ff0000"/>
    <path d="M 456.708265 247.997985 
L 458.493683 244.074751 
L 456.678567 244.14116 
L 462.261148 237.757259 
L 461.114535 246.159918 
L 459.972339 244.747671 
L 458.186921 248.670904 
L 456.708265 247.997985 
" clip-path="url(#p68634bd258)" style="fill: #ff0000"/>
    <path d="M 472.798334 247.913067 
L 473.81949 246.23017 
L 472.009226 246.081858 
L 478.306333 240.401556 
L 476.175887 248.610124 
L 475.208378 247.072925 
L 474.187221 248.755822 
L 472.798334 247.913067 
" clip-path="url(#p68634bd258)" style="fill: #ff0000"/>
    <path d="M 376.437398 221.679978 
L 380.951943 204.93973 
L 379.171903 205.300992 
L 383.639741 198.092815 
L 383.877515 206.570011 
L 382.52048 205.362736 
L 378.005935 222.102985 
L 376.437398 221.679978 
" clip-path="url(#p68634bd258)" style="fill: #ff0000"/>
    <path d="M 392.489551 221.655654 
L 396.785181 207.496991 
L 394.994752 207.802638 
L 399.684926 200.737111 
L 399.658557 209.217601 
L 398.339783 207.968646 
L 394.044153 222.127309 
L 392.489551 221.655654 
" clip-path="url(#p68634bd258)" style="fill: #ff0000"/>
    <path d="M 408.544574 221.625376 
L 412.567699 210.022465 
L 410.766669 210.257717 
L 415.730111 203.381407 
L 415.371444 211.85435 
L 414.102625 210.554676 
L 410.0795 222.157587 
L 408.544574 221.625376 
" clip-path="url(#p68634bd258)" style="fill: #ff0000"/>
    <path d="M 424.604212 221.586872 
L 428.280797 212.498182 
L 426.470168 212.641972 
L 431.775296 206.025704 
L 430.988227 214.469632 
L 429.786817 213.107402 
L 426.110232 222.196091 
L 424.604212 221.586872 
" clip-path="url(#p68634bd258)" style="fill: #ff0000"/>
    <path d="M 440.671666 221.536759 
L 443.89724 214.891951 
L 442.081035 214.913248 
L 447.820481 208.67 
L 446.465484 217.041582 
L 445.358723 215.601396 
L 442.133149 222.246204 
L 440.671666 221.536759 
" clip-path="url(#p68634bd258)" style="fill: #ff0000"/>
    <path d="M 456.753149 221.470104 
L 459.378824 217.14291 
L 457.568559 216.994598 
L 463.865667 211.314296 
L 461.73522 219.522865 
L 460.767711 217.985666 
L 458.142036 222.312859 
L 456.753149 221.470104 
" clip-path="url(#p68634bd258)" style="fill: #ff0000"/>
    <path d="M 376.451938 195.189041 
L 382.139232 178.317933 
L 380.340297 178.568707 
L 385.244259 171.649852 
L 384.95867 180.125572 
L 383.67869 178.836888 
L 377.991395 195.707996 
L 376.451938 195.189041 
" clip-path="url(#p68634bd258)" style="fill: #ff0000"/>
    <path d="M 392.507347 195.160484 
L 397.937627 180.841653 
L 396.130583 181.025088 
L 401.289444 174.294148 
L 400.68761 182.753297 
L 399.456636 181.417723 
L 394.026356 195.736553 
L 392.507347 195.160484 
" clip-path="url(#p68634bd258)" style="fill: #ff0000"/>
    <path d="M 408.566741 195.125494 
L 413.682114 183.323084 
L 411.868497 183.422331 
L 417.33463 176.938444 
L 416.340273 185.360478 
L 415.172706 183.969133 
L 410.057333 195.771543 
L 408.566741 195.125494 
" clip-path="url(#p68634bd258)" style="fill: #ff0000"/>
    <path d="M 424.632337 195.081977 
L 429.35606 185.740167 
L 427.539748 185.73197 
L 433.379815 179.582741 
L 431.88906 187.931216 
L 430.80583 186.473249 
L 426.082107 195.81506 
L 424.632337 195.081977 
" clip-path="url(#p68634bd258)" style="fill: #ff0000"/>
    <path d="M 440.707964 195.027141 
L 444.938157 188.055651 
L 443.127892 187.907339 
L 449.425 182.227037 
L 447.294554 190.435605 
L 446.327044 188.898406 
L 442.096851 195.869896 
L 440.707964 195.027141 
" clip-path="url(#p68634bd258)" style="fill: #ff0000"/>
    <path d="M 376.468657 168.700946 
L 383.354279 151.679367 
L 381.543649 151.823157 
L 386.848778 145.206889 
L 386.061708 153.650817 
L 384.860299 152.288587 
L 377.974676 169.310165 
L 376.468657 168.700946 
" clip-path="url(#p68634bd258)" style="fill: #ff0000"/>
    <path d="M 392.527524 168.669096 
L 399.126498 154.168677 
L 397.311382 154.235086 
L 402.893963 147.851185 
L 401.74735 156.253844 
L 400.605154 154.841597 
L 394.00618 169.342015 
L 392.527524 168.669096 
" clip-path="url(#p68634bd258)" style="fill: #ff0000"/>
    <path d="M 408.591392 168.630747 
L 414.845227 156.60648 
L 413.029128 156.577509 
L 418.939148 150.495481 
L 417.352999 158.82636 
L 416.286517 157.356097 
L 410.032682 169.380364 
L 408.591392 168.630747 
" clip-path="url(#p68634bd258)" style="fill: #ff0000"/>
    <path d="M 424.662779 168.584178 
L 430.49749 158.968392 
L 428.687226 158.82008 
L 434.984333 153.139778 
L 432.853887 161.348346 
L 431.886378 159.811147 
L 426.051666 169.426933 
L 424.662779 168.584178 
" clip-path="url(#p68634bd258)" style="fill: #ff0000"/>
    <path d="M 376.487078 142.215908 
L 384.598546 125.028541 
L 382.782684 125.069761 
L 388.453296 118.763926 
L 387.190217 127.149868 
L 386.067724 125.72191 
L 377.956256 142.909277 
L 376.487078 142.215908 
" clip-path="url(#p68634bd258)" style="fill: #ff0000"/>
    <path d="M 392.549415 142.181679 
L 400.352822 127.484242 
L 398.537035 127.439851 
L 404.498481 121.408222 
L 402.841657 129.725333 
L 401.787696 128.246069 
L 393.984289 142.943506 
L 392.549415 142.181679 
" clip-path="url(#p68634bd258)" style="fill: #ff0000"/>
    <path d="M 408.617594 142.141215 
L 416.056824 129.881133 
L 414.246559 129.732821 
L 420.543667 124.052519 
L 418.41322 132.261087 
L 417.445711 130.723888 
L 410.006481 142.98397 
L 408.617594 142.141215 
" clip-path="url(#p68634bd258)" style="fill: #ff0000"/>
    <path d="M 376.506741 115.734024 
L 385.872439 98.369692 
L 384.056981 98.313408 
L 390.057815 92.320963 
L 388.346538 100.627041 
L 387.302291 99.140904 
L 377.936593 116.505235 
L 376.506741 115.734024 
" clip-path="url(#p68634bd258)" style="fill: #ff0000"/>
    <path d="M 392.572408 115.698252 
L 401.616157 100.793873 
L 399.805892 100.645561 
L 406.103 94.965259 
L 403.972554 103.173828 
L 403.005044 101.636629 
L 393.961295 116.541007 
L 392.572408 115.698252 
" clip-path="url(#p68634bd258)" style="fill: #ff0000"/>
    <path d="M 376.527223 89.255289 
L 387.17549 71.706614 
L 385.365226 71.558302 
L 391.662333 65.878 
L 389.531887 74.086568 
L 388.564378 72.549369 
L 377.91611 90.098044 
L 376.527223 89.255289 
" clip-path="url(#p68634bd258)" style="fill: #ff0000"/>
   </g>
   <g id="matplotlib.axis_3">
    <g id="xtick_8">
     <g id="line2d_17">
      <g>
       <use xlink:href="#me8b629c118" x="341.12" y="387.16" style="stroke: #000000; stroke-width: 0.8"/>
      </g>
     </g>
     <g id="text_19">
      <!-- −0.25 -->
      <g transform="translate(325.797344 401.758438) scale(0.1 -0.1)">
       <use xlink:href="#DejaVuSans-2212"/>
       <use xlink:href="#DejaVuSans-30" x="83.789062"/>
       <use xlink:href="#DejaVuSans-2e" x="147.412109"/>
       <use xlink:href="#DejaVuSans-32" x="179.199219"/>
       <use xlink:href="#DejaVuSans-35" x="242.822266"/>
      </g>
     </g>
    </g>
    <g id="xtick_9">
     <g id="line2d_18">
      <g>
       <use xlink:href="#me8b629c118" x="377.221667" y="387.16" style="stroke: #000000; stroke-width: 0.8"/>
      </g>
     </g>
     <g id="text_20">
      <!-- 0.00 -->
      <g transform="translate(366.088854 401.758438) scale(0.1 -0.1)">
       <use xlink:href="#DejaVuSans-30"/>
       <use xlink:href="#DejaVuSans-2e" x="63.623047"/>
       <use xlink:href="#DejaVuSans-30" x="95.410156"/>
       <use xlink:href="#DejaVuSans-30" x="159.033203"/>
      </g>
     </g>
    </g>
    <g id="xtick_10">
     <g id="line2d_19">
      <g>
       <use xlink:href="#me8b629c118" x="413.323333" y="387.16" style="stroke: #000000; stroke-width: 0.8"/>
      </g>
     </g>
     <g id="text_21">
      <!-- 0.25 -->
      <g transform="translate(402.190521 401.758438) scale(0.1 -0.1)">
       <use xlink:href="#DejaVuSans-30"/>
       <use xlink:href="#DejaVuSans-2e" x="63.623047"/>
       <use xlink:href="#DejaVuSans-32" x="95.410156"/>
       <use xlink:href="#DejaVuSans-35" x="159.033203"/>
      </g>
     </g>
    </g>
    <g id="xtick_11">
     <g id="line2d_20">
      <g>
       <use xlink:href="#me8b629c118" x="449.425" y="387.16" style="stroke: #000000; stroke-width: 0.8"/>
      </g>
     </g>
     <g id="text_22">
      <!-- 0.50 -->
      <g transform="translate(438.292188 401.758438) scale(0.1 -0.1)">
       <use xlink:href="#DejaVuSans-30"/>
       <use xlink:href="#DejaVuSans-2e" x="63.623047"/>
       <use xlink:href="#DejaVuSans-35" x="95.410156"/>
       <use xlink:href="#DejaVuSans-30" x="159.033203"/>
      </g>
     </g>
    </g>
    <g id="xtick_12">
     <g id="line2d_21">
      <g>
       <use xlink:href="#me8b629c118" x="485.526667" y="387.16" style="stroke: #000000; stroke-width: 0.8"/>
      </g>
     </g>
     <g id="text_23">
      <!-- 0.75 -->
      <g transform="translate(474.393854 401.758438) scale(0.1 -0.1)">
       <use xlink:href="#DejaVuSans-30"/>
       <use xlink:href="#DejaVuSans-2e" x="63.623047"/>
       <use xlink:href="#DejaVuSans-37" x="95.410156"/>
       <use xlink:href="#DejaVuSans-35" x="159.033203"/>
      </g>
     </g>
    </g>
    <g id="xtick_13">
     <g id="line2d_22">
      <g>
       <use xlink:href="#me8b629c118" x="521.628333" y="387.16" style="stroke: #000000; stroke-width: 0.8"/>
      </g>
     </g>
     <g id="text_24">
      <!-- 1.00 -->
      <g transform="translate(510.495521 401.758438) scale(0.1 -0.1)">
       <use xlink:href="#DejaVuSans-31"/>
       <use xlink:href="#DejaVuSans-2e" x="63.623047"/>
       <use xlink:href="#DejaVuSans-30" x="95.410156"/>
       <use xlink:href="#DejaVuSans-30" x="159.033203"/>
      </g>
     </g>
    </g>
    <g id="xtick_14">
     <g id="line2d_23">
      <g>
       <use xlink:href="#me8b629c118" x="557.73" y="387.16" style="stroke: #000000; stroke-width: 0.8"/>
      </g>
     </g>
     <g id="text_25">
      <!-- 1.25 -->
      <g transform="translate(546.597188 401.758438) scale(0.1 -0.1)">
       <use xlink:href="#DejaVuSans-31"/>
       <use xlink:href="#DejaVuSans-2e" x="63.623047"/>
       <use xlink:href="#DejaVuSans-32" x="95.410156"/>
       <use xlink:href="#DejaVuSans-35" x="159.033203"/>
      </g>
     </g>
    </g>
    <g id="text_26">
     <!-- $\xi$ -->
     <g transform="translate(446.625 415.438125) scale(0.1 -0.1)">
      <use xlink:href="#DejaVuSans-Oblique-3be" transform="translate(0 0.015625)"/>
     </g>
    </g>
   </g>
   <g id="matplotlib.axis_4">
    <g id="ytick_9">
     <g id="line2d_24">
      <g>
       <use xlink:href="#m7d00121ac7" x="341.12" y="375.260667" style="stroke: #000000; stroke-width: 0.8"/>
      </g>
     </g>
     <g id="text_27">
      <!-- −0.2 -->
      <g transform="translate(309.837188 379.059885) scale(0.1 -0.1)">
       <use xlink:href="#DejaVuSans-2212"/>
       <use xlink:href="#DejaVuSans-30" x="83.789062"/>
       <use xlink:href="#DejaVuSans-2e" x="147.412109"/>
       <use xlink:href="#DejaVuSans-32" x="179.199219"/>
      </g>
     </g>
    </g>
    <g id="ytick_10">
     <g id="line2d_25">
      <g>
       <use xlink:href="#m7d00121ac7" x="341.12" y="327.663333" style="stroke: #000000; stroke-width: 0.8"/>
      </g>
     </g>
     <g id="text_28">
      <!-- 0.0 -->
      <g transform="translate(318.216875 331.462552) scale(0.1 -0.1)">
       <use xlink:href="#DejaVuSans-30"/>
       <use xlink:href="#DejaVuSans-2e" x="63.623047"/>
       <use xlink:href="#DejaVuSans-30" x="95.410156"/>
      </g>
     </g>
    </g>
    <g id="ytick_11">
     <g id="line2d_26">
      <g>
       <use xlink:href="#m7d00121ac7" x="341.12" y="280.066" style="stroke: #000000; stroke-width: 0.8"/>
      </g>
     </g>
     <g id="text_29">
      <!-- 0.2 -->
      <g transform="translate(318.216875 283.865219) scale(0.1 -0.1)">
       <use xlink:href="#DejaVuSans-30"/>
       <use xlink:href="#DejaVuSans-2e" x="63.623047"/>
       <use xlink:href="#DejaVuSans-32" x="95.410156"/>
      </g>
     </g>
    </g>
    <g id="ytick_12">
     <g id="line2d_27">
      <g>
       <use xlink:href="#m7d00121ac7" x="341.12" y="232.468667" style="stroke: #000000; stroke-width: 0.8"/>
      </g>
     </g>
     <g id="text_30">
      <!-- 0.4 -->
      <g transform="translate(318.216875 236.267885) scale(0.1 -0.1)">
       <use xlink:href="#DejaVuSans-30"/>
       <use xlink:href="#DejaVuSans-2e" x="63.623047"/>
       <use xlink:href="#DejaVuSans-34" x="95.410156"/>
      </g>
     </g>
    </g>
    <g id="ytick_13">
     <g id="line2d_28">
      <g>
       <use xlink:href="#m7d00121ac7" x="341.12" y="184.871333" style="stroke: #000000; stroke-width: 0.8"/>
      </g>
     </g>
     <g id="text_31">
      <!-- 0.6 -->
      <g transform="translate(318.216875 188.670552) scale(0.1 -0.1)">
       <use xlink:href="#DejaVuSans-30"/>
       <use xlink:href="#DejaVuSans-2e" x="63.623047"/>
       <use xlink:href="#DejaVuSans-36" x="95.410156"/>
      </g>
     </g>
    </g>
    <g id="ytick_14">
     <g id="line2d_29">
      <g>
       <use xlink:href="#m7d00121ac7" x="341.12" y="137.274" style="stroke: #000000; stroke-width: 0.8"/>
      </g>
     </g>
     <g id="text_32">
      <!-- 0.8 -->
      <g transform="translate(318.216875 141.073219) scale(0.1 -0.1)">
       <use xlink:href="#DejaVuSans-30"/>
       <use xlink:href="#DejaVuSans-2e" x="63.623047"/>
       <use xlink:href="#DejaVuSans-38" x="95.410156"/>
      </g>
     </g>
    </g>
    <g id="ytick_15">
     <g id="line2d_30">
      <g>
       <use xlink:href="#m7d00121ac7" x="341.12" y="89.676667" style="stroke: #000000; stroke-width: 0.8"/>
      </g>
     </g>
     <g id="text_33">
      <!-- 1.0 -->
      <g transform="translate(318.216875 93.475885) scale(0.1 -0.1)">
       <use xlink:href="#DejaVuSans-31"/>
       <use xlink:href="#DejaVuSans-2e" x="63.623047"/>
       <use xlink:href="#DejaVuSans-30" x="95.410156"/>
      </g>
     </g>
    </g>
    <g id="ytick_16">
     <g id="line2d_31">
      <g>
       <use xlink:href="#m7d00121ac7" x="341.12" y="42.079333" style="stroke: #000000; stroke-width: 0.8"/>
      </g>
     </g>
     <g id="text_34">
      <!-- 1.2 -->
      <g transform="translate(318.216875 45.878552) scale(0.1 -0.1)">
       <use xlink:href="#DejaVuSans-31"/>
       <use xlink:href="#DejaVuSans-2e" x="63.623047"/>
       <use xlink:href="#DejaVuSans-32" x="95.410156"/>
      </g>
     </g>
    </g>
    <g id="text_35">
     <!-- $\eta$ -->
     <g transform="translate(303.737188 211.87) rotate(-90) scale(0.1 -0.1)">
      <use xlink:href="#DejaVuSans-Oblique-3b7"/>
     </g>
    </g>
   </g>
   <g id="line2d_32">
    <path d="M 377.221667 327.663333 
L 521.628333 327.663333 
L 377.221667 89.676667 
L 377.221667 327.663333 
" clip-path="url(#p68634bd258)" style="fill: none; stroke: #000000; stroke-width: 1.5; stroke-linecap: square"/>
   </g>
   <g id="patch_8">
    <path d="M 341.12 387.16 
L 341.12 30.18 
" style="fill: none; stroke: #000000; stroke-width: 0.8; stroke-linejoin: miter; stroke-linecap: square"/>
   </g>
   <g id="patch_9">
    <path d="M 557.73 387.16 
L 557.73 30.18 
" style="fill: none; stroke: #000000; stroke-width: 0.8; stroke-linejoin: miter; stroke-linecap: square"/>
   </g>
   <g id="patch_10">
    <path d="M 341.12 387.16 
L 557.73 387.16 
" style="fill: none; stroke: #000000; stroke-width: 0.8; stroke-linejoin: miter; stroke-linecap: square"/>
   </g>
   <g id="patch_11">
    <path d="M 341.12 30.18 
L 557.73 30.18 
" style="fill: none; stroke: #000000; stroke-width: 0.8; stroke-linejoin: miter; stroke-linecap: square"/>
   </g>
   <g id="text_36">
    <!-- $\hat{\varphi}_{2}$ -->
    <g transform="translate(442.525 24.18) scale(0.12 -0.12)">
     <use xlink:href="#DejaVuSans-302" transform="translate(66.069824 12.015625)"/>
     <use xlink:href="#DejaVuSans-Oblique-3c6" transform="translate(0 0.4375)"/>
     <use xlink:href="#DejaVuSans-32" transform="translate(66.923828 -15.96875) scale(0.7)"/>
    </g>
   </g>
  </g>
  <g id="axes_3">
   <g id="patch_12">
    <path d="M 625.52 387.16 
L 842.13 387.16 
L 842.13 30.18 
L 625.52 30.18 
z
" style="fill: #ffffff"/>
   </g>
   <g id="Quiver_3">
    <path d="M 662.433954 327.663333 
L 662.02781 326.959872 
L 661.215523 326.959872 
L 660.809379 327.663333 
L 661.215523 328.366795 
L 662.02781 328.366795 
L 662.433954 327.663333 
L 662.02781 326.959872 
" clip-path="url(#pdabc6ab06a)" style="fill: #008000"/>
    <path d="M 677.402422 327.663333 
L 677.402422 327.398904 
L 676.873563 327.663333 
L 677.666852 325.019037 
L 678.460141 327.663333 
L 677.931281 327.398904 
L 677.931281 327.663333 
L 677.402422 327.663333 
" clip-path="url(#pdabc6ab06a)" style="fill: #008000"/>
    <path d="M 693.183178 327.663333 
L 693.183178 327.134474 
L 692.125459 327.663333 
L 693.712037 322.374741 
L 695.298615 327.663333 
L 694.240896 327.134474 
L 694.240896 327.663333 
L 693.183178 327.663333 
" clip-path="url(#pdabc6ab06a)" style="fill: #008000"/>
    <path d="M 708.963933 327.663333 
L 708.963933 326.870044 
L 707.377356 327.663333 
L 709.757222 319.730444 
L 712.137089 327.663333 
L 710.550511 326.870044 
L 710.550511 327.663333 
L 708.963933 327.663333 
" clip-path="url(#pdabc6ab06a)" style="fill: #008000"/>
    <path d="M 724.99012 327.663333 
L 724.99012 324.396736 
L 723.365545 325.209023 
L 725.802407 317.086148 
L 728.23927 325.209023 
L 726.614695 324.396736 
L 726.614695 327.663333 
L 724.99012 327.663333 
" clip-path="url(#pdabc6ab06a)" style="fill: #008000"/>
    <path d="M 741.035305 327.663333 
L 741.035305 321.752439 
L 739.41073 322.564727 
L 741.847593 314.441852 
L 744.284455 322.564727 
L 742.65988 321.752439 
L 742.65988 327.663333 
L 741.035305 327.663333 
" clip-path="url(#pdabc6ab06a)" style="fill: #008000"/>
    <path d="M 757.08049 327.663333 
L 757.08049 319.108143 
L 755.455915 319.920431 
L 757.892778 311.797556 
L 760.32964 319.920431 
L 758.705065 319.108143 
L 758.705065 327.663333 
L 757.08049 327.663333 
" clip-path="url(#pdabc6ab06a)" style="fill: #008000"/>
    <path d="M 773.125675 327.663333 
L 773.125675 316.463847 
L 771.5011 317.276134 
L 773.937963 309.153259 
L 776.374825 317.276134 
L 774.75025 316.463847 
L 774.75025 327.663333 
L 773.125675 327.663333 
" clip-path="url(#pdabc6ab06a)" style="fill: #008000"/>
    <path d="M 789.170861 327.663333 
L 789.170861 313.81955 
L 787.546286 314.631838 
L 789.983148 306.508963 
L 792.420011 314.631838 
L 790.795436 313.81955 
L 790.795436 327.663333 
L 789.170861 327.663333 
" clip-path="url(#pdabc6ab06a)" style="fill: #008000"/>
    <path d="M 805.216046 327.663333 
L 805.216046 311.175254 
L 803.591471 311.987542 
L 806.028333 303.864667 
L 808.465196 311.987542 
L 806.840621 311.175254 
L 806.840621 327.663333 
L 805.216046 327.663333 
" clip-path="url(#pdabc6ab06a)" style="fill: #008000"/>
    <path d="M 660.809379 301.22037 
L 661.215523 301.923832 
L 662.02781 301.923832 
L 662.433954 301.22037 
L 662.02781 300.516909 
L 661.215523 300.516909 
L 660.809379 301.22037 
L 661.215523 301.923832 
" clip-path="url(#pdabc6ab06a)" style="fill: #008000"/>
    <path d="M 677.402422 301.380822 
L 677.24197 301.116393 
L 676.873563 301.701726 
L 676.062333 298.576074 
L 678.460141 300.739015 
L 677.77083 300.795489 
L 677.931281 301.059919 
L 677.402422 301.380822 
" clip-path="url(#pdabc6ab06a)" style="fill: #008000"/>
    <path d="M 693.183178 301.380822 
L 693.022726 300.851963 
L 692.125459 301.701726 
L 692.107519 295.931778 
L 695.298615 300.739015 
L 694.080444 300.531059 
L 694.240896 301.059919 
L 693.183178 301.380822 
" clip-path="url(#pdabc6ab06a)" style="fill: #008000"/>
    <path d="M 708.963933 301.380822 
L 708.803481 300.587533 
L 707.377356 301.701726 
L 708.152704 293.287481 
L 712.137089 300.739015 
L 710.390059 300.26663 
L 710.550511 301.059919 
L 708.963933 301.380822 
" clip-path="url(#pdabc6ab06a)" style="fill: #008000"/>
    <path d="M 724.999308 301.342198 
L 724.491234 297.99291 
L 723.006861 299.039664 
L 724.197889 290.643185 
L 727.82546 298.308701 
L 726.097433 297.749255 
L 726.605507 301.098543 
L 724.999308 301.342198 
" clip-path="url(#pdabc6ab06a)" style="fill: #008000"/>
    <path d="M 741.041221 301.318229 
L 740.317432 295.354089 
L 738.802548 296.356178 
L 740.243074 287.998889 
L 743.640775 295.769025 
L 741.930174 295.158372 
L 742.653964 301.122512 
L 741.041221 301.318229 
" clip-path="url(#pdabc6ab06a)" style="fill: #008000"/>
    <path d="M 757.084612 301.302101 
L 756.215667 292.709811 
L 754.681067 293.681437 
L 756.288259 285.354593 
L 759.530059 293.191054 
L 757.831998 292.54635 
L 758.700943 301.13864 
L 757.084612 301.302101 
" clip-path="url(#pdabc6ab06a)" style="fill: #008000"/>
    <path d="M 773.12871 301.290519 
L 772.155532 290.063721 
L 770.607175 291.013271 
L 772.333444 282.710296 
L 775.462692 290.592378 
L 773.774037 289.923423 
L 774.747216 301.150221 
L 773.12871 301.290519 
" clip-path="url(#pdabc6ab06a)" style="fill: #008000"/>
    <path d="M 789.173187 301.281804 
L 788.121575 287.417083 
L 786.563087 288.349912 
L 788.37863 280.066 
L 791.422853 287.981308 
L 789.741497 287.294215 
L 790.793109 301.158936 
L 789.173187 301.281804 
" clip-path="url(#pdabc6ab06a)" style="fill: #008000"/>
    <path d="M 661.621667 275.098311 
L 661.300763 275.098311 
L 661.621667 275.740119 
L 658.41263 274.777407 
L 661.621667 273.814696 
L 661.300763 274.456504 
L 661.621667 274.456504 
L 661.621667 275.098311 
" clip-path="url(#pdabc6ab06a)" style="fill: #008000"/>
    <path d="M 677.402422 275.098311 
L 677.081519 274.833881 
L 676.873563 275.740119 
L 674.457815 272.133111 
L 678.460141 273.814696 
L 677.610378 274.192074 
L 677.931281 274.456504 
L 677.402422 275.098311 
" clip-path="url(#pdabc6ab06a)" style="fill: #008000"/>
    <path d="M 693.183178 275.098311 
L 692.862274 274.569452 
L 692.125459 275.740119 
L 690.503 269.488815 
L 695.298615 273.814696 
L 693.919993 273.927644 
L 694.240896 274.456504 
L 693.183178 275.098311 
" clip-path="url(#pdabc6ab06a)" style="fill: #008000"/>
    <path d="M 709.004212 275.082017 
L 708.536664 273.926217 
L 707.335255 275.288446 
L 706.548185 266.844519 
L 711.853314 273.460787 
L 710.042684 273.316997 
L 710.510232 274.472798 
L 709.004212 275.082017 
" clip-path="url(#pdabc6ab06a)" style="fill: #008000"/>
    <path d="M 725.025107 275.013235 
L 723.938514 271.431757 
L 722.619739 272.680712 
L 722.59337 264.200222 
L 727.283544 271.265749 
L 725.493115 270.960102 
L 726.579708 274.54158 
L 725.025107 275.013235 
" clip-path="url(#pdabc6ab06a)" style="fill: #008000"/>
    <path d="M 741.058223 274.968998 
L 739.573504 268.851841 
L 738.186356 270.024392 
L 738.638556 261.555926 
L 742.922572 268.874846 
L 741.152243 268.468659 
L 742.636962 274.585817 
L 741.058223 274.968998 
" clip-path="url(#pdabc6ab06a)" style="fill: #008000"/>
    <path d="M 757.096612 274.938441 
L 755.336878 266.238151 
L 753.905581 267.356383 
L 754.683741 258.91163 
L 758.682573 266.390182 
L 756.929209 265.916084 
L 758.688943 274.616374 
L 757.096612 274.938441 
" clip-path="url(#pdabc6ab06a)" style="fill: #008000"/>
    <path d="M 773.137614 274.916162 
L 771.177364 263.609227 
L 769.715421 264.687084 
L 770.728926 256.267333 
L 774.517514 263.854559 
L 772.778062 263.331719 
L 774.738312 274.638653 
L 773.137614 274.916162 
" clip-path="url(#pdabc6ab06a)" style="fill: #008000"/>
    <path d="M 661.621667 248.8158 
L 661.140311 248.8158 
L 661.621667 249.778511 
L 656.808111 248.334444 
L 661.621667 246.890378 
L 661.140311 247.853089 
L 661.621667 247.853089 
L 661.621667 248.8158 
" clip-path="url(#pdabc6ab06a)" style="fill: #008000"/>
    <path d="M 677.402422 248.8158 
L 676.921067 248.55137 
L 676.873563 249.778511 
L 672.853296 245.690148 
L 678.460141 246.890378 
L 677.449926 247.588659 
L 677.931281 247.853089 
L 677.402422 248.8158 
" clip-path="url(#pdabc6ab06a)" style="fill: #008000"/>
    <path d="M 693.183178 248.8158 
L 692.701822 248.286941 
L 692.125459 249.778511 
L 688.898481 243.045852 
L 695.298615 246.890378 
L 693.759541 247.32423 
L 694.240896 247.853089 
L 693.183178 248.8158 
" clip-path="url(#pdabc6ab06a)" style="fill: #008000"/>
    <path d="M 709.062779 248.755822 
L 708.041622 247.072925 
L 707.074113 248.610124 
L 704.943667 240.401556 
L 711.240774 246.081858 
L 709.43051 246.23017 
L 710.451666 247.913067 
L 709.062779 248.755822 
" clip-path="url(#pdabc6ab06a)" style="fill: #008000"/>
    <path d="M 725.063079 248.670904 
L 723.277661 244.747671 
L 722.135465 246.159918 
L 720.988852 237.757259 
L 726.571433 244.14116 
L 724.756317 244.074751 
L 726.541735 247.997985 
L 725.063079 248.670904 
" clip-path="url(#pdabc6ab06a)" style="fill: #008000"/>
    <path d="M 741.084317 248.612331 
L 738.771739 242.260332 
L 737.523074 243.579381 
L 737.034037 235.112963 
L 742.102729 241.912062 
L 740.298291 241.70456 
L 742.610868 248.056558 
L 741.084317 248.612331 
" clip-path="url(#pdabc6ab06a)" style="fill: #008000"/>
    <path d="M 757.115477 248.570272 
L 754.424365 239.700201 
L 753.105591 240.949156 
L 753.079222 232.468667 
L 757.769396 239.534193 
L 755.978967 239.228547 
L 758.670079 248.098617 
L 757.115477 248.570272 
" clip-path="url(#pdabc6ab06a)" style="fill: #008000"/>
    <path d="M 661.621667 222.533289 
L 660.979859 222.533289 
L 661.621667 223.816904 
L 655.203593 221.891481 
L 661.621667 219.966059 
L 660.979859 221.249674 
L 661.621667 221.249674 
L 661.621667 222.533289 
" clip-path="url(#pdabc6ab06a)" style="fill: #008000"/>
    <path d="M 677.402422 222.533289 
L 676.760615 222.268859 
L 676.873563 223.816904 
L 671.248778 219.247185 
L 678.460141 219.966059 
L 677.289474 220.985244 
L 677.931281 221.249674 
L 677.402422 222.533289 
" clip-path="url(#pdabc6ab06a)" style="fill: #008000"/>
    <path d="M 693.195478 222.518361 
L 692.419322 221.878796 
L 692.013084 223.649114 
L 687.293963 216.602889 
L 695.112436 219.887836 
L 693.452439 220.625037 
L 694.228596 221.264602 
L 693.195478 222.518361 
" clip-path="url(#pdabc6ab06a)" style="fill: #008000"/>
    <path d="M 709.125728 222.402389 
L 707.305823 220.152944 
L 706.553743 221.806253 
L 703.339148 213.958593 
L 710.342706 218.740807 
L 708.568811 219.131129 
L 710.388716 221.380574 
L 709.125728 222.402389 
" clip-path="url(#pdabc6ab06a)" style="fill: #008000"/>
    <path d="M 725.107964 222.312859 
L 722.482289 217.985666 
L 721.51478 219.522865 
L 719.384333 211.314296 
L 725.681441 216.994598 
L 723.871176 217.14291 
L 726.496851 221.470104 
L 725.107964 222.312859 
" clip-path="url(#pdabc6ab06a)" style="fill: #008000"/>
    <path d="M 741.116851 222.246204 
L 737.891277 215.601396 
L 736.784516 217.041582 
L 735.429519 208.67 
L 741.168965 214.913248 
L 739.35276 214.891951 
L 742.578334 221.536759 
L 741.116851 222.246204 
" clip-path="url(#pdabc6ab06a)" style="fill: #008000"/>
    <path d="M 661.621667 196.250778 
L 660.819407 196.250778 
L 661.621667 197.855296 
L 653.599074 195.448519 
L 661.621667 193.041741 
L 660.819407 194.646259 
L 661.621667 194.646259 
L 661.621667 196.250778 
" clip-path="url(#pdabc6ab06a)" style="fill: #008000"/>
    <path d="M 677.412573 196.21998 
L 676.333137 195.864192 
L 676.596042 197.661394 
L 669.644259 192.804222 
L 678.121713 193.032623 
L 676.841694 194.321268 
L 677.92113 194.677057 
L 677.412573 196.21998 
" clip-path="url(#pdabc6ab06a)" style="fill: #008000"/>
    <path d="M 693.264967 196.126707 
L 691.346069 194.861745 
L 691.130117 196.665192 
L 685.689444 190.159926 
L 693.812537 192.596062 
L 692.240209 193.505369 
L 694.159107 194.77033 
L 693.264967 196.126707 
" clip-path="url(#pdabc6ab06a)" style="fill: #008000"/>
    <path d="M 709.186086 196.026113 
L 706.361841 193.233446 
L 705.797163 194.95977 
L 701.73463 187.51563 
L 709.223978 191.494205 
L 707.504112 192.078257 
L 710.328358 194.870924 
L 709.186086 196.026113 
" clip-path="url(#pdabc6ab06a)" style="fill: #008000"/>
    <path d="M 725.155221 195.939397 
L 721.550532 191.186885 
L 720.747038 192.815827 
L 717.779815 184.871333 
L 724.630154 189.870558 
L 722.844904 190.205129 
L 726.449593 194.95764 
L 725.155221 195.939397 
" clip-path="url(#pdabc6ab06a)" style="fill: #008000"/>
    <path d="M 661.621667 169.817843 
L 659.305143 169.817843 
L 660.117431 171.442418 
L 651.994556 169.005556 
L 660.117431 166.568693 
L 659.305143 168.193268 
L 661.621667 168.193268 
L 661.621667 169.817843 
" clip-path="url(#pdabc6ab06a)" style="fill: #008000"/>
    <path d="M 677.451708 169.788833 
L 674.874095 169.080836 
L 675.227084 170.862535 
L 668.039741 166.361259 
L 676.51795 166.162869 
L 675.304384 167.51428 
L 677.881996 168.222278 
L 677.451708 169.788833 
" clip-path="url(#pdabc6ab06a)" style="fill: #008000"/>
    <path d="M 693.320939 169.717492 
L 690.101256 167.948779 
L 690.030997 169.76375 
L 684.084926 163.716963 
L 692.377584 165.492131 
L 690.883452 166.524907 
L 694.103135 168.293619 
L 693.320939 169.717492 
" clip-path="url(#pdabc6ab06a)" style="fill: #008000"/>
    <path d="M 709.240664 169.632435 
L 705.25547 166.348574 
L 704.849232 168.118892 
L 700.130111 161.072667 
L 707.948584 164.357614 
L 706.288587 165.094814 
L 710.273781 168.378676 
L 709.240664 169.632435 
" clip-path="url(#pdabc6ab06a)" style="fill: #008000"/>
    <path d="M 661.621667 143.37488 
L 657.700625 143.37488 
L 658.512912 144.999455 
L 650.390037 142.562593 
L 658.512912 140.12573 
L 657.700625 141.750305 
L 661.621667 141.750305 
L 661.621667 143.37488 
" clip-path="url(#pdabc6ab06a)" style="fill: #008000"/>
    <path d="M 677.480702 143.353263 
L 673.365103 142.384315 
L 673.783474 144.151805 
L 666.435222 139.918296 
L 674.900373 139.407784 
L 673.737403 140.802975 
L 677.853002 141.771922 
L 677.480702 143.353263 
" clip-path="url(#pdabc6ab06a)" style="fill: #008000"/>
    <path d="M 693.366 143.297487 
L 688.748419 141.123225 
L 688.79124 142.93905 
L 682.480407 137.274 
L 690.86746 138.529684 
L 689.440492 139.653436 
L 694.058074 141.827698 
L 693.366 143.297487 
" clip-path="url(#pdabc6ab06a)" style="fill: #008000"/>
    <path d="M 661.621667 116.931917 
L 656.096106 116.931917 
L 656.908394 118.556492 
L 648.785519 116.11963 
L 656.908394 113.682767 
L 656.096106 115.307342 
L 661.621667 115.307342 
L 661.621667 116.931917 
" clip-path="url(#pdabc6ab06a)" style="fill: #008000"/>
    <path d="M 677.502959 116.915211 
L 671.827045 115.745951 
L 672.294841 117.501007 
L 664.830704 113.475333 
L 673.278199 112.727517 
L 672.154831 114.154788 
L 677.830745 115.324048 
L 677.502959 116.915211 
" clip-path="url(#pdabc6ab06a)" style="fill: #008000"/>
    <path d="M 661.621667 90.488954 
L 654.491587 90.488954 
L 655.303875 92.113529 
L 647.181 89.676667 
L 655.303875 87.239804 
L 654.491587 88.864379 
L 661.621667 88.864379 
L 661.621667 90.488954 
" clip-path="url(#pdabc6ab06a)" style="fill: #008000"/>
   </g>
   <g id="matplotlib.axis_5">
    <g id="xtick_15">
     <g id="line2d_33">
      <g>
       <use xlink:href="#me8b629c118" x="625.52" y="387.16" style="stroke: #000000; stroke-width: 0.8"/>
      </g>
     </g>
     <g id="text_37">
      <!-- −0.25 -->
      <g transform="translate(610.197344 401.758438) scale(0.1 -0.1)">
       <use xlink:href="#DejaVuSans-2212"/>
       <use xlink:href="#DejaVuSans-30" x="83.789062"/>
       <use xlink:href="#DejaVuSans-2e" x="147.412109"/>
       <use xlink:href="#DejaVuSans-32" x="179.199219"/>
       <use xlink:href="#DejaVuSans-35" x="242.822266"/>
      </g>
     </g>
    </g>
    <g id="xtick_16">
     <g id="line2d_34">
      <g>
       <use xlink:href="#me8b629c118" x="661.621667" y="387.16" style="stroke: #000000; stroke-width: 0.8"/>
      </g>
     </g>
     <g id="text_38">
      <!-- 0.00 -->
      <g transform="translate(650.488854 401.758438) scale(0.1 -0.1)">
       <use xlink:href="#DejaVuSans-30"/>
       <use xlink:href="#DejaVuSans-2e" x="63.623047"/>
       <use xlink:href="#DejaVuSans-30" x="95.410156"/>
       <use xlink:href="#DejaVuSans-30" x="159.033203"/>
      </g>
     </g>
    </g>
    <g id="xtick_17">
     <g id="line2d_35">
      <g>
       <use xlink:href="#me8b629c118" x="697.723333" y="387.16" style="stroke: #000000; stroke-width: 0.8"/>
      </g>
     </g>
     <g id="text_39">
      <!-- 0.25 -->
      <g transform="translate(686.590521 401.758438) scale(0.1 -0.1)">
       <use xlink:href="#DejaVuSans-30"/>
       <use xlink:href="#DejaVuSans-2e" x="63.623047"/>
       <use xlink:href="#DejaVuSans-32" x="95.410156"/>
       <use xlink:href="#DejaVuSans-35" x="159.033203"/>
      </g>
     </g>
    </g>
    <g id="xtick_18">
     <g id="line2d_36">
      <g>
       <use xlink:href="#me8b629c118" x="733.825" y="387.16" style="stroke: #000000; stroke-width: 0.8"/>
      </g>
     </g>
     <g id="text_40">
      <!-- 0.50 -->
      <g transform="translate(722.692187 401.758438) scale(0.1 -0.1)">
       <use xlink:href="#DejaVuSans-30"/>
       <use xlink:href="#DejaVuSans-2e" x="63.623047"/>
       <use xlink:href="#DejaVuSans-35" x="95.410156"/>
       <use xlink:href="#DejaVuSans-30" x="159.033203"/>
      </g>
     </g>
    </g>
    <g id="xtick_19">
     <g id="line2d_37">
      <g>
       <use xlink:href="#me8b629c118" x="769.926667" y="387.16" style="stroke: #000000; stroke-width: 0.8"/>
      </g>
     </g>
     <g id="text_41">
      <!-- 0.75 -->
      <g transform="translate(758.793854 401.758438) scale(0.1 -0.1)">
       <use xlink:href="#DejaVuSans-30"/>
       <use xlink:href="#DejaVuSans-2e" x="63.623047"/>
       <use xlink:href="#DejaVuSans-37" x="95.410156"/>
       <use xlink:href="#DejaVuSans-35" x="159.033203"/>
      </g>
     </g>
    </g>
    <g id="xtick_20">
     <g id="line2d_38">
      <g>
       <use xlink:href="#me8b629c118" x="806.028333" y="387.16" style="stroke: #000000; stroke-width: 0.8"/>
      </g>
     </g>
     <g id="text_42">
      <!-- 1.00 -->
      <g transform="translate(794.895521 401.758438) scale(0.1 -0.1)">
       <use xlink:href="#DejaVuSans-31"/>
       <use xlink:href="#DejaVuSans-2e" x="63.623047"/>
       <use xlink:href="#DejaVuSans-30" x="95.410156"/>
       <use xlink:href="#DejaVuSans-30" x="159.033203"/>
      </g>
     </g>
    </g>
    <g id="xtick_21">
     <g id="line2d_39">
      <g>
       <use xlink:href="#me8b629c118" x="842.13" y="387.16" style="stroke: #000000; stroke-width: 0.8"/>
      </g>
     </g>
     <g id="text_43">
      <!-- 1.25 -->
      <g transform="translate(830.997187 401.758438) scale(0.1 -0.1)">
       <use xlink:href="#DejaVuSans-31"/>
       <use xlink:href="#DejaVuSans-2e" x="63.623047"/>
       <use xlink:href="#DejaVuSans-32" x="95.410156"/>
       <use xlink:href="#DejaVuSans-35" x="159.033203"/>
      </g>
     </g>
    </g>
    <g id="text_44">
     <!-- $\xi$ -->
     <g transform="translate(731.025 415.438125) scale(0.1 -0.1)">
      <use xlink:href="#DejaVuSans-Oblique-3be" transform="translate(0 0.015625)"/>
     </g>
    </g>
   </g>
   <g id="matplotlib.axis_6">
    <g id="ytick_17">
     <g id="line2d_40">
      <g>
       <use xlink:href="#m7d00121ac7" x="625.52" y="375.260667" style="stroke: #000000; stroke-width: 0.8"/>
      </g>
     </g>
     <g id="text_45">
      <!-- −0.2 -->
      <g transform="translate(594.237187 379.059885) scale(0.1 -0.1)">
       <use xlink:href="#DejaVuSans-2212"/>
       <use xlink:href="#DejaVuSans-30" x="83.789062"/>
       <use xlink:href="#DejaVuSans-2e" x="147.412109"/>
       <use xlink:href="#DejaVuSans-32" x="179.199219"/>
      </g>
     </g>
    </g>
    <g id="ytick_18">
     <g id="line2d_41">
      <g>
       <use xlink:href="#m7d00121ac7" x="625.52" y="327.663333" style="stroke: #000000; stroke-width: 0.8"/>
      </g>
     </g>
     <g id="text_46">
      <!-- 0.0 -->
      <g transform="translate(602.616875 331.462552) scale(0.1 -0.1)">
       <use xlink:href="#DejaVuSans-30"/>
       <use xlink:href="#DejaVuSans-2e" x="63.623047"/>
       <use xlink:href="#DejaVuSans-30" x="95.410156"/>
      </g>
     </g>
    </g>
    <g id="ytick_19">
     <g id="line2d_42">
      <g>
       <use xlink:href="#m7d00121ac7" x="625.52" y="280.066" style="stroke: #000000; stroke-width: 0.8"/>
      </g>
     </g>
     <g id="text_47">
      <!-- 0.2 -->
      <g transform="translate(602.616875 283.865219) scale(0.1 -0.1)">
       <use xlink:href="#DejaVuSans-30"/>
       <use xlink:href="#DejaVuSans-2e" x="63.623047"/>
       <use xlink:href="#DejaVuSans-32" x="95.410156"/>
      </g>
     </g>
    </g>
    <g id="ytick_20">
     <g id="line2d_43">
      <g>
       <use xlink:href="#m7d00121ac7" x="625.52" y="232.468667" style="stroke: #000000; stroke-width: 0.8"/>
      </g>
     </g>
     <g id="text_48">
      <!-- 0.4 -->
      <g transform="translate(602.616875 236.267885) scale(0.1 -0.1)">
       <use xlink:href="#DejaVuSans-30"/>
       <use xlink:href="#DejaVuSans-2e" x="63.623047"/>
       <use xlink:href="#DejaVuSans-34" x="95.410156"/>
      </g>
     </g>
    </g>
    <g id="ytick_21">
     <g id="line2d_44">
      <g>
       <use xlink:href="#m7d00121ac7" x="625.52" y="184.871333" style="stroke: #000000; stroke-width: 0.8"/>
      </g>
     </g>
     <g id="text_49">
      <!-- 0.6 -->
      <g transform="translate(602.616875 188.670552) scale(0.1 -0.1)">
       <use xlink:href="#DejaVuSans-30"/>
       <use xlink:href="#DejaVuSans-2e" x="63.623047"/>
       <use xlink:href="#DejaVuSans-36" x="95.410156"/>
      </g>
     </g>
    </g>
    <g id="ytick_22">
     <g id="line2d_45">
      <g>
       <use xlink:href="#m7d00121ac7" x="625.52" y="137.274" style="stroke: #000000; stroke-width: 0.8"/>
      </g>
     </g>
     <g id="text_50">
      <!-- 0.8 -->
      <g transform="translate(602.616875 141.073219) scale(0.1 -0.1)">
       <use xlink:href="#DejaVuSans-30"/>
       <use xlink:href="#DejaVuSans-2e" x="63.623047"/>
       <use xlink:href="#DejaVuSans-38" x="95.410156"/>
      </g>
     </g>
    </g>
    <g id="ytick_23">
     <g id="line2d_46">
      <g>
       <use xlink:href="#m7d00121ac7" x="625.52" y="89.676667" style="stroke: #000000; stroke-width: 0.8"/>
      </g>
     </g>
     <g id="text_51">
      <!-- 1.0 -->
      <g transform="translate(602.616875 93.475885) scale(0.1 -0.1)">
       <use xlink:href="#DejaVuSans-31"/>
       <use xlink:href="#DejaVuSans-2e" x="63.623047"/>
       <use xlink:href="#DejaVuSans-30" x="95.410156"/>
      </g>
     </g>
    </g>
    <g id="ytick_24">
     <g id="line2d_47">
      <g>
       <use xlink:href="#m7d00121ac7" x="625.52" y="42.079333" style="stroke: #000000; stroke-width: 0.8"/>
      </g>
     </g>
     <g id="text_52">
      <!-- 1.2 -->
      <g transform="translate(602.616875 45.878552) scale(0.1 -0.1)">
       <use xlink:href="#DejaVuSans-31"/>
       <use xlink:href="#DejaVuSans-2e" x="63.623047"/>
       <use xlink:href="#DejaVuSans-32" x="95.410156"/>
      </g>
     </g>
    </g>
    <g id="text_53">
     <!-- $\eta$ -->
     <g transform="translate(588.137187 211.87) rotate(-90) scale(0.1 -0.1)">
      <use xlink:href="#DejaVuSans-Oblique-3b7"/>
     </g>
    </g>
   </g>
   <g id="line2d_48">
    <path d="M 661.621667 327.663333 
L 806.028333 327.663333 
L 661.621667 89.676667 
L 661.621667 327.663333 
" clip-path="url(#pdabc6ab06a)" style="fill: none; stroke: #000000; stroke-width: 1.5; stroke-linecap: square"/>
   </g>
   <g id="patch_13">
    <path d="M 625.52 387.16 
L 625.52 30.18 
" style="fill: none; stroke: #000000; stroke-width: 0.8; stroke-linejoin: miter; stroke-linecap: square"/>
   </g>
   <g id="patch_14">
    <path d="M 842.13 387.16 
L 842.13 30.18 
" style="fill: none; stroke: #000000; stroke-width: 0.8; stroke-linejoin: miter; stroke-linecap: square"/>
   </g>
   <g id="patch_15">
    <path d="M 625.52 387.16 
L 842.13 387.16 
" style="fill: none; stroke: #000000; stroke-width: 0.8; stroke-linejoin: miter; stroke-linecap: square"/>
   </g>
   <g id="patch_16">
    <path d="M 625.52 30.18 
L 842.13 30.18 
" style="fill: none; stroke: #000000; stroke-width: 0.8; stroke-linejoin: miter; stroke-linecap: square"/>
   </g>
   <g id="text_54">
    <!-- $\hat{\varphi}_{3}$ -->
    <g transform="translate(726.925 24.18) scale(0.12 -0.12)">
     <defs>
      <path id="DejaVuSans-33" d="M 2597 2516 
Q 3050 2419 3304 2112 
Q 3559 1806 3559 1356 
Q 3559 666 3084 287 
Q 2609 -91 1734 -91 
Q 1441 -91 1130 -33 
Q 819 25 488 141 
L 488 750 
Q 750 597 1062 519 
Q 1375 441 1716 441 
Q 2309 441 2620 675 
Q 2931 909 2931 1356 
Q 2931 1769 2642 2001 
Q 2353 2234 1838 2234 
L 1294 2234 
L 1294 2753 
L 1863 2753 
Q 2328 2753 2575 2939 
Q 2822 3125 2822 3475 
Q 2822 3834 2567 4026 
Q 2313 4219 1838 4219 
Q 1578 4219 1281 4162 
Q 984 4106 628 3988 
L 628 4550 
Q 988 4650 1302 4700 
Q 1616 4750 1894 4750 
Q 2613 4750 3031 4423 
Q 3450 4097 3450 3541 
Q 3450 3153 3228 2886 
Q 3006 2619 2597 2516 
z
" transform="scale(0.015625)"/>
     </defs>
     <use xlink:href="#DejaVuSans-302" transform="translate(66.069824 12.015625)"/>
     <use xlink:href="#DejaVuSans-Oblique-3c6" transform="translate(0 0.4375)"/>
     <use xlink:href="#DejaVuSans-33" transform="translate(66.923828 -15.96875) scale(0.7)"/>
    </g>
   </g>
  </g>
 </g>
 <defs>
  <clipPath id="pf0ed510cb6">
   <rect x="56.72" y="30.18" width="216.61" height="356.98"/>
  </clipPath>
  <clipPath id="p68634bd258">
   <rect x="341.12" y="30.18" width="216.61" height="356.98"/>
  </clipPath>
  <clipPath id="pdabc6ab06a">
   <rect x="625.52" y="30.18" width="216.61" height="356.98"/>
  </clipPath>
 </defs>
</svg>
