<?xml version="1.0" encoding="utf-8" standalone="no"?>
<!DOCTYPE svg PUBLIC "-//W3C//DTD SVG 1.1//EN"
  "http://www.w3.org/Graphics/SVG/1.1/DTD/svg11.dtd">
<svg xmlns:xlink="http://www.w3.org/1999/xlink" width="576pt" height="432pt" viewBox="0 0 576 432" xmlns="http://www.w3.org/2000/svg" version="1.1">
 <metadata>
  <rdf:RDF xmlns:dc="http://purl.org/dc/elements/1.1/" xmlns:cc="http://creativecommons.org/ns#" xmlns:rdf="http://www.w3.org/1999/02/22-rdf-syntax-ns#">
   <cc:Work>
    <dc:type rdf:resource="http://purl.org/dc/dcmitype/StillImage"/>
    <dc:date>2024-12-05T18:36:33.566865</dc:date>
    <dc:format>image/svg+xml</dc:format>
    <dc:creator>
     <cc:Agent>
      <dc:title>Matplotlib v3.8.3, https://matplotlib.org/</dc:title>
     </cc:Agent>
    </dc:creator>
   </cc:Work>
  </rdf:RDF>
 </metadata>
 <defs>
  <style type="text/css">*{stroke-linejoin: round; stroke-linecap: butt}</style>
 </defs>
 <g id="figure_1">
  <g id="patch_1">
   <path d="M 0 432 
L 576 432 
L 576 0 
L 0 0 
z
" style="fill: #ffffff"/>
  </g>
  <g id="axes_1">
   <g id="patch_2">
    <path d="M 56.9 390.04 
L 563.585568 390.04 
L 563.585568 21.72 
L 56.9 21.72 
z
" style="fill: #ffffff"/>
   </g>
   <g id="matplotlib.axis_1">
    <g id="xtick_1">
     <g id="line2d_1">
      <path d="M 64.859977 390.04 
L 64.859977 21.72 
" clip-path="url(#p1196d11a79)" style="fill: none; stroke: #b0b0b0; stroke-width: 0.8; stroke-linecap: square"/>
     </g>
     <g id="line2d_2">
      <defs>
       <path id="mecf1340649" d="M 0 0 
L 0 3.5 
" style="stroke: #000000; stroke-width: 0.8"/>
      </defs>
      <g>
       <use xlink:href="#mecf1340649" x="64.859977" y="390.04" style="stroke: #000000; stroke-width: 0.8"/>
      </g>
     </g>
     <g id="text_1">
      <!-- 0.0000 -->
      <g transform="translate(47.364665 404.638438) scale(0.1 -0.1)">
       <defs>
        <path id="DejaVuSans-30" d="M 2034 4250 
Q 1547 4250 1301 3770 
Q 1056 3291 1056 2328 
Q 1056 1369 1301 889 
Q 1547 409 2034 409 
Q 2525 409 2770 889 
Q 3016 1369 3016 2328 
Q 3016 3291 2770 3770 
Q 2525 4250 2034 4250 
z
M 2034 4750 
Q 2819 4750 3233 4129 
Q 3647 3509 3647 2328 
Q 3647 1150 3233 529 
Q 2819 -91 2034 -91 
Q 1250 -91 836 529 
Q 422 1150 422 2328 
Q 422 3509 836 4129 
Q 1250 4750 2034 4750 
z
" transform="scale(0.015625)"/>
        <path id="DejaVuSans-2e" d="M 684 794 
L 1344 794 
L 1344 0 
L 684 0 
L 684 794 
z
" transform="scale(0.015625)"/>
       </defs>
       <use xlink:href="#DejaVuSans-30"/>
       <use xlink:href="#DejaVuSans-2e" x="63.623047"/>
       <use xlink:href="#DejaVuSans-30" x="95.410156"/>
       <use xlink:href="#DejaVuSans-30" x="159.033203"/>
       <use xlink:href="#DejaVuSans-30" x="222.65625"/>
       <use xlink:href="#DejaVuSans-30" x="286.279297"/>
      </g>
     </g>
    </g>
    <g id="xtick_2">
     <g id="line2d_3">
      <path d="M 124.971644 390.04 
L 124.971644 21.72 
" clip-path="url(#p1196d11a79)" style="fill: none; stroke: #b0b0b0; stroke-width: 0.8; stroke-linecap: square"/>
     </g>
     <g id="line2d_4">
      <g>
       <use xlink:href="#mecf1340649" x="124.971644" y="390.04" style="stroke: #000000; stroke-width: 0.8"/>
      </g>
     </g>
     <g id="text_2">
      <!-- 0.0025 -->
      <g transform="translate(107.476332 404.638438) scale(0.1 -0.1)">
       <defs>
        <path id="DejaVuSans-32" d="M 1228 531 
L 3431 531 
L 3431 0 
L 469 0 
L 469 531 
Q 828 903 1448 1529 
Q 2069 2156 2228 2338 
Q 2531 2678 2651 2914 
Q 2772 3150 2772 3378 
Q 2772 3750 2511 3984 
Q 2250 4219 1831 4219 
Q 1534 4219 1204 4116 
Q 875 4013 500 3803 
L 500 4441 
Q 881 4594 1212 4672 
Q 1544 4750 1819 4750 
Q 2544 4750 2975 4387 
Q 3406 4025 3406 3419 
Q 3406 3131 3298 2873 
Q 3191 2616 2906 2266 
Q 2828 2175 2409 1742 
Q 1991 1309 1228 531 
z
" transform="scale(0.015625)"/>
        <path id="DejaVuSans-35" d="M 691 4666 
L 3169 4666 
L 3169 4134 
L 1269 4134 
L 1269 2991 
Q 1406 3038 1543 3061 
Q 1681 3084 1819 3084 
Q 2600 3084 3056 2656 
Q 3513 2228 3513 1497 
Q 3513 744 3044 326 
Q 2575 -91 1722 -91 
Q 1428 -91 1123 -41 
Q 819 9 494 109 
L 494 744 
Q 775 591 1075 516 
Q 1375 441 1709 441 
Q 2250 441 2565 725 
Q 2881 1009 2881 1497 
Q 2881 1984 2565 2268 
Q 2250 2553 1709 2553 
Q 1456 2553 1204 2497 
Q 953 2441 691 2322 
L 691 4666 
z
" transform="scale(0.015625)"/>
       </defs>
       <use xlink:href="#DejaVuSans-30"/>
       <use xlink:href="#DejaVuSans-2e" x="63.623047"/>
       <use xlink:href="#DejaVuSans-30" x="95.410156"/>
       <use xlink:href="#DejaVuSans-30" x="159.033203"/>
       <use xlink:href="#DejaVuSans-32" x="222.65625"/>
       <use xlink:href="#DejaVuSans-35" x="286.279297"/>
      </g>
     </g>
    </g>
    <g id="xtick_3">
     <g id="line2d_5">
      <path d="M 185.083312 390.04 
L 185.083312 21.72 
" clip-path="url(#p1196d11a79)" style="fill: none; stroke: #b0b0b0; stroke-width: 0.8; stroke-linecap: square"/>
     </g>
     <g id="line2d_6">
      <g>
       <use xlink:href="#mecf1340649" x="185.083312" y="390.04" style="stroke: #000000; stroke-width: 0.8"/>
      </g>
     </g>
     <g id="text_3">
      <!-- 0.0050 -->
      <g transform="translate(167.587999 404.638438) scale(0.1 -0.1)">
       <use xlink:href="#DejaVuSans-30"/>
       <use xlink:href="#DejaVuSans-2e" x="63.623047"/>
       <use xlink:href="#DejaVuSans-30" x="95.410156"/>
       <use xlink:href="#DejaVuSans-30" x="159.033203"/>
       <use xlink:href="#DejaVuSans-35" x="222.65625"/>
       <use xlink:href="#DejaVuSans-30" x="286.279297"/>
      </g>
     </g>
    </g>
    <g id="xtick_4">
     <g id="line2d_7">
      <path d="M 245.194979 390.04 
L 245.194979 21.72 
" clip-path="url(#p1196d11a79)" style="fill: none; stroke: #b0b0b0; stroke-width: 0.8; stroke-linecap: square"/>
     </g>
     <g id="line2d_8">
      <g>
       <use xlink:href="#mecf1340649" x="245.194979" y="390.04" style="stroke: #000000; stroke-width: 0.8"/>
      </g>
     </g>
     <g id="text_4">
      <!-- 0.0075 -->
      <g transform="translate(227.699666 404.638438) scale(0.1 -0.1)">
       <defs>
        <path id="DejaVuSans-37" d="M 525 4666 
L 3525 4666 
L 3525 4397 
L 1831 0 
L 1172 0 
L 2766 4134 
L 525 4134 
L 525 4666 
z
" transform="scale(0.015625)"/>
       </defs>
       <use xlink:href="#DejaVuSans-30"/>
       <use xlink:href="#DejaVuSans-2e" x="63.623047"/>
       <use xlink:href="#DejaVuSans-30" x="95.410156"/>
       <use xlink:href="#DejaVuSans-30" x="159.033203"/>
       <use xlink:href="#DejaVuSans-37" x="222.65625"/>
       <use xlink:href="#DejaVuSans-35" x="286.279297"/>
      </g>
     </g>
    </g>
    <g id="xtick_5">
     <g id="line2d_9">
      <path d="M 305.306646 390.04 
L 305.306646 21.72 
" clip-path="url(#p1196d11a79)" style="fill: none; stroke: #b0b0b0; stroke-width: 0.8; stroke-linecap: square"/>
     </g>
     <g id="line2d_10">
      <g>
       <use xlink:href="#mecf1340649" x="305.306646" y="390.04" style="stroke: #000000; stroke-width: 0.8"/>
      </g>
     </g>
     <g id="text_5">
      <!-- 0.0100 -->
      <g transform="translate(287.811333 404.638438) scale(0.1 -0.1)">
       <defs>
        <path id="DejaVuSans-31" d="M 794 531 
L 1825 531 
L 1825 4091 
L 703 3866 
L 703 4441 
L 1819 4666 
L 2450 4666 
L 2450 531 
L 3481 531 
L 3481 0 
L 794 0 
L 794 531 
z
" transform="scale(0.015625)"/>
       </defs>
       <use xlink:href="#DejaVuSans-30"/>
       <use xlink:href="#DejaVuSans-2e" x="63.623047"/>
       <use xlink:href="#DejaVuSans-30" x="95.410156"/>
       <use xlink:href="#DejaVuSans-31" x="159.033203"/>
       <use xlink:href="#DejaVuSans-30" x="222.65625"/>
       <use xlink:href="#DejaVuSans-30" x="286.279297"/>
      </g>
     </g>
    </g>
    <g id="xtick_6">
     <g id="line2d_11">
      <path d="M 365.418313 390.04 
L 365.418313 21.72 
" clip-path="url(#p1196d11a79)" style="fill: none; stroke: #b0b0b0; stroke-width: 0.8; stroke-linecap: square"/>
     </g>
     <g id="line2d_12">
      <g>
       <use xlink:href="#mecf1340649" x="365.418313" y="390.04" style="stroke: #000000; stroke-width: 0.8"/>
      </g>
     </g>
     <g id="text_6">
      <!-- 0.0125 -->
      <g transform="translate(347.923 404.638438) scale(0.1 -0.1)">
       <use xlink:href="#DejaVuSans-30"/>
       <use xlink:href="#DejaVuSans-2e" x="63.623047"/>
       <use xlink:href="#DejaVuSans-30" x="95.410156"/>
       <use xlink:href="#DejaVuSans-31" x="159.033203"/>
       <use xlink:href="#DejaVuSans-32" x="222.65625"/>
       <use xlink:href="#DejaVuSans-35" x="286.279297"/>
      </g>
     </g>
    </g>
    <g id="xtick_7">
     <g id="line2d_13">
      <path d="M 425.52998 390.04 
L 425.52998 21.72 
" clip-path="url(#p1196d11a79)" style="fill: none; stroke: #b0b0b0; stroke-width: 0.8; stroke-linecap: square"/>
     </g>
     <g id="line2d_14">
      <g>
       <use xlink:href="#mecf1340649" x="425.52998" y="390.04" style="stroke: #000000; stroke-width: 0.8"/>
      </g>
     </g>
     <g id="text_7">
      <!-- 0.0150 -->
      <g transform="translate(408.034668 404.638438) scale(0.1 -0.1)">
       <use xlink:href="#DejaVuSans-30"/>
       <use xlink:href="#DejaVuSans-2e" x="63.623047"/>
       <use xlink:href="#DejaVuSans-30" x="95.410156"/>
       <use xlink:href="#DejaVuSans-31" x="159.033203"/>
       <use xlink:href="#DejaVuSans-35" x="222.65625"/>
       <use xlink:href="#DejaVuSans-30" x="286.279297"/>
      </g>
     </g>
    </g>
    <g id="xtick_8">
     <g id="line2d_15">
      <path d="M 485.641647 390.04 
L 485.641647 21.72 
" clip-path="url(#p1196d11a79)" style="fill: none; stroke: #b0b0b0; stroke-width: 0.8; stroke-linecap: square"/>
     </g>
     <g id="line2d_16">
      <g>
       <use xlink:href="#mecf1340649" x="485.641647" y="390.04" style="stroke: #000000; stroke-width: 0.8"/>
      </g>
     </g>
     <g id="text_8">
      <!-- 0.0175 -->
      <g transform="translate(468.146335 404.638438) scale(0.1 -0.1)">
       <use xlink:href="#DejaVuSans-30"/>
       <use xlink:href="#DejaVuSans-2e" x="63.623047"/>
       <use xlink:href="#DejaVuSans-30" x="95.410156"/>
       <use xlink:href="#DejaVuSans-31" x="159.033203"/>
       <use xlink:href="#DejaVuSans-37" x="222.65625"/>
       <use xlink:href="#DejaVuSans-35" x="286.279297"/>
      </g>
     </g>
    </g>
    <g id="xtick_9">
     <g id="line2d_17">
      <path d="M 545.753314 390.04 
L 545.753314 21.72 
" clip-path="url(#p1196d11a79)" style="fill: none; stroke: #b0b0b0; stroke-width: 0.8; stroke-linecap: square"/>
     </g>
     <g id="line2d_18">
      <g>
       <use xlink:href="#mecf1340649" x="545.753314" y="390.04" style="stroke: #000000; stroke-width: 0.8"/>
      </g>
     </g>
     <g id="text_9">
      <!-- 0.0200 -->
      <g transform="translate(528.258002 404.638438) scale(0.1 -0.1)">
       <use xlink:href="#DejaVuSans-30"/>
       <use xlink:href="#DejaVuSans-2e" x="63.623047"/>
       <use xlink:href="#DejaVuSans-30" x="95.410156"/>
       <use xlink:href="#DejaVuSans-32" x="159.033203"/>
       <use xlink:href="#DejaVuSans-30" x="222.65625"/>
       <use xlink:href="#DejaVuSans-30" x="286.279297"/>
      </g>
     </g>
    </g>
    <g id="text_10">
     <!-- Radial distance (m) -->
     <g transform="translate(261.663878 418.316562) scale(0.1 -0.1)">
      <defs>
       <path id="DejaVuSans-52" d="M 2841 2188 
Q 3044 2119 3236 1894 
Q 3428 1669 3622 1275 
L 4263 0 
L 3584 0 
L 2988 1197 
Q 2756 1666 2539 1819 
Q 2322 1972 1947 1972 
L 1259 1972 
L 1259 0 
L 628 0 
L 628 4666 
L 2053 4666 
Q 2853 4666 3247 4331 
Q 3641 3997 3641 3322 
Q 3641 2881 3436 2590 
Q 3231 2300 2841 2188 
z
M 1259 4147 
L 1259 2491 
L 2053 2491 
Q 2509 2491 2742 2702 
Q 2975 2913 2975 3322 
Q 2975 3731 2742 3939 
Q 2509 4147 2053 4147 
L 1259 4147 
z
" transform="scale(0.015625)"/>
       <path id="DejaVuSans-61" d="M 2194 1759 
Q 1497 1759 1228 1600 
Q 959 1441 959 1056 
Q 959 750 1161 570 
Q 1363 391 1709 391 
Q 2188 391 2477 730 
Q 2766 1069 2766 1631 
L 2766 1759 
L 2194 1759 
z
M 3341 1997 
L 3341 0 
L 2766 0 
L 2766 531 
Q 2569 213 2275 61 
Q 1981 -91 1556 -91 
Q 1019 -91 701 211 
Q 384 513 384 1019 
Q 384 1609 779 1909 
Q 1175 2209 1959 2209 
L 2766 2209 
L 2766 2266 
Q 2766 2663 2505 2880 
Q 2244 3097 1772 3097 
Q 1472 3097 1187 3025 
Q 903 2953 641 2809 
L 641 3341 
Q 956 3463 1253 3523 
Q 1550 3584 1831 3584 
Q 2591 3584 2966 3190 
Q 3341 2797 3341 1997 
z
" transform="scale(0.015625)"/>
       <path id="DejaVuSans-64" d="M 2906 2969 
L 2906 4863 
L 3481 4863 
L 3481 0 
L 2906 0 
L 2906 525 
Q 2725 213 2448 61 
Q 2172 -91 1784 -91 
Q 1150 -91 751 415 
Q 353 922 353 1747 
Q 353 2572 751 3078 
Q 1150 3584 1784 3584 
Q 2172 3584 2448 3432 
Q 2725 3281 2906 2969 
z
M 947 1747 
Q 947 1113 1208 752 
Q 1469 391 1925 391 
Q 2381 391 2643 752 
Q 2906 1113 2906 1747 
Q 2906 2381 2643 2742 
Q 2381 3103 1925 3103 
Q 1469 3103 1208 2742 
Q 947 2381 947 1747 
z
" transform="scale(0.015625)"/>
       <path id="DejaVuSans-69" d="M 603 3500 
L 1178 3500 
L 1178 0 
L 603 0 
L 603 3500 
z
M 603 4863 
L 1178 4863 
L 1178 4134 
L 603 4134 
L 603 4863 
z
" transform="scale(0.015625)"/>
       <path id="DejaVuSans-6c" d="M 603 4863 
L 1178 4863 
L 1178 0 
L 603 0 
L 603 4863 
z
" transform="scale(0.015625)"/>
       <path id="DejaVuSans-20" transform="scale(0.015625)"/>
       <path id="DejaVuSans-73" d="M 2834 3397 
L 2834 2853 
Q 2591 2978 2328 3040 
Q 2066 3103 1784 3103 
Q 1356 3103 1142 2972 
Q 928 2841 928 2578 
Q 928 2378 1081 2264 
Q 1234 2150 1697 2047 
L 1894 2003 
Q 2506 1872 2764 1633 
Q 3022 1394 3022 966 
Q 3022 478 2636 193 
Q 2250 -91 1575 -91 
Q 1294 -91 989 -36 
Q 684 19 347 128 
L 347 722 
Q 666 556 975 473 
Q 1284 391 1588 391 
Q 1994 391 2212 530 
Q 2431 669 2431 922 
Q 2431 1156 2273 1281 
Q 2116 1406 1581 1522 
L 1381 1569 
Q 847 1681 609 1914 
Q 372 2147 372 2553 
Q 372 3047 722 3315 
Q 1072 3584 1716 3584 
Q 2034 3584 2315 3537 
Q 2597 3491 2834 3397 
z
" transform="scale(0.015625)"/>
       <path id="DejaVuSans-74" d="M 1172 4494 
L 1172 3500 
L 2356 3500 
L 2356 3053 
L 1172 3053 
L 1172 1153 
Q 1172 725 1289 603 
Q 1406 481 1766 481 
L 2356 481 
L 2356 0 
L 1766 0 
Q 1100 0 847 248 
Q 594 497 594 1153 
L 594 3053 
L 172 3053 
L 172 3500 
L 594 3500 
L 594 4494 
L 1172 4494 
z
" transform="scale(0.015625)"/>
       <path id="DejaVuSans-6e" d="M 3513 2113 
L 3513 0 
L 2938 0 
L 2938 2094 
Q 2938 2591 2744 2837 
Q 2550 3084 2163 3084 
Q 1697 3084 1428 2787 
Q 1159 2491 1159 1978 
L 1159 0 
L 581 0 
L 581 3500 
L 1159 3500 
L 1159 2956 
Q 1366 3272 1645 3428 
Q 1925 3584 2291 3584 
Q 2894 3584 3203 3211 
Q 3513 2838 3513 2113 
z
" transform="scale(0.015625)"/>
       <path id="DejaVuSans-63" d="M 3122 3366 
L 3122 2828 
Q 2878 2963 2633 3030 
Q 2388 3097 2138 3097 
Q 1578 3097 1268 2742 
Q 959 2388 959 1747 
Q 959 1106 1268 751 
Q 1578 397 2138 397 
Q 2388 397 2633 464 
Q 2878 531 3122 666 
L 3122 134 
Q 2881 22 2623 -34 
Q 2366 -91 2075 -91 
Q 1284 -91 818 406 
Q 353 903 353 1747 
Q 353 2603 823 3093 
Q 1294 3584 2113 3584 
Q 2378 3584 2631 3529 
Q 2884 3475 3122 3366 
z
" transform="scale(0.015625)"/>
       <path id="DejaVuSans-65" d="M 3597 1894 
L 3597 1613 
L 953 1613 
Q 991 1019 1311 708 
Q 1631 397 2203 397 
Q 2534 397 2845 478 
Q 3156 559 3463 722 
L 3463 178 
Q 3153 47 2828 -22 
Q 2503 -91 2169 -91 
Q 1331 -91 842 396 
Q 353 884 353 1716 
Q 353 2575 817 3079 
Q 1281 3584 2069 3584 
Q 2775 3584 3186 3129 
Q 3597 2675 3597 1894 
z
M 3022 2063 
Q 3016 2534 2758 2815 
Q 2500 3097 2075 3097 
Q 1594 3097 1305 2825 
Q 1016 2553 972 2059 
L 3022 2063 
z
" transform="scale(0.015625)"/>
       <path id="DejaVuSans-28" d="M 1984 4856 
Q 1566 4138 1362 3434 
Q 1159 2731 1159 2009 
Q 1159 1288 1364 580 
Q 1569 -128 1984 -844 
L 1484 -844 
Q 1016 -109 783 600 
Q 550 1309 550 2009 
Q 550 2706 781 3412 
Q 1013 4119 1484 4856 
L 1984 4856 
z
" transform="scale(0.015625)"/>
       <path id="DejaVuSans-6d" d="M 3328 2828 
Q 3544 3216 3844 3400 
Q 4144 3584 4550 3584 
Q 5097 3584 5394 3201 
Q 5691 2819 5691 2113 
L 5691 0 
L 5113 0 
L 5113 2094 
Q 5113 2597 4934 2840 
Q 4756 3084 4391 3084 
Q 3944 3084 3684 2787 
Q 3425 2491 3425 1978 
L 3425 0 
L 2847 0 
L 2847 2094 
Q 2847 2600 2669 2842 
Q 2491 3084 2119 3084 
Q 1678 3084 1418 2786 
Q 1159 2488 1159 1978 
L 1159 0 
L 581 0 
L 581 3500 
L 1159 3500 
L 1159 2956 
Q 1356 3278 1631 3431 
Q 1906 3584 2284 3584 
Q 2666 3584 2933 3390 
Q 3200 3197 3328 2828 
z
" transform="scale(0.015625)"/>
       <path id="DejaVuSans-29" d="M 513 4856 
L 1013 4856 
Q 1481 4119 1714 3412 
Q 1947 2706 1947 2009 
Q 1947 1309 1714 600 
Q 1481 -109 1013 -844 
L 513 -844 
Q 928 -128 1133 580 
Q 1338 1288 1338 2009 
Q 1338 2731 1133 3434 
Q 928 4138 513 4856 
z
" transform="scale(0.015625)"/>
      </defs>
      <use xlink:href="#DejaVuSans-52"/>
      <use xlink:href="#DejaVuSans-61" x="67.232422"/>
      <use xlink:href="#DejaVuSans-64" x="128.511719"/>
      <use xlink:href="#DejaVuSans-69" x="191.988281"/>
      <use xlink:href="#DejaVuSans-61" x="219.771484"/>
      <use xlink:href="#DejaVuSans-6c" x="281.050781"/>
      <use xlink:href="#DejaVuSans-20" x="308.833984"/>
      <use xlink:href="#DejaVuSans-64" x="340.621094"/>
      <use xlink:href="#DejaVuSans-69" x="404.097656"/>
      <use xlink:href="#DejaVuSans-73" x="431.880859"/>
      <use xlink:href="#DejaVuSans-74" x="483.980469"/>
      <use xlink:href="#DejaVuSans-61" x="523.189453"/>
      <use xlink:href="#DejaVuSans-6e" x="584.46875"/>
      <use xlink:href="#DejaVuSans-63" x="647.847656"/>
      <use xlink:href="#DejaVuSans-65" x="702.828125"/>
      <use xlink:href="#DejaVuSans-20" x="764.351562"/>
      <use xlink:href="#DejaVuSans-28" x="796.138672"/>
      <use xlink:href="#DejaVuSans-6d" x="835.152344"/>
      <use xlink:href="#DejaVuSans-29" x="932.564453"/>
     </g>
    </g>
   </g>
   <g id="matplotlib.axis_2">
    <g id="ytick_1">
     <g id="line2d_19">
      <path d="M 56.9 350.83794 
L 563.585568 350.83794 
" clip-path="url(#p1196d11a79)" style="fill: none; stroke: #b0b0b0; stroke-width: 0.8; stroke-linecap: square"/>
     </g>
     <g id="line2d_20">
      <defs>
       <path id="m81a0637e80" d="M 0 0 
L -3.5 0 
" style="stroke: #000000; stroke-width: 0.8"/>
      </defs>
      <g>
       <use xlink:href="#m81a0637e80" x="56.9" y="350.83794" style="stroke: #000000; stroke-width: 0.8"/>
      </g>
     </g>
     <g id="text_11">
      <!-- 0.25 -->
      <g transform="translate(27.634375 354.637158) scale(0.1 -0.1)">
       <use xlink:href="#DejaVuSans-30"/>
       <use xlink:href="#DejaVuSans-2e" x="63.623047"/>
       <use xlink:href="#DejaVuSans-32" x="95.410156"/>
       <use xlink:href="#DejaVuSans-35" x="159.033203"/>
      </g>
     </g>
    </g>
    <g id="ytick_2">
     <g id="line2d_21">
      <path d="M 56.9 305.493019 
L 563.585568 305.493019 
" clip-path="url(#p1196d11a79)" style="fill: none; stroke: #b0b0b0; stroke-width: 0.8; stroke-linecap: square"/>
     </g>
     <g id="line2d_22">
      <g>
       <use xlink:href="#m81a0637e80" x="56.9" y="305.493019" style="stroke: #000000; stroke-width: 0.8"/>
      </g>
     </g>
     <g id="text_12">
      <!-- 0.50 -->
      <g transform="translate(27.634375 309.292238) scale(0.1 -0.1)">
       <use xlink:href="#DejaVuSans-30"/>
       <use xlink:href="#DejaVuSans-2e" x="63.623047"/>
       <use xlink:href="#DejaVuSans-35" x="95.410156"/>
       <use xlink:href="#DejaVuSans-30" x="159.033203"/>
      </g>
     </g>
    </g>
    <g id="ytick_3">
     <g id="line2d_23">
      <path d="M 56.9 260.148098 
L 563.585568 260.148098 
" clip-path="url(#p1196d11a79)" style="fill: none; stroke: #b0b0b0; stroke-width: 0.8; stroke-linecap: square"/>
     </g>
     <g id="line2d_24">
      <g>
       <use xlink:href="#m81a0637e80" x="56.9" y="260.148098" style="stroke: #000000; stroke-width: 0.8"/>
      </g>
     </g>
     <g id="text_13">
      <!-- 0.75 -->
      <g transform="translate(27.634375 263.947317) scale(0.1 -0.1)">
       <use xlink:href="#DejaVuSans-30"/>
       <use xlink:href="#DejaVuSans-2e" x="63.623047"/>
       <use xlink:href="#DejaVuSans-37" x="95.410156"/>
       <use xlink:href="#DejaVuSans-35" x="159.033203"/>
      </g>
     </g>
    </g>
    <g id="ytick_4">
     <g id="line2d_25">
      <path d="M 56.9 214.803178 
L 563.585568 214.803178 
" clip-path="url(#p1196d11a79)" style="fill: none; stroke: #b0b0b0; stroke-width: 0.8; stroke-linecap: square"/>
     </g>
     <g id="line2d_26">
      <g>
       <use xlink:href="#m81a0637e80" x="56.9" y="214.803178" style="stroke: #000000; stroke-width: 0.8"/>
      </g>
     </g>
     <g id="text_14">
      <!-- 1.00 -->
      <g transform="translate(27.634375 218.602396) scale(0.1 -0.1)">
       <use xlink:href="#DejaVuSans-31"/>
       <use xlink:href="#DejaVuSans-2e" x="63.623047"/>
       <use xlink:href="#DejaVuSans-30" x="95.410156"/>
       <use xlink:href="#DejaVuSans-30" x="159.033203"/>
      </g>
     </g>
    </g>
    <g id="ytick_5">
     <g id="line2d_27">
      <path d="M 56.9 169.458257 
L 563.585568 169.458257 
" clip-path="url(#p1196d11a79)" style="fill: none; stroke: #b0b0b0; stroke-width: 0.8; stroke-linecap: square"/>
     </g>
     <g id="line2d_28">
      <g>
       <use xlink:href="#m81a0637e80" x="56.9" y="169.458257" style="stroke: #000000; stroke-width: 0.8"/>
      </g>
     </g>
     <g id="text_15">
      <!-- 1.25 -->
      <g transform="translate(27.634375 173.257476) scale(0.1 -0.1)">
       <use xlink:href="#DejaVuSans-31"/>
       <use xlink:href="#DejaVuSans-2e" x="63.623047"/>
       <use xlink:href="#DejaVuSans-32" x="95.410156"/>
       <use xlink:href="#DejaVuSans-35" x="159.033203"/>
      </g>
     </g>
    </g>
    <g id="ytick_6">
     <g id="line2d_29">
      <path d="M 56.9 124.113336 
L 563.585568 124.113336 
" clip-path="url(#p1196d11a79)" style="fill: none; stroke: #b0b0b0; stroke-width: 0.8; stroke-linecap: square"/>
     </g>
     <g id="line2d_30">
      <g>
       <use xlink:href="#m81a0637e80" x="56.9" y="124.113336" style="stroke: #000000; stroke-width: 0.8"/>
      </g>
     </g>
     <g id="text_16">
      <!-- 1.50 -->
      <g transform="translate(27.634375 127.912555) scale(0.1 -0.1)">
       <use xlink:href="#DejaVuSans-31"/>
       <use xlink:href="#DejaVuSans-2e" x="63.623047"/>
       <use xlink:href="#DejaVuSans-35" x="95.410156"/>
       <use xlink:href="#DejaVuSans-30" x="159.033203"/>
      </g>
     </g>
    </g>
    <g id="ytick_7">
     <g id="line2d_31">
      <path d="M 56.9 78.768416 
L 563.585568 78.768416 
" clip-path="url(#p1196d11a79)" style="fill: none; stroke: #b0b0b0; stroke-width: 0.8; stroke-linecap: square"/>
     </g>
     <g id="line2d_32">
      <g>
       <use xlink:href="#m81a0637e80" x="56.9" y="78.768416" style="stroke: #000000; stroke-width: 0.8"/>
      </g>
     </g>
     <g id="text_17">
      <!-- 1.75 -->
      <g transform="translate(27.634375 82.567634) scale(0.1 -0.1)">
       <use xlink:href="#DejaVuSans-31"/>
       <use xlink:href="#DejaVuSans-2e" x="63.623047"/>
       <use xlink:href="#DejaVuSans-37" x="95.410156"/>
       <use xlink:href="#DejaVuSans-35" x="159.033203"/>
      </g>
     </g>
    </g>
    <g id="ytick_8">
     <g id="line2d_33">
      <path d="M 56.9 33.423495 
L 563.585568 33.423495 
" clip-path="url(#p1196d11a79)" style="fill: none; stroke: #b0b0b0; stroke-width: 0.8; stroke-linecap: square"/>
     </g>
     <g id="line2d_34">
      <g>
       <use xlink:href="#m81a0637e80" x="56.9" y="33.423495" style="stroke: #000000; stroke-width: 0.8"/>
      </g>
     </g>
     <g id="text_18">
      <!-- 2.00 -->
      <g transform="translate(27.634375 37.222714) scale(0.1 -0.1)">
       <use xlink:href="#DejaVuSans-32"/>
       <use xlink:href="#DejaVuSans-2e" x="63.623047"/>
       <use xlink:href="#DejaVuSans-30" x="95.410156"/>
       <use xlink:href="#DejaVuSans-30" x="159.033203"/>
      </g>
     </g>
    </g>
    <g id="text_19">
     <!-- |$\mathbf{B}$| (T) -->
     <g transform="translate(21.234375 221.63) rotate(-90) scale(0.1 -0.1)">
      <defs>
       <path id="DejaVuSans-7c" d="M 1344 4891 
L 1344 -1509 
L 813 -1509 
L 813 4891 
L 1344 4891 
z
" transform="scale(0.015625)"/>
       <path id="DejaVuSans-Bold-42" d="M 2456 2859 
Q 2741 2859 2887 2984 
Q 3034 3109 3034 3353 
Q 3034 3594 2887 3720 
Q 2741 3847 2456 3847 
L 1791 3847 
L 1791 2859 
L 2456 2859 
z
M 2497 819 
Q 2859 819 3042 972 
Q 3225 1125 3225 1434 
Q 3225 1738 3044 1889 
Q 2863 2041 2497 2041 
L 1791 2041 
L 1791 819 
L 2497 819 
z
M 3616 2497 
Q 4003 2384 4215 2081 
Q 4428 1778 4428 1338 
Q 4428 663 3972 331 
Q 3516 0 2584 0 
L 588 0 
L 588 4666 
L 2394 4666 
Q 3366 4666 3802 4372 
Q 4238 4078 4238 3431 
Q 4238 3091 4078 2852 
Q 3919 2613 3616 2497 
z
" transform="scale(0.015625)"/>
       <path id="DejaVuSans-54" d="M -19 4666 
L 3928 4666 
L 3928 4134 
L 2272 4134 
L 2272 0 
L 1638 0 
L 1638 4134 
L -19 4134 
L -19 4666 
z
" transform="scale(0.015625)"/>
      </defs>
      <use xlink:href="#DejaVuSans-7c" transform="translate(0 0.578125)"/>
      <use xlink:href="#DejaVuSans-Bold-42" transform="translate(33.691406 0.578125)"/>
      <use xlink:href="#DejaVuSans-7c" transform="translate(109.912109 0.578125)"/>
      <use xlink:href="#DejaVuSans-20" transform="translate(143.603516 0.578125)"/>
      <use xlink:href="#DejaVuSans-28" transform="translate(175.390625 0.578125)"/>
      <use xlink:href="#DejaVuSans-54" transform="translate(214.404297 0.578125)"/>
      <use xlink:href="#DejaVuSans-29" transform="translate(275.488281 0.578125)"/>
     </g>
    </g>
    <g id="text_20">
     <!-- 1e−5 -->
     <g transform="translate(56.9 18.72) scale(0.1 -0.1)">
      <defs>
       <path id="DejaVuSans-2212" d="M 678 2272 
L 4684 2272 
L 4684 1741 
L 678 1741 
L 678 2272 
z
" transform="scale(0.015625)"/>
      </defs>
      <use xlink:href="#DejaVuSans-31"/>
      <use xlink:href="#DejaVuSans-65" x="63.623047"/>
      <use xlink:href="#DejaVuSans-2212" x="125.146484"/>
      <use xlink:href="#DejaVuSans-35" x="208.935547"/>
     </g>
    </g>
   </g>
   <g id="line2d_35">
    <path d="M 79.931162 373.279107 
L 79.931162 373.298182 
L 93.403431 352.98725 
L 93.722876 351.906721 
L 99.517002 343.554726 
L 101.280042 341.596079 
L 101.596143 341.411076 
L 112.037328 325.197036 
L 113.973724 322.74641 
L 114.950154 320.945166 
L 119.741148 312.774118 
L 124.693133 305.493413 
L 125.418862 305.203087 
L 131.1638 296.875804 
L 133.852742 292.190931 
L 137.796305 286.483436 
L 138.423145 285.098506 
L 139.986533 282.68378 
L 140.316522 281.51424 
L 142.227968 279.805475 
L 142.448488 279.337086 
L 149.274971 268.600107 
L 149.366298 268.800329 
L 151.545999 265.870738 
L 151.769789 264.729569 
L 156.265714 257.99697 
L 156.572946 257.936564 
L 162.00642 249.218118 
L 162.154181 249.194073 
L 162.491538 248.604398 
L 162.759097 248.840862 
L 167.190333 241.818007 
L 173.228611 232.461294 
L 173.341984 232.568507 
L 173.707257 231.950893 
L 173.859355 231.992984 
L 176.286395 227.99782 
L 183.771958 216.718258 
L 183.7966 216.725425 
L 184.531488 216.617057 
L 185.963455 213.386693 
L 186.077704 213.457404 
L 186.732104 212.060199 
L 188.475928 209.834589 
L 196.313486 196.740514 
L 197.312126 196.371903 
L 197.365215 196.682392 
L 197.515234 195.950486 
L 197.548728 196.006868 
L 203.878338 186.389392 
L 204.263356 185.344652 
L 205.904871 183.346944 
L 208.722841 179.687427 
L 210.049719 177.168645 
L 211.980061 174.308183 
L 213.25717 172.823832 
L 217.652968 165.538948 
L 219.520332 162.706967 
L 224.968387 154.55665 
L 224.986181 154.706112 
L 224.994325 154.456574 
L 225.703943 152.486604 
L 226.208058 152.698391 
L 228.713986 149.121266 
L 231.200926 145.546393 
L 233.616293 141.264234 
L 233.663821 141.76563 
L 233.739457 141.593887 
L 233.848645 140.760764 
L 234.948811 139.886002 
L 235.4247 138.721237 
L 235.573346 138.891994 
L 235.826599 138.491727 
L 238.199918 135.161554 
L 238.644026 133.878382 
L 241.331452 130.585711 
L 244.606253 124.363535 
L 245.286834 124.529151 
L 245.575425 122.370552 
L 245.594792 123.743172 
L 248.773464 118.862557 
L 249.005461 118.965945 
L 249.76243 116.354097 
L 251.392005 114.244933 
L 251.477387 114.667618 
L 252.757303 113.021003 
L 256.726677 106.366497 
L 257.387461 106.368697 
L 257.60201 105.119205 
L 257.635947 105.499601 
L 257.645054 106.395274 
L 257.64956 105.453243 
L 257.935183 103.406 
L 259.296327 102.586388 
L 260.422005 100.657915 
L 260.470315 102.466736 
L 262.590405 99.082712 
L 263.122582 96.009666 
L 264.705888 93.05556 
L 264.711408 96.101674 
L 265.047353 92.852854 
L 267.445108 90.391386 
L 267.882722 89.200728 
L 269.357478 87.50661 
L 270.222875 85.718855 
L 270.391274 87.097742 
L 271.099028 85.980897 
L 273.628724 80.574655 
L 274.787532 78.372856 
L 275.262638 79.602463 
L 275.71216 79.759243 
L 277.052108 77.514583 
L 277.872094 75.561084 
L 279.012274 73.5301 
L 280.033727 72.918717 
L 280.764235 68.661361 
L 280.842972 69.242486 
L 281.412524 70.161205 
L 281.598108 68.012144 
L 281.675806 68.687602 
L 282.038869 68.633462 
L 282.412489 69.453842 
L 282.998346 66.96622 
L 283.064358 65.748557 
L 284.442893 64.477445 
L 290.843909 54.2991 
L 291.582099 54.382674 
L 291.817641 53.087358 
L 291.922402 54.074682 
L 292.048185 52.41203 
L 292.827803 53.272954 
L 293.002051 52.698556 
L 293.165067 52.675304 
L 293.443651 52.288778 
L 293.558673 51.355407 
L 293.567942 52.782275 
L 294.165026 50.819965 
L 294.733349 50.769606 
L 294.962177 50.620396 
L 296.155402 48.603025 
L 298.130085 43.196566 
L 298.205347 44.745962 
L 299.438033 40.603137 
L 299.442395 40.774925 
L 299.7509 43.022734 
L 299.768021 41.732323 
L 299.965197 40.523304 
L 299.975337 41.883403 
L 300.130286 40.200313 
L 300.580582 38.461818 
L 309.604338 51.094263 
L 310.384621 50.696167 
L 310.384621 50.753391 
L 310.878432 53.653234 
L 311.263143 53.049764 
L 311.547961 53.380341 
L 311.699074 53.004042 
L 311.738227 54.185735 
L 311.772617 53.631637 
L 311.990687 53.724428 
L 312.104487 53.91748 
L 312.1255 53.406967 
L 312.56432 55.262238 
L 316.21864 40.981636 
L 316.526317 42.705796 
L 317.410735 41.414478 
L 317.435477 43.294018 
L 317.454926 42.94615 
L 317.695717 42.624625 
L 317.800148 47.976087 
L 317.854618 41.932673 
L 318.384083 43.480229 
L 318.386648 43.42915 
L 318.722581 43.236754 
L 319.378351 44.410122 
L 326.952254 66.320733 
L 327.243015 64.310884 
L 328.252862 74.511384 
L 328.640184 68.819295 
L 329.008123 66.70543 
L 329.461957 75.503888 
L 329.550975 67.493543 
L 330.079749 76.614622 
L 330.898275 76.47885 
L 331.832936 78.479346 
L 332.204498 78.874599 
L 332.403702 80.658263 
L 332.827486 78.500905 
L 333.774126 62.88201 
L 335.892789 66.185121 
L 336.586307 74.30566 
L 336.635872 66.209151 
L 336.730397 67.703109 
L 337.042849 77.397616 
L 337.450059 75.980774 
L 337.794827 79.052231 
L 338.299488 79.416451 
L 338.330307 73.106937 
L 338.385444 73.296137 
L 338.498679 73.503255 
L 338.522321 69.298054 
L 338.528225 69.467979 
L 338.915121 70.215713 
L 338.925969 77.291928 
L 340.122334 73.992135 
L 340.563572 75.085481 
L 342.393669 79.096271 
L 343.022834 80.964286 
L 344.590718 91.215132 
L 346.531766 81.960334 
L 348.091745 96.729946 
L 348.283256 96.090276 
L 348.841977 88.503221 
L 349.249451 94.882325 
L 349.311517 88.423983 
L 349.355467 91.158816 
L 349.589441 88.000718 
L 349.673156 96.768213 
L 350.060184 94.823755 
L 350.240117 97.559756 
L 350.913917 95.457102 
L 351.866328 97.476853 
L 352.140707 100.281238 
L 352.933928 96.160995 
L 352.97112 90.36623 
L 353.599881 100.54077 
L 353.983337 87.720488 
L 354.165103 89.104924 
L 354.231031 101.276993 
L 354.626377 94.055319 
L 354.684455 88.855979 
L 356.308511 91.490886 
L 357.01741 101.984916 
L 357.245053 92.999133 
L 358.064411 101.87876 
L 358.836959 92.747106 
L 359.439805 94.23697 
L 360.149103 100.985689 
L 360.217216 95.752458 
L 360.350151 101.281512 
L 360.365306 96.584763 
L 360.383726 102.008914 
L 361.134558 105.872003 
L 361.197587 100.630154 
L 361.222846 104.018926 
L 362.582187 101.677707 
L 362.621542 98.622355 
L 363.521067 99.90041 
L 364.658358 108.912215 
L 366.079156 113.299436 
L 366.37378 110.111191 
L 366.661811 114.494985 
L 366.802494 104.105958 
L 368.020689 114.723366 
L 369.116599 106.941334 
L 370.160575 116.887363 
L 371.145089 109.15128 
L 371.231602 112.394934 
L 372.003156 110.12068 
L 372.028527 112.579774 
L 372.202501 106.476144 
L 372.393018 111.911381 
L 372.456252 119.460813 
L 372.870084 107.847115 
L 372.971616 119.465933 
L 373.289293 118.652302 
L 373.352756 115.55816 
L 373.895594 108.545865 
L 374.236227 120.124619 
L 374.658064 109.580743 
L 374.945576 117.299806 
L 375.079156 110.029912 
L 376.34971 121.177432 
L 377.024886 114.198029 
L 377.529301 123.009027 
L 377.676034 112.769904 
L 379.132696 122.72543 
L 379.215778 113.273618 
L 379.818371 114.110669 
L 380.58735 114.643887 
L 382.012534 121.852155 
L 382.278377 117.915497 
L 382.285434 121.125752 
L 382.551623 116.7913 
L 382.65322 125.932018 
L 383.180477 124.897931 
L 383.809733 123.414351 
L 384.326683 122.548782 
L 384.507472 124.793445 
L 385.071981 129.957169 
L 385.192379 120.997558 
L 385.387136 129.979312 
L 385.708723 122.805001 
L 386.454257 130.821632 
L 386.484103 121.219145 
L 387.339081 131.469428 
L 388.018204 131.738097 
L 389.300394 124.769165 
L 389.75608 131.182341 
L 390.470621 133.634436 
L 391.481546 124.095205 
L 392.143779 124.908486 
L 392.631905 127.057397 
L 392.677689 136.014138 
L 392.707251 125.174552 
L 393.188619 132.061387 
L 393.254421 130.370847 
L 393.370503 136.439587 
L 393.757885 136.713931 
L 393.925427 126.305829 
L 395.232775 127.709222 
L 395.367261 136.581372 
L 395.539739 132.856933 
L 395.866766 137.917776 
L 395.960272 129.293869 
L 396.498821 134.757345 
L 397.086306 138.275732 
L 397.827245 132.712443 
L 398.155666 136.795089 
L 399.180822 131.506224 
L 399.49913 130.836606 
L 399.61084 130.888542 
L 399.989055 140.505267 
L 400.123793 133.865397 
L 401.104867 132.254125 
L 401.391363 132.986013 
L 401.977314 140.612464 
L 402.111673 134.719164 
L 404.014557 139.235635 
L 404.370342 139.138815 
L 404.373576 135.282876 
L 404.781159 144.875408 
L 404.907893 136.548758 
L 405.410432 145.391306 
L 405.553236 144.012964 
L 405.756097 145.600052 
L 406.794172 145.844054 
L 407.309955 142.005546 
L 407.753847 141.312678 
L 408.265027 143.828356 
L 408.272145 147.15077 
L 409.082501 139.438026 
L 409.30391 147.008077 
L 409.343544 141.796078 
L 410.09259 145.972385 
L 411.745571 140.170598 
L 411.8482 146.092842 
L 412.027495 142.814567 
L 412.205331 149.417138 
L 412.617144 141.181321 
L 412.661564 150.564053 
L 412.832936 148.656725 
L 412.928646 150.705443 
L 413.442863 141.738516 
L 413.67734 150.624677 
L 413.908759 146.193913 
L 414.091324 151.464215 
L 414.277184 143.158613 
L 415.392489 144.951421 
L 415.594189 148.427221 
L 416.549873 144.352362 
L 417.30926 153.344471 
L 417.341905 152.838177 
L 417.776916 147.23782 
L 419.173926 145.709277 
L 419.262399 150.52961 
L 419.477817 150.418511 
L 419.698155 151.790547 
L 419.801129 146.200655 
L 419.882191 149.800769 
L 420.30421 147.651126 
L 420.711738 149.905217 
L 420.834711 148.034598 
L 421.800728 148.022445 
L 422.287548 155.761248 
L 423.747617 151.4808 
L 425.109119 155.510602 
L 425.321177 157.288792 
L 425.824781 159.237679 
L 426.148991 151.567867 
L 426.38167 160.044282 
L 426.443562 154.852815 
L 426.499621 160.138379 
L 426.915579 160.090432 
L 427.470128 159.785593 
L 427.704775 153.590124 
L 428.24875 159.23233 
L 429.243012 159.870365 
L 429.480817 161.468583 
L 431.146159 158.287241 
L 431.149421 158.374898 
L 431.399653 163.000192 
L 431.624001 160.921839 
L 431.626512 155.615347 
L 432.001452 163.443239 
L 432.543569 160.703682 
L 432.86014 163.229845 
L 433.198868 164.20462 
L 433.209242 155.777002 
L 433.485466 155.9394 
L 433.801865 159.054412 
L 433.869938 155.825516 
L 433.98613 156.675266 
L 434.235024 155.704739 
L 434.687139 156.397454 
L 435.131928 157.737709 
L 435.194194 160.325001 
L 436.341062 163.602954 
L 437.167973 158.066958 
L 437.168936 162.861711 
L 437.560654 158.808803 
L 437.794618 158.7107 
L 437.813448 161.818038 
L 438.294099 160.872895 
L 438.443252 165.559603 
L 438.565293 159.547614 
L 438.671139 165.092084 
L 438.737604 159.056717 
L 439.14451 159.328692 
L 440.365333 160.673245 
L 440.894383 162.523012 
L 442.880444 166.035328 
L 443.191162 164.308022 
L 444.76314 167.959074 
L 445.519984 166.25307 
L 446.280717 170.4367 
L 446.448536 169.953596 
L 447.116525 171.752123 
L 447.291937 168.758723 
L 447.418804 170.682603 
L 447.835827 172.896554 
L 447.959415 168.912063 
L 448.123181 172.719393 
L 448.199315 167.955574 
L 448.56214 168.604519 
L 449.253687 168.065836 
L 449.58353 173.667311 
L 449.672422 172.550839 
L 449.798117 173.62567 
L 450.222959 173.976359 
L 450.673313 171.693189 
L 450.762401 174.173851 
L 450.930055 172.932024 
L 451.527013 174.590563 
L 451.531746 174.509641 
L 451.756126 171.191864 
L 453.591024 171.957713 
L 453.705423 169.163192 
L 453.851605 169.338215 
L 454.19986 169.227767 
L 454.348897 168.571908 
L 454.498693 174.557857 
L 455.339705 169.256519 
L 455.419604 171.334919 
L 455.454482 171.101376 
L 455.522829 169.798893 
L 455.954282 172.266719 
L 456.052841 171.587405 
L 456.074491 169.869628 
L 456.269606 169.465011 
L 456.447941 170.218958 
L 456.518009 174.321369 
L 456.836991 170.243057 
L 456.994973 173.515855 
L 457.271763 173.068044 
L 457.30982 174.59691 
L 457.392369 170.755644 
L 457.39998 172.309011 
L 457.818758 171.560932 
L 458.65673 174.231062 
L 458.950163 174.78647 
L 459.016333 173.399568 
L 459.771856 174.018231 
L 460.268177 175.311982 
L 460.366221 174.473638 
L 466.353995 180.279492 
L 466.955603 178.803558 
L 467.238443 183.127873 
L 467.804594 183.603484 
L 467.912616 183.496133 
L 468.120962 183.96343 
L 468.221073 183.367096 
L 468.234976 181.967587 
L 468.356964 183.908923 
L 468.453154 181.315346 
L 468.567393 184.14134 
L 468.60068 181.566453 
L 468.618852 183.971346 
L 468.707767 184.414063 
L 468.722699 183.969829 
L 468.879495 184.053167 
L 468.913233 184.599062 
L 469.056322 183.350088 
L 469.098436 184.359585 
L 469.240288 183.878211 
L 469.394294 184.714058 
L 469.728779 184.638216 
L 469.93941 184.839632 
L 470.479901 184.871089 
L 470.71592 184.386197 
L 470.739727 184.649377 
L 470.797433 184.590406 
L 473.864344 180.065735 
L 474.102618 180.139189 
L 474.418368 180.056482 
L 474.490084 180.602778 
L 474.491296 180.570645 
L 474.701136 180.264858 
L 474.79833 180.131557 
L 474.835075 180.617865 
L 474.889981 180.141838 
L 474.962829 180.230938 
L 475.147062 180.842197 
L 475.264736 180.872993 
L 475.275876 181.084843 
L 475.311254 180.127945 
L 475.746907 181.80824 
L 475.800811 181.317344 
L 475.886839 181.331004 
L 475.908765 181.463295 
L 476.113762 180.910542 
L 476.392488 181.271011 
L 476.655462 181.356811 
L 477.041586 180.594864 
L 486.337149 218.444466 
L 486.337149 218.341016 
L 487.905626 223.410567 
L 487.905626 224.070411 
L 487.913994 223.184029 
L 487.984438 223.889928 
L 488.094149 224.680328 
L 488.099157 224.658701 
L 488.113267 222.087597 
L 488.118352 225.198662 
L 488.15921 224.732617 
L 488.237587 225.722371 
L 488.237587 225.68603 
L 488.249485 222.891263 
L 488.939282 227.73379 
L 488.939282 227.672227 
L 493.256917 216.901568 
L 493.396631 217.25075 
L 493.542571 224.835606 
L 494.683131 220.699337 
L 494.792985 221.549265 
L 494.816196 220.119822 
L 494.859087 221.445761 
L 494.905871 221.596276 
L 494.905871 221.48165 
L 494.935075 220.624173 
L 494.971618 221.694414 
L 494.971618 221.656076 
L 495.118256 222.510168 
L 495.118256 222.218139 
L 495.627852 223.292699 
L 495.627852 223.100527 
L 495.936762 224.381992 
L 495.936762 224.194338 
L 504.103747 270.133661 
L 504.244167 269.882139 
L 504.399076 267.489815 
L 504.399076 267.741198 
L 509.116679 295.173033 
L 509.213908 293.896178 
L 509.213908 293.902077 
L 509.3626 295.009039 
L 509.368469 294.946943 
L 509.864178 294.41345 
L 509.872327 294.798808 
L 510.257945 296.817275 
L 510.257945 296.775756 
L 513.582397 295.178422 
L 513.582397 295.222928 
L 514.760655 304.690676 
L 515.755151 290.977016 
L 516.024235 290.464795 
L 516.092302 292.099151 
L 516.155971 291.865537 
L 516.250889 291.688037 
L 516.306678 292.858676 
L 516.520152 292.953491 
L 516.520152 292.942935 
L 516.821639 293.967562 
L 516.821639 293.921046 
L 517.81842 303.518514 
L 517.899535 302.912876 
L 517.899535 302.976122 
L 518.190353 300.204294 
L 522.813224 323.982814 
L 524.086317 320.82823 
L 524.255636 320.760769 
L 530.463 362.237989 
L 530.871024 363.106681 
L 531.053795 363.613826 
L 531.103094 363.4833 
L 531.458063 364.775715 
L 531.572523 364.706876 
L 531.601791 363.696544 
L 531.670658 364.373717 
L 532.77318 366.663712 
L 533.437108 362.306302 
L 533.437108 362.321772 
L 534.871417 371.438049 
L 537.96071 361.465626 
L 538.430333 363.519151 
L 538.444914 363.188542 
L 538.505994 364.427388 
L 538.506135 364.393625 
L 538.683135 365.218954 
L 538.794756 363.433212 
L 538.794756 363.490006 
L 538.794756 365.315185 
L 539.932694 371.389939 
L 540.554406 370.860574 
L 540.554406 370.905876 
" clip-path="url(#p1196d11a79)" style="fill: none; stroke: #1f77b4; stroke-width: 1.5; stroke-linecap: square"/>
   </g>
   <g id="patch_3">
    <path d="M 56.9 390.04 
L 56.9 21.72 
" style="fill: none; stroke: #000000; stroke-width: 0.8; stroke-linejoin: miter; stroke-linecap: square"/>
   </g>
   <g id="patch_4">
    <path d="M 563.585568 390.04 
L 563.585568 21.72 
" style="fill: none; stroke: #000000; stroke-width: 0.8; stroke-linejoin: miter; stroke-linecap: square"/>
   </g>
   <g id="patch_5">
    <path d="M 56.9 390.04 
L 563.585568 390.04 
" style="fill: none; stroke: #000000; stroke-width: 0.8; stroke-linejoin: miter; stroke-linecap: square"/>
   </g>
   <g id="patch_6">
    <path d="M 56.9 21.72 
L 563.585568 21.72 
" style="fill: none; stroke: #000000; stroke-width: 0.8; stroke-linejoin: miter; stroke-linecap: square"/>
   </g>
   <g id="legend_1">
    <g id="patch_7">
     <path d="M 510.185568 44.82 
L 556.585568 44.82 
Q 558.585568 44.82 558.585568 42.82 
L 558.585568 28.72 
Q 558.585568 26.72 556.585568 26.72 
L 510.185568 26.72 
Q 508.185568 26.72 508.185568 28.72 
L 508.185568 42.82 
Q 508.185568 44.82 510.185568 44.82 
z
" style="fill: #ffffff; opacity: 0.8; stroke: #cccccc; stroke-linejoin: miter"/>
    </g>
    <g id="line2d_36">
     <path d="M 512.185568 34.92 
L 522.185568 34.92 
L 532.185568 34.92 
" style="fill: none; stroke: #1f77b4; stroke-width: 1.5; stroke-linecap: square"/>
    </g>
    <g id="text_21">
     <!-- |$\mathbf{B}$| -->
     <g transform="translate(540.185568 38.42) scale(0.1 -0.1)">
      <use xlink:href="#DejaVuSans-7c" transform="translate(0 0.578125)"/>
      <use xlink:href="#DejaVuSans-Bold-42" transform="translate(33.691406 0.578125)"/>
      <use xlink:href="#DejaVuSans-7c" transform="translate(109.912109 0.578125)"/>
     </g>
    </g>
   </g>
  </g>
 </g>
 <defs>
  <clipPath id="p1196d11a79">
   <rect x="56.9" y="21.72" width="506.685568" height="368.32"/>
  </clipPath>
 </defs>
</svg>
