<?xml version="1.0" encoding="utf-8" standalone="no"?>
<!DOCTYPE svg PUBLIC "-//W3C//DTD SVG 1.1//EN"
  "http://www.w3.org/Graphics/SVG/1.1/DTD/svg11.dtd">
<svg xmlns:xlink="http://www.w3.org/1999/xlink" width="576pt" height="432pt" viewBox="0 0 576 432" xmlns="http://www.w3.org/2000/svg" version="1.1">
 <metadata>
  <rdf:RDF xmlns:dc="http://purl.org/dc/elements/1.1/" xmlns:cc="http://creativecommons.org/ns#" xmlns:rdf="http://www.w3.org/1999/02/22-rdf-syntax-ns#">
   <cc:Work>
    <dc:type rdf:resource="http://purl.org/dc/dcmitype/StillImage"/>
    <dc:date>2024-12-23T10:30:51.495308</dc:date>
    <dc:format>image/svg+xml</dc:format>
    <dc:creator>
     <cc:Agent>
      <dc:title>Matplotlib v3.8.3, https://matplotlib.org/</dc:title>
     </cc:Agent>
    </dc:creator>
   </cc:Work>
  </rdf:RDF>
 </metadata>
 <defs>
  <style type="text/css">*{stroke-linejoin: round; stroke-linecap: butt}</style>
 </defs>
 <g id="figure_1">
  <g id="patch_1">
   <path d="M 0 432 
L 576 432 
L 576 0 
L 0 0 
z
" style="fill: #ffffff"/>
  </g>
  <g id="axes_1">
   <g id="patch_2">
    <path d="M 56.81 390.04 
L 463.522 390.04 
L 463.522 14.76 
L 56.81 14.76 
z
" style="fill: #ffffff"/>
   </g>
   <g id="TriContourSet_1">
    <path d="M 164.760999 390.04 
L 83.843427 365.095803 
L 56.81 329.863693 
L 56.81 390.04 
z
M 463.522 377.515731 
L 442.232494 370.395815 
L 348.083385 390.04 
L 463.522 390.04 
z
M 348.083385 14.76 
L 442.232494 34.404185 
L 463.522 27.284269 
L 463.522 14.76 
z
M 56.81 74.936307 
L 83.843427 39.704197 
L 164.760999 14.76 
L 56.81 14.76 
z
" clip-path="url(#paa3ae40469)" style="fill: #481668"/>
    <path d="M 348.083385 390.04 
L 442.232494 370.395815 
L 463.522 377.515731 
L 463.522 350.614672 
L 396.504455 328.201784 
L 394.520184 328.615802 
L 288.232396 353.390669 
L 231.353019 354.079556 
L 165.671576 327.493333 
L 132.639231 322.073857 
L 124.595333 306.456916 
L 74.323411 248.786748 
L 74.323411 156.013252 
L 124.595333 98.343084 
L 132.639231 82.726143 
L 165.671576 77.306667 
L 231.353019 50.720444 
L 288.232396 51.409331 
L 394.520184 76.184198 
L 396.504455 76.598216 
L 463.522 54.185328 
L 463.522 27.284269 
L 442.232494 34.404185 
L 348.083385 14.76 
L 327.951333 14.76 
L 192.380667 14.76 
L 164.760999 14.76 
L 83.843427 39.704197 
L 56.81 74.936307 
L 56.81 139.853333 
L 56.81 264.946667 
L 56.81 329.863693 
L 83.843427 365.095803 
L 164.760999 390.04 
L 192.380667 390.04 
L 327.951333 390.04 
z
" clip-path="url(#paa3ae40469)" style="fill: #443983"/>
    <path d="M 463.522 323.713613 
L 416.775829 308.080145 
L 395.736667 308.340731 
L 381.586184 315.938395 
L 355.045683 313.264027 
L 265.99022 320.715327 
L 259.261746 323.649695 
L 242.347503 316.194515 
L 161.140803 302.871278 
L 124.595333 231.919551 
L 110.333864 215.559298 
L 110.333864 189.240702 
L 124.595333 172.880449 
L 161.140803 101.928722 
L 242.347503 88.605485 
L 259.261746 81.150305 
L 265.99022 84.084673 
L 355.045683 91.535973 
L 381.586184 88.861605 
L 395.736667 96.459269 
L 416.775829 96.719855 
L 463.522 81.086387 
L 463.522 54.185328 
L 396.504455 76.598216 
L 394.520184 76.184198 
L 288.232396 51.409331 
L 231.353019 50.720444 
L 165.671576 77.306667 
L 132.639231 82.726143 
L 124.595333 98.343084 
L 74.323411 156.013252 
L 74.323411 248.786748 
L 124.595333 306.456916 
L 132.639231 322.073857 
L 165.671576 327.493333 
L 231.353019 354.079556 
L 288.232396 353.390669 
L 394.520184 328.615802 
L 396.504455 328.201784 
L 463.522 350.614672 
z
" clip-path="url(#paa3ae40469)" style="fill: #375a8c"/>
    <path d="M 463.522 296.812554 
L 438.174278 288.335436 
L 395.736667 288.861059 
L 367.194053 304.186133 
L 313.659818 298.791726 
L 282.595356 301.390899 
L 256.683673 312.691294 
L 191.546099 283.981035 
L 189.642374 283.668699 
L 187.813829 280.118644 
L 133.410866 205.611296 
L 133.410866 199.188704 
L 187.813829 124.681356 
L 189.642374 121.131301 
L 191.546099 120.818965 
L 256.683673 92.108706 
L 282.595356 103.409101 
L 313.659818 106.008274 
L 367.194053 100.613867 
L 395.736667 115.938941 
L 438.174278 116.464564 
L 463.522 107.987446 
L 463.522 81.086387 
L 416.775829 96.719855 
L 395.736667 96.459269 
L 381.586184 88.861605 
L 355.045683 91.535973 
L 265.99022 84.084673 
L 259.261746 81.150305 
L 242.347503 88.605485 
L 161.140803 101.928722 
L 124.595333 172.880449 
L 110.333864 189.240702 
L 110.333864 215.559298 
L 124.595333 231.919551 
L 161.140803 302.871278 
L 242.347503 316.194515 
L 259.261746 323.649695 
L 265.99022 320.715327 
L 355.045683 313.264027 
L 381.586184 315.938395 
L 395.736667 308.340731 
L 416.775829 308.080145 
L 463.522 323.713613 
z
" clip-path="url(#paa3ae40469)" style="fill: #2b758e"/>
    <path d="M 463.522 269.911495 
L 459.572727 268.590727 
L 395.736667 269.381388 
L 352.801922 292.433871 
L 292.771598 286.384881 
L 286.054796 287.799467 
L 254.1056 301.732893 
L 202.266116 278.883946 
L 192.238215 271.504994 
L 148.007013 210.928338 
L 148.007013 193.871662 
L 192.238215 133.295006 
L 202.266116 125.916054 
L 254.1056 103.067107 
L 286.054796 117.000533 
L 292.771598 118.415119 
L 352.801922 112.366129 
L 395.736667 135.418612 
L 459.572727 136.209273 
L 463.522 134.888505 
L 463.522 107.987446 
L 438.174278 116.464564 
L 395.736667 115.938941 
L 367.194053 100.613867 
L 313.659818 106.008274 
L 282.595356 103.409101 
L 256.683673 92.108706 
L 191.546099 120.818965 
L 189.642374 121.131301 
L 187.813829 124.681356 
L 133.410866 199.188704 
L 133.410866 205.611296 
L 187.813829 280.118644 
L 189.642374 283.668699 
L 191.546099 283.981035 
L 256.683673 312.691294 
L 282.595356 301.390899 
L 313.659818 298.791726 
L 367.194053 304.186133 
L 395.736667 288.861059 
L 438.174278 288.335436 
L 463.522 296.812554 
z
" clip-path="url(#paa3ae40469)" style="fill: #21908d"/>
    <path d="M 463.522 134.888505 
L 459.572727 136.209273 
L 395.736667 135.418612 
L 352.801922 112.366129 
L 292.771598 118.415119 
L 286.054796 117.000533 
L 254.1056 103.067107 
L 202.266116 125.916054 
L 192.238215 133.295006 
L 148.007013 193.871662 
L 148.007013 210.928338 
L 192.238215 271.504994 
L 202.266116 278.883946 
L 254.1056 301.732893 
L 286.054796 287.799467 
L 292.771598 286.384881 
L 352.801922 292.433871 
L 395.736667 269.381388 
L 459.572727 268.590727 
L 463.522 269.911495 
L 463.522 264.946667 
L 463.522 139.853333 
z
M 395.736667 249.901716 
L 338.409791 280.681609 
L 295.530988 276.360902 
L 274.348381 280.822045 
L 251.527527 290.774493 
L 214.499324 274.453816 
L 194.196875 259.514419 
L 162.603159 216.245379 
L 162.603159 188.554621 
L 194.196875 145.285581 
L 214.499324 130.346184 
L 251.527527 114.025507 
L 274.348381 123.977955 
L 295.530988 128.439098 
L 338.409791 124.118391 
L 395.736667 154.898284 
L 446.535066 155.527463 
L 446.535066 249.272537 
z
" clip-path="url(#paa3ae40469)" style="fill: #25ab82"/>
    <path d="M 446.535066 249.272537 
L 446.535066 155.527463 
L 395.736667 154.898284 
L 338.409791 124.118391 
L 295.530988 128.439098 
L 274.348381 123.977955 
L 251.527527 114.025507 
L 214.499324 130.346184 
L 194.196875 145.285581 
L 162.603159 188.554621 
L 162.603159 216.245379 
L 194.196875 259.514419 
L 214.499324 274.453816 
L 251.527527 290.774493 
L 274.348381 280.822045 
L 295.530988 276.360902 
L 338.409791 280.681609 
L 395.736667 249.901716 
z
M 395.736667 230.422044 
L 324.01766 268.929346 
L 298.290379 266.336922 
L 262.641966 273.844624 
L 248.949454 279.816092 
L 226.732532 270.023686 
L 196.155535 247.523844 
L 177.199305 221.56242 
L 177.199305 183.23758 
L 196.155535 157.276156 
L 226.732532 134.776314 
L 248.949454 124.983908 
L 262.641966 130.955376 
L 298.290379 138.463078 
L 324.01766 135.870654 
L 395.736667 174.377956 
L 425.703479 174.749119 
L 425.703479 230.050881 
z
" clip-path="url(#paa3ae40469)" style="fill: #4ec36b"/>
    <path d="M 425.703479 230.050881 
L 425.703479 174.749119 
L 395.736667 174.377956 
L 324.01766 135.870654 
L 298.290379 138.463078 
L 262.641966 130.955376 
L 248.949454 124.983908 
L 226.732532 134.776314 
L 196.155535 157.276156 
L 177.199305 183.23758 
L 177.199305 221.56242 
L 196.155535 247.523844 
L 226.732532 270.023686 
L 248.949454 279.816092 
L 262.641966 273.844624 
L 298.290379 266.336922 
L 324.01766 268.929346 
L 395.736667 230.422044 
z
M 395.736667 210.942372 
L 309.62553 257.177084 
L 301.049769 256.312943 
L 250.935552 266.867202 
L 246.371381 268.857691 
L 238.96574 265.593556 
L 198.114195 235.533269 
L 191.795452 226.879461 
L 191.795452 177.920539 
L 198.114195 169.266731 
L 238.96574 139.206444 
L 246.371381 135.942309 
L 250.935552 137.932798 
L 301.049769 148.487057 
L 309.62553 147.622916 
L 395.736667 193.857628 
L 404.871891 193.970775 
L 404.871891 210.829225 
z
" clip-path="url(#paa3ae40469)" style="fill: #90d743"/>
    <path d="M 199.093525 229.537982 
L 199.093525 175.262018 
L 245.082344 141.421509 
L 302.429464 153.499047 
L 327.951333 202.4 
L 302.429464 251.300953 
L 245.082344 263.378491 
z
M 404.871891 210.829225 
L 404.871891 193.970775 
L 395.736667 193.857628 
L 309.62553 147.622916 
L 301.049769 148.487057 
L 250.935552 137.932798 
L 246.371381 135.942309 
L 238.96574 139.206444 
L 198.114195 169.266731 
L 191.795452 177.920539 
L 191.795452 226.879461 
L 198.114195 235.533269 
L 238.96574 265.593556 
L 246.371381 268.857691 
L 250.935552 266.867202 
L 301.049769 256.312943 
L 309.62553 257.177084 
L 395.736667 210.942372 
z
" clip-path="url(#paa3ae40469)" style="fill: #dae319"/>
   </g>
   <g id="line2d_1">
    <path d="M 56.81 390.04 
L 124.595333 327.493333 
M 463.522 390.04 
L 395.736667 327.493333 
M 56.81 14.76 
L 124.595333 77.306667 
M 463.522 14.76 
L 395.736667 77.306667 
M 260.166 327.493333 
L 124.595333 327.493333 
M 260.166 327.493333 
L 395.736667 327.493333 
M 395.736667 202.4 
L 395.736667 327.493333 
M 395.736667 202.4 
L 395.736667 77.306667 
M 395.736667 202.4 
L 327.951333 202.4 
M 260.166 77.306667 
L 395.736667 77.306667 
M 260.166 77.306667 
L 124.595333 77.306667 
M 124.595333 202.4 
L 124.595333 327.493333 
M 124.595333 202.4 
L 124.595333 77.306667 
M 302.429464 153.499047 
L 395.736667 77.306667 
M 302.429464 153.499047 
L 327.951333 202.4 
M 302.429464 153.499047 
L 395.736667 202.4 
M 245.082344 141.421509 
L 260.166 77.306667 
M 245.082344 141.421509 
L 302.429464 153.499047 
M 199.093525 175.262018 
L 124.595333 202.4 
M 199.093525 175.262018 
L 245.082344 141.421509 
M 199.093525 229.537982 
L 124.595333 202.4 
M 199.093525 229.537982 
L 199.093525 175.262018 
M 245.082344 263.378491 
L 260.166 327.493333 
M 245.082344 263.378491 
L 199.093525 229.537982 
M 302.429464 251.300953 
L 395.736667 327.493333 
M 302.429464 251.300953 
L 327.951333 202.4 
M 302.429464 251.300953 
L 395.736667 202.4 
M 302.429464 251.300953 
L 245.082344 263.378491 
M 192.380667 390.04 
L 124.595333 327.493333 
M 192.380667 390.04 
L 56.81 390.04 
M 192.380667 390.04 
L 260.166 327.493333 
M 327.951333 390.04 
L 395.736667 327.493333 
M 327.951333 390.04 
L 463.522 390.04 
M 327.951333 390.04 
L 260.166 327.493333 
M 327.951333 390.04 
L 192.380667 390.04 
M 56.81 139.853333 
L 124.595333 77.306667 
M 56.81 139.853333 
L 56.81 14.76 
M 56.81 139.853333 
L 124.595333 202.4 
M 56.81 264.946667 
L 124.595333 327.493333 
M 56.81 264.946667 
L 56.81 390.04 
M 56.81 264.946667 
L 124.595333 202.4 
M 56.81 264.946667 
L 56.81 139.853333 
M 463.522 264.946667 
L 395.736667 327.493333 
M 463.522 264.946667 
L 463.522 390.04 
M 463.522 264.946667 
L 395.736667 202.4 
M 463.522 139.853333 
L 395.736667 77.306667 
M 463.522 139.853333 
L 463.522 14.76 
M 463.522 139.853333 
L 395.736667 202.4 
M 463.522 139.853333 
L 463.522 264.946667 
M 327.951333 14.76 
L 395.736667 77.306667 
M 327.951333 14.76 
L 463.522 14.76 
M 327.951333 14.76 
L 260.166 77.306667 
M 192.380667 14.76 
L 124.595333 77.306667 
M 192.380667 14.76 
L 56.81 14.76 
M 192.380667 14.76 
L 260.166 77.306667 
M 192.380667 14.76 
L 327.951333 14.76 
M 190.326575 121.592273 
L 124.595333 77.306667 
M 190.326575 121.592273 
L 260.166 77.306667 
M 190.326575 121.592273 
L 124.595333 202.4 
M 190.326575 121.592273 
L 245.082344 141.421509 
M 190.326575 121.592273 
L 199.093525 175.262018 
M 190.326575 283.207727 
L 124.595333 327.493333 
M 190.326575 283.207727 
L 260.166 327.493333 
M 190.326575 283.207727 
L 124.595333 202.4 
M 190.326575 283.207727 
L 199.093525 229.537982 
M 190.326575 283.207727 
L 245.082344 263.378491 
M 291.49035 113.760757 
L 395.736667 77.306667 
M 291.49035 113.760757 
L 260.166 77.306667 
M 291.49035 113.760757 
L 302.429464 153.499047 
M 291.49035 113.760757 
L 245.082344 141.421509 
M 291.49035 291.039243 
L 395.736667 327.493333 
M 291.49035 291.039243 
L 260.166 327.493333 
M 291.49035 291.039243 
L 245.082344 263.378491 
M 291.49035 291.039243 
L 302.429464 251.300953 
L 302.429464 251.300953 
" clip-path="url(#paa3ae40469)" style="fill: none; stroke: #808080; stroke-opacity: 0.5; stroke-width: 1.5; stroke-linecap: square"/>
   </g>
   <g id="matplotlib.axis_1">
    <g id="xtick_1">
     <g id="line2d_2">
      <defs>
       <path id="m5ac14c124a" d="M 0 0 
L 0 3.5 
" style="stroke: #000000; stroke-width: 0.8"/>
      </defs>
      <g>
       <use xlink:href="#m5ac14c124a" x="124.50148" y="390.04" style="stroke: #000000; stroke-width: 0.8"/>
      </g>
     </g>
     <g id="text_1">
      <!-- −1.0 -->
      <g transform="translate(112.360073 404.638438) scale(0.1 -0.1)">
       <defs>
        <path id="DejaVuSans-2212" d="M 678 2272 
L 4684 2272 
L 4684 1741 
L 678 1741 
L 678 2272 
z
" transform="scale(0.015625)"/>
        <path id="DejaVuSans-31" d="M 794 531 
L 1825 531 
L 1825 4091 
L 703 3866 
L 703 4441 
L 1819 4666 
L 2450 4666 
L 2450 531 
L 3481 531 
L 3481 0 
L 794 0 
L 794 531 
z
" transform="scale(0.015625)"/>
        <path id="DejaVuSans-2e" d="M 684 794 
L 1344 794 
L 1344 0 
L 684 0 
L 684 794 
z
" transform="scale(0.015625)"/>
        <path id="DejaVuSans-30" d="M 2034 4250 
Q 1547 4250 1301 3770 
Q 1056 3291 1056 2328 
Q 1056 1369 1301 889 
Q 1547 409 2034 409 
Q 2525 409 2770 889 
Q 3016 1369 3016 2328 
Q 3016 3291 2770 3770 
Q 2525 4250 2034 4250 
z
M 2034 4750 
Q 2819 4750 3233 4129 
Q 3647 3509 3647 2328 
Q 3647 1150 3233 529 
Q 2819 -91 2034 -91 
Q 1250 -91 836 529 
Q 422 1150 422 2328 
Q 422 3509 836 4129 
Q 1250 4750 2034 4750 
z
" transform="scale(0.015625)"/>
       </defs>
       <use xlink:href="#DejaVuSans-2212"/>
       <use xlink:href="#DejaVuSans-31" x="83.789062"/>
       <use xlink:href="#DejaVuSans-2e" x="147.412109"/>
       <use xlink:href="#DejaVuSans-30" x="179.199219"/>
      </g>
     </g>
    </g>
    <g id="xtick_2">
     <g id="line2d_3">
      <g>
       <use xlink:href="#m5ac14c124a" x="192.33374" y="390.04" style="stroke: #000000; stroke-width: 0.8"/>
      </g>
     </g>
     <g id="text_2">
      <!-- −0.5 -->
      <g transform="translate(180.192334 404.638438) scale(0.1 -0.1)">
       <defs>
        <path id="DejaVuSans-35" d="M 691 4666 
L 3169 4666 
L 3169 4134 
L 1269 4134 
L 1269 2991 
Q 1406 3038 1543 3061 
Q 1681 3084 1819 3084 
Q 2600 3084 3056 2656 
Q 3513 2228 3513 1497 
Q 3513 744 3044 326 
Q 2575 -91 1722 -91 
Q 1428 -91 1123 -41 
Q 819 9 494 109 
L 494 744 
Q 775 591 1075 516 
Q 1375 441 1709 441 
Q 2250 441 2565 725 
Q 2881 1009 2881 1497 
Q 2881 1984 2565 2268 
Q 2250 2553 1709 2553 
Q 1456 2553 1204 2497 
Q 953 2441 691 2322 
L 691 4666 
z
" transform="scale(0.015625)"/>
       </defs>
       <use xlink:href="#DejaVuSans-2212"/>
       <use xlink:href="#DejaVuSans-30" x="83.789062"/>
       <use xlink:href="#DejaVuSans-2e" x="147.412109"/>
       <use xlink:href="#DejaVuSans-35" x="179.199219"/>
      </g>
     </g>
    </g>
    <g id="xtick_3">
     <g id="line2d_4">
      <g>
       <use xlink:href="#m5ac14c124a" x="260.166" y="390.04" style="stroke: #000000; stroke-width: 0.8"/>
      </g>
     </g>
     <g id="text_3">
      <!-- 0.0 -->
      <g transform="translate(252.214438 404.638438) scale(0.1 -0.1)">
       <use xlink:href="#DejaVuSans-30"/>
       <use xlink:href="#DejaVuSans-2e" x="63.623047"/>
       <use xlink:href="#DejaVuSans-30" x="95.410156"/>
      </g>
     </g>
    </g>
    <g id="xtick_4">
     <g id="line2d_5">
      <g>
       <use xlink:href="#m5ac14c124a" x="327.99826" y="390.04" style="stroke: #000000; stroke-width: 0.8"/>
      </g>
     </g>
     <g id="text_4">
      <!-- 0.5 -->
      <g transform="translate(320.046698 404.638438) scale(0.1 -0.1)">
       <use xlink:href="#DejaVuSans-30"/>
       <use xlink:href="#DejaVuSans-2e" x="63.623047"/>
       <use xlink:href="#DejaVuSans-35" x="95.410156"/>
      </g>
     </g>
    </g>
    <g id="xtick_5">
     <g id="line2d_6">
      <g>
       <use xlink:href="#m5ac14c124a" x="395.83052" y="390.04" style="stroke: #000000; stroke-width: 0.8"/>
      </g>
     </g>
     <g id="text_5">
      <!-- 1.0 -->
      <g transform="translate(387.878958 404.638438) scale(0.1 -0.1)">
       <use xlink:href="#DejaVuSans-31"/>
       <use xlink:href="#DejaVuSans-2e" x="63.623047"/>
       <use xlink:href="#DejaVuSans-30" x="95.410156"/>
      </g>
     </g>
    </g>
    <g id="text_6">
     <!-- $x$ -->
     <g transform="translate(257.166 418.316562) scale(0.1 -0.1)">
      <defs>
       <path id="DejaVuSans-Oblique-78" d="M 3841 3500 
L 2234 1784 
L 3219 0 
L 2559 0 
L 1819 1388 
L 531 0 
L -166 0 
L 1556 1844 
L 641 3500 
L 1300 3500 
L 1972 2234 
L 3144 3500 
L 3841 3500 
z
" transform="scale(0.015625)"/>
      </defs>
      <use xlink:href="#DejaVuSans-Oblique-78" transform="translate(0 0.3125)"/>
     </g>
    </g>
   </g>
   <g id="matplotlib.axis_2">
    <g id="ytick_1">
     <g id="line2d_7">
      <defs>
       <path id="mfd3884f408" d="M 0 0 
L -3.5 0 
" style="stroke: #000000; stroke-width: 0.8"/>
      </defs>
      <g>
       <use xlink:href="#mfd3884f408" x="56.81" y="327.579934" style="stroke: #000000; stroke-width: 0.8"/>
      </g>
     </g>
     <g id="text_7">
      <!-- −1.0 -->
      <g transform="translate(25.527188 331.379152) scale(0.1 -0.1)">
       <use xlink:href="#DejaVuSans-2212"/>
       <use xlink:href="#DejaVuSans-31" x="83.789062"/>
       <use xlink:href="#DejaVuSans-2e" x="147.412109"/>
       <use xlink:href="#DejaVuSans-30" x="179.199219"/>
      </g>
     </g>
    </g>
    <g id="ytick_2">
     <g id="line2d_8">
      <g>
       <use xlink:href="#mfd3884f408" x="56.81" y="264.989967" style="stroke: #000000; stroke-width: 0.8"/>
      </g>
     </g>
     <g id="text_8">
      <!-- −0.5 -->
      <g transform="translate(25.527188 268.789186) scale(0.1 -0.1)">
       <use xlink:href="#DejaVuSans-2212"/>
       <use xlink:href="#DejaVuSans-30" x="83.789062"/>
       <use xlink:href="#DejaVuSans-2e" x="147.412109"/>
       <use xlink:href="#DejaVuSans-35" x="179.199219"/>
      </g>
     </g>
    </g>
    <g id="ytick_3">
     <g id="line2d_9">
      <g>
       <use xlink:href="#mfd3884f408" x="56.81" y="202.4" style="stroke: #000000; stroke-width: 0.8"/>
      </g>
     </g>
     <g id="text_9">
      <!-- 0.0 -->
      <g transform="translate(33.906875 206.199219) scale(0.1 -0.1)">
       <use xlink:href="#DejaVuSans-30"/>
       <use xlink:href="#DejaVuSans-2e" x="63.623047"/>
       <use xlink:href="#DejaVuSans-30" x="95.410156"/>
      </g>
     </g>
    </g>
    <g id="ytick_4">
     <g id="line2d_10">
      <g>
       <use xlink:href="#mfd3884f408" x="56.81" y="139.810033" style="stroke: #000000; stroke-width: 0.8"/>
      </g>
     </g>
     <g id="text_10">
      <!-- 0.5 -->
      <g transform="translate(33.906875 143.609252) scale(0.1 -0.1)">
       <use xlink:href="#DejaVuSans-30"/>
       <use xlink:href="#DejaVuSans-2e" x="63.623047"/>
       <use xlink:href="#DejaVuSans-35" x="95.410156"/>
      </g>
     </g>
    </g>
    <g id="ytick_5">
     <g id="line2d_11">
      <g>
       <use xlink:href="#mfd3884f408" x="56.81" y="77.220066" style="stroke: #000000; stroke-width: 0.8"/>
      </g>
     </g>
     <g id="text_11">
      <!-- 1.0 -->
      <g transform="translate(33.906875 81.019285) scale(0.1 -0.1)">
       <use xlink:href="#DejaVuSans-31"/>
       <use xlink:href="#DejaVuSans-2e" x="63.623047"/>
       <use xlink:href="#DejaVuSans-30" x="95.410156"/>
      </g>
     </g>
    </g>
    <g id="text_12">
     <!-- $y$ -->
     <g transform="translate(19.427188 205.4) rotate(-90) scale(0.1 -0.1)">
      <defs>
       <path id="DejaVuSans-Oblique-79" d="M 1588 -325 
Q 1188 -997 936 -1164 
Q 684 -1331 294 -1331 
L -159 -1331 
L -63 -850 
L 269 -850 
Q 509 -850 678 -719 
Q 847 -588 1056 -206 
L 1234 128 
L 459 3500 
L 1069 3500 
L 1650 819 
L 3256 3500 
L 3859 3500 
L 1588 -325 
z
" transform="scale(0.015625)"/>
      </defs>
      <use xlink:href="#DejaVuSans-Oblique-79" transform="translate(0 0.3125)"/>
     </g>
    </g>
   </g>
   <g id="line2d_12"/>
   <g id="patch_3">
    <path d="M 56.81 390.04 
L 56.81 14.76 
" style="fill: none; stroke: #000000; stroke-width: 0.8; stroke-linejoin: miter; stroke-linecap: square"/>
   </g>
   <g id="patch_4">
    <path d="M 463.522 390.04 
L 463.522 14.76 
" style="fill: none; stroke: #000000; stroke-width: 0.8; stroke-linejoin: miter; stroke-linecap: square"/>
   </g>
   <g id="patch_5">
    <path d="M 56.81 390.04 
L 463.522 390.04 
" style="fill: none; stroke: #000000; stroke-width: 0.8; stroke-linejoin: miter; stroke-linecap: square"/>
   </g>
   <g id="patch_6">
    <path d="M 56.81 14.76 
L 463.522 14.76 
" style="fill: none; stroke: #000000; stroke-width: 0.8; stroke-linejoin: miter; stroke-linecap: square"/>
   </g>
  </g>
  <g id="axes_2">
   <g id="patch_7">
    <path d="M 488.9415 390.04 
L 507.7055 390.04 
L 507.7055 14.76 
L 488.9415 14.76 
z
" style="fill: #ffffff"/>
   </g>
   <g id="QuadMesh_1">
    <path d="M 488.9415 390.04 
L 507.7055 390.04 
L 507.7055 348.342222 
L 488.9415 348.342222 
L 488.9415 390.04 
" clip-path="url(#p96a742c0da)" style="fill: #481668"/>
    <path d="M 488.9415 348.342222 
L 507.7055 348.342222 
L 507.7055 306.644444 
L 488.9415 306.644444 
L 488.9415 348.342222 
" clip-path="url(#p96a742c0da)" style="fill: #443983"/>
    <path d="M 488.9415 306.644444 
L 507.7055 306.644444 
L 507.7055 264.946667 
L 488.9415 264.946667 
L 488.9415 306.644444 
" clip-path="url(#p96a742c0da)" style="fill: #375a8c"/>
    <path d="M 488.9415 264.946667 
L 507.7055 264.946667 
L 507.7055 223.248889 
L 488.9415 223.248889 
L 488.9415 264.946667 
" clip-path="url(#p96a742c0da)" style="fill: #2b758e"/>
    <path d="M 488.9415 223.248889 
L 507.7055 223.248889 
L 507.7055 181.551111 
L 488.9415 181.551111 
L 488.9415 223.248889 
" clip-path="url(#p96a742c0da)" style="fill: #21908d"/>
    <path d="M 488.9415 181.551111 
L 507.7055 181.551111 
L 507.7055 139.853333 
L 488.9415 139.853333 
L 488.9415 181.551111 
" clip-path="url(#p96a742c0da)" style="fill: #25ab82"/>
    <path d="M 488.9415 139.853333 
L 507.7055 139.853333 
L 507.7055 98.155556 
L 488.9415 98.155556 
L 488.9415 139.853333 
" clip-path="url(#p96a742c0da)" style="fill: #4ec36b"/>
    <path d="M 488.9415 98.155556 
L 507.7055 98.155556 
L 507.7055 56.457778 
L 488.9415 56.457778 
L 488.9415 98.155556 
" clip-path="url(#p96a742c0da)" style="fill: #90d743"/>
    <path d="M 488.9415 56.457778 
L 507.7055 56.457778 
L 507.7055 14.76 
L 488.9415 14.76 
L 488.9415 56.457778 
" clip-path="url(#p96a742c0da)" style="fill: #dae319"/>
   </g>
   <g id="matplotlib.axis_3"/>
   <g id="matplotlib.axis_4">
    <g id="ytick_6">
     <g id="line2d_13">
      <defs>
       <path id="mf17e1be512" d="M 0 0 
L 3.5 0 
" style="stroke: #000000; stroke-width: 0.8"/>
      </defs>
      <g>
       <use xlink:href="#mf17e1be512" x="507.7055" y="390.04" style="stroke: #000000; stroke-width: 0.8"/>
      </g>
     </g>
     <g id="text_13">
      <!-- 0.32 -->
      <g transform="translate(514.7055 393.839219) scale(0.1 -0.1)">
       <defs>
        <path id="DejaVuSans-33" d="M 2597 2516 
Q 3050 2419 3304 2112 
Q 3559 1806 3559 1356 
Q 3559 666 3084 287 
Q 2609 -91 1734 -91 
Q 1441 -91 1130 -33 
Q 819 25 488 141 
L 488 750 
Q 750 597 1062 519 
Q 1375 441 1716 441 
Q 2309 441 2620 675 
Q 2931 909 2931 1356 
Q 2931 1769 2642 2001 
Q 2353 2234 1838 2234 
L 1294 2234 
L 1294 2753 
L 1863 2753 
Q 2328 2753 2575 2939 
Q 2822 3125 2822 3475 
Q 2822 3834 2567 4026 
Q 2313 4219 1838 4219 
Q 1578 4219 1281 4162 
Q 984 4106 628 3988 
L 628 4550 
Q 988 4650 1302 4700 
Q 1616 4750 1894 4750 
Q 2613 4750 3031 4423 
Q 3450 4097 3450 3541 
Q 3450 3153 3228 2886 
Q 3006 2619 2597 2516 
z
" transform="scale(0.015625)"/>
        <path id="DejaVuSans-32" d="M 1228 531 
L 3431 531 
L 3431 0 
L 469 0 
L 469 531 
Q 828 903 1448 1529 
Q 2069 2156 2228 2338 
Q 2531 2678 2651 2914 
Q 2772 3150 2772 3378 
Q 2772 3750 2511 3984 
Q 2250 4219 1831 4219 
Q 1534 4219 1204 4116 
Q 875 4013 500 3803 
L 500 4441 
Q 881 4594 1212 4672 
Q 1544 4750 1819 4750 
Q 2544 4750 2975 4387 
Q 3406 4025 3406 3419 
Q 3406 3131 3298 2873 
Q 3191 2616 2906 2266 
Q 2828 2175 2409 1742 
Q 1991 1309 1228 531 
z
" transform="scale(0.015625)"/>
       </defs>
       <use xlink:href="#DejaVuSans-30"/>
       <use xlink:href="#DejaVuSans-2e" x="63.623047"/>
       <use xlink:href="#DejaVuSans-33" x="95.410156"/>
       <use xlink:href="#DejaVuSans-32" x="159.033203"/>
      </g>
     </g>
    </g>
    <g id="ytick_7">
     <g id="line2d_14">
      <g>
       <use xlink:href="#mf17e1be512" x="507.7055" y="348.342222" style="stroke: #000000; stroke-width: 0.8"/>
      </g>
     </g>
     <g id="text_14">
      <!-- 0.40 -->
      <g transform="translate(514.7055 352.141441) scale(0.1 -0.1)">
       <defs>
        <path id="DejaVuSans-34" d="M 2419 4116 
L 825 1625 
L 2419 1625 
L 2419 4116 
z
M 2253 4666 
L 3047 4666 
L 3047 1625 
L 3713 1625 
L 3713 1100 
L 3047 1100 
L 3047 0 
L 2419 0 
L 2419 1100 
L 313 1100 
L 313 1709 
L 2253 4666 
z
" transform="scale(0.015625)"/>
       </defs>
       <use xlink:href="#DejaVuSans-30"/>
       <use xlink:href="#DejaVuSans-2e" x="63.623047"/>
       <use xlink:href="#DejaVuSans-34" x="95.410156"/>
       <use xlink:href="#DejaVuSans-30" x="159.033203"/>
      </g>
     </g>
    </g>
    <g id="ytick_8">
     <g id="line2d_15">
      <g>
       <use xlink:href="#mf17e1be512" x="507.7055" y="306.644444" style="stroke: #000000; stroke-width: 0.8"/>
      </g>
     </g>
     <g id="text_15">
      <!-- 0.48 -->
      <g transform="translate(514.7055 310.443663) scale(0.1 -0.1)">
       <defs>
        <path id="DejaVuSans-38" d="M 2034 2216 
Q 1584 2216 1326 1975 
Q 1069 1734 1069 1313 
Q 1069 891 1326 650 
Q 1584 409 2034 409 
Q 2484 409 2743 651 
Q 3003 894 3003 1313 
Q 3003 1734 2745 1975 
Q 2488 2216 2034 2216 
z
M 1403 2484 
Q 997 2584 770 2862 
Q 544 3141 544 3541 
Q 544 4100 942 4425 
Q 1341 4750 2034 4750 
Q 2731 4750 3128 4425 
Q 3525 4100 3525 3541 
Q 3525 3141 3298 2862 
Q 3072 2584 2669 2484 
Q 3125 2378 3379 2068 
Q 3634 1759 3634 1313 
Q 3634 634 3220 271 
Q 2806 -91 2034 -91 
Q 1263 -91 848 271 
Q 434 634 434 1313 
Q 434 1759 690 2068 
Q 947 2378 1403 2484 
z
M 1172 3481 
Q 1172 3119 1398 2916 
Q 1625 2713 2034 2713 
Q 2441 2713 2670 2916 
Q 2900 3119 2900 3481 
Q 2900 3844 2670 4047 
Q 2441 4250 2034 4250 
Q 1625 4250 1398 4047 
Q 1172 3844 1172 3481 
z
" transform="scale(0.015625)"/>
       </defs>
       <use xlink:href="#DejaVuSans-30"/>
       <use xlink:href="#DejaVuSans-2e" x="63.623047"/>
       <use xlink:href="#DejaVuSans-34" x="95.410156"/>
       <use xlink:href="#DejaVuSans-38" x="159.033203"/>
      </g>
     </g>
    </g>
    <g id="ytick_9">
     <g id="line2d_16">
      <g>
       <use xlink:href="#mf17e1be512" x="507.7055" y="264.946667" style="stroke: #000000; stroke-width: 0.8"/>
      </g>
     </g>
     <g id="text_16">
      <!-- 0.56 -->
      <g transform="translate(514.7055 268.745885) scale(0.1 -0.1)">
       <defs>
        <path id="DejaVuSans-36" d="M 2113 2584 
Q 1688 2584 1439 2293 
Q 1191 2003 1191 1497 
Q 1191 994 1439 701 
Q 1688 409 2113 409 
Q 2538 409 2786 701 
Q 3034 994 3034 1497 
Q 3034 2003 2786 2293 
Q 2538 2584 2113 2584 
z
M 3366 4563 
L 3366 3988 
Q 3128 4100 2886 4159 
Q 2644 4219 2406 4219 
Q 1781 4219 1451 3797 
Q 1122 3375 1075 2522 
Q 1259 2794 1537 2939 
Q 1816 3084 2150 3084 
Q 2853 3084 3261 2657 
Q 3669 2231 3669 1497 
Q 3669 778 3244 343 
Q 2819 -91 2113 -91 
Q 1303 -91 875 529 
Q 447 1150 447 2328 
Q 447 3434 972 4092 
Q 1497 4750 2381 4750 
Q 2619 4750 2861 4703 
Q 3103 4656 3366 4563 
z
" transform="scale(0.015625)"/>
       </defs>
       <use xlink:href="#DejaVuSans-30"/>
       <use xlink:href="#DejaVuSans-2e" x="63.623047"/>
       <use xlink:href="#DejaVuSans-35" x="95.410156"/>
       <use xlink:href="#DejaVuSans-36" x="159.033203"/>
      </g>
     </g>
    </g>
    <g id="ytick_10">
     <g id="line2d_17">
      <g>
       <use xlink:href="#mf17e1be512" x="507.7055" y="223.248889" style="stroke: #000000; stroke-width: 0.8"/>
      </g>
     </g>
     <g id="text_17">
      <!-- 0.64 -->
      <g transform="translate(514.7055 227.048108) scale(0.1 -0.1)">
       <use xlink:href="#DejaVuSans-30"/>
       <use xlink:href="#DejaVuSans-2e" x="63.623047"/>
       <use xlink:href="#DejaVuSans-36" x="95.410156"/>
       <use xlink:href="#DejaVuSans-34" x="159.033203"/>
      </g>
     </g>
    </g>
    <g id="ytick_11">
     <g id="line2d_18">
      <g>
       <use xlink:href="#mf17e1be512" x="507.7055" y="181.551111" style="stroke: #000000; stroke-width: 0.8"/>
      </g>
     </g>
     <g id="text_18">
      <!-- 0.72 -->
      <g transform="translate(514.7055 185.35033) scale(0.1 -0.1)">
       <defs>
        <path id="DejaVuSans-37" d="M 525 4666 
L 3525 4666 
L 3525 4397 
L 1831 0 
L 1172 0 
L 2766 4134 
L 525 4134 
L 525 4666 
z
" transform="scale(0.015625)"/>
       </defs>
       <use xlink:href="#DejaVuSans-30"/>
       <use xlink:href="#DejaVuSans-2e" x="63.623047"/>
       <use xlink:href="#DejaVuSans-37" x="95.410156"/>
       <use xlink:href="#DejaVuSans-32" x="159.033203"/>
      </g>
     </g>
    </g>
    <g id="ytick_12">
     <g id="line2d_19">
      <g>
       <use xlink:href="#mf17e1be512" x="507.7055" y="139.853333" style="stroke: #000000; stroke-width: 0.8"/>
      </g>
     </g>
     <g id="text_19">
      <!-- 0.80 -->
      <g transform="translate(514.7055 143.652552) scale(0.1 -0.1)">
       <use xlink:href="#DejaVuSans-30"/>
       <use xlink:href="#DejaVuSans-2e" x="63.623047"/>
       <use xlink:href="#DejaVuSans-38" x="95.410156"/>
       <use xlink:href="#DejaVuSans-30" x="159.033203"/>
      </g>
     </g>
    </g>
    <g id="ytick_13">
     <g id="line2d_20">
      <g>
       <use xlink:href="#mf17e1be512" x="507.7055" y="98.155556" style="stroke: #000000; stroke-width: 0.8"/>
      </g>
     </g>
     <g id="text_20">
      <!-- 0.88 -->
      <g transform="translate(514.7055 101.954774) scale(0.1 -0.1)">
       <use xlink:href="#DejaVuSans-30"/>
       <use xlink:href="#DejaVuSans-2e" x="63.623047"/>
       <use xlink:href="#DejaVuSans-38" x="95.410156"/>
       <use xlink:href="#DejaVuSans-38" x="159.033203"/>
      </g>
     </g>
    </g>
    <g id="ytick_14">
     <g id="line2d_21">
      <g>
       <use xlink:href="#mf17e1be512" x="507.7055" y="56.457778" style="stroke: #000000; stroke-width: 0.8"/>
      </g>
     </g>
     <g id="text_21">
      <!-- 0.96 -->
      <g transform="translate(514.7055 60.256997) scale(0.1 -0.1)">
       <defs>
        <path id="DejaVuSans-39" d="M 703 97 
L 703 672 
Q 941 559 1184 500 
Q 1428 441 1663 441 
Q 2288 441 2617 861 
Q 2947 1281 2994 2138 
Q 2813 1869 2534 1725 
Q 2256 1581 1919 1581 
Q 1219 1581 811 2004 
Q 403 2428 403 3163 
Q 403 3881 828 4315 
Q 1253 4750 1959 4750 
Q 2769 4750 3195 4129 
Q 3622 3509 3622 2328 
Q 3622 1225 3098 567 
Q 2575 -91 1691 -91 
Q 1453 -91 1209 -44 
Q 966 3 703 97 
z
M 1959 2075 
Q 2384 2075 2632 2365 
Q 2881 2656 2881 3163 
Q 2881 3666 2632 3958 
Q 2384 4250 1959 4250 
Q 1534 4250 1286 3958 
Q 1038 3666 1038 3163 
Q 1038 2656 1286 2365 
Q 1534 2075 1959 2075 
z
" transform="scale(0.015625)"/>
       </defs>
       <use xlink:href="#DejaVuSans-30"/>
       <use xlink:href="#DejaVuSans-2e" x="63.623047"/>
       <use xlink:href="#DejaVuSans-39" x="95.410156"/>
       <use xlink:href="#DejaVuSans-36" x="159.033203"/>
      </g>
     </g>
    </g>
    <g id="ytick_15">
     <g id="line2d_22">
      <g>
       <use xlink:href="#mf17e1be512" x="507.7055" y="14.76" style="stroke: #000000; stroke-width: 0.8"/>
      </g>
     </g>
     <g id="text_22">
      <!-- 1.04 -->
      <g transform="translate(514.7055 18.559219) scale(0.1 -0.1)">
       <use xlink:href="#DejaVuSans-31"/>
       <use xlink:href="#DejaVuSans-2e" x="63.623047"/>
       <use xlink:href="#DejaVuSans-30" x="95.410156"/>
       <use xlink:href="#DejaVuSans-34" x="159.033203"/>
      </g>
     </g>
    </g>
    <g id="text_23">
     <!-- $u(x, y)$ -->
     <g transform="translate(548.571125 218) rotate(-90) scale(0.1 -0.1)">
      <defs>
       <path id="DejaVuSans-Oblique-75" d="M 428 1388 
L 838 3500 
L 1416 3500 
L 1006 1409 
Q 975 1256 961 1147 
Q 947 1038 947 966 
Q 947 700 1109 554 
Q 1272 409 1569 409 
Q 2031 409 2368 721 
Q 2706 1034 2809 1563 
L 3194 3500 
L 3769 3500 
L 3091 0 
L 2516 0 
L 2631 550 
Q 2388 244 2052 76 
Q 1716 -91 1338 -91 
Q 878 -91 622 161 
Q 366 413 366 863 
Q 366 956 381 1097 
Q 397 1238 428 1388 
z
" transform="scale(0.015625)"/>
       <path id="DejaVuSans-28" d="M 1984 4856 
Q 1566 4138 1362 3434 
Q 1159 2731 1159 2009 
Q 1159 1288 1364 580 
Q 1569 -128 1984 -844 
L 1484 -844 
Q 1016 -109 783 600 
Q 550 1309 550 2009 
Q 550 2706 781 3412 
Q 1013 4119 1484 4856 
L 1984 4856 
z
" transform="scale(0.015625)"/>
       <path id="DejaVuSans-2c" d="M 750 794 
L 1409 794 
L 1409 256 
L 897 -744 
L 494 -744 
L 750 256 
L 750 794 
z
" transform="scale(0.015625)"/>
       <path id="DejaVuSans-29" d="M 513 4856 
L 1013 4856 
Q 1481 4119 1714 3412 
Q 1947 2706 1947 2009 
Q 1947 1309 1714 600 
Q 1481 -109 1013 -844 
L 513 -844 
Q 928 -128 1133 580 
Q 1338 1288 1338 2009 
Q 1338 2731 1133 3434 
Q 928 4138 513 4856 
z
" transform="scale(0.015625)"/>
      </defs>
      <use xlink:href="#DejaVuSans-Oblique-75" transform="translate(0 0.125)"/>
      <use xlink:href="#DejaVuSans-28" transform="translate(63.378906 0.125)"/>
      <use xlink:href="#DejaVuSans-Oblique-78" transform="translate(102.392578 0.125)"/>
      <use xlink:href="#DejaVuSans-2c" transform="translate(161.572266 0.125)"/>
      <use xlink:href="#DejaVuSans-Oblique-79" transform="translate(212.841797 0.125)"/>
      <use xlink:href="#DejaVuSans-29" transform="translate(272.021484 0.125)"/>
     </g>
    </g>
   </g>
   <g id="LineCollection_1"/>
   <g id="patch_8">
    <path d="M 488.9415 390.04 
L 498.3235 390.04 
L 507.7055 390.04 
L 507.7055 14.76 
L 498.3235 14.76 
L 488.9415 14.76 
L 488.9415 390.04 
z
" style="fill: none; stroke: #000000; stroke-width: 0.8; stroke-linejoin: miter; stroke-linecap: square"/>
   </g>
  </g>
 </g>
 <defs>
  <clipPath id="paa3ae40469">
   <rect x="56.81" y="14.76" width="406.712" height="375.28"/>
  </clipPath>
  <clipPath id="p96a742c0da">
   <rect x="488.9415" y="14.76" width="18.764" height="375.28"/>
  </clipPath>
 </defs>
</svg>
