<?xml version="1.0" encoding="utf-8" standalone="no"?>
<!DOCTYPE svg PUBLIC "-//W3C//DTD SVG 1.1//EN"
  "http://www.w3.org/Graphics/SVG/1.1/DTD/svg11.dtd">
<svg xmlns:xlink="http://www.w3.org/1999/xlink" width="576pt" height="432pt" viewBox="0 0 576 432" xmlns="http://www.w3.org/2000/svg" version="1.1">
 <metadata>
  <rdf:RDF xmlns:dc="http://purl.org/dc/elements/1.1/" xmlns:cc="http://creativecommons.org/ns#" xmlns:rdf="http://www.w3.org/1999/02/22-rdf-syntax-ns#">
   <cc:Work>
    <dc:type rdf:resource="http://purl.org/dc/dcmitype/StillImage"/>
    <dc:date>2024-12-23T10:30:51.332112</dc:date>
    <dc:format>image/svg+xml</dc:format>
    <dc:creator>
     <cc:Agent>
      <dc:title>Matplotlib v3.8.3, https://matplotlib.org/</dc:title>
     </cc:Agent>
    </dc:creator>
   </cc:Work>
  </rdf:RDF>
 </metadata>
 <defs>
  <style type="text/css">*{stroke-linejoin: round; stroke-linecap: butt}</style>
 </defs>
 <g id="figure_1">
  <g id="patch_1">
   <path d="M 0 432 
L 576 432 
L 576 0 
L 0 0 
z
" style="fill: #ffffff"/>
  </g>
  <g id="axes_1">
   <g id="patch_2">
    <path d="M 56.81 390.04 
L 463.522 390.04 
L 463.522 14.76 
L 56.81 14.76 
z
" style="fill: #ffffff"/>
   </g>
   <g id="TriContourSet_1">
    <path d="M 56.81 390.04 
L 192.380667 390.04 
L 327.951333 390.04 
L 463.522 390.04 
L 463.522 264.946667 
L 463.522 139.853333 
L 463.522 14.76 
L 327.951333 14.76 
L 192.380667 14.76 
L 56.81 14.76 
L 56.81 139.853333 
L 56.81 264.946667 
z
M 129.499674 200.613461 
L 190.819346 124.608933 
L 193.404278 122.706831 
L 258.180308 85.747084 
L 288.884955 110.728697 
L 299.574356 110.933846 
L 382.617634 88.019348 
L 391.683569 200.27583 
L 392.792193 202.4 
L 391.683569 204.52417 
L 382.617634 316.780652 
L 299.574356 293.866154 
L 288.884955 294.071303 
L 258.180308 319.052916 
L 193.404278 282.093169 
L 190.819346 280.191067 
L 129.499674 204.186539 
z
" clip-path="url(#p987f7357b2)" style="fill: #481b6d"/>
    <path d="M 129.499674 204.186539 
L 190.819346 280.191067 
L 193.404278 282.093169 
L 258.180308 319.052916 
L 288.884955 294.071303 
L 299.574356 293.866154 
L 382.617634 316.780652 
L 391.683569 204.52417 
L 392.792193 202.4 
L 391.683569 200.27583 
L 382.617634 88.019348 
L 299.574356 110.933846 
L 288.884955 110.728697 
L 258.180308 85.747084 
L 193.404278 122.706831 
L 190.819346 124.608933 
L 129.499674 200.613461 
z
M 141.780942 196.139677 
L 192.279495 133.547713 
L 202.523937 126.009422 
L 255.868902 95.571982 
L 283.833668 118.3244 
L 293.295153 120.317028 
L 368.466781 99.574589 
L 375.932844 192.021104 
L 381.349688 202.4 
L 375.932844 212.778896 
L 368.466781 305.225411 
L 293.295153 284.482972 
L 283.833668 286.4756 
L 255.868902 309.228018 
L 202.523937 278.790578 
L 192.279495 271.252287 
L 141.780942 208.660323 
z
" clip-path="url(#p987f7357b2)" style="fill: #3f4788"/>
    <path d="M 141.780942 208.660323 
L 192.279495 271.252287 
L 202.523937 278.790578 
L 255.868902 309.228018 
L 283.833668 286.4756 
L 293.295153 284.482972 
L 368.466781 305.225411 
L 375.932844 212.778896 
L 381.349688 202.4 
L 375.932844 192.021104 
L 368.466781 99.574589 
L 293.295153 120.317028 
L 283.833668 118.3244 
L 255.868902 95.571982 
L 202.523937 126.009422 
L 192.279495 133.547713 
L 141.780942 196.139677 
z
M 154.06221 191.665893 
L 193.739644 142.486493 
L 211.643596 129.312012 
L 253.557497 105.396881 
L 275.529813 123.273781 
L 295.252506 127.42746 
L 354.315927 111.12983 
L 360.18212 183.766377 
L 369.907184 202.4 
L 360.18212 221.033623 
L 354.315927 293.67017 
L 295.252506 277.37254 
L 275.529813 281.526219 
L 253.557497 299.403119 
L 211.643596 275.487988 
L 193.739644 262.313507 
L 154.06221 213.134107 
z
" clip-path="url(#p987f7357b2)" style="fill: #2e6e8e"/>
    <path d="M 154.06221 213.134107 
L 193.739644 262.313507 
L 211.643596 275.487988 
L 253.557497 299.403119 
L 275.529813 281.526219 
L 295.252506 277.37254 
L 354.315927 293.67017 
L 360.18212 221.033623 
L 369.907184 202.4 
L 360.18212 183.766377 
L 354.315927 111.12983 
L 295.252506 127.42746 
L 275.529813 123.273781 
L 253.557497 105.396881 
L 211.643596 129.312012 
L 193.739644 142.486493 
L 154.06221 191.665893 
z
M 166.343478 187.192109 
L 195.199794 151.425272 
L 220.763254 132.614602 
L 251.246092 115.221779 
L 267.225958 128.223161 
L 297.209858 134.537893 
L 340.165074 122.685071 
L 344.431396 175.511651 
L 358.464679 202.4 
L 344.431396 229.288349 
L 340.165074 282.114929 
L 297.209858 270.262107 
L 267.225958 276.576839 
L 251.246092 289.578221 
L 220.763254 272.185398 
L 195.199794 253.374728 
L 166.343478 217.607891 
z
" clip-path="url(#p987f7357b2)" style="fill: #21918c"/>
    <path d="M 166.343478 217.607891 
L 195.199794 253.374728 
L 220.763254 272.185398 
L 251.246092 289.578221 
L 267.225958 276.576839 
L 297.209858 270.262107 
L 340.165074 282.114929 
L 344.431396 229.288349 
L 358.464679 202.4 
L 344.431396 175.511651 
L 340.165074 122.685071 
L 297.209858 134.537893 
L 267.225958 128.223161 
L 251.246092 115.221779 
L 220.763254 132.614602 
L 195.199794 151.425272 
L 166.343478 187.192109 
z
M 178.624745 182.718325 
L 196.659943 160.364052 
L 229.882913 135.917192 
L 248.934687 125.046678 
L 258.922103 133.172542 
L 299.16721 141.648326 
L 326.01422 134.240312 
L 328.680671 167.256924 
L 347.022174 202.4 
L 328.680671 237.543076 
L 326.01422 270.559688 
L 299.16721 263.151674 
L 258.922103 271.627458 
L 248.934687 279.753322 
L 229.882913 268.882808 
L 196.659943 244.435948 
L 178.624745 222.081675 
z
" clip-path="url(#p987f7357b2)" style="fill: #2db27d"/>
    <path d="M 178.624745 222.081675 
L 196.659943 244.435948 
L 229.882913 268.882808 
L 248.934687 279.753322 
L 258.922103 271.627458 
L 299.16721 263.151674 
L 326.01422 270.559688 
L 328.680671 237.543076 
L 347.022174 202.4 
L 328.680671 167.256924 
L 326.01422 134.240312 
L 299.16721 141.648326 
L 258.922103 133.172542 
L 248.934687 125.046678 
L 229.882913 135.917192 
L 196.659943 160.364052 
L 178.624745 182.718325 
z
M 190.906013 178.244541 
L 198.120092 169.302832 
L 239.002572 139.219782 
L 246.623281 134.871576 
L 250.618248 138.121922 
L 301.124563 148.758758 
L 311.863366 145.795553 
L 312.929947 159.002198 
L 335.57967 202.4 
L 312.929947 245.797802 
L 311.863366 259.004447 
L 301.124563 256.041242 
L 250.618248 266.678078 
L 246.623281 269.928424 
L 239.002572 265.580218 
L 198.120092 235.497168 
L 190.906013 226.555459 
z
" clip-path="url(#p987f7357b2)" style="fill: #73d056"/>
    <path d="M 199.093525 229.537982 
L 199.093525 175.262018 
L 245.082344 141.421509 
L 302.429464 153.499047 
L 327.951333 202.4 
L 302.429464 251.300953 
L 245.082344 263.378491 
z
M 190.906013 226.555459 
L 198.120092 235.497168 
L 239.002572 265.580218 
L 246.623281 269.928424 
L 250.618248 266.678078 
L 301.124563 256.041242 
L 311.863366 259.004447 
L 312.929947 245.797802 
L 335.57967 202.4 
L 312.929947 159.002198 
L 311.863366 145.795553 
L 301.124563 148.758758 
L 250.618248 138.121922 
L 246.623281 134.871576 
L 239.002572 139.219782 
L 198.120092 169.302832 
L 190.906013 178.244541 
z
" clip-path="url(#p987f7357b2)" style="fill: #d0e11c"/>
   </g>
   <g id="line2d_1">
    <path d="M 56.81 390.04 
L 124.595333 327.493333 
M 463.522 390.04 
L 395.736667 327.493333 
M 56.81 14.76 
L 124.595333 77.306667 
M 463.522 14.76 
L 395.736667 77.306667 
M 260.166 327.493333 
L 124.595333 327.493333 
M 260.166 327.493333 
L 395.736667 327.493333 
M 395.736667 202.4 
L 395.736667 327.493333 
M 395.736667 202.4 
L 395.736667 77.306667 
M 395.736667 202.4 
L 327.951333 202.4 
M 260.166 77.306667 
L 395.736667 77.306667 
M 260.166 77.306667 
L 124.595333 77.306667 
M 124.595333 202.4 
L 124.595333 327.493333 
M 124.595333 202.4 
L 124.595333 77.306667 
M 302.429464 153.499047 
L 395.736667 77.306667 
M 302.429464 153.499047 
L 327.951333 202.4 
M 302.429464 153.499047 
L 395.736667 202.4 
M 245.082344 141.421509 
L 260.166 77.306667 
M 245.082344 141.421509 
L 302.429464 153.499047 
M 199.093525 175.262018 
L 124.595333 202.4 
M 199.093525 175.262018 
L 245.082344 141.421509 
M 199.093525 229.537982 
L 124.595333 202.4 
M 199.093525 229.537982 
L 199.093525 175.262018 
M 245.082344 263.378491 
L 260.166 327.493333 
M 245.082344 263.378491 
L 199.093525 229.537982 
M 302.429464 251.300953 
L 395.736667 327.493333 
M 302.429464 251.300953 
L 327.951333 202.4 
M 302.429464 251.300953 
L 395.736667 202.4 
M 302.429464 251.300953 
L 245.082344 263.378491 
M 192.380667 390.04 
L 124.595333 327.493333 
M 192.380667 390.04 
L 56.81 390.04 
M 192.380667 390.04 
L 260.166 327.493333 
M 327.951333 390.04 
L 395.736667 327.493333 
M 327.951333 390.04 
L 463.522 390.04 
M 327.951333 390.04 
L 260.166 327.493333 
M 327.951333 390.04 
L 192.380667 390.04 
M 56.81 139.853333 
L 124.595333 77.306667 
M 56.81 139.853333 
L 56.81 14.76 
M 56.81 139.853333 
L 124.595333 202.4 
M 56.81 264.946667 
L 124.595333 327.493333 
M 56.81 264.946667 
L 56.81 390.04 
M 56.81 264.946667 
L 124.595333 202.4 
M 56.81 264.946667 
L 56.81 139.853333 
M 463.522 264.946667 
L 395.736667 327.493333 
M 463.522 264.946667 
L 463.522 390.04 
M 463.522 264.946667 
L 395.736667 202.4 
M 463.522 139.853333 
L 395.736667 77.306667 
M 463.522 139.853333 
L 463.522 14.76 
M 463.522 139.853333 
L 395.736667 202.4 
M 463.522 139.853333 
L 463.522 264.946667 
M 327.951333 14.76 
L 395.736667 77.306667 
M 327.951333 14.76 
L 463.522 14.76 
M 327.951333 14.76 
L 260.166 77.306667 
M 192.380667 14.76 
L 124.595333 77.306667 
M 192.380667 14.76 
L 56.81 14.76 
M 192.380667 14.76 
L 260.166 77.306667 
M 192.380667 14.76 
L 327.951333 14.76 
M 190.326575 121.592273 
L 124.595333 77.306667 
M 190.326575 121.592273 
L 260.166 77.306667 
M 190.326575 121.592273 
L 124.595333 202.4 
M 190.326575 121.592273 
L 245.082344 141.421509 
M 190.326575 121.592273 
L 199.093525 175.262018 
M 190.326575 283.207727 
L 124.595333 327.493333 
M 190.326575 283.207727 
L 260.166 327.493333 
M 190.326575 283.207727 
L 124.595333 202.4 
M 190.326575 283.207727 
L 199.093525 229.537982 
M 190.326575 283.207727 
L 245.082344 263.378491 
M 291.49035 113.760757 
L 395.736667 77.306667 
M 291.49035 113.760757 
L 260.166 77.306667 
M 291.49035 113.760757 
L 302.429464 153.499047 
M 291.49035 113.760757 
L 245.082344 141.421509 
M 291.49035 291.039243 
L 395.736667 327.493333 
M 291.49035 291.039243 
L 260.166 327.493333 
M 291.49035 291.039243 
L 245.082344 263.378491 
M 291.49035 291.039243 
L 302.429464 251.300953 
L 302.429464 251.300953 
" clip-path="url(#p987f7357b2)" style="fill: none; stroke: #808080; stroke-opacity: 0.5; stroke-width: 1.5; stroke-linecap: square"/>
   </g>
   <g id="matplotlib.axis_1">
    <g id="xtick_1">
     <g id="line2d_2">
      <defs>
       <path id="mb595615d61" d="M 0 0 
L 0 3.5 
" style="stroke: #000000; stroke-width: 0.8"/>
      </defs>
      <g>
       <use xlink:href="#mb595615d61" x="124.50148" y="390.04" style="stroke: #000000; stroke-width: 0.8"/>
      </g>
     </g>
     <g id="text_1">
      <!-- −1.0 -->
      <g transform="translate(112.360073 404.638438) scale(0.1 -0.1)">
       <defs>
        <path id="DejaVuSans-2212" d="M 678 2272 
L 4684 2272 
L 4684 1741 
L 678 1741 
L 678 2272 
z
" transform="scale(0.015625)"/>
        <path id="DejaVuSans-31" d="M 794 531 
L 1825 531 
L 1825 4091 
L 703 3866 
L 703 4441 
L 1819 4666 
L 2450 4666 
L 2450 531 
L 3481 531 
L 3481 0 
L 794 0 
L 794 531 
z
" transform="scale(0.015625)"/>
        <path id="DejaVuSans-2e" d="M 684 794 
L 1344 794 
L 1344 0 
L 684 0 
L 684 794 
z
" transform="scale(0.015625)"/>
        <path id="DejaVuSans-30" d="M 2034 4250 
Q 1547 4250 1301 3770 
Q 1056 3291 1056 2328 
Q 1056 1369 1301 889 
Q 1547 409 2034 409 
Q 2525 409 2770 889 
Q 3016 1369 3016 2328 
Q 3016 3291 2770 3770 
Q 2525 4250 2034 4250 
z
M 2034 4750 
Q 2819 4750 3233 4129 
Q 3647 3509 3647 2328 
Q 3647 1150 3233 529 
Q 2819 -91 2034 -91 
Q 1250 -91 836 529 
Q 422 1150 422 2328 
Q 422 3509 836 4129 
Q 1250 4750 2034 4750 
z
" transform="scale(0.015625)"/>
       </defs>
       <use xlink:href="#DejaVuSans-2212"/>
       <use xlink:href="#DejaVuSans-31" x="83.789062"/>
       <use xlink:href="#DejaVuSans-2e" x="147.412109"/>
       <use xlink:href="#DejaVuSans-30" x="179.199219"/>
      </g>
     </g>
    </g>
    <g id="xtick_2">
     <g id="line2d_3">
      <g>
       <use xlink:href="#mb595615d61" x="192.33374" y="390.04" style="stroke: #000000; stroke-width: 0.8"/>
      </g>
     </g>
     <g id="text_2">
      <!-- −0.5 -->
      <g transform="translate(180.192334 404.638438) scale(0.1 -0.1)">
       <defs>
        <path id="DejaVuSans-35" d="M 691 4666 
L 3169 4666 
L 3169 4134 
L 1269 4134 
L 1269 2991 
Q 1406 3038 1543 3061 
Q 1681 3084 1819 3084 
Q 2600 3084 3056 2656 
Q 3513 2228 3513 1497 
Q 3513 744 3044 326 
Q 2575 -91 1722 -91 
Q 1428 -91 1123 -41 
Q 819 9 494 109 
L 494 744 
Q 775 591 1075 516 
Q 1375 441 1709 441 
Q 2250 441 2565 725 
Q 2881 1009 2881 1497 
Q 2881 1984 2565 2268 
Q 2250 2553 1709 2553 
Q 1456 2553 1204 2497 
Q 953 2441 691 2322 
L 691 4666 
z
" transform="scale(0.015625)"/>
       </defs>
       <use xlink:href="#DejaVuSans-2212"/>
       <use xlink:href="#DejaVuSans-30" x="83.789062"/>
       <use xlink:href="#DejaVuSans-2e" x="147.412109"/>
       <use xlink:href="#DejaVuSans-35" x="179.199219"/>
      </g>
     </g>
    </g>
    <g id="xtick_3">
     <g id="line2d_4">
      <g>
       <use xlink:href="#mb595615d61" x="260.166" y="390.04" style="stroke: #000000; stroke-width: 0.8"/>
      </g>
     </g>
     <g id="text_3">
      <!-- 0.0 -->
      <g transform="translate(252.214438 404.638438) scale(0.1 -0.1)">
       <use xlink:href="#DejaVuSans-30"/>
       <use xlink:href="#DejaVuSans-2e" x="63.623047"/>
       <use xlink:href="#DejaVuSans-30" x="95.410156"/>
      </g>
     </g>
    </g>
    <g id="xtick_4">
     <g id="line2d_5">
      <g>
       <use xlink:href="#mb595615d61" x="327.99826" y="390.04" style="stroke: #000000; stroke-width: 0.8"/>
      </g>
     </g>
     <g id="text_4">
      <!-- 0.5 -->
      <g transform="translate(320.046698 404.638438) scale(0.1 -0.1)">
       <use xlink:href="#DejaVuSans-30"/>
       <use xlink:href="#DejaVuSans-2e" x="63.623047"/>
       <use xlink:href="#DejaVuSans-35" x="95.410156"/>
      </g>
     </g>
    </g>
    <g id="xtick_5">
     <g id="line2d_6">
      <g>
       <use xlink:href="#mb595615d61" x="395.83052" y="390.04" style="stroke: #000000; stroke-width: 0.8"/>
      </g>
     </g>
     <g id="text_5">
      <!-- 1.0 -->
      <g transform="translate(387.878958 404.638438) scale(0.1 -0.1)">
       <use xlink:href="#DejaVuSans-31"/>
       <use xlink:href="#DejaVuSans-2e" x="63.623047"/>
       <use xlink:href="#DejaVuSans-30" x="95.410156"/>
      </g>
     </g>
    </g>
    <g id="text_6">
     <!-- $x$ -->
     <g transform="translate(257.166 418.316562) scale(0.1 -0.1)">
      <defs>
       <path id="DejaVuSans-Oblique-78" d="M 3841 3500 
L 2234 1784 
L 3219 0 
L 2559 0 
L 1819 1388 
L 531 0 
L -166 0 
L 1556 1844 
L 641 3500 
L 1300 3500 
L 1972 2234 
L 3144 3500 
L 3841 3500 
z
" transform="scale(0.015625)"/>
      </defs>
      <use xlink:href="#DejaVuSans-Oblique-78" transform="translate(0 0.3125)"/>
     </g>
    </g>
   </g>
   <g id="matplotlib.axis_2">
    <g id="ytick_1">
     <g id="line2d_7">
      <defs>
       <path id="m6d86782090" d="M 0 0 
L -3.5 0 
" style="stroke: #000000; stroke-width: 0.8"/>
      </defs>
      <g>
       <use xlink:href="#m6d86782090" x="56.81" y="327.579934" style="stroke: #000000; stroke-width: 0.8"/>
      </g>
     </g>
     <g id="text_7">
      <!-- −1.0 -->
      <g transform="translate(25.527188 331.379152) scale(0.1 -0.1)">
       <use xlink:href="#DejaVuSans-2212"/>
       <use xlink:href="#DejaVuSans-31" x="83.789062"/>
       <use xlink:href="#DejaVuSans-2e" x="147.412109"/>
       <use xlink:href="#DejaVuSans-30" x="179.199219"/>
      </g>
     </g>
    </g>
    <g id="ytick_2">
     <g id="line2d_8">
      <g>
       <use xlink:href="#m6d86782090" x="56.81" y="264.989967" style="stroke: #000000; stroke-width: 0.8"/>
      </g>
     </g>
     <g id="text_8">
      <!-- −0.5 -->
      <g transform="translate(25.527188 268.789186) scale(0.1 -0.1)">
       <use xlink:href="#DejaVuSans-2212"/>
       <use xlink:href="#DejaVuSans-30" x="83.789062"/>
       <use xlink:href="#DejaVuSans-2e" x="147.412109"/>
       <use xlink:href="#DejaVuSans-35" x="179.199219"/>
      </g>
     </g>
    </g>
    <g id="ytick_3">
     <g id="line2d_9">
      <g>
       <use xlink:href="#m6d86782090" x="56.81" y="202.4" style="stroke: #000000; stroke-width: 0.8"/>
      </g>
     </g>
     <g id="text_9">
      <!-- 0.0 -->
      <g transform="translate(33.906875 206.199219) scale(0.1 -0.1)">
       <use xlink:href="#DejaVuSans-30"/>
       <use xlink:href="#DejaVuSans-2e" x="63.623047"/>
       <use xlink:href="#DejaVuSans-30" x="95.410156"/>
      </g>
     </g>
    </g>
    <g id="ytick_4">
     <g id="line2d_10">
      <g>
       <use xlink:href="#m6d86782090" x="56.81" y="139.810033" style="stroke: #000000; stroke-width: 0.8"/>
      </g>
     </g>
     <g id="text_10">
      <!-- 0.5 -->
      <g transform="translate(33.906875 143.609252) scale(0.1 -0.1)">
       <use xlink:href="#DejaVuSans-30"/>
       <use xlink:href="#DejaVuSans-2e" x="63.623047"/>
       <use xlink:href="#DejaVuSans-35" x="95.410156"/>
      </g>
     </g>
    </g>
    <g id="ytick_5">
     <g id="line2d_11">
      <g>
       <use xlink:href="#m6d86782090" x="56.81" y="77.220066" style="stroke: #000000; stroke-width: 0.8"/>
      </g>
     </g>
     <g id="text_11">
      <!-- 1.0 -->
      <g transform="translate(33.906875 81.019285) scale(0.1 -0.1)">
       <use xlink:href="#DejaVuSans-31"/>
       <use xlink:href="#DejaVuSans-2e" x="63.623047"/>
       <use xlink:href="#DejaVuSans-30" x="95.410156"/>
      </g>
     </g>
    </g>
    <g id="text_12">
     <!-- $y$ -->
     <g transform="translate(19.427188 205.4) rotate(-90) scale(0.1 -0.1)">
      <defs>
       <path id="DejaVuSans-Oblique-79" d="M 1588 -325 
Q 1188 -997 936 -1164 
Q 684 -1331 294 -1331 
L -159 -1331 
L -63 -850 
L 269 -850 
Q 509 -850 678 -719 
Q 847 -588 1056 -206 
L 1234 128 
L 459 3500 
L 1069 3500 
L 1650 819 
L 3256 3500 
L 3859 3500 
L 1588 -325 
z
" transform="scale(0.015625)"/>
      </defs>
      <use xlink:href="#DejaVuSans-Oblique-79" transform="translate(0 0.3125)"/>
     </g>
    </g>
   </g>
   <g id="line2d_12"/>
   <g id="patch_3">
    <path d="M 56.81 390.04 
L 56.81 14.76 
" style="fill: none; stroke: #000000; stroke-width: 0.8; stroke-linejoin: miter; stroke-linecap: square"/>
   </g>
   <g id="patch_4">
    <path d="M 463.522 390.04 
L 463.522 14.76 
" style="fill: none; stroke: #000000; stroke-width: 0.8; stroke-linejoin: miter; stroke-linecap: square"/>
   </g>
   <g id="patch_5">
    <path d="M 56.81 390.04 
L 463.522 390.04 
" style="fill: none; stroke: #000000; stroke-width: 0.8; stroke-linejoin: miter; stroke-linecap: square"/>
   </g>
   <g id="patch_6">
    <path d="M 56.81 14.76 
L 463.522 14.76 
" style="fill: none; stroke: #000000; stroke-width: 0.8; stroke-linejoin: miter; stroke-linecap: square"/>
   </g>
  </g>
  <g id="axes_2">
   <g id="patch_7">
    <path d="M 488.9415 390.04 
L 507.7055 390.04 
L 507.7055 14.76 
L 488.9415 14.76 
z
" style="fill: #ffffff"/>
   </g>
   <g id="QuadMesh_1">
    <path d="M 488.9415 390.04 
L 507.7055 390.04 
L 507.7055 336.428571 
L 488.9415 336.428571 
L 488.9415 390.04 
" clip-path="url(#pb4210bbb33)" style="fill: #481b6d"/>
    <path d="M 488.9415 336.428571 
L 507.7055 336.428571 
L 507.7055 282.817143 
L 488.9415 282.817143 
L 488.9415 336.428571 
" clip-path="url(#pb4210bbb33)" style="fill: #3f4788"/>
    <path d="M 488.9415 282.817143 
L 507.7055 282.817143 
L 507.7055 229.205714 
L 488.9415 229.205714 
L 488.9415 282.817143 
" clip-path="url(#pb4210bbb33)" style="fill: #2e6e8e"/>
    <path d="M 488.9415 229.205714 
L 507.7055 229.205714 
L 507.7055 175.594286 
L 488.9415 175.594286 
L 488.9415 229.205714 
" clip-path="url(#pb4210bbb33)" style="fill: #21918c"/>
    <path d="M 488.9415 175.594286 
L 507.7055 175.594286 
L 507.7055 121.982857 
L 488.9415 121.982857 
L 488.9415 175.594286 
" clip-path="url(#pb4210bbb33)" style="fill: #2db27d"/>
    <path d="M 488.9415 121.982857 
L 507.7055 121.982857 
L 507.7055 68.371429 
L 488.9415 68.371429 
L 488.9415 121.982857 
" clip-path="url(#pb4210bbb33)" style="fill: #73d056"/>
    <path d="M 488.9415 68.371429 
L 507.7055 68.371429 
L 507.7055 14.76 
L 488.9415 14.76 
L 488.9415 68.371429 
" clip-path="url(#pb4210bbb33)" style="fill: #d0e11c"/>
   </g>
   <g id="matplotlib.axis_3"/>
   <g id="matplotlib.axis_4">
    <g id="ytick_6">
     <g id="line2d_13">
      <defs>
       <path id="mebc9afbeca" d="M 0 0 
L 3.5 0 
" style="stroke: #000000; stroke-width: 0.8"/>
      </defs>
      <g>
       <use xlink:href="#mebc9afbeca" x="507.7055" y="390.04" style="stroke: #000000; stroke-width: 0.8"/>
      </g>
     </g>
     <g id="text_13">
      <!-- 0.00 -->
      <g transform="translate(514.7055 393.839219) scale(0.1 -0.1)">
       <use xlink:href="#DejaVuSans-30"/>
       <use xlink:href="#DejaVuSans-2e" x="63.623047"/>
       <use xlink:href="#DejaVuSans-30" x="95.410156"/>
       <use xlink:href="#DejaVuSans-30" x="159.033203"/>
      </g>
     </g>
    </g>
    <g id="ytick_7">
     <g id="line2d_14">
      <g>
       <use xlink:href="#mebc9afbeca" x="507.7055" y="336.428571" style="stroke: #000000; stroke-width: 0.8"/>
      </g>
     </g>
     <g id="text_14">
      <!-- 0.15 -->
      <g transform="translate(514.7055 340.22779) scale(0.1 -0.1)">
       <use xlink:href="#DejaVuSans-30"/>
       <use xlink:href="#DejaVuSans-2e" x="63.623047"/>
       <use xlink:href="#DejaVuSans-31" x="95.410156"/>
       <use xlink:href="#DejaVuSans-35" x="159.033203"/>
      </g>
     </g>
    </g>
    <g id="ytick_8">
     <g id="line2d_15">
      <g>
       <use xlink:href="#mebc9afbeca" x="507.7055" y="282.817143" style="stroke: #000000; stroke-width: 0.8"/>
      </g>
     </g>
     <g id="text_15">
      <!-- 0.30 -->
      <g transform="translate(514.7055 286.616362) scale(0.1 -0.1)">
       <defs>
        <path id="DejaVuSans-33" d="M 2597 2516 
Q 3050 2419 3304 2112 
Q 3559 1806 3559 1356 
Q 3559 666 3084 287 
Q 2609 -91 1734 -91 
Q 1441 -91 1130 -33 
Q 819 25 488 141 
L 488 750 
Q 750 597 1062 519 
Q 1375 441 1716 441 
Q 2309 441 2620 675 
Q 2931 909 2931 1356 
Q 2931 1769 2642 2001 
Q 2353 2234 1838 2234 
L 1294 2234 
L 1294 2753 
L 1863 2753 
Q 2328 2753 2575 2939 
Q 2822 3125 2822 3475 
Q 2822 3834 2567 4026 
Q 2313 4219 1838 4219 
Q 1578 4219 1281 4162 
Q 984 4106 628 3988 
L 628 4550 
Q 988 4650 1302 4700 
Q 1616 4750 1894 4750 
Q 2613 4750 3031 4423 
Q 3450 4097 3450 3541 
Q 3450 3153 3228 2886 
Q 3006 2619 2597 2516 
z
" transform="scale(0.015625)"/>
       </defs>
       <use xlink:href="#DejaVuSans-30"/>
       <use xlink:href="#DejaVuSans-2e" x="63.623047"/>
       <use xlink:href="#DejaVuSans-33" x="95.410156"/>
       <use xlink:href="#DejaVuSans-30" x="159.033203"/>
      </g>
     </g>
    </g>
    <g id="ytick_9">
     <g id="line2d_16">
      <g>
       <use xlink:href="#mebc9afbeca" x="507.7055" y="229.205714" style="stroke: #000000; stroke-width: 0.8"/>
      </g>
     </g>
     <g id="text_16">
      <!-- 0.45 -->
      <g transform="translate(514.7055 233.004933) scale(0.1 -0.1)">
       <defs>
        <path id="DejaVuSans-34" d="M 2419 4116 
L 825 1625 
L 2419 1625 
L 2419 4116 
z
M 2253 4666 
L 3047 4666 
L 3047 1625 
L 3713 1625 
L 3713 1100 
L 3047 1100 
L 3047 0 
L 2419 0 
L 2419 1100 
L 313 1100 
L 313 1709 
L 2253 4666 
z
" transform="scale(0.015625)"/>
       </defs>
       <use xlink:href="#DejaVuSans-30"/>
       <use xlink:href="#DejaVuSans-2e" x="63.623047"/>
       <use xlink:href="#DejaVuSans-34" x="95.410156"/>
       <use xlink:href="#DejaVuSans-35" x="159.033203"/>
      </g>
     </g>
    </g>
    <g id="ytick_10">
     <g id="line2d_17">
      <g>
       <use xlink:href="#mebc9afbeca" x="507.7055" y="175.594286" style="stroke: #000000; stroke-width: 0.8"/>
      </g>
     </g>
     <g id="text_17">
      <!-- 0.60 -->
      <g transform="translate(514.7055 179.393504) scale(0.1 -0.1)">
       <defs>
        <path id="DejaVuSans-36" d="M 2113 2584 
Q 1688 2584 1439 2293 
Q 1191 2003 1191 1497 
Q 1191 994 1439 701 
Q 1688 409 2113 409 
Q 2538 409 2786 701 
Q 3034 994 3034 1497 
Q 3034 2003 2786 2293 
Q 2538 2584 2113 2584 
z
M 3366 4563 
L 3366 3988 
Q 3128 4100 2886 4159 
Q 2644 4219 2406 4219 
Q 1781 4219 1451 3797 
Q 1122 3375 1075 2522 
Q 1259 2794 1537 2939 
Q 1816 3084 2150 3084 
Q 2853 3084 3261 2657 
Q 3669 2231 3669 1497 
Q 3669 778 3244 343 
Q 2819 -91 2113 -91 
Q 1303 -91 875 529 
Q 447 1150 447 2328 
Q 447 3434 972 4092 
Q 1497 4750 2381 4750 
Q 2619 4750 2861 4703 
Q 3103 4656 3366 4563 
z
" transform="scale(0.015625)"/>
       </defs>
       <use xlink:href="#DejaVuSans-30"/>
       <use xlink:href="#DejaVuSans-2e" x="63.623047"/>
       <use xlink:href="#DejaVuSans-36" x="95.410156"/>
       <use xlink:href="#DejaVuSans-30" x="159.033203"/>
      </g>
     </g>
    </g>
    <g id="ytick_11">
     <g id="line2d_18">
      <g>
       <use xlink:href="#mebc9afbeca" x="507.7055" y="121.982857" style="stroke: #000000; stroke-width: 0.8"/>
      </g>
     </g>
     <g id="text_18">
      <!-- 0.75 -->
      <g transform="translate(514.7055 125.782076) scale(0.1 -0.1)">
       <defs>
        <path id="DejaVuSans-37" d="M 525 4666 
L 3525 4666 
L 3525 4397 
L 1831 0 
L 1172 0 
L 2766 4134 
L 525 4134 
L 525 4666 
z
" transform="scale(0.015625)"/>
       </defs>
       <use xlink:href="#DejaVuSans-30"/>
       <use xlink:href="#DejaVuSans-2e" x="63.623047"/>
       <use xlink:href="#DejaVuSans-37" x="95.410156"/>
       <use xlink:href="#DejaVuSans-35" x="159.033203"/>
      </g>
     </g>
    </g>
    <g id="ytick_12">
     <g id="line2d_19">
      <g>
       <use xlink:href="#mebc9afbeca" x="507.7055" y="68.371429" style="stroke: #000000; stroke-width: 0.8"/>
      </g>
     </g>
     <g id="text_19">
      <!-- 0.90 -->
      <g transform="translate(514.7055 72.170647) scale(0.1 -0.1)">
       <defs>
        <path id="DejaVuSans-39" d="M 703 97 
L 703 672 
Q 941 559 1184 500 
Q 1428 441 1663 441 
Q 2288 441 2617 861 
Q 2947 1281 2994 2138 
Q 2813 1869 2534 1725 
Q 2256 1581 1919 1581 
Q 1219 1581 811 2004 
Q 403 2428 403 3163 
Q 403 3881 828 4315 
Q 1253 4750 1959 4750 
Q 2769 4750 3195 4129 
Q 3622 3509 3622 2328 
Q 3622 1225 3098 567 
Q 2575 -91 1691 -91 
Q 1453 -91 1209 -44 
Q 966 3 703 97 
z
M 1959 2075 
Q 2384 2075 2632 2365 
Q 2881 2656 2881 3163 
Q 2881 3666 2632 3958 
Q 2384 4250 1959 4250 
Q 1534 4250 1286 3958 
Q 1038 3666 1038 3163 
Q 1038 2656 1286 2365 
Q 1534 2075 1959 2075 
z
" transform="scale(0.015625)"/>
       </defs>
       <use xlink:href="#DejaVuSans-30"/>
       <use xlink:href="#DejaVuSans-2e" x="63.623047"/>
       <use xlink:href="#DejaVuSans-39" x="95.410156"/>
       <use xlink:href="#DejaVuSans-30" x="159.033203"/>
      </g>
     </g>
    </g>
    <g id="ytick_13">
     <g id="line2d_20">
      <g>
       <use xlink:href="#mebc9afbeca" x="507.7055" y="14.76" style="stroke: #000000; stroke-width: 0.8"/>
      </g>
     </g>
     <g id="text_20">
      <!-- 1.05 -->
      <g transform="translate(514.7055 18.559219) scale(0.1 -0.1)">
       <use xlink:href="#DejaVuSans-31"/>
       <use xlink:href="#DejaVuSans-2e" x="63.623047"/>
       <use xlink:href="#DejaVuSans-30" x="95.410156"/>
       <use xlink:href="#DejaVuSans-35" x="159.033203"/>
      </g>
     </g>
    </g>
    <g id="text_21">
     <!-- $u(x, y)$ -->
     <g transform="translate(548.571125 218) rotate(-90) scale(0.1 -0.1)">
      <defs>
       <path id="DejaVuSans-Oblique-75" d="M 428 1388 
L 838 3500 
L 1416 3500 
L 1006 1409 
Q 975 1256 961 1147 
Q 947 1038 947 966 
Q 947 700 1109 554 
Q 1272 409 1569 409 
Q 2031 409 2368 721 
Q 2706 1034 2809 1563 
L 3194 3500 
L 3769 3500 
L 3091 0 
L 2516 0 
L 2631 550 
Q 2388 244 2052 76 
Q 1716 -91 1338 -91 
Q 878 -91 622 161 
Q 366 413 366 863 
Q 366 956 381 1097 
Q 397 1238 428 1388 
z
" transform="scale(0.015625)"/>
       <path id="DejaVuSans-28" d="M 1984 4856 
Q 1566 4138 1362 3434 
Q 1159 2731 1159 2009 
Q 1159 1288 1364 580 
Q 1569 -128 1984 -844 
L 1484 -844 
Q 1016 -109 783 600 
Q 550 1309 550 2009 
Q 550 2706 781 3412 
Q 1013 4119 1484 4856 
L 1984 4856 
z
" transform="scale(0.015625)"/>
       <path id="DejaVuSans-2c" d="M 750 794 
L 1409 794 
L 1409 256 
L 897 -744 
L 494 -744 
L 750 256 
L 750 794 
z
" transform="scale(0.015625)"/>
       <path id="DejaVuSans-29" d="M 513 4856 
L 1013 4856 
Q 1481 4119 1714 3412 
Q 1947 2706 1947 2009 
Q 1947 1309 1714 600 
Q 1481 -109 1013 -844 
L 513 -844 
Q 928 -128 1133 580 
Q 1338 1288 1338 2009 
Q 1338 2731 1133 3434 
Q 928 4138 513 4856 
z
" transform="scale(0.015625)"/>
      </defs>
      <use xlink:href="#DejaVuSans-Oblique-75" transform="translate(0 0.125)"/>
      <use xlink:href="#DejaVuSans-28" transform="translate(63.378906 0.125)"/>
      <use xlink:href="#DejaVuSans-Oblique-78" transform="translate(102.392578 0.125)"/>
      <use xlink:href="#DejaVuSans-2c" transform="translate(161.572266 0.125)"/>
      <use xlink:href="#DejaVuSans-Oblique-79" transform="translate(212.841797 0.125)"/>
      <use xlink:href="#DejaVuSans-29" transform="translate(272.021484 0.125)"/>
     </g>
    </g>
   </g>
   <g id="LineCollection_1"/>
   <g id="patch_8">
    <path d="M 488.9415 390.04 
L 498.3235 390.04 
L 507.7055 390.04 
L 507.7055 14.76 
L 498.3235 14.76 
L 488.9415 14.76 
L 488.9415 390.04 
z
" style="fill: none; stroke: #000000; stroke-width: 0.8; stroke-linejoin: miter; stroke-linecap: square"/>
   </g>
  </g>
 </g>
 <defs>
  <clipPath id="p987f7357b2">
   <rect x="56.81" y="14.76" width="406.712" height="375.28"/>
  </clipPath>
  <clipPath id="pb4210bbb33">
   <rect x="488.9415" y="14.76" width="18.764" height="375.28"/>
  </clipPath>
 </defs>
</svg>
