<?xml version="1.0" encoding="utf-8" standalone="no"?>
<!DOCTYPE svg PUBLIC "-//W3C//DTD SVG 1.1//EN"
  "http://www.w3.org/Graphics/SVG/1.1/DTD/svg11.dtd">
<svg xmlns:xlink="http://www.w3.org/1999/xlink" width="576pt" height="432pt" viewBox="0 0 576 432" xmlns="http://www.w3.org/2000/svg" version="1.1">
 <metadata>
  <rdf:RDF xmlns:dc="http://purl.org/dc/elements/1.1/" xmlns:cc="http://creativecommons.org/ns#" xmlns:rdf="http://www.w3.org/1999/02/22-rdf-syntax-ns#">
   <cc:Work>
    <dc:type rdf:resource="http://purl.org/dc/dcmitype/StillImage"/>
    <dc:date>2025-01-30T18:47:09.096632</dc:date>
    <dc:format>image/svg+xml</dc:format>
    <dc:creator>
     <cc:Agent>
      <dc:title>Matplotlib v3.8.3, https://matplotlib.org/</dc:title>
     </cc:Agent>
    </dc:creator>
   </cc:Work>
  </rdf:RDF>
 </metadata>
 <defs>
  <style type="text/css">*{stroke-linejoin: round; stroke-linecap: butt}</style>
 </defs>
 <g id="figure_1">
  <g id="patch_1">
   <path d="M 0 432 
L 576 432 
L 576 0 
L 0 0 
z
" style="fill: #ffffff"/>
  </g>
  <g id="axes_1">
   <g id="patch_2">
    <path d="M 63.11 390.04 
L 565.2 390.04 
L 565.2 10.8 
L 63.11 10.8 
z
" style="fill: #ffffff"/>
   </g>
   <g id="line2d_1">
    <path d="M 111.736956 316.087454 
L 82.820092 316.087454 
M 140.653819 316.087454 
L 111.736956 316.087454 
M 169.570683 316.087454 
L 140.653819 316.087454 
M 198.487546 316.087454 
L 169.570683 316.087454 
M 227.40441 316.087454 
L 198.487546 316.087454 
M 256.321273 316.087454 
L 227.40441 316.087454 
M 285.238137 316.087454 
L 256.321273 316.087454 
M 314.155 316.087454 
L 285.238137 316.087454 
M 343.071863 316.087454 
L 314.155 316.087454 
M 371.988727 316.087454 
L 343.071863 316.087454 
M 400.90559 316.087454 
L 371.988727 316.087454 
M 429.822454 316.087454 
L 400.90559 316.087454 
M 458.739317 316.087454 
L 429.822454 316.087454 
M 487.656181 316.087454 
L 458.739317 316.087454 
M 516.573044 316.087454 
L 545.489908 316.087454 
M 516.573044 316.087454 
L 487.656181 316.087454 
M 545.489908 287.17059 
L 545.489908 316.087454 
M 545.489908 258.253727 
L 545.489908 287.17059 
M 545.489908 229.336863 
L 545.489908 258.253727 
M 545.489908 200.42 
L 545.489908 229.336863 
M 545.489908 171.503137 
L 545.489908 200.42 
M 545.489908 142.586273 
L 545.489908 171.503137 
M 545.489908 113.66941 
L 545.489908 84.752546 
M 545.489908 113.66941 
L 545.489908 142.586273 
M 516.573044 84.752546 
L 545.489908 84.752546 
M 487.656181 84.752546 
L 516.573044 84.752546 
M 458.739317 84.752546 
L 487.656181 84.752546 
M 429.822454 84.752546 
L 458.739317 84.752546 
M 400.90559 84.752546 
L 429.822454 84.752546 
M 371.988727 84.752546 
L 400.90559 84.752546 
M 343.071863 84.752546 
L 371.988727 84.752546 
M 314.155 84.752546 
L 343.071863 84.752546 
M 285.238137 84.752546 
L 314.155 84.752546 
M 256.321273 84.752546 
L 285.238137 84.752546 
M 227.40441 84.752546 
L 256.321273 84.752546 
M 198.487546 84.752546 
L 227.40441 84.752546 
M 169.570683 84.752546 
L 198.487546 84.752546 
M 140.653819 84.752546 
L 169.570683 84.752546 
M 111.736956 84.752546 
L 82.820092 84.752546 
M 111.736956 84.752546 
L 140.653819 84.752546 
M 82.820092 113.66941 
L 82.820092 84.752546 
M 82.820092 142.586273 
L 82.820092 113.66941 
M 82.820092 171.503137 
L 82.820092 142.586273 
M 82.820092 200.42 
L 82.820092 171.503137 
M 82.820092 229.336863 
L 82.820092 200.42 
M 82.820092 258.253727 
L 82.820092 229.336863 
M 82.820092 287.17059 
L 82.820092 316.087454 
M 82.820092 287.17059 
L 82.820092 258.253727 
M 300.341517 291.43039 
L 285.238137 316.087454 
M 300.341517 291.43039 
L 314.155 316.087454 
M 386.447159 291.044715 
L 371.988727 316.087454 
M 386.447159 291.044715 
L 400.90559 316.087454 
M 212.945978 291.044715 
L 198.487546 316.087454 
M 212.945978 291.044715 
L 227.40441 316.087454 
M 415.364022 109.795285 
L 429.822454 84.752546 
M 415.364022 109.795285 
L 400.90559 84.752546 
M 328.613432 109.795285 
L 343.071863 84.752546 
M 328.613432 109.795285 
L 314.155 84.752546 
M 241.862841 109.795285 
L 256.321273 84.752546 
M 241.862841 109.795285 
L 227.40441 84.752546 
M 108.517132 185.643792 
L 82.820092 171.503137 
M 108.517132 185.643792 
L 82.820092 200.42 
M 519.685719 216.605135 
L 545.489908 229.336863 
M 519.685719 216.605135 
L 545.489908 200.42 
M 443.820208 289.747512 
L 429.822454 316.087454 
M 443.820208 289.747512 
L 458.739317 316.087454 
M 184.029115 109.795285 
L 198.487546 84.752546 
M 184.029115 109.795285 
L 169.570683 84.752546 
M 109.921283 239.567875 
L 82.820092 229.336863 
M 109.921283 239.567875 
L 82.820092 258.253727 
M 519.571835 154.536871 
L 545.489908 171.503137 
M 519.571835 154.536871 
L 545.489908 142.586273 
M 155.112251 291.044715 
L 140.653819 316.087454 
M 155.112251 291.044715 
L 169.570683 316.087454 
M 473.197749 109.795285 
L 487.656181 84.752546 
M 473.197749 109.795285 
L 458.739317 84.752546 
M 127.313751 109.149597 
L 140.653819 84.752546 
M 127.313751 109.149597 
L 111.736956 84.752546 
M 502.299179 289.52306 
L 487.656181 316.087454 
M 502.299179 289.52306 
L 516.573044 316.087454 
M 501.992081 109.238538 
L 516.573044 84.752546 
M 501.992081 109.238538 
L 487.656181 84.752546 
M 501.992081 109.238538 
L 473.197749 109.795285 
M 492.149511 137.231672 
L 519.571835 154.536871 
M 492.149511 137.231672 
L 473.197749 109.795285 
M 492.149511 137.231672 
L 501.992081 109.238538 
M 459.488206 135.236964 
L 473.197749 109.795285 
M 459.488206 135.236964 
L 492.149511 137.231672 
M 473.197749 159.880761 
L 492.149511 137.231672 
M 473.197749 159.880761 
L 459.488206 135.236964 
M 444.4057 159.947251 
L 459.488206 135.236964 
M 444.4057 159.947251 
L 473.197749 159.880761 
M 458.76012 184.934581 
L 473.197749 159.880761 
M 458.76012 184.934581 
L 444.4057 159.947251 
M 429.846723 184.936428 
L 444.4057 159.947251 
M 429.846723 184.936428 
L 458.76012 184.934581 
M 444.288397 209.97024 
L 458.76012 184.934581 
M 444.288397 209.97024 
L 429.846723 184.936428 
M 415.369319 209.96906 
L 429.846723 184.936428 
M 415.369319 209.96906 
L 444.288397 209.97024 
M 400.910518 184.926125 
L 429.846723 184.936428 
M 400.910518 184.926125 
L 415.369319 209.96906 
M 386.447159 209.966238 
L 415.369319 209.96906 
M 386.447159 209.966238 
L 400.910518 184.926125 
M 371.989548 184.923937 
L 400.910518 184.926125 
M 371.989548 184.923937 
L 386.447159 209.966238 
M 357.530432 209.966311 
L 386.447159 209.966238 
M 357.530432 209.966311 
L 371.989548 184.923937 
M 343.072023 184.923585 
L 371.989548 184.923937 
M 343.072023 184.923585 
L 357.530432 209.966311 
M 328.61345 209.966248 
L 357.530432 209.966311 
M 328.61345 209.966248 
L 343.072023 184.923585 
M 314.15503 184.923515 
L 343.072023 184.923585 
M 314.15503 184.923515 
L 328.61345 209.966248 
M 299.696576 209.966242 
L 328.61345 209.966248 
M 299.696576 209.966242 
L 314.15503 184.923515 
M 285.238143 184.923503 
L 314.15503 184.923515 
M 285.238143 184.923503 
L 299.696576 209.966242 
M 270.779705 209.966238 
L 299.696576 209.966242 
M 270.779705 209.966238 
L 285.238143 184.923503 
M 256.321274 184.9235 
L 285.238143 184.923503 
M 256.321274 184.9235 
L 270.779705 209.966238 
M 241.862842 209.966238 
L 270.779705 209.966238 
M 241.862842 209.966238 
L 256.321274 184.9235 
M 227.40441 184.9235 
L 256.321274 184.9235 
M 227.40441 184.9235 
L 241.862842 209.966238 
M 212.945978 209.966238 
L 241.862842 209.966238 
M 212.945978 209.966238 
L 227.40441 184.9235 
M 198.487546 184.9235 
L 227.40441 184.9235 
M 198.487546 184.9235 
L 212.945978 209.966238 
M 184.029115 209.966238 
L 212.945978 209.966238 
M 184.029115 209.966238 
L 198.487546 184.9235 
M 343.071889 235.00899 
L 357.530432 209.966311 
M 343.071889 235.00899 
L 328.61345 209.966248 
M 256.321273 235.008976 
L 270.779705 209.966238 
M 256.321273 235.008976 
L 241.862842 209.966238 
M 169.570683 184.9235 
L 198.487546 184.9235 
M 169.570683 184.9235 
L 184.029115 209.966238 
M 270.779706 159.880762 
L 285.238143 184.923503 
M 270.779706 159.880762 
L 256.321274 184.9235 
M 357.530459 159.880848 
L 371.989548 184.923937 
M 357.530459 159.880848 
L 343.072023 184.923585 
M 212.945978 159.880761 
L 227.40441 184.9235 
M 212.945978 159.880761 
L 198.487546 184.9235 
M 400.90559 235.008976 
L 415.369319 209.96906 
M 400.90559 235.008976 
L 386.447159 209.966238 
M 198.487546 235.008976 
L 212.945978 209.966238 
M 198.487546 235.008976 
L 184.029115 209.966238 
M 169.570683 235.008976 
L 184.029115 209.966238 
M 169.570683 235.008976 
L 198.487546 235.008976 
M 472.410534 209.511529 
L 458.76012 184.934581 
M 472.410534 209.511529 
L 444.288397 209.97024 
M 458.609367 234.933858 
L 444.288397 209.97024 
M 458.609367 234.933858 
L 472.410534 209.511529 
M 184.029115 260.051715 
L 198.487546 235.008976 
M 184.029115 260.051715 
L 169.570683 235.008976 
M 492.149876 232.865336 
L 519.685719 216.605135 
M 492.149876 232.865336 
L 472.410534 209.511529 
M 492.149876 232.865336 
L 458.609367 234.933858 
M 473.197749 260.051715 
L 458.609367 234.933858 
M 473.197749 260.051715 
L 492.149876 232.865336 
M 501.425095 260.784872 
L 502.299179 289.52306 
M 501.425095 260.784872 
L 492.149876 232.865336 
M 501.425095 260.784872 
L 473.197749 260.051715 
M 443.293583 259.315725 
L 443.820208 289.747512 
M 443.293583 259.315725 
L 458.609367 234.933858 
M 443.293583 259.315725 
L 473.197749 260.051715 
M 212.945978 260.051715 
L 198.487546 235.008976 
M 212.945978 260.051715 
L 184.029115 260.051715 
M 155.303189 258.801706 
L 169.570683 235.008976 
M 155.303189 258.801706 
L 184.029115 260.051715 
M 140.653819 235.008976 
L 109.921283 239.567875 
M 140.653819 235.008976 
L 169.570683 235.008976 
M 140.653819 235.008976 
L 155.303189 258.801706 
M 429.968071 134.915595 
L 415.364022 109.795285 
M 429.968071 134.915595 
L 459.488206 135.236964 
M 429.968071 134.915595 
L 444.4057 159.947251 
M 212.945978 109.795285 
L 227.40441 84.752546 
M 212.945978 109.795285 
L 198.487546 84.752546 
M 212.945978 109.795285 
L 241.862841 109.795285 
M 212.945978 109.795285 
L 184.029115 109.795285 
M 198.487546 134.838023 
L 184.029115 109.795285 
M 198.487546 134.838023 
L 212.945978 159.880761 
M 198.487546 134.838023 
L 212.945978 109.795285 
M 169.570683 134.838023 
L 184.029115 109.795285 
M 169.570683 134.838023 
L 198.487546 134.838023 
M 184.029115 159.880761 
L 198.487546 184.9235 
M 184.029115 159.880761 
L 169.570683 184.9235 
M 184.029115 159.880761 
L 212.945978 159.880761 
M 184.029115 159.880761 
L 198.487546 134.838023 
M 184.029115 159.880761 
L 169.570683 134.838023 
M 155.112251 159.880761 
L 169.570683 184.9235 
M 155.112251 159.880761 
L 169.570683 134.838023 
M 155.112251 159.880761 
L 184.029115 159.880761 
M 139.92373 185.043548 
L 108.517132 185.643792 
M 139.92373 185.043548 
L 169.570683 184.9235 
M 139.92373 185.043548 
L 155.112251 159.880761 
M 126.195388 159.880761 
L 108.517132 185.643792 
M 126.195388 159.880761 
L 155.112251 159.880761 
M 126.195388 159.880761 
L 139.92373 185.043548 
M 125.708169 211.19379 
L 108.517132 185.643792 
M 125.708169 211.19379 
L 109.921283 239.567875 
M 125.708169 211.19379 
L 140.653819 235.008976 
M 125.708169 211.19379 
L 139.92373 185.043548 
M 140.840213 134.730408 
L 127.313751 109.149597 
M 140.840213 134.730408 
L 169.570683 134.838023 
M 140.840213 134.730408 
L 155.112251 159.880761 
M 140.840213 134.730408 
L 126.195388 159.880761 
M 109.452709 131.854616 
L 82.820092 113.66941 
M 109.452709 131.854616 
L 82.820092 142.586273 
M 109.452709 131.854616 
L 127.313751 109.149597 
M 109.452709 131.854616 
L 126.195388 159.880761 
M 109.452709 131.854616 
L 140.840213 134.730408 
M 227.40441 134.838023 
L 241.862841 109.795285 
M 227.40441 134.838023 
L 212.945978 159.880761 
M 227.40441 134.838023 
L 212.945978 109.795285 
M 227.40441 134.838023 
L 198.487546 134.838023 
M 256.321273 134.838023 
L 241.862841 109.795285 
M 256.321273 134.838023 
L 270.779706 159.880762 
M 256.321273 134.838023 
L 227.40441 134.838023 
M 299.696568 109.795285 
L 314.155 84.752546 
M 299.696568 109.795285 
L 285.238137 84.752546 
M 299.696568 109.795285 
L 328.613432 109.795285 
M 314.155 134.838023 
L 328.613432 109.795285 
M 314.155 134.838023 
L 299.696568 109.795285 
M 343.071891 134.838037 
L 328.613432 109.795285 
M 343.071891 134.838037 
L 357.530459 159.880848 
M 343.071891 134.838037 
L 314.155 134.838023 
M 328.613495 159.880795 
L 343.072023 184.923585 
M 328.613495 159.880795 
L 314.15503 184.923515 
M 328.613495 159.880795 
L 357.530459 159.880848 
M 328.613495 159.880795 
L 314.155 134.838023 
M 328.613495 159.880795 
L 343.071891 134.838037 
M 371.988759 134.83804 
L 357.530459 159.880848 
M 371.988759 134.83804 
L 343.071891 134.838037 
M 386.448149 159.881289 
L 400.910518 184.926125 
M 386.448149 159.881289 
L 371.989548 184.923937 
M 386.448149 159.881289 
L 357.530459 159.880848 
M 386.448149 159.881289 
L 371.988759 134.83804 
M 444.42997 109.874703 
L 458.739317 84.752546 
M 444.42997 109.874703 
L 429.822454 84.752546 
M 444.42997 109.874703 
L 415.364022 109.795285 
M 444.42997 109.874703 
L 473.197749 109.795285 
M 444.42997 109.874703 
L 459.488206 135.236964 
M 444.42997 109.874703 
L 429.968071 134.915595 
M 314.155003 235.008978 
L 328.61345 209.966248 
M 314.155003 235.008978 
L 299.696576 209.966242 
M 314.155003 235.008978 
L 343.071889 235.00899 
M 329.666852 259.443527 
L 343.071889 235.00899 
M 329.666852 259.443527 
L 314.155003 235.008978 
M 357.530295 260.051715 
L 343.071889 235.00899 
M 357.530295 260.051715 
L 329.666852 259.443527 
M 300.51482 261.845094 
L 300.341517 291.43039 
M 300.51482 261.845094 
L 314.155003 235.008978 
M 300.51482 261.845094 
L 329.666852 259.443527 
M 342.147273 285.214891 
L 343.071863 316.087454 
M 342.147273 285.214891 
L 329.666852 259.443527 
M 342.147273 285.214891 
L 357.530295 260.051715 
M 285.374514 235.307874 
L 299.696576 209.966242 
M 285.374514 235.307874 
L 270.779705 209.966238 
M 285.374514 235.307874 
L 256.321273 235.008976 
M 285.374514 235.307874 
L 314.155003 235.008978 
M 285.374514 235.307874 
L 300.51482 261.845094 
M 414.233827 291.436705 
L 400.90559 316.087454 
M 414.233827 291.436705 
L 429.822454 316.087454 
M 414.233827 291.436705 
L 386.447159 291.044715 
M 414.233827 291.436705 
L 443.820208 289.747512 
M 400.771043 269.134019 
L 386.447159 291.044715 
M 400.771043 269.134019 
L 414.233827 291.436705 
M 184.029115 291.044715 
L 169.570683 316.087454 
M 184.029115 291.044715 
L 198.487546 316.087454 
M 184.029115 291.044715 
L 212.945978 291.044715 
M 184.029115 291.044715 
L 155.112251 291.044715 
M 155.329711 109.669734 
L 169.570683 84.752546 
M 155.329711 109.669734 
L 140.653819 84.752546 
M 155.329711 109.669734 
L 184.029115 109.795285 
M 155.329711 109.669734 
L 127.313751 109.149597 
M 155.329711 109.669734 
L 169.570683 134.838023 
M 155.329711 109.669734 
L 140.840213 134.730408 
M 126.195388 291.044715 
L 111.736956 316.087454 
M 126.195388 291.044715 
L 140.653819 316.087454 
M 126.195388 291.044715 
L 155.112251 291.044715 
M 473.197749 291.044715 
L 458.739317 316.087454 
M 473.197749 291.044715 
L 487.656181 316.087454 
M 473.197749 291.044715 
L 443.820208 289.747512 
M 473.197749 291.044715 
L 502.299179 289.52306 
M 386.447164 109.795287 
L 400.90559 84.752546 
M 386.447164 109.795287 
L 371.988727 84.752546 
M 386.447164 109.795287 
L 415.364022 109.795285 
M 386.447164 109.795287 
L 371.988759 134.83804 
M 357.530299 109.795287 
L 371.988727 84.752546 
M 357.530299 109.795287 
L 343.071863 84.752546 
M 357.530299 109.795287 
L 328.613432 109.795285 
M 357.530299 109.795287 
L 343.071891 134.838037 
M 357.530299 109.795287 
L 371.988759 134.83804 
M 357.530299 109.795287 
L 386.447164 109.795287 
M 241.862841 291.044715 
L 227.40441 316.087454 
M 241.862841 291.044715 
L 256.321273 316.087454 
M 241.862841 291.044715 
L 212.945978 291.044715 
M 371.988754 233.378485 
L 386.447159 209.966238 
M 371.988754 233.378485 
L 357.530432 209.966311 
M 371.988754 233.378485 
L 343.071889 235.00899 
M 371.988754 233.378485 
L 400.90559 235.008976 
M 371.988754 233.378485 
L 357.530295 260.051715 
M 227.40441 235.008976 
L 241.862842 209.966238 
M 227.40441 235.008976 
L 212.945978 209.966238 
M 227.40441 235.008976 
L 256.321273 235.008976 
M 227.40441 235.008976 
L 198.487546 235.008976 
M 227.40441 235.008976 
L 212.945978 260.051715 
M 241.862841 260.051715 
L 256.321273 235.008976 
M 241.862841 260.051715 
L 212.945978 260.051715 
M 241.862841 260.051715 
L 227.40441 235.008976 
M 429.63838 233.244423 
L 444.288397 209.97024 
M 429.63838 233.244423 
L 415.369319 209.96906 
M 429.63838 233.244423 
L 400.90559 235.008976 
M 429.63838 233.244423 
L 458.609367 234.933858 
M 429.63838 233.244423 
L 443.293583 259.315725 
M 270.807686 291.889769 
L 256.321273 316.087454 
M 270.807686 291.889769 
L 285.238137 316.087454 
M 270.807686 291.889769 
L 300.341517 291.43039 
M 270.807686 291.889769 
L 241.862841 291.044715 
M 270.779705 260.051715 
L 256.321273 235.008976 
M 270.779705 260.051715 
L 300.51482 261.845094 
M 270.779705 260.051715 
L 285.374514 235.307874 
M 270.779705 260.051715 
L 241.862841 260.051715 
M 516.048362 185.428271 
L 545.489908 200.42 
M 516.048362 185.428271 
L 545.489908 171.503137 
M 516.048362 185.428271 
L 519.685719 216.605135 
M 516.048362 185.428271 
L 519.571835 154.536871 
M 485.810292 184.960732 
L 473.197749 159.880761 
M 485.810292 184.960732 
L 458.76012 184.934581 
M 485.810292 184.960732 
L 472.410534 209.511529 
M 485.810292 184.960732 
L 516.048362 185.428271 
M 415.382281 159.890488 
L 444.4057 159.947251 
M 415.382281 159.890488 
L 429.846723 184.936428 
M 415.382281 159.890488 
L 400.910518 184.926125 
M 415.382281 159.890488 
L 429.968071 134.915595 
M 415.382281 159.890488 
L 386.448149 159.881289 
M 241.862842 159.880762 
L 256.321274 184.9235 
M 241.862842 159.880762 
L 227.40441 184.9235 
M 241.862842 159.880762 
L 270.779706 159.880762 
M 241.862842 159.880762 
L 212.945978 159.880761 
M 241.862842 159.880762 
L 227.40441 134.838023 
M 241.862842 159.880762 
L 256.321273 134.838023 
M 285.238137 134.838023 
L 270.779706 159.880762 
M 285.238137 134.838023 
L 256.321273 134.838023 
M 285.238137 134.838023 
L 299.696568 109.795285 
M 285.238137 134.838023 
L 314.155 134.838023 
M 270.779705 109.795285 
L 285.238137 84.752546 
M 270.779705 109.795285 
L 256.321273 84.752546 
M 270.779705 109.795285 
L 241.862841 109.795285 
M 270.779705 109.795285 
L 256.321273 134.838023 
M 270.779705 109.795285 
L 299.696568 109.795285 
M 270.779705 109.795285 
L 285.238137 134.838023 
M 299.696585 159.88077 
L 314.15503 184.923515 
M 299.696585 159.88077 
L 285.238143 184.923503 
M 299.696585 159.88077 
L 270.779706 159.880762 
M 299.696585 159.88077 
L 314.155 134.838023 
M 299.696585 159.88077 
L 328.613495 159.880795 
M 299.696585 159.88077 
L 285.238137 134.838023 
M 400.933074 134.852664 
L 415.364022 109.795285 
M 400.933074 134.852664 
L 429.968071 134.915595 
M 400.933074 134.852664 
L 371.988759 134.83804 
M 400.933074 134.852664 
L 386.448149 159.881289 
M 400.933074 134.852664 
L 386.447164 109.795287 
M 400.933074 134.852664 
L 415.382281 159.890488 
M 154.909366 210.190838 
L 184.029115 209.966238 
M 154.909366 210.190838 
L 169.570683 184.9235 
M 154.909366 210.190838 
L 169.570683 235.008976 
M 154.909366 210.190838 
L 140.653819 235.008976 
M 154.909366 210.190838 
L 139.92373 185.043548 
M 154.909366 210.190838 
L 125.708169 211.19379 
M 106.732619 271.356072 
L 82.820092 258.253727 
M 106.732619 271.356072 
L 82.820092 287.17059 
M 106.732619 271.356072 
L 109.921283 239.567875 
M 106.732619 271.356072 
L 126.195388 291.044715 
M 521.434836 127.868335 
L 545.489908 142.586273 
M 521.434836 127.868335 
L 545.489908 113.66941 
M 521.434836 127.868335 
L 519.571835 154.536871 
M 521.434836 127.868335 
L 501.992081 109.238538 
M 521.434836 127.868335 
L 492.149511 137.231672 
M 521.500997 244.118012 
L 545.489908 258.253727 
M 521.500997 244.118012 
L 545.489908 229.336863 
M 521.500997 244.118012 
L 519.685719 216.605135 
M 521.500997 244.118012 
L 492.149876 232.865336 
M 521.500997 244.118012 
L 501.425095 260.784872 
M 129.338984 258.236759 
L 109.921283 239.567875 
M 129.338984 258.236759 
L 155.303189 258.801706 
M 129.338984 258.236759 
L 140.653819 235.008976 
M 129.338984 258.236759 
L 126.195388 291.044715 
M 129.338984 258.236759 
L 106.732619 271.356072 
M 523.456208 272.496662 
L 545.489908 287.17059 
M 523.456208 272.496662 
L 545.489908 258.253727 
M 523.456208 272.496662 
L 502.299179 289.52306 
M 523.456208 272.496662 
L 501.425095 260.784872 
M 523.456208 272.496662 
L 521.500997 244.118012 
M 497.261543 206.259543 
L 519.685719 216.605135 
M 497.261543 206.259543 
L 472.410534 209.511529 
M 497.261543 206.259543 
L 492.149876 232.865336 
M 497.261543 206.259543 
L 516.048362 185.428271 
M 497.261543 206.259543 
L 485.810292 184.960732 
M 102.190718 157.044705 
L 82.820092 142.586273 
M 102.190718 157.044705 
L 82.820092 171.503137 
M 102.190718 157.044705 
L 108.517132 185.643792 
M 102.190718 157.044705 
L 126.195388 159.880761 
M 102.190718 157.044705 
L 109.452709 131.854616 
M 497.35555 164.407661 
L 519.571835 154.536871 
M 497.35555 164.407661 
L 492.149511 137.231672 
M 497.35555 164.407661 
L 473.197749 159.880761 
M 497.35555 164.407661 
L 516.048362 185.428271 
M 497.35555 164.407661 
L 485.810292 184.960732 
M 101.737186 214.878432 
L 82.820092 200.42 
M 101.737186 214.878432 
L 82.820092 229.336863 
M 101.737186 214.878432 
L 108.517132 185.643792 
M 101.737186 214.878432 
L 109.921283 239.567875 
M 101.737186 214.878432 
L 125.708169 211.19379 
M 423.499194 270.839591 
L 443.820208 289.747512 
M 423.499194 270.839591 
L 443.293583 259.315725 
M 423.499194 270.839591 
L 414.233827 291.436705 
M 423.499194 270.839591 
L 400.771043 269.134019 
M 320.319268 280.23604 
L 300.341517 291.43039 
M 320.319268 280.23604 
L 329.666852 259.443527 
M 320.319268 280.23604 
L 300.51482 261.845094 
M 320.319268 280.23604 
L 342.147273 285.214891 
M 379.009289 273.038597 
L 386.447159 291.044715 
M 379.009289 273.038597 
L 357.530295 260.051715 
M 379.009289 273.038597 
L 400.771043 269.134019 
M 363.603328 292.428692 
L 343.071863 316.087454 
M 363.603328 292.428692 
L 371.988727 316.087454 
M 363.603328 292.428692 
L 386.447159 291.044715 
M 363.603328 292.428692 
L 357.530295 260.051715 
M 363.603328 292.428692 
L 342.147273 285.214891 
M 363.603328 292.428692 
L 379.009289 273.038597 
M 103.988706 105.921159 
L 82.820092 84.752546 
M 103.988706 105.921159 
L 111.736956 84.752546 
M 103.988706 105.921159 
L 82.820092 113.66941 
M 103.988706 105.921159 
L 127.313751 109.149597 
M 103.988706 105.921159 
L 109.452709 131.854616 
M 103.988706 294.918841 
L 82.820092 316.087454 
M 103.988706 294.918841 
L 111.736956 316.087454 
M 103.988706 294.918841 
L 82.820092 287.17059 
M 103.988706 294.918841 
L 126.195388 291.044715 
M 103.988706 294.918841 
L 106.732619 271.356072 
M 524.321294 105.921159 
L 545.489908 84.752546 
M 524.321294 105.921159 
L 545.489908 113.66941 
M 524.321294 105.921159 
L 516.573044 84.752546 
M 524.321294 105.921159 
L 501.992081 109.238538 
M 524.321294 105.921159 
L 521.434836 127.868335 
M 524.532161 295.129708 
L 545.489908 316.087454 
M 524.532161 295.129708 
L 516.573044 316.087454 
M 524.532161 295.129708 
L 545.489908 287.17059 
M 524.532161 295.129708 
L 502.299179 289.52306 
M 524.532161 295.129708 
L 523.456208 272.496662 
M 487.656181 275.548215 
L 502.299179 289.52306 
M 487.656181 275.548215 
L 473.197749 260.051715 
M 487.656181 275.548215 
L 501.425095 260.784872 
M 487.656181 275.548215 
L 473.197749 291.044715 
M 458.739317 275.548215 
L 443.820208 289.747512 
M 458.739317 275.548215 
L 473.197749 260.051715 
M 458.739317 275.548215 
L 443.293583 259.315725 
M 458.739317 275.548215 
L 473.197749 291.044715 
M 458.739317 275.548215 
L 487.656181 275.548215 
M 285.238137 275.548215 
L 300.341517 291.43039 
M 285.238137 275.548215 
L 300.51482 261.845094 
M 285.238137 275.548215 
L 270.807686 291.889769 
M 285.238137 275.548215 
L 270.779705 260.051715 
M 256.321273 275.548215 
L 241.862841 291.044715 
M 256.321273 275.548215 
L 241.862841 260.051715 
M 256.321273 275.548215 
L 270.807686 291.889769 
M 256.321273 275.548215 
L 270.779705 260.051715 
M 256.321273 275.548215 
L 285.238137 275.548215 
M 227.40441 275.548215 
L 212.945978 291.044715 
M 227.40441 275.548215 
L 212.945978 260.051715 
M 227.40441 275.548215 
L 241.862841 291.044715 
M 227.40441 275.548215 
L 241.862841 260.051715 
M 227.40441 275.548215 
L 256.321273 275.548215 
M 198.487546 275.548215 
L 212.945978 291.044715 
M 198.487546 275.548215 
L 184.029115 260.051715 
M 198.487546 275.548215 
L 212.945978 260.051715 
M 198.487546 275.548215 
L 184.029115 291.044715 
M 198.487546 275.548215 
L 227.40441 275.548215 
M 169.570683 275.548215 
L 155.112251 291.044715 
M 169.570683 275.548215 
L 184.029115 260.051715 
M 169.570683 275.548215 
L 155.303189 258.801706 
M 169.570683 275.548215 
L 184.029115 291.044715 
M 169.570683 275.548215 
L 198.487546 275.548215 
M 387.032706 251.907149 
L 400.90559 235.008976 
M 387.032706 251.907149 
L 357.530295 260.051715 
M 387.032706 251.907149 
L 400.771043 269.134019 
M 387.032706 251.907149 
L 371.988754 233.378485 
M 387.032706 251.907149 
L 379.009289 273.038597 
M 415.058436 251.042568 
L 400.90559 235.008976 
M 415.058436 251.042568 
L 443.293583 259.315725 
M 415.058436 251.042568 
L 400.771043 269.134019 
M 415.058436 251.042568 
L 429.63838 233.244423 
M 415.058436 251.042568 
L 423.499194 270.839591 
M 415.058436 251.042568 
L 387.032706 251.907149 
M 325.323112 298.673104 
L 314.155 316.087454 
M 325.323112 298.673104 
L 343.071863 316.087454 
M 325.323112 298.673104 
L 300.341517 291.43039 
M 325.323112 298.673104 
L 342.147273 285.214891 
M 325.323112 298.673104 
L 320.319268 280.23604 
M 143.004504 275.532839 
L 155.112251 291.044715 
M 143.004504 275.532839 
L 155.303189 258.801706 
M 143.004504 275.532839 
L 126.195388 291.044715 
M 143.004504 275.532839 
L 129.338984 258.236759 
M 143.004504 275.532839 
L 169.570683 275.548215 
L 169.570683 275.548215 
" clip-path="url(#p4fc9a9731b)" style="fill: none; stroke: #808080; stroke-width: 1.5; stroke-linecap: square"/>
   </g>
   <g id="matplotlib.axis_1">
    <g id="xtick_1">
     <g id="line2d_2">
      <defs>
       <path id="mcae7758c71" d="M 0 0 
L 0 3.5 
" style="stroke: #000000; stroke-width: 0.8"/>
      </defs>
      <g>
       <use xlink:href="#mcae7758c71" x="82.820092" y="390.04" style="stroke: #000000; stroke-width: 0.8"/>
      </g>
     </g>
     <g id="text_1">
      <!-- 0.00 -->
      <g transform="translate(71.68728 404.638438) scale(0.1 -0.1)">
       <defs>
        <path id="DejaVuSans-30" d="M 2034 4250 
Q 1547 4250 1301 3770 
Q 1056 3291 1056 2328 
Q 1056 1369 1301 889 
Q 1547 409 2034 409 
Q 2525 409 2770 889 
Q 3016 1369 3016 2328 
Q 3016 3291 2770 3770 
Q 2525 4250 2034 4250 
z
M 2034 4750 
Q 2819 4750 3233 4129 
Q 3647 3509 3647 2328 
Q 3647 1150 3233 529 
Q 2819 -91 2034 -91 
Q 1250 -91 836 529 
Q 422 1150 422 2328 
Q 422 3509 836 4129 
Q 1250 4750 2034 4750 
z
" transform="scale(0.015625)"/>
        <path id="DejaVuSans-2e" d="M 684 794 
L 1344 794 
L 1344 0 
L 684 0 
L 684 794 
z
" transform="scale(0.015625)"/>
       </defs>
       <use xlink:href="#DejaVuSans-30"/>
       <use xlink:href="#DejaVuSans-2e" x="63.623047"/>
       <use xlink:href="#DejaVuSans-30" x="95.410156"/>
       <use xlink:href="#DejaVuSans-30" x="159.033203"/>
      </g>
     </g>
    </g>
    <g id="xtick_2">
     <g id="line2d_3">
      <g>
       <use xlink:href="#mcae7758c71" x="140.653819" y="390.04" style="stroke: #000000; stroke-width: 0.8"/>
      </g>
     </g>
     <g id="text_2">
      <!-- 0.01 -->
      <g transform="translate(129.521007 404.638438) scale(0.1 -0.1)">
       <defs>
        <path id="DejaVuSans-31" d="M 794 531 
L 1825 531 
L 1825 4091 
L 703 3866 
L 703 4441 
L 1819 4666 
L 2450 4666 
L 2450 531 
L 3481 531 
L 3481 0 
L 794 0 
L 794 531 
z
" transform="scale(0.015625)"/>
       </defs>
       <use xlink:href="#DejaVuSans-30"/>
       <use xlink:href="#DejaVuSans-2e" x="63.623047"/>
       <use xlink:href="#DejaVuSans-30" x="95.410156"/>
       <use xlink:href="#DejaVuSans-31" x="159.033203"/>
      </g>
     </g>
    </g>
    <g id="xtick_3">
     <g id="line2d_4">
      <g>
       <use xlink:href="#mcae7758c71" x="198.487546" y="390.04" style="stroke: #000000; stroke-width: 0.8"/>
      </g>
     </g>
     <g id="text_3">
      <!-- 0.02 -->
      <g transform="translate(187.354734 404.638438) scale(0.1 -0.1)">
       <defs>
        <path id="DejaVuSans-32" d="M 1228 531 
L 3431 531 
L 3431 0 
L 469 0 
L 469 531 
Q 828 903 1448 1529 
Q 2069 2156 2228 2338 
Q 2531 2678 2651 2914 
Q 2772 3150 2772 3378 
Q 2772 3750 2511 3984 
Q 2250 4219 1831 4219 
Q 1534 4219 1204 4116 
Q 875 4013 500 3803 
L 500 4441 
Q 881 4594 1212 4672 
Q 1544 4750 1819 4750 
Q 2544 4750 2975 4387 
Q 3406 4025 3406 3419 
Q 3406 3131 3298 2873 
Q 3191 2616 2906 2266 
Q 2828 2175 2409 1742 
Q 1991 1309 1228 531 
z
" transform="scale(0.015625)"/>
       </defs>
       <use xlink:href="#DejaVuSans-30"/>
       <use xlink:href="#DejaVuSans-2e" x="63.623047"/>
       <use xlink:href="#DejaVuSans-30" x="95.410156"/>
       <use xlink:href="#DejaVuSans-32" x="159.033203"/>
      </g>
     </g>
    </g>
    <g id="xtick_4">
     <g id="line2d_5">
      <g>
       <use xlink:href="#mcae7758c71" x="256.321273" y="390.04" style="stroke: #000000; stroke-width: 0.8"/>
      </g>
     </g>
     <g id="text_4">
      <!-- 0.03 -->
      <g transform="translate(245.188461 404.638438) scale(0.1 -0.1)">
       <defs>
        <path id="DejaVuSans-33" d="M 2597 2516 
Q 3050 2419 3304 2112 
Q 3559 1806 3559 1356 
Q 3559 666 3084 287 
Q 2609 -91 1734 -91 
Q 1441 -91 1130 -33 
Q 819 25 488 141 
L 488 750 
Q 750 597 1062 519 
Q 1375 441 1716 441 
Q 2309 441 2620 675 
Q 2931 909 2931 1356 
Q 2931 1769 2642 2001 
Q 2353 2234 1838 2234 
L 1294 2234 
L 1294 2753 
L 1863 2753 
Q 2328 2753 2575 2939 
Q 2822 3125 2822 3475 
Q 2822 3834 2567 4026 
Q 2313 4219 1838 4219 
Q 1578 4219 1281 4162 
Q 984 4106 628 3988 
L 628 4550 
Q 988 4650 1302 4700 
Q 1616 4750 1894 4750 
Q 2613 4750 3031 4423 
Q 3450 4097 3450 3541 
Q 3450 3153 3228 2886 
Q 3006 2619 2597 2516 
z
" transform="scale(0.015625)"/>
       </defs>
       <use xlink:href="#DejaVuSans-30"/>
       <use xlink:href="#DejaVuSans-2e" x="63.623047"/>
       <use xlink:href="#DejaVuSans-30" x="95.410156"/>
       <use xlink:href="#DejaVuSans-33" x="159.033203"/>
      </g>
     </g>
    </g>
    <g id="xtick_5">
     <g id="line2d_6">
      <g>
       <use xlink:href="#mcae7758c71" x="314.155" y="390.04" style="stroke: #000000; stroke-width: 0.8"/>
      </g>
     </g>
     <g id="text_5">
      <!-- 0.04 -->
      <g transform="translate(303.022187 404.638438) scale(0.1 -0.1)">
       <defs>
        <path id="DejaVuSans-34" d="M 2419 4116 
L 825 1625 
L 2419 1625 
L 2419 4116 
z
M 2253 4666 
L 3047 4666 
L 3047 1625 
L 3713 1625 
L 3713 1100 
L 3047 1100 
L 3047 0 
L 2419 0 
L 2419 1100 
L 313 1100 
L 313 1709 
L 2253 4666 
z
" transform="scale(0.015625)"/>
       </defs>
       <use xlink:href="#DejaVuSans-30"/>
       <use xlink:href="#DejaVuSans-2e" x="63.623047"/>
       <use xlink:href="#DejaVuSans-30" x="95.410156"/>
       <use xlink:href="#DejaVuSans-34" x="159.033203"/>
      </g>
     </g>
    </g>
    <g id="xtick_6">
     <g id="line2d_7">
      <g>
       <use xlink:href="#mcae7758c71" x="371.988727" y="390.04" style="stroke: #000000; stroke-width: 0.8"/>
      </g>
     </g>
     <g id="text_6">
      <!-- 0.05 -->
      <g transform="translate(360.855914 404.638438) scale(0.1 -0.1)">
       <defs>
        <path id="DejaVuSans-35" d="M 691 4666 
L 3169 4666 
L 3169 4134 
L 1269 4134 
L 1269 2991 
Q 1406 3038 1543 3061 
Q 1681 3084 1819 3084 
Q 2600 3084 3056 2656 
Q 3513 2228 3513 1497 
Q 3513 744 3044 326 
Q 2575 -91 1722 -91 
Q 1428 -91 1123 -41 
Q 819 9 494 109 
L 494 744 
Q 775 591 1075 516 
Q 1375 441 1709 441 
Q 2250 441 2565 725 
Q 2881 1009 2881 1497 
Q 2881 1984 2565 2268 
Q 2250 2553 1709 2553 
Q 1456 2553 1204 2497 
Q 953 2441 691 2322 
L 691 4666 
z
" transform="scale(0.015625)"/>
       </defs>
       <use xlink:href="#DejaVuSans-30"/>
       <use xlink:href="#DejaVuSans-2e" x="63.623047"/>
       <use xlink:href="#DejaVuSans-30" x="95.410156"/>
       <use xlink:href="#DejaVuSans-35" x="159.033203"/>
      </g>
     </g>
    </g>
    <g id="xtick_7">
     <g id="line2d_8">
      <g>
       <use xlink:href="#mcae7758c71" x="429.822454" y="390.04" style="stroke: #000000; stroke-width: 0.8"/>
      </g>
     </g>
     <g id="text_7">
      <!-- 0.06 -->
      <g transform="translate(418.689641 404.638438) scale(0.1 -0.1)">
       <defs>
        <path id="DejaVuSans-36" d="M 2113 2584 
Q 1688 2584 1439 2293 
Q 1191 2003 1191 1497 
Q 1191 994 1439 701 
Q 1688 409 2113 409 
Q 2538 409 2786 701 
Q 3034 994 3034 1497 
Q 3034 2003 2786 2293 
Q 2538 2584 2113 2584 
z
M 3366 4563 
L 3366 3988 
Q 3128 4100 2886 4159 
Q 2644 4219 2406 4219 
Q 1781 4219 1451 3797 
Q 1122 3375 1075 2522 
Q 1259 2794 1537 2939 
Q 1816 3084 2150 3084 
Q 2853 3084 3261 2657 
Q 3669 2231 3669 1497 
Q 3669 778 3244 343 
Q 2819 -91 2113 -91 
Q 1303 -91 875 529 
Q 447 1150 447 2328 
Q 447 3434 972 4092 
Q 1497 4750 2381 4750 
Q 2619 4750 2861 4703 
Q 3103 4656 3366 4563 
z
" transform="scale(0.015625)"/>
       </defs>
       <use xlink:href="#DejaVuSans-30"/>
       <use xlink:href="#DejaVuSans-2e" x="63.623047"/>
       <use xlink:href="#DejaVuSans-30" x="95.410156"/>
       <use xlink:href="#DejaVuSans-36" x="159.033203"/>
      </g>
     </g>
    </g>
    <g id="xtick_8">
     <g id="line2d_9">
      <g>
       <use xlink:href="#mcae7758c71" x="487.656181" y="390.04" style="stroke: #000000; stroke-width: 0.8"/>
      </g>
     </g>
     <g id="text_8">
      <!-- 0.07 -->
      <g transform="translate(476.523368 404.638438) scale(0.1 -0.1)">
       <defs>
        <path id="DejaVuSans-37" d="M 525 4666 
L 3525 4666 
L 3525 4397 
L 1831 0 
L 1172 0 
L 2766 4134 
L 525 4134 
L 525 4666 
z
" transform="scale(0.015625)"/>
       </defs>
       <use xlink:href="#DejaVuSans-30"/>
       <use xlink:href="#DejaVuSans-2e" x="63.623047"/>
       <use xlink:href="#DejaVuSans-30" x="95.410156"/>
       <use xlink:href="#DejaVuSans-37" x="159.033203"/>
      </g>
     </g>
    </g>
    <g id="xtick_9">
     <g id="line2d_10">
      <g>
       <use xlink:href="#mcae7758c71" x="545.489908" y="390.04" style="stroke: #000000; stroke-width: 0.8"/>
      </g>
     </g>
     <g id="text_9">
      <!-- 0.08 -->
      <g transform="translate(534.357095 404.638438) scale(0.1 -0.1)">
       <defs>
        <path id="DejaVuSans-38" d="M 2034 2216 
Q 1584 2216 1326 1975 
Q 1069 1734 1069 1313 
Q 1069 891 1326 650 
Q 1584 409 2034 409 
Q 2484 409 2743 651 
Q 3003 894 3003 1313 
Q 3003 1734 2745 1975 
Q 2488 2216 2034 2216 
z
M 1403 2484 
Q 997 2584 770 2862 
Q 544 3141 544 3541 
Q 544 4100 942 4425 
Q 1341 4750 2034 4750 
Q 2731 4750 3128 4425 
Q 3525 4100 3525 3541 
Q 3525 3141 3298 2862 
Q 3072 2584 2669 2484 
Q 3125 2378 3379 2068 
Q 3634 1759 3634 1313 
Q 3634 634 3220 271 
Q 2806 -91 2034 -91 
Q 1263 -91 848 271 
Q 434 634 434 1313 
Q 434 1759 690 2068 
Q 947 2378 1403 2484 
z
M 1172 3481 
Q 1172 3119 1398 2916 
Q 1625 2713 2034 2713 
Q 2441 2713 2670 2916 
Q 2900 3119 2900 3481 
Q 2900 3844 2670 4047 
Q 2441 4250 2034 4250 
Q 1625 4250 1398 4047 
Q 1172 3844 1172 3481 
z
" transform="scale(0.015625)"/>
       </defs>
       <use xlink:href="#DejaVuSans-30"/>
       <use xlink:href="#DejaVuSans-2e" x="63.623047"/>
       <use xlink:href="#DejaVuSans-30" x="95.410156"/>
       <use xlink:href="#DejaVuSans-38" x="159.033203"/>
      </g>
     </g>
    </g>
    <g id="text_10">
     <!-- $x$ -->
     <g transform="translate(311.155 418.316562) scale(0.1 -0.1)">
      <defs>
       <path id="DejaVuSans-Oblique-78" d="M 3841 3500 
L 2234 1784 
L 3219 0 
L 2559 0 
L 1819 1388 
L 531 0 
L -166 0 
L 1556 1844 
L 641 3500 
L 1300 3500 
L 1972 2234 
L 3144 3500 
L 3841 3500 
z
" transform="scale(0.015625)"/>
      </defs>
      <use xlink:href="#DejaVuSans-Oblique-78" transform="translate(0 0.3125)"/>
     </g>
    </g>
   </g>
   <g id="matplotlib.axis_2">
    <g id="ytick_1">
     <g id="line2d_11">
      <defs>
       <path id="m3ed4ba9473" d="M 0 0 
L -3.5 0 
" style="stroke: #000000; stroke-width: 0.8"/>
      </defs>
      <g>
       <use xlink:href="#m3ed4ba9473" x="63.11" y="373.921181" style="stroke: #000000; stroke-width: 0.8"/>
      </g>
     </g>
     <g id="text_11">
      <!-- −0.01 -->
      <g transform="translate(25.464688 377.720399) scale(0.1 -0.1)">
       <defs>
        <path id="DejaVuSans-2212" d="M 678 2272 
L 4684 2272 
L 4684 1741 
L 678 1741 
L 678 2272 
z
" transform="scale(0.015625)"/>
       </defs>
       <use xlink:href="#DejaVuSans-2212"/>
       <use xlink:href="#DejaVuSans-30" x="83.789062"/>
       <use xlink:href="#DejaVuSans-2e" x="147.412109"/>
       <use xlink:href="#DejaVuSans-30" x="179.199219"/>
       <use xlink:href="#DejaVuSans-31" x="242.822266"/>
      </g>
     </g>
    </g>
    <g id="ytick_2">
     <g id="line2d_12">
      <g>
       <use xlink:href="#m3ed4ba9473" x="63.11" y="316.087454" style="stroke: #000000; stroke-width: 0.8"/>
      </g>
     </g>
     <g id="text_12">
      <!-- 0.00 -->
      <g transform="translate(33.844375 319.886673) scale(0.1 -0.1)">
       <use xlink:href="#DejaVuSans-30"/>
       <use xlink:href="#DejaVuSans-2e" x="63.623047"/>
       <use xlink:href="#DejaVuSans-30" x="95.410156"/>
       <use xlink:href="#DejaVuSans-30" x="159.033203"/>
      </g>
     </g>
    </g>
    <g id="ytick_3">
     <g id="line2d_13">
      <g>
       <use xlink:href="#m3ed4ba9473" x="63.11" y="258.253727" style="stroke: #000000; stroke-width: 0.8"/>
      </g>
     </g>
     <g id="text_13">
      <!-- 0.01 -->
      <g transform="translate(33.844375 262.052946) scale(0.1 -0.1)">
       <use xlink:href="#DejaVuSans-30"/>
       <use xlink:href="#DejaVuSans-2e" x="63.623047"/>
       <use xlink:href="#DejaVuSans-30" x="95.410156"/>
       <use xlink:href="#DejaVuSans-31" x="159.033203"/>
      </g>
     </g>
    </g>
    <g id="ytick_4">
     <g id="line2d_14">
      <g>
       <use xlink:href="#m3ed4ba9473" x="63.11" y="200.42" style="stroke: #000000; stroke-width: 0.8"/>
      </g>
     </g>
     <g id="text_14">
      <!-- 0.02 -->
      <g transform="translate(33.844375 204.219219) scale(0.1 -0.1)">
       <use xlink:href="#DejaVuSans-30"/>
       <use xlink:href="#DejaVuSans-2e" x="63.623047"/>
       <use xlink:href="#DejaVuSans-30" x="95.410156"/>
       <use xlink:href="#DejaVuSans-32" x="159.033203"/>
      </g>
     </g>
    </g>
    <g id="ytick_5">
     <g id="line2d_15">
      <g>
       <use xlink:href="#m3ed4ba9473" x="63.11" y="142.586273" style="stroke: #000000; stroke-width: 0.8"/>
      </g>
     </g>
     <g id="text_15">
      <!-- 0.03 -->
      <g transform="translate(33.844375 146.385492) scale(0.1 -0.1)">
       <use xlink:href="#DejaVuSans-30"/>
       <use xlink:href="#DejaVuSans-2e" x="63.623047"/>
       <use xlink:href="#DejaVuSans-30" x="95.410156"/>
       <use xlink:href="#DejaVuSans-33" x="159.033203"/>
      </g>
     </g>
    </g>
    <g id="ytick_6">
     <g id="line2d_16">
      <g>
       <use xlink:href="#m3ed4ba9473" x="63.11" y="84.752546" style="stroke: #000000; stroke-width: 0.8"/>
      </g>
     </g>
     <g id="text_16">
      <!-- 0.04 -->
      <g transform="translate(33.844375 88.551765) scale(0.1 -0.1)">
       <use xlink:href="#DejaVuSans-30"/>
       <use xlink:href="#DejaVuSans-2e" x="63.623047"/>
       <use xlink:href="#DejaVuSans-30" x="95.410156"/>
       <use xlink:href="#DejaVuSans-34" x="159.033203"/>
      </g>
     </g>
    </g>
    <g id="ytick_7">
     <g id="line2d_17">
      <g>
       <use xlink:href="#m3ed4ba9473" x="63.11" y="26.918819" style="stroke: #000000; stroke-width: 0.8"/>
      </g>
     </g>
     <g id="text_17">
      <!-- 0.05 -->
      <g transform="translate(33.844375 30.718038) scale(0.1 -0.1)">
       <use xlink:href="#DejaVuSans-30"/>
       <use xlink:href="#DejaVuSans-2e" x="63.623047"/>
       <use xlink:href="#DejaVuSans-30" x="95.410156"/>
       <use xlink:href="#DejaVuSans-35" x="159.033203"/>
      </g>
     </g>
    </g>
    <g id="text_18">
     <!-- $y$ -->
     <g transform="translate(19.364688 203.42) rotate(-90) scale(0.1 -0.1)">
      <defs>
       <path id="DejaVuSans-Oblique-79" d="M 1588 -325 
Q 1188 -997 936 -1164 
Q 684 -1331 294 -1331 
L -159 -1331 
L -63 -850 
L 269 -850 
Q 509 -850 678 -719 
Q 847 -588 1056 -206 
L 1234 128 
L 459 3500 
L 1069 3500 
L 1650 819 
L 3256 3500 
L 3859 3500 
L 1588 -325 
z
" transform="scale(0.015625)"/>
      </defs>
      <use xlink:href="#DejaVuSans-Oblique-79" transform="translate(0 0.3125)"/>
     </g>
    </g>
   </g>
   <g id="line2d_18"/>
   <g id="patch_3">
    <path d="M 63.11 390.04 
L 63.11 10.8 
" style="fill: none; stroke: #000000; stroke-width: 0.8; stroke-linejoin: miter; stroke-linecap: square"/>
   </g>
   <g id="patch_4">
    <path d="M 565.2 390.04 
L 565.2 10.8 
" style="fill: none; stroke: #000000; stroke-width: 0.8; stroke-linejoin: miter; stroke-linecap: square"/>
   </g>
   <g id="patch_5">
    <path d="M 63.11 390.04 
L 565.2 390.04 
" style="fill: none; stroke: #000000; stroke-width: 0.8; stroke-linejoin: miter; stroke-linecap: square"/>
   </g>
   <g id="patch_6">
    <path d="M 63.11 10.8 
L 565.2 10.8 
" style="fill: none; stroke: #000000; stroke-width: 0.8; stroke-linejoin: miter; stroke-linecap: square"/>
   </g>
   <g id="PathCollection_1">
    <defs>
     <path id="mb7d7031d72" d="M 0 0.5 
C 0.132602 0.5 0.25979 0.447317 0.353553 0.353553 
C 0.447317 0.25979 0.5 0.132602 0.5 0 
C 0.5 -0.132602 0.447317 -0.25979 0.353553 -0.353553 
C 0.25979 -0.447317 0.132602 -0.5 0 -0.5 
C -0.132602 -0.5 -0.25979 -0.447317 -0.353553 -0.353553 
C -0.447317 -0.25979 -0.5 -0.132602 -0.5 0 
C -0.5 0.132602 -0.447317 0.25979 -0.353553 0.353553 
C -0.25979 0.447317 -0.132602 0.5 0 0.5 
z
" style="stroke: #000000"/>
    </defs>
    <g clip-path="url(#p4fc9a9731b)">
     <use xlink:href="#mb7d7031d72" x="82.820092" y="316.087454" style="stroke: #000000"/>
     <use xlink:href="#mb7d7031d72" x="545.489908" y="316.087454" style="stroke: #000000"/>
     <use xlink:href="#mb7d7031d72" x="545.489908" y="84.752546" style="stroke: #000000"/>
     <use xlink:href="#mb7d7031d72" x="82.820092" y="84.752546" style="stroke: #000000"/>
     <use xlink:href="#mb7d7031d72" x="111.736956" y="316.087454" style="stroke: #000000"/>
     <use xlink:href="#mb7d7031d72" x="140.653819" y="316.087454" style="stroke: #000000"/>
     <use xlink:href="#mb7d7031d72" x="169.570683" y="316.087454" style="stroke: #000000"/>
     <use xlink:href="#mb7d7031d72" x="198.487546" y="316.087454" style="stroke: #000000"/>
     <use xlink:href="#mb7d7031d72" x="227.40441" y="316.087454" style="stroke: #000000"/>
     <use xlink:href="#mb7d7031d72" x="256.321273" y="316.087454" style="stroke: #000000"/>
     <use xlink:href="#mb7d7031d72" x="285.238137" y="316.087454" style="stroke: #000000"/>
     <use xlink:href="#mb7d7031d72" x="314.155" y="316.087454" style="stroke: #000000"/>
     <use xlink:href="#mb7d7031d72" x="343.071863" y="316.087454" style="stroke: #000000"/>
     <use xlink:href="#mb7d7031d72" x="371.988727" y="316.087454" style="stroke: #000000"/>
     <use xlink:href="#mb7d7031d72" x="400.90559" y="316.087454" style="stroke: #000000"/>
     <use xlink:href="#mb7d7031d72" x="429.822454" y="316.087454" style="stroke: #000000"/>
     <use xlink:href="#mb7d7031d72" x="458.739317" y="316.087454" style="stroke: #000000"/>
     <use xlink:href="#mb7d7031d72" x="487.656181" y="316.087454" style="stroke: #000000"/>
     <use xlink:href="#mb7d7031d72" x="516.573044" y="316.087454" style="stroke: #000000"/>
     <use xlink:href="#mb7d7031d72" x="545.489908" y="287.17059" style="stroke: #000000"/>
     <use xlink:href="#mb7d7031d72" x="545.489908" y="258.253727" style="stroke: #000000"/>
     <use xlink:href="#mb7d7031d72" x="545.489908" y="229.336863" style="stroke: #000000"/>
     <use xlink:href="#mb7d7031d72" x="545.489908" y="200.42" style="stroke: #000000"/>
     <use xlink:href="#mb7d7031d72" x="545.489908" y="171.503137" style="stroke: #000000"/>
     <use xlink:href="#mb7d7031d72" x="545.489908" y="142.586273" style="stroke: #000000"/>
     <use xlink:href="#mb7d7031d72" x="545.489908" y="113.66941" style="stroke: #000000"/>
     <use xlink:href="#mb7d7031d72" x="516.573044" y="84.752546" style="stroke: #000000"/>
     <use xlink:href="#mb7d7031d72" x="487.656181" y="84.752546" style="stroke: #000000"/>
     <use xlink:href="#mb7d7031d72" x="458.739317" y="84.752546" style="stroke: #000000"/>
     <use xlink:href="#mb7d7031d72" x="429.822454" y="84.752546" style="stroke: #000000"/>
     <use xlink:href="#mb7d7031d72" x="400.90559" y="84.752546" style="stroke: #000000"/>
     <use xlink:href="#mb7d7031d72" x="371.988727" y="84.752546" style="stroke: #000000"/>
     <use xlink:href="#mb7d7031d72" x="343.071863" y="84.752546" style="stroke: #000000"/>
     <use xlink:href="#mb7d7031d72" x="314.155" y="84.752546" style="stroke: #000000"/>
     <use xlink:href="#mb7d7031d72" x="285.238137" y="84.752546" style="stroke: #000000"/>
     <use xlink:href="#mb7d7031d72" x="256.321273" y="84.752546" style="stroke: #000000"/>
     <use xlink:href="#mb7d7031d72" x="227.40441" y="84.752546" style="stroke: #000000"/>
     <use xlink:href="#mb7d7031d72" x="198.487546" y="84.752546" style="stroke: #000000"/>
     <use xlink:href="#mb7d7031d72" x="169.570683" y="84.752546" style="stroke: #000000"/>
     <use xlink:href="#mb7d7031d72" x="140.653819" y="84.752546" style="stroke: #000000"/>
     <use xlink:href="#mb7d7031d72" x="111.736956" y="84.752546" style="stroke: #000000"/>
     <use xlink:href="#mb7d7031d72" x="82.820092" y="113.66941" style="stroke: #000000"/>
     <use xlink:href="#mb7d7031d72" x="82.820092" y="142.586273" style="stroke: #000000"/>
     <use xlink:href="#mb7d7031d72" x="82.820092" y="171.503137" style="stroke: #000000"/>
     <use xlink:href="#mb7d7031d72" x="82.820092" y="200.42" style="stroke: #000000"/>
     <use xlink:href="#mb7d7031d72" x="82.820092" y="229.336863" style="stroke: #000000"/>
     <use xlink:href="#mb7d7031d72" x="82.820092" y="258.253727" style="stroke: #000000"/>
     <use xlink:href="#mb7d7031d72" x="82.820092" y="287.17059" style="stroke: #000000"/>
     <use xlink:href="#mb7d7031d72" x="300.341517" y="291.43039" style="stroke: #000000"/>
     <use xlink:href="#mb7d7031d72" x="386.447159" y="291.044715" style="stroke: #000000"/>
     <use xlink:href="#mb7d7031d72" x="212.945978" y="291.044715" style="stroke: #000000"/>
     <use xlink:href="#mb7d7031d72" x="415.364022" y="109.795285" style="stroke: #000000"/>
     <use xlink:href="#mb7d7031d72" x="328.613432" y="109.795285" style="stroke: #000000"/>
     <use xlink:href="#mb7d7031d72" x="241.862841" y="109.795285" style="stroke: #000000"/>
     <use xlink:href="#mb7d7031d72" x="108.517132" y="185.643792" style="stroke: #000000"/>
     <use xlink:href="#mb7d7031d72" x="519.685719" y="216.605135" style="stroke: #000000"/>
     <use xlink:href="#mb7d7031d72" x="443.820208" y="289.747512" style="stroke: #000000"/>
     <use xlink:href="#mb7d7031d72" x="184.029115" y="109.795285" style="stroke: #000000"/>
     <use xlink:href="#mb7d7031d72" x="109.921283" y="239.567875" style="stroke: #000000"/>
     <use xlink:href="#mb7d7031d72" x="519.571835" y="154.536871" style="stroke: #000000"/>
     <use xlink:href="#mb7d7031d72" x="155.112251" y="291.044715" style="stroke: #000000"/>
     <use xlink:href="#mb7d7031d72" x="473.197749" y="109.795285" style="stroke: #000000"/>
     <use xlink:href="#mb7d7031d72" x="127.313751" y="109.149597" style="stroke: #000000"/>
     <use xlink:href="#mb7d7031d72" x="502.299179" y="289.52306" style="stroke: #000000"/>
     <use xlink:href="#mb7d7031d72" x="501.992081" y="109.238538" style="stroke: #000000"/>
     <use xlink:href="#mb7d7031d72" x="492.149511" y="137.231672" style="stroke: #000000"/>
     <use xlink:href="#mb7d7031d72" x="459.488206" y="135.236964" style="stroke: #000000"/>
     <use xlink:href="#mb7d7031d72" x="473.197749" y="159.880761" style="stroke: #000000"/>
     <use xlink:href="#mb7d7031d72" x="444.4057" y="159.947251" style="stroke: #000000"/>
     <use xlink:href="#mb7d7031d72" x="458.76012" y="184.934581" style="stroke: #000000"/>
     <use xlink:href="#mb7d7031d72" x="429.846723" y="184.936428" style="stroke: #000000"/>
     <use xlink:href="#mb7d7031d72" x="444.288397" y="209.97024" style="stroke: #000000"/>
     <use xlink:href="#mb7d7031d72" x="415.369319" y="209.96906" style="stroke: #000000"/>
     <use xlink:href="#mb7d7031d72" x="400.910518" y="184.926125" style="stroke: #000000"/>
     <use xlink:href="#mb7d7031d72" x="386.447159" y="209.966238" style="stroke: #000000"/>
     <use xlink:href="#mb7d7031d72" x="371.989548" y="184.923937" style="stroke: #000000"/>
     <use xlink:href="#mb7d7031d72" x="357.530432" y="209.966311" style="stroke: #000000"/>
     <use xlink:href="#mb7d7031d72" x="343.072023" y="184.923585" style="stroke: #000000"/>
     <use xlink:href="#mb7d7031d72" x="328.61345" y="209.966248" style="stroke: #000000"/>
     <use xlink:href="#mb7d7031d72" x="314.15503" y="184.923515" style="stroke: #000000"/>
     <use xlink:href="#mb7d7031d72" x="299.696576" y="209.966242" style="stroke: #000000"/>
     <use xlink:href="#mb7d7031d72" x="285.238143" y="184.923503" style="stroke: #000000"/>
     <use xlink:href="#mb7d7031d72" x="270.779705" y="209.966238" style="stroke: #000000"/>
     <use xlink:href="#mb7d7031d72" x="256.321274" y="184.9235" style="stroke: #000000"/>
     <use xlink:href="#mb7d7031d72" x="241.862842" y="209.966238" style="stroke: #000000"/>
     <use xlink:href="#mb7d7031d72" x="227.40441" y="184.9235" style="stroke: #000000"/>
     <use xlink:href="#mb7d7031d72" x="212.945978" y="209.966238" style="stroke: #000000"/>
     <use xlink:href="#mb7d7031d72" x="198.487546" y="184.9235" style="stroke: #000000"/>
     <use xlink:href="#mb7d7031d72" x="184.029115" y="209.966238" style="stroke: #000000"/>
     <use xlink:href="#mb7d7031d72" x="343.071889" y="235.00899" style="stroke: #000000"/>
     <use xlink:href="#mb7d7031d72" x="256.321273" y="235.008976" style="stroke: #000000"/>
     <use xlink:href="#mb7d7031d72" x="169.570683" y="184.9235" style="stroke: #000000"/>
     <use xlink:href="#mb7d7031d72" x="270.779706" y="159.880762" style="stroke: #000000"/>
     <use xlink:href="#mb7d7031d72" x="357.530459" y="159.880848" style="stroke: #000000"/>
     <use xlink:href="#mb7d7031d72" x="212.945978" y="159.880761" style="stroke: #000000"/>
     <use xlink:href="#mb7d7031d72" x="400.90559" y="235.008976" style="stroke: #000000"/>
     <use xlink:href="#mb7d7031d72" x="198.487546" y="235.008976" style="stroke: #000000"/>
     <use xlink:href="#mb7d7031d72" x="169.570683" y="235.008976" style="stroke: #000000"/>
     <use xlink:href="#mb7d7031d72" x="472.410534" y="209.511529" style="stroke: #000000"/>
     <use xlink:href="#mb7d7031d72" x="458.609367" y="234.933858" style="stroke: #000000"/>
     <use xlink:href="#mb7d7031d72" x="184.029115" y="260.051715" style="stroke: #000000"/>
     <use xlink:href="#mb7d7031d72" x="492.149876" y="232.865336" style="stroke: #000000"/>
     <use xlink:href="#mb7d7031d72" x="473.197749" y="260.051715" style="stroke: #000000"/>
     <use xlink:href="#mb7d7031d72" x="501.425095" y="260.784872" style="stroke: #000000"/>
     <use xlink:href="#mb7d7031d72" x="443.293583" y="259.315725" style="stroke: #000000"/>
     <use xlink:href="#mb7d7031d72" x="212.945978" y="260.051715" style="stroke: #000000"/>
     <use xlink:href="#mb7d7031d72" x="155.303189" y="258.801706" style="stroke: #000000"/>
     <use xlink:href="#mb7d7031d72" x="140.653819" y="235.008976" style="stroke: #000000"/>
     <use xlink:href="#mb7d7031d72" x="429.968071" y="134.915595" style="stroke: #000000"/>
     <use xlink:href="#mb7d7031d72" x="212.945978" y="109.795285" style="stroke: #000000"/>
     <use xlink:href="#mb7d7031d72" x="198.487546" y="134.838023" style="stroke: #000000"/>
     <use xlink:href="#mb7d7031d72" x="169.570683" y="134.838023" style="stroke: #000000"/>
     <use xlink:href="#mb7d7031d72" x="184.029115" y="159.880761" style="stroke: #000000"/>
     <use xlink:href="#mb7d7031d72" x="155.112251" y="159.880761" style="stroke: #000000"/>
     <use xlink:href="#mb7d7031d72" x="139.92373" y="185.043548" style="stroke: #000000"/>
     <use xlink:href="#mb7d7031d72" x="126.195388" y="159.880761" style="stroke: #000000"/>
     <use xlink:href="#mb7d7031d72" x="125.708169" y="211.19379" style="stroke: #000000"/>
     <use xlink:href="#mb7d7031d72" x="140.840213" y="134.730408" style="stroke: #000000"/>
     <use xlink:href="#mb7d7031d72" x="109.452709" y="131.854616" style="stroke: #000000"/>
     <use xlink:href="#mb7d7031d72" x="227.40441" y="134.838023" style="stroke: #000000"/>
     <use xlink:href="#mb7d7031d72" x="256.321273" y="134.838023" style="stroke: #000000"/>
     <use xlink:href="#mb7d7031d72" x="299.696568" y="109.795285" style="stroke: #000000"/>
     <use xlink:href="#mb7d7031d72" x="314.155" y="134.838023" style="stroke: #000000"/>
     <use xlink:href="#mb7d7031d72" x="343.071891" y="134.838037" style="stroke: #000000"/>
     <use xlink:href="#mb7d7031d72" x="328.613495" y="159.880795" style="stroke: #000000"/>
     <use xlink:href="#mb7d7031d72" x="371.988759" y="134.83804" style="stroke: #000000"/>
     <use xlink:href="#mb7d7031d72" x="386.448149" y="159.881289" style="stroke: #000000"/>
     <use xlink:href="#mb7d7031d72" x="444.42997" y="109.874703" style="stroke: #000000"/>
     <use xlink:href="#mb7d7031d72" x="314.155003" y="235.008978" style="stroke: #000000"/>
     <use xlink:href="#mb7d7031d72" x="329.666852" y="259.443527" style="stroke: #000000"/>
     <use xlink:href="#mb7d7031d72" x="357.530295" y="260.051715" style="stroke: #000000"/>
     <use xlink:href="#mb7d7031d72" x="300.51482" y="261.845094" style="stroke: #000000"/>
     <use xlink:href="#mb7d7031d72" x="342.147273" y="285.214891" style="stroke: #000000"/>
     <use xlink:href="#mb7d7031d72" x="285.374514" y="235.307874" style="stroke: #000000"/>
     <use xlink:href="#mb7d7031d72" x="414.233827" y="291.436705" style="stroke: #000000"/>
     <use xlink:href="#mb7d7031d72" x="400.771043" y="269.134019" style="stroke: #000000"/>
     <use xlink:href="#mb7d7031d72" x="184.029115" y="291.044715" style="stroke: #000000"/>
     <use xlink:href="#mb7d7031d72" x="155.329711" y="109.669734" style="stroke: #000000"/>
     <use xlink:href="#mb7d7031d72" x="126.195388" y="291.044715" style="stroke: #000000"/>
     <use xlink:href="#mb7d7031d72" x="473.197749" y="291.044715" style="stroke: #000000"/>
     <use xlink:href="#mb7d7031d72" x="386.447164" y="109.795287" style="stroke: #000000"/>
     <use xlink:href="#mb7d7031d72" x="357.530299" y="109.795287" style="stroke: #000000"/>
     <use xlink:href="#mb7d7031d72" x="241.862841" y="291.044715" style="stroke: #000000"/>
     <use xlink:href="#mb7d7031d72" x="371.988754" y="233.378485" style="stroke: #000000"/>
     <use xlink:href="#mb7d7031d72" x="227.40441" y="235.008976" style="stroke: #000000"/>
     <use xlink:href="#mb7d7031d72" x="241.862841" y="260.051715" style="stroke: #000000"/>
     <use xlink:href="#mb7d7031d72" x="429.63838" y="233.244423" style="stroke: #000000"/>
     <use xlink:href="#mb7d7031d72" x="270.807686" y="291.889769" style="stroke: #000000"/>
     <use xlink:href="#mb7d7031d72" x="270.779705" y="260.051715" style="stroke: #000000"/>
     <use xlink:href="#mb7d7031d72" x="516.048362" y="185.428271" style="stroke: #000000"/>
     <use xlink:href="#mb7d7031d72" x="485.810292" y="184.960732" style="stroke: #000000"/>
     <use xlink:href="#mb7d7031d72" x="415.382281" y="159.890488" style="stroke: #000000"/>
     <use xlink:href="#mb7d7031d72" x="241.862842" y="159.880762" style="stroke: #000000"/>
     <use xlink:href="#mb7d7031d72" x="285.238137" y="134.838023" style="stroke: #000000"/>
     <use xlink:href="#mb7d7031d72" x="270.779705" y="109.795285" style="stroke: #000000"/>
     <use xlink:href="#mb7d7031d72" x="299.696585" y="159.88077" style="stroke: #000000"/>
     <use xlink:href="#mb7d7031d72" x="400.933074" y="134.852664" style="stroke: #000000"/>
     <use xlink:href="#mb7d7031d72" x="154.909366" y="210.190838" style="stroke: #000000"/>
     <use xlink:href="#mb7d7031d72" x="106.732619" y="271.356072" style="stroke: #000000"/>
     <use xlink:href="#mb7d7031d72" x="521.434836" y="127.868335" style="stroke: #000000"/>
     <use xlink:href="#mb7d7031d72" x="521.500997" y="244.118012" style="stroke: #000000"/>
     <use xlink:href="#mb7d7031d72" x="129.338984" y="258.236759" style="stroke: #000000"/>
     <use xlink:href="#mb7d7031d72" x="523.456208" y="272.496662" style="stroke: #000000"/>
     <use xlink:href="#mb7d7031d72" x="497.261543" y="206.259543" style="stroke: #000000"/>
     <use xlink:href="#mb7d7031d72" x="102.190718" y="157.044705" style="stroke: #000000"/>
     <use xlink:href="#mb7d7031d72" x="497.35555" y="164.407661" style="stroke: #000000"/>
     <use xlink:href="#mb7d7031d72" x="101.737186" y="214.878432" style="stroke: #000000"/>
     <use xlink:href="#mb7d7031d72" x="423.499194" y="270.839591" style="stroke: #000000"/>
     <use xlink:href="#mb7d7031d72" x="320.319268" y="280.23604" style="stroke: #000000"/>
     <use xlink:href="#mb7d7031d72" x="379.009289" y="273.038597" style="stroke: #000000"/>
     <use xlink:href="#mb7d7031d72" x="363.603328" y="292.428692" style="stroke: #000000"/>
     <use xlink:href="#mb7d7031d72" x="103.988706" y="105.921159" style="stroke: #000000"/>
     <use xlink:href="#mb7d7031d72" x="103.988706" y="294.918841" style="stroke: #000000"/>
     <use xlink:href="#mb7d7031d72" x="524.321294" y="105.921159" style="stroke: #000000"/>
     <use xlink:href="#mb7d7031d72" x="524.532161" y="295.129708" style="stroke: #000000"/>
     <use xlink:href="#mb7d7031d72" x="487.656181" y="275.548215" style="stroke: #000000"/>
     <use xlink:href="#mb7d7031d72" x="458.739317" y="275.548215" style="stroke: #000000"/>
     <use xlink:href="#mb7d7031d72" x="285.238137" y="275.548215" style="stroke: #000000"/>
     <use xlink:href="#mb7d7031d72" x="256.321273" y="275.548215" style="stroke: #000000"/>
     <use xlink:href="#mb7d7031d72" x="227.40441" y="275.548215" style="stroke: #000000"/>
     <use xlink:href="#mb7d7031d72" x="198.487546" y="275.548215" style="stroke: #000000"/>
     <use xlink:href="#mb7d7031d72" x="169.570683" y="275.548215" style="stroke: #000000"/>
     <use xlink:href="#mb7d7031d72" x="387.032706" y="251.907149" style="stroke: #000000"/>
     <use xlink:href="#mb7d7031d72" x="415.058436" y="251.042568" style="stroke: #000000"/>
     <use xlink:href="#mb7d7031d72" x="325.323112" y="298.673104" style="stroke: #000000"/>
     <use xlink:href="#mb7d7031d72" x="143.004504" y="275.532839" style="stroke: #000000"/>
    </g>
   </g>
  </g>
 </g>
 <defs>
  <clipPath id="p4fc9a9731b">
   <rect x="63.11" y="10.8" width="502.09" height="379.24"/>
  </clipPath>
 </defs>
</svg>
