<?xml version="1.0" encoding="utf-8" standalone="no"?>
<!DOCTYPE svg PUBLIC "-//W3C//DTD SVG 1.1//EN"
  "http://www.w3.org/Graphics/SVG/1.1/DTD/svg11.dtd">
<svg xmlns:xlink="http://www.w3.org/1999/xlink" width="576pt" height="432pt" viewBox="0 0 576 432" xmlns="http://www.w3.org/2000/svg" version="1.1">
 <metadata>
  <rdf:RDF xmlns:dc="http://purl.org/dc/elements/1.1/" xmlns:cc="http://creativecommons.org/ns#" xmlns:rdf="http://www.w3.org/1999/02/22-rdf-syntax-ns#">
   <cc:Work>
    <dc:type rdf:resource="http://purl.org/dc/dcmitype/StillImage"/>
    <dc:date>2025-01-15T10:57:13.633981</dc:date>
    <dc:format>image/svg+xml</dc:format>
    <dc:creator>
     <cc:Agent>
      <dc:title>Matplotlib v3.8.3, https://matplotlib.org/</dc:title>
     </cc:Agent>
    </dc:creator>
   </cc:Work>
  </rdf:RDF>
 </metadata>
 <defs>
  <style type="text/css">*{stroke-linejoin: round; stroke-linecap: butt}</style>
 </defs>
 <g id="figure_1">
  <g id="patch_1">
   <path d="M 0 432 
L 576 432 
L 576 0 
L 0 0 
z
" style="fill: #ffffff"/>
  </g>
  <g id="axes_1">
   <g id="patch_2">
    <path d="M 63.11 390.04 
L 565.2 390.04 
L 565.2 10.8 
L 63.11 10.8 
z
" style="fill: #ffffff"/>
   </g>
   <g id="line2d_1">
    <path d="M 140.653819 316.087454 
L 82.820092 316.087454 
M 198.487546 316.087454 
L 140.653819 316.087454 
M 256.321273 316.087454 
L 198.487546 316.087454 
M 314.155 316.087454 
L 256.321273 316.087454 
M 371.988727 316.087454 
L 314.155 316.087454 
M 429.822454 316.087454 
L 371.988727 316.087454 
M 487.656181 316.087454 
L 545.489908 316.087454 
M 487.656181 316.087454 
L 429.822454 316.087454 
M 545.489908 258.253727 
L 545.489908 316.087454 
M 545.489908 200.42 
L 545.489908 258.253727 
M 545.489908 142.586273 
L 545.489908 84.752546 
M 545.489908 142.586273 
L 545.489908 200.42 
M 487.656181 84.752546 
L 545.489908 84.752546 
M 429.822454 84.752546 
L 487.656181 84.752546 
M 371.988727 84.752546 
L 429.822454 84.752546 
M 314.155 84.752546 
L 371.988727 84.752546 
M 256.321273 84.752546 
L 314.155 84.752546 
M 198.487546 84.752546 
L 256.321273 84.752546 
M 140.653819 84.752546 
L 82.820092 84.752546 
M 140.653819 84.752546 
L 198.487546 84.752546 
M 82.820092 142.586273 
L 82.820092 84.752546 
M 82.820092 200.42 
L 82.820092 142.586273 
M 82.820092 258.253727 
L 82.820092 316.087454 
M 82.820092 258.253727 
L 82.820092 200.42 
M 226.597075 264.826101 
L 198.487546 316.087454 
M 226.597075 264.826101 
L 256.321273 316.087454 
M 401.712925 264.826101 
L 371.988727 316.087454 
M 401.712925 264.826101 
L 429.822454 316.087454 
M 285.238137 134.838023 
L 314.155 84.752546 
M 285.238137 134.838023 
L 256.321273 84.752546 
M 400.90559 134.838023 
L 429.822454 84.752546 
M 400.90559 134.838023 
L 371.988727 84.752546 
M 169.815746 133.724529 
L 198.487546 84.752546 
M 169.815746 133.724529 
L 140.653819 84.752546 
M 499.760419 232.994228 
L 545.489908 258.253727 
M 499.760419 232.994228 
L 545.489908 200.42 
M 128.549581 232.994228 
L 82.820092 200.42 
M 128.549581 232.994228 
L 82.820092 258.253727 
M 343.071863 134.838023 
L 371.988727 84.752546 
M 343.071863 134.838023 
L 314.155 84.752546 
M 343.071863 134.838023 
L 285.238137 134.838023 
M 343.071863 134.838023 
L 400.90559 134.838023 
M 314.155 184.9235 
L 285.238137 134.838023 
M 314.155 184.9235 
L 343.071863 134.838023 
M 256.321273 182.47302 
L 285.238137 134.838023 
M 256.321273 182.47302 
L 314.155 184.9235 
M 278.742996 233.288539 
L 226.597075 264.826101 
M 278.742996 233.288539 
L 314.155 184.9235 
M 278.742996 233.288539 
L 256.321273 182.47302 
M 348.639127 233.392831 
L 401.712925 264.826101 
M 348.639127 233.392831 
L 314.155 184.9235 
M 348.639127 233.392831 
L 278.742996 233.288539 
M 227.445253 134.244027 
L 256.321273 84.752546 
M 227.445253 134.244027 
L 198.487546 84.752546 
M 227.445253 134.244027 
L 285.238137 134.838023 
M 227.445253 134.244027 
L 169.815746 133.724529 
M 227.445253 134.244027 
L 256.321273 182.47302 
M 458.494254 133.724529 
L 487.656181 84.752546 
M 458.494254 133.724529 
L 429.822454 84.752546 
M 458.494254 133.724529 
L 400.90559 134.838023 
M 430.13682 178.615698 
L 400.90559 134.838023 
M 430.13682 178.615698 
L 458.494254 133.724529 
M 372.968998 181.152362 
L 400.90559 134.838023 
M 372.968998 181.152362 
L 343.071863 134.838023 
M 372.968998 181.152362 
L 314.155 184.9235 
M 372.968998 181.152362 
L 348.639127 233.392831 
M 372.968998 181.152362 
L 430.13682 178.615698 
M 198.179987 178.108286 
L 169.815746 133.724529 
M 198.179987 178.108286 
L 256.321273 182.47302 
M 198.179987 178.108286 
L 227.445253 134.244027 
M 493.741254 175.696263 
L 545.489908 200.42 
M 493.741254 175.696263 
L 545.489908 142.586273 
M 493.741254 175.696263 
L 499.760419 232.994228 
M 493.741254 175.696263 
L 458.494254 133.724529 
M 493.741254 175.696263 
L 430.13682 178.615698 
M 134.569242 175.659279 
L 82.820092 142.586273 
M 134.569242 175.659279 
L 82.820092 200.42 
M 134.569242 175.659279 
L 169.815746 133.724529 
M 134.569242 175.659279 
L 128.549581 232.994228 
M 134.569242 175.659279 
L 198.179987 178.108286 
M 462.264931 271.218052 
L 429.822454 316.087454 
M 462.264931 271.218052 
L 487.656181 316.087454 
M 462.264931 271.218052 
L 401.712925 264.826101 
M 462.264931 271.218052 
L 499.760419 232.994228 
M 166.045069 271.218052 
L 140.653819 316.087454 
M 166.045069 271.218052 
L 198.487546 316.087454 
M 166.045069 271.218052 
L 226.597075 264.826101 
M 166.045069 271.218052 
L 128.549581 232.994228 
M 314.155 270.391575 
L 314.155 316.087454 
M 314.155 270.391575 
L 278.742996 233.288539 
M 314.155 270.391575 
L 348.639127 233.392831 
M 400.98856 216.309968 
L 401.712925 264.826101 
M 400.98856 216.309968 
L 348.639127 233.392831 
M 400.98856 216.309968 
L 430.13682 178.615698 
M 400.98856 216.309968 
L 372.968998 181.152362 
M 227.333281 216.451759 
L 226.597075 264.826101 
M 227.333281 216.451759 
L 256.321273 182.47302 
M 227.333281 216.451759 
L 278.742996 233.288539 
M 227.333281 216.451759 
L 198.179987 178.108286 
M 503.152681 273.750227 
L 545.489908 316.087454 
M 503.152681 273.750227 
L 487.656181 316.087454 
M 503.152681 273.750227 
L 545.489908 258.253727 
M 503.152681 273.750227 
L 499.760419 232.994228 
M 503.152681 273.750227 
L 462.264931 271.218052 
M 125.157319 127.089773 
L 82.820092 84.752546 
M 125.157319 127.089773 
L 140.653819 84.752546 
M 125.157319 127.089773 
L 82.820092 142.586273 
M 125.157319 127.089773 
L 169.815746 133.724529 
M 125.157319 127.089773 
L 134.569242 175.659279 
M 125.157319 273.750227 
L 82.820092 316.087454 
M 125.157319 273.750227 
L 140.653819 316.087454 
M 125.157319 273.750227 
L 82.820092 258.253727 
M 125.157319 273.750227 
L 128.549581 232.994228 
M 125.157319 273.750227 
L 166.045069 271.218052 
M 503.152681 127.089773 
L 545.489908 84.752546 
M 503.152681 127.089773 
L 545.489908 142.586273 
M 503.152681 127.089773 
L 487.656181 84.752546 
M 503.152681 127.089773 
L 458.494254 133.724529 
M 503.152681 127.089773 
L 493.741254 175.696263 
M 177.706814 223.470899 
L 226.597075 264.826101 
M 177.706814 223.470899 
L 128.549581 232.994228 
M 177.706814 223.470899 
L 198.179987 178.108286 
M 177.706814 223.470899 
L 134.569242 175.659279 
M 177.706814 223.470899 
L 166.045069 271.218052 
M 177.706814 223.470899 
L 227.333281 216.451759 
M 451.484928 223.562847 
L 401.712925 264.826101 
M 451.484928 223.562847 
L 499.760419 232.994228 
M 451.484928 223.562847 
L 430.13682 178.615698 
M 451.484928 223.562847 
L 493.741254 175.696263 
M 451.484928 223.562847 
L 462.264931 271.218052 
M 451.484928 223.562847 
L 400.98856 216.309968 
M 275.566292 278.69459 
L 256.321273 316.087454 
M 275.566292 278.69459 
L 314.155 316.087454 
M 275.566292 278.69459 
L 226.597075 264.826101 
M 275.566292 278.69459 
L 278.742996 233.288539 
M 275.566292 278.69459 
L 314.155 270.391575 
M 352.611154 278.709489 
L 314.155 316.087454 
M 352.611154 278.709489 
L 371.988727 316.087454 
M 352.611154 278.709489 
L 401.712925 264.826101 
M 352.611154 278.709489 
L 348.639127 233.392831 
M 352.611154 278.709489 
L 314.155 270.391575 
L 314.155 270.391575 
" clip-path="url(#p92f6aeff6e)" style="fill: none; stroke: #808080; stroke-width: 1.5; stroke-linecap: square"/>
   </g>
   <g id="matplotlib.axis_1">
    <g id="xtick_1">
     <g id="line2d_2">
      <defs>
       <path id="me5f6ce3c3d" d="M 0 0 
L 0 3.5 
" style="stroke: #000000; stroke-width: 0.8"/>
      </defs>
      <g>
       <use xlink:href="#me5f6ce3c3d" x="82.820092" y="390.04" style="stroke: #000000; stroke-width: 0.8"/>
      </g>
     </g>
     <g id="text_1">
      <!-- 0.00 -->
      <g transform="translate(71.68728 404.638438) scale(0.1 -0.1)">
       <defs>
        <path id="DejaVuSans-30" d="M 2034 4250 
Q 1547 4250 1301 3770 
Q 1056 3291 1056 2328 
Q 1056 1369 1301 889 
Q 1547 409 2034 409 
Q 2525 409 2770 889 
Q 3016 1369 3016 2328 
Q 3016 3291 2770 3770 
Q 2525 4250 2034 4250 
z
M 2034 4750 
Q 2819 4750 3233 4129 
Q 3647 3509 3647 2328 
Q 3647 1150 3233 529 
Q 2819 -91 2034 -91 
Q 1250 -91 836 529 
Q 422 1150 422 2328 
Q 422 3509 836 4129 
Q 1250 4750 2034 4750 
z
" transform="scale(0.015625)"/>
        <path id="DejaVuSans-2e" d="M 684 794 
L 1344 794 
L 1344 0 
L 684 0 
L 684 794 
z
" transform="scale(0.015625)"/>
       </defs>
       <use xlink:href="#DejaVuSans-30"/>
       <use xlink:href="#DejaVuSans-2e" x="63.623047"/>
       <use xlink:href="#DejaVuSans-30" x="95.410156"/>
       <use xlink:href="#DejaVuSans-30" x="159.033203"/>
      </g>
     </g>
    </g>
    <g id="xtick_2">
     <g id="line2d_3">
      <g>
       <use xlink:href="#me5f6ce3c3d" x="140.653819" y="390.04" style="stroke: #000000; stroke-width: 0.8"/>
      </g>
     </g>
     <g id="text_2">
      <!-- 0.01 -->
      <g transform="translate(129.521007 404.638438) scale(0.1 -0.1)">
       <defs>
        <path id="DejaVuSans-31" d="M 794 531 
L 1825 531 
L 1825 4091 
L 703 3866 
L 703 4441 
L 1819 4666 
L 2450 4666 
L 2450 531 
L 3481 531 
L 3481 0 
L 794 0 
L 794 531 
z
" transform="scale(0.015625)"/>
       </defs>
       <use xlink:href="#DejaVuSans-30"/>
       <use xlink:href="#DejaVuSans-2e" x="63.623047"/>
       <use xlink:href="#DejaVuSans-30" x="95.410156"/>
       <use xlink:href="#DejaVuSans-31" x="159.033203"/>
      </g>
     </g>
    </g>
    <g id="xtick_3">
     <g id="line2d_4">
      <g>
       <use xlink:href="#me5f6ce3c3d" x="198.487546" y="390.04" style="stroke: #000000; stroke-width: 0.8"/>
      </g>
     </g>
     <g id="text_3">
      <!-- 0.02 -->
      <g transform="translate(187.354734 404.638438) scale(0.1 -0.1)">
       <defs>
        <path id="DejaVuSans-32" d="M 1228 531 
L 3431 531 
L 3431 0 
L 469 0 
L 469 531 
Q 828 903 1448 1529 
Q 2069 2156 2228 2338 
Q 2531 2678 2651 2914 
Q 2772 3150 2772 3378 
Q 2772 3750 2511 3984 
Q 2250 4219 1831 4219 
Q 1534 4219 1204 4116 
Q 875 4013 500 3803 
L 500 4441 
Q 881 4594 1212 4672 
Q 1544 4750 1819 4750 
Q 2544 4750 2975 4387 
Q 3406 4025 3406 3419 
Q 3406 3131 3298 2873 
Q 3191 2616 2906 2266 
Q 2828 2175 2409 1742 
Q 1991 1309 1228 531 
z
" transform="scale(0.015625)"/>
       </defs>
       <use xlink:href="#DejaVuSans-30"/>
       <use xlink:href="#DejaVuSans-2e" x="63.623047"/>
       <use xlink:href="#DejaVuSans-30" x="95.410156"/>
       <use xlink:href="#DejaVuSans-32" x="159.033203"/>
      </g>
     </g>
    </g>
    <g id="xtick_4">
     <g id="line2d_5">
      <g>
       <use xlink:href="#me5f6ce3c3d" x="256.321273" y="390.04" style="stroke: #000000; stroke-width: 0.8"/>
      </g>
     </g>
     <g id="text_4">
      <!-- 0.03 -->
      <g transform="translate(245.188461 404.638438) scale(0.1 -0.1)">
       <defs>
        <path id="DejaVuSans-33" d="M 2597 2516 
Q 3050 2419 3304 2112 
Q 3559 1806 3559 1356 
Q 3559 666 3084 287 
Q 2609 -91 1734 -91 
Q 1441 -91 1130 -33 
Q 819 25 488 141 
L 488 750 
Q 750 597 1062 519 
Q 1375 441 1716 441 
Q 2309 441 2620 675 
Q 2931 909 2931 1356 
Q 2931 1769 2642 2001 
Q 2353 2234 1838 2234 
L 1294 2234 
L 1294 2753 
L 1863 2753 
Q 2328 2753 2575 2939 
Q 2822 3125 2822 3475 
Q 2822 3834 2567 4026 
Q 2313 4219 1838 4219 
Q 1578 4219 1281 4162 
Q 984 4106 628 3988 
L 628 4550 
Q 988 4650 1302 4700 
Q 1616 4750 1894 4750 
Q 2613 4750 3031 4423 
Q 3450 4097 3450 3541 
Q 3450 3153 3228 2886 
Q 3006 2619 2597 2516 
z
" transform="scale(0.015625)"/>
       </defs>
       <use xlink:href="#DejaVuSans-30"/>
       <use xlink:href="#DejaVuSans-2e" x="63.623047"/>
       <use xlink:href="#DejaVuSans-30" x="95.410156"/>
       <use xlink:href="#DejaVuSans-33" x="159.033203"/>
      </g>
     </g>
    </g>
    <g id="xtick_5">
     <g id="line2d_6">
      <g>
       <use xlink:href="#me5f6ce3c3d" x="314.155" y="390.04" style="stroke: #000000; stroke-width: 0.8"/>
      </g>
     </g>
     <g id="text_5">
      <!-- 0.04 -->
      <g transform="translate(303.022187 404.638438) scale(0.1 -0.1)">
       <defs>
        <path id="DejaVuSans-34" d="M 2419 4116 
L 825 1625 
L 2419 1625 
L 2419 4116 
z
M 2253 4666 
L 3047 4666 
L 3047 1625 
L 3713 1625 
L 3713 1100 
L 3047 1100 
L 3047 0 
L 2419 0 
L 2419 1100 
L 313 1100 
L 313 1709 
L 2253 4666 
z
" transform="scale(0.015625)"/>
       </defs>
       <use xlink:href="#DejaVuSans-30"/>
       <use xlink:href="#DejaVuSans-2e" x="63.623047"/>
       <use xlink:href="#DejaVuSans-30" x="95.410156"/>
       <use xlink:href="#DejaVuSans-34" x="159.033203"/>
      </g>
     </g>
    </g>
    <g id="xtick_6">
     <g id="line2d_7">
      <g>
       <use xlink:href="#me5f6ce3c3d" x="371.988727" y="390.04" style="stroke: #000000; stroke-width: 0.8"/>
      </g>
     </g>
     <g id="text_6">
      <!-- 0.05 -->
      <g transform="translate(360.855914 404.638438) scale(0.1 -0.1)">
       <defs>
        <path id="DejaVuSans-35" d="M 691 4666 
L 3169 4666 
L 3169 4134 
L 1269 4134 
L 1269 2991 
Q 1406 3038 1543 3061 
Q 1681 3084 1819 3084 
Q 2600 3084 3056 2656 
Q 3513 2228 3513 1497 
Q 3513 744 3044 326 
Q 2575 -91 1722 -91 
Q 1428 -91 1123 -41 
Q 819 9 494 109 
L 494 744 
Q 775 591 1075 516 
Q 1375 441 1709 441 
Q 2250 441 2565 725 
Q 2881 1009 2881 1497 
Q 2881 1984 2565 2268 
Q 2250 2553 1709 2553 
Q 1456 2553 1204 2497 
Q 953 2441 691 2322 
L 691 4666 
z
" transform="scale(0.015625)"/>
       </defs>
       <use xlink:href="#DejaVuSans-30"/>
       <use xlink:href="#DejaVuSans-2e" x="63.623047"/>
       <use xlink:href="#DejaVuSans-30" x="95.410156"/>
       <use xlink:href="#DejaVuSans-35" x="159.033203"/>
      </g>
     </g>
    </g>
    <g id="xtick_7">
     <g id="line2d_8">
      <g>
       <use xlink:href="#me5f6ce3c3d" x="429.822454" y="390.04" style="stroke: #000000; stroke-width: 0.8"/>
      </g>
     </g>
     <g id="text_7">
      <!-- 0.06 -->
      <g transform="translate(418.689641 404.638438) scale(0.1 -0.1)">
       <defs>
        <path id="DejaVuSans-36" d="M 2113 2584 
Q 1688 2584 1439 2293 
Q 1191 2003 1191 1497 
Q 1191 994 1439 701 
Q 1688 409 2113 409 
Q 2538 409 2786 701 
Q 3034 994 3034 1497 
Q 3034 2003 2786 2293 
Q 2538 2584 2113 2584 
z
M 3366 4563 
L 3366 3988 
Q 3128 4100 2886 4159 
Q 2644 4219 2406 4219 
Q 1781 4219 1451 3797 
Q 1122 3375 1075 2522 
Q 1259 2794 1537 2939 
Q 1816 3084 2150 3084 
Q 2853 3084 3261 2657 
Q 3669 2231 3669 1497 
Q 3669 778 3244 343 
Q 2819 -91 2113 -91 
Q 1303 -91 875 529 
Q 447 1150 447 2328 
Q 447 3434 972 4092 
Q 1497 4750 2381 4750 
Q 2619 4750 2861 4703 
Q 3103 4656 3366 4563 
z
" transform="scale(0.015625)"/>
       </defs>
       <use xlink:href="#DejaVuSans-30"/>
       <use xlink:href="#DejaVuSans-2e" x="63.623047"/>
       <use xlink:href="#DejaVuSans-30" x="95.410156"/>
       <use xlink:href="#DejaVuSans-36" x="159.033203"/>
      </g>
     </g>
    </g>
    <g id="xtick_8">
     <g id="line2d_9">
      <g>
       <use xlink:href="#me5f6ce3c3d" x="487.656181" y="390.04" style="stroke: #000000; stroke-width: 0.8"/>
      </g>
     </g>
     <g id="text_8">
      <!-- 0.07 -->
      <g transform="translate(476.523368 404.638438) scale(0.1 -0.1)">
       <defs>
        <path id="DejaVuSans-37" d="M 525 4666 
L 3525 4666 
L 3525 4397 
L 1831 0 
L 1172 0 
L 2766 4134 
L 525 4134 
L 525 4666 
z
" transform="scale(0.015625)"/>
       </defs>
       <use xlink:href="#DejaVuSans-30"/>
       <use xlink:href="#DejaVuSans-2e" x="63.623047"/>
       <use xlink:href="#DejaVuSans-30" x="95.410156"/>
       <use xlink:href="#DejaVuSans-37" x="159.033203"/>
      </g>
     </g>
    </g>
    <g id="xtick_9">
     <g id="line2d_10">
      <g>
       <use xlink:href="#me5f6ce3c3d" x="545.489908" y="390.04" style="stroke: #000000; stroke-width: 0.8"/>
      </g>
     </g>
     <g id="text_9">
      <!-- 0.08 -->
      <g transform="translate(534.357095 404.638438) scale(0.1 -0.1)">
       <defs>
        <path id="DejaVuSans-38" d="M 2034 2216 
Q 1584 2216 1326 1975 
Q 1069 1734 1069 1313 
Q 1069 891 1326 650 
Q 1584 409 2034 409 
Q 2484 409 2743 651 
Q 3003 894 3003 1313 
Q 3003 1734 2745 1975 
Q 2488 2216 2034 2216 
z
M 1403 2484 
Q 997 2584 770 2862 
Q 544 3141 544 3541 
Q 544 4100 942 4425 
Q 1341 4750 2034 4750 
Q 2731 4750 3128 4425 
Q 3525 4100 3525 3541 
Q 3525 3141 3298 2862 
Q 3072 2584 2669 2484 
Q 3125 2378 3379 2068 
Q 3634 1759 3634 1313 
Q 3634 634 3220 271 
Q 2806 -91 2034 -91 
Q 1263 -91 848 271 
Q 434 634 434 1313 
Q 434 1759 690 2068 
Q 947 2378 1403 2484 
z
M 1172 3481 
Q 1172 3119 1398 2916 
Q 1625 2713 2034 2713 
Q 2441 2713 2670 2916 
Q 2900 3119 2900 3481 
Q 2900 3844 2670 4047 
Q 2441 4250 2034 4250 
Q 1625 4250 1398 4047 
Q 1172 3844 1172 3481 
z
" transform="scale(0.015625)"/>
       </defs>
       <use xlink:href="#DejaVuSans-30"/>
       <use xlink:href="#DejaVuSans-2e" x="63.623047"/>
       <use xlink:href="#DejaVuSans-30" x="95.410156"/>
       <use xlink:href="#DejaVuSans-38" x="159.033203"/>
      </g>
     </g>
    </g>
    <g id="text_10">
     <!-- $x$ -->
     <g transform="translate(311.155 418.316562) scale(0.1 -0.1)">
      <defs>
       <path id="DejaVuSans-Oblique-78" d="M 3841 3500 
L 2234 1784 
L 3219 0 
L 2559 0 
L 1819 1388 
L 531 0 
L -166 0 
L 1556 1844 
L 641 3500 
L 1300 3500 
L 1972 2234 
L 3144 3500 
L 3841 3500 
z
" transform="scale(0.015625)"/>
      </defs>
      <use xlink:href="#DejaVuSans-Oblique-78" transform="translate(0 0.3125)"/>
     </g>
    </g>
   </g>
   <g id="matplotlib.axis_2">
    <g id="ytick_1">
     <g id="line2d_11">
      <defs>
       <path id="m157b7b4736" d="M 0 0 
L -3.5 0 
" style="stroke: #000000; stroke-width: 0.8"/>
      </defs>
      <g>
       <use xlink:href="#m157b7b4736" x="63.11" y="373.921181" style="stroke: #000000; stroke-width: 0.8"/>
      </g>
     </g>
     <g id="text_11">
      <!-- −0.01 -->
      <g transform="translate(25.464688 377.720399) scale(0.1 -0.1)">
       <defs>
        <path id="DejaVuSans-2212" d="M 678 2272 
L 4684 2272 
L 4684 1741 
L 678 1741 
L 678 2272 
z
" transform="scale(0.015625)"/>
       </defs>
       <use xlink:href="#DejaVuSans-2212"/>
       <use xlink:href="#DejaVuSans-30" x="83.789062"/>
       <use xlink:href="#DejaVuSans-2e" x="147.412109"/>
       <use xlink:href="#DejaVuSans-30" x="179.199219"/>
       <use xlink:href="#DejaVuSans-31" x="242.822266"/>
      </g>
     </g>
    </g>
    <g id="ytick_2">
     <g id="line2d_12">
      <g>
       <use xlink:href="#m157b7b4736" x="63.11" y="316.087454" style="stroke: #000000; stroke-width: 0.8"/>
      </g>
     </g>
     <g id="text_12">
      <!-- 0.00 -->
      <g transform="translate(33.844375 319.886673) scale(0.1 -0.1)">
       <use xlink:href="#DejaVuSans-30"/>
       <use xlink:href="#DejaVuSans-2e" x="63.623047"/>
       <use xlink:href="#DejaVuSans-30" x="95.410156"/>
       <use xlink:href="#DejaVuSans-30" x="159.033203"/>
      </g>
     </g>
    </g>
    <g id="ytick_3">
     <g id="line2d_13">
      <g>
       <use xlink:href="#m157b7b4736" x="63.11" y="258.253727" style="stroke: #000000; stroke-width: 0.8"/>
      </g>
     </g>
     <g id="text_13">
      <!-- 0.01 -->
      <g transform="translate(33.844375 262.052946) scale(0.1 -0.1)">
       <use xlink:href="#DejaVuSans-30"/>
       <use xlink:href="#DejaVuSans-2e" x="63.623047"/>
       <use xlink:href="#DejaVuSans-30" x="95.410156"/>
       <use xlink:href="#DejaVuSans-31" x="159.033203"/>
      </g>
     </g>
    </g>
    <g id="ytick_4">
     <g id="line2d_14">
      <g>
       <use xlink:href="#m157b7b4736" x="63.11" y="200.42" style="stroke: #000000; stroke-width: 0.8"/>
      </g>
     </g>
     <g id="text_14">
      <!-- 0.02 -->
      <g transform="translate(33.844375 204.219219) scale(0.1 -0.1)">
       <use xlink:href="#DejaVuSans-30"/>
       <use xlink:href="#DejaVuSans-2e" x="63.623047"/>
       <use xlink:href="#DejaVuSans-30" x="95.410156"/>
       <use xlink:href="#DejaVuSans-32" x="159.033203"/>
      </g>
     </g>
    </g>
    <g id="ytick_5">
     <g id="line2d_15">
      <g>
       <use xlink:href="#m157b7b4736" x="63.11" y="142.586273" style="stroke: #000000; stroke-width: 0.8"/>
      </g>
     </g>
     <g id="text_15">
      <!-- 0.03 -->
      <g transform="translate(33.844375 146.385492) scale(0.1 -0.1)">
       <use xlink:href="#DejaVuSans-30"/>
       <use xlink:href="#DejaVuSans-2e" x="63.623047"/>
       <use xlink:href="#DejaVuSans-30" x="95.410156"/>
       <use xlink:href="#DejaVuSans-33" x="159.033203"/>
      </g>
     </g>
    </g>
    <g id="ytick_6">
     <g id="line2d_16">
      <g>
       <use xlink:href="#m157b7b4736" x="63.11" y="84.752546" style="stroke: #000000; stroke-width: 0.8"/>
      </g>
     </g>
     <g id="text_16">
      <!-- 0.04 -->
      <g transform="translate(33.844375 88.551765) scale(0.1 -0.1)">
       <use xlink:href="#DejaVuSans-30"/>
       <use xlink:href="#DejaVuSans-2e" x="63.623047"/>
       <use xlink:href="#DejaVuSans-30" x="95.410156"/>
       <use xlink:href="#DejaVuSans-34" x="159.033203"/>
      </g>
     </g>
    </g>
    <g id="ytick_7">
     <g id="line2d_17">
      <g>
       <use xlink:href="#m157b7b4736" x="63.11" y="26.918819" style="stroke: #000000; stroke-width: 0.8"/>
      </g>
     </g>
     <g id="text_17">
      <!-- 0.05 -->
      <g transform="translate(33.844375 30.718038) scale(0.1 -0.1)">
       <use xlink:href="#DejaVuSans-30"/>
       <use xlink:href="#DejaVuSans-2e" x="63.623047"/>
       <use xlink:href="#DejaVuSans-30" x="95.410156"/>
       <use xlink:href="#DejaVuSans-35" x="159.033203"/>
      </g>
     </g>
    </g>
    <g id="text_18">
     <!-- $y$ -->
     <g transform="translate(19.364688 203.42) rotate(-90) scale(0.1 -0.1)">
      <defs>
       <path id="DejaVuSans-Oblique-79" d="M 1588 -325 
Q 1188 -997 936 -1164 
Q 684 -1331 294 -1331 
L -159 -1331 
L -63 -850 
L 269 -850 
Q 509 -850 678 -719 
Q 847 -588 1056 -206 
L 1234 128 
L 459 3500 
L 1069 3500 
L 1650 819 
L 3256 3500 
L 3859 3500 
L 1588 -325 
z
" transform="scale(0.015625)"/>
      </defs>
      <use xlink:href="#DejaVuSans-Oblique-79" transform="translate(0 0.3125)"/>
     </g>
    </g>
   </g>
   <g id="line2d_18"/>
   <g id="patch_3">
    <path d="M 63.11 390.04 
L 63.11 10.8 
" style="fill: none; stroke: #000000; stroke-width: 0.8; stroke-linejoin: miter; stroke-linecap: square"/>
   </g>
   <g id="patch_4">
    <path d="M 565.2 390.04 
L 565.2 10.8 
" style="fill: none; stroke: #000000; stroke-width: 0.8; stroke-linejoin: miter; stroke-linecap: square"/>
   </g>
   <g id="patch_5">
    <path d="M 63.11 390.04 
L 565.2 390.04 
" style="fill: none; stroke: #000000; stroke-width: 0.8; stroke-linejoin: miter; stroke-linecap: square"/>
   </g>
   <g id="patch_6">
    <path d="M 63.11 10.8 
L 565.2 10.8 
" style="fill: none; stroke: #000000; stroke-width: 0.8; stroke-linejoin: miter; stroke-linecap: square"/>
   </g>
   <g id="PathCollection_1">
    <defs>
     <path id="m337f91c096" d="M 0 0.5 
C 0.132602 0.5 0.25979 0.447317 0.353553 0.353553 
C 0.447317 0.25979 0.5 0.132602 0.5 0 
C 0.5 -0.132602 0.447317 -0.25979 0.353553 -0.353553 
C 0.25979 -0.447317 0.132602 -0.5 0 -0.5 
C -0.132602 -0.5 -0.25979 -0.447317 -0.353553 -0.353553 
C -0.447317 -0.25979 -0.5 -0.132602 -0.5 0 
C -0.5 0.132602 -0.447317 0.25979 -0.353553 0.353553 
C -0.25979 0.447317 -0.132602 0.5 0 0.5 
z
" style="stroke: #000000"/>
    </defs>
    <g clip-path="url(#p92f6aeff6e)">
     <use xlink:href="#m337f91c096" x="82.820092" y="316.087454" style="stroke: #000000"/>
     <use xlink:href="#m337f91c096" x="545.489908" y="316.087454" style="stroke: #000000"/>
     <use xlink:href="#m337f91c096" x="545.489908" y="84.752546" style="stroke: #000000"/>
     <use xlink:href="#m337f91c096" x="82.820092" y="84.752546" style="stroke: #000000"/>
     <use xlink:href="#m337f91c096" x="140.653819" y="316.087454" style="stroke: #000000"/>
     <use xlink:href="#m337f91c096" x="198.487546" y="316.087454" style="stroke: #000000"/>
     <use xlink:href="#m337f91c096" x="256.321273" y="316.087454" style="stroke: #000000"/>
     <use xlink:href="#m337f91c096" x="314.155" y="316.087454" style="stroke: #000000"/>
     <use xlink:href="#m337f91c096" x="371.988727" y="316.087454" style="stroke: #000000"/>
     <use xlink:href="#m337f91c096" x="429.822454" y="316.087454" style="stroke: #000000"/>
     <use xlink:href="#m337f91c096" x="487.656181" y="316.087454" style="stroke: #000000"/>
     <use xlink:href="#m337f91c096" x="545.489908" y="258.253727" style="stroke: #000000"/>
     <use xlink:href="#m337f91c096" x="545.489908" y="200.42" style="stroke: #000000"/>
     <use xlink:href="#m337f91c096" x="545.489908" y="142.586273" style="stroke: #000000"/>
     <use xlink:href="#m337f91c096" x="487.656181" y="84.752546" style="stroke: #000000"/>
     <use xlink:href="#m337f91c096" x="429.822454" y="84.752546" style="stroke: #000000"/>
     <use xlink:href="#m337f91c096" x="371.988727" y="84.752546" style="stroke: #000000"/>
     <use xlink:href="#m337f91c096" x="314.155" y="84.752546" style="stroke: #000000"/>
     <use xlink:href="#m337f91c096" x="256.321273" y="84.752546" style="stroke: #000000"/>
     <use xlink:href="#m337f91c096" x="198.487546" y="84.752546" style="stroke: #000000"/>
     <use xlink:href="#m337f91c096" x="140.653819" y="84.752546" style="stroke: #000000"/>
     <use xlink:href="#m337f91c096" x="82.820092" y="142.586273" style="stroke: #000000"/>
     <use xlink:href="#m337f91c096" x="82.820092" y="200.42" style="stroke: #000000"/>
     <use xlink:href="#m337f91c096" x="82.820092" y="258.253727" style="stroke: #000000"/>
     <use xlink:href="#m337f91c096" x="226.597075" y="264.826101" style="stroke: #000000"/>
     <use xlink:href="#m337f91c096" x="401.712925" y="264.826101" style="stroke: #000000"/>
     <use xlink:href="#m337f91c096" x="285.238137" y="134.838023" style="stroke: #000000"/>
     <use xlink:href="#m337f91c096" x="400.90559" y="134.838023" style="stroke: #000000"/>
     <use xlink:href="#m337f91c096" x="169.815746" y="133.724529" style="stroke: #000000"/>
     <use xlink:href="#m337f91c096" x="499.760419" y="232.994228" style="stroke: #000000"/>
     <use xlink:href="#m337f91c096" x="128.549581" y="232.994228" style="stroke: #000000"/>
     <use xlink:href="#m337f91c096" x="343.071863" y="134.838023" style="stroke: #000000"/>
     <use xlink:href="#m337f91c096" x="314.155" y="184.9235" style="stroke: #000000"/>
     <use xlink:href="#m337f91c096" x="256.321273" y="182.47302" style="stroke: #000000"/>
     <use xlink:href="#m337f91c096" x="278.742996" y="233.288539" style="stroke: #000000"/>
     <use xlink:href="#m337f91c096" x="348.639127" y="233.392831" style="stroke: #000000"/>
     <use xlink:href="#m337f91c096" x="227.445253" y="134.244027" style="stroke: #000000"/>
     <use xlink:href="#m337f91c096" x="458.494254" y="133.724529" style="stroke: #000000"/>
     <use xlink:href="#m337f91c096" x="430.13682" y="178.615698" style="stroke: #000000"/>
     <use xlink:href="#m337f91c096" x="372.968998" y="181.152362" style="stroke: #000000"/>
     <use xlink:href="#m337f91c096" x="198.179987" y="178.108286" style="stroke: #000000"/>
     <use xlink:href="#m337f91c096" x="493.741254" y="175.696263" style="stroke: #000000"/>
     <use xlink:href="#m337f91c096" x="134.569242" y="175.659279" style="stroke: #000000"/>
     <use xlink:href="#m337f91c096" x="462.264931" y="271.218052" style="stroke: #000000"/>
     <use xlink:href="#m337f91c096" x="166.045069" y="271.218052" style="stroke: #000000"/>
     <use xlink:href="#m337f91c096" x="314.155" y="270.391575" style="stroke: #000000"/>
     <use xlink:href="#m337f91c096" x="400.98856" y="216.309968" style="stroke: #000000"/>
     <use xlink:href="#m337f91c096" x="227.333281" y="216.451759" style="stroke: #000000"/>
     <use xlink:href="#m337f91c096" x="503.152681" y="273.750227" style="stroke: #000000"/>
     <use xlink:href="#m337f91c096" x="125.157319" y="127.089773" style="stroke: #000000"/>
     <use xlink:href="#m337f91c096" x="125.157319" y="273.750227" style="stroke: #000000"/>
     <use xlink:href="#m337f91c096" x="503.152681" y="127.089773" style="stroke: #000000"/>
     <use xlink:href="#m337f91c096" x="177.706814" y="223.470899" style="stroke: #000000"/>
     <use xlink:href="#m337f91c096" x="451.484928" y="223.562847" style="stroke: #000000"/>
     <use xlink:href="#m337f91c096" x="275.566292" y="278.69459" style="stroke: #000000"/>
     <use xlink:href="#m337f91c096" x="352.611154" y="278.709489" style="stroke: #000000"/>
    </g>
   </g>
  </g>
 </g>
 <defs>
  <clipPath id="p92f6aeff6e">
   <rect x="63.11" y="10.8" width="502.09" height="379.24"/>
  </clipPath>
 </defs>
</svg>
