<?xml version="1.0" encoding="utf-8" standalone="no"?>
<!DOCTYPE svg PUBLIC "-//W3C//DTD SVG 1.1//EN"
  "http://www.w3.org/Graphics/SVG/1.1/DTD/svg11.dtd">
<svg xmlns:xlink="http://www.w3.org/1999/xlink" width="576pt" height="432pt" viewBox="0 0 576 432" xmlns="http://www.w3.org/2000/svg" version="1.1">
 <metadata>
  <rdf:RDF xmlns:dc="http://purl.org/dc/elements/1.1/" xmlns:cc="http://creativecommons.org/ns#" xmlns:rdf="http://www.w3.org/1999/02/22-rdf-syntax-ns#">
   <cc:Work>
    <dc:type rdf:resource="http://purl.org/dc/dcmitype/StillImage"/>
    <dc:date>2024-12-04T18:27:16.620213</dc:date>
    <dc:format>image/svg+xml</dc:format>
    <dc:creator>
     <cc:Agent>
      <dc:title>Matplotlib v3.8.3, https://matplotlib.org/</dc:title>
     </cc:Agent>
    </dc:creator>
   </cc:Work>
  </rdf:RDF>
 </metadata>
 <defs>
  <style type="text/css">*{stroke-linejoin: round; stroke-linecap: butt}</style>
 </defs>
 <g id="figure_1">
  <g id="patch_1">
   <path d="M 0 432 
L 576 432 
L 576 0 
L 0 0 
z
" style="fill: #ffffff"/>
  </g>
  <g id="axes_1">
   <g id="patch_2">
    <path d="M 58.877054 390.04 
L 565.2 390.04 
L 565.2 10.8 
L 58.877054 10.8 
z
" style="fill: #ffffff"/>
   </g>
   <g id="matplotlib.axis_1">
    <g id="xtick_1">
     <g id="line2d_1">
      <path d="M 80.670835 390.04 
L 80.670835 10.8 
" clip-path="url(#p728f3fd70b)" style="fill: none; stroke: #b0b0b0; stroke-width: 0.8; stroke-linecap: square"/>
     </g>
     <g id="line2d_2">
      <defs>
       <path id="m83bfdea173" d="M 0 0 
L 0 3.5 
" style="stroke: #000000; stroke-width: 0.8"/>
      </defs>
      <g>
       <use xlink:href="#m83bfdea173" x="80.670835" y="390.04" style="stroke: #000000; stroke-width: 0.8"/>
      </g>
     </g>
     <g id="text_1">
      <!-- 0.0 -->
      <g transform="translate(72.719273 404.638438) scale(0.1 -0.1)">
       <defs>
        <path id="DejaVuSans-30" d="M 2034 4250 
Q 1547 4250 1301 3770 
Q 1056 3291 1056 2328 
Q 1056 1369 1301 889 
Q 1547 409 2034 409 
Q 2525 409 2770 889 
Q 3016 1369 3016 2328 
Q 3016 3291 2770 3770 
Q 2525 4250 2034 4250 
z
M 2034 4750 
Q 2819 4750 3233 4129 
Q 3647 3509 3647 2328 
Q 3647 1150 3233 529 
Q 2819 -91 2034 -91 
Q 1250 -91 836 529 
Q 422 1150 422 2328 
Q 422 3509 836 4129 
Q 1250 4750 2034 4750 
z
" transform="scale(0.015625)"/>
        <path id="DejaVuSans-2e" d="M 684 794 
L 1344 794 
L 1344 0 
L 684 0 
L 684 794 
z
" transform="scale(0.015625)"/>
       </defs>
       <use xlink:href="#DejaVuSans-30"/>
       <use xlink:href="#DejaVuSans-2e" x="63.623047"/>
       <use xlink:href="#DejaVuSans-30" x="95.410156"/>
      </g>
     </g>
    </g>
    <g id="xtick_2">
     <g id="line2d_3">
      <path d="M 175.454011 390.04 
L 175.454011 10.8 
" clip-path="url(#p728f3fd70b)" style="fill: none; stroke: #b0b0b0; stroke-width: 0.8; stroke-linecap: square"/>
     </g>
     <g id="line2d_4">
      <g>
       <use xlink:href="#m83bfdea173" x="175.454011" y="390.04" style="stroke: #000000; stroke-width: 0.8"/>
      </g>
     </g>
     <g id="text_2">
      <!-- 0.1 -->
      <g transform="translate(167.502448 404.638438) scale(0.1 -0.1)">
       <defs>
        <path id="DejaVuSans-31" d="M 794 531 
L 1825 531 
L 1825 4091 
L 703 3866 
L 703 4441 
L 1819 4666 
L 2450 4666 
L 2450 531 
L 3481 531 
L 3481 0 
L 794 0 
L 794 531 
z
" transform="scale(0.015625)"/>
       </defs>
       <use xlink:href="#DejaVuSans-30"/>
       <use xlink:href="#DejaVuSans-2e" x="63.623047"/>
       <use xlink:href="#DejaVuSans-31" x="95.410156"/>
      </g>
     </g>
    </g>
    <g id="xtick_3">
     <g id="line2d_5">
      <path d="M 270.237186 390.04 
L 270.237186 10.8 
" clip-path="url(#p728f3fd70b)" style="fill: none; stroke: #b0b0b0; stroke-width: 0.8; stroke-linecap: square"/>
     </g>
     <g id="line2d_6">
      <g>
       <use xlink:href="#m83bfdea173" x="270.237186" y="390.04" style="stroke: #000000; stroke-width: 0.8"/>
      </g>
     </g>
     <g id="text_3">
      <!-- 0.2 -->
      <g transform="translate(262.285624 404.638438) scale(0.1 -0.1)">
       <defs>
        <path id="DejaVuSans-32" d="M 1228 531 
L 3431 531 
L 3431 0 
L 469 0 
L 469 531 
Q 828 903 1448 1529 
Q 2069 2156 2228 2338 
Q 2531 2678 2651 2914 
Q 2772 3150 2772 3378 
Q 2772 3750 2511 3984 
Q 2250 4219 1831 4219 
Q 1534 4219 1204 4116 
Q 875 4013 500 3803 
L 500 4441 
Q 881 4594 1212 4672 
Q 1544 4750 1819 4750 
Q 2544 4750 2975 4387 
Q 3406 4025 3406 3419 
Q 3406 3131 3298 2873 
Q 3191 2616 2906 2266 
Q 2828 2175 2409 1742 
Q 1991 1309 1228 531 
z
" transform="scale(0.015625)"/>
       </defs>
       <use xlink:href="#DejaVuSans-30"/>
       <use xlink:href="#DejaVuSans-2e" x="63.623047"/>
       <use xlink:href="#DejaVuSans-32" x="95.410156"/>
      </g>
     </g>
    </g>
    <g id="xtick_4">
     <g id="line2d_7">
      <path d="M 365.020362 390.04 
L 365.020362 10.8 
" clip-path="url(#p728f3fd70b)" style="fill: none; stroke: #b0b0b0; stroke-width: 0.8; stroke-linecap: square"/>
     </g>
     <g id="line2d_8">
      <g>
       <use xlink:href="#m83bfdea173" x="365.020362" y="390.04" style="stroke: #000000; stroke-width: 0.8"/>
      </g>
     </g>
     <g id="text_4">
      <!-- 0.3 -->
      <g transform="translate(357.068799 404.638438) scale(0.1 -0.1)">
       <defs>
        <path id="DejaVuSans-33" d="M 2597 2516 
Q 3050 2419 3304 2112 
Q 3559 1806 3559 1356 
Q 3559 666 3084 287 
Q 2609 -91 1734 -91 
Q 1441 -91 1130 -33 
Q 819 25 488 141 
L 488 750 
Q 750 597 1062 519 
Q 1375 441 1716 441 
Q 2309 441 2620 675 
Q 2931 909 2931 1356 
Q 2931 1769 2642 2001 
Q 2353 2234 1838 2234 
L 1294 2234 
L 1294 2753 
L 1863 2753 
Q 2328 2753 2575 2939 
Q 2822 3125 2822 3475 
Q 2822 3834 2567 4026 
Q 2313 4219 1838 4219 
Q 1578 4219 1281 4162 
Q 984 4106 628 3988 
L 628 4550 
Q 988 4650 1302 4700 
Q 1616 4750 1894 4750 
Q 2613 4750 3031 4423 
Q 3450 4097 3450 3541 
Q 3450 3153 3228 2886 
Q 3006 2619 2597 2516 
z
" transform="scale(0.015625)"/>
       </defs>
       <use xlink:href="#DejaVuSans-30"/>
       <use xlink:href="#DejaVuSans-2e" x="63.623047"/>
       <use xlink:href="#DejaVuSans-33" x="95.410156"/>
      </g>
     </g>
    </g>
    <g id="xtick_5">
     <g id="line2d_9">
      <path d="M 459.803537 390.04 
L 459.803537 10.8 
" clip-path="url(#p728f3fd70b)" style="fill: none; stroke: #b0b0b0; stroke-width: 0.8; stroke-linecap: square"/>
     </g>
     <g id="line2d_10">
      <g>
       <use xlink:href="#m83bfdea173" x="459.803537" y="390.04" style="stroke: #000000; stroke-width: 0.8"/>
      </g>
     </g>
     <g id="text_5">
      <!-- 0.4 -->
      <g transform="translate(451.851975 404.638438) scale(0.1 -0.1)">
       <defs>
        <path id="DejaVuSans-34" d="M 2419 4116 
L 825 1625 
L 2419 1625 
L 2419 4116 
z
M 2253 4666 
L 3047 4666 
L 3047 1625 
L 3713 1625 
L 3713 1100 
L 3047 1100 
L 3047 0 
L 2419 0 
L 2419 1100 
L 313 1100 
L 313 1709 
L 2253 4666 
z
" transform="scale(0.015625)"/>
       </defs>
       <use xlink:href="#DejaVuSans-30"/>
       <use xlink:href="#DejaVuSans-2e" x="63.623047"/>
       <use xlink:href="#DejaVuSans-34" x="95.410156"/>
      </g>
     </g>
    </g>
    <g id="xtick_6">
     <g id="line2d_11">
      <path d="M 554.586713 390.04 
L 554.586713 10.8 
" clip-path="url(#p728f3fd70b)" style="fill: none; stroke: #b0b0b0; stroke-width: 0.8; stroke-linecap: square"/>
     </g>
     <g id="line2d_12">
      <g>
       <use xlink:href="#m83bfdea173" x="554.586713" y="390.04" style="stroke: #000000; stroke-width: 0.8"/>
      </g>
     </g>
     <g id="text_6">
      <!-- 0.5 -->
      <g transform="translate(546.63515 404.638438) scale(0.1 -0.1)">
       <defs>
        <path id="DejaVuSans-35" d="M 691 4666 
L 3169 4666 
L 3169 4134 
L 1269 4134 
L 1269 2991 
Q 1406 3038 1543 3061 
Q 1681 3084 1819 3084 
Q 2600 3084 3056 2656 
Q 3513 2228 3513 1497 
Q 3513 744 3044 326 
Q 2575 -91 1722 -91 
Q 1428 -91 1123 -41 
Q 819 9 494 109 
L 494 744 
Q 775 591 1075 516 
Q 1375 441 1709 441 
Q 2250 441 2565 725 
Q 2881 1009 2881 1497 
Q 2881 1984 2565 2268 
Q 2250 2553 1709 2553 
Q 1456 2553 1204 2497 
Q 953 2441 691 2322 
L 691 4666 
z
" transform="scale(0.015625)"/>
       </defs>
       <use xlink:href="#DejaVuSans-30"/>
       <use xlink:href="#DejaVuSans-2e" x="63.623047"/>
       <use xlink:href="#DejaVuSans-35" x="95.410156"/>
      </g>
     </g>
    </g>
    <g id="text_7">
     <!-- Diagonal coordinate (m) -->
     <g transform="translate(251.261183 418.316562) scale(0.1 -0.1)">
      <defs>
       <path id="DejaVuSans-44" d="M 1259 4147 
L 1259 519 
L 2022 519 
Q 2988 519 3436 956 
Q 3884 1394 3884 2338 
Q 3884 3275 3436 3711 
Q 2988 4147 2022 4147 
L 1259 4147 
z
M 628 4666 
L 1925 4666 
Q 3281 4666 3915 4102 
Q 4550 3538 4550 2338 
Q 4550 1131 3912 565 
Q 3275 0 1925 0 
L 628 0 
L 628 4666 
z
" transform="scale(0.015625)"/>
       <path id="DejaVuSans-69" d="M 603 3500 
L 1178 3500 
L 1178 0 
L 603 0 
L 603 3500 
z
M 603 4863 
L 1178 4863 
L 1178 4134 
L 603 4134 
L 603 4863 
z
" transform="scale(0.015625)"/>
       <path id="DejaVuSans-61" d="M 2194 1759 
Q 1497 1759 1228 1600 
Q 959 1441 959 1056 
Q 959 750 1161 570 
Q 1363 391 1709 391 
Q 2188 391 2477 730 
Q 2766 1069 2766 1631 
L 2766 1759 
L 2194 1759 
z
M 3341 1997 
L 3341 0 
L 2766 0 
L 2766 531 
Q 2569 213 2275 61 
Q 1981 -91 1556 -91 
Q 1019 -91 701 211 
Q 384 513 384 1019 
Q 384 1609 779 1909 
Q 1175 2209 1959 2209 
L 2766 2209 
L 2766 2266 
Q 2766 2663 2505 2880 
Q 2244 3097 1772 3097 
Q 1472 3097 1187 3025 
Q 903 2953 641 2809 
L 641 3341 
Q 956 3463 1253 3523 
Q 1550 3584 1831 3584 
Q 2591 3584 2966 3190 
Q 3341 2797 3341 1997 
z
" transform="scale(0.015625)"/>
       <path id="DejaVuSans-67" d="M 2906 1791 
Q 2906 2416 2648 2759 
Q 2391 3103 1925 3103 
Q 1463 3103 1205 2759 
Q 947 2416 947 1791 
Q 947 1169 1205 825 
Q 1463 481 1925 481 
Q 2391 481 2648 825 
Q 2906 1169 2906 1791 
z
M 3481 434 
Q 3481 -459 3084 -895 
Q 2688 -1331 1869 -1331 
Q 1566 -1331 1297 -1286 
Q 1028 -1241 775 -1147 
L 775 -588 
Q 1028 -725 1275 -790 
Q 1522 -856 1778 -856 
Q 2344 -856 2625 -561 
Q 2906 -266 2906 331 
L 2906 616 
Q 2728 306 2450 153 
Q 2172 0 1784 0 
Q 1141 0 747 490 
Q 353 981 353 1791 
Q 353 2603 747 3093 
Q 1141 3584 1784 3584 
Q 2172 3584 2450 3431 
Q 2728 3278 2906 2969 
L 2906 3500 
L 3481 3500 
L 3481 434 
z
" transform="scale(0.015625)"/>
       <path id="DejaVuSans-6f" d="M 1959 3097 
Q 1497 3097 1228 2736 
Q 959 2375 959 1747 
Q 959 1119 1226 758 
Q 1494 397 1959 397 
Q 2419 397 2687 759 
Q 2956 1122 2956 1747 
Q 2956 2369 2687 2733 
Q 2419 3097 1959 3097 
z
M 1959 3584 
Q 2709 3584 3137 3096 
Q 3566 2609 3566 1747 
Q 3566 888 3137 398 
Q 2709 -91 1959 -91 
Q 1206 -91 779 398 
Q 353 888 353 1747 
Q 353 2609 779 3096 
Q 1206 3584 1959 3584 
z
" transform="scale(0.015625)"/>
       <path id="DejaVuSans-6e" d="M 3513 2113 
L 3513 0 
L 2938 0 
L 2938 2094 
Q 2938 2591 2744 2837 
Q 2550 3084 2163 3084 
Q 1697 3084 1428 2787 
Q 1159 2491 1159 1978 
L 1159 0 
L 581 0 
L 581 3500 
L 1159 3500 
L 1159 2956 
Q 1366 3272 1645 3428 
Q 1925 3584 2291 3584 
Q 2894 3584 3203 3211 
Q 3513 2838 3513 2113 
z
" transform="scale(0.015625)"/>
       <path id="DejaVuSans-6c" d="M 603 4863 
L 1178 4863 
L 1178 0 
L 603 0 
L 603 4863 
z
" transform="scale(0.015625)"/>
       <path id="DejaVuSans-20" transform="scale(0.015625)"/>
       <path id="DejaVuSans-63" d="M 3122 3366 
L 3122 2828 
Q 2878 2963 2633 3030 
Q 2388 3097 2138 3097 
Q 1578 3097 1268 2742 
Q 959 2388 959 1747 
Q 959 1106 1268 751 
Q 1578 397 2138 397 
Q 2388 397 2633 464 
Q 2878 531 3122 666 
L 3122 134 
Q 2881 22 2623 -34 
Q 2366 -91 2075 -91 
Q 1284 -91 818 406 
Q 353 903 353 1747 
Q 353 2603 823 3093 
Q 1294 3584 2113 3584 
Q 2378 3584 2631 3529 
Q 2884 3475 3122 3366 
z
" transform="scale(0.015625)"/>
       <path id="DejaVuSans-72" d="M 2631 2963 
Q 2534 3019 2420 3045 
Q 2306 3072 2169 3072 
Q 1681 3072 1420 2755 
Q 1159 2438 1159 1844 
L 1159 0 
L 581 0 
L 581 3500 
L 1159 3500 
L 1159 2956 
Q 1341 3275 1631 3429 
Q 1922 3584 2338 3584 
Q 2397 3584 2469 3576 
Q 2541 3569 2628 3553 
L 2631 2963 
z
" transform="scale(0.015625)"/>
       <path id="DejaVuSans-64" d="M 2906 2969 
L 2906 4863 
L 3481 4863 
L 3481 0 
L 2906 0 
L 2906 525 
Q 2725 213 2448 61 
Q 2172 -91 1784 -91 
Q 1150 -91 751 415 
Q 353 922 353 1747 
Q 353 2572 751 3078 
Q 1150 3584 1784 3584 
Q 2172 3584 2448 3432 
Q 2725 3281 2906 2969 
z
M 947 1747 
Q 947 1113 1208 752 
Q 1469 391 1925 391 
Q 2381 391 2643 752 
Q 2906 1113 2906 1747 
Q 2906 2381 2643 2742 
Q 2381 3103 1925 3103 
Q 1469 3103 1208 2742 
Q 947 2381 947 1747 
z
" transform="scale(0.015625)"/>
       <path id="DejaVuSans-74" d="M 1172 4494 
L 1172 3500 
L 2356 3500 
L 2356 3053 
L 1172 3053 
L 1172 1153 
Q 1172 725 1289 603 
Q 1406 481 1766 481 
L 2356 481 
L 2356 0 
L 1766 0 
Q 1100 0 847 248 
Q 594 497 594 1153 
L 594 3053 
L 172 3053 
L 172 3500 
L 594 3500 
L 594 4494 
L 1172 4494 
z
" transform="scale(0.015625)"/>
       <path id="DejaVuSans-65" d="M 3597 1894 
L 3597 1613 
L 953 1613 
Q 991 1019 1311 708 
Q 1631 397 2203 397 
Q 2534 397 2845 478 
Q 3156 559 3463 722 
L 3463 178 
Q 3153 47 2828 -22 
Q 2503 -91 2169 -91 
Q 1331 -91 842 396 
Q 353 884 353 1716 
Q 353 2575 817 3079 
Q 1281 3584 2069 3584 
Q 2775 3584 3186 3129 
Q 3597 2675 3597 1894 
z
M 3022 2063 
Q 3016 2534 2758 2815 
Q 2500 3097 2075 3097 
Q 1594 3097 1305 2825 
Q 1016 2553 972 2059 
L 3022 2063 
z
" transform="scale(0.015625)"/>
       <path id="DejaVuSans-28" d="M 1984 4856 
Q 1566 4138 1362 3434 
Q 1159 2731 1159 2009 
Q 1159 1288 1364 580 
Q 1569 -128 1984 -844 
L 1484 -844 
Q 1016 -109 783 600 
Q 550 1309 550 2009 
Q 550 2706 781 3412 
Q 1013 4119 1484 4856 
L 1984 4856 
z
" transform="scale(0.015625)"/>
       <path id="DejaVuSans-6d" d="M 3328 2828 
Q 3544 3216 3844 3400 
Q 4144 3584 4550 3584 
Q 5097 3584 5394 3201 
Q 5691 2819 5691 2113 
L 5691 0 
L 5113 0 
L 5113 2094 
Q 5113 2597 4934 2840 
Q 4756 3084 4391 3084 
Q 3944 3084 3684 2787 
Q 3425 2491 3425 1978 
L 3425 0 
L 2847 0 
L 2847 2094 
Q 2847 2600 2669 2842 
Q 2491 3084 2119 3084 
Q 1678 3084 1418 2786 
Q 1159 2488 1159 1978 
L 1159 0 
L 581 0 
L 581 3500 
L 1159 3500 
L 1159 2956 
Q 1356 3278 1631 3431 
Q 1906 3584 2284 3584 
Q 2666 3584 2933 3390 
Q 3200 3197 3328 2828 
z
" transform="scale(0.015625)"/>
       <path id="DejaVuSans-29" d="M 513 4856 
L 1013 4856 
Q 1481 4119 1714 3412 
Q 1947 2706 1947 2009 
Q 1947 1309 1714 600 
Q 1481 -109 1013 -844 
L 513 -844 
Q 928 -128 1133 580 
Q 1338 1288 1338 2009 
Q 1338 2731 1133 3434 
Q 928 4138 513 4856 
z
" transform="scale(0.015625)"/>
      </defs>
      <use xlink:href="#DejaVuSans-44"/>
      <use xlink:href="#DejaVuSans-69" x="77.001953"/>
      <use xlink:href="#DejaVuSans-61" x="104.785156"/>
      <use xlink:href="#DejaVuSans-67" x="166.064453"/>
      <use xlink:href="#DejaVuSans-6f" x="229.541016"/>
      <use xlink:href="#DejaVuSans-6e" x="290.722656"/>
      <use xlink:href="#DejaVuSans-61" x="354.101562"/>
      <use xlink:href="#DejaVuSans-6c" x="415.380859"/>
      <use xlink:href="#DejaVuSans-20" x="443.164062"/>
      <use xlink:href="#DejaVuSans-63" x="474.951172"/>
      <use xlink:href="#DejaVuSans-6f" x="529.931641"/>
      <use xlink:href="#DejaVuSans-6f" x="591.113281"/>
      <use xlink:href="#DejaVuSans-72" x="652.294922"/>
      <use xlink:href="#DejaVuSans-64" x="691.658203"/>
      <use xlink:href="#DejaVuSans-69" x="755.134766"/>
      <use xlink:href="#DejaVuSans-6e" x="782.917969"/>
      <use xlink:href="#DejaVuSans-61" x="846.296875"/>
      <use xlink:href="#DejaVuSans-74" x="907.576172"/>
      <use xlink:href="#DejaVuSans-65" x="946.785156"/>
      <use xlink:href="#DejaVuSans-20" x="1008.308594"/>
      <use xlink:href="#DejaVuSans-28" x="1040.095703"/>
      <use xlink:href="#DejaVuSans-6d" x="1079.109375"/>
      <use xlink:href="#DejaVuSans-29" x="1176.521484"/>
     </g>
    </g>
   </g>
   <g id="matplotlib.axis_2">
    <g id="ytick_1">
     <g id="line2d_13">
      <path d="M 58.877054 378.458374 
L 565.2 378.458374 
" clip-path="url(#p728f3fd70b)" style="fill: none; stroke: #b0b0b0; stroke-width: 0.8; stroke-linecap: square"/>
     </g>
     <g id="line2d_14">
      <defs>
       <path id="mfbb4829216" d="M 0 0 
L -3.5 0 
" style="stroke: #000000; stroke-width: 0.8"/>
      </defs>
      <g>
       <use xlink:href="#mfbb4829216" x="58.877054" y="378.458374" style="stroke: #000000; stroke-width: 0.8"/>
      </g>
     </g>
     <g id="text_8">
      <!-- $\mathdefault{10^{-4}}$ -->
      <g transform="translate(28.377054 382.257593) scale(0.1 -0.1)">
       <defs>
        <path id="DejaVuSans-2212" d="M 678 2272 
L 4684 2272 
L 4684 1741 
L 678 1741 
L 678 2272 
z
" transform="scale(0.015625)"/>
       </defs>
       <use xlink:href="#DejaVuSans-31" transform="translate(0 0.684375)"/>
       <use xlink:href="#DejaVuSans-30" transform="translate(63.623047 0.684375)"/>
       <use xlink:href="#DejaVuSans-2212" transform="translate(128.203125 38.965625) scale(0.7)"/>
       <use xlink:href="#DejaVuSans-34" transform="translate(186.855469 38.965625) scale(0.7)"/>
      </g>
     </g>
    </g>
    <g id="ytick_2">
     <g id="line2d_15">
      <path d="M 58.877054 291.184065 
L 565.2 291.184065 
" clip-path="url(#p728f3fd70b)" style="fill: none; stroke: #b0b0b0; stroke-width: 0.8; stroke-linecap: square"/>
     </g>
     <g id="line2d_16">
      <g>
       <use xlink:href="#mfbb4829216" x="58.877054" y="291.184065" style="stroke: #000000; stroke-width: 0.8"/>
      </g>
     </g>
     <g id="text_9">
      <!-- $\mathdefault{10^{-3}}$ -->
      <g transform="translate(28.377054 294.983284) scale(0.1 -0.1)">
       <use xlink:href="#DejaVuSans-31" transform="translate(0 0.765625)"/>
       <use xlink:href="#DejaVuSans-30" transform="translate(63.623047 0.765625)"/>
       <use xlink:href="#DejaVuSans-2212" transform="translate(128.203125 39.046875) scale(0.7)"/>
       <use xlink:href="#DejaVuSans-33" transform="translate(186.855469 39.046875) scale(0.7)"/>
      </g>
     </g>
    </g>
    <g id="ytick_3">
     <g id="line2d_17">
      <path d="M 58.877054 203.909757 
L 565.2 203.909757 
" clip-path="url(#p728f3fd70b)" style="fill: none; stroke: #b0b0b0; stroke-width: 0.8; stroke-linecap: square"/>
     </g>
     <g id="line2d_18">
      <g>
       <use xlink:href="#mfbb4829216" x="58.877054" y="203.909757" style="stroke: #000000; stroke-width: 0.8"/>
      </g>
     </g>
     <g id="text_10">
      <!-- $\mathdefault{10^{-2}}$ -->
      <g transform="translate(28.377054 207.708976) scale(0.1 -0.1)">
       <use xlink:href="#DejaVuSans-31" transform="translate(0 0.765625)"/>
       <use xlink:href="#DejaVuSans-30" transform="translate(63.623047 0.765625)"/>
       <use xlink:href="#DejaVuSans-2212" transform="translate(128.203125 39.046875) scale(0.7)"/>
       <use xlink:href="#DejaVuSans-32" transform="translate(186.855469 39.046875) scale(0.7)"/>
      </g>
     </g>
    </g>
    <g id="ytick_4">
     <g id="line2d_19">
      <path d="M 58.877054 116.635448 
L 565.2 116.635448 
" clip-path="url(#p728f3fd70b)" style="fill: none; stroke: #b0b0b0; stroke-width: 0.8; stroke-linecap: square"/>
     </g>
     <g id="line2d_20">
      <g>
       <use xlink:href="#mfbb4829216" x="58.877054" y="116.635448" style="stroke: #000000; stroke-width: 0.8"/>
      </g>
     </g>
     <g id="text_11">
      <!-- $\mathdefault{10^{-1}}$ -->
      <g transform="translate(28.377054 120.434667) scale(0.1 -0.1)">
       <use xlink:href="#DejaVuSans-31" transform="translate(0 0.684375)"/>
       <use xlink:href="#DejaVuSans-30" transform="translate(63.623047 0.684375)"/>
       <use xlink:href="#DejaVuSans-2212" transform="translate(128.203125 38.965625) scale(0.7)"/>
       <use xlink:href="#DejaVuSans-31" transform="translate(186.855469 38.965625) scale(0.7)"/>
      </g>
     </g>
    </g>
    <g id="ytick_5">
     <g id="line2d_21">
      <path d="M 58.877054 29.361139 
L 565.2 29.361139 
" clip-path="url(#p728f3fd70b)" style="fill: none; stroke: #b0b0b0; stroke-width: 0.8; stroke-linecap: square"/>
     </g>
     <g id="line2d_22">
      <g>
       <use xlink:href="#mfbb4829216" x="58.877054" y="29.361139" style="stroke: #000000; stroke-width: 0.8"/>
      </g>
     </g>
     <g id="text_12">
      <!-- $\mathdefault{10^{0}}$ -->
      <g transform="translate(34.277054 33.160358) scale(0.1 -0.1)">
       <use xlink:href="#DejaVuSans-31" transform="translate(0 0.765625)"/>
       <use xlink:href="#DejaVuSans-30" transform="translate(63.623047 0.765625)"/>
       <use xlink:href="#DejaVuSans-30" transform="translate(128.203125 39.046875) scale(0.7)"/>
      </g>
     </g>
    </g>
    <g id="ytick_6">
     <g id="line2d_23">
      <defs>
       <path id="m252c7c8733" d="M 0 0 
L -2 0 
" style="stroke: #000000; stroke-width: 0.6"/>
      </defs>
      <g>
       <use xlink:href="#m252c7c8733" x="58.877054" y="386.916128" style="stroke: #000000; stroke-width: 0.6"/>
      </g>
     </g>
    </g>
    <g id="ytick_7">
     <g id="line2d_24">
      <g>
       <use xlink:href="#m252c7c8733" x="58.877054" y="382.451827" style="stroke: #000000; stroke-width: 0.6"/>
      </g>
     </g>
    </g>
    <g id="ytick_8">
     <g id="line2d_25">
      <g>
       <use xlink:href="#m252c7c8733" x="58.877054" y="352.186189" style="stroke: #000000; stroke-width: 0.6"/>
      </g>
     </g>
    </g>
    <g id="ytick_9">
     <g id="line2d_26">
      <g>
       <use xlink:href="#m252c7c8733" x="58.877054" y="336.817946" style="stroke: #000000; stroke-width: 0.6"/>
      </g>
     </g>
    </g>
    <g id="ytick_10">
     <g id="line2d_27">
      <g>
       <use xlink:href="#m252c7c8733" x="58.877054" y="325.914005" style="stroke: #000000; stroke-width: 0.6"/>
      </g>
     </g>
    </g>
    <g id="ytick_11">
     <g id="line2d_28">
      <g>
       <use xlink:href="#m252c7c8733" x="58.877054" y="317.45625" style="stroke: #000000; stroke-width: 0.6"/>
      </g>
     </g>
    </g>
    <g id="ytick_12">
     <g id="line2d_29">
      <g>
       <use xlink:href="#m252c7c8733" x="58.877054" y="310.545762" style="stroke: #000000; stroke-width: 0.6"/>
      </g>
     </g>
    </g>
    <g id="ytick_13">
     <g id="line2d_30">
      <g>
       <use xlink:href="#m252c7c8733" x="58.877054" y="304.703027" style="stroke: #000000; stroke-width: 0.6"/>
      </g>
     </g>
    </g>
    <g id="ytick_14">
     <g id="line2d_31">
      <g>
       <use xlink:href="#m252c7c8733" x="58.877054" y="299.64182" style="stroke: #000000; stroke-width: 0.6"/>
      </g>
     </g>
    </g>
    <g id="ytick_15">
     <g id="line2d_32">
      <g>
       <use xlink:href="#m252c7c8733" x="58.877054" y="295.177519" style="stroke: #000000; stroke-width: 0.6"/>
      </g>
     </g>
    </g>
    <g id="ytick_16">
     <g id="line2d_33">
      <g>
       <use xlink:href="#m252c7c8733" x="58.877054" y="264.911881" style="stroke: #000000; stroke-width: 0.6"/>
      </g>
     </g>
    </g>
    <g id="ytick_17">
     <g id="line2d_34">
      <g>
       <use xlink:href="#m252c7c8733" x="58.877054" y="249.543638" style="stroke: #000000; stroke-width: 0.6"/>
      </g>
     </g>
    </g>
    <g id="ytick_18">
     <g id="line2d_35">
      <g>
       <use xlink:href="#m252c7c8733" x="58.877054" y="238.639696" style="stroke: #000000; stroke-width: 0.6"/>
      </g>
     </g>
    </g>
    <g id="ytick_19">
     <g id="line2d_36">
      <g>
       <use xlink:href="#m252c7c8733" x="58.877054" y="230.181942" style="stroke: #000000; stroke-width: 0.6"/>
      </g>
     </g>
    </g>
    <g id="ytick_20">
     <g id="line2d_37">
      <g>
       <use xlink:href="#m252c7c8733" x="58.877054" y="223.271453" style="stroke: #000000; stroke-width: 0.6"/>
      </g>
     </g>
    </g>
    <g id="ytick_21">
     <g id="line2d_38">
      <g>
       <use xlink:href="#m252c7c8733" x="58.877054" y="217.428718" style="stroke: #000000; stroke-width: 0.6"/>
      </g>
     </g>
    </g>
    <g id="ytick_22">
     <g id="line2d_39">
      <g>
       <use xlink:href="#m252c7c8733" x="58.877054" y="212.367511" style="stroke: #000000; stroke-width: 0.6"/>
      </g>
     </g>
    </g>
    <g id="ytick_23">
     <g id="line2d_40">
      <g>
       <use xlink:href="#m252c7c8733" x="58.877054" y="207.90321" style="stroke: #000000; stroke-width: 0.6"/>
      </g>
     </g>
    </g>
    <g id="ytick_24">
     <g id="line2d_41">
      <g>
       <use xlink:href="#m252c7c8733" x="58.877054" y="177.637572" style="stroke: #000000; stroke-width: 0.6"/>
      </g>
     </g>
    </g>
    <g id="ytick_25">
     <g id="line2d_42">
      <g>
       <use xlink:href="#m252c7c8733" x="58.877054" y="162.269329" style="stroke: #000000; stroke-width: 0.6"/>
      </g>
     </g>
    </g>
    <g id="ytick_26">
     <g id="line2d_43">
      <g>
       <use xlink:href="#m252c7c8733" x="58.877054" y="151.365387" style="stroke: #000000; stroke-width: 0.6"/>
      </g>
     </g>
    </g>
    <g id="ytick_27">
     <g id="line2d_44">
      <g>
       <use xlink:href="#m252c7c8733" x="58.877054" y="142.907633" style="stroke: #000000; stroke-width: 0.6"/>
      </g>
     </g>
    </g>
    <g id="ytick_28">
     <g id="line2d_45">
      <g>
       <use xlink:href="#m252c7c8733" x="58.877054" y="135.997144" style="stroke: #000000; stroke-width: 0.6"/>
      </g>
     </g>
    </g>
    <g id="ytick_29">
     <g id="line2d_46">
      <g>
       <use xlink:href="#m252c7c8733" x="58.877054" y="130.15441" style="stroke: #000000; stroke-width: 0.6"/>
      </g>
     </g>
    </g>
    <g id="ytick_30">
     <g id="line2d_47">
      <g>
       <use xlink:href="#m252c7c8733" x="58.877054" y="125.093203" style="stroke: #000000; stroke-width: 0.6"/>
      </g>
     </g>
    </g>
    <g id="ytick_31">
     <g id="line2d_48">
      <g>
       <use xlink:href="#m252c7c8733" x="58.877054" y="120.628901" style="stroke: #000000; stroke-width: 0.6"/>
      </g>
     </g>
    </g>
    <g id="ytick_32">
     <g id="line2d_49">
      <g>
       <use xlink:href="#m252c7c8733" x="58.877054" y="90.363263" style="stroke: #000000; stroke-width: 0.6"/>
      </g>
     </g>
    </g>
    <g id="ytick_33">
     <g id="line2d_50">
      <g>
       <use xlink:href="#m252c7c8733" x="58.877054" y="74.99502" style="stroke: #000000; stroke-width: 0.6"/>
      </g>
     </g>
    </g>
    <g id="ytick_34">
     <g id="line2d_51">
      <g>
       <use xlink:href="#m252c7c8733" x="58.877054" y="64.091079" style="stroke: #000000; stroke-width: 0.6"/>
      </g>
     </g>
    </g>
    <g id="ytick_35">
     <g id="line2d_52">
      <g>
       <use xlink:href="#m252c7c8733" x="58.877054" y="55.633324" style="stroke: #000000; stroke-width: 0.6"/>
      </g>
     </g>
    </g>
    <g id="ytick_36">
     <g id="line2d_53">
      <g>
       <use xlink:href="#m252c7c8733" x="58.877054" y="48.722836" style="stroke: #000000; stroke-width: 0.6"/>
      </g>
     </g>
    </g>
    <g id="ytick_37">
     <g id="line2d_54">
      <g>
       <use xlink:href="#m252c7c8733" x="58.877054" y="42.880101" style="stroke: #000000; stroke-width: 0.6"/>
      </g>
     </g>
    </g>
    <g id="ytick_38">
     <g id="line2d_55">
      <g>
       <use xlink:href="#m252c7c8733" x="58.877054" y="37.818894" style="stroke: #000000; stroke-width: 0.6"/>
      </g>
     </g>
    </g>
    <g id="ytick_39">
     <g id="line2d_56">
      <g>
       <use xlink:href="#m252c7c8733" x="58.877054" y="33.354593" style="stroke: #000000; stroke-width: 0.6"/>
      </g>
     </g>
    </g>
    <g id="text_13">
     <!-- |$\mathbf{B}$| (T) -->
     <g transform="translate(21.977054 216.17) rotate(-90) scale(0.1 -0.1)">
      <defs>
       <path id="DejaVuSans-7c" d="M 1344 4891 
L 1344 -1509 
L 813 -1509 
L 813 4891 
L 1344 4891 
z
" transform="scale(0.015625)"/>
       <path id="DejaVuSans-Bold-42" d="M 2456 2859 
Q 2741 2859 2887 2984 
Q 3034 3109 3034 3353 
Q 3034 3594 2887 3720 
Q 2741 3847 2456 3847 
L 1791 3847 
L 1791 2859 
L 2456 2859 
z
M 2497 819 
Q 2859 819 3042 972 
Q 3225 1125 3225 1434 
Q 3225 1738 3044 1889 
Q 2863 2041 2497 2041 
L 1791 2041 
L 1791 819 
L 2497 819 
z
M 3616 2497 
Q 4003 2384 4215 2081 
Q 4428 1778 4428 1338 
Q 4428 663 3972 331 
Q 3516 0 2584 0 
L 588 0 
L 588 4666 
L 2394 4666 
Q 3366 4666 3802 4372 
Q 4238 4078 4238 3431 
Q 4238 3091 4078 2852 
Q 3919 2613 3616 2497 
z
" transform="scale(0.015625)"/>
       <path id="DejaVuSans-54" d="M -19 4666 
L 3928 4666 
L 3928 4134 
L 2272 4134 
L 2272 0 
L 1638 0 
L 1638 4134 
L -19 4134 
L -19 4666 
z
" transform="scale(0.015625)"/>
      </defs>
      <use xlink:href="#DejaVuSans-7c" transform="translate(0 0.578125)"/>
      <use xlink:href="#DejaVuSans-Bold-42" transform="translate(33.691406 0.578125)"/>
      <use xlink:href="#DejaVuSans-7c" transform="translate(109.912109 0.578125)"/>
      <use xlink:href="#DejaVuSans-20" transform="translate(143.603516 0.578125)"/>
      <use xlink:href="#DejaVuSans-28" transform="translate(175.390625 0.578125)"/>
      <use xlink:href="#DejaVuSans-54" transform="translate(214.404297 0.578125)"/>
      <use xlink:href="#DejaVuSans-29" transform="translate(275.488281 0.578125)"/>
     </g>
    </g>
   </g>
   <g id="line2d_57">
    <path d="M 81.891733 372.784647 
L 84.041024 372.783347 
L 120.589693 372.773346 
L 121.365835 56.867121 
L 121.84584 372.77271 
L 122.921433 372.777933 
L 124.538734 55.211959 
L 124.855436 372.775465 
L 124.928881 372.773183 
L 125.603517 372.778024 
L 125.846231 56.178024 
L 126.334366 52.550405 
L 126.373576 372.776938 
L 128.533673 372.780648 
L 128.979221 54.773838 
L 129.486635 372.777683 
L 129.586154 372.774328 
L 129.700964 51.290894 
L 130.011349 55.516746 
L 130.708222 372.779213 
L 131.023128 372.791685 
L 131.038322 52.51952 
L 131.113654 372.785207 
L 131.261929 372.782014 
L 131.375568 48.833298 
L 132.588531 55.858901 
L 132.717914 54.697284 
L 133.509272 372.780179 
L 133.932511 372.782347 
L 134.071109 51.849122 
L 134.158725 372.778212 
L 134.571475 47.696969 
L 134.718573 53.221859 
L 134.818096 372.781561 
L 135.397826 372.779953 
L 135.892203 45.34906 
L 136.271202 50.251417 
L 136.478938 372.784764 
L 136.52954 372.794725 
L 136.54472 48.516493 
L 136.635953 372.78687 
L 136.641347 372.787821 
L 136.866276 54.880111 
L 137.358559 52.697296 
L 137.84432 372.782552 
L 138.446684 372.780457 
L 138.463285 53.383421 
L 138.481506 97.904376 
L 138.688566 372.78381 
L 139.084777 44.433081 
L 139.291367 372.795724 
L 139.375933 372.791582 
L 139.405013 372.787272 
L 139.516315 49.94534 
L 139.584353 372.782548 
L 139.793917 47.297127 
L 139.956208 51.010226 
L 140.400157 42.400251 
L 141.013246 45.537651 
L 141.325838 372.785049 
L 141.592061 48.255762 
L 141.693019 52.306588 
L 141.827066 372.78636 
L 142.440163 372.788763 
L 142.659956 50.872182 
L 142.665237 372.783008 
L 143.33888 99.016278 
L 143.410928 99.937399 
L 143.562476 372.785394 
L 143.574785 41.676784 
L 144.338727 44.692243 
L 144.568798 372.787736 
L 144.702197 39.791506 
L 144.866596 372.797128 
L 144.871076 47.522958 
L 144.92054 372.793502 
L 145.140224 372.791154 
L 145.584886 42.865535 
L 145.856161 49.774892 
L 146.398413 45.726606 
L 146.538872 372.786091 
L 146.655411 100.130756 
L 146.827846 100.968165 
L 147.043966 372.788176 
L 147.04649 48.279522 
L 147.223585 101.838132 
L 147.652619 372.797613 
L 147.6604 372.795533 
L 147.821735 39.193112 
L 147.85482 372.791868 
L 148.065074 372.790374 
L 148.205756 100.29039 
L 148.457824 101.091128 
L 148.491216 101.798269 
L 148.761172 37.431228 
L 148.836821 42.098213 
L 149.091235 372.791573 
L 149.683352 45.102343 
L 149.946258 40.318246 
L 150.063886 372.793945 
L 150.083049 372.793235 
L 150.411451 372.798 
L 150.519505 102.921733 
L 150.584195 372.790856 
L 150.71806 47.386925 
L 150.8756 43.302283 
L 151.48995 103.535477 
L 151.491708 101.46517 
L 151.831209 36.968417 
L 151.948403 102.207291 
L 152.063534 372.792933 
L 152.143643 102.845527 
L 152.451179 372.793762 
L 152.605896 35.356428 
L 152.64953 372.795373 
L 152.813683 101.677231 
L 152.867181 372.796236 
L 153.180338 372.799347 
L 153.204044 39.65929 
L 153.431943 102.423234 
L 153.72468 103.573748 
L 153.740309 372.791835 
L 154.00813 42.890826 
L 154.149558 38.074319 
L 154.193486 372.793839 
L 155.01314 372.795882 
L 155.017359 40.421718 
L 155.109881 45.313834 
L 155.169197 41.666531 
L 155.431566 372.797673 
L 155.563784 372.798378 
L 155.598053 34.984057 
L 155.710448 372.799608 
L 156.189223 33.481708 
L 156.820181 103.587609 
L 157.066044 372.794536 
L 157.21287 37.547973 
L 157.270862 103.223728 
L 157.28054 372.79631 
L 157.857551 372.798388 
L 157.886679 36.070774 
L 157.96267 372.799702 
L 158.060102 41.691579 
L 158.082762 372.800325 
L 158.164582 39.791534 
L 158.292653 104.892208 
L 158.505903 105.795134 
L 159.136956 33.237816 
L 159.28462 43.422353 
L 159.317737 104.618799 
L 159.414579 38.494977 
L 159.560601 31.864903 
L 159.562121 40.584983 
L 159.986201 372.795559 
L 160.085477 42.335973 
L 160.144924 372.799 
L 160.316795 372.799967 
L 160.56208 104.572451 
L 160.710831 105.802742 
L 160.841926 35.653939 
L 161.501034 34.322955 
L 161.54081 105.131833 
L 161.587541 104.947486 
L 162.113303 37.906166 
L 162.463339 372.80176 
L 162.763566 31.831713 
L 162.765764 105.526118 
L 162.792711 372.801655 
L 162.866842 36.531402 
L 162.879303 105.798731 
L 162.974671 30.537716 
L 163.206144 41.847756 
L 163.772103 106.016057 
L 164.123115 38.589895 
L 164.486758 107.268676 
L 164.572957 34.200978 
L 164.696894 39.930703 
L 165.160311 107.699953 
L 165.247738 372.801818 
L 165.464493 29.130788 
L 165.776274 30.460475 
L 165.897985 106.930717 
L 166.106799 36.361246 
L 166.198764 106.943409 
L 166.464604 38.147315 
L 167.153806 35.352425 
L 167.207578 107.532552 
L 167.445519 107.430643 
L 167.551777 40.033829 
L 167.69475 37.260697 
L 167.958258 28.038182 
L 168.146111 29.151183 
L 168.27462 38.965025 
L 168.321719 107.608892 
L 168.4978 33.337772 
L 168.787462 31.531155 
L 169.043942 108.41644 
L 169.463301 108.858777 
L 169.474651 108.019212 
L 169.481166 108.059228 
L 169.590904 108.267921 
L 169.825526 32.708529 
L 170.070618 108.174697 
L 170.468429 35.366588 
L 170.669191 37.646841 
L 170.718194 108.877182 
L 170.745916 38.722095 
L 170.902848 30.258951 
L 170.973534 34.466316 
L 171.232418 31.320057 
L 171.877462 109.295769 
L 172.573923 110.462588 
L 172.658139 109.849987 
L 173.133695 111.153618 
L 173.200229 33.464211 
L 173.436821 37.355311 
L 173.485674 36.333935 
L 173.567501 109.712162 
L 173.794655 32.14436 
L 173.848789 34.444669 
L 174.724401 33.132653 
L 174.951885 111.150811 
L 175.13645 109.705984 
L 175.361284 109.633269 
L 176.0889 109.745853 
L 176.173712 112.84925 
L 176.542636 109.900789 
L 176.553563 113.653936 
L 176.687216 35.203976 
L 176.829206 36.189566 
L 177.389622 33.564649 
L 178.234956 112.726521 
L 178.275177 110.37179 
L 178.897011 113.761958 
L 179.263736 111.621819 
L 179.53677 115.491521 
L 179.636768 34.322888 
L 179.673636 35.1079 
L 179.763561 116.468324 
L 180.616134 111.541903 
L 181.47348 111.108688 
L 181.674847 110.869904 
L 182.014568 111.044115 
L 182.253119 115.482143 
L 182.513027 116.410101 
L 182.720795 119.592456 
L 182.787596 114.243394 
L 184.420081 113.969509 
L 185.640127 116.164991 
L 185.782738 119.452383 
L 185.853825 118.362422 
L 187.361601 113.270805 
L 187.994112 112.888673 
L 188.465105 112.080725 
L 188.611024 121.344565 
L 189.212411 119.165253 
L 189.258562 112.428572 
L 189.258621 117.866264 
L 191.754128 115.964607 
L 192.799058 121.33146 
L 193.343249 115.332831 
L 193.812219 112.701351 
L 194.528704 119.238099 
L 195.050028 114.224516 
L 195.318591 113.092348 
L 195.77339 113.851083 
L 196.734494 118.454224 
L 196.918819 121.57166 
L 200.60152 116.683773 
L 201.647567 113.4988 
L 201.675787 115.967322 
L 202.595444 114.838812 
L 202.728732 113.774327 
L 204.638654 119.906511 
L 206.916558 118.775021 
L 209.448309 116.97557 
L 209.644603 116.254851 
L 211.730634 114.422699 
L 212.094376 115.600423 
L 213.395378 115.299484 
L 215.273027 119.760338 
L 216.730511 118.701076 
L 216.758111 116.774447 
L 223.630133 115.630547 
L 224.213711 116.231669 
L 225.909232 118.274351 
L 226.077926 119.461089 
L 233.948717 115.831329 
L 235.131677 116.3001 
L 236.629091 117.802787 
L 236.81172 118.846681 
L 245.30239 116.349025 
L 248.792463 117.480803 
L 249.706299 118.325973 
L 259.081915 116.637659 
L 259.147327 117.246722 
L 261.454441 117.864386 
L 264.139089 119.659291 
L 269.539832 117.391614 
L 276.565687 118.849591 
L 277.41316 116.977308 
L 278.336499 119.742162 
L 286.100858 118.113599 
L 290.8196 118.905844 
L 296.575447 117.674672 
L 300.882589 118.188196 
L 307.535717 117.454916 
L 313.266098 117.812907 
L 321.397632 118.861762 
L 334.133387 118.324158 
L 337.957779 118.850909 
L 348.486205 117.993131 
L 351.847451 118.371623 
L 365.674936 117.851187 
L 368.798538 118.121989 
L 374.19371 118.84901 
L 386.663162 117.978655 
L 391.422023 118.511792 
L 393.455949 118.856738 
L 410.332743 118.300456 
L 411.968001 118.560243 
L 428.376906 118.128849 
L 434.176558 118.370807 
L 450.287716 118.18206 
L 455.990668 118.630102 
L 482.090552 118.389696 
L 494.262181 118.592801 
L 496.865465 118.292643 
L 500.836478 118.372279 
L 542.185321 118.390911 
L 542.185321 118.390911 
" clip-path="url(#p728f3fd70b)" style="fill: none; stroke: #1f77b4; stroke-width: 1.5; stroke-linecap: square"/>
   </g>
   <g id="patch_3">
    <path d="M 58.877054 390.04 
L 58.877054 10.8 
" style="fill: none; stroke: #000000; stroke-width: 0.8; stroke-linejoin: miter; stroke-linecap: square"/>
   </g>
   <g id="patch_4">
    <path d="M 565.2 390.04 
L 565.2 10.8 
" style="fill: none; stroke: #000000; stroke-width: 0.8; stroke-linejoin: miter; stroke-linecap: square"/>
   </g>
   <g id="patch_5">
    <path d="M 58.877054 390.04 
L 565.2 390.04 
" style="fill: none; stroke: #000000; stroke-width: 0.8; stroke-linejoin: miter; stroke-linecap: square"/>
   </g>
   <g id="patch_6">
    <path d="M 58.877054 10.8 
L 565.2 10.8 
" style="fill: none; stroke: #000000; stroke-width: 0.8; stroke-linejoin: miter; stroke-linecap: square"/>
   </g>
   <g id="legend_1">
    <g id="patch_7">
     <path d="M 511.8 33.9 
L 558.2 33.9 
Q 560.2 33.9 560.2 31.9 
L 560.2 17.8 
Q 560.2 15.8 558.2 15.8 
L 511.8 15.8 
Q 509.8 15.8 509.8 17.8 
L 509.8 31.9 
Q 509.8 33.9 511.8 33.9 
z
" style="fill: #ffffff; opacity: 0.8; stroke: #cccccc; stroke-linejoin: miter"/>
    </g>
    <g id="line2d_58">
     <path d="M 513.8 24 
L 523.8 24 
L 533.8 24 
" style="fill: none; stroke: #1f77b4; stroke-width: 1.5; stroke-linecap: square"/>
    </g>
    <g id="text_14">
     <!-- |$\mathbf{B}$| -->
     <g transform="translate(541.8 27.5) scale(0.1 -0.1)">
      <use xlink:href="#DejaVuSans-7c" transform="translate(0 0.578125)"/>
      <use xlink:href="#DejaVuSans-Bold-42" transform="translate(33.691406 0.578125)"/>
      <use xlink:href="#DejaVuSans-7c" transform="translate(109.912109 0.578125)"/>
     </g>
    </g>
   </g>
  </g>
 </g>
 <defs>
  <clipPath id="p728f3fd70b">
   <rect x="58.877054" y="10.8" width="506.322946" height="379.24"/>
  </clipPath>
 </defs>
</svg>
