<?xml version="1.0" encoding="utf-8" standalone="no"?>
<!DOCTYPE svg PUBLIC "-//W3C//DTD SVG 1.1//EN"
  "http://www.w3.org/Graphics/SVG/1.1/DTD/svg11.dtd">
<svg xmlns:xlink="http://www.w3.org/1999/xlink" width="576pt" height="432pt" viewBox="0 0 576 432" xmlns="http://www.w3.org/2000/svg" version="1.1">
 <metadata>
  <rdf:RDF xmlns:dc="http://purl.org/dc/elements/1.1/" xmlns:cc="http://creativecommons.org/ns#" xmlns:rdf="http://www.w3.org/1999/02/22-rdf-syntax-ns#">
   <cc:Work>
    <dc:type rdf:resource="http://purl.org/dc/dcmitype/StillImage"/>
    <dc:date>2024-12-03T21:33:41.369548</dc:date>
    <dc:format>image/svg+xml</dc:format>
    <dc:creator>
     <cc:Agent>
      <dc:title>Matplotlib v3.8.3, https://matplotlib.org/</dc:title>
     </cc:Agent>
    </dc:creator>
   </cc:Work>
  </rdf:RDF>
 </metadata>
 <defs>
  <style type="text/css">*{stroke-linejoin: round; stroke-linecap: butt}</style>
 </defs>
 <g id="figure_1">
  <g id="patch_1">
   <path d="M 0 432 
L 576 432 
L 576 0 
L 0 0 
z
" style="fill: #ffffff"/>
  </g>
  <g id="axes_1">
   <g id="patch_2">
    <path d="M 47.72 390.04 
L 461.704 390.04 
L 461.704 21.72 
L 47.72 21.72 
z
" style="fill: #ffffff"/>
   </g>
   <g id="QuadContourSet_1">
    <path d="M 47.72 386.319596 
L 47.72 382.599192 
L 47.72 378.878788 
L 47.72 375.158384 
L 47.72 371.43798 
L 47.72 367.717576 
L 47.72 363.997172 
L 47.72 360.276768 
L 47.72 356.556364 
L 47.72 352.83596 
L 47.72 349.115556 
L 47.72 345.395152 
L 47.72 341.674747 
L 47.72 337.954343 
L 47.72 334.233939 
L 47.72 330.513535 
L 47.72 326.793131 
L 47.72 323.072727 
L 47.72 319.352323 
L 47.72 315.631919 
L 47.72 311.911515 
L 47.72 308.191111 
L 47.72 304.470707 
L 47.72 300.750303 
L 47.72 297.029899 
L 47.72 293.309495 
L 47.72 289.589091 
L 47.72 285.868687 
L 47.72 282.148283 
L 47.72 278.427879 
L 47.72 274.707475 
L 47.72 270.987071 
L 47.72 267.266667 
L 47.72 263.546263 
L 47.72 259.825859 
L 47.72 256.105455 
L 47.72 252.385051 
L 47.72 248.664646 
L 47.72 244.944242 
L 47.72 241.223838 
L 47.72 237.503434 
L 47.72 233.78303 
L 47.72 230.062626 
L 47.72 226.342222 
L 47.72 222.621818 
L 47.72 218.901414 
L 47.72 215.18101 
L 47.72 211.460606 
L 47.72 207.740202 
L 47.72 204.019798 
L 47.72 200.299394 
L 47.72 196.57899 
L 47.72 192.858586 
L 47.72 189.138182 
L 47.72 185.417778 
L 47.72 181.697374 
L 47.72 177.97697 
L 47.72 174.256566 
L 47.72 170.536162 
L 47.72 166.815758 
L 47.72 163.095354 
L 47.72 159.374949 
L 47.72 155.654545 
L 47.72 151.934141 
L 47.72 148.213737 
L 47.72 144.493333 
L 47.72 140.772929 
L 47.72 137.052525 
L 47.72 133.332121 
L 47.72 129.611717 
L 47.72 125.891313 
L 47.72 122.170909 
L 47.72 118.450505 
L 47.72 114.730101 
L 47.72 111.009697 
L 47.72 107.289293 
L 47.72 103.568889 
L 47.72 99.848485 
L 47.72 96.128081 
L 47.72 92.407677 
L 47.72 88.687273 
L 47.72 84.966869 
L 47.72 81.246465 
L 47.72 77.526061 
L 47.72 73.805657 
L 47.72 70.085253 
L 47.72 66.364848 
L 47.72 62.644444 
L 47.72 58.92404 
L 47.72 55.203636 
L 47.72 51.483232 
L 47.72 47.762828 
L 47.72 44.042424 
L 47.72 40.32202 
L 47.72 36.601616 
L 47.72 32.881212 
L 47.72 29.160808 
L 47.72 25.440404 
L 47.72 21.72 
L 51.901657 21.72 
L 56.083313 21.72 
L 60.26497 21.72 
L 64.446626 21.72 
L 68.628283 21.72 
L 72.809939 21.72 
L 76.991596 21.72 
L 81.173253 21.72 
L 85.354909 21.72 
L 89.536566 21.72 
L 93.718222 21.72 
L 97.899879 21.72 
L 102.081535 21.72 
L 106.263192 21.72 
L 110.444848 21.72 
L 114.626505 21.72 
L 118.808162 21.72 
L 122.989818 21.72 
L 127.171475 21.72 
L 131.353131 21.72 
L 135.534788 21.72 
L 139.716444 21.72 
L 143.898101 21.72 
L 148.079758 21.72 
L 152.261414 21.72 
L 156.443071 21.72 
L 160.624727 21.72 
L 164.806384 21.72 
L 168.98804 21.72 
L 173.169697 21.72 
L 177.351354 21.72 
L 181.53301 21.72 
L 185.714667 21.72 
L 189.896323 21.72 
L 194.07798 21.72 
L 198.259636 21.72 
L 202.441293 21.72 
L 206.622949 21.72 
L 210.804606 21.72 
L 214.986263 21.72 
L 219.167919 21.72 
L 223.349576 21.72 
L 227.531232 21.72 
L 231.712889 21.72 
L 235.894545 21.72 
L 240.076202 21.72 
L 244.257859 21.72 
L 248.439515 21.72 
L 252.621172 21.72 
L 256.802828 21.72 
L 260.984485 21.72 
L 265.166141 21.72 
L 269.347798 21.72 
L 273.529455 21.72 
L 277.711111 21.72 
L 281.892768 21.72 
L 286.074424 21.72 
L 290.256081 21.72 
L 294.437737 21.72 
L 298.619394 21.72 
L 302.801051 21.72 
L 306.982707 21.72 
L 311.164364 21.72 
L 315.34602 21.72 
L 319.527677 21.72 
L 323.709333 21.72 
L 327.89099 21.72 
L 332.072646 21.72 
L 336.254303 21.72 
L 340.43596 21.72 
L 344.617616 21.72 
L 348.799273 21.72 
L 352.980929 21.72 
L 357.162586 21.72 
L 361.344242 21.72 
L 365.525899 21.72 
L 369.707556 21.72 
L 373.889212 21.72 
L 378.070869 21.72 
L 382.252525 21.72 
L 386.434182 21.72 
L 390.615838 21.72 
L 394.797495 21.72 
L 398.979152 21.72 
L 403.160808 21.72 
L 407.342465 21.72 
L 411.524121 21.72 
L 415.705778 21.72 
L 419.887434 21.72 
L 424.069091 21.72 
L 428.250747 21.72 
L 432.432404 21.72 
L 436.614061 21.72 
L 440.795717 21.72 
L 444.977374 21.72 
L 449.15903 21.72 
L 453.340687 21.72 
L 457.522343 21.72 
L 461.704 21.72 
L 461.704 25.440404 
L 461.704 29.160808 
L 461.704 32.881212 
L 461.704 36.601616 
L 461.704 40.32202 
L 461.704 44.042424 
L 461.704 47.762828 
L 461.704 51.483232 
L 461.704 55.203636 
L 461.704 58.92404 
L 461.704 62.644444 
L 461.704 66.364848 
L 461.704 70.085253 
L 461.704 73.805657 
L 461.704 77.526061 
L 461.704 81.246465 
L 461.704 84.966869 
L 461.704 88.687273 
L 461.704 92.407677 
L 461.704 96.128081 
L 461.704 99.848485 
L 461.704 103.568889 
L 461.704 107.289293 
L 461.704 111.009697 
L 461.704 114.730101 
L 461.704 118.450505 
L 461.704 122.170909 
L 461.704 125.891313 
L 461.704 129.611717 
L 461.704 133.332121 
L 461.704 137.052525 
L 461.704 140.772929 
L 461.704 144.493333 
L 461.704 148.213737 
L 461.704 151.934141 
L 461.704 155.654545 
L 461.704 159.374949 
L 461.704 163.095354 
L 461.704 166.815758 
L 461.704 170.536162 
L 461.704 174.256566 
L 461.704 177.97697 
L 461.704 181.697374 
L 461.704 185.417778 
L 461.704 189.138182 
L 461.704 192.858586 
L 461.704 196.57899 
L 461.704 200.299394 
L 461.704 204.019798 
L 461.704 207.740202 
L 461.704 211.460606 
L 461.704 215.18101 
L 461.704 218.901414 
L 461.704 222.621818 
L 461.704 226.342222 
L 461.704 230.062626 
L 461.704 233.78303 
L 461.704 237.503434 
L 461.704 241.223838 
L 461.704 244.944242 
L 461.704 248.664646 
L 461.704 252.385051 
L 461.704 256.105455 
L 461.704 259.825859 
L 461.704 263.546263 
L 461.704 267.266667 
L 461.704 270.987071 
L 461.704 274.707475 
L 461.704 278.427879 
L 461.704 282.148283 
L 461.704 285.868687 
L 461.704 289.589091 
L 461.704 293.309495 
L 461.704 297.029899 
L 461.704 300.750303 
L 461.704 304.470707 
L 461.704 308.191111 
L 461.704 311.911515 
L 461.704 315.631919 
L 461.704 319.352323 
L 461.704 323.072727 
L 461.704 326.793131 
L 461.704 330.513535 
L 461.704 334.233939 
L 461.704 337.954343 
L 461.704 341.674747 
L 461.704 345.395152 
L 461.704 349.115556 
L 461.704 352.83596 
L 461.704 356.556364 
L 461.704 360.276768 
L 461.704 363.997172 
L 461.704 367.717576 
L 461.704 371.43798 
L 461.704 375.158384 
L 461.704 378.878788 
L 461.704 382.599192 
L 461.704 386.319596 
L 461.704 390.04 
L 457.522343 390.04 
L 453.340687 390.04 
L 449.15903 390.04 
L 444.977374 390.04 
L 440.795717 390.04 
L 436.614061 390.04 
L 432.432404 390.04 
L 428.250747 390.04 
L 424.069091 390.04 
L 419.887434 390.04 
L 415.705778 390.04 
L 411.524121 390.04 
L 407.342465 390.04 
L 403.160808 390.04 
L 398.979152 390.04 
L 394.797495 390.04 
L 390.615838 390.04 
L 386.434182 390.04 
L 382.252525 390.04 
L 378.070869 390.04 
L 373.889212 390.04 
L 369.707556 390.04 
L 365.525899 390.04 
L 361.344242 390.04 
L 357.162586 390.04 
L 352.980929 390.04 
L 348.799273 390.04 
L 344.617616 390.04 
L 340.43596 390.04 
L 336.254303 390.04 
L 332.072646 390.04 
L 327.89099 390.04 
L 323.709333 390.04 
L 319.527677 390.04 
L 315.34602 390.04 
L 311.164364 390.04 
L 306.982707 390.04 
L 302.801051 390.04 
L 298.619394 390.04 
L 294.437737 390.04 
L 290.256081 390.04 
L 286.074424 390.04 
L 281.892768 390.04 
L 277.711111 390.04 
L 273.529455 390.04 
L 269.347798 390.04 
L 265.166141 390.04 
L 260.984485 390.04 
L 256.802828 390.04 
L 252.621172 390.04 
L 248.439515 390.04 
L 244.257859 390.04 
L 240.076202 390.04 
L 235.894545 390.04 
L 231.712889 390.04 
L 227.531232 390.04 
L 223.349576 390.04 
L 219.167919 390.04 
L 214.986263 390.04 
L 210.804606 390.04 
L 206.622949 390.04 
L 202.441293 390.04 
L 198.259636 390.04 
L 194.07798 390.04 
L 189.896323 390.04 
L 185.714667 390.04 
L 181.53301 390.04 
L 177.351354 390.04 
L 173.169697 390.04 
L 168.98804 390.04 
L 164.806384 390.04 
L 160.624727 390.04 
L 156.443071 390.04 
L 152.261414 390.04 
L 148.079758 390.04 
L 143.898101 390.04 
L 139.716444 390.04 
L 135.534788 390.04 
L 131.353131 390.04 
L 127.171475 390.04 
L 122.989818 390.04 
L 118.808162 390.04 
L 114.626505 390.04 
L 110.444848 390.04 
L 106.263192 390.04 
L 102.081535 390.04 
L 97.899879 390.04 
L 93.718222 390.04 
L 89.536566 390.04 
L 85.354909 390.04 
L 81.173253 390.04 
L 76.991596 390.04 
L 72.809939 390.04 
L 68.628283 390.04 
L 64.446626 390.04 
L 60.26497 390.04 
L 56.083313 390.04 
L 51.901657 390.04 
L 47.72 390.04 
z
" clip-path="url(#p18c51de702)" style="fill: #3b518b"/>
    <path clip-path="url(#p18c51de702)" style="fill: #5cc863"/>
   </g>
   <g id="matplotlib.axis_1">
    <g id="xtick_1">
     <g id="line2d_1">
      <defs>
       <path id="m3241605a18" d="M 0 0 
L 0 3.5 
" style="stroke: #000000; stroke-width: 0.8"/>
      </defs>
      <g>
       <use xlink:href="#m3241605a18" x="47.72" y="390.04" style="stroke: #000000; stroke-width: 0.8"/>
      </g>
     </g>
     <g id="text_1">
      <!-- 0.0 -->
      <g transform="translate(39.768437 404.638438) scale(0.1 -0.1)">
       <defs>
        <path id="DejaVuSans-30" d="M 2034 4250 
Q 1547 4250 1301 3770 
Q 1056 3291 1056 2328 
Q 1056 1369 1301 889 
Q 1547 409 2034 409 
Q 2525 409 2770 889 
Q 3016 1369 3016 2328 
Q 3016 3291 2770 3770 
Q 2525 4250 2034 4250 
z
M 2034 4750 
Q 2819 4750 3233 4129 
Q 3647 3509 3647 2328 
Q 3647 1150 3233 529 
Q 2819 -91 2034 -91 
Q 1250 -91 836 529 
Q 422 1150 422 2328 
Q 422 3509 836 4129 
Q 1250 4750 2034 4750 
z
" transform="scale(0.015625)"/>
        <path id="DejaVuSans-2e" d="M 684 794 
L 1344 794 
L 1344 0 
L 684 0 
L 684 794 
z
" transform="scale(0.015625)"/>
       </defs>
       <use xlink:href="#DejaVuSans-30"/>
       <use xlink:href="#DejaVuSans-2e" x="63.623047"/>
       <use xlink:href="#DejaVuSans-30" x="95.410156"/>
      </g>
     </g>
    </g>
    <g id="xtick_2">
     <g id="line2d_2">
      <g>
       <use xlink:href="#m3241605a18" x="130.5168" y="390.04" style="stroke: #000000; stroke-width: 0.8"/>
      </g>
     </g>
     <g id="text_2">
      <!-- 0.2 -->
      <g transform="translate(122.565238 404.638438) scale(0.1 -0.1)">
       <defs>
        <path id="DejaVuSans-32" d="M 1228 531 
L 3431 531 
L 3431 0 
L 469 0 
L 469 531 
Q 828 903 1448 1529 
Q 2069 2156 2228 2338 
Q 2531 2678 2651 2914 
Q 2772 3150 2772 3378 
Q 2772 3750 2511 3984 
Q 2250 4219 1831 4219 
Q 1534 4219 1204 4116 
Q 875 4013 500 3803 
L 500 4441 
Q 881 4594 1212 4672 
Q 1544 4750 1819 4750 
Q 2544 4750 2975 4387 
Q 3406 4025 3406 3419 
Q 3406 3131 3298 2873 
Q 3191 2616 2906 2266 
Q 2828 2175 2409 1742 
Q 1991 1309 1228 531 
z
" transform="scale(0.015625)"/>
       </defs>
       <use xlink:href="#DejaVuSans-30"/>
       <use xlink:href="#DejaVuSans-2e" x="63.623047"/>
       <use xlink:href="#DejaVuSans-32" x="95.410156"/>
      </g>
     </g>
    </g>
    <g id="xtick_3">
     <g id="line2d_3">
      <g>
       <use xlink:href="#m3241605a18" x="213.3136" y="390.04" style="stroke: #000000; stroke-width: 0.8"/>
      </g>
     </g>
     <g id="text_3">
      <!-- 0.4 -->
      <g transform="translate(205.362038 404.638438) scale(0.1 -0.1)">
       <defs>
        <path id="DejaVuSans-34" d="M 2419 4116 
L 825 1625 
L 2419 1625 
L 2419 4116 
z
M 2253 4666 
L 3047 4666 
L 3047 1625 
L 3713 1625 
L 3713 1100 
L 3047 1100 
L 3047 0 
L 2419 0 
L 2419 1100 
L 313 1100 
L 313 1709 
L 2253 4666 
z
" transform="scale(0.015625)"/>
       </defs>
       <use xlink:href="#DejaVuSans-30"/>
       <use xlink:href="#DejaVuSans-2e" x="63.623047"/>
       <use xlink:href="#DejaVuSans-34" x="95.410156"/>
      </g>
     </g>
    </g>
    <g id="xtick_4">
     <g id="line2d_4">
      <g>
       <use xlink:href="#m3241605a18" x="296.1104" y="390.04" style="stroke: #000000; stroke-width: 0.8"/>
      </g>
     </g>
     <g id="text_4">
      <!-- 0.6 -->
      <g transform="translate(288.158838 404.638438) scale(0.1 -0.1)">
       <defs>
        <path id="DejaVuSans-36" d="M 2113 2584 
Q 1688 2584 1439 2293 
Q 1191 2003 1191 1497 
Q 1191 994 1439 701 
Q 1688 409 2113 409 
Q 2538 409 2786 701 
Q 3034 994 3034 1497 
Q 3034 2003 2786 2293 
Q 2538 2584 2113 2584 
z
M 3366 4563 
L 3366 3988 
Q 3128 4100 2886 4159 
Q 2644 4219 2406 4219 
Q 1781 4219 1451 3797 
Q 1122 3375 1075 2522 
Q 1259 2794 1537 2939 
Q 1816 3084 2150 3084 
Q 2853 3084 3261 2657 
Q 3669 2231 3669 1497 
Q 3669 778 3244 343 
Q 2819 -91 2113 -91 
Q 1303 -91 875 529 
Q 447 1150 447 2328 
Q 447 3434 972 4092 
Q 1497 4750 2381 4750 
Q 2619 4750 2861 4703 
Q 3103 4656 3366 4563 
z
" transform="scale(0.015625)"/>
       </defs>
       <use xlink:href="#DejaVuSans-30"/>
       <use xlink:href="#DejaVuSans-2e" x="63.623047"/>
       <use xlink:href="#DejaVuSans-36" x="95.410156"/>
      </g>
     </g>
    </g>
    <g id="xtick_5">
     <g id="line2d_5">
      <g>
       <use xlink:href="#m3241605a18" x="378.9072" y="390.04" style="stroke: #000000; stroke-width: 0.8"/>
      </g>
     </g>
     <g id="text_5">
      <!-- 0.8 -->
      <g transform="translate(370.955638 404.638438) scale(0.1 -0.1)">
       <defs>
        <path id="DejaVuSans-38" d="M 2034 2216 
Q 1584 2216 1326 1975 
Q 1069 1734 1069 1313 
Q 1069 891 1326 650 
Q 1584 409 2034 409 
Q 2484 409 2743 651 
Q 3003 894 3003 1313 
Q 3003 1734 2745 1975 
Q 2488 2216 2034 2216 
z
M 1403 2484 
Q 997 2584 770 2862 
Q 544 3141 544 3541 
Q 544 4100 942 4425 
Q 1341 4750 2034 4750 
Q 2731 4750 3128 4425 
Q 3525 4100 3525 3541 
Q 3525 3141 3298 2862 
Q 3072 2584 2669 2484 
Q 3125 2378 3379 2068 
Q 3634 1759 3634 1313 
Q 3634 634 3220 271 
Q 2806 -91 2034 -91 
Q 1263 -91 848 271 
Q 434 634 434 1313 
Q 434 1759 690 2068 
Q 947 2378 1403 2484 
z
M 1172 3481 
Q 1172 3119 1398 2916 
Q 1625 2713 2034 2713 
Q 2441 2713 2670 2916 
Q 2900 3119 2900 3481 
Q 2900 3844 2670 4047 
Q 2441 4250 2034 4250 
Q 1625 4250 1398 4047 
Q 1172 3844 1172 3481 
z
" transform="scale(0.015625)"/>
       </defs>
       <use xlink:href="#DejaVuSans-30"/>
       <use xlink:href="#DejaVuSans-2e" x="63.623047"/>
       <use xlink:href="#DejaVuSans-38" x="95.410156"/>
      </g>
     </g>
    </g>
    <g id="xtick_6">
     <g id="line2d_6">
      <g>
       <use xlink:href="#m3241605a18" x="461.704" y="390.04" style="stroke: #000000; stroke-width: 0.8"/>
      </g>
     </g>
     <g id="text_6">
      <!-- 1.0 -->
      <g transform="translate(453.752438 404.638438) scale(0.1 -0.1)">
       <defs>
        <path id="DejaVuSans-31" d="M 794 531 
L 1825 531 
L 1825 4091 
L 703 3866 
L 703 4441 
L 1819 4666 
L 2450 4666 
L 2450 531 
L 3481 531 
L 3481 0 
L 794 0 
L 794 531 
z
" transform="scale(0.015625)"/>
       </defs>
       <use xlink:href="#DejaVuSans-31"/>
       <use xlink:href="#DejaVuSans-2e" x="63.623047"/>
       <use xlink:href="#DejaVuSans-30" x="95.410156"/>
      </g>
     </g>
    </g>
    <g id="text_7">
     <!-- x -->
     <g transform="translate(251.752625 418.316562) scale(0.1 -0.1)">
      <defs>
       <path id="DejaVuSans-78" d="M 3513 3500 
L 2247 1797 
L 3578 0 
L 2900 0 
L 1881 1375 
L 863 0 
L 184 0 
L 1544 1831 
L 300 3500 
L 978 3500 
L 1906 2253 
L 2834 3500 
L 3513 3500 
z
" transform="scale(0.015625)"/>
      </defs>
      <use xlink:href="#DejaVuSans-78"/>
     </g>
    </g>
   </g>
   <g id="matplotlib.axis_2">
    <g id="ytick_1">
     <g id="line2d_7">
      <defs>
       <path id="m77a18d4107" d="M 0 0 
L -3.5 0 
" style="stroke: #000000; stroke-width: 0.8"/>
      </defs>
      <g>
       <use xlink:href="#m77a18d4107" x="47.72" y="390.04" style="stroke: #000000; stroke-width: 0.8"/>
      </g>
     </g>
     <g id="text_8">
      <!-- 0.0 -->
      <g transform="translate(24.816875 393.839219) scale(0.1 -0.1)">
       <use xlink:href="#DejaVuSans-30"/>
       <use xlink:href="#DejaVuSans-2e" x="63.623047"/>
       <use xlink:href="#DejaVuSans-30" x="95.410156"/>
      </g>
     </g>
    </g>
    <g id="ytick_2">
     <g id="line2d_8">
      <g>
       <use xlink:href="#m77a18d4107" x="47.72" y="316.376" style="stroke: #000000; stroke-width: 0.8"/>
      </g>
     </g>
     <g id="text_9">
      <!-- 0.2 -->
      <g transform="translate(24.816875 320.175219) scale(0.1 -0.1)">
       <use xlink:href="#DejaVuSans-30"/>
       <use xlink:href="#DejaVuSans-2e" x="63.623047"/>
       <use xlink:href="#DejaVuSans-32" x="95.410156"/>
      </g>
     </g>
    </g>
    <g id="ytick_3">
     <g id="line2d_9">
      <g>
       <use xlink:href="#m77a18d4107" x="47.72" y="242.712" style="stroke: #000000; stroke-width: 0.8"/>
      </g>
     </g>
     <g id="text_10">
      <!-- 0.4 -->
      <g transform="translate(24.816875 246.511219) scale(0.1 -0.1)">
       <use xlink:href="#DejaVuSans-30"/>
       <use xlink:href="#DejaVuSans-2e" x="63.623047"/>
       <use xlink:href="#DejaVuSans-34" x="95.410156"/>
      </g>
     </g>
    </g>
    <g id="ytick_4">
     <g id="line2d_10">
      <g>
       <use xlink:href="#m77a18d4107" x="47.72" y="169.048" style="stroke: #000000; stroke-width: 0.8"/>
      </g>
     </g>
     <g id="text_11">
      <!-- 0.6 -->
      <g transform="translate(24.816875 172.847219) scale(0.1 -0.1)">
       <use xlink:href="#DejaVuSans-30"/>
       <use xlink:href="#DejaVuSans-2e" x="63.623047"/>
       <use xlink:href="#DejaVuSans-36" x="95.410156"/>
      </g>
     </g>
    </g>
    <g id="ytick_5">
     <g id="line2d_11">
      <g>
       <use xlink:href="#m77a18d4107" x="47.72" y="95.384" style="stroke: #000000; stroke-width: 0.8"/>
      </g>
     </g>
     <g id="text_12">
      <!-- 0.8 -->
      <g transform="translate(24.816875 99.183219) scale(0.1 -0.1)">
       <use xlink:href="#DejaVuSans-30"/>
       <use xlink:href="#DejaVuSans-2e" x="63.623047"/>
       <use xlink:href="#DejaVuSans-38" x="95.410156"/>
      </g>
     </g>
    </g>
    <g id="ytick_6">
     <g id="line2d_12">
      <g>
       <use xlink:href="#m77a18d4107" x="47.72" y="21.72" style="stroke: #000000; stroke-width: 0.8"/>
      </g>
     </g>
     <g id="text_13">
      <!-- 1.0 -->
      <g transform="translate(24.816875 25.519219) scale(0.1 -0.1)">
       <use xlink:href="#DejaVuSans-31"/>
       <use xlink:href="#DejaVuSans-2e" x="63.623047"/>
       <use xlink:href="#DejaVuSans-30" x="95.410156"/>
      </g>
     </g>
    </g>
    <g id="text_14">
     <!-- y -->
     <g transform="translate(18.737187 208.839375) rotate(-90) scale(0.1 -0.1)">
      <defs>
       <path id="DejaVuSans-79" d="M 2059 -325 
Q 1816 -950 1584 -1140 
Q 1353 -1331 966 -1331 
L 506 -1331 
L 506 -850 
L 844 -850 
Q 1081 -850 1212 -737 
Q 1344 -625 1503 -206 
L 1606 56 
L 191 3500 
L 800 3500 
L 1894 763 
L 2988 3500 
L 3597 3500 
L 2059 -325 
z
" transform="scale(0.015625)"/>
      </defs>
      <use xlink:href="#DejaVuSans-79"/>
     </g>
    </g>
   </g>
   <g id="patch_3">
    <path d="M 47.72 390.04 
L 47.72 21.72 
" style="fill: none; stroke: #000000; stroke-width: 0.8; stroke-linejoin: miter; stroke-linecap: square"/>
   </g>
   <g id="patch_4">
    <path d="M 461.704 390.04 
L 461.704 21.72 
" style="fill: none; stroke: #000000; stroke-width: 0.8; stroke-linejoin: miter; stroke-linecap: square"/>
   </g>
   <g id="patch_5">
    <path d="M 47.72 390.04 
L 461.704 390.04 
" style="fill: none; stroke: #000000; stroke-width: 0.8; stroke-linejoin: miter; stroke-linecap: square"/>
   </g>
   <g id="patch_6">
    <path d="M 47.72 21.72 
L 461.704 21.72 
" style="fill: none; stroke: #000000; stroke-width: 0.8; stroke-linejoin: miter; stroke-linecap: square"/>
   </g>
  </g>
  <g id="axes_2">
   <g id="patch_7">
    <path d="M 487.578 390.04 
L 505.994 390.04 
L 505.994 21.72 
L 487.578 21.72 
z
" style="fill: #ffffff"/>
   </g>
   <g id="QuadMesh_1">
    <path d="M 487.578 390.04 
L 505.994 390.04 
L 505.994 205.88 
L 487.578 205.88 
L 487.578 390.04 
" clip-path="url(#pde5a5a59ef)" style="fill: #3b518b"/>
    <path d="M 487.578 205.88 
L 505.994 205.88 
L 505.994 21.72 
L 487.578 21.72 
L 487.578 205.88 
" clip-path="url(#pde5a5a59ef)" style="fill: #5cc863"/>
   </g>
   <g id="matplotlib.axis_3"/>
   <g id="matplotlib.axis_4">
    <g id="ytick_7">
     <g id="line2d_13">
      <defs>
       <path id="m2df731a411" d="M 0 0 
L 3.5 0 
" style="stroke: #000000; stroke-width: 0.8"/>
      </defs>
      <g>
       <use xlink:href="#m2df731a411" x="505.994" y="390.04" style="stroke: #000000; stroke-width: 0.8"/>
      </g>
     </g>
     <g id="text_15">
      <!-- −2 -->
      <g transform="translate(512.994 393.839219) scale(0.1 -0.1)">
       <defs>
        <path id="DejaVuSans-2212" d="M 678 2272 
L 4684 2272 
L 4684 1741 
L 678 1741 
L 678 2272 
z
" transform="scale(0.015625)"/>
       </defs>
       <use xlink:href="#DejaVuSans-2212"/>
       <use xlink:href="#DejaVuSans-32" x="83.789062"/>
      </g>
     </g>
    </g>
    <g id="ytick_8">
     <g id="line2d_14">
      <g>
       <use xlink:href="#m2df731a411" x="505.994" y="205.88" style="stroke: #000000; stroke-width: 0.8"/>
      </g>
     </g>
     <g id="text_16">
      <!-- 0 -->
      <g transform="translate(512.994 209.679219) scale(0.1 -0.1)">
       <use xlink:href="#DejaVuSans-30"/>
      </g>
     </g>
    </g>
    <g id="ytick_9">
     <g id="line2d_15">
      <g>
       <use xlink:href="#m2df731a411" x="505.994" y="21.72" style="stroke: #000000; stroke-width: 0.8"/>
      </g>
     </g>
     <g id="text_17">
      <!-- 2 -->
      <g transform="translate(512.994 25.519219) scale(0.1 -0.1)">
       <use xlink:href="#DejaVuSans-32"/>
      </g>
     </g>
    </g>
    <g id="text_18">
     <!-- 1e−15 -->
     <g transform="translate(472.373687 18.72) scale(0.1 -0.1)">
      <defs>
       <path id="DejaVuSans-65" d="M 3597 1894 
L 3597 1613 
L 953 1613 
Q 991 1019 1311 708 
Q 1631 397 2203 397 
Q 2534 397 2845 478 
Q 3156 559 3463 722 
L 3463 178 
Q 3153 47 2828 -22 
Q 2503 -91 2169 -91 
Q 1331 -91 842 396 
Q 353 884 353 1716 
Q 353 2575 817 3079 
Q 1281 3584 2069 3584 
Q 2775 3584 3186 3129 
Q 3597 2675 3597 1894 
z
M 3022 2063 
Q 3016 2534 2758 2815 
Q 2500 3097 2075 3097 
Q 1594 3097 1305 2825 
Q 1016 2553 972 2059 
L 3022 2063 
z
" transform="scale(0.015625)"/>
       <path id="DejaVuSans-35" d="M 691 4666 
L 3169 4666 
L 3169 4134 
L 1269 4134 
L 1269 2991 
Q 1406 3038 1543 3061 
Q 1681 3084 1819 3084 
Q 2600 3084 3056 2656 
Q 3513 2228 3513 1497 
Q 3513 744 3044 326 
Q 2575 -91 1722 -91 
Q 1428 -91 1123 -41 
Q 819 9 494 109 
L 494 744 
Q 775 591 1075 516 
Q 1375 441 1709 441 
Q 2250 441 2565 725 
Q 2881 1009 2881 1497 
Q 2881 1984 2565 2268 
Q 2250 2553 1709 2553 
Q 1456 2553 1204 2497 
Q 953 2441 691 2322 
L 691 4666 
z
" transform="scale(0.015625)"/>
      </defs>
      <use xlink:href="#DejaVuSans-31"/>
      <use xlink:href="#DejaVuSans-65" x="63.623047"/>
      <use xlink:href="#DejaVuSans-2212" x="125.146484"/>
      <use xlink:href="#DejaVuSans-31" x="208.935547"/>
      <use xlink:href="#DejaVuSans-35" x="272.558594"/>
     </g>
    </g>
   </g>
   <g id="LineCollection_1"/>
   <g id="patch_8">
    <path d="M 487.578 390.04 
L 496.786 390.04 
L 505.994 390.04 
L 505.994 21.72 
L 496.786 21.72 
L 487.578 21.72 
L 487.578 390.04 
z
" style="fill: none; stroke: #000000; stroke-width: 0.8; stroke-linejoin: miter; stroke-linecap: square"/>
   </g>
  </g>
 </g>
 <defs>
  <clipPath id="p18c51de702">
   <rect x="47.72" y="21.72" width="413.984" height="368.32"/>
  </clipPath>
  <clipPath id="pde5a5a59ef">
   <rect x="487.578" y="21.72" width="18.416" height="368.32"/>
  </clipPath>
 </defs>
</svg>
