<?xml version="1.0" encoding="utf-8" standalone="no"?>
<!DOCTYPE svg PUBLIC "-//W3C//DTD SVG 1.1//EN"
  "http://www.w3.org/Graphics/SVG/1.1/DTD/svg11.dtd">
<svg xmlns:xlink="http://www.w3.org/1999/xlink" width="576pt" height="432pt" viewBox="0 0 576 432" xmlns="http://www.w3.org/2000/svg" version="1.1">
 <metadata>
  <rdf:RDF xmlns:dc="http://purl.org/dc/elements/1.1/" xmlns:cc="http://creativecommons.org/ns#" xmlns:rdf="http://www.w3.org/1999/02/22-rdf-syntax-ns#">
   <cc:Work>
    <dc:type rdf:resource="http://purl.org/dc/dcmitype/StillImage"/>
    <dc:date>2024-12-04T16:57:43.730203</dc:date>
    <dc:format>image/svg+xml</dc:format>
    <dc:creator>
     <cc:Agent>
      <dc:title>Matplotlib v3.8.3, https://matplotlib.org/</dc:title>
     </cc:Agent>
    </dc:creator>
   </cc:Work>
  </rdf:RDF>
 </metadata>
 <defs>
  <style type="text/css">*{stroke-linejoin: round; stroke-linecap: butt}</style>
 </defs>
 <g id="figure_1">
  <g id="patch_1">
   <path d="M 0 432 
L 576 432 
L 576 0 
L 0 0 
z
" style="fill: #ffffff"/>
  </g>
  <g id="axes_1">
   <g id="patch_2">
    <path d="M 69.41 390.04 
L 466.042 390.04 
L 466.042 14.76 
L 69.41 14.76 
z
" style="fill: #ffffff"/>
   </g>
   <g id="TriContourSet_1">
    <path d="M 289.917076 164.781101 
L 309.556534 202.4 
L 289.917076 240.018899 
L 245.787614 249.31 
L 210.398534 223.276914 
L 210.398534 181.523086 
L 245.787614 155.49 
z
M 257.175643 259.610869 
L 284.501964 253.857533 
L 299.204712 250.761989 
L 308.552339 232.85684 
L 324.452746 202.4 
L 317.909408 189.866396 
L 305.748051 166.571616 
L 299.204712 154.038011 
L 284.501964 150.942467 
L 257.175643 145.189131 
L 242.472895 142.093587 
L 230.682206 150.76711 
L 208.768199 166.887598 
L 196.97751 175.561121 
L 196.97751 189.472372 
L 196.97751 215.327628 
L 196.97751 229.238879 
L 213.821351 241.629627 
L 242.472895 262.706413 
z
" clip-path="url(#p159683004b)" style="fill: #481b6d"/>
    <path d="M 242.472895 262.706413 
L 213.821351 241.629627 
L 196.97751 229.238879 
L 196.97751 215.327628 
L 196.97751 189.472372 
L 196.97751 175.561121 
L 208.768199 166.887598 
L 230.682206 150.76711 
L 242.472895 142.093587 
L 257.175643 145.189131 
L 284.501964 150.942467 
L 299.204712 154.038011 
L 305.748051 166.571616 
L 317.909408 189.866396 
L 324.452746 202.4 
L 308.552339 232.85684 
L 299.204712 250.761989 
L 284.501964 253.857533 
L 257.175643 259.610869 
z
M 268.563673 269.911738 
L 279.086852 267.696167 
L 308.492349 261.505078 
L 327.187602 225.69478 
L 339.348959 202.4 
L 326.262282 177.332791 
L 321.579026 168.362131 
L 308.492349 143.294922 
L 279.086852 137.103833 
L 268.563673 134.888262 
L 239.158176 128.697173 
L 215.576798 146.04422 
L 207.137863 152.25211 
L 183.556486 169.599156 
L 183.556486 197.421659 
L 183.556486 207.378341 
L 183.556486 235.200844 
L 217.244168 259.982339 
L 239.158176 276.102827 
z
" clip-path="url(#p159683004b)" style="fill: #3f4788"/>
    <path d="M 239.158176 276.102827 
L 217.244168 259.982339 
L 183.556486 235.200844 
L 183.556486 207.378341 
L 183.556486 197.421659 
L 183.556486 169.599156 
L 207.137863 152.25211 
L 215.576798 146.04422 
L 239.158176 128.697173 
L 268.563673 134.888262 
L 279.086852 137.103833 
L 308.492349 143.294922 
L 321.579026 168.362131 
L 326.262282 177.332791 
L 339.348959 202.4 
L 327.187602 225.69478 
L 308.492349 261.505078 
L 279.086852 267.696167 
L 268.563673 269.911738 
z
M 268.961769 282.526448 
L 284.661673 279.22096 
L 317.779986 272.248168 
L 345.822866 218.53272 
L 354.245172 202.4 
L 339.506136 174.16774 
L 332.519021 160.784093 
L 317.779986 132.551832 
L 284.661673 125.57904 
L 268.961769 122.273552 
L 235.843457 115.30076 
L 209.284632 134.83809 
L 196.694286 144.099861 
L 170.135462 163.637191 
L 170.135462 194.972636 
L 170.135462 209.827364 
L 170.135462 241.162809 
L 220.666986 278.335052 
L 235.843457 289.49924 
z
" clip-path="url(#p159683004b)" style="fill: #2e6e8e"/>
    <path d="M 235.843457 289.49924 
L 220.666986 278.335052 
L 170.135462 241.162809 
L 170.135462 209.827364 
L 170.135462 194.972636 
L 170.135462 163.637191 
L 196.694286 144.099861 
L 209.284632 134.83809 
L 235.843457 115.30076 
L 268.961769 122.273552 
L 284.661673 125.57904 
L 317.779986 132.551832 
L 332.519021 160.784093 
L 339.506136 174.16774 
L 354.245172 202.4 
L 345.822866 218.53272 
L 317.779986 272.248168 
L 284.661673 279.22096 
L 268.961769 282.526448 
z
M 250.944301 299.018406 
L 308.652059 286.868505 
L 327.067622 282.991257 
L 364.458129 211.370661 
L 369.141384 202.4 
L 360.945687 186.701344 
L 335.263319 137.507399 
L 327.067622 121.808743 
L 308.652059 117.931495 
L 250.944301 105.781594 
L 232.528737 101.904346 
L 217.760602 112.768153 
L 171.482574 146.811419 
L 156.714438 157.675226 
L 156.714438 175.09942 
L 156.714438 229.70058 
L 156.714438 247.124774 
L 224.089803 296.687764 
L 232.528737 302.895654 
z
" clip-path="url(#p159683004b)" style="fill: #21918c"/>
    <path d="M 232.528737 302.895654 
L 224.089803 296.687764 
L 156.714438 247.124774 
L 156.714438 229.70058 
L 156.714438 175.09942 
L 156.714438 157.675226 
L 171.482574 146.811419 
L 217.760602 112.768153 
L 232.528737 101.904346 
L 250.944301 105.781594 
L 308.652059 117.931495 
L 327.067622 121.808743 
L 335.263319 137.507399 
L 360.945687 186.701344 
L 369.141384 202.4 
L 364.458129 211.370661 
L 327.067622 282.991257 
L 308.652059 286.868505 
L 250.944301 299.018406 
z
M 232.926834 315.510364 
L 332.642444 294.51605 
L 336.355259 293.734347 
L 383.093392 204.208601 
L 384.037597 202.4 
L 382.385239 199.234948 
L 338.007617 114.230705 
L 336.355259 111.065653 
L 332.642444 110.28395 
L 232.926834 89.289636 
L 229.214018 88.507933 
L 226.236572 90.698216 
L 146.270861 149.522978 
L 143.293414 151.713262 
L 143.293414 155.226204 
L 143.293414 249.573796 
L 143.293414 253.086738 
L 227.51262 315.040477 
L 229.214018 316.292067 
z
" clip-path="url(#p159683004b)" style="fill: #2db27d"/>
    <path d="M 229.214018 316.292067 
L 227.51262 315.040477 
L 143.293414 253.086738 
L 143.293414 249.573796 
L 143.293414 155.226204 
L 143.293414 151.713262 
L 146.270861 149.522978 
L 226.236572 90.698216 
L 229.214018 88.507933 
L 232.926834 89.289636 
L 332.642444 110.28395 
L 336.355259 111.065653 
L 338.007617 114.230705 
L 382.385239 199.234948 
L 384.037597 202.4 
L 383.093392 204.208601 
L 336.355259 293.734347 
L 332.642444 294.51605 
L 232.926834 315.510364 
z
M 406.009636 158.06344 
L 364.486211 78.526339 
L 312.476488 67.576113 
L 219.174198 47.932071 
L 177.465639 78.613923 
L 102.643011 133.655305 
L 102.643011 182.865173 
L 102.643011 271.144695 
L 144.351571 301.826547 
L 219.174198 356.867929 
L 271.18392 345.917703 
L 364.486211 326.273661 
L 387.632715 281.937101 
L 429.15614 202.4 
z
" clip-path="url(#p159683004b)" style="fill: #73d056"/>
    <path d="M 387.484168 352.875597 
L 466.042 202.4 
L 387.484168 51.924403 
L 210.966322 14.76 
L 69.41 118.892344 
L 69.41 285.907656 
L 210.966322 390.04 
z
M 429.15614 202.4 
L 387.632715 281.937101 
L 364.486211 326.273661 
L 271.18392 345.917703 
L 219.174198 356.867929 
L 144.351571 301.826547 
L 102.643011 271.144695 
L 102.643011 182.865173 
L 102.643011 133.655305 
L 177.465639 78.613923 
L 219.174198 47.932071 
L 312.476488 67.576113 
L 364.486211 78.526339 
L 406.009636 158.06344 
z
" clip-path="url(#p159683004b)" style="fill: #d0e11c"/>
   </g>
   <g id="line2d_1">
    <path d="M 387.799267 202.4 
L 309.556534 202.4 
M 466.042 202.4 
L 387.799267 202.4 
M 289.917076 164.781101 
L 309.556534 202.4 
M 245.787614 155.49 
L 289.917076 164.781101 
M 210.398534 181.523086 
L 245.787614 155.49 
M 210.398534 223.276914 
L 210.398534 181.523086 
M 245.787614 249.31 
L 210.398534 223.276914 
M 289.917076 240.018899 
L 309.556534 202.4 
M 289.917076 240.018899 
L 387.799267 202.4 
M 289.917076 240.018899 
L 245.787614 249.31 
M 338.700622 108.352752 
L 387.799267 202.4 
M 338.700622 108.352752 
L 466.042 202.4 
M 338.700622 108.352752 
L 289.917076 164.781101 
M 228.376968 85.125 
L 245.787614 155.49 
M 228.376968 85.125 
L 338.700622 108.352752 
M 139.904267 150.207715 
L 210.398534 181.523086 
M 139.904267 150.207715 
L 228.376968 85.125 
M 139.904267 254.592285 
L 210.398534 223.276914 
M 139.904267 254.592285 
L 139.904267 150.207715 
M 228.376968 319.675 
L 210.398534 223.276914 
M 228.376968 319.675 
L 245.787614 249.31 
M 228.376968 319.675 
L 139.904267 254.592285 
M 338.700622 296.447248 
L 387.799267 202.4 
M 338.700622 296.447248 
L 289.917076 240.018899 
M 338.700622 296.447248 
L 228.376968 319.675 
M 387.484168 51.924403 
L 466.042 202.4 
M 387.484168 51.924403 
L 338.700622 108.352752 
M 387.484168 51.924403 
L 228.376968 85.125 
M 210.966322 14.76 
L 228.376968 85.125 
M 210.966322 14.76 
L 139.904267 150.207715 
M 210.966322 14.76 
L 387.484168 51.924403 
M 69.41 118.892344 
L 139.904267 150.207715 
M 69.41 118.892344 
L 139.904267 254.592285 
M 69.41 118.892344 
L 210.966322 14.76 
M 69.41 285.907656 
L 139.904267 254.592285 
M 69.41 285.907656 
L 228.376968 319.675 
M 69.41 285.907656 
L 69.41 118.892344 
M 210.966322 390.04 
L 228.376968 319.675 
M 210.966322 390.04 
L 338.700622 296.447248 
M 210.966322 390.04 
L 69.41 285.907656 
M 387.484168 352.875597 
L 387.799267 202.4 
M 387.484168 352.875597 
L 466.042 202.4 
M 387.484168 352.875597 
L 338.700622 296.447248 
M 387.484168 352.875597 
L 210.966322 390.04 
M 331.493374 169.483463 
L 309.556534 202.4 
M 331.493374 169.483463 
L 387.799267 202.4 
M 331.493374 169.483463 
L 289.917076 164.781101 
M 331.493374 169.483463 
L 338.700622 108.352752 
M 275.69557 128.437213 
L 289.917076 164.781101 
M 275.69557 128.437213 
L 245.787614 155.49 
M 275.69557 128.437213 
L 338.700622 108.352752 
M 275.69557 128.437213 
L 228.376968 85.125 
M 206.116846 143.08645 
L 245.787614 155.49 
M 206.116846 143.08645 
L 210.398534 181.523086 
M 206.116846 143.08645 
L 228.376968 85.125 
M 206.116846 143.08645 
L 139.904267 150.207715 
M 275.69557 276.362787 
L 245.787614 249.31 
M 275.69557 276.362787 
L 289.917076 240.018899 
M 275.69557 276.362787 
L 228.376968 319.675 
M 275.69557 276.362787 
L 338.700622 296.447248 
M 175.1514 202.4 
L 210.398534 181.523086 
M 175.1514 202.4 
L 210.398534 223.276914 
M 175.1514 202.4 
L 139.904267 150.207715 
M 175.1514 202.4 
L 139.904267 254.592285 
L 139.904267 254.592285 
" clip-path="url(#p159683004b)" style="fill: none; stroke: #808080; stroke-opacity: 0.5; stroke-width: 1.5; stroke-linecap: square"/>
   </g>
   <g id="matplotlib.axis_1">
    <g id="xtick_1">
     <g id="line2d_2">
      <defs>
       <path id="m348faf7f55" d="M 0 0 
L 0 3.5 
" style="stroke: #000000; stroke-width: 0.8"/>
      </defs>
      <g>
       <use xlink:href="#m348faf7f55" x="100.909245" y="390.04" style="stroke: #000000; stroke-width: 0.8"/>
      </g>
     </g>
     <g id="text_1">
      <!-- −0.006 -->
      <g transform="translate(82.405339 404.638438) scale(0.1 -0.1)">
       <defs>
        <path id="DejaVuSans-2212" d="M 678 2272 
L 4684 2272 
L 4684 1741 
L 678 1741 
L 678 2272 
z
" transform="scale(0.015625)"/>
        <path id="DejaVuSans-30" d="M 2034 4250 
Q 1547 4250 1301 3770 
Q 1056 3291 1056 2328 
Q 1056 1369 1301 889 
Q 1547 409 2034 409 
Q 2525 409 2770 889 
Q 3016 1369 3016 2328 
Q 3016 3291 2770 3770 
Q 2525 4250 2034 4250 
z
M 2034 4750 
Q 2819 4750 3233 4129 
Q 3647 3509 3647 2328 
Q 3647 1150 3233 529 
Q 2819 -91 2034 -91 
Q 1250 -91 836 529 
Q 422 1150 422 2328 
Q 422 3509 836 4129 
Q 1250 4750 2034 4750 
z
" transform="scale(0.015625)"/>
        <path id="DejaVuSans-2e" d="M 684 794 
L 1344 794 
L 1344 0 
L 684 0 
L 684 794 
z
" transform="scale(0.015625)"/>
        <path id="DejaVuSans-36" d="M 2113 2584 
Q 1688 2584 1439 2293 
Q 1191 2003 1191 1497 
Q 1191 994 1439 701 
Q 1688 409 2113 409 
Q 2538 409 2786 701 
Q 3034 994 3034 1497 
Q 3034 2003 2786 2293 
Q 2538 2584 2113 2584 
z
M 3366 4563 
L 3366 3988 
Q 3128 4100 2886 4159 
Q 2644 4219 2406 4219 
Q 1781 4219 1451 3797 
Q 1122 3375 1075 2522 
Q 1259 2794 1537 2939 
Q 1816 3084 2150 3084 
Q 2853 3084 3261 2657 
Q 3669 2231 3669 1497 
Q 3669 778 3244 343 
Q 2819 -91 2113 -91 
Q 1303 -91 875 529 
Q 447 1150 447 2328 
Q 447 3434 972 4092 
Q 1497 4750 2381 4750 
Q 2619 4750 2861 4703 
Q 3103 4656 3366 4563 
z
" transform="scale(0.015625)"/>
       </defs>
       <use xlink:href="#DejaVuSans-2212"/>
       <use xlink:href="#DejaVuSans-30" x="83.789062"/>
       <use xlink:href="#DejaVuSans-2e" x="147.412109"/>
       <use xlink:href="#DejaVuSans-30" x="179.199219"/>
       <use xlink:href="#DejaVuSans-30" x="242.822266"/>
       <use xlink:href="#DejaVuSans-36" x="306.445312"/>
      </g>
     </g>
    </g>
    <g id="xtick_2">
     <g id="line2d_3">
      <g>
       <use xlink:href="#m348faf7f55" x="153.071067" y="390.04" style="stroke: #000000; stroke-width: 0.8"/>
      </g>
     </g>
     <g id="text_2">
      <!-- −0.004 -->
      <g transform="translate(134.567161 404.638438) scale(0.1 -0.1)">
       <defs>
        <path id="DejaVuSans-34" d="M 2419 4116 
L 825 1625 
L 2419 1625 
L 2419 4116 
z
M 2253 4666 
L 3047 4666 
L 3047 1625 
L 3713 1625 
L 3713 1100 
L 3047 1100 
L 3047 0 
L 2419 0 
L 2419 1100 
L 313 1100 
L 313 1709 
L 2253 4666 
z
" transform="scale(0.015625)"/>
       </defs>
       <use xlink:href="#DejaVuSans-2212"/>
       <use xlink:href="#DejaVuSans-30" x="83.789062"/>
       <use xlink:href="#DejaVuSans-2e" x="147.412109"/>
       <use xlink:href="#DejaVuSans-30" x="179.199219"/>
       <use xlink:href="#DejaVuSans-30" x="242.822266"/>
       <use xlink:href="#DejaVuSans-34" x="306.445312"/>
      </g>
     </g>
    </g>
    <g id="xtick_3">
     <g id="line2d_4">
      <g>
       <use xlink:href="#m348faf7f55" x="205.232889" y="390.04" style="stroke: #000000; stroke-width: 0.8"/>
      </g>
     </g>
     <g id="text_3">
      <!-- −0.002 -->
      <g transform="translate(186.728983 404.638438) scale(0.1 -0.1)">
       <defs>
        <path id="DejaVuSans-32" d="M 1228 531 
L 3431 531 
L 3431 0 
L 469 0 
L 469 531 
Q 828 903 1448 1529 
Q 2069 2156 2228 2338 
Q 2531 2678 2651 2914 
Q 2772 3150 2772 3378 
Q 2772 3750 2511 3984 
Q 2250 4219 1831 4219 
Q 1534 4219 1204 4116 
Q 875 4013 500 3803 
L 500 4441 
Q 881 4594 1212 4672 
Q 1544 4750 1819 4750 
Q 2544 4750 2975 4387 
Q 3406 4025 3406 3419 
Q 3406 3131 3298 2873 
Q 3191 2616 2906 2266 
Q 2828 2175 2409 1742 
Q 1991 1309 1228 531 
z
" transform="scale(0.015625)"/>
       </defs>
       <use xlink:href="#DejaVuSans-2212"/>
       <use xlink:href="#DejaVuSans-30" x="83.789062"/>
       <use xlink:href="#DejaVuSans-2e" x="147.412109"/>
       <use xlink:href="#DejaVuSans-30" x="179.199219"/>
       <use xlink:href="#DejaVuSans-30" x="242.822266"/>
       <use xlink:href="#DejaVuSans-32" x="306.445312"/>
      </g>
     </g>
    </g>
    <g id="xtick_4">
     <g id="line2d_5">
      <g>
       <use xlink:href="#m348faf7f55" x="257.394711" y="390.04" style="stroke: #000000; stroke-width: 0.8"/>
      </g>
     </g>
     <g id="text_4">
      <!-- 0.000 -->
      <g transform="translate(243.080649 404.638438) scale(0.1 -0.1)">
       <use xlink:href="#DejaVuSans-30"/>
       <use xlink:href="#DejaVuSans-2e" x="63.623047"/>
       <use xlink:href="#DejaVuSans-30" x="95.410156"/>
       <use xlink:href="#DejaVuSans-30" x="159.033203"/>
       <use xlink:href="#DejaVuSans-30" x="222.65625"/>
      </g>
     </g>
    </g>
    <g id="xtick_5">
     <g id="line2d_6">
      <g>
       <use xlink:href="#m348faf7f55" x="309.556534" y="390.04" style="stroke: #000000; stroke-width: 0.8"/>
      </g>
     </g>
     <g id="text_5">
      <!-- 0.002 -->
      <g transform="translate(295.242471 404.638438) scale(0.1 -0.1)">
       <use xlink:href="#DejaVuSans-30"/>
       <use xlink:href="#DejaVuSans-2e" x="63.623047"/>
       <use xlink:href="#DejaVuSans-30" x="95.410156"/>
       <use xlink:href="#DejaVuSans-30" x="159.033203"/>
       <use xlink:href="#DejaVuSans-32" x="222.65625"/>
      </g>
     </g>
    </g>
    <g id="xtick_6">
     <g id="line2d_7">
      <g>
       <use xlink:href="#m348faf7f55" x="361.718356" y="390.04" style="stroke: #000000; stroke-width: 0.8"/>
      </g>
     </g>
     <g id="text_6">
      <!-- 0.004 -->
      <g transform="translate(347.404293 404.638438) scale(0.1 -0.1)">
       <use xlink:href="#DejaVuSans-30"/>
       <use xlink:href="#DejaVuSans-2e" x="63.623047"/>
       <use xlink:href="#DejaVuSans-30" x="95.410156"/>
       <use xlink:href="#DejaVuSans-30" x="159.033203"/>
       <use xlink:href="#DejaVuSans-34" x="222.65625"/>
      </g>
     </g>
    </g>
    <g id="xtick_7">
     <g id="line2d_8">
      <g>
       <use xlink:href="#m348faf7f55" x="413.880178" y="390.04" style="stroke: #000000; stroke-width: 0.8"/>
      </g>
     </g>
     <g id="text_7">
      <!-- 0.006 -->
      <g transform="translate(399.566115 404.638438) scale(0.1 -0.1)">
       <use xlink:href="#DejaVuSans-30"/>
       <use xlink:href="#DejaVuSans-2e" x="63.623047"/>
       <use xlink:href="#DejaVuSans-30" x="95.410156"/>
       <use xlink:href="#DejaVuSans-30" x="159.033203"/>
       <use xlink:href="#DejaVuSans-36" x="222.65625"/>
      </g>
     </g>
    </g>
    <g id="xtick_8">
     <g id="line2d_9">
      <g>
       <use xlink:href="#m348faf7f55" x="466.042" y="390.04" style="stroke: #000000; stroke-width: 0.8"/>
      </g>
     </g>
     <g id="text_8">
      <!-- 0.008 -->
      <g transform="translate(451.727937 404.638438) scale(0.1 -0.1)">
       <defs>
        <path id="DejaVuSans-38" d="M 2034 2216 
Q 1584 2216 1326 1975 
Q 1069 1734 1069 1313 
Q 1069 891 1326 650 
Q 1584 409 2034 409 
Q 2484 409 2743 651 
Q 3003 894 3003 1313 
Q 3003 1734 2745 1975 
Q 2488 2216 2034 2216 
z
M 1403 2484 
Q 997 2584 770 2862 
Q 544 3141 544 3541 
Q 544 4100 942 4425 
Q 1341 4750 2034 4750 
Q 2731 4750 3128 4425 
Q 3525 4100 3525 3541 
Q 3525 3141 3298 2862 
Q 3072 2584 2669 2484 
Q 3125 2378 3379 2068 
Q 3634 1759 3634 1313 
Q 3634 634 3220 271 
Q 2806 -91 2034 -91 
Q 1263 -91 848 271 
Q 434 634 434 1313 
Q 434 1759 690 2068 
Q 947 2378 1403 2484 
z
M 1172 3481 
Q 1172 3119 1398 2916 
Q 1625 2713 2034 2713 
Q 2441 2713 2670 2916 
Q 2900 3119 2900 3481 
Q 2900 3844 2670 4047 
Q 2441 4250 2034 4250 
Q 1625 4250 1398 4047 
Q 1172 3844 1172 3481 
z
" transform="scale(0.015625)"/>
       </defs>
       <use xlink:href="#DejaVuSans-30"/>
       <use xlink:href="#DejaVuSans-2e" x="63.623047"/>
       <use xlink:href="#DejaVuSans-30" x="95.410156"/>
       <use xlink:href="#DejaVuSans-30" x="159.033203"/>
       <use xlink:href="#DejaVuSans-38" x="222.65625"/>
      </g>
     </g>
    </g>
    <g id="text_9">
     <!-- $x$ -->
     <g transform="translate(264.726 418.316562) scale(0.1 -0.1)">
      <defs>
       <path id="DejaVuSans-Oblique-78" d="M 3841 3500 
L 2234 1784 
L 3219 0 
L 2559 0 
L 1819 1388 
L 531 0 
L -166 0 
L 1556 1844 
L 641 3500 
L 1300 3500 
L 1972 2234 
L 3144 3500 
L 3841 3500 
z
" transform="scale(0.015625)"/>
      </defs>
      <use xlink:href="#DejaVuSans-Oblique-78" transform="translate(0 0.3125)"/>
     </g>
    </g>
   </g>
   <g id="matplotlib.axis_2">
    <g id="ytick_1">
     <g id="line2d_10">
      <defs>
       <path id="m1b040bd6c9" d="M 0 0 
L -3.5 0 
" style="stroke: #000000; stroke-width: 0.8"/>
      </defs>
      <g>
       <use xlink:href="#m1b040bd6c9" x="69.41" y="346.749134" style="stroke: #000000; stroke-width: 0.8"/>
      </g>
     </g>
     <g id="text_10">
      <!-- −0.006 -->
      <g transform="translate(25.402187 350.548353) scale(0.1 -0.1)">
       <use xlink:href="#DejaVuSans-2212"/>
       <use xlink:href="#DejaVuSans-30" x="83.789062"/>
       <use xlink:href="#DejaVuSans-2e" x="147.412109"/>
       <use xlink:href="#DejaVuSans-30" x="179.199219"/>
       <use xlink:href="#DejaVuSans-30" x="242.822266"/>
       <use xlink:href="#DejaVuSans-36" x="306.445312"/>
      </g>
     </g>
    </g>
    <g id="ytick_2">
     <g id="line2d_11">
      <g>
       <use xlink:href="#m1b040bd6c9" x="69.41" y="298.632756" style="stroke: #000000; stroke-width: 0.8"/>
      </g>
     </g>
     <g id="text_11">
      <!-- −0.004 -->
      <g transform="translate(25.402187 302.431975) scale(0.1 -0.1)">
       <use xlink:href="#DejaVuSans-2212"/>
       <use xlink:href="#DejaVuSans-30" x="83.789062"/>
       <use xlink:href="#DejaVuSans-2e" x="147.412109"/>
       <use xlink:href="#DejaVuSans-30" x="179.199219"/>
       <use xlink:href="#DejaVuSans-30" x="242.822266"/>
       <use xlink:href="#DejaVuSans-34" x="306.445312"/>
      </g>
     </g>
    </g>
    <g id="ytick_3">
     <g id="line2d_12">
      <g>
       <use xlink:href="#m1b040bd6c9" x="69.41" y="250.516378" style="stroke: #000000; stroke-width: 0.8"/>
      </g>
     </g>
     <g id="text_12">
      <!-- −0.002 -->
      <g transform="translate(25.402187 254.315597) scale(0.1 -0.1)">
       <use xlink:href="#DejaVuSans-2212"/>
       <use xlink:href="#DejaVuSans-30" x="83.789062"/>
       <use xlink:href="#DejaVuSans-2e" x="147.412109"/>
       <use xlink:href="#DejaVuSans-30" x="179.199219"/>
       <use xlink:href="#DejaVuSans-30" x="242.822266"/>
       <use xlink:href="#DejaVuSans-32" x="306.445312"/>
      </g>
     </g>
    </g>
    <g id="ytick_4">
     <g id="line2d_13">
      <g>
       <use xlink:href="#m1b040bd6c9" x="69.41" y="202.4" style="stroke: #000000; stroke-width: 0.8"/>
      </g>
     </g>
     <g id="text_13">
      <!-- 0.000 -->
      <g transform="translate(33.781875 206.199219) scale(0.1 -0.1)">
       <use xlink:href="#DejaVuSans-30"/>
       <use xlink:href="#DejaVuSans-2e" x="63.623047"/>
       <use xlink:href="#DejaVuSans-30" x="95.410156"/>
       <use xlink:href="#DejaVuSans-30" x="159.033203"/>
       <use xlink:href="#DejaVuSans-30" x="222.65625"/>
      </g>
     </g>
    </g>
    <g id="ytick_5">
     <g id="line2d_14">
      <g>
       <use xlink:href="#m1b040bd6c9" x="69.41" y="154.283622" style="stroke: #000000; stroke-width: 0.8"/>
      </g>
     </g>
     <g id="text_14">
      <!-- 0.002 -->
      <g transform="translate(33.781875 158.082841) scale(0.1 -0.1)">
       <use xlink:href="#DejaVuSans-30"/>
       <use xlink:href="#DejaVuSans-2e" x="63.623047"/>
       <use xlink:href="#DejaVuSans-30" x="95.410156"/>
       <use xlink:href="#DejaVuSans-30" x="159.033203"/>
       <use xlink:href="#DejaVuSans-32" x="222.65625"/>
      </g>
     </g>
    </g>
    <g id="ytick_6">
     <g id="line2d_15">
      <g>
       <use xlink:href="#m1b040bd6c9" x="69.41" y="106.167244" style="stroke: #000000; stroke-width: 0.8"/>
      </g>
     </g>
     <g id="text_15">
      <!-- 0.004 -->
      <g transform="translate(33.781875 109.966463) scale(0.1 -0.1)">
       <use xlink:href="#DejaVuSans-30"/>
       <use xlink:href="#DejaVuSans-2e" x="63.623047"/>
       <use xlink:href="#DejaVuSans-30" x="95.410156"/>
       <use xlink:href="#DejaVuSans-30" x="159.033203"/>
       <use xlink:href="#DejaVuSans-34" x="222.65625"/>
      </g>
     </g>
    </g>
    <g id="ytick_7">
     <g id="line2d_16">
      <g>
       <use xlink:href="#m1b040bd6c9" x="69.41" y="58.050866" style="stroke: #000000; stroke-width: 0.8"/>
      </g>
     </g>
     <g id="text_16">
      <!-- 0.006 -->
      <g transform="translate(33.781875 61.850085) scale(0.1 -0.1)">
       <use xlink:href="#DejaVuSans-30"/>
       <use xlink:href="#DejaVuSans-2e" x="63.623047"/>
       <use xlink:href="#DejaVuSans-30" x="95.410156"/>
       <use xlink:href="#DejaVuSans-30" x="159.033203"/>
       <use xlink:href="#DejaVuSans-36" x="222.65625"/>
      </g>
     </g>
    </g>
    <g id="text_17">
     <!-- $y$ -->
     <g transform="translate(19.302187 205.4) rotate(-90) scale(0.1 -0.1)">
      <defs>
       <path id="DejaVuSans-Oblique-79" d="M 1588 -325 
Q 1188 -997 936 -1164 
Q 684 -1331 294 -1331 
L -159 -1331 
L -63 -850 
L 269 -850 
Q 509 -850 678 -719 
Q 847 -588 1056 -206 
L 1234 128 
L 459 3500 
L 1069 3500 
L 1650 819 
L 3256 3500 
L 3859 3500 
L 1588 -325 
z
" transform="scale(0.015625)"/>
      </defs>
      <use xlink:href="#DejaVuSans-Oblique-79" transform="translate(0 0.3125)"/>
     </g>
    </g>
   </g>
   <g id="line2d_17"/>
   <g id="patch_3">
    <path d="M 69.41 390.04 
L 69.41 14.76 
" style="fill: none; stroke: #000000; stroke-width: 0.8; stroke-linejoin: miter; stroke-linecap: square"/>
   </g>
   <g id="patch_4">
    <path d="M 466.042 390.04 
L 466.042 14.76 
" style="fill: none; stroke: #000000; stroke-width: 0.8; stroke-linejoin: miter; stroke-linecap: square"/>
   </g>
   <g id="patch_5">
    <path d="M 69.41 390.04 
L 466.042 390.04 
" style="fill: none; stroke: #000000; stroke-width: 0.8; stroke-linejoin: miter; stroke-linecap: square"/>
   </g>
   <g id="patch_6">
    <path d="M 69.41 14.76 
L 466.042 14.76 
" style="fill: none; stroke: #000000; stroke-width: 0.8; stroke-linejoin: miter; stroke-linecap: square"/>
   </g>
  </g>
  <g id="axes_2">
   <g id="patch_7">
    <path d="M 490.8315 390.04 
L 509.5955 390.04 
L 509.5955 14.76 
L 490.8315 14.76 
z
" style="fill: #ffffff"/>
   </g>
   <g id="QuadMesh_1">
    <path d="M 490.8315 390.04 
L 509.5955 390.04 
L 509.5955 336.428571 
L 490.8315 336.428571 
L 490.8315 390.04 
" clip-path="url(#p0443037f65)" style="fill: #481b6d"/>
    <path d="M 490.8315 336.428571 
L 509.5955 336.428571 
L 509.5955 282.817143 
L 490.8315 282.817143 
L 490.8315 336.428571 
" clip-path="url(#p0443037f65)" style="fill: #3f4788"/>
    <path d="M 490.8315 282.817143 
L 509.5955 282.817143 
L 509.5955 229.205714 
L 490.8315 229.205714 
L 490.8315 282.817143 
" clip-path="url(#p0443037f65)" style="fill: #2e6e8e"/>
    <path d="M 490.8315 229.205714 
L 509.5955 229.205714 
L 509.5955 175.594286 
L 490.8315 175.594286 
L 490.8315 229.205714 
" clip-path="url(#p0443037f65)" style="fill: #21918c"/>
    <path d="M 490.8315 175.594286 
L 509.5955 175.594286 
L 509.5955 121.982857 
L 490.8315 121.982857 
L 490.8315 175.594286 
" clip-path="url(#p0443037f65)" style="fill: #2db27d"/>
    <path d="M 490.8315 121.982857 
L 509.5955 121.982857 
L 509.5955 68.371429 
L 490.8315 68.371429 
L 490.8315 121.982857 
" clip-path="url(#p0443037f65)" style="fill: #73d056"/>
    <path d="M 490.8315 68.371429 
L 509.5955 68.371429 
L 509.5955 14.76 
L 490.8315 14.76 
L 490.8315 68.371429 
" clip-path="url(#p0443037f65)" style="fill: #d0e11c"/>
   </g>
   <g id="matplotlib.axis_3"/>
   <g id="matplotlib.axis_4">
    <g id="ytick_8">
     <g id="line2d_18">
      <defs>
       <path id="m982f5c8cea" d="M 0 0 
L 3.5 0 
" style="stroke: #000000; stroke-width: 0.8"/>
      </defs>
      <g>
       <use xlink:href="#m982f5c8cea" x="509.5955" y="390.04" style="stroke: #000000; stroke-width: 0.8"/>
      </g>
     </g>
     <g id="text_18">
      <!-- 0.00 -->
      <g transform="translate(516.5955 393.839219) scale(0.1 -0.1)">
       <use xlink:href="#DejaVuSans-30"/>
       <use xlink:href="#DejaVuSans-2e" x="63.623047"/>
       <use xlink:href="#DejaVuSans-30" x="95.410156"/>
       <use xlink:href="#DejaVuSans-30" x="159.033203"/>
      </g>
     </g>
    </g>
    <g id="ytick_9">
     <g id="line2d_19">
      <g>
       <use xlink:href="#m982f5c8cea" x="509.5955" y="336.428571" style="stroke: #000000; stroke-width: 0.8"/>
      </g>
     </g>
     <g id="text_19">
      <!-- 0.15 -->
      <g transform="translate(516.5955 340.22779) scale(0.1 -0.1)">
       <defs>
        <path id="DejaVuSans-31" d="M 794 531 
L 1825 531 
L 1825 4091 
L 703 3866 
L 703 4441 
L 1819 4666 
L 2450 4666 
L 2450 531 
L 3481 531 
L 3481 0 
L 794 0 
L 794 531 
z
" transform="scale(0.015625)"/>
        <path id="DejaVuSans-35" d="M 691 4666 
L 3169 4666 
L 3169 4134 
L 1269 4134 
L 1269 2991 
Q 1406 3038 1543 3061 
Q 1681 3084 1819 3084 
Q 2600 3084 3056 2656 
Q 3513 2228 3513 1497 
Q 3513 744 3044 326 
Q 2575 -91 1722 -91 
Q 1428 -91 1123 -41 
Q 819 9 494 109 
L 494 744 
Q 775 591 1075 516 
Q 1375 441 1709 441 
Q 2250 441 2565 725 
Q 2881 1009 2881 1497 
Q 2881 1984 2565 2268 
Q 2250 2553 1709 2553 
Q 1456 2553 1204 2497 
Q 953 2441 691 2322 
L 691 4666 
z
" transform="scale(0.015625)"/>
       </defs>
       <use xlink:href="#DejaVuSans-30"/>
       <use xlink:href="#DejaVuSans-2e" x="63.623047"/>
       <use xlink:href="#DejaVuSans-31" x="95.410156"/>
       <use xlink:href="#DejaVuSans-35" x="159.033203"/>
      </g>
     </g>
    </g>
    <g id="ytick_10">
     <g id="line2d_20">
      <g>
       <use xlink:href="#m982f5c8cea" x="509.5955" y="282.817143" style="stroke: #000000; stroke-width: 0.8"/>
      </g>
     </g>
     <g id="text_20">
      <!-- 0.30 -->
      <g transform="translate(516.5955 286.616362) scale(0.1 -0.1)">
       <defs>
        <path id="DejaVuSans-33" d="M 2597 2516 
Q 3050 2419 3304 2112 
Q 3559 1806 3559 1356 
Q 3559 666 3084 287 
Q 2609 -91 1734 -91 
Q 1441 -91 1130 -33 
Q 819 25 488 141 
L 488 750 
Q 750 597 1062 519 
Q 1375 441 1716 441 
Q 2309 441 2620 675 
Q 2931 909 2931 1356 
Q 2931 1769 2642 2001 
Q 2353 2234 1838 2234 
L 1294 2234 
L 1294 2753 
L 1863 2753 
Q 2328 2753 2575 2939 
Q 2822 3125 2822 3475 
Q 2822 3834 2567 4026 
Q 2313 4219 1838 4219 
Q 1578 4219 1281 4162 
Q 984 4106 628 3988 
L 628 4550 
Q 988 4650 1302 4700 
Q 1616 4750 1894 4750 
Q 2613 4750 3031 4423 
Q 3450 4097 3450 3541 
Q 3450 3153 3228 2886 
Q 3006 2619 2597 2516 
z
" transform="scale(0.015625)"/>
       </defs>
       <use xlink:href="#DejaVuSans-30"/>
       <use xlink:href="#DejaVuSans-2e" x="63.623047"/>
       <use xlink:href="#DejaVuSans-33" x="95.410156"/>
       <use xlink:href="#DejaVuSans-30" x="159.033203"/>
      </g>
     </g>
    </g>
    <g id="ytick_11">
     <g id="line2d_21">
      <g>
       <use xlink:href="#m982f5c8cea" x="509.5955" y="229.205714" style="stroke: #000000; stroke-width: 0.8"/>
      </g>
     </g>
     <g id="text_21">
      <!-- 0.45 -->
      <g transform="translate(516.5955 233.004933) scale(0.1 -0.1)">
       <use xlink:href="#DejaVuSans-30"/>
       <use xlink:href="#DejaVuSans-2e" x="63.623047"/>
       <use xlink:href="#DejaVuSans-34" x="95.410156"/>
       <use xlink:href="#DejaVuSans-35" x="159.033203"/>
      </g>
     </g>
    </g>
    <g id="ytick_12">
     <g id="line2d_22">
      <g>
       <use xlink:href="#m982f5c8cea" x="509.5955" y="175.594286" style="stroke: #000000; stroke-width: 0.8"/>
      </g>
     </g>
     <g id="text_22">
      <!-- 0.60 -->
      <g transform="translate(516.5955 179.393504) scale(0.1 -0.1)">
       <use xlink:href="#DejaVuSans-30"/>
       <use xlink:href="#DejaVuSans-2e" x="63.623047"/>
       <use xlink:href="#DejaVuSans-36" x="95.410156"/>
       <use xlink:href="#DejaVuSans-30" x="159.033203"/>
      </g>
     </g>
    </g>
    <g id="ytick_13">
     <g id="line2d_23">
      <g>
       <use xlink:href="#m982f5c8cea" x="509.5955" y="121.982857" style="stroke: #000000; stroke-width: 0.8"/>
      </g>
     </g>
     <g id="text_23">
      <!-- 0.75 -->
      <g transform="translate(516.5955 125.782076) scale(0.1 -0.1)">
       <defs>
        <path id="DejaVuSans-37" d="M 525 4666 
L 3525 4666 
L 3525 4397 
L 1831 0 
L 1172 0 
L 2766 4134 
L 525 4134 
L 525 4666 
z
" transform="scale(0.015625)"/>
       </defs>
       <use xlink:href="#DejaVuSans-30"/>
       <use xlink:href="#DejaVuSans-2e" x="63.623047"/>
       <use xlink:href="#DejaVuSans-37" x="95.410156"/>
       <use xlink:href="#DejaVuSans-35" x="159.033203"/>
      </g>
     </g>
    </g>
    <g id="ytick_14">
     <g id="line2d_24">
      <g>
       <use xlink:href="#m982f5c8cea" x="509.5955" y="68.371429" style="stroke: #000000; stroke-width: 0.8"/>
      </g>
     </g>
     <g id="text_24">
      <!-- 0.90 -->
      <g transform="translate(516.5955 72.170647) scale(0.1 -0.1)">
       <defs>
        <path id="DejaVuSans-39" d="M 703 97 
L 703 672 
Q 941 559 1184 500 
Q 1428 441 1663 441 
Q 2288 441 2617 861 
Q 2947 1281 2994 2138 
Q 2813 1869 2534 1725 
Q 2256 1581 1919 1581 
Q 1219 1581 811 2004 
Q 403 2428 403 3163 
Q 403 3881 828 4315 
Q 1253 4750 1959 4750 
Q 2769 4750 3195 4129 
Q 3622 3509 3622 2328 
Q 3622 1225 3098 567 
Q 2575 -91 1691 -91 
Q 1453 -91 1209 -44 
Q 966 3 703 97 
z
M 1959 2075 
Q 2384 2075 2632 2365 
Q 2881 2656 2881 3163 
Q 2881 3666 2632 3958 
Q 2384 4250 1959 4250 
Q 1534 4250 1286 3958 
Q 1038 3666 1038 3163 
Q 1038 2656 1286 2365 
Q 1534 2075 1959 2075 
z
" transform="scale(0.015625)"/>
       </defs>
       <use xlink:href="#DejaVuSans-30"/>
       <use xlink:href="#DejaVuSans-2e" x="63.623047"/>
       <use xlink:href="#DejaVuSans-39" x="95.410156"/>
       <use xlink:href="#DejaVuSans-30" x="159.033203"/>
      </g>
     </g>
    </g>
    <g id="ytick_15">
     <g id="line2d_25">
      <g>
       <use xlink:href="#m982f5c8cea" x="509.5955" y="14.76" style="stroke: #000000; stroke-width: 0.8"/>
      </g>
     </g>
     <g id="text_25">
      <!-- 1.05 -->
      <g transform="translate(516.5955 18.559219) scale(0.1 -0.1)">
       <use xlink:href="#DejaVuSans-31"/>
       <use xlink:href="#DejaVuSans-2e" x="63.623047"/>
       <use xlink:href="#DejaVuSans-30" x="95.410156"/>
       <use xlink:href="#DejaVuSans-35" x="159.033203"/>
      </g>
     </g>
    </g>
    <g id="text_26">
     <!-- $u(x, y)$ -->
     <g transform="translate(550.461125 218) rotate(-90) scale(0.1 -0.1)">
      <defs>
       <path id="DejaVuSans-Oblique-75" d="M 428 1388 
L 838 3500 
L 1416 3500 
L 1006 1409 
Q 975 1256 961 1147 
Q 947 1038 947 966 
Q 947 700 1109 554 
Q 1272 409 1569 409 
Q 2031 409 2368 721 
Q 2706 1034 2809 1563 
L 3194 3500 
L 3769 3500 
L 3091 0 
L 2516 0 
L 2631 550 
Q 2388 244 2052 76 
Q 1716 -91 1338 -91 
Q 878 -91 622 161 
Q 366 413 366 863 
Q 366 956 381 1097 
Q 397 1238 428 1388 
z
" transform="scale(0.015625)"/>
       <path id="DejaVuSans-28" d="M 1984 4856 
Q 1566 4138 1362 3434 
Q 1159 2731 1159 2009 
Q 1159 1288 1364 580 
Q 1569 -128 1984 -844 
L 1484 -844 
Q 1016 -109 783 600 
Q 550 1309 550 2009 
Q 550 2706 781 3412 
Q 1013 4119 1484 4856 
L 1984 4856 
z
" transform="scale(0.015625)"/>
       <path id="DejaVuSans-2c" d="M 750 794 
L 1409 794 
L 1409 256 
L 897 -744 
L 494 -744 
L 750 256 
L 750 794 
z
" transform="scale(0.015625)"/>
       <path id="DejaVuSans-29" d="M 513 4856 
L 1013 4856 
Q 1481 4119 1714 3412 
Q 1947 2706 1947 2009 
Q 1947 1309 1714 600 
Q 1481 -109 1013 -844 
L 513 -844 
Q 928 -128 1133 580 
Q 1338 1288 1338 2009 
Q 1338 2731 1133 3434 
Q 928 4138 513 4856 
z
" transform="scale(0.015625)"/>
      </defs>
      <use xlink:href="#DejaVuSans-Oblique-75" transform="translate(0 0.125)"/>
      <use xlink:href="#DejaVuSans-28" transform="translate(63.378906 0.125)"/>
      <use xlink:href="#DejaVuSans-Oblique-78" transform="translate(102.392578 0.125)"/>
      <use xlink:href="#DejaVuSans-2c" transform="translate(161.572266 0.125)"/>
      <use xlink:href="#DejaVuSans-Oblique-79" transform="translate(212.841797 0.125)"/>
      <use xlink:href="#DejaVuSans-29" transform="translate(272.021484 0.125)"/>
     </g>
    </g>
   </g>
   <g id="LineCollection_1"/>
   <g id="patch_8">
    <path d="M 490.8315 390.04 
L 500.2135 390.04 
L 509.5955 390.04 
L 509.5955 14.76 
L 500.2135 14.76 
L 490.8315 14.76 
L 490.8315 390.04 
z
" style="fill: none; stroke: #000000; stroke-width: 0.8; stroke-linejoin: miter; stroke-linecap: square"/>
   </g>
  </g>
 </g>
 <defs>
  <clipPath id="p159683004b">
   <rect x="69.41" y="14.76" width="396.632" height="375.28"/>
  </clipPath>
  <clipPath id="p0443037f65">
   <rect x="490.8315" y="14.76" width="18.764" height="375.28"/>
  </clipPath>
 </defs>
</svg>
