<?xml version="1.0" encoding="utf-8" standalone="no"?>
<!DOCTYPE svg PUBLIC "-//W3C//DTD SVG 1.1//EN"
  "http://www.w3.org/Graphics/SVG/1.1/DTD/svg11.dtd">
<svg xmlns:xlink="http://www.w3.org/1999/xlink" width="576pt" height="432pt" viewBox="0 0 576 432" xmlns="http://www.w3.org/2000/svg" version="1.1">
 <metadata>
  <rdf:RDF xmlns:dc="http://purl.org/dc/elements/1.1/" xmlns:cc="http://creativecommons.org/ns#" xmlns:rdf="http://www.w3.org/1999/02/22-rdf-syntax-ns#">
   <cc:Work>
    <dc:type rdf:resource="http://purl.org/dc/dcmitype/StillImage"/>
    <dc:date>2024-12-04T17:02:53.539549</dc:date>
    <dc:format>image/svg+xml</dc:format>
    <dc:creator>
     <cc:Agent>
      <dc:title>Matplotlib v3.8.3, https://matplotlib.org/</dc:title>
     </cc:Agent>
    </dc:creator>
   </cc:Work>
  </rdf:RDF>
 </metadata>
 <defs>
  <style type="text/css">*{stroke-linejoin: round; stroke-linecap: butt}</style>
 </defs>
 <g id="figure_1">
  <g id="patch_1">
   <path d="M 0 432 
L 576 432 
L 576 0 
L 0 0 
z
" style="fill: #ffffff"/>
  </g>
  <g id="axes_1">
   <g id="patch_2">
    <path d="M 69.41 390.04 
L 466.042 390.04 
L 466.042 14.76 
L 69.41 14.76 
z
" style="fill: #ffffff"/>
   </g>
   <g id="TriContourSet_1">
    <path d="M 219.561697 213.626889 
L 219.561697 191.173111 
L 230.590769 171.291277 
L 250.122286 158.536076 
L 273.681813 155.829572 
L 295.872146 163.791792 
L 311.609747 180.598687 
L 317.289321 202.4 
L 311.609747 224.201313 
L 295.872146 241.008208 
L 273.681813 248.970428 
L 250.122286 246.263924 
L 230.590769 233.508723 
z
M 326.307647 194.115852 
L 323.741009 184.263692 
L 315.303416 169.05934 
L 308.182301 161.454379 
L 293.733661 152.043411 
L 283.702118 148.443945 
L 265.72355 146.401672 
L 255.078819 147.624532 
L 238.704591 153.504312 
L 229.750342 159.35195 
L 217.862286 172.146201 
L 212.885332 181.118032 
L 208.713303 197.241186 
L 208.713303 207.338031 
L 212.885377 223.6819 
L 217.862372 232.653805 
L 229.750342 245.448049 
L 238.704592 251.295688 
L 255.078819 257.175467 
L 265.72355 258.398328 
L 283.702118 256.356055 
L 293.733661 252.756589 
L 308.182319 243.345624 
L 315.303422 235.740677 
L 323.718687 220.651926 
L 326.310706 210.702338 
z
" clip-path="url(#p47ff464387)" style="fill: #481b6d"/>
    <path d="M 326.310706 210.702338 
L 323.718687 220.651926 
L 315.303422 235.740677 
L 308.182319 243.345624 
L 293.733661 252.756589 
L 283.702118 256.356055 
L 265.72355 258.398328 
L 255.078819 257.175467 
L 238.704592 251.295688 
L 229.750342 245.448049 
L 217.862372 232.653805 
L 212.885377 223.6819 
L 208.713303 207.338031 
L 208.713303 197.241186 
L 212.885332 181.118032 
L 217.862286 172.146201 
L 229.750342 159.35195 
L 238.704591 153.504312 
L 255.078819 147.624532 
L 265.72355 146.401672 
L 283.702118 148.443945 
L 293.733661 152.043411 
L 308.182301 161.454379 
L 315.303416 169.05934 
L 323.741009 184.263692 
L 326.307647 194.115852 
z
M 336.310405 189.271611 
L 336.066149 186.918133 
L 335.056121 184.385923 
L 321.55193 160.071817 
L 319.895745 157.869547 
L 318.015233 156.382588 
L 295.084039 141.438695 
L 292.899963 140.3112 
L 290.134296 139.68539 
L 261.382702 136.415408 
L 258.535318 136.476391 
L 256.135595 137.119365 
L 229.839263 146.673689 
L 227.889258 147.620764 
L 226.028184 149.231136 
L 206.653 169.90596 
L 205.118859 172.165285 
L 204.340814 174.31447 
L 197.711728 199.831328 
L 197.388098 202.195958 
L 197.708177 204.601217 
L 204.323571 230.412434 
L 205.117421 232.630556 
L 206.653045 234.893862 
L 226.028187 255.568864 
L 227.889259 257.179235 
L 229.839263 258.126309 
L 256.135595 267.680635 
L 258.535318 268.323609 
L 261.382701 268.384592 
L 290.134296 265.114611 
L 292.899963 264.488801 
L 295.08404 263.361305 
L 318.015228 248.417455 
L 319.895793 246.930518 
L 321.550074 244.7317 
L 335.082169 220.333245 
L 336.015105 217.997834 
L 336.24142 215.823795 
z
" clip-path="url(#p47ff464387)" style="fill: #3f4788"/>
    <path d="M 336.24142 215.823795 
L 336.015105 217.997834 
L 335.082169 220.333245 
L 321.550074 244.7317 
L 319.895793 246.930518 
L 318.015228 248.417455 
L 295.08404 263.361305 
L 292.899963 264.488801 
L 290.134296 265.114611 
L 261.382701 268.384592 
L 258.535318 268.323609 
L 256.135595 267.680635 
L 229.839263 258.126309 
L 227.889259 257.179235 
L 226.028187 255.568864 
L 206.653045 234.893862 
L 205.117421 232.630556 
L 204.323571 230.412434 
L 197.708177 204.601217 
L 197.388098 202.195958 
L 197.711728 199.831328 
L 204.340814 174.31447 
L 205.118859 172.165285 
L 206.653 169.90596 
L 226.028184 149.231136 
L 227.889258 147.620764 
L 229.839263 146.673689 
L 256.135595 137.119365 
L 258.535318 136.476391 
L 261.382702 136.415408 
L 290.134296 139.68539 
L 292.899963 140.3112 
L 295.084039 141.438695 
L 318.015233 156.382588 
L 319.895745 157.869547 
L 321.55193 160.071817 
L 335.056121 184.385923 
L 336.066149 186.918133 
L 336.310405 189.271611 
z
M 350.938256 200.588849 
L 349.302173 184.82471 
L 342.536769 167.863376 
L 339.966898 163.236359 
L 328.76759 148.344369 
L 316.051361 138.289382 
L 312.886988 136.227211 
L 298.219298 128.655245 
L 279.645805 124.452467 
L 274.004544 123.810874 
L 254.957896 124.218802 
L 238.905724 128.519765 
L 235.055427 129.918705 
L 220.39717 137.037899 
L 206.407423 149.143115 
L 202.476105 153.338136 
L 192.306251 168.315248 
L 187.148575 182.562239 
L 186.025825 186.883959 
L 183.932761 202.177097 
L 186.002862 217.733004 
L 187.033083 221.752609 
L 192.295837 236.457448 
L 202.476114 251.461827 
L 206.407424 255.656885 
L 220.39717 267.7621 
L 235.055426 274.881294 
L 238.905725 276.280234 
L 254.957897 280.581197 
L 274.004543 280.989126 
L 279.645805 280.347533 
L 298.219303 276.144756 
L 312.886989 268.572789 
L 316.05136 266.510625 
L 328.767782 256.455927 
L 339.954062 241.58747 
L 342.546351 236.913556 
L 349.292172 220.026803 
L 350.928596 204.306885 
z
" clip-path="url(#p47ff464387)" style="fill: #2e6e8e"/>
    <path d="M 350.928596 204.306885 
L 349.292172 220.026803 
L 342.546351 236.913556 
L 339.954062 241.58747 
L 328.767782 256.455927 
L 316.05136 266.510625 
L 312.886989 268.572789 
L 298.219303 276.144756 
L 279.645805 280.347533 
L 274.004543 280.989126 
L 254.957897 280.581197 
L 238.905725 276.280234 
L 235.055426 274.881294 
L 220.39717 267.7621 
L 206.407424 255.656885 
L 202.476114 251.461827 
L 192.295837 236.457448 
L 187.033083 221.752609 
L 186.002862 217.733004 
L 183.932761 202.177097 
L 186.025825 186.883959 
L 187.148575 182.562239 
L 192.306251 168.315248 
L 202.476105 153.338136 
L 206.407423 149.143115 
L 220.39717 137.037899 
L 235.055427 129.918705 
L 238.905724 128.519765 
L 254.957896 124.218802 
L 274.004544 123.810874 
L 279.645805 124.452467 
L 298.219298 128.655245 
L 312.886988 136.227211 
L 316.051361 138.289382 
L 328.76759 148.344369 
L 339.966898 163.236359 
L 342.536769 167.863376 
L 349.302173 184.82471 
L 350.938256 200.588849 
z
M 183.65642 251.692808 
L 191.361648 262.731932 
L 200.670228 271.346566 
L 206.328757 276.074141 
L 218.299061 283.681509 
L 223.370777 286.359746 
L 237.967646 291.918063 
L 242.777737 293.121361 
L 257.830032 295.800871 
L 264.777692 295.979188 
L 278.002377 296.019982 
L 290.836387 293.474749 
L 297.894074 291.768907 
L 311.666707 286.405913 
L 316.356331 284.166077 
L 329.48415 275.831299 
L 333.359828 272.630155 
L 344.009614 262.368436 
L 348.103511 257.00924 
L 355.530458 246.623416 
L 360.48441 235.048356 
L 362.906179 228.693271 
L 365.896608 214.96128 
L 366.594331 209.823274 
L 366.562321 194.882604 
L 365.909971 190.028965 
L 362.905763 176.099003 
L 360.493842 169.772785 
L 355.534173 158.181664 
L 348.099019 147.783754 
L 344.011359 142.433777 
L 333.35904 132.16909 
L 329.484321 128.968892 
L 316.356265 120.633898 
L 311.66674 118.394109 
L 297.894068 113.031089 
L 290.836388 111.32525 
L 278.002377 108.780018 
L 264.777692 108.820812 
L 257.830032 108.999129 
L 242.777737 111.678639 
L 237.967646 112.881937 
L 223.370776 118.440253 
L 218.299061 121.118489 
L 206.328759 128.72586 
L 200.670228 133.453437 
L 191.36165 142.068069 
L 183.656422 153.107191 
L 180.229338 158.119012 
L 174.25135 171.265299 
L 172.660769 175.576775 
L 169.431858 189.775815 
L 168.848294 195.552162 
L 168.796586 208.663157 
L 169.344752 214.527036 
L 172.613497 229.077924 
L 174.203376 233.394769 
L 180.226478 246.676798 
z
" clip-path="url(#p47ff464387)" style="fill: #21918c"/>
    <path d="M 180.226478 246.676798 
L 174.203376 233.394769 
L 172.613497 229.077924 
L 169.344752 214.527036 
L 168.796586 208.663157 
L 168.848294 195.552162 
L 169.431858 189.775815 
L 172.660769 175.576775 
L 174.25135 171.265299 
L 180.229338 158.119012 
L 183.656422 153.107191 
L 191.36165 142.068069 
L 200.670228 133.453437 
L 206.328759 128.72586 
L 218.299061 121.118489 
L 223.370776 118.440253 
L 237.967646 112.881937 
L 242.777737 111.678639 
L 257.830032 108.999129 
L 264.777692 108.820812 
L 278.002377 108.780018 
L 290.836388 111.32525 
L 297.894068 113.031089 
L 311.66674 118.394109 
L 316.356265 120.633898 
L 329.484321 128.968892 
L 333.35904 132.16909 
L 344.011359 142.433777 
L 348.099019 147.783754 
L 355.534173 158.181664 
L 360.493842 169.772785 
L 362.905763 176.099003 
L 365.909971 190.028965 
L 366.562321 194.882604 
L 366.594331 209.823274 
L 365.896608 214.96128 
L 362.906179 228.693271 
L 360.48441 235.048356 
L 355.530458 246.623416 
L 348.103511 257.00924 
L 344.009614 262.368436 
L 333.359828 272.630155 
L 329.48415 275.831299 
L 316.356331 284.166077 
L 311.666707 286.405913 
L 297.894074 291.768907 
L 290.836387 293.474749 
L 278.002377 296.019982 
L 264.777692 295.979188 
L 257.830032 295.800871 
L 242.777737 293.121361 
L 237.967646 291.918063 
L 223.370777 286.359746 
L 218.299061 283.681509 
L 206.328757 276.074141 
L 200.670228 271.346566 
L 191.361648 262.731932 
L 183.65642 251.692808 
z
M 353.599635 126.152302 
L 348.999094 121.662122 
L 335.862703 111.462293 
L 330.608971 108.113601 
L 315.565954 100.506201 
L 309.405879 98.174856 
L 293.446622 93.594532 
L 286.833936 92.497283 
L 271.85745 91.101708 
L 265.160405 90.910207 
L 248.499786 92.462768 
L 242.075541 93.542136 
L 225.690226 98.244777 
L 219.745899 100.568502 
L 204.934172 108.058917 
L 199.309551 111.667982 
L 186.464982 121.641193 
L 181.79305 126.239225 
L 172.209781 137.287259 
L 168.29593 142.460794 
L 160.277269 156.654392 
L 157.832921 161.983197 
L 152.862715 177.484837 
L 151.584643 183.443219 
L 149.948065 199.16374 
L 149.935794 205.495387 
L 151.564871 221.143817 
L 152.844661 227.2636 
L 157.819903 242.780972 
L 160.277262 248.145607 
L 168.295924 262.339214 
L 172.209769 267.512741 
L 181.793037 278.560826 
L 186.464929 283.158825 
L 199.309544 293.132126 
L 204.934076 296.741133 
L 219.745903 304.231549 
L 225.690182 306.555257 
L 242.075541 311.257863 
L 248.499787 312.337231 
L 265.160405 313.889793 
L 271.85745 313.698292 
L 286.833934 312.302716 
L 293.446622 311.205466 
L 309.405827 306.625107 
L 315.565989 304.293722 
L 330.608859 296.686355 
L 335.862826 293.337479 
L 348.998864 283.137929 
L 353.600147 278.646848 
L 364.225992 266.396967 
L 367.778737 261.048175 
L 374.884164 248.471144 
L 377.599535 242.685845 
L 382.450221 227.556745 
L 383.832724 221.389433 
L 385.492568 205.44445 
L 385.507826 199.433315 
L 383.832755 183.34223 
L 382.451879 177.247679 
L 377.599672 162.113763 
L 374.88624 156.332288 
L 367.7781 143.750376 
L 364.22688 138.403858 
z
" clip-path="url(#p47ff464387)" style="fill: #2db27d"/>
    <path d="M 364.22688 138.403858 
L 367.7781 143.750376 
L 374.88624 156.332288 
L 377.599672 162.113763 
L 382.451879 177.247679 
L 383.832755 183.34223 
L 385.507826 199.433315 
L 385.492568 205.44445 
L 383.832724 221.389433 
L 382.450221 227.556745 
L 377.599535 242.685845 
L 374.884164 248.471144 
L 367.778737 261.048175 
L 364.225992 266.396967 
L 353.600147 278.646848 
L 348.998864 283.137929 
L 335.862826 293.337479 
L 330.608859 296.686355 
L 315.565989 304.293722 
L 309.405827 306.625107 
L 293.446622 311.205466 
L 286.833934 312.302716 
L 271.85745 313.698292 
L 265.160405 313.889793 
L 248.499787 312.337231 
L 242.075541 311.257863 
L 225.690182 306.555257 
L 219.745903 304.231549 
L 204.934076 296.741133 
L 199.309544 293.132126 
L 186.464929 283.158825 
L 181.793037 278.560826 
L 172.209769 267.512741 
L 168.295924 262.339214 
L 160.277262 248.145607 
L 157.819903 242.780972 
L 152.844661 227.2636 
L 151.564871 221.143817 
L 149.935794 205.495387 
L 149.948065 199.16374 
L 151.584643 183.443219 
L 152.862715 177.484837 
L 157.832921 161.983197 
L 160.277269 156.654392 
L 168.29593 142.460794 
L 172.209781 137.287259 
L 181.79305 126.239225 
L 186.464982 121.641193 
L 199.309551 111.667982 
L 204.934172 108.058917 
L 219.745899 100.568502 
L 225.690226 98.244777 
L 242.075541 93.542136 
L 248.499786 92.462768 
L 265.160405 90.910207 
L 271.85745 91.101708 
L 286.833936 92.497283 
L 293.446622 93.594532 
L 309.405879 98.174856 
L 315.565954 100.506201 
L 330.608971 108.113601 
L 335.862703 111.462293 
L 348.999094 121.662122 
L 353.599635 126.152302 
z
M 113.159588 231.415755 
L 120.482431 255.771519 
L 122.658873 260.766641 
L 135.673072 283.857205 
L 138.544487 287.982575 
L 155.976033 307.500631 
L 156.581289 308.078107 
L 173.028785 321.641725 
L 176.444263 323.850952 
L 190.01552 332.358832 
L 205.381377 339.282045 
L 207.428288 340.139993 
L 233.1219 347.940197 
L 238.523632 348.949675 
L 266.39826 351.512674 
L 271.466048 351.541763 
L 298.30396 348.632298 
L 299.531578 348.394077 
L 325.673971 341.099565 
L 330.742182 339.134027 
L 354.417685 326.864187 
L 355.40954 326.241443 
L 377.827799 309.073476 
L 380.062256 306.935985 
L 396.551537 288.533983 
L 401.059279 282.193219 
L 413.094466 259.854737 
L 413.701155 258.455512 
L 421.849857 233.625328 
L 422.924471 228.613378 
L 425.261888 203.13148 
L 425.265601 202.061638 
L 422.552216 174.718299 
L 422.069357 172.479433 
L 413.999957 147.017105 
L 413.240237 145.270437 
L 401.608516 123.484748 
L 397.671115 117.901402 
L 385.391819 103.128124 
L 381.108196 98.982518 
L 370.199052 88.8584 
L 358.353722 80.488924 
L 355.334241 78.550772 
L 343.845992 71.175957 
L 328.48267 64.926384 
L 321.641529 62.152462 
L 298.804295 56.272525 
L 298.116688 56.139115 
L 271.516454 53.258212 
L 266.432134 53.287389 
L 238.838726 55.788114 
L 233.639105 56.733323 
L 207.873931 64.496264 
L 206.899986 64.87574 
L 180.668949 78.138482 
L 179.852383 78.656643 
L 156.985965 96.344789 
L 156.412154 96.886537 
L 138.594119 116.750042 
L 135.735921 120.85682 
L 122.771913 143.771059 
L 120.714456 148.387388 
L 113.288005 172.785569 
L 113.072419 173.785797 
L 110.330061 193.827077 
L 110.279774 197.806099 
L 110.305448 213.009685 
L 112.792368 229.456864 
z
" clip-path="url(#p47ff464387)" style="fill: #73d056"/>
    <path d="M 72.745253 236.880577 
L 78.701528 259.286566 
L 87.522905 280.830213 
L 99.07566 301.184937 
L 113.184666 320.042183 
L 129.636043 337.116093 
L 148.180407 352.147844 
L 168.536643 364.909571 
L 190.396172 375.207819 
L 213.427625 382.886476 
L 237.281869 387.829142 
L 261.597299 389.960891 
L 286.005316 389.249408 
L 310.135921 385.705479 
L 333.623317 379.382825 
L 356.111461 370.377293 
L 377.259454 358.825395 
L 396.746715 344.902249 
L 414.277836 328.818913 
L 429.587065 310.819196 
L 442.442327 291.175954 
L 452.648751 270.186959 
L 460.051618 248.170383 
L 464.538707 225.459974 
L 466.042 202.4 
L 464.538707 179.340026 
L 460.051618 156.629617 
L 452.648751 134.613041 
L 442.442327 113.624046 
L 429.587065 93.980804 
L 414.277836 75.981087 
L 396.746715 59.897751 
L 377.259454 45.974605 
L 356.111461 34.422707 
L 333.623317 25.417175 
L 310.135921 19.094521 
L 286.005316 15.550592 
L 261.597299 14.839109 
L 237.281869 16.970858 
L 213.427625 21.913524 
L 190.396172 29.592181 
L 168.536643 39.890429 
L 148.180407 52.652156 
L 129.636043 67.683907 
L 113.184666 84.757817 
L 99.07566 103.615063 
L 87.522905 123.969787 
L 78.701528 145.513434 
L 72.745253 167.919423 
L 69.74437 190.848103 
L 69.74437 213.951897 
z
M 112.792368 229.456864 
L 110.305448 213.009685 
L 110.279774 197.806099 
L 110.330061 193.827077 
L 113.072419 173.785797 
L 113.288005 172.785569 
L 120.714456 148.387388 
L 122.771913 143.771059 
L 135.735921 120.85682 
L 138.594119 116.750042 
L 156.412154 96.886537 
L 156.985965 96.344789 
L 179.852383 78.656643 
L 180.668949 78.138482 
L 206.899986 64.87574 
L 207.873931 64.496264 
L 233.639105 56.733323 
L 238.838726 55.788114 
L 266.432134 53.287389 
L 271.516454 53.258212 
L 298.116688 56.139115 
L 298.804295 56.272525 
L 321.641529 62.152462 
L 328.48267 64.926384 
L 343.845992 71.175957 
L 355.334241 78.550772 
L 358.353722 80.488924 
L 370.199052 88.8584 
L 381.108196 98.982518 
L 385.391819 103.128124 
L 397.671115 117.901402 
L 401.608516 123.484748 
L 413.240237 145.270437 
L 413.999957 147.017105 
L 422.069357 172.479433 
L 422.552216 174.718299 
L 425.265601 202.061638 
L 425.261888 203.13148 
L 422.924471 228.613378 
L 421.849857 233.625328 
L 413.701155 258.455512 
L 413.094466 259.854737 
L 401.059279 282.193219 
L 396.551537 288.533983 
L 380.062256 306.935985 
L 377.827799 309.073476 
L 355.40954 326.241443 
L 354.417685 326.864187 
L 330.742182 339.134027 
L 325.673971 341.099565 
L 299.531578 348.394077 
L 298.30396 348.632298 
L 271.466048 351.541763 
L 266.39826 351.512674 
L 238.523632 348.949675 
L 233.1219 347.940197 
L 207.428288 340.139993 
L 205.381377 339.282045 
L 190.01552 332.358832 
L 176.444263 323.850952 
L 173.028785 321.641725 
L 156.581289 308.078107 
L 155.976033 307.500631 
L 138.544487 287.982575 
L 135.673072 283.857205 
L 122.658873 260.766641 
L 120.482431 255.771519 
L 113.159588 231.415755 
z
" clip-path="url(#p47ff464387)" style="fill: #d0e11c"/>
   </g>
   <g id="line2d_1">
    <path d="M 311.609747 180.598687 
L 317.289321 202.4 
M 295.872146 163.791792 
L 311.609747 180.598687 
M 273.681813 155.829572 
L 295.872146 163.791792 
M 250.122286 158.536076 
L 273.681813 155.829572 
M 230.590769 171.291277 
L 250.122286 158.536076 
M 219.561697 191.173111 
L 230.590769 171.291277 
M 219.561697 213.626889 
L 219.561697 191.173111 
M 230.590769 233.508723 
L 219.561697 213.626889 
M 250.122286 246.263924 
L 230.590769 233.508723 
M 273.681813 248.970428 
L 250.122286 246.263924 
M 295.872146 241.008208 
L 273.681813 248.970428 
M 311.609747 224.201313 
L 317.289321 202.4 
M 311.609747 224.201313 
L 295.872146 241.008208 
M 389.283793 179.519577 
L 391.665661 202.4 
M 382.229725 157.518435 
L 389.283793 179.519577 
M 370.774539 137.242067 
L 382.229725 157.518435 
M 355.358452 119.469682 
L 370.774539 137.242067 
M 336.573895 104.884262 
L 355.358452 119.469682 
M 315.14275 94.046317 
L 336.573895 104.884262 
M 291.888602 87.372344 
L 315.14275 94.046317 
M 267.705095 85.118819 
L 291.888602 87.372344 
M 243.521589 87.372344 
L 267.705095 85.118819 
M 220.267441 94.046317 
L 243.521589 87.372344 
M 198.836295 104.884262 
L 220.267441 94.046317 
M 180.051739 119.469682 
L 198.836295 104.884262 
M 164.635652 137.242067 
L 180.051739 119.469682 
M 153.180466 157.518435 
L 164.635652 137.242067 
M 146.126397 179.519577 
L 153.180466 157.518435 
M 143.74453 202.4 
L 146.126397 179.519577 
M 146.126397 225.280423 
L 143.74453 202.4 
M 153.180466 247.281565 
L 146.126397 225.280423 
M 164.635652 267.557933 
L 153.180466 247.281565 
M 180.051739 285.330318 
L 164.635652 267.557933 
M 198.836295 299.915738 
L 180.051739 285.330318 
M 220.267441 310.753683 
L 198.836295 299.915738 
M 243.521589 317.427656 
L 220.267441 310.753683 
M 267.705095 319.681181 
L 243.521589 317.427656 
M 291.888602 317.427656 
L 267.705095 319.681181 
M 315.14275 310.753683 
L 291.888602 317.427656 
M 336.573895 299.915738 
L 315.14275 310.753683 
M 355.358452 285.330318 
L 336.573895 299.915738 
M 370.774539 267.557933 
L 355.358452 285.330318 
M 382.229725 247.281565 
L 370.774539 267.557933 
M 389.283793 225.280423 
L 391.665661 202.4 
M 389.283793 225.280423 
L 382.229725 247.281565 
M 464.538707 179.340026 
L 466.042 202.4 
M 460.051618 156.629617 
L 464.538707 179.340026 
M 452.648751 134.613041 
L 460.051618 156.629617 
M 442.442327 113.624046 
L 452.648751 134.613041 
M 429.587065 93.980804 
L 442.442327 113.624046 
M 414.277836 75.981087 
L 429.587065 93.980804 
M 396.746715 59.897751 
L 414.277836 75.981087 
M 377.259454 45.974605 
L 396.746715 59.897751 
M 356.111461 34.422707 
L 377.259454 45.974605 
M 333.623317 25.417175 
L 356.111461 34.422707 
M 310.135921 19.094521 
L 333.623317 25.417175 
M 286.005316 15.550592 
L 310.135921 19.094521 
M 261.597299 14.839109 
L 286.005316 15.550592 
M 237.281869 16.970858 
L 261.597299 14.839109 
M 213.427625 21.913524 
L 237.281869 16.970858 
M 190.396172 29.592181 
L 213.427625 21.913524 
M 168.536643 39.890429 
L 190.396172 29.592181 
M 148.180407 52.652156 
L 168.536643 39.890429 
M 129.636043 67.683907 
L 148.180407 52.652156 
M 113.184666 84.757817 
L 129.636043 67.683907 
M 99.07566 103.615063 
L 113.184666 84.757817 
M 87.522905 123.969787 
L 99.07566 103.615063 
M 78.701528 145.513434 
L 87.522905 123.969787 
M 72.745253 167.919423 
L 78.701528 145.513434 
M 69.74437 190.848103 
L 72.745253 167.919423 
M 69.74437 213.951897 
L 69.74437 190.848103 
M 72.745253 236.880577 
L 69.74437 213.951897 
M 78.701528 259.286566 
L 72.745253 236.880577 
M 87.522905 280.830213 
L 78.701528 259.286566 
M 99.07566 301.184937 
L 87.522905 280.830213 
M 113.184666 320.042183 
L 99.07566 301.184937 
M 129.636043 337.116093 
L 113.184666 320.042183 
M 148.180407 352.147844 
L 129.636043 337.116093 
M 168.536643 364.909571 
L 148.180407 352.147844 
M 190.396172 375.207819 
L 168.536643 364.909571 
M 213.427625 382.886476 
L 190.396172 375.207819 
M 237.281869 387.829142 
L 213.427625 382.886476 
M 261.597299 389.960891 
L 237.281869 387.829142 
M 286.005316 389.249408 
L 261.597299 389.960891 
M 310.135921 385.705479 
L 286.005316 389.249408 
M 333.623317 379.382825 
L 310.135921 385.705479 
M 356.111461 370.377293 
L 333.623317 379.382825 
M 377.259454 358.825395 
L 356.111461 370.377293 
M 396.746715 344.902249 
L 377.259454 358.825395 
M 414.277836 328.818913 
L 396.746715 344.902249 
M 429.587065 310.819196 
L 414.277836 328.818913 
M 442.442327 291.175954 
L 429.587065 310.819196 
M 452.648751 270.186959 
L 442.442327 291.175954 
M 460.051618 248.170383 
L 452.648751 270.186959 
M 464.538707 225.459974 
L 466.042 202.4 
M 464.538707 225.459974 
L 460.051618 248.170383 
M 207.395029 231.950753 
L 219.561697 213.626889 
M 207.395029 231.950753 
L 230.590769 233.508723 
M 207.395029 172.849247 
L 230.590769 171.291277 
M 207.395029 172.849247 
L 219.561697 191.173111 
M 259.16413 266.169063 
L 250.122286 246.263924 
M 259.16413 266.169063 
L 273.681813 248.970428 
M 259.16413 138.630937 
L 273.681813 155.829572 
M 259.16413 138.630937 
L 250.122286 158.536076 
M 318.356058 245.277381 
L 295.872146 241.008208 
M 318.356058 245.277381 
L 311.609747 224.201313 
M 318.356058 159.522619 
L 311.609747 180.598687 
M 318.356058 159.522619 
L 295.872146 163.791792 
M 333.74332 187.285514 
L 317.289321 202.4 
M 333.74332 187.285514 
L 311.609747 180.598687 
M 333.74332 187.285514 
L 318.356058 159.522619 
M 333.884209 217.672196 
L 317.289321 202.4 
M 333.884209 217.672196 
L 311.609747 224.201313 
M 333.884209 217.672196 
L 318.356058 245.277381 
M 333.884209 217.672196 
L 333.74332 187.285514 
M 291.969316 142.350473 
L 295.872146 163.791792 
M 291.969316 142.350473 
L 273.681813 155.829572 
M 291.969316 142.350473 
L 259.16413 138.630937 
M 291.969316 142.350473 
L 318.356058 159.522619 
M 291.969316 262.449527 
L 273.681813 248.970428 
M 291.969316 262.449527 
L 295.872146 241.008208 
M 291.969316 262.449527 
L 259.16413 266.169063 
M 291.969316 262.449527 
L 318.356058 245.277381 
M 229.038874 149.244642 
L 250.122286 158.536076 
M 229.038874 149.244642 
L 230.590769 171.291277 
M 229.038874 149.244642 
L 207.395029 172.849247 
M 229.038874 149.244642 
L 259.16413 138.630937 
M 229.038874 255.555358 
L 230.590769 233.508723 
M 229.038874 255.555358 
L 250.122286 246.263924 
M 229.038874 255.555358 
L 207.395029 231.950753 
M 229.038874 255.555358 
L 259.16413 266.169063 
M 199.849085 202.199408 
L 219.561697 191.173111 
M 199.849085 202.199408 
L 219.561697 213.626889 
M 199.849085 202.199408 
L 207.395029 231.950753 
M 199.849085 202.199408 
L 207.395029 172.849247 
M 344.294931 163.980115 
L 318.356058 159.522619 
M 344.294931 163.980115 
L 333.74332 187.285514 
M 344.315058 240.842415 
L 318.356058 245.277381 
M 344.315058 240.842415 
L 333.884209 217.672196 
M 277.085551 120.734091 
L 259.16413 138.630937 
M 277.085551 120.734091 
L 291.969316 142.350473 
M 277.085551 284.065909 
L 259.16413 266.169063 
M 277.085551 284.065909 
L 291.969316 262.449527 
M 201.412854 149.120709 
L 207.395029 172.849247 
M 201.412854 149.120709 
L 229.038874 149.244642 
M 201.412854 255.679291 
L 207.395029 231.950753 
M 201.412854 255.679291 
L 229.038874 255.555358 
M 183.84374 220.155248 
L 207.395029 231.950753 
M 183.84374 220.155248 
L 199.849085 202.199408 
M 183.643053 184.243971 
L 207.395029 172.849247 
M 183.643053 184.243971 
L 199.849085 202.199408 
M 235.950185 127.044626 
L 259.16413 138.630937 
M 235.950185 127.044626 
L 229.038874 149.244642 
M 235.950185 277.755374 
L 259.16413 266.169063 
M 235.950185 277.755374 
L 229.038874 255.555358 
M 315.736974 135.39293 
L 318.356058 159.522619 
M 315.736974 135.39293 
L 291.969316 142.350473 
M 315.736974 269.40707 
L 318.356058 245.277381 
M 315.736974 269.40707 
L 291.969316 262.449527 
M 353.320078 202.431611 
L 333.74332 187.285514 
M 353.320078 202.431611 
L 333.884209 217.672196 
M 176.836873 250.161757 
L 153.180466 247.281565 
M 176.836873 250.161757 
L 164.635652 267.557933 
M 176.836873 250.161757 
L 201.412854 255.679291 
M 176.836873 154.638243 
L 164.635652 137.242067 
M 176.836873 154.638243 
L 153.180466 157.518435 
M 176.836873 154.638243 
L 201.412854 149.120709 
M 259.524736 301.063738 
L 243.521589 317.427656 
M 259.524736 301.063738 
L 267.705095 319.681181 
M 259.524736 301.063738 
L 277.085551 284.065909 
M 259.524736 103.736262 
L 267.705095 85.118819 
M 259.524736 103.736262 
L 243.521589 87.372344 
M 259.524736 103.736262 
L 277.085551 120.734091 
M 349.699907 263.821694 
L 355.358452 285.330318 
M 349.699907 263.821694 
L 370.774539 267.557933 
M 349.699907 263.821694 
L 344.315058 240.842415 
M 349.696553 140.982061 
L 370.774539 137.242067 
M 349.696553 140.982061 
L 355.358452 119.469682 
M 349.696553 140.982061 
L 344.294931 163.980115 
M 367.395955 172.240955 
L 389.283793 179.519577 
M 367.395955 172.240955 
L 382.229725 157.518435 
M 367.395955 172.240955 
L 344.294931 163.980115 
M 367.405931 232.568126 
L 382.229725 247.281565 
M 367.405931 232.568126 
L 389.283793 225.280423 
M 367.405931 232.568126 
L 344.315058 240.842415 
M 296.855146 107.206989 
L 315.14275 94.046317 
M 296.855146 107.206989 
L 291.888602 87.372344 
M 296.855146 107.206989 
L 277.085551 120.734091 
M 296.855146 297.593011 
L 291.888602 317.427656 
M 296.855146 297.593011 
L 315.14275 310.753683 
M 296.855146 297.593011 
L 277.085551 284.065909 
M 200.332903 126.336844 
L 198.836295 104.884262 
M 200.332903 126.336844 
L 180.051739 119.469682 
M 200.332903 126.336844 
L 201.412854 149.120709 
M 200.332903 278.463156 
L 180.051739 285.330318 
M 200.332903 278.463156 
L 198.836295 299.915738 
M 200.332903 278.463156 
L 201.412854 255.679291 
M 163.33244 212.193179 
L 143.74453 202.4 
M 163.33244 212.193179 
L 146.126397 225.280423 
M 163.33244 212.193179 
L 183.84374 220.155248 
M 371.300344 212.44378 
L 391.665661 202.4 
M 371.300344 212.44378 
L 389.283793 225.280423 
M 371.300344 212.44378 
L 353.320078 202.431611 
M 371.300344 212.44378 
L 367.405931 232.568126 
M 370.913482 192.402138 
L 391.665661 202.4 
M 370.913482 192.402138 
L 389.283793 179.519577 
M 370.913482 192.402138 
L 353.320078 202.431611 
M 370.913482 192.402138 
L 367.395955 172.240955 
M 370.913482 192.402138 
L 371.300344 212.44378 
M 334.208636 126.761253 
L 355.358452 119.469682 
M 334.208636 126.761253 
L 336.573895 104.884262 
M 334.208636 126.761253 
L 315.736974 135.39293 
M 334.208636 126.761253 
L 349.696553 140.982061 
M 316.56253 115.718175 
L 336.573895 104.884262 
M 316.56253 115.718175 
L 315.14275 94.046317 
M 316.56253 115.718175 
L 315.736974 135.39293 
M 316.56253 115.718175 
L 296.855146 107.206989 
M 316.56253 115.718175 
L 334.208636 126.761253 
M 334.209195 278.039373 
L 336.573895 299.915738 
M 334.209195 278.039373 
L 355.358452 285.330318 
M 334.209195 278.039373 
L 315.736974 269.40707 
M 334.209195 278.039373 
L 349.699907 263.821694 
M 316.562623 289.081929 
L 315.14275 310.753683 
M 316.562623 289.081929 
L 336.573895 299.915738 
M 316.562623 289.081929 
L 315.736974 269.40707 
M 316.562623 289.081929 
L 296.855146 297.593011 
M 316.562623 289.081929 
L 334.209195 278.039373 
M 163.568868 192.05804 
L 146.126397 179.519577 
M 163.568868 192.05804 
L 143.74453 202.4 
M 163.568868 192.05804 
L 183.643053 184.243971 
M 163.568868 192.05804 
L 163.33244 212.193179 
M 218.578895 289.637415 
L 198.836295 299.915738 
M 218.578895 289.637415 
L 220.267441 310.753683 
M 218.578895 289.637415 
L 235.950185 277.755374 
M 218.578895 289.637415 
L 200.332903 278.463156 
M 218.578895 115.162585 
L 220.267441 94.046317 
M 218.578895 115.162585 
L 198.836295 104.884262 
M 218.578895 115.162585 
L 235.950185 127.044626 
M 218.578895 115.162585 
L 200.332903 126.336844 
M 238.626034 108.260012 
L 243.521589 87.372344 
M 238.626034 108.260012 
L 220.267441 94.046317 
M 238.626034 108.260012 
L 235.950185 127.044626 
M 238.626034 108.260012 
L 259.524736 103.736262 
M 238.626034 108.260012 
L 218.578895 115.162585 
M 238.626034 296.539988 
L 220.267441 310.753683 
M 238.626034 296.539988 
L 243.521589 317.427656 
M 238.626034 296.539988 
L 235.950185 277.755374 
M 238.626034 296.539988 
L 259.524736 301.063738 
M 238.626034 296.539988 
L 218.578895 289.637415 
M 168.929241 172.63186 
L 153.180466 157.518435 
M 168.929241 172.63186 
L 146.126397 179.519577 
M 168.929241 172.63186 
L 183.643053 184.243971 
M 168.929241 172.63186 
L 176.836873 154.638243 
M 168.929241 172.63186 
L 163.568868 192.05804 
M 168.923284 232.009879 
L 146.126397 225.280423 
M 168.923284 232.009879 
L 153.180466 247.281565 
M 168.923284 232.009879 
L 183.84374 220.155248 
M 168.923284 232.009879 
L 176.836873 250.161757 
M 168.923284 232.009879 
L 163.33244 212.193179 
M 184.654004 267.438491 
L 164.635652 267.557933 
M 184.654004 267.438491 
L 180.051739 285.330318 
M 184.654004 267.438491 
L 201.412854 255.679291 
M 184.654004 267.438491 
L 176.836873 250.161757 
M 184.654004 267.438491 
L 200.332903 278.463156 
M 184.654004 137.361509 
L 180.051739 119.469682 
M 184.654004 137.361509 
L 164.635652 137.242067 
M 184.654004 137.361509 
L 201.412854 149.120709 
M 184.654004 137.361509 
L 176.836873 154.638243 
M 184.654004 137.361509 
L 200.332903 126.336844 
M 278.611826 100.833701 
L 291.888602 87.372344 
M 278.611826 100.833701 
L 267.705095 85.118819 
M 278.611826 100.833701 
L 277.085551 120.734091 
M 278.611826 100.833701 
L 259.524736 103.736262 
M 278.611826 100.833701 
L 296.855146 107.206989 
M 278.611826 303.966299 
L 267.705095 319.681181 
M 278.611826 303.966299 
L 291.888602 317.427656 
M 278.611826 303.966299 
L 277.085551 284.065909 
M 278.611826 303.966299 
L 259.524736 301.063738 
M 278.611826 303.966299 
L 296.855146 297.593011 
M 362.87834 154.392727 
L 382.229725 157.518435 
M 362.87834 154.392727 
L 370.774539 137.242067 
M 362.87834 154.392727 
L 344.294931 163.980115 
M 362.87834 154.392727 
L 349.696553 140.982061 
M 362.87834 154.392727 
L 367.395955 172.240955 
M 362.885032 250.414347 
L 370.774539 267.557933 
M 362.885032 250.414347 
L 382.229725 247.281565 
M 362.885032 250.414347 
L 344.315058 240.842415 
M 362.885032 250.414347 
L 349.699907 263.821694 
M 362.885032 250.414347 
L 367.405931 232.568126 
M 178.847437 202.169969 
L 199.849085 202.199408 
M 178.847437 202.169969 
L 183.84374 220.155248 
M 178.847437 202.169969 
L 183.643053 184.243971 
M 178.847437 202.169969 
L 163.33244 212.193179 
M 178.847437 202.169969 
L 163.568868 192.05804 
M 217.72823 271.532083 
L 229.038874 255.555358 
M 217.72823 271.532083 
L 201.412854 255.679291 
M 217.72823 271.532083 
L 235.950185 277.755374 
M 217.72823 271.532083 
L 200.332903 278.463156 
M 217.72823 271.532083 
L 218.578895 289.637415 
M 217.72823 133.267917 
L 229.038874 149.244642 
M 217.72823 133.267917 
L 201.412854 149.120709 
M 217.72823 133.267917 
L 235.950185 127.044626 
M 217.72823 133.267917 
L 200.332903 126.336844 
M 217.72823 133.267917 
L 218.578895 115.162585 
M 299.989309 280.023264 
L 291.969316 262.449527 
M 299.989309 280.023264 
L 277.085551 284.065909 
M 299.989309 280.023264 
L 315.736974 269.40707 
M 299.989309 280.023264 
L 296.855146 297.593011 
M 299.989309 280.023264 
L 316.562623 289.081929 
M 299.989295 124.776751 
L 291.969316 142.350473 
M 299.989295 124.776751 
L 277.085551 120.734091 
M 299.989295 124.776751 
L 315.736974 135.39293 
M 299.989295 124.776751 
L 296.855146 107.206989 
M 299.989295 124.776751 
L 316.56253 115.718175 
M 353.607962 220.686331 
L 333.884209 217.672196 
M 353.607962 220.686331 
L 344.315058 240.842415 
M 353.607962 220.686331 
L 353.320078 202.431611 
M 353.607962 220.686331 
L 367.405931 232.568126 
M 353.607962 220.686331 
L 371.300344 212.44378 
M 353.528269 184.156306 
L 333.74332 187.285514 
M 353.528269 184.156306 
L 344.294931 163.980115 
M 353.528269 184.156306 
L 353.320078 202.431611 
M 353.528269 184.156306 
L 367.395955 172.240955 
M 353.528269 184.156306 
L 370.913482 192.402138 
M 331.233817 145.696527 
L 318.356058 159.522619 
M 331.233817 145.696527 
L 344.294931 163.980115 
M 331.233817 145.696527 
L 315.736974 135.39293 
M 331.233817 145.696527 
L 349.696553 140.982061 
M 331.233817 145.696527 
L 334.208636 126.761253 
M 331.23627 259.106219 
L 318.356058 245.277381 
M 331.23627 259.106219 
L 344.315058 240.842415 
M 331.23627 259.106219 
L 315.736974 269.40707 
M 331.23627 259.106219 
L 349.699907 263.821694 
M 331.23627 259.106219 
L 334.209195 278.039373 
M 253.993343 120.913881 
L 259.16413 138.630937 
M 253.993343 120.913881 
L 277.085551 120.734091 
M 253.993343 120.913881 
L 235.950185 127.044626 
M 253.993343 120.913881 
L 259.524736 103.736262 
M 253.993343 120.913881 
L 238.626034 108.260012 
M 253.993343 283.886119 
L 259.16413 266.169063 
M 253.993343 283.886119 
L 277.085551 284.065909 
M 253.993343 283.886119 
L 235.950185 277.755374 
M 253.993343 283.886119 
L 259.524736 301.063738 
M 253.993343 283.886119 
L 238.626034 296.539988 
M 189.280875 167.406158 
L 207.395029 172.849247 
M 189.280875 167.406158 
L 201.412854 149.120709 
M 189.280875 167.406158 
L 183.643053 184.243971 
M 189.280875 167.406158 
L 176.836873 154.638243 
M 189.280875 167.406158 
L 168.929241 172.63186 
M 189.295069 237.353095 
L 207.395029 231.950753 
M 189.295069 237.353095 
L 201.412854 255.679291 
M 189.295069 237.353095 
L 183.84374 220.155248 
M 189.295069 237.353095 
L 176.836873 250.161757 
M 189.295069 237.353095 
L 168.923284 232.009879 
M 142.584399 139.131065 
L 164.635652 137.242067 
M 142.584399 139.131065 
L 153.180466 157.518435 
M 142.584399 265.668935 
L 153.180466 247.281565 
M 142.584399 265.668935 
L 164.635652 267.557933 
M 253.78265 68.817791 
L 267.705095 85.118819 
M 253.78265 68.817791 
L 243.521589 87.372344 
M 253.78265 335.982209 
L 243.521589 317.427656 
M 253.78265 335.982209 
L 267.705095 319.681181 
M 379.819138 118.112432 
L 370.774539 137.242067 
M 379.819138 118.112432 
L 355.358452 119.469682 
M 377.365204 287.39749 
L 355.358452 285.330318 
M 377.365204 287.39749 
L 370.774539 267.557933 
M 403.293826 163.47928 
L 389.283793 179.519577 
M 403.293826 163.47928 
L 382.229725 157.518435 
M 403.478276 241.255234 
L 382.229725 247.281565 
M 403.478276 241.255234 
L 389.283793 225.280423 
M 308.992707 330.812512 
L 291.888602 317.427656 
M 308.992707 330.812512 
L 315.14275 310.753683 
M 308.992707 73.987488 
L 315.14275 94.046317 
M 308.992707 73.987488 
L 291.888602 87.372344 
M 175.636598 304.877324 
L 180.051739 285.330318 
M 175.636598 304.877324 
L 198.836295 299.915738 
M 178.470951 99.548517 
L 198.836295 104.884262 
M 178.470951 99.548517 
L 180.051739 119.469682 
M 126.465095 186.803369 
L 146.126397 179.519577 
M 126.465095 186.803369 
L 143.74453 202.4 
M 353.196985 58.311029 
L 377.259454 45.974605 
M 353.196985 58.311029 
L 356.111461 34.422707 
M 355.893748 350.575364 
L 356.111461 370.377293 
M 355.893748 350.575364 
L 377.259454 358.825395 
M 446.91601 214.888495 
L 466.042 202.4 
M 446.91601 214.888495 
L 464.538707 225.459974 
M 210.348595 362.631347 
L 190.396172 375.207819 
M 210.348595 362.631347 
L 213.427625 382.886476 
M 210.581173 42.038919 
L 213.427625 21.913524 
M 210.581173 42.038919 
L 190.396172 29.592181 
M 95.032191 245.811781 
L 72.745253 236.880577 
M 95.032191 245.811781 
L 78.701528 259.286566 
M 95.042069 158.730631 
L 78.701528 145.513434 
M 95.042069 158.730631 
L 72.745253 167.919423 
M 133.826407 90.564372 
L 129.636043 67.683907 
M 133.826407 90.564372 
L 113.184666 84.757817 
M 133.826407 314.235628 
L 113.184666 320.042183 
M 133.826407 314.235628 
L 129.636043 337.116093 
M 292.866261 35.693066 
L 310.135921 19.094521 
M 292.866261 35.693066 
L 286.005316 15.550592 
M 292.866261 369.106934 
L 286.005316 389.249408 
M 292.866261 369.106934 
L 310.135921 385.705479 
M 429.251893 128.564369 
L 452.648751 134.613041 
M 429.251893 128.564369 
L 442.442327 113.624046 
M 429.251893 276.235631 
L 442.442327 291.175954 
M 429.251893 276.235631 
L 452.648751 270.186959 
M 392.824909 80.43642 
L 414.277836 75.981087 
M 392.824909 80.43642 
L 396.746715 59.897751 
M 394.663281 325.738728 
L 396.746715 344.902249 
M 394.663281 325.738728 
L 414.277836 328.818913 
M 446.451066 170.437293 
L 464.538707 179.340026 
M 446.451066 170.437293 
L 460.051618 156.629617 
M 168.889849 343.474099 
L 148.180407 352.147844 
M 168.889849 343.474099 
L 168.536643 364.909571 
M 167.127872 58.999847 
L 168.536643 39.890429 
M 167.127872 58.999847 
L 148.180407 52.652156 
M 88.81536 202.390633 
L 69.74437 190.848103 
M 88.81536 202.390633 
L 69.74437 213.951897 
M 123.942613 213.048326 
L 143.74453 202.4 
M 123.942613 213.048326 
L 146.126397 225.280423 
M 123.942613 213.048326 
L 126.465095 186.803369 
M 197.354071 321.523933 
L 198.836295 299.915738 
M 197.354071 321.523933 
L 220.267441 310.753683 
M 197.354071 321.523933 
L 175.636598 304.877324 
M 201.794799 85.453757 
L 220.267441 94.046317 
M 201.794799 85.453757 
L 198.836295 104.884262 
M 201.794799 85.453757 
L 178.470951 99.548517 
M 407.364627 189.492984 
L 391.665661 202.4 
M 407.364627 189.492984 
L 389.283793 179.519577 
M 407.364627 189.492984 
L 403.293826 163.47928 
M 356.684428 305.120126 
L 336.573895 299.915738 
M 356.684428 305.120126 
L 355.358452 285.330318 
M 356.684428 305.120126 
L 377.365204 287.39749 
M 361.061593 98.146468 
L 355.358452 119.469682 
M 361.061593 98.146468 
L 336.573895 104.884262 
M 361.061593 98.146468 
L 379.819138 118.112432 
M 392.019745 265.344317 
L 370.774539 267.557933 
M 392.019745 265.344317 
L 382.229725 247.281565 
M 392.019745 265.344317 
L 377.365204 287.39749 
M 392.019745 265.344317 
L 403.478276 241.255234 
M 392.397992 139.563089 
L 382.229725 157.518435 
M 392.397992 139.563089 
L 370.774539 137.242067 
M 392.397992 139.563089 
L 379.819138 118.112432 
M 392.397992 139.563089 
L 403.293826 163.47928 
M 281.433698 334.590739 
L 267.705095 319.681181 
M 281.433698 334.590739 
L 291.888602 317.427656 
M 281.433698 334.590739 
L 253.78265 335.982209 
M 281.433698 334.590739 
L 308.992707 330.812512 
M 281.433698 70.209261 
L 291.888602 87.372344 
M 281.433698 70.209261 
L 267.705095 85.118819 
M 281.433698 70.209261 
L 253.78265 68.817791 
M 281.433698 70.209261 
L 308.992707 73.987488 
M 158.741092 286.462292 
L 164.635652 267.557933 
M 158.741092 286.462292 
L 180.051739 285.330318 
M 158.741092 286.462292 
L 142.584399 265.668935 
M 158.741092 286.462292 
L 175.636598 304.877324 
M 159.213484 118.275348 
L 180.051739 119.469682 
M 159.213484 118.275348 
L 164.635652 137.242067 
M 159.213484 118.275348 
L 142.584399 139.131065 
M 159.213484 118.275348 
L 178.470951 99.548517 
M 131.846153 240.856102 
L 146.126397 225.280423 
M 131.846153 240.856102 
L 153.180466 247.281565 
M 131.846153 240.856102 
L 142.584399 265.668935 
M 131.846153 240.856102 
L 123.942613 213.048326 
M 133.209006 163.343482 
L 153.180466 157.518435 
M 133.209006 163.343482 
L 146.126397 179.519577 
M 133.209006 163.343482 
L 142.584399 139.131065 
M 133.209006 163.343482 
L 126.465095 186.803369 
M 227.09139 75.289647 
L 243.521589 87.372344 
M 227.09139 75.289647 
L 220.267441 94.046317 
M 227.09139 75.289647 
L 253.78265 68.817791 
M 227.09139 75.289647 
L 201.794799 85.453757 
M 226.118691 329.743568 
L 220.267441 310.753683 
M 226.118691 329.743568 
L 243.521589 317.427656 
M 226.118691 329.743568 
L 253.78265 335.982209 
M 226.118691 329.743568 
L 197.354071 321.523933 
M 404.720751 289.017882 
L 377.365204 287.39749 
M 404.720751 289.017882 
L 429.251893 276.235631 
M 404.720751 289.017882 
L 392.019745 265.344317 
M 404.855603 117.816474 
L 379.819138 118.112432 
M 404.855603 117.816474 
L 429.251893 128.564369 
M 404.855603 117.816474 
L 392.397992 139.563089 
M 407.94486 215.607459 
L 391.665661 202.4 
M 407.94486 215.607459 
L 389.283793 225.280423 
M 407.94486 215.607459 
L 403.478276 241.255234 
M 407.94486 215.607459 
L 407.364627 189.492984 
M 334.037315 320.09131 
L 315.14275 310.753683 
M 334.037315 320.09131 
L 336.573895 299.915738 
M 334.037315 320.09131 
L 308.992707 330.812512 
M 334.037315 320.09131 
L 356.684428 305.120126 
M 336.246765 81.630838 
L 336.573895 104.884262 
M 336.246765 81.630838 
L 315.14275 94.046317 
M 336.246765 81.630838 
L 308.992707 73.987488 
M 336.246765 81.630838 
L 353.196985 58.311029 
M 336.246765 81.630838 
L 361.061593 98.146468 
M 250.797673 33.273268 
L 261.597299 14.839109 
M 250.797673 33.273268 
L 237.281869 16.970858 
M 250.797673 371.526732 
L 237.281869 387.829142 
M 250.797673 371.526732 
L 261.597299 389.960891 
M 109.462905 122.12666 
L 99.07566 103.615063 
M 109.462905 122.12666 
L 87.522905 123.969787 
M 109.462905 282.67334 
L 87.522905 280.830213 
M 109.462905 282.67334 
L 99.07566 301.184937 
M 426.481516 231.701752 
L 403.478276 241.255234 
M 426.481516 231.701752 
L 446.91601 214.888495 
M 426.481516 231.701752 
L 407.94486 215.607459 
M 329.946179 343.734164 
L 308.992707 330.812512 
M 329.946179 343.734164 
L 355.893748 350.575364 
M 329.946179 343.734164 
L 334.037315 320.09131 
M 325.510712 58.532214 
L 308.992707 73.987488 
M 325.510712 58.532214 
L 353.196985 58.311029 
M 325.510712 58.532214 
L 336.246765 81.630838 
M 234.745957 352.16003 
L 253.78265 335.982209 
M 234.745957 352.16003 
L 210.348595 362.631347 
M 234.745957 352.16003 
L 226.118691 329.743568 
M 234.745957 352.16003 
L 250.797673 371.526732 
M 235.117492 52.543553 
L 253.78265 68.817791 
M 235.117492 52.543553 
L 210.581173 42.038919 
M 235.117492 52.543553 
L 227.09139 75.289647 
M 235.117492 52.543553 
L 250.797673 33.273268 
M 117.621072 259.527186 
L 142.584399 265.668935 
M 117.621072 259.527186 
L 95.032191 245.811781 
M 117.621072 259.527186 
L 131.846153 240.856102 
M 117.621072 259.527186 
L 109.462905 282.67334 
M 117.825643 144.929452 
L 142.584399 139.131065 
M 117.825643 144.929452 
L 95.042069 158.730631 
M 117.825643 144.929452 
L 133.209006 163.343482 
M 117.825643 144.929452 
L 109.462905 122.12666 
M 134.071481 116.415483 
L 142.584399 139.131065 
M 134.071481 116.415483 
L 133.826407 90.564372 
M 134.071481 116.415483 
L 159.213484 118.275348 
M 134.071481 116.415483 
L 109.462905 122.12666 
M 134.071481 116.415483 
L 117.825643 144.929452 
M 133.974772 288.326557 
L 142.584399 265.668935 
M 133.974772 288.326557 
L 133.826407 314.235628 
M 133.974772 288.326557 
L 158.741092 286.462292 
M 133.974772 288.326557 
L 109.462905 282.67334 
M 133.974772 288.326557 
L 117.621072 259.527186 
M 269.400997 49.642369 
L 253.78265 68.817791 
M 269.400997 49.642369 
L 292.866261 35.693066 
M 269.400997 49.642369 
L 281.433698 70.209261 
M 269.400997 49.642369 
L 250.797673 33.273268 
M 269.400997 49.642369 
L 235.117492 52.543553 
M 269.347921 355.143858 
L 253.78265 335.982209 
M 269.347921 355.143858 
L 292.866261 369.106934 
M 269.347921 355.143858 
L 281.433698 334.590739 
M 269.347921 355.143858 
L 250.797673 371.526732 
M 269.347921 355.143858 
L 234.745957 352.16003 
M 90.455462 223.791494 
L 69.74437 213.951897 
M 90.455462 223.791494 
L 72.745253 236.880577 
M 90.455462 223.791494 
L 95.032191 245.811781 
M 90.455462 223.791494 
L 88.81536 202.390633 
M 188.26992 354.137079 
L 168.536643 364.909571 
M 188.26992 354.137079 
L 190.396172 375.207819 
M 188.26992 354.137079 
L 210.348595 362.631347 
M 188.26992 354.137079 
L 168.889849 343.474099 
M 187.679777 50.34719 
L 190.396172 29.592181 
M 187.679777 50.34719 
L 168.536643 39.890429 
M 187.679777 50.34719 
L 210.581173 42.038919 
M 187.679777 50.34719 
L 167.127872 58.999847 
M 445.412335 190.472173 
L 466.042 202.4 
M 445.412335 190.472173 
L 464.538707 179.340026 
M 445.412335 190.472173 
L 446.91601 214.888495 
M 445.412335 190.472173 
L 446.451066 170.437293 
M 376.598902 335.87073 
L 377.259454 358.825395 
M 376.598902 335.87073 
L 396.746715 344.902249 
M 376.598902 335.87073 
L 355.893748 350.575364 
M 376.598902 335.87073 
L 394.663281 325.738728 
M 375.622545 67.208925 
L 396.746715 59.897751 
M 375.622545 67.208925 
L 377.259454 45.974605 
M 375.622545 67.208925 
L 353.196985 58.311029 
M 375.622545 67.208925 
L 392.824909 80.43642 
M 437.32143 151.475958 
L 460.051618 156.629617 
M 437.32143 151.475958 
L 452.648751 134.613041 
M 437.32143 151.475958 
L 429.251893 128.564369 
M 437.32143 151.475958 
L 446.451066 170.437293 
M 150.750918 329.883909 
L 129.636043 337.116093 
M 150.750918 329.883909 
L 148.180407 352.147844 
M 150.750918 329.883909 
L 133.826407 314.235628 
M 150.750918 329.883909 
L 168.889849 343.474099 
M 152.042089 73.974365 
L 148.180407 52.652156 
M 152.042089 73.974365 
L 129.636043 67.683907 
M 152.042089 73.974365 
L 133.826407 90.564372 
M 152.042089 73.974365 
L 167.127872 58.999847 
M 90.691721 180.69175 
L 72.745253 167.919423 
M 90.691721 180.69175 
L 69.74437 190.848103 
M 90.691721 180.69175 
L 95.042069 158.730631 
M 90.691721 180.69175 
L 88.81536 202.390633 
M 438.353906 253.36036 
L 452.648751 270.186959 
M 438.353906 253.36036 
L 460.051618 248.170383 
M 438.353906 253.36036 
L 429.251893 276.235631 
M 438.353906 253.36036 
L 426.481516 231.701752 
M 317.393751 364.881561 
L 310.135921 385.705479 
M 317.393751 364.881561 
L 333.623317 379.382825 
M 317.393751 364.881561 
L 292.866261 369.106934 
M 317.393751 364.881561 
L 329.946179 343.734164 
M 316.836985 39.023895 
L 333.623317 25.417175 
M 316.836985 39.023895 
L 310.135921 19.094521 
M 316.836985 39.023895 
L 292.866261 35.693066 
M 316.836985 39.023895 
L 325.510712 58.532214 
M 357.990758 78.122101 
L 353.196985 58.311029 
M 357.990758 78.122101 
L 361.061593 98.146468 
M 357.990758 78.122101 
L 336.246765 81.630838 
M 357.990758 78.122101 
L 375.622545 67.208925 
M 408.997868 96.613176 
L 429.587065 93.980804 
M 408.997868 96.613176 
L 414.277836 75.981087 
M 408.997868 96.613176 
L 392.824909 80.43642 
M 408.997868 96.613176 
L 404.855603 117.816474 
M 407.434636 309.362179 
L 414.277836 328.818913 
M 407.434636 309.362179 
L 429.587065 310.819196 
M 407.434636 309.362179 
L 394.663281 325.738728 
M 407.434636 309.362179 
L 404.720751 289.017882 
M 206.102547 340.877428 
L 210.348595 362.631347 
M 206.102547 340.877428 
L 197.354071 321.523933 
M 206.102547 340.877428 
L 226.118691 329.743568 
M 206.102547 340.877428 
L 234.745957 352.16003 
M 206.102547 340.877428 
L 188.26992 354.137079 
M 111.895266 230.777027 
L 95.032191 245.811781 
M 111.895266 230.777027 
L 123.942613 213.048326 
M 111.895266 230.777027 
L 131.846153 240.856102 
M 111.895266 230.777027 
L 117.621072 259.527186 
M 111.895266 230.777027 
L 90.455462 223.791494 
M 355.353185 327.175076 
L 355.893748 350.575364 
M 355.353185 327.175076 
L 356.684428 305.120126 
M 355.353185 327.175076 
L 334.037315 320.09131 
M 355.353185 327.175076 
L 329.946179 343.734164 
M 355.353185 327.175076 
L 376.598902 335.87073 
M 272.122894 374.997564 
L 261.597299 389.960891 
M 272.122894 374.997564 
L 286.005316 389.249408 
M 272.122894 374.997564 
L 292.866261 369.106934 
M 272.122894 374.997564 
L 250.797673 371.526732 
M 272.122894 374.997564 
L 269.347921 355.143858 
M 272.133509 29.799681 
L 286.005316 15.550592 
M 272.133509 29.799681 
L 261.597299 14.839109 
M 272.133509 29.799681 
L 292.866261 35.693066 
M 272.133509 29.799681 
L 250.797673 33.273268 
M 272.133509 29.799681 
L 269.400997 49.642369 
M 426.015771 202.588348 
L 446.91601 214.888495 
M 426.015771 202.588348 
L 407.364627 189.492984 
M 426.015771 202.588348 
L 407.94486 215.607459 
M 426.015771 202.588348 
L 426.481516 231.701752 
M 426.015771 202.588348 
L 445.412335 190.472173 
M 117.904882 301.292529 
L 99.07566 301.184937 
M 117.904882 301.292529 
L 113.184666 320.042183 
M 117.904882 301.292529 
L 133.826407 314.235628 
M 117.904882 301.292529 
L 109.462905 282.67334 
M 117.904882 301.292529 
L 133.974772 288.326557 
M 117.924224 103.495879 
L 113.184666 84.757817 
M 117.924224 103.495879 
L 99.07566 103.615063 
M 117.924224 103.495879 
L 133.826407 90.564372 
M 117.924224 103.495879 
L 109.462905 122.12666 
M 117.924224 103.495879 
L 134.071481 116.415483 
M 207.101727 64.06256 
L 210.581173 42.038919 
M 207.101727 64.06256 
L 201.794799 85.453757 
M 207.101727 64.06256 
L 227.09139 75.289647 
M 207.101727 64.06256 
L 235.117492 52.543553 
M 207.101727 64.06256 
L 187.679777 50.34719 
M 97.870476 265.293771 
L 78.701528 259.286566 
M 97.870476 265.293771 
L 87.522905 280.830213 
M 97.870476 265.293771 
L 95.032191 245.811781 
M 97.870476 265.293771 
L 109.462905 282.67334 
M 97.870476 265.293771 
L 117.621072 259.527186 
M 97.71101 139.053993 
L 87.522905 123.969787 
M 97.71101 139.053993 
L 78.701528 145.513434 
M 97.71101 139.053993 
L 95.042069 158.730631 
M 97.71101 139.053993 
L 109.462905 122.12666 
M 97.71101 139.053993 
L 117.825643 144.929452 
M 112.451351 173.182123 
L 126.465095 186.803369 
M 112.451351 173.182123 
L 95.042069 158.730631 
M 112.451351 173.182123 
L 133.209006 163.343482 
M 112.451351 173.182123 
L 117.825643 144.929452 
M 112.451351 173.182123 
L 90.691721 180.69175 
M 156.328358 96.24673 
L 178.470951 99.548517 
M 156.328358 96.24673 
L 133.826407 90.564372 
M 156.328358 96.24673 
L 159.213484 118.275348 
M 156.328358 96.24673 
L 134.071481 116.415483 
M 156.328358 96.24673 
L 152.042089 73.974365 
M 155.884758 308.195106 
L 175.636598 304.877324 
M 155.884758 308.195106 
L 133.826407 314.235628 
M 155.884758 308.195106 
L 158.741092 286.462292 
M 155.884758 308.195106 
L 133.974772 288.326557 
M 155.884758 308.195106 
L 150.750918 329.883909 
M 229.441166 33.348025 
L 237.281869 16.970858 
M 229.441166 33.348025 
L 213.427625 21.913524 
M 229.441166 33.348025 
L 210.581173 42.038919 
M 229.441166 33.348025 
L 250.797673 33.273268 
M 229.441166 33.348025 
L 235.117492 52.543553 
M 229.172131 371.138262 
L 213.427625 382.886476 
M 229.172131 371.138262 
L 237.281869 387.829142 
M 229.172131 371.138262 
L 210.348595 362.631347 
M 229.172131 371.138262 
L 250.797673 371.526732 
M 229.172131 371.138262 
L 234.745957 352.16003 
M 298.528039 55.792189 
L 308.992707 73.987488 
M 298.528039 55.792189 
L 292.866261 35.693066 
M 298.528039 55.792189 
L 281.433698 70.209261 
M 298.528039 55.792189 
L 325.510712 58.532214 
M 298.528039 55.792189 
L 269.400997 49.642369 
M 298.528039 55.792189 
L 316.836985 39.023895 
M 299.063285 349.264304 
L 308.992707 330.812512 
M 299.063285 349.264304 
L 292.866261 369.106934 
M 299.063285 349.264304 
L 281.433698 334.590739 
M 299.063285 349.264304 
L 329.946179 343.734164 
M 299.063285 349.264304 
L 269.347921 355.143858 
M 299.063285 349.264304 
L 317.393751 364.881561 
M 414.849337 145.711066 
L 403.293826 163.47928 
M 414.849337 145.711066 
L 429.251893 128.564369 
M 414.849337 145.711066 
L 392.397992 139.563089 
M 414.849337 145.711066 
L 404.855603 117.816474 
M 414.849337 145.711066 
L 437.32143 151.475958 
M 414.339954 259.53031 
L 403.478276 241.255234 
M 414.339954 259.53031 
L 429.251893 276.235631 
M 414.339954 259.53031 
L 392.019745 265.344317 
M 414.339954 259.53031 
L 404.720751 289.017882 
M 414.339954 259.53031 
L 426.481516 231.701752 
M 414.339954 259.53031 
L 438.353906 253.36036 
M 380.424327 309.55897 
L 377.365204 287.39749 
M 380.424327 309.55897 
L 394.663281 325.738728 
M 380.424327 309.55897 
L 356.684428 305.120126 
M 380.424327 309.55897 
L 404.720751 289.017882 
M 380.424327 309.55897 
L 376.598902 335.87073 
M 380.424327 309.55897 
L 407.434636 309.362179 
M 380.424327 309.55897 
L 355.353185 327.175076 
M 423.934567 173.373531 
L 403.293826 163.47928 
M 423.934567 173.373531 
L 446.451066 170.437293 
M 423.934567 173.373531 
L 407.364627 189.492984 
M 423.934567 173.373531 
L 445.412335 190.472173 
M 423.934567 173.373531 
L 437.32143 151.475958 
M 423.934567 173.373531 
L 426.015771 202.588348 
M 423.934567 173.373531 
L 414.849337 145.711066 
M 179.904156 77.873656 
L 178.470951 99.548517 
M 179.904156 77.873656 
L 167.127872 58.999847 
M 179.904156 77.873656 
L 201.794799 85.453757 
M 179.904156 77.873656 
L 187.679777 50.34719 
M 179.904156 77.873656 
L 152.042089 73.974365 
M 179.904156 77.873656 
L 207.101727 64.06256 
M 179.904156 77.873656 
L 156.328358 96.24673 
M 423.358699 293.583555 
L 429.587065 310.819196 
M 423.358699 293.583555 
L 442.442327 291.175954 
M 423.358699 293.583555 
L 429.251893 276.235631 
M 423.358699 293.583555 
L 404.720751 289.017882 
M 423.358699 293.583555 
L 407.434636 309.362179 
M 423.026951 110.119774 
L 442.442327 113.624046 
M 423.026951 110.119774 
L 429.587065 93.980804 
M 423.026951 110.119774 
L 429.251893 128.564369 
M 423.026951 110.119774 
L 404.855603 117.816474 
M 423.026951 110.119774 
L 408.997868 96.613176 
M 386.844601 99.221757 
L 379.819138 118.112432 
M 386.844601 99.221757 
L 392.824909 80.43642 
M 386.844601 99.221757 
L 361.061593 98.146468 
M 386.844601 99.221757 
L 404.855603 117.816474 
M 386.844601 99.221757 
L 408.997868 96.613176 
M 447.268351 234.716193 
L 460.051618 248.170383 
M 447.268351 234.716193 
L 464.538707 225.459974 
M 447.268351 234.716193 
L 446.91601 214.888495 
M 447.268351 234.716193 
L 426.481516 231.701752 
M 447.268351 234.716193 
L 438.353906 253.36036 
M 338.458526 42.7006 
L 356.111461 34.422707 
M 338.458526 42.7006 
L 333.623317 25.417175 
M 338.458526 42.7006 
L 353.196985 58.311029 
M 338.458526 42.7006 
L 325.510712 58.532214 
M 338.458526 42.7006 
L 316.836985 39.023895 
M 338.593691 361.790241 
L 333.623317 379.382825 
M 338.593691 361.790241 
L 356.111461 370.377293 
M 338.593691 361.790241 
L 355.893748 350.575364 
M 338.593691 361.790241 
L 329.946179 343.734164 
M 338.593691 361.790241 
L 317.393751 364.881561 
M 172.618901 324.27667 
L 175.636598 304.877324 
M 172.618901 324.27667 
L 168.889849 343.474099 
M 172.618901 324.27667 
L 197.354071 321.523933 
M 172.618901 324.27667 
L 150.750918 329.883909 
M 172.618901 324.27667 
L 155.884758 308.195106 
M 107.728276 194.959655 
L 126.465095 186.803369 
M 107.728276 194.959655 
L 88.81536 202.390633 
M 107.728276 194.959655 
L 123.942613 213.048326 
M 107.728276 194.959655 
L 90.691721 180.69175 
M 107.728276 194.959655 
L 112.451351 173.182123 
M 186.804245 337.100073 
L 168.889849 343.474099 
M 186.804245 337.100073 
L 197.354071 321.523933 
M 186.804245 337.100073 
L 188.26992 354.137079 
M 186.804245 337.100073 
L 206.102547 340.877428 
M 186.804245 337.100073 
L 172.618901 324.27667 
M 104.567395 212.993427 
L 88.81536 202.390633 
M 104.567395 212.993427 
L 123.942613 213.048326 
M 104.567395 212.993427 
L 90.455462 223.791494 
M 104.567395 212.993427 
L 111.895266 230.777027 
M 104.567395 212.993427 
L 107.728276 194.959655 
M 374.4802 84.506688 
L 392.824909 80.43642 
M 374.4802 84.506688 
L 361.061593 98.146468 
M 374.4802 84.506688 
L 375.622545 67.208925 
M 374.4802 84.506688 
L 357.990758 78.122101 
M 374.4802 84.506688 
L 386.844601 99.221757 
L 386.844601 99.221757 
" clip-path="url(#p47ff464387)" style="fill: none; stroke: #808080; stroke-opacity: 0.5; stroke-width: 1.5; stroke-linecap: square"/>
   </g>
   <g id="matplotlib.axis_1">
    <g id="xtick_1">
     <g id="line2d_2">
      <defs>
       <path id="mb880b443a3" d="M 0 0 
L 0 3.5 
" style="stroke: #000000; stroke-width: 0.8"/>
      </defs>
      <g>
       <use xlink:href="#mb880b443a3" x="118.952417" y="390.04" style="stroke: #000000; stroke-width: 0.8"/>
      </g>
     </g>
     <g id="text_1">
      <!-- 0.006 -->
      <g transform="translate(100.44851 404.638438) scale(0.1 -0.1)">
       <defs>
        <path id="DejaVuSans-2212" d="M 678 2272 
L 4684 2272 
L 4684 1741 
L 678 1741 
L 678 2272 
z
" transform="scale(0.015625)"/>
        <path id="DejaVuSans-30" d="M 2034 4250 
Q 1547 4250 1301 3770 
Q 1056 3291 1056 2328 
Q 1056 1369 1301 889 
Q 1547 409 2034 409 
Q 2525 409 2770 889 
Q 3016 1369 3016 2328 
Q 3016 3291 2770 3770 
Q 2525 4250 2034 4250 
z
M 2034 4750 
Q 2819 4750 3233 4129 
Q 3647 3509 3647 2328 
Q 3647 1150 3233 529 
Q 2819 -91 2034 -91 
Q 1250 -91 836 529 
Q 422 1150 422 2328 
Q 422 3509 836 4129 
Q 1250 4750 2034 4750 
z
" transform="scale(0.015625)"/>
        <path id="DejaVuSans-2e" d="M 684 794 
L 1344 794 
L 1344 0 
L 684 0 
L 684 794 
z
" transform="scale(0.015625)"/>
        <path id="DejaVuSans-36" d="M 2113 2584 
Q 1688 2584 1439 2293 
Q 1191 2003 1191 1497 
Q 1191 994 1439 701 
Q 1688 409 2113 409 
Q 2538 409 2786 701 
Q 3034 994 3034 1497 
Q 3034 2003 2786 2293 
Q 2538 2584 2113 2584 
z
M 3366 4563 
L 3366 3988 
Q 3128 4100 2886 4159 
Q 2644 4219 2406 4219 
Q 1781 4219 1451 3797 
Q 1122 3375 1075 2522 
Q 1259 2794 1537 2939 
Q 1816 3084 2150 3084 
Q 2853 3084 3261 2657 
Q 3669 2231 3669 1497 
Q 3669 778 3244 343 
Q 2819 -91 2113 -91 
Q 1303 -91 875 529 
Q 447 1150 447 2328 
Q 447 3434 972 4092 
Q 1497 4750 2381 4750 
Q 2619 4750 2861 4703 
Q 3103 4656 3366 4563 
z
" transform="scale(0.015625)"/>
       </defs>
       <use xlink:href="#DejaVuSans-2212"/>
       <use xlink:href="#DejaVuSans-30" x="83.789062"/>
       <use xlink:href="#DejaVuSans-2e" x="147.412109"/>
       <use xlink:href="#DejaVuSans-30" x="179.199219"/>
       <use xlink:href="#DejaVuSans-30" x="242.822266"/>
       <use xlink:href="#DejaVuSans-36" x="306.445312"/>
      </g>
     </g>
    </g>
    <g id="xtick_2">
     <g id="line2d_3">
      <g>
       <use xlink:href="#mb880b443a3" x="168.536643" y="390.04" style="stroke: #000000; stroke-width: 0.8"/>
      </g>
     </g>
     <g id="text_2">
      <!-- 0.004 -->
      <g transform="translate(150.032737 404.638438) scale(0.1 -0.1)">
       <defs>
        <path id="DejaVuSans-34" d="M 2419 4116 
L 825 1625 
L 2419 1625 
L 2419 4116 
z
M 2253 4666 
L 3047 4666 
L 3047 1625 
L 3713 1625 
L 3713 1100 
L 3047 1100 
L 3047 0 
L 2419 0 
L 2419 1100 
L 313 1100 
L 313 1709 
L 2253 4666 
z
" transform="scale(0.015625)"/>
       </defs>
       <use xlink:href="#DejaVuSans-2212"/>
       <use xlink:href="#DejaVuSans-30" x="83.789062"/>
       <use xlink:href="#DejaVuSans-2e" x="147.412109"/>
       <use xlink:href="#DejaVuSans-30" x="179.199219"/>
       <use xlink:href="#DejaVuSans-30" x="242.822266"/>
       <use xlink:href="#DejaVuSans-34" x="306.445312"/>
      </g>
     </g>
    </g>
    <g id="xtick_3">
     <g id="line2d_4">
      <g>
       <use xlink:href="#mb880b443a3" x="218.120869" y="390.04" style="stroke: #000000; stroke-width: 0.8"/>
      </g>
     </g>
     <g id="text_3">
      <!-- 0.002 -->
      <g transform="translate(199.616963 404.638438) scale(0.1 -0.1)">
       <defs>
        <path id="DejaVuSans-32" d="M 1228 531 
L 3431 531 
L 3431 0 
L 469 0 
L 469 531 
Q 828 903 1448 1529 
Q 2069 2156 2228 2338 
Q 2531 2678 2651 2914 
Q 2772 3150 2772 3378 
Q 2772 3750 2511 3984 
Q 2250 4219 1831 4219 
Q 1534 4219 1204 4116 
Q 875 4013 500 3803 
L 500 4441 
Q 881 4594 1212 4672 
Q 1544 4750 1819 4750 
Q 2544 4750 2975 4387 
Q 3406 4025 3406 3419 
Q 3406 3131 3298 2873 
Q 3191 2616 2906 2266 
Q 2828 2175 2409 1742 
Q 1991 1309 1228 531 
z
" transform="scale(0.015625)"/>
       </defs>
       <use xlink:href="#DejaVuSans-2212"/>
       <use xlink:href="#DejaVuSans-30" x="83.789062"/>
       <use xlink:href="#DejaVuSans-2e" x="147.412109"/>
       <use xlink:href="#DejaVuSans-30" x="179.199219"/>
       <use xlink:href="#DejaVuSans-30" x="242.822266"/>
       <use xlink:href="#DejaVuSans-32" x="306.445312"/>
      </g>
     </g>
    </g>
    <g id="xtick_4">
     <g id="line2d_5">
      <g>
       <use xlink:href="#mb880b443a3" x="267.705095" y="390.04" style="stroke: #000000; stroke-width: 0.8"/>
      </g>
     </g>
     <g id="text_4">
      <!-- 0.000 -->
      <g transform="translate(253.391033 404.638438) scale(0.1 -0.1)">
       <use xlink:href="#DejaVuSans-30"/>
       <use xlink:href="#DejaVuSans-2e" x="63.623047"/>
       <use xlink:href="#DejaVuSans-30" x="95.410156"/>
       <use xlink:href="#DejaVuSans-30" x="159.033203"/>
       <use xlink:href="#DejaVuSans-30" x="222.65625"/>
      </g>
     </g>
    </g>
    <g id="xtick_5">
     <g id="line2d_6">
      <g>
       <use xlink:href="#mb880b443a3" x="317.289321" y="390.04" style="stroke: #000000; stroke-width: 0.8"/>
      </g>
     </g>
     <g id="text_5">
      <!-- 0.002 -->
      <g transform="translate(302.975259 404.638438) scale(0.1 -0.1)">
       <use xlink:href="#DejaVuSans-30"/>
       <use xlink:href="#DejaVuSans-2e" x="63.623047"/>
       <use xlink:href="#DejaVuSans-30" x="95.410156"/>
       <use xlink:href="#DejaVuSans-30" x="159.033203"/>
       <use xlink:href="#DejaVuSans-32" x="222.65625"/>
      </g>
     </g>
    </g>
    <g id="xtick_6">
     <g id="line2d_7">
      <g>
       <use xlink:href="#mb880b443a3" x="366.873548" y="390.04" style="stroke: #000000; stroke-width: 0.8"/>
      </g>
     </g>
     <g id="text_6">
      <!-- 0.004 -->
      <g transform="translate(352.559485 404.638438) scale(0.1 -0.1)">
       <use xlink:href="#DejaVuSans-30"/>
       <use xlink:href="#DejaVuSans-2e" x="63.623047"/>
       <use xlink:href="#DejaVuSans-30" x="95.410156"/>
       <use xlink:href="#DejaVuSans-30" x="159.033203"/>
       <use xlink:href="#DejaVuSans-34" x="222.65625"/>
      </g>
     </g>
    </g>
    <g id="xtick_7">
     <g id="line2d_8">
      <g>
       <use xlink:href="#mb880b443a3" x="416.457774" y="390.04" style="stroke: #000000; stroke-width: 0.8"/>
      </g>
     </g>
     <g id="text_7">
      <!-- 0.006 -->
      <g transform="translate(402.143711 404.638438) scale(0.1 -0.1)">
       <use xlink:href="#DejaVuSans-30"/>
       <use xlink:href="#DejaVuSans-2e" x="63.623047"/>
       <use xlink:href="#DejaVuSans-30" x="95.410156"/>
       <use xlink:href="#DejaVuSans-30" x="159.033203"/>
       <use xlink:href="#DejaVuSans-36" x="222.65625"/>
      </g>
     </g>
    </g>
    <g id="xtick_8">
     <g id="line2d_9">
      <g>
       <use xlink:href="#mb880b443a3" x="466.042" y="390.04" style="stroke: #000000; stroke-width: 0.8"/>
      </g>
     </g>
     <g id="text_8">
      <!-- 0.008 -->
      <g transform="translate(451.727937 404.638438) scale(0.1 -0.1)">
       <defs>
        <path id="DejaVuSans-38" d="M 2034 2216 
Q 1584 2216 1326 1975 
Q 1069 1734 1069 1313 
Q 1069 891 1326 650 
Q 1584 409 2034 409 
Q 2484 409 2743 651 
Q 3003 894 3003 1313 
Q 3003 1734 2745 1975 
Q 2488 2216 2034 2216 
z
M 1403 2484 
Q 997 2584 770 2862 
Q 544 3141 544 3541 
Q 544 4100 942 4425 
Q 1341 4750 2034 4750 
Q 2731 4750 3128 4425 
Q 3525 4100 3525 3541 
Q 3525 3141 3298 2862 
Q 3072 2584 2669 2484 
Q 3125 2378 3379 2068 
Q 3634 1759 3634 1313 
Q 3634 634 3220 271 
Q 2806 -91 2034 -91 
Q 1263 -91 848 271 
Q 434 634 434 1313 
Q 434 1759 690 2068 
Q 947 2378 1403 2484 
z
M 1172 3481 
Q 1172 3119 1398 2916 
Q 1625 2713 2034 2713 
Q 2441 2713 2670 2916 
Q 2900 3119 2900 3481 
Q 2900 3844 2670 4047 
Q 2441 4250 2034 4250 
Q 1625 4250 1398 4047 
Q 1172 3844 1172 3481 
z
" transform="scale(0.015625)"/>
       </defs>
       <use xlink:href="#DejaVuSans-30"/>
       <use xlink:href="#DejaVuSans-2e" x="63.623047"/>
       <use xlink:href="#DejaVuSans-30" x="95.410156"/>
       <use xlink:href="#DejaVuSans-30" x="159.033203"/>
       <use xlink:href="#DejaVuSans-38" x="222.65625"/>
      </g>
     </g>
    </g>
    <g id="text_9">
     <!-- $x$ -->
     <g transform="translate(264.726 418.316562) scale(0.1 -0.1)">
      <defs>
       <path id="DejaVuSans-Oblique-78" d="M 3841 3500 
L 2234 1784 
L 3219 0 
L 2559 0 
L 1819 1388 
L 531 0 
L -166 0 
L 1556 1844 
L 641 3500 
L 1300 3500 
L 1972 2234 
L 3144 3500 
L 3841 3500 
z
" transform="scale(0.015625)"/>
      </defs>
      <use xlink:href="#DejaVuSans-Oblique-78" transform="translate(0 0.3125)"/>
     </g>
    </g>
   </g>
   <g id="matplotlib.axis_2">
    <g id="ytick_1">
     <g id="line2d_10">
      <defs>
       <path id="m8489406b9b" d="M 0 0 
L -3.5 0 
" style="stroke: #000000; stroke-width: 0.8"/>
      </defs>
      <g>
       <use xlink:href="#m8489406b9b" x="69.41" y="343.137417" style="stroke: #000000; stroke-width: 0.8"/>
      </g>
     </g>
     <g id="text_10">
      <!-- 0.006 -->
      <g transform="translate(25.402187 346.936636) scale(0.1 -0.1)">
       <use xlink:href="#DejaVuSans-2212"/>
       <use xlink:href="#DejaVuSans-30" x="83.789062"/>
       <use xlink:href="#DejaVuSans-2e" x="147.412109"/>
       <use xlink:href="#DejaVuSans-30" x="179.199219"/>
       <use xlink:href="#DejaVuSans-30" x="242.822266"/>
       <use xlink:href="#DejaVuSans-36" x="306.445312"/>
      </g>
     </g>
    </g>
    <g id="ytick_2">
     <g id="line2d_11">
      <g>
       <use xlink:href="#m8489406b9b" x="69.41" y="296.224945" style="stroke: #000000; stroke-width: 0.8"/>
      </g>
     </g>
     <g id="text_11">
      <!-- 0.004 -->
      <g transform="translate(25.402187 300.024163) scale(0.1 -0.1)">
       <use xlink:href="#DejaVuSans-2212"/>
       <use xlink:href="#DejaVuSans-30" x="83.789062"/>
       <use xlink:href="#DejaVuSans-2e" x="147.412109"/>
       <use xlink:href="#DejaVuSans-30" x="179.199219"/>
       <use xlink:href="#DejaVuSans-30" x="242.822266"/>
       <use xlink:href="#DejaVuSans-34" x="306.445312"/>
      </g>
     </g>
    </g>
    <g id="ytick_3">
     <g id="line2d_12">
      <g>
       <use xlink:href="#m8489406b9b" x="69.41" y="249.312472" style="stroke: #000000; stroke-width: 0.8"/>
      </g>
     </g>
     <g id="text_12">
      <!-- 0.002 -->
      <g transform="translate(25.402187 253.111691) scale(0.1 -0.1)">
       <use xlink:href="#DejaVuSans-2212"/>
       <use xlink:href="#DejaVuSans-30" x="83.789062"/>
       <use xlink:href="#DejaVuSans-2e" x="147.412109"/>
       <use xlink:href="#DejaVuSans-30" x="179.199219"/>
       <use xlink:href="#DejaVuSans-30" x="242.822266"/>
       <use xlink:href="#DejaVuSans-32" x="306.445312"/>
      </g>
     </g>
    </g>
    <g id="ytick_4">
     <g id="line2d_13">
      <g>
       <use xlink:href="#m8489406b9b" x="69.41" y="202.4" style="stroke: #000000; stroke-width: 0.8"/>
      </g>
     </g>
     <g id="text_13">
      <!-- 0.000 -->
      <g transform="translate(33.781875 206.199219) scale(0.1 -0.1)">
       <use xlink:href="#DejaVuSans-30"/>
       <use xlink:href="#DejaVuSans-2e" x="63.623047"/>
       <use xlink:href="#DejaVuSans-30" x="95.410156"/>
       <use xlink:href="#DejaVuSans-30" x="159.033203"/>
       <use xlink:href="#DejaVuSans-30" x="222.65625"/>
      </g>
     </g>
    </g>
    <g id="ytick_5">
     <g id="line2d_14">
      <g>
       <use xlink:href="#m8489406b9b" x="69.41" y="155.487528" style="stroke: #000000; stroke-width: 0.8"/>
      </g>
     </g>
     <g id="text_14">
      <!-- 0.002 -->
      <g transform="translate(33.781875 159.286746) scale(0.1 -0.1)">
       <use xlink:href="#DejaVuSans-30"/>
       <use xlink:href="#DejaVuSans-2e" x="63.623047"/>
       <use xlink:href="#DejaVuSans-30" x="95.410156"/>
       <use xlink:href="#DejaVuSans-30" x="159.033203"/>
       <use xlink:href="#DejaVuSans-32" x="222.65625"/>
      </g>
     </g>
    </g>
    <g id="ytick_6">
     <g id="line2d_15">
      <g>
       <use xlink:href="#m8489406b9b" x="69.41" y="108.575055" style="stroke: #000000; stroke-width: 0.8"/>
      </g>
     </g>
     <g id="text_15">
      <!-- 0.004 -->
      <g transform="translate(33.781875 112.374274) scale(0.1 -0.1)">
       <use xlink:href="#DejaVuSans-30"/>
       <use xlink:href="#DejaVuSans-2e" x="63.623047"/>
       <use xlink:href="#DejaVuSans-30" x="95.410156"/>
       <use xlink:href="#DejaVuSans-30" x="159.033203"/>
       <use xlink:href="#DejaVuSans-34" x="222.65625"/>
      </g>
     </g>
    </g>
    <g id="ytick_7">
     <g id="line2d_16">
      <g>
       <use xlink:href="#m8489406b9b" x="69.41" y="61.662583" style="stroke: #000000; stroke-width: 0.8"/>
      </g>
     </g>
     <g id="text_16">
      <!-- 0.006 -->
      <g transform="translate(33.781875 65.461802) scale(0.1 -0.1)">
       <use xlink:href="#DejaVuSans-30"/>
       <use xlink:href="#DejaVuSans-2e" x="63.623047"/>
       <use xlink:href="#DejaVuSans-30" x="95.410156"/>
       <use xlink:href="#DejaVuSans-30" x="159.033203"/>
       <use xlink:href="#DejaVuSans-36" x="222.65625"/>
      </g>
     </g>
    </g>
    <g id="text_17">
     <!-- $y$ -->
     <g transform="translate(19.302187 205.4) rotate(-90) scale(0.1 -0.1)">
      <defs>
       <path id="DejaVuSans-Oblique-79" d="M 1588 -325 
Q 1188 -997 936 -1164 
Q 684 -1331 294 -1331 
L -159 -1331 
L -63 -850 
L 269 -850 
Q 509 -850 678 -719 
Q 847 -588 1056 -206 
L 1234 128 
L 459 3500 
L 1069 3500 
L 1650 819 
L 3256 3500 
L 3859 3500 
L 1588 -325 
z
" transform="scale(0.015625)"/>
      </defs>
      <use xlink:href="#DejaVuSans-Oblique-79" transform="translate(0 0.3125)"/>
     </g>
    </g>
   </g>
   <g id="line2d_17"/>
   <g id="patch_3">
    <path d="M 69.41 390.04 
L 69.41 14.76 
" style="fill: none; stroke: #000000; stroke-width: 0.8; stroke-linejoin: miter; stroke-linecap: square"/>
   </g>
   <g id="patch_4">
    <path d="M 466.042 390.04 
L 466.042 14.76 
" style="fill: none; stroke: #000000; stroke-width: 0.8; stroke-linejoin: miter; stroke-linecap: square"/>
   </g>
   <g id="patch_5">
    <path d="M 69.41 390.04 
L 466.042 390.04 
" style="fill: none; stroke: #000000; stroke-width: 0.8; stroke-linejoin: miter; stroke-linecap: square"/>
   </g>
   <g id="patch_6">
    <path d="M 69.41 14.76 
L 466.042 14.76 
" style="fill: none; stroke: #000000; stroke-width: 0.8; stroke-linejoin: miter; stroke-linecap: square"/>
   </g>
  </g>
  <g id="axes_2">
   <g id="patch_7">
    <path d="M 490.8315 390.04 
L 509.5955 390.04 
L 509.5955 14.76 
L 490.8315 14.76 
z
" style="fill: #ffffff"/>
   </g>
   <g id="QuadMesh_1">
    <path d="M 490.8315 390.04 
L 509.5955 390.04 
L 509.5955 336.428571 
L 490.8315 336.428571 
L 490.8315 390.04 
" clip-path="url(#p1e805ffd7d)" style="fill: #481b6d"/>
    <path d="M 490.8315 336.428571 
L 509.5955 336.428571 
L 509.5955 282.817143 
L 490.8315 282.817143 
L 490.8315 336.428571 
" clip-path="url(#p1e805ffd7d)" style="fill: #3f4788"/>
    <path d="M 490.8315 282.817143 
L 509.5955 282.817143 
L 509.5955 229.205714 
L 490.8315 229.205714 
L 490.8315 282.817143 
" clip-path="url(#p1e805ffd7d)" style="fill: #2e6e8e"/>
    <path d="M 490.8315 229.205714 
L 509.5955 229.205714 
L 509.5955 175.594286 
L 490.8315 175.594286 
L 490.8315 229.205714 
" clip-path="url(#p1e805ffd7d)" style="fill: #21918c"/>
    <path d="M 490.8315 175.594286 
L 509.5955 175.594286 
L 509.5955 121.982857 
L 490.8315 121.982857 
L 490.8315 175.594286 
" clip-path="url(#p1e805ffd7d)" style="fill: #2db27d"/>
    <path d="M 490.8315 121.982857 
L 509.5955 121.982857 
L 509.5955 68.371429 
L 490.8315 68.371429 
L 490.8315 121.982857 
" clip-path="url(#p1e805ffd7d)" style="fill: #73d056"/>
    <path d="M 490.8315 68.371429 
L 509.5955 68.371429 
L 509.5955 14.76 
L 490.8315 14.76 
L 490.8315 68.371429 
" clip-path="url(#p1e805ffd7d)" style="fill: #d0e11c"/>
   </g>
   <g id="matplotlib.axis_3"/>
   <g id="matplotlib.axis_4">
    <g id="ytick_8">
     <g id="line2d_18">
      <defs>
       <path id="mbf9f5fcf8b" d="M 0 0 
L 3.5 0 
" style="stroke: #000000; stroke-width: 0.8"/>
      </defs>
      <g>
       <use xlink:href="#mbf9f5fcf8b" x="509.5955" y="390.04" style="stroke: #000000; stroke-width: 0.8"/>
      </g>
     </g>
     <g id="text_18">
      <!-- 0.00 -->
      <g transform="translate(516.5955 393.839219) scale(0.1 -0.1)">
       <use xlink:href="#DejaVuSans-30"/>
       <use xlink:href="#DejaVuSans-2e" x="63.623047"/>
       <use xlink:href="#DejaVuSans-30" x="95.410156"/>
       <use xlink:href="#DejaVuSans-30" x="159.033203"/>
      </g>
     </g>
    </g>
    <g id="ytick_9">
     <g id="line2d_19">
      <g>
       <use xlink:href="#mbf9f5fcf8b" x="509.5955" y="336.428571" style="stroke: #000000; stroke-width: 0.8"/>
      </g>
     </g>
     <g id="text_19">
      <!-- 0.15 -->
      <g transform="translate(516.5955 340.22779) scale(0.1 -0.1)">
       <defs>
        <path id="DejaVuSans-31" d="M 794 531 
L 1825 531 
L 1825 4091 
L 703 3866 
L 703 4441 
L 1819 4666 
L 2450 4666 
L 2450 531 
L 3481 531 
L 3481 0 
L 794 0 
L 794 531 
z
" transform="scale(0.015625)"/>
        <path id="DejaVuSans-35" d="M 691 4666 
L 3169 4666 
L 3169 4134 
L 1269 4134 
L 1269 2991 
Q 1406 3038 1543 3061 
Q 1681 3084 1819 3084 
Q 2600 3084 3056 2656 
Q 3513 2228 3513 1497 
Q 3513 744 3044 326 
Q 2575 -91 1722 -91 
Q 1428 -91 1123 -41 
Q 819 9 494 109 
L 494 744 
Q 775 591 1075 516 
Q 1375 441 1709 441 
Q 2250 441 2565 725 
Q 2881 1009 2881 1497 
Q 2881 1984 2565 2268 
Q 2250 2553 1709 2553 
Q 1456 2553 1204 2497 
Q 953 2441 691 2322 
L 691 4666 
z
" transform="scale(0.015625)"/>
       </defs>
       <use xlink:href="#DejaVuSans-30"/>
       <use xlink:href="#DejaVuSans-2e" x="63.623047"/>
       <use xlink:href="#DejaVuSans-31" x="95.410156"/>
       <use xlink:href="#DejaVuSans-35" x="159.033203"/>
      </g>
     </g>
    </g>
    <g id="ytick_10">
     <g id="line2d_20">
      <g>
       <use xlink:href="#mbf9f5fcf8b" x="509.5955" y="282.817143" style="stroke: #000000; stroke-width: 0.8"/>
      </g>
     </g>
     <g id="text_20">
      <!-- 0.30 -->
      <g transform="translate(516.5955 286.616362) scale(0.1 -0.1)">
       <defs>
        <path id="DejaVuSans-33" d="M 2597 2516 
Q 3050 2419 3304 2112 
Q 3559 1806 3559 1356 
Q 3559 666 3084 287 
Q 2609 -91 1734 -91 
Q 1441 -91 1130 -33 
Q 819 25 488 141 
L 488 750 
Q 750 597 1062 519 
Q 1375 441 1716 441 
Q 2309 441 2620 675 
Q 2931 909 2931 1356 
Q 2931 1769 2642 2001 
Q 2353 2234 1838 2234 
L 1294 2234 
L 1294 2753 
L 1863 2753 
Q 2328 2753 2575 2939 
Q 2822 3125 2822 3475 
Q 2822 3834 2567 4026 
Q 2313 4219 1838 4219 
Q 1578 4219 1281 4162 
Q 984 4106 628 3988 
L 628 4550 
Q 988 4650 1302 4700 
Q 1616 4750 1894 4750 
Q 2613 4750 3031 4423 
Q 3450 4097 3450 3541 
Q 3450 3153 3228 2886 
Q 3006 2619 2597 2516 
z
" transform="scale(0.015625)"/>
       </defs>
       <use xlink:href="#DejaVuSans-30"/>
       <use xlink:href="#DejaVuSans-2e" x="63.623047"/>
       <use xlink:href="#DejaVuSans-33" x="95.410156"/>
       <use xlink:href="#DejaVuSans-30" x="159.033203"/>
      </g>
     </g>
    </g>
    <g id="ytick_11">
     <g id="line2d_21">
      <g>
       <use xlink:href="#mbf9f5fcf8b" x="509.5955" y="229.205714" style="stroke: #000000; stroke-width: 0.8"/>
      </g>
     </g>
     <g id="text_21">
      <!-- 0.45 -->
      <g transform="translate(516.5955 233.004933) scale(0.1 -0.1)">
       <use xlink:href="#DejaVuSans-30"/>
       <use xlink:href="#DejaVuSans-2e" x="63.623047"/>
       <use xlink:href="#DejaVuSans-34" x="95.410156"/>
       <use xlink:href="#DejaVuSans-35" x="159.033203"/>
      </g>
     </g>
    </g>
    <g id="ytick_12">
     <g id="line2d_22">
      <g>
       <use xlink:href="#mbf9f5fcf8b" x="509.5955" y="175.594286" style="stroke: #000000; stroke-width: 0.8"/>
      </g>
     </g>
     <g id="text_22">
      <!-- 0.60 -->
      <g transform="translate(516.5955 179.393504) scale(0.1 -0.1)">
       <use xlink:href="#DejaVuSans-30"/>
       <use xlink:href="#DejaVuSans-2e" x="63.623047"/>
       <use xlink:href="#DejaVuSans-36" x="95.410156"/>
       <use xlink:href="#DejaVuSans-30" x="159.033203"/>
      </g>
     </g>
    </g>
    <g id="ytick_13">
     <g id="line2d_23">
      <g>
       <use xlink:href="#mbf9f5fcf8b" x="509.5955" y="121.982857" style="stroke: #000000; stroke-width: 0.8"/>
      </g>
     </g>
     <g id="text_23">
      <!-- 0.75 -->
      <g transform="translate(516.5955 125.782076) scale(0.1 -0.1)">
       <defs>
        <path id="DejaVuSans-37" d="M 525 4666 
L 3525 4666 
L 3525 4397 
L 1831 0 
L 1172 0 
L 2766 4134 
L 525 4134 
L 525 4666 
z
" transform="scale(0.015625)"/>
       </defs>
       <use xlink:href="#DejaVuSans-30"/>
       <use xlink:href="#DejaVuSans-2e" x="63.623047"/>
       <use xlink:href="#DejaVuSans-37" x="95.410156"/>
       <use xlink:href="#DejaVuSans-35" x="159.033203"/>
      </g>
     </g>
    </g>
    <g id="ytick_14">
     <g id="line2d_24">
      <g>
       <use xlink:href="#mbf9f5fcf8b" x="509.5955" y="68.371429" style="stroke: #000000; stroke-width: 0.8"/>
      </g>
     </g>
     <g id="text_24">
      <!-- 0.90 -->
      <g transform="translate(516.5955 72.170647) scale(0.1 -0.1)">
       <defs>
        <path id="DejaVuSans-39" d="M 703 97 
L 703 672 
Q 941 559 1184 500 
Q 1428 441 1663 441 
Q 2288 441 2617 861 
Q 2947 1281 2994 2138 
Q 2813 1869 2534 1725 
Q 2256 1581 1919 1581 
Q 1219 1581 811 2004 
Q 403 2428 403 3163 
Q 403 3881 828 4315 
Q 1253 4750 1959 4750 
Q 2769 4750 3195 4129 
Q 3622 3509 3622 2328 
Q 3622 1225 3098 567 
Q 2575 -91 1691 -91 
Q 1453 -91 1209 -44 
Q 966 3 703 97 
z
M 1959 2075 
Q 2384 2075 2632 2365 
Q 2881 2656 2881 3163 
Q 2881 3666 2632 3958 
Q 2384 4250 1959 4250 
Q 1534 4250 1286 3958 
Q 1038 3666 1038 3163 
Q 1038 2656 1286 2365 
Q 1534 2075 1959 2075 
z
" transform="scale(0.015625)"/>
       </defs>
       <use xlink:href="#DejaVuSans-30"/>
       <use xlink:href="#DejaVuSans-2e" x="63.623047"/>
       <use xlink:href="#DejaVuSans-39" x="95.410156"/>
       <use xlink:href="#DejaVuSans-30" x="159.033203"/>
      </g>
     </g>
    </g>
    <g id="ytick_15">
     <g id="line2d_25">
      <g>
       <use xlink:href="#mbf9f5fcf8b" x="509.5955" y="14.76" style="stroke: #000000; stroke-width: 0.8"/>
      </g>
     </g>
     <g id="text_25">
      <!-- 1.05 -->
      <g transform="translate(516.5955 18.559219) scale(0.1 -0.1)">
       <use xlink:href="#DejaVuSans-31"/>
       <use xlink:href="#DejaVuSans-2e" x="63.623047"/>
       <use xlink:href="#DejaVuSans-30" x="95.410156"/>
       <use xlink:href="#DejaVuSans-35" x="159.033203"/>
      </g>
     </g>
    </g>
    <g id="text_26">
     <!-- $u(x, y)$ -->
     <g transform="translate(550.461125 218) rotate(-90) scale(0.1 -0.1)">
      <defs>
       <path id="DejaVuSans-Oblique-75" d="M 428 1388 
L 838 3500 
L 1416 3500 
L 1006 1409 
Q 975 1256 961 1147 
Q 947 1038 947 966 
Q 947 700 1109 554 
Q 1272 409 1569 409 
Q 2031 409 2368 721 
Q 2706 1034 2809 1563 
L 3194 3500 
L 3769 3500 
L 3091 0 
L 2516 0 
L 2631 550 
Q 2388 244 2052 76 
Q 1716 -91 1338 -91 
Q 878 -91 622 161 
Q 366 413 366 863 
Q 366 956 381 1097 
Q 397 1238 428 1388 
z
" transform="scale(0.015625)"/>
       <path id="DejaVuSans-28" d="M 1984 4856 
Q 1566 4138 1362 3434 
Q 1159 2731 1159 2009 
Q 1159 1288 1364 580 
Q 1569 -128 1984 -844 
L 1484 -844 
Q 1016 -109 783 600 
Q 550 1309 550 2009 
Q 550 2706 781 3412 
Q 1013 4119 1484 4856 
L 1984 4856 
z
" transform="scale(0.015625)"/>
       <path id="DejaVuSans-2c" d="M 750 794 
L 1409 794 
L 1409 256 
L 897 -744 
L 494 -744 
L 750 256 
L 750 794 
z
" transform="scale(0.015625)"/>
       <path id="DejaVuSans-29" d="M 513 4856 
L 1013 4856 
Q 1481 4119 1714 3412 
Q 1947 2706 1947 2009 
Q 1947 1309 1714 600 
Q 1481 -109 1013 -844 
L 513 -844 
Q 928 -128 1133 580 
Q 1338 1288 1338 2009 
Q 1338 2731 1133 3434 
Q 928 4138 513 4856 
z
" transform="scale(0.015625)"/>
      </defs>
      <use xlink:href="#DejaVuSans-Oblique-75" transform="translate(0 0.125)"/>
      <use xlink:href="#DejaVuSans-28" transform="translate(63.378906 0.125)"/>
      <use xlink:href="#DejaVuSans-Oblique-78" transform="translate(102.392578 0.125)"/>
      <use xlink:href="#DejaVuSans-2c" transform="translate(161.572266 0.125)"/>
      <use xlink:href="#DejaVuSans-Oblique-79" transform="translate(212.841797 0.125)"/>
      <use xlink:href="#DejaVuSans-29" transform="translate(272.021484 0.125)"/>
     </g>
    </g>
   </g>
   <g id="LineCollection_1"/>
   <g id="patch_8">
    <path d="M 490.8315 390.04 
L 500.2135 390.04 
L 509.5955 390.04 
L 509.5955 14.76 
L 500.2135 14.76 
L 490.8315 14.76 
L 490.8315 390.04 
z
" style="fill: none; stroke: #000000; stroke-width: 0.8; stroke-linejoin: miter; stroke-linecap: square"/>
   </g>
  </g>
 </g>
 <defs>
  <clipPath id="p47ff464387">
   <rect x="69.41" y="14.76" width="396.632" height="375.28"/>
  </clipPath>
  <clipPath id="p1e805ffd7d">
   <rect x="490.8315" y="14.76" width="18.764" height="375.28"/>
  </clipPath>
 </defs>
</svg>
