<?xml version="1.0" encoding="utf-8" standalone="no"?>
<!DOCTYPE svg PUBLIC "-//W3C//DTD SVG 1.1//EN"
  "http://www.w3.org/Graphics/SVG/1.1/DTD/svg11.dtd">
<svg xmlns:xlink="http://www.w3.org/1999/xlink" width="576pt" height="432pt" viewBox="0 0 576 432" xmlns="http://www.w3.org/2000/svg" version="1.1">
 <metadata>
  <rdf:RDF xmlns:dc="http://purl.org/dc/elements/1.1/" xmlns:cc="http://creativecommons.org/ns#" xmlns:rdf="http://www.w3.org/1999/02/22-rdf-syntax-ns#">
   <cc:Work>
    <dc:type rdf:resource="http://purl.org/dc/dcmitype/StillImage"/>
    <dc:date>2024-12-05T19:44:49.856377</dc:date>
    <dc:format>image/svg+xml</dc:format>
    <dc:creator>
     <cc:Agent>
      <dc:title>Matplotlib v3.8.3, https://matplotlib.org/</dc:title>
     </cc:Agent>
    </dc:creator>
   </cc:Work>
  </rdf:RDF>
 </metadata>
 <defs>
  <style type="text/css">*{stroke-linejoin: round; stroke-linecap: butt}</style>
 </defs>
 <g id="figure_1">
  <g id="patch_1">
   <path d="M 0 432 
L 576 432 
L 576 0 
L 0 0 
z
" style="fill: #ffffff"/>
  </g>
  <g id="axes_1">
   <g id="patch_2">
    <path d="M 41.15 390.04 
L 563.336688 390.04 
L 563.336688 21.72 
L 41.15 21.72 
z
" style="fill: #ffffff"/>
   </g>
   <g id="matplotlib.axis_1">
    <g id="xtick_1">
     <g id="line2d_1">
      <path d="M 59.936855 390.04 
L 59.936855 21.72 
" clip-path="url(#p8aa46daf00)" style="fill: none; stroke: #b0b0b0; stroke-width: 0.8; stroke-linecap: square"/>
     </g>
     <g id="line2d_2">
      <defs>
       <path id="mfb9b7fe6e8" d="M 0 0 
L 0 3.5 
" style="stroke: #000000; stroke-width: 0.8"/>
      </defs>
      <g>
       <use xlink:href="#mfb9b7fe6e8" x="59.936855" y="390.04" style="stroke: #000000; stroke-width: 0.8"/>
      </g>
     </g>
     <g id="text_1">
      <!-- 0.0000 -->
      <g transform="translate(42.441542 404.638438) scale(0.1 -0.1)">
       <defs>
        <path id="DejaVuSans-30" d="M 2034 4250 
Q 1547 4250 1301 3770 
Q 1056 3291 1056 2328 
Q 1056 1369 1301 889 
Q 1547 409 2034 409 
Q 2525 409 2770 889 
Q 3016 1369 3016 2328 
Q 3016 3291 2770 3770 
Q 2525 4250 2034 4250 
z
M 2034 4750 
Q 2819 4750 3233 4129 
Q 3647 3509 3647 2328 
Q 3647 1150 3233 529 
Q 2819 -91 2034 -91 
Q 1250 -91 836 529 
Q 422 1150 422 2328 
Q 422 3509 836 4129 
Q 1250 4750 2034 4750 
z
" transform="scale(0.015625)"/>
        <path id="DejaVuSans-2e" d="M 684 794 
L 1344 794 
L 1344 0 
L 684 0 
L 684 794 
z
" transform="scale(0.015625)"/>
       </defs>
       <use xlink:href="#DejaVuSans-30"/>
       <use xlink:href="#DejaVuSans-2e" x="63.623047"/>
       <use xlink:href="#DejaVuSans-30" x="95.410156"/>
       <use xlink:href="#DejaVuSans-30" x="159.033203"/>
       <use xlink:href="#DejaVuSans-30" x="222.65625"/>
       <use xlink:href="#DejaVuSans-30" x="286.279297"/>
      </g>
     </g>
    </g>
    <g id="xtick_2">
     <g id="line2d_3">
      <path d="M 120.601001 390.04 
L 120.601001 21.72 
" clip-path="url(#p8aa46daf00)" style="fill: none; stroke: #b0b0b0; stroke-width: 0.8; stroke-linecap: square"/>
     </g>
     <g id="line2d_4">
      <g>
       <use xlink:href="#mfb9b7fe6e8" x="120.601001" y="390.04" style="stroke: #000000; stroke-width: 0.8"/>
      </g>
     </g>
     <g id="text_2">
      <!-- 0.0025 -->
      <g transform="translate(103.105688 404.638438) scale(0.1 -0.1)">
       <defs>
        <path id="DejaVuSans-32" d="M 1228 531 
L 3431 531 
L 3431 0 
L 469 0 
L 469 531 
Q 828 903 1448 1529 
Q 2069 2156 2228 2338 
Q 2531 2678 2651 2914 
Q 2772 3150 2772 3378 
Q 2772 3750 2511 3984 
Q 2250 4219 1831 4219 
Q 1534 4219 1204 4116 
Q 875 4013 500 3803 
L 500 4441 
Q 881 4594 1212 4672 
Q 1544 4750 1819 4750 
Q 2544 4750 2975 4387 
Q 3406 4025 3406 3419 
Q 3406 3131 3298 2873 
Q 3191 2616 2906 2266 
Q 2828 2175 2409 1742 
Q 1991 1309 1228 531 
z
" transform="scale(0.015625)"/>
        <path id="DejaVuSans-35" d="M 691 4666 
L 3169 4666 
L 3169 4134 
L 1269 4134 
L 1269 2991 
Q 1406 3038 1543 3061 
Q 1681 3084 1819 3084 
Q 2600 3084 3056 2656 
Q 3513 2228 3513 1497 
Q 3513 744 3044 326 
Q 2575 -91 1722 -91 
Q 1428 -91 1123 -41 
Q 819 9 494 109 
L 494 744 
Q 775 591 1075 516 
Q 1375 441 1709 441 
Q 2250 441 2565 725 
Q 2881 1009 2881 1497 
Q 2881 1984 2565 2268 
Q 2250 2553 1709 2553 
Q 1456 2553 1204 2497 
Q 953 2441 691 2322 
L 691 4666 
z
" transform="scale(0.015625)"/>
       </defs>
       <use xlink:href="#DejaVuSans-30"/>
       <use xlink:href="#DejaVuSans-2e" x="63.623047"/>
       <use xlink:href="#DejaVuSans-30" x="95.410156"/>
       <use xlink:href="#DejaVuSans-30" x="159.033203"/>
       <use xlink:href="#DejaVuSans-32" x="222.65625"/>
       <use xlink:href="#DejaVuSans-35" x="286.279297"/>
      </g>
     </g>
    </g>
    <g id="xtick_3">
     <g id="line2d_5">
      <path d="M 181.265147 390.04 
L 181.265147 21.72 
" clip-path="url(#p8aa46daf00)" style="fill: none; stroke: #b0b0b0; stroke-width: 0.8; stroke-linecap: square"/>
     </g>
     <g id="line2d_6">
      <g>
       <use xlink:href="#mfb9b7fe6e8" x="181.265147" y="390.04" style="stroke: #000000; stroke-width: 0.8"/>
      </g>
     </g>
     <g id="text_3">
      <!-- 0.0050 -->
      <g transform="translate(163.769834 404.638438) scale(0.1 -0.1)">
       <use xlink:href="#DejaVuSans-30"/>
       <use xlink:href="#DejaVuSans-2e" x="63.623047"/>
       <use xlink:href="#DejaVuSans-30" x="95.410156"/>
       <use xlink:href="#DejaVuSans-30" x="159.033203"/>
       <use xlink:href="#DejaVuSans-35" x="222.65625"/>
       <use xlink:href="#DejaVuSans-30" x="286.279297"/>
      </g>
     </g>
    </g>
    <g id="xtick_4">
     <g id="line2d_7">
      <path d="M 241.929293 390.04 
L 241.929293 21.72 
" clip-path="url(#p8aa46daf00)" style="fill: none; stroke: #b0b0b0; stroke-width: 0.8; stroke-linecap: square"/>
     </g>
     <g id="line2d_8">
      <g>
       <use xlink:href="#mfb9b7fe6e8" x="241.929293" y="390.04" style="stroke: #000000; stroke-width: 0.8"/>
      </g>
     </g>
     <g id="text_4">
      <!-- 0.0075 -->
      <g transform="translate(224.43398 404.638438) scale(0.1 -0.1)">
       <defs>
        <path id="DejaVuSans-37" d="M 525 4666 
L 3525 4666 
L 3525 4397 
L 1831 0 
L 1172 0 
L 2766 4134 
L 525 4134 
L 525 4666 
z
" transform="scale(0.015625)"/>
       </defs>
       <use xlink:href="#DejaVuSans-30"/>
       <use xlink:href="#DejaVuSans-2e" x="63.623047"/>
       <use xlink:href="#DejaVuSans-30" x="95.410156"/>
       <use xlink:href="#DejaVuSans-30" x="159.033203"/>
       <use xlink:href="#DejaVuSans-37" x="222.65625"/>
       <use xlink:href="#DejaVuSans-35" x="286.279297"/>
      </g>
     </g>
    </g>
    <g id="xtick_5">
     <g id="line2d_9">
      <path d="M 302.593438 390.04 
L 302.593438 21.72 
" clip-path="url(#p8aa46daf00)" style="fill: none; stroke: #b0b0b0; stroke-width: 0.8; stroke-linecap: square"/>
     </g>
     <g id="line2d_10">
      <g>
       <use xlink:href="#mfb9b7fe6e8" x="302.593438" y="390.04" style="stroke: #000000; stroke-width: 0.8"/>
      </g>
     </g>
     <g id="text_5">
      <!-- 0.0100 -->
      <g transform="translate(285.098126 404.638438) scale(0.1 -0.1)">
       <defs>
        <path id="DejaVuSans-31" d="M 794 531 
L 1825 531 
L 1825 4091 
L 703 3866 
L 703 4441 
L 1819 4666 
L 2450 4666 
L 2450 531 
L 3481 531 
L 3481 0 
L 794 0 
L 794 531 
z
" transform="scale(0.015625)"/>
       </defs>
       <use xlink:href="#DejaVuSans-30"/>
       <use xlink:href="#DejaVuSans-2e" x="63.623047"/>
       <use xlink:href="#DejaVuSans-30" x="95.410156"/>
       <use xlink:href="#DejaVuSans-31" x="159.033203"/>
       <use xlink:href="#DejaVuSans-30" x="222.65625"/>
       <use xlink:href="#DejaVuSans-30" x="286.279297"/>
      </g>
     </g>
    </g>
    <g id="xtick_6">
     <g id="line2d_11">
      <path d="M 363.257584 390.04 
L 363.257584 21.72 
" clip-path="url(#p8aa46daf00)" style="fill: none; stroke: #b0b0b0; stroke-width: 0.8; stroke-linecap: square"/>
     </g>
     <g id="line2d_12">
      <g>
       <use xlink:href="#mfb9b7fe6e8" x="363.257584" y="390.04" style="stroke: #000000; stroke-width: 0.8"/>
      </g>
     </g>
     <g id="text_6">
      <!-- 0.0125 -->
      <g transform="translate(345.762272 404.638438) scale(0.1 -0.1)">
       <use xlink:href="#DejaVuSans-30"/>
       <use xlink:href="#DejaVuSans-2e" x="63.623047"/>
       <use xlink:href="#DejaVuSans-30" x="95.410156"/>
       <use xlink:href="#DejaVuSans-31" x="159.033203"/>
       <use xlink:href="#DejaVuSans-32" x="222.65625"/>
       <use xlink:href="#DejaVuSans-35" x="286.279297"/>
      </g>
     </g>
    </g>
    <g id="xtick_7">
     <g id="line2d_13">
      <path d="M 423.92173 390.04 
L 423.92173 21.72 
" clip-path="url(#p8aa46daf00)" style="fill: none; stroke: #b0b0b0; stroke-width: 0.8; stroke-linecap: square"/>
     </g>
     <g id="line2d_14">
      <g>
       <use xlink:href="#mfb9b7fe6e8" x="423.92173" y="390.04" style="stroke: #000000; stroke-width: 0.8"/>
      </g>
     </g>
     <g id="text_7">
      <!-- 0.0150 -->
      <g transform="translate(406.426418 404.638438) scale(0.1 -0.1)">
       <use xlink:href="#DejaVuSans-30"/>
       <use xlink:href="#DejaVuSans-2e" x="63.623047"/>
       <use xlink:href="#DejaVuSans-30" x="95.410156"/>
       <use xlink:href="#DejaVuSans-31" x="159.033203"/>
       <use xlink:href="#DejaVuSans-35" x="222.65625"/>
       <use xlink:href="#DejaVuSans-30" x="286.279297"/>
      </g>
     </g>
    </g>
    <g id="xtick_8">
     <g id="line2d_15">
      <path d="M 484.585876 390.04 
L 484.585876 21.72 
" clip-path="url(#p8aa46daf00)" style="fill: none; stroke: #b0b0b0; stroke-width: 0.8; stroke-linecap: square"/>
     </g>
     <g id="line2d_16">
      <g>
       <use xlink:href="#mfb9b7fe6e8" x="484.585876" y="390.04" style="stroke: #000000; stroke-width: 0.8"/>
      </g>
     </g>
     <g id="text_8">
      <!-- 0.0175 -->
      <g transform="translate(467.090564 404.638438) scale(0.1 -0.1)">
       <use xlink:href="#DejaVuSans-30"/>
       <use xlink:href="#DejaVuSans-2e" x="63.623047"/>
       <use xlink:href="#DejaVuSans-30" x="95.410156"/>
       <use xlink:href="#DejaVuSans-31" x="159.033203"/>
       <use xlink:href="#DejaVuSans-37" x="222.65625"/>
       <use xlink:href="#DejaVuSans-35" x="286.279297"/>
      </g>
     </g>
    </g>
    <g id="xtick_9">
     <g id="line2d_17">
      <path d="M 545.250022 390.04 
L 545.250022 21.72 
" clip-path="url(#p8aa46daf00)" style="fill: none; stroke: #b0b0b0; stroke-width: 0.8; stroke-linecap: square"/>
     </g>
     <g id="line2d_18">
      <g>
       <use xlink:href="#mfb9b7fe6e8" x="545.250022" y="390.04" style="stroke: #000000; stroke-width: 0.8"/>
      </g>
     </g>
     <g id="text_9">
      <!-- 0.0200 -->
      <g transform="translate(527.75471 404.638438) scale(0.1 -0.1)">
       <use xlink:href="#DejaVuSans-30"/>
       <use xlink:href="#DejaVuSans-2e" x="63.623047"/>
       <use xlink:href="#DejaVuSans-30" x="95.410156"/>
       <use xlink:href="#DejaVuSans-32" x="159.033203"/>
       <use xlink:href="#DejaVuSans-30" x="222.65625"/>
       <use xlink:href="#DejaVuSans-30" x="286.279297"/>
      </g>
     </g>
    </g>
    <g id="text_10">
     <!-- Radial distance (m) -->
     <g transform="translate(253.664438 418.316562) scale(0.1 -0.1)">
      <defs>
       <path id="DejaVuSans-52" d="M 2841 2188 
Q 3044 2119 3236 1894 
Q 3428 1669 3622 1275 
L 4263 0 
L 3584 0 
L 2988 1197 
Q 2756 1666 2539 1819 
Q 2322 1972 1947 1972 
L 1259 1972 
L 1259 0 
L 628 0 
L 628 4666 
L 2053 4666 
Q 2853 4666 3247 4331 
Q 3641 3997 3641 3322 
Q 3641 2881 3436 2590 
Q 3231 2300 2841 2188 
z
M 1259 4147 
L 1259 2491 
L 2053 2491 
Q 2509 2491 2742 2702 
Q 2975 2913 2975 3322 
Q 2975 3731 2742 3939 
Q 2509 4147 2053 4147 
L 1259 4147 
z
" transform="scale(0.015625)"/>
       <path id="DejaVuSans-61" d="M 2194 1759 
Q 1497 1759 1228 1600 
Q 959 1441 959 1056 
Q 959 750 1161 570 
Q 1363 391 1709 391 
Q 2188 391 2477 730 
Q 2766 1069 2766 1631 
L 2766 1759 
L 2194 1759 
z
M 3341 1997 
L 3341 0 
L 2766 0 
L 2766 531 
Q 2569 213 2275 61 
Q 1981 -91 1556 -91 
Q 1019 -91 701 211 
Q 384 513 384 1019 
Q 384 1609 779 1909 
Q 1175 2209 1959 2209 
L 2766 2209 
L 2766 2266 
Q 2766 2663 2505 2880 
Q 2244 3097 1772 3097 
Q 1472 3097 1187 3025 
Q 903 2953 641 2809 
L 641 3341 
Q 956 3463 1253 3523 
Q 1550 3584 1831 3584 
Q 2591 3584 2966 3190 
Q 3341 2797 3341 1997 
z
" transform="scale(0.015625)"/>
       <path id="DejaVuSans-64" d="M 2906 2969 
L 2906 4863 
L 3481 4863 
L 3481 0 
L 2906 0 
L 2906 525 
Q 2725 213 2448 61 
Q 2172 -91 1784 -91 
Q 1150 -91 751 415 
Q 353 922 353 1747 
Q 353 2572 751 3078 
Q 1150 3584 1784 3584 
Q 2172 3584 2448 3432 
Q 2725 3281 2906 2969 
z
M 947 1747 
Q 947 1113 1208 752 
Q 1469 391 1925 391 
Q 2381 391 2643 752 
Q 2906 1113 2906 1747 
Q 2906 2381 2643 2742 
Q 2381 3103 1925 3103 
Q 1469 3103 1208 2742 
Q 947 2381 947 1747 
z
" transform="scale(0.015625)"/>
       <path id="DejaVuSans-69" d="M 603 3500 
L 1178 3500 
L 1178 0 
L 603 0 
L 603 3500 
z
M 603 4863 
L 1178 4863 
L 1178 4134 
L 603 4134 
L 603 4863 
z
" transform="scale(0.015625)"/>
       <path id="DejaVuSans-6c" d="M 603 4863 
L 1178 4863 
L 1178 0 
L 603 0 
L 603 4863 
z
" transform="scale(0.015625)"/>
       <path id="DejaVuSans-20" transform="scale(0.015625)"/>
       <path id="DejaVuSans-73" d="M 2834 3397 
L 2834 2853 
Q 2591 2978 2328 3040 
Q 2066 3103 1784 3103 
Q 1356 3103 1142 2972 
Q 928 2841 928 2578 
Q 928 2378 1081 2264 
Q 1234 2150 1697 2047 
L 1894 2003 
Q 2506 1872 2764 1633 
Q 3022 1394 3022 966 
Q 3022 478 2636 193 
Q 2250 -91 1575 -91 
Q 1294 -91 989 -36 
Q 684 19 347 128 
L 347 722 
Q 666 556 975 473 
Q 1284 391 1588 391 
Q 1994 391 2212 530 
Q 2431 669 2431 922 
Q 2431 1156 2273 1281 
Q 2116 1406 1581 1522 
L 1381 1569 
Q 847 1681 609 1914 
Q 372 2147 372 2553 
Q 372 3047 722 3315 
Q 1072 3584 1716 3584 
Q 2034 3584 2315 3537 
Q 2597 3491 2834 3397 
z
" transform="scale(0.015625)"/>
       <path id="DejaVuSans-74" d="M 1172 4494 
L 1172 3500 
L 2356 3500 
L 2356 3053 
L 1172 3053 
L 1172 1153 
Q 1172 725 1289 603 
Q 1406 481 1766 481 
L 2356 481 
L 2356 0 
L 1766 0 
Q 1100 0 847 248 
Q 594 497 594 1153 
L 594 3053 
L 172 3053 
L 172 3500 
L 594 3500 
L 594 4494 
L 1172 4494 
z
" transform="scale(0.015625)"/>
       <path id="DejaVuSans-6e" d="M 3513 2113 
L 3513 0 
L 2938 0 
L 2938 2094 
Q 2938 2591 2744 2837 
Q 2550 3084 2163 3084 
Q 1697 3084 1428 2787 
Q 1159 2491 1159 1978 
L 1159 0 
L 581 0 
L 581 3500 
L 1159 3500 
L 1159 2956 
Q 1366 3272 1645 3428 
Q 1925 3584 2291 3584 
Q 2894 3584 3203 3211 
Q 3513 2838 3513 2113 
z
" transform="scale(0.015625)"/>
       <path id="DejaVuSans-63" d="M 3122 3366 
L 3122 2828 
Q 2878 2963 2633 3030 
Q 2388 3097 2138 3097 
Q 1578 3097 1268 2742 
Q 959 2388 959 1747 
Q 959 1106 1268 751 
Q 1578 397 2138 397 
Q 2388 397 2633 464 
Q 2878 531 3122 666 
L 3122 134 
Q 2881 22 2623 -34 
Q 2366 -91 2075 -91 
Q 1284 -91 818 406 
Q 353 903 353 1747 
Q 353 2603 823 3093 
Q 1294 3584 2113 3584 
Q 2378 3584 2631 3529 
Q 2884 3475 3122 3366 
z
" transform="scale(0.015625)"/>
       <path id="DejaVuSans-65" d="M 3597 1894 
L 3597 1613 
L 953 1613 
Q 991 1019 1311 708 
Q 1631 397 2203 397 
Q 2534 397 2845 478 
Q 3156 559 3463 722 
L 3463 178 
Q 3153 47 2828 -22 
Q 2503 -91 2169 -91 
Q 1331 -91 842 396 
Q 353 884 353 1716 
Q 353 2575 817 3079 
Q 1281 3584 2069 3584 
Q 2775 3584 3186 3129 
Q 3597 2675 3597 1894 
z
M 3022 2063 
Q 3016 2534 2758 2815 
Q 2500 3097 2075 3097 
Q 1594 3097 1305 2825 
Q 1016 2553 972 2059 
L 3022 2063 
z
" transform="scale(0.015625)"/>
       <path id="DejaVuSans-28" d="M 1984 4856 
Q 1566 4138 1362 3434 
Q 1159 2731 1159 2009 
Q 1159 1288 1364 580 
Q 1569 -128 1984 -844 
L 1484 -844 
Q 1016 -109 783 600 
Q 550 1309 550 2009 
Q 550 2706 781 3412 
Q 1013 4119 1484 4856 
L 1984 4856 
z
" transform="scale(0.015625)"/>
       <path id="DejaVuSans-6d" d="M 3328 2828 
Q 3544 3216 3844 3400 
Q 4144 3584 4550 3584 
Q 5097 3584 5394 3201 
Q 5691 2819 5691 2113 
L 5691 0 
L 5113 0 
L 5113 2094 
Q 5113 2597 4934 2840 
Q 4756 3084 4391 3084 
Q 3944 3084 3684 2787 
Q 3425 2491 3425 1978 
L 3425 0 
L 2847 0 
L 2847 2094 
Q 2847 2600 2669 2842 
Q 2491 3084 2119 3084 
Q 1678 3084 1418 2786 
Q 1159 2488 1159 1978 
L 1159 0 
L 581 0 
L 581 3500 
L 1159 3500 
L 1159 2956 
Q 1356 3278 1631 3431 
Q 1906 3584 2284 3584 
Q 2666 3584 2933 3390 
Q 3200 3197 3328 2828 
z
" transform="scale(0.015625)"/>
       <path id="DejaVuSans-29" d="M 513 4856 
L 1013 4856 
Q 1481 4119 1714 3412 
Q 1947 2706 1947 2009 
Q 1947 1309 1714 600 
Q 1481 -109 1013 -844 
L 513 -844 
Q 928 -128 1133 580 
Q 1338 1288 1338 2009 
Q 1338 2731 1133 3434 
Q 928 4138 513 4856 
z
" transform="scale(0.015625)"/>
      </defs>
      <use xlink:href="#DejaVuSans-52"/>
      <use xlink:href="#DejaVuSans-61" x="67.232422"/>
      <use xlink:href="#DejaVuSans-64" x="128.511719"/>
      <use xlink:href="#DejaVuSans-69" x="191.988281"/>
      <use xlink:href="#DejaVuSans-61" x="219.771484"/>
      <use xlink:href="#DejaVuSans-6c" x="281.050781"/>
      <use xlink:href="#DejaVuSans-20" x="308.833984"/>
      <use xlink:href="#DejaVuSans-64" x="340.621094"/>
      <use xlink:href="#DejaVuSans-69" x="404.097656"/>
      <use xlink:href="#DejaVuSans-73" x="431.880859"/>
      <use xlink:href="#DejaVuSans-74" x="483.980469"/>
      <use xlink:href="#DejaVuSans-61" x="523.189453"/>
      <use xlink:href="#DejaVuSans-6e" x="584.46875"/>
      <use xlink:href="#DejaVuSans-63" x="647.847656"/>
      <use xlink:href="#DejaVuSans-65" x="702.828125"/>
      <use xlink:href="#DejaVuSans-20" x="764.351562"/>
      <use xlink:href="#DejaVuSans-28" x="796.138672"/>
      <use xlink:href="#DejaVuSans-6d" x="835.152344"/>
      <use xlink:href="#DejaVuSans-29" x="932.564453"/>
     </g>
    </g>
   </g>
   <g id="matplotlib.axis_2">
    <g id="ytick_1">
     <g id="line2d_19">
      <path d="M 41.15 380.358244 
L 563.336688 380.358244 
" clip-path="url(#p8aa46daf00)" style="fill: none; stroke: #b0b0b0; stroke-width: 0.8; stroke-linecap: square"/>
     </g>
     <g id="line2d_20">
      <defs>
       <path id="m25fe3e47db" d="M 0 0 
L -3.5 0 
" style="stroke: #000000; stroke-width: 0.8"/>
      </defs>
      <g>
       <use xlink:href="#m25fe3e47db" x="41.15" y="380.358244" style="stroke: #000000; stroke-width: 0.8"/>
      </g>
     </g>
     <g id="text_11">
      <!-- 0 -->
      <g transform="translate(27.7875 384.157463) scale(0.1 -0.1)">
       <use xlink:href="#DejaVuSans-30"/>
      </g>
     </g>
    </g>
    <g id="ytick_2">
     <g id="line2d_21">
      <path d="M 41.15 328.438297 
L 563.336688 328.438297 
" clip-path="url(#p8aa46daf00)" style="fill: none; stroke: #b0b0b0; stroke-width: 0.8; stroke-linecap: square"/>
     </g>
     <g id="line2d_22">
      <g>
       <use xlink:href="#m25fe3e47db" x="41.15" y="328.438297" style="stroke: #000000; stroke-width: 0.8"/>
      </g>
     </g>
     <g id="text_12">
      <!-- 1 -->
      <g transform="translate(27.7875 332.237516) scale(0.1 -0.1)">
       <use xlink:href="#DejaVuSans-31"/>
      </g>
     </g>
    </g>
    <g id="ytick_3">
     <g id="line2d_23">
      <path d="M 41.15 276.51835 
L 563.336688 276.51835 
" clip-path="url(#p8aa46daf00)" style="fill: none; stroke: #b0b0b0; stroke-width: 0.8; stroke-linecap: square"/>
     </g>
     <g id="line2d_24">
      <g>
       <use xlink:href="#m25fe3e47db" x="41.15" y="276.51835" style="stroke: #000000; stroke-width: 0.8"/>
      </g>
     </g>
     <g id="text_13">
      <!-- 2 -->
      <g transform="translate(27.7875 280.317569) scale(0.1 -0.1)">
       <use xlink:href="#DejaVuSans-32"/>
      </g>
     </g>
    </g>
    <g id="ytick_4">
     <g id="line2d_25">
      <path d="M 41.15 224.598403 
L 563.336688 224.598403 
" clip-path="url(#p8aa46daf00)" style="fill: none; stroke: #b0b0b0; stroke-width: 0.8; stroke-linecap: square"/>
     </g>
     <g id="line2d_26">
      <g>
       <use xlink:href="#m25fe3e47db" x="41.15" y="224.598403" style="stroke: #000000; stroke-width: 0.8"/>
      </g>
     </g>
     <g id="text_14">
      <!-- 3 -->
      <g transform="translate(27.7875 228.397622) scale(0.1 -0.1)">
       <defs>
        <path id="DejaVuSans-33" d="M 2597 2516 
Q 3050 2419 3304 2112 
Q 3559 1806 3559 1356 
Q 3559 666 3084 287 
Q 2609 -91 1734 -91 
Q 1441 -91 1130 -33 
Q 819 25 488 141 
L 488 750 
Q 750 597 1062 519 
Q 1375 441 1716 441 
Q 2309 441 2620 675 
Q 2931 909 2931 1356 
Q 2931 1769 2642 2001 
Q 2353 2234 1838 2234 
L 1294 2234 
L 1294 2753 
L 1863 2753 
Q 2328 2753 2575 2939 
Q 2822 3125 2822 3475 
Q 2822 3834 2567 4026 
Q 2313 4219 1838 4219 
Q 1578 4219 1281 4162 
Q 984 4106 628 3988 
L 628 4550 
Q 988 4650 1302 4700 
Q 1616 4750 1894 4750 
Q 2613 4750 3031 4423 
Q 3450 4097 3450 3541 
Q 3450 3153 3228 2886 
Q 3006 2619 2597 2516 
z
" transform="scale(0.015625)"/>
       </defs>
       <use xlink:href="#DejaVuSans-33"/>
      </g>
     </g>
    </g>
    <g id="ytick_5">
     <g id="line2d_27">
      <path d="M 41.15 172.678456 
L 563.336688 172.678456 
" clip-path="url(#p8aa46daf00)" style="fill: none; stroke: #b0b0b0; stroke-width: 0.8; stroke-linecap: square"/>
     </g>
     <g id="line2d_28">
      <g>
       <use xlink:href="#m25fe3e47db" x="41.15" y="172.678456" style="stroke: #000000; stroke-width: 0.8"/>
      </g>
     </g>
     <g id="text_15">
      <!-- 4 -->
      <g transform="translate(27.7875 176.477675) scale(0.1 -0.1)">
       <defs>
        <path id="DejaVuSans-34" d="M 2419 4116 
L 825 1625 
L 2419 1625 
L 2419 4116 
z
M 2253 4666 
L 3047 4666 
L 3047 1625 
L 3713 1625 
L 3713 1100 
L 3047 1100 
L 3047 0 
L 2419 0 
L 2419 1100 
L 313 1100 
L 313 1709 
L 2253 4666 
z
" transform="scale(0.015625)"/>
       </defs>
       <use xlink:href="#DejaVuSans-34"/>
      </g>
     </g>
    </g>
    <g id="ytick_6">
     <g id="line2d_29">
      <path d="M 41.15 120.758509 
L 563.336688 120.758509 
" clip-path="url(#p8aa46daf00)" style="fill: none; stroke: #b0b0b0; stroke-width: 0.8; stroke-linecap: square"/>
     </g>
     <g id="line2d_30">
      <g>
       <use xlink:href="#m25fe3e47db" x="41.15" y="120.758509" style="stroke: #000000; stroke-width: 0.8"/>
      </g>
     </g>
     <g id="text_16">
      <!-- 5 -->
      <g transform="translate(27.7875 124.557728) scale(0.1 -0.1)">
       <use xlink:href="#DejaVuSans-35"/>
      </g>
     </g>
    </g>
    <g id="ytick_7">
     <g id="line2d_31">
      <path d="M 41.15 68.838562 
L 563.336688 68.838562 
" clip-path="url(#p8aa46daf00)" style="fill: none; stroke: #b0b0b0; stroke-width: 0.8; stroke-linecap: square"/>
     </g>
     <g id="line2d_32">
      <g>
       <use xlink:href="#m25fe3e47db" x="41.15" y="68.838562" style="stroke: #000000; stroke-width: 0.8"/>
      </g>
     </g>
     <g id="text_17">
      <!-- 6 -->
      <g transform="translate(27.7875 72.637781) scale(0.1 -0.1)">
       <defs>
        <path id="DejaVuSans-36" d="M 2113 2584 
Q 1688 2584 1439 2293 
Q 1191 2003 1191 1497 
Q 1191 994 1439 701 
Q 1688 409 2113 409 
Q 2538 409 2786 701 
Q 3034 994 3034 1497 
Q 3034 2003 2786 2293 
Q 2538 2584 2113 2584 
z
M 3366 4563 
L 3366 3988 
Q 3128 4100 2886 4159 
Q 2644 4219 2406 4219 
Q 1781 4219 1451 3797 
Q 1122 3375 1075 2522 
Q 1259 2794 1537 2939 
Q 1816 3084 2150 3084 
Q 2853 3084 3261 2657 
Q 3669 2231 3669 1497 
Q 3669 778 3244 343 
Q 2819 -91 2113 -91 
Q 1303 -91 875 529 
Q 447 1150 447 2328 
Q 447 3434 972 4092 
Q 1497 4750 2381 4750 
Q 2619 4750 2861 4703 
Q 3103 4656 3366 4563 
z
" transform="scale(0.015625)"/>
       </defs>
       <use xlink:href="#DejaVuSans-36"/>
      </g>
     </g>
    </g>
    <g id="text_18">
     <!-- |$\mathbf{B}$| (T) -->
     <g transform="translate(21.3875 221.63) rotate(-90) scale(0.1 -0.1)">
      <defs>
       <path id="DejaVuSans-7c" d="M 1344 4891 
L 1344 -1509 
L 813 -1509 
L 813 4891 
L 1344 4891 
z
" transform="scale(0.015625)"/>
       <path id="DejaVuSans-Bold-42" d="M 2456 2859 
Q 2741 2859 2887 2984 
Q 3034 3109 3034 3353 
Q 3034 3594 2887 3720 
Q 2741 3847 2456 3847 
L 1791 3847 
L 1791 2859 
L 2456 2859 
z
M 2497 819 
Q 2859 819 3042 972 
Q 3225 1125 3225 1434 
Q 3225 1738 3044 1889 
Q 2863 2041 2497 2041 
L 1791 2041 
L 1791 819 
L 2497 819 
z
M 3616 2497 
Q 4003 2384 4215 2081 
Q 4428 1778 4428 1338 
Q 4428 663 3972 331 
Q 3516 0 2584 0 
L 588 0 
L 588 4666 
L 2394 4666 
Q 3366 4666 3802 4372 
Q 4238 4078 4238 3431 
Q 4238 3091 4078 2852 
Q 3919 2613 3616 2497 
z
" transform="scale(0.015625)"/>
       <path id="DejaVuSans-54" d="M -19 4666 
L 3928 4666 
L 3928 4134 
L 2272 4134 
L 2272 0 
L 1638 0 
L 1638 4134 
L -19 4134 
L -19 4666 
z
" transform="scale(0.015625)"/>
      </defs>
      <use xlink:href="#DejaVuSans-7c" transform="translate(0 0.578125)"/>
      <use xlink:href="#DejaVuSans-Bold-42" transform="translate(33.691406 0.578125)"/>
      <use xlink:href="#DejaVuSans-7c" transform="translate(109.912109 0.578125)"/>
      <use xlink:href="#DejaVuSans-20" transform="translate(143.603516 0.578125)"/>
      <use xlink:href="#DejaVuSans-28" transform="translate(175.390625 0.578125)"/>
      <use xlink:href="#DejaVuSans-54" transform="translate(214.404297 0.578125)"/>
      <use xlink:href="#DejaVuSans-29" transform="translate(275.488281 0.578125)"/>
     </g>
    </g>
    <g id="text_19">
     <!-- 1e−6 -->
     <g transform="translate(41.15 18.72) scale(0.1 -0.1)">
      <defs>
       <path id="DejaVuSans-2212" d="M 678 2272 
L 4684 2272 
L 4684 1741 
L 678 1741 
L 678 2272 
z
" transform="scale(0.015625)"/>
      </defs>
      <use xlink:href="#DejaVuSans-31"/>
      <use xlink:href="#DejaVuSans-65" x="63.623047"/>
      <use xlink:href="#DejaVuSans-2212" x="125.146484"/>
      <use xlink:href="#DejaVuSans-36" x="208.935547"/>
     </g>
    </g>
   </g>
   <g id="line2d_33">
    <path d="M 64.885759 373.298182 
L 222.882488 147.941685 
L 223.115643 147.894527 
L 223.277675 147.319402 
L 223.798204 146.723447 
L 225.326056 144.27171 
L 225.610022 144.407974 
L 225.730556 143.682363 
L 226.579334 142.901573 
L 226.795701 142.375519 
L 227.158393 142.273702 
L 227.424962 141.37367 
L 227.799851 141.281221 
L 228.246723 140.618907 
L 228.784365 139.453713 
L 229.433976 138.617442 
L 230.296411 137.22494 
L 230.579321 136.978795 
L 231.426447 135.516501 
L 231.438644 135.653487 
L 231.449916 135.771923 
L 231.903427 134.813103 
L 232.092922 135.461213 
L 232.255702 134.928235 
L 232.612765 134.481764 
L 232.622982 133.866805 
L 232.706872 133.91883 
L 233.058939 133.502749 
L 233.109105 133.05953 
L 233.306616 133.542373 
L 233.606335 133.375528 
L 233.774159 132.590401 
L 233.864986 132.212412 
L 234.481492 131.567536 
L 234.525995 131.095566 
L 235.447884 130.434185 
L 235.622164 129.399135 
L 235.674394 129.635208 
L 236.229301 129.156153 
L 236.943838 127.444329 
L 237.464685 127.090937 
L 237.704042 127.416532 
L 237.835782 126.237978 
L 237.908156 126.382395 
L 238.105816 126.639688 
L 238.114063 125.970169 
L 238.740226 125.4854 
L 239.001753 124.375648 
L 239.137276 124.869484 
L 239.595949 124.03355 
L 239.714769 123.534667 
L 241.554088 120.653413 
L 242.13202 120.865619 
L 242.176938 119.613132 
L 242.253651 120.239353 
L 242.46034 120.257706 
L 242.964323 119.342522 
L 243.244293 118.15457 
L 243.462731 119.23345 
L 243.518015 117.946334 
L 243.655865 117.400354 
L 244.373543 116.99254 
L 244.509593 117.160745 
L 244.751288 116.413891 
L 245.409961 115.913518 
L 245.96868 115.027105 
L 246.03036 115.318823 
L 246.401856 114.04284 
L 246.512435 114.679859 
L 246.653512 113.661796 
L 246.685134 114.121452 
L 247.303547 113.113596 
L 247.308345 113.444774 
L 247.630264 112.454366 
L 248.479199 110.783433 
L 248.953561 110.332666 
L 248.959884 110.781749 
L 249.238785 110.539717 
L 249.245913 111.16219 
L 249.406339 110.304397 
L 249.57366 110.329567 
L 249.894557 110.112268 
L 250.346026 109.476381 
L 250.606239 108.597161 
L 250.965253 108.644545 
L 251.00957 108.463009 
L 251.435345 108.541903 
L 251.647268 106.603594 
L 252.001159 107.036863 
L 252.436578 105.712502 
L 252.531909 106.890131 
L 252.538917 106.041209 
L 252.961992 104.347702 
L 253.012946 104.471932 
L 253.06299 106.249816 
L 253.127993 104.746237 
L 253.166031 104.709865 
L 253.410877 104.734936 
L 253.69621 105.204786 
L 253.745492 103.675158 
L 254.081059 105.931745 
L 254.265919 102.802776 
L 254.310631 103.035613 
L 254.382306 102.718896 
L 254.401701 103.377247 
L 254.659716 102.512925 
L 255.099598 102.331334 
L 255.371018 104.220031 
L 255.574344 100.161717 
L 256.31044 100.189562 
L 256.654232 99.666268 
L 257.052374 99.308642 
L 257.12662 99.513099 
L 257.183962 99.418503 
L 257.350215 98.09995 
L 257.37102 99.383786 
L 257.47548 97.678577 
L 258.058032 96.071371 
L 258.21596 96.600793 
L 258.286849 97.959827 
L 258.50723 99.596944 
L 258.54714 96.751894 
L 258.615263 97.544876 
L 258.773675 96.011479 
L 258.860459 99.16757 
L 259.053501 95.18882 
L 259.104003 96.95697 
L 259.318762 95.428029 
L 259.394191 96.229054 
L 259.867312 96.410604 
L 261.033942 89.231243 
L 261.254381 91.401085 
L 262.481781 90.65734 
L 264.540218 87.411945 
L 265.237768 86.837846 
L 265.5813 86.113505 
L 265.616272 86.85257 
L 265.716212 86.303116 
L 265.966873 86.719893 
L 266.045369 86.053008 
L 266.473325 84.829238 
L 266.574172 84.891892 
L 266.731901 84.195154 
L 266.741944 82.816948 
L 266.857173 84.647611 
L 267.104645 84.454332 
L 267.420082 83.540107 
L 267.501861 84.212464 
L 267.522232 83.840304 
L 267.649113 82.881217 
L 267.833316 84.10814 
L 267.887552 83.758507 
L 267.990957 83.858832 
L 268.01179 83.16052 
L 268.134872 83.053798 
L 268.635987 82.402867 
L 268.843249 80.627345 
L 268.926409 82.33243 
L 269.0367 81.922876 
L 269.092132 82.084736 
L 269.3233 81.595635 
L 269.514252 80.799077 
L 269.634589 81.375159 
L 269.641493 81.356719 
L 269.648005 80.756096 
L 269.861986 80.611866 
L 270.100216 80.844184 
L 270.281613 81.397075 
L 270.546114 79.604719 
L 270.888328 80.057656 
L 271.00636 78.843926 
L 271.377993 79.221247 
L 271.39566 79.124456 
L 271.453559 80.787274 
L 271.683679 79.349561 
L 271.73501 79.986642 
L 271.853607 78.168661 
L 272.179066 79.141254 
L 272.385232 77.448737 
L 272.907457 77.143023 
L 273.130431 76.6495 
L 273.172367 79.053107 
L 273.234059 77.150988 
L 273.582892 76.065148 
L 273.633382 76.444893 
L 273.968349 75.293742 
L 274.098233 75.856562 
L 274.178801 74.788955 
L 274.458765 74.472419 
L 274.496795 76.000925 
L 274.583391 75.40824 
L 274.683508 74.30838 
L 274.741584 75.079658 
L 275.042932 74.371153 
L 275.447951 73.972259 
L 275.535632 72.527707 
L 275.711828 72.277536 
L 275.759838 73.692236 
L 275.778316 71.833427 
L 275.862906 71.190808 
L 275.886339 73.151581 
L 275.982509 72.263502 
L 276.105977 72.343021 
L 276.112555 73.240924 
L 276.223053 71.809338 
L 276.295485 73.2995 
L 276.408254 71.047836 
L 276.759198 71.347237 
L 276.849666 69.725347 
L 276.872702 69.792261 
L 276.904837 71.047029 
L 276.965387 70.723494 
L 276.998594 70.302596 
L 277.077156 71.359532 
L 277.197258 69.086498 
L 277.222277 70.366381 
L 277.279573 71.049502 
L 277.338489 69.960423 
L 277.513881 69.904053 
L 277.867089 69.35883 
L 278.076925 68.75617 
L 278.267485 67.625765 
L 278.286421 68.265932 
L 278.904688 67.155129 
L 278.911862 68.070455 
L 278.935358 67.638734 
L 279.048526 68.5015 
L 279.331376 67.164134 
L 279.439397 67.417464 
L 280.006798 66.077303 
L 280.165883 66.253267 
L 280.476903 65.921924 
L 280.554889 65.541153 
L 280.912764 65.199181 
L 281.662053 63.703853 
L 287.551683 54.86722 
L 287.851913 54.631949 
L 287.903473 53.489931 
L 287.919239 54.641013 
L 288.011511 54.056808 
L 288.094953 54.126731 
L 288.189702 54.653248 
L 288.198142 54.424883 
L 288.409639 54.316135 
L 288.617341 53.488542 
L 288.620041 54.657739 
L 288.711887 53.816694 
L 288.995211 53.553699 
L 289.047975 53.720555 
L 289.147007 53.401008 
L 289.219409 53.28049 
L 289.283743 53.219054 
L 289.339163 53.908858 
L 289.401053 53.149059 
L 289.429177 53.335954 
L 289.519198 52.912705 
L 289.542826 53.978251 
L 289.606277 53.219378 
L 289.798285 52.416886 
L 289.823187 53.757662 
L 290.170722 52.324952 
L 290.22277 53.096974 
L 290.27515 52.854889 
L 290.426704 52.638278 
L 290.541899 52.818001 
L 290.648048 52.628586 
L 290.818924 52.623187 
L 290.981916 51.285674 
L 291.157191 52.564685 
L 291.71617 51.132273 
L 291.853409 51.105655 
L 292.287818 50.813803 
L 294.464881 45.946845 
L 294.943459 45.778146 
L 295.053987 43.899936 
L 295.07482 45.639257 
L 295.281197 44.952533 
L 295.308496 43.373691 
L 295.308496 45.132195 
L 295.374155 44.668875 
L 295.45793 44.441007 
L 295.497623 44.670258 
L 295.514382 44.463911 
L 295.533812 43.049152 
L 295.608009 44.441228 
L 295.673296 44.135354 
L 295.69146 42.562699 
L 295.786952 43.750485 
L 295.809843 43.827957 
L 295.932671 43.284006 
L 296.049333 42.882178 
L 296.018135 43.307422 
L 296.049333 42.971844 
L 296.077697 43.176921 
L 296.356712 42.263267 
L 296.363918 42.323402 
L 296.61546 42.724084 
L 296.619189 41.592334 
L 296.634902 42.851823 
L 297.991318 38.461818 
L 308.238983 53.641289 
L 308.625642 52.10667 
L 308.691391 53.625881 
L 308.766697 53.125451 
L 308.831875 54.413359 
L 308.910409 53.557138 
L 308.938208 52.858836 
L 308.988673 54.221251 
L 309.005906 53.544954 
L 309.033984 53.646284 
L 309.035574 54.608789 
L 309.045796 53.150137 
L 309.123001 53.727256 
L 309.157874 54.22002 
L 309.157875 53.458172 
L 309.222082 54.038744 
L 309.250207 53.378242 
L 309.251975 54.33033 
L 309.310148 53.662583 
L 309.408355 54.113795 
L 309.537762 54.625307 
L 309.655242 54.148488 
L 309.656468 54.176791 
L 309.791037 54.250592 
L 309.880253 55.262021 
L 310.1654 54.936586 
L 310.167216 55.059784 
L 310.197445 54.787863 
L 310.206795 55.101487 
L 310.292186 55.30463 
L 310.357909 54.30976 
L 310.43734 55.600752 
L 310.562999 55.453459 
L 313.878217 41.162409 
L 314.712121 42.399033 
L 314.934195 42.23704 
L 314.953869 42.269512 
L 314.979273 42.88656 
L 315.091984 42.496082 
L 315.365266 42.706838 
L 315.37051 42.976394 
L 315.397823 42.72 
L 315.518776 43.514582 
L 315.575187 43.376167 
L 315.642467 43.323835 
L 315.709549 44.250988 
L 315.750677 43.420256 
L 315.801644 43.190515 
L 315.803769 43.46003 
L 315.816098 44.215081 
L 315.899603 43.369642 
L 315.903525 43.905827 
L 315.952714 44.863136 
L 315.97734 44.309651 
L 316.018313 43.332228 
L 316.078703 44.13617 
L 316.160457 44.263182 
L 316.187494 43.580644 
L 316.229264 44.472768 
L 316.269913 43.788562 
L 316.304058 43.91861 
L 316.332457 44.584128 
L 316.467025 44.859992 
L 316.517529 44.759273 
L 316.57142 44.420191 
L 316.695805 45.734044 
L 316.796778 43.785621 
L 316.912086 45.044297 
L 316.971365 44.915609 
L 317.074129 46.031283 
L 317.080513 45.163461 
L 317.096939 45.15127 
L 317.103597 45.236814 
L 317.11593 45.629348 
L 317.149884 44.911658 
L 317.420802 45.48621 
L 318.321682 46.681853 
L 318.834091 55.732542 
L 319.967342 52.650284 
L 324.74785 72.949222 
L 326.35905 76.110029 
L 326.758665 75.892443 
L 326.969022 75.248644 
L 327.189018 76.04164 
L 327.395236 72.180967 
L 327.844003 77.106473 
L 328.012365 76.606792 
L 328.208652 76.570599 
L 328.305697 77.415729 
L 328.437701 75.702729 
L 328.476946 76.027876 
L 328.59135 78.131341 
L 328.66032 74.752187 
L 328.667563 76.180677 
L 328.876973 77.035167 
L 328.880455 76.940591 
L 329.007149 77.128556 
L 329.138711 76.442772 
L 329.141899 76.793283 
L 329.155937 78.128262 
L 329.219926 75.635034 
L 329.284641 78.072843 
L 329.322484 77.395475 
L 329.426472 79.070253 
L 329.433232 77.550428 
L 329.4633 76.002232 
L 329.508786 78.244239 
L 329.579224 77.787697 
L 329.58379 78.220284 
L 329.672005 75.39125 
L 329.733615 79.013604 
L 329.944512 75.517944 
L 330.015925 77.489522 
L 330.105045 76.792315 
L 330.26097 79.038991 
L 330.333279 78.421963 
L 330.369564 78.763954 
L 330.492885 75.320165 
L 330.56929 77.870745 
L 330.863929 78.820536 
L 330.870517 75.668378 
L 331.136321 79.204374 
L 331.252904 64.734686 
L 331.373237 78.511001 
L 331.467876 78.490099 
L 331.517905 79.900025 
L 331.952365 63.384804 
L 331.977098 79.791636 
L 332.145088 63.22622 
L 333.269282 67.486074 
L 333.362695 69.725729 
L 333.380261 64.750537 
L 333.894729 66.471383 
L 334.344835 66.692158 
L 334.490885 79.52364 
L 334.639926 66.378629 
L 334.843637 66.591421 
L 334.962158 68.486369 
L 334.974261 68.97043 
L 335.141645 68.335964 
L 335.180682 66.754332 
L 335.252482 67.740306 
L 335.374269 68.854825 
L 335.444869 66.701939 
L 335.452246 68.962567 
L 335.495297 67.613478 
L 335.598858 67.766389 
L 335.703222 68.458514 
L 335.896014 67.855357 
L 335.965747 75.68862 
L 335.977991 73.795611 
L 336.133088 68.251934 
L 336.269958 68.979262 
L 336.480436 67.923329 
L 336.576419 74.719178 
L 336.59873 68.449367 
L 336.69454 67.509579 
L 336.821676 68.812822 
L 336.845536 68.445881 
L 336.968889 75.458201 
L 336.98337 69.039651 
L 337.136855 76.533694 
L 337.153777 69.8307 
L 337.24903 70.436688 
L 337.317276 70.232715 
L 337.324363 71.589979 
L 337.511241 77.150431 
L 337.558593 69.838295 
L 337.624165 76.166222 
L 337.802207 70.241869 
L 338.098711 79.86881 
L 338.264331 72.821705 
L 338.277285 77.355709 
L 338.487396 73.192858 
L 338.540325 79.753027 
L 338.659891 77.402703 
L 338.770852 70.679551 
L 338.840584 77.575197 
L 339.188958 77.080643 
L 339.472272 79.438634 
L 339.504937 77.23225 
L 339.557512 80.432352 
L 339.765857 76.266918 
L 339.990124 75.672533 
L 340.072644 77.014638 
L 340.234078 76.737724 
L 340.396154 84.958849 
L 340.551223 76.621622 
L 340.598229 77.313237 
L 341.872036 81.460617 
L 342.122409 76.511664 
L 342.153187 79.940785 
L 343.447135 91.889897 
L 344.061915 92.960216 
L 344.443148 84.944389 
L 345.227157 89.624636 
L 345.349465 94.00867 
L 345.585132 93.475863 
L 345.954462 93.120747 
L 346.048462 87.261668 
L 346.118086 88.196432 
L 346.631961 91.342775 
L 346.675026 95.81058 
L 346.702688 89.649848 
L 346.775078 85.557367 
L 346.790103 89.501824 
L 346.932139 91.664218 
L 346.964242 90.191963 
L 347.022558 96.090723 
L 347.136686 94.150492 
L 347.249033 94.829942 
L 347.394902 96.669036 
L 347.74373 96.610922 
L 347.802641 93.797103 
L 347.860816 95.828446 
L 348.000412 94.855642 
L 348.033199 87.553894 
L 348.157076 95.017869 
L 348.357179 97.132966 
L 348.484659 84.693257 
L 348.546572 97.566687 
L 348.662967 94.60195 
L 348.703731 96.063793 
L 349.031067 93.447467 
L 349.195145 97.833668 
L 349.349564 83.723725 
L 349.45912 85.613844 
L 349.557572 98.241743 
L 349.646717 97.747899 
L 349.666635 93.417306 
L 349.997268 89.224803 
L 350.144862 97.667995 
L 350.374009 92.058768 
L 350.516953 98.820399 
L 350.621873 84.804242 
L 350.756622 98.888552 
L 350.79694 84.125169 
L 350.905993 93.012473 
L 350.92281 84.340444 
L 350.942386 93.284905 
L 350.984706 88.077444 
L 351.102052 99.623796 
L 351.262966 98.970376 
L 351.352345 88.348783 
L 351.44994 98.232569 
L 351.648495 101.551827 
L 351.769414 87.012125 
L 351.892007 90.796291 
L 351.944047 100.476723 
L 352.110075 84.532565 
L 352.219164 99.977965 
L 352.302954 99.051649 
L 352.51279 100.886505 
L 352.618685 86.239119 
L 352.620643 99.844393 
L 353.01889 86.844235 
L 353.033941 101.85215 
L 353.246993 100.662236 
L 353.472059 86.717545 
L 353.490746 100.731309 
L 353.650022 97.804653 
L 353.658141 100.785209 
L 353.796567 88.646503 
L 353.925785 89.643693 
L 354.092842 100.999085 
L 354.386873 89.671188 
L 354.724247 89.998555 
L 354.776132 101.549767 
L 354.923724 90.291617 
L 355.221755 99.231144 
L 355.409386 96.458834 
L 355.412895 90.268287 
L 355.492445 97.246289 
L 355.517306 92.10783 
L 355.528344 91.007016 
L 355.632341 97.211954 
L 355.873858 95.13112 
L 356.195401 100.104229 
L 356.323539 95.131173 
L 356.337528 95.890501 
L 356.39995 101.798709 
L 356.456142 90.544371 
L 356.543694 93.434575 
L 356.580829 97.243974 
L 356.618545 94.088175 
L 356.803821 94.054953 
L 356.877721 96.993759 
L 357.158669 91.545728 
L 357.173572 95.214472 
L 357.366297 92.859903 
L 357.415428 98.189425 
L 357.545937 92.347172 
L 357.681597 105.930646 
L 357.914399 91.70405 
L 358.096505 93.496703 
L 358.151083 103.430732 
L 358.25496 102.742465 
L 358.340746 94.405752 
L 358.496669 92.618297 
L 358.502111 96.592437 
L 358.656186 98.779538 
L 358.786522 94.966728 
L 358.883845 101.587049 
L 359.156668 93.780811 
L 359.218687 94.861976 
L 359.30559 101.254295 
L 359.357755 93.87869 
L 359.485249 93.512101 
L 359.545313 102.955601 
L 359.656585 94.639564 
L 359.674681 105.004476 
L 359.790136 95.883985 
L 359.795453 99.072207 
L 359.855246 103.582276 
L 359.994108 95.698263 
L 360.053679 96.67823 
L 360.07375 98.804856 
L 360.557712 99.092816 
L 360.573395 101.353972 
L 360.666857 94.402965 
L 360.890522 105.571914 
L 361.45688 108.10338 
L 361.540317 97.106187 
L 361.639461 97.417543 
L 362.277407 98.331449 
L 362.778119 105.766598 
L 363.037127 107.347619 
L 363.108214 110.156662 
L 363.337443 98.829879 
L 363.53748 110.526607 
L 363.733744 97.850691 
L 363.896963 109.610542 
L 364.132798 99.796309 
L 364.31256 109.889214 
L 364.569227 108.519459 
L 364.579452 102.749895 
L 364.581914 110.102485 
L 365.364176 100.886425 
L 365.6812 111.915547 
L 366.083013 109.528667 
L 366.115567 102.322528 
L 366.133273 112.272712 
L 366.352719 110.689489 
L 366.435045 108.798191 
L 366.533743 102.620038 
L 366.938089 106.825814 
L 366.966905 111.070411 
L 367.162543 101.54189 
L 367.326965 108.196004 
L 367.571968 102.801456 
L 367.620925 105.331308 
L 367.827342 107.814477 
L 368.045775 102.035253 
L 368.074693 113.873924 
L 368.218055 102.758458 
L 368.338892 114.130995 
L 368.826949 109.83759 
L 368.873913 111.960926 
L 368.908159 110.760354 
L 369.13011 103.866419 
L 369.209891 113.400319 
L 369.34221 102.953459 
L 369.561127 113.381847 
L 369.598931 104.41862 
L 369.795579 112.693914 
L 369.858708 109.92274 
L 370.025832 111.188957 
L 370.124481 105.464974 
L 370.141582 113.041478 
L 370.271186 108.645287 
L 370.285178 104.377455 
L 370.45981 116.536158 
L 370.735898 114.108022 
L 370.921385 116.587424 
L 370.996828 106.776216 
L 371.027217 116.852487 
L 371.114463 116.638984 
L 371.138635 113.480871 
L 371.242386 115.713709 
L 371.275585 105.125504 
L 371.453285 116.972478 
L 371.731688 108.513741 
L 371.791037 109.740135 
L 371.926083 117.83492 
L 371.954114 116.955815 
L 372.161928 117.086517 
L 372.285199 109.206934 
L 372.505628 117.925407 
L 372.516727 107.343541 
L 372.651238 108.489201 
L 372.759632 117.933914 
L 372.785903 114.584281 
L 372.945177 118.200645 
L 373.17084 107.231188 
L 373.265865 118.409906 
L 373.332281 106.860381 
L 373.466052 108.102086 
L 373.62785 118.397973 
L 373.638523 116.13821 
L 374.058114 119.422617 
L 374.072272 115.6167 
L 374.573383 113.902118 
L 374.574718 119.809084 
L 374.659978 109.314554 
L 374.959728 111.945818 
L 375.033866 110.855672 
L 375.134203 119.783185 
L 375.376232 120.084377 
L 375.868626 120.906367 
L 375.878756 110.002211 
L 376.042219 118.476689 
L 376.265553 113.061334 
L 376.449094 115.749222 
L 376.486074 115.556015 
L 376.569629 115.787801 
L 376.634632 116.505872 
L 376.777112 120.53916 
L 376.958581 119.239022 
L 377.078437 120.805066 
L 377.095534 111.25493 
L 377.245642 110.437798 
L 377.321373 118.014348 
L 377.48044 110.458444 
L 377.776251 121.073404 
L 377.876512 110.545098 
L 377.877045 115.052066 
L 377.922881 119.037872 
L 377.923075 111.083423 
L 378.492256 111.203916 
L 378.60144 113.286525 
L 379.069343 111.799852 
L 379.128148 111.901419 
L 379.231918 115.393008 
L 379.242364 122.073458 
L 379.269976 111.95591 
L 379.415138 115.49816 
L 379.508947 123.925674 
L 379.560821 118.62089 
L 379.705364 118.020249 
L 379.708095 123.561516 
L 379.750353 122.102907 
L 379.87635 112.459201 
L 380.095748 113.163471 
L 380.115437 117.765731 
L 380.221402 112.782924 
L 380.274826 114.3199 
L 380.287921 117.385311 
L 380.366765 114.984412 
L 380.432824 120.095514 
L 380.459846 113.500569 
L 380.596545 123.196624 
L 380.601287 113.686856 
L 380.601315 120.169494 
L 380.747887 118.10299 
L 380.853677 113.640861 
L 381.097521 123.503583 
L 381.14624 121.424641 
L 381.286211 114.644978 
L 381.634215 120.044582 
L 381.655058 114.555529 
L 381.793706 117.464888 
L 381.956529 125.149804 
L 381.995855 115.006772 
L 382.005448 117.96892 
L 382.146433 125.492745 
L 382.270888 115.262654 
L 382.272384 119.347029 
L 382.669969 122.64883 
L 382.876584 126.365962 
L 382.95533 122.137805 
L 383.25656 126.50855 
L 383.493016 124.799049 
L 383.526701 116.585905 
L 383.566164 124.199156 
L 383.795333 125.207568 
L 383.956641 117.130692 
L 384.276647 118.226205 
L 384.354488 117.331358 
L 384.680562 127.520981 
L 384.8908 119.257987 
L 385.125991 126.165066 
L 385.166362 117.884153 
L 385.16821 125.065857 
L 385.561703 127.980967 
L 385.643385 119.888607 
L 385.663837 125.504362 
L 385.695997 127.649514 
L 385.944085 118.526722 
L 386.28127 127.999603 
L 386.450807 118.043289 
L 386.670782 127.156855 
L 387.068021 119.988642 
L 387.343076 124.542047 
L 387.343272 120.166796 
L 387.390513 125.051966 
L 387.447169 121.796391 
L 387.564608 125.005323 
L 387.633777 119.370097 
L 387.686612 125.303257 
L 387.726921 119.129172 
L 387.987389 124.240813 
L 388.250984 129.657343 
L 388.38019 123.675508 
L 388.43051 123.887871 
L 388.551249 121.175672 
L 388.910172 130.204566 
L 389.64634 120.708169 
L 389.752411 122.521974 
L 389.898794 122.175843 
L 390.454458 121.976776 
L 390.512745 121.556792 
L 390.807131 129.191902 
L 390.969236 121.73944 
L 391.237406 132.553204 
L 391.293045 123.58285 
L 391.308952 131.215663 
L 391.455849 132.850861 
L 391.533693 127.539988 
L 391.6744 132.831602 
L 391.773287 124.15717 
L 391.853174 133.007907 
L 391.938245 126.917666 
L 392.204412 127.129512 
L 392.272726 130.716047 
L 392.526709 129.200275 
L 392.531418 133.538659 
L 392.57657 133.306881 
L 392.703495 129.807573 
L 392.875436 133.578956 
L 392.921166 125.225425 
L 392.925746 133.953007 
L 393.036747 133.842505 
L 393.161033 124.086891 
L 393.25683 134.030037 
L 393.550824 134.086244 
L 393.585669 128.997808 
L 393.722735 134.131099 
L 393.777793 124.347493 
L 393.835878 129.146576 
L 393.876119 132.799358 
L 393.973415 127.698809 
L 394.027651 134.284217 
L 394.056235 126.39919 
L 394.066282 128.483641 
L 394.070921 126.03525 
L 394.296604 134.620975 
L 394.421291 128.540937 
L 394.563767 131.798566 
L 394.73632 131.09578 
L 394.906949 127.224286 
L 394.912342 132.053326 
L 394.990489 126.025648 
L 395.254292 135.214835 
L 395.271111 125.951006 
L 395.695964 135.344439 
L 396.040984 135.340206 
L 396.239731 129.127657 
L 396.259459 135.568222 
L 396.440886 129.644528 
L 396.683999 133.064729 
L 396.754969 128.757546 
L 397.129017 128.960322 
L 397.166367 136.181645 
L 397.19973 133.483667 
L 397.481569 136.280045 
L 397.791981 127.862474 
L 397.821889 136.339479 
L 398.086717 135.094731 
L 398.091688 135.188845 
L 398.107291 127.255608 
L 398.563257 127.626094 
L 398.733592 132.83673 
L 398.922179 128.016954 
L 399.10516 137.424647 
L 399.120278 132.830399 
L 399.182284 132.759368 
L 399.325031 128.285842 
L 399.43107 128.255409 
L 399.491891 137.473995 
L 399.658304 128.567862 
L 399.816831 128.657494 
L 400.123837 135.249053 
L 400.32164 129.080109 
L 400.659919 137.065988 
L 400.773743 129.591954 
L 400.780087 139.453711 
L 400.84673 129.560862 
L 401.032575 138.294802 
L 401.052491 135.964982 
L 401.118438 138.306582 
L 401.171068 129.89631 
L 401.315153 129.88004 
L 401.571739 130.034226 
L 401.648144 139.750465 
L 401.696721 132.959091 
L 401.833106 140.020456 
L 402.162185 131.00754 
L 402.31645 133.345126 
L 402.397068 130.817638 
L 402.491177 133.476087 
L 402.592898 131.123818 
L 402.853722 133.637057 
L 402.91146 139.377947 
L 403.266176 139.743153 
L 403.52981 136.399533 
L 403.540608 141.308089 
L 403.807149 132.302614 
L 403.808214 136.555055 
L 403.869893 133.139755 
L 403.978446 135.691218 
L 404.121528 132.724937 
L 404.160337 141.305192 
L 404.195854 136.016645 
L 404.296917 141.410798 
L 404.377501 132.461198 
L 404.416341 141.814208 
L 404.429924 137.846168 
L 404.558896 141.649289 
L 404.734063 138.218986 
L 404.737186 140.654119 
L 405.179306 140.77965 
L 405.31686 137.971574 
L 405.324946 133.393769 
L 405.334562 133.469564 
L 405.909333 138.110646 
L 406.003081 133.921523 
L 406.043166 136.431184 
L 406.140543 140.84494 
L 406.340901 137.609052 
L 406.440682 140.433392 
L 406.572622 139.4365 
L 406.751784 134.744632 
L 406.777481 143.114784 
L 406.924786 139.868869 
L 407.096395 142.107066 
L 407.130789 134.914417 
L 407.18824 143.369423 
L 407.364315 141.984858 
L 407.8143 142.131835 
L 407.968002 134.540573 
L 408.063166 134.747192 
L 408.428707 143.62561 
L 408.459667 143.597921 
L 408.502214 136.178675 
L 408.925985 136.360266 
L 409.116449 142.1936 
L 409.216466 141.98511 
L 409.476695 137.134903 
L 409.567473 143.214593 
L 409.595517 135.947774 
L 409.705149 136.089419 
L 410.01936 143.665253 
L 410.492374 137.680702 
L 410.523071 141.894416 
L 410.757764 136.534749 
L 410.893798 137.977406 
L 410.984322 142.26605 
L 411.161778 138.172685 
L 411.168117 145.603109 
L 411.265802 139.449145 
L 411.315702 145.65863 
L 411.393436 142.373293 
L 411.502473 146.620332 
L 411.865252 140.977595 
L 411.911493 146.735525 
L 412.120162 141.006472 
L 412.192261 147.219886 
L 412.219563 137.877406 
L 412.462744 147.329506 
L 412.578384 138.030506 
L 412.635472 147.342727 
L 412.823151 138.547882 
L 412.853883 138.713531 
L 412.966806 147.469703 
L 412.989327 139.742229 
L 412.999133 147.748969 
L 413.256375 148.322168 
L 413.41409 147.759581 
L 413.701533 148.158002 
L 413.950731 146.948001 
L 414.080116 148.295662 
L 414.207236 145.845348 
L 414.524573 141.269714 
L 414.540649 148.319615 
L 414.986967 141.390126 
L 415.026126 148.421672 
L 415.137829 143.99598 
L 415.283918 146.459723 
L 415.454238 140.839759 
L 415.543962 148.958593 
L 415.712561 140.570794 
L 415.754865 148.640721 
L 415.873349 146.154369 
L 416.066015 149.548102 
L 416.211332 149.53882 
L 416.337492 145.182536 
L 416.442421 145.843963 
L 416.500817 149.591929 
L 416.541066 142.349367 
L 416.788319 144.794104 
L 417.19544 143.00252 
L 417.379273 146.327484 
L 417.392405 142.200245 
L 417.455403 149.955651 
L 417.655817 142.637941 
L 417.996885 141.557163 
L 418.17615 146.15712 
L 418.224205 150.083589 
L 418.394156 141.942259 
L 418.530476 150.704157 
L 418.606139 145.648759 
L 418.654283 149.709741 
L 418.808598 142.275406 
L 418.908124 148.375901 
L 418.992831 142.25079 
L 419.054321 150.725985 
L 419.091459 147.781418 
L 419.334946 150.775846 
L 419.682142 142.711879 
L 419.766788 143.03456 
L 419.821268 142.891939 
L 420.051166 148.199222 
L 420.153816 145.157536 
L 420.197684 151.018682 
L 420.288354 143.364319 
L 420.367217 146.142867 
L 420.647331 143.728736 
L 420.677715 145.875318 
L 421.135443 143.86204 
L 421.2386 152.175221 
L 421.355727 144.149891 
L 421.70444 149.604556 
L 421.781218 148.278161 
L 421.881986 153.321454 
L 421.889493 151.020667 
L 421.90397 144.551485 
L 421.974912 151.579132 
L 422.064522 153.374983 
L 422.152 144.848706 
L 422.238846 146.109658 
L 422.425312 152.430477 
L 422.579787 148.478 
L 422.613492 152.727307 
L 423.105596 145.4345 
L 423.390941 148.675858 
L 423.496679 154.240688 
L 423.663658 147.7714 
L 423.821481 149.130027 
L 423.909458 145.946521 
L 423.979474 146.059425 
L 424.155438 152.580708 
L 424.184668 154.461277 
L 424.438361 147.411608 
L 424.46381 154.701784 
L 424.535614 146.532333 
L 424.537332 147.807819 
L 424.649328 154.835258 
L 424.722363 154.109824 
L 424.936291 154.605394 
L 425.038196 146.109906 
L 425.105727 152.169242 
L 425.125675 150.629192 
L 425.242991 153.132107 
L 425.419801 148.90785 
L 425.461882 154.145859 
L 425.74979 155.353467 
L 425.96571 154.732337 
L 426.083733 147.646662 
L 426.085213 151.084084 
L 426.283164 155.35593 
L 426.316677 147.645275 
L 426.467646 150.037563 
L 426.619692 149.515346 
L 426.693965 148.182787 
L 427.034803 156.308304 
L 427.309083 153.089468 
L 427.35344 148.236734 
L 427.452647 154.636601 
L 427.509141 148.935924 
L 427.58022 151.182099 
L 427.672179 156.452423 
L 427.732029 149.730554 
L 427.89305 155.709573 
L 428.379202 148.685476 
L 428.47117 156.265149 
L 428.683433 154.913247 
L 428.713094 148.786007 
L 428.944927 156.060881 
L 428.99612 149.832325 
L 429.047965 155.959935 
L 429.287559 150.032267 
L 429.402672 151.857989 
L 429.4558 149.03695 
L 429.473625 155.054825 
L 429.702612 150.337966 
L 429.874714 157.853783 
L 429.898692 156.602505 
L 430.010037 154.810972 
L 430.304701 154.547869 
L 430.324658 149.819757 
L 430.391499 149.83788 
L 430.599293 153.412813 
L 430.611141 157.40839 
L 430.654009 153.134472 
L 430.676003 155.981012 
L 430.739996 157.2142 
L 430.89807 149.931304 
L 431.111278 150.040481 
L 431.177893 151.214347 
L 431.224663 150.387815 
L 431.343775 158.95951 
L 431.510165 150.639358 
L 431.523656 158.950962 
L 431.608964 151.611439 
L 431.71107 156.992086 
L 431.73624 150.61491 
L 431.763441 159.301997 
L 431.814121 151.311417 
L 431.908006 156.888756 
L 432.043477 152.249984 
L 432.298282 159.193635 
L 432.390785 155.885379 
L 432.797448 156.552271 
L 432.884072 151.082717 
L 432.914444 152.952608 
L 433.048639 157.149393 
L 433.057078 159.911973 
L 433.074987 151.86735 
L 433.1829 159.853251 
L 433.295948 159.194058 
L 433.34623 151.790363 
L 433.45184 153.596727 
L 433.459112 159.966871 
L 433.463484 153.03342 
L 433.622176 151.816958 
L 433.672139 160.238896 
L 433.680691 160.008192 
L 433.819446 153.203993 
L 433.826535 158.56124 
L 434.037605 153.096772 
L 434.231229 157.59415 
L 434.251069 152.996744 
L 434.301667 159.573405 
L 434.403234 160.483804 
L 434.565004 153.250087 
L 434.566124 155.817027 
L 434.594941 160.67943 
L 434.959466 153.005034 
L 435.043079 157.754881 
L 435.150918 154.96479 
L 435.418508 161.088897 
L 435.436732 159.367356 
L 435.806924 155.405097 
L 435.992739 158.928628 
L 436.11682 155.371127 
L 436.331467 153.720838 
L 436.382434 154.530704 
L 436.445534 154.489361 
L 436.750435 156.997893 
L 436.820574 154.884805 
L 437.188013 156.262957 
L 437.227192 158.755383 
L 437.241499 157.625014 
L 437.268181 153.682182 
L 437.276407 154.0026 
L 437.421516 153.813065 
L 437.725896 157.15104 
L 437.751432 159.160001 
L 438.101157 154.483448 
L 438.108748 154.993266 
L 438.172248 154.752545 
L 438.240733 154.922819 
L 438.357471 156.148518 
L 438.368941 155.316694 
L 438.409813 154.63008 
L 438.599384 155.896272 
L 438.92579 154.884603 
L 438.982253 155.133382 
L 439.295395 155.272533 
L 439.305238 162.618112 
L 439.429998 162.510147 
L 440.046994 163.732573 
L 440.060475 161.993082 
L 440.298203 161.882376 
L 440.46138 160.222317 
L 440.666221 159.79907 
L 440.74856 160.428045 
L 440.965418 163.220419 
L 441.138033 160.508418 
L 441.535601 162.269305 
L 442.315769 162.492511 
L 442.320052 161.241187 
L 442.590365 162.662691 
L 442.64834 164.967542 
L 442.670238 157.771534 
L 442.828309 162.477745 
L 442.989759 160.659363 
L 443.037188 165.442302 
L 443.076799 160.031252 
L 443.237431 160.774279 
L 443.238835 161.549393 
L 443.322812 159.541257 
L 443.375946 158.403782 
L 443.400461 165.149177 
L 443.403082 162.268533 
L 443.608817 159.015185 
L 443.820437 164.861852 
L 443.837293 161.586513 
L 444.018524 163.030935 
L 444.108431 165.913816 
L 444.385693 166.251463 
L 444.434181 161.831817 
L 444.738093 165.421004 
L 444.998014 166.198048 
L 445.004986 161.27594 
L 445.154554 166.293374 
L 445.197777 166.247579 
L 445.250261 161.104016 
L 445.281476 166.826919 
L 445.332733 164.176509 
L 445.376365 165.932673 
L 445.512135 166.769801 
L 445.670982 166.963353 
L 445.799153 165.598338 
L 445.898345 167.054824 
L 445.942274 162.318852 
L 446.135374 166.43115 
L 446.315176 164.66854 
L 446.375002 166.946087 
L 446.417172 166.696544 
L 446.54199 166.381115 
L 446.569337 167.301911 
L 446.584739 165.662332 
L 446.587865 166.719117 
L 446.700514 167.105736 
L 446.723745 167.001767 
L 446.781338 164.880052 
L 446.78474 167.192307 
L 446.87862 167.137712 
L 447.006593 166.744649 
L 447.025728 166.11231 
L 447.101943 167.280844 
L 447.203618 166.011606 
L 447.252431 167.594542 
L 447.287628 166.258956 
L 447.495723 167.203112 
L 447.671473 164.326733 
L 447.83074 167.222475 
L 448.024686 167.763556 
L 448.113905 166.761908 
L 448.130132 167.877659 
L 448.14917 164.830613 
L 448.2943 165.467927 
L 448.343943 167.869277 
L 448.424118 167.71586 
L 448.466972 167.717308 
L 448.616788 168.328784 
L 448.675072 167.251668 
L 448.697598 168.805258 
L 448.724605 168.427855 
L 448.830067 160.625417 
L 448.855878 160.937213 
L 448.956612 168.681009 
L 449.09951 168.08562 
L 449.208184 169.072806 
L 449.300931 167.942834 
L 449.340749 168.298627 
L 449.577107 168.771372 
L 449.703285 168.368251 
L 450.063577 169.05235 
L 450.265073 168.214487 
L 450.410116 162.041192 
L 450.411783 162.082418 
L 450.529525 162.464936 
L 450.626774 169.01587 
L 450.707943 162.041261 
L 450.826947 163.77054 
L 450.876485 168.190452 
L 450.943151 165.493669 
L 451.114092 162.747799 
L 451.188738 162.868445 
L 451.320263 169.786854 
L 451.528052 162.745478 
L 451.658567 166.383007 
L 451.67882 162.684684 
L 451.910223 163.219296 
L 451.999934 162.553058 
L 452.069303 162.61916 
L 452.15021 162.841071 
L 452.161802 166.830087 
L 452.243118 162.993704 
L 452.321249 165.277593 
L 452.298647 162.927958 
L 452.37084 163.627286 
L 452.432563 162.539585 
L 452.40843 164.078572 
L 452.476003 162.947196 
L 452.648144 163.484483 
L 452.725341 163.256799 
L 452.832749 163.960011 
L 452.893524 166.929269 
L 453.148144 163.480197 
L 453.211106 163.549898 
L 453.218546 165.57966 
L 453.321503 164.142953 
L 453.485233 165.909528 
L 453.553626 163.679156 
L 453.662448 164.054005 
L 453.768753 163.771355 
L 453.802177 168.094974 
L 453.854959 165.421714 
L 453.946035 163.69066 
L 454.071592 170.402477 
L 454.191769 163.870204 
L 454.220051 166.960334 
L 454.276434 164.080719 
L 454.397324 167.715329 
L 454.4788 163.940351 
L 454.547786 164.151435 
L 454.589177 166.398184 
L 454.687841 164.318341 
L 454.838312 164.279172 
L 454.940105 167.161965 
L 455.061767 164.360956 
L 455.109514 170.39802 
L 455.127316 168.817767 
L 455.309077 164.52319 
L 455.34473 164.711422 
L 455.4836 164.808923 
L 455.517703 168.556804 
L 455.568525 164.66958 
L 455.577796 164.916925 
L 455.666919 164.885661 
L 455.83336 169.704688 
L 455.94134 165.029925 
L 456.071754 168.736115 
L 456.096007 165.200831 
L 456.603984 168.365487 
L 456.656384 166.487337 
L 456.711109 169.200818 
L 456.76675 166.436818 
L 456.884449 167.704779 
L 457.106177 166.947831 
L 457.157017 166.166997 
L 457.18599 167.199373 
L 458.001005 167.155685 
L 458.213253 167.021635 
L 458.304885 168.01284 
L 458.567587 169.2106 
L 464.340967 177.143431 
L 464.439151 176.627364 
L 464.618103 176.608959 
L 464.664733 176.852652 
L 464.673698 176.765802 
L 464.989802 174.377209 
L 465.049667 177.365572 
L 465.099596 176.568678 
L 465.286081 177.413676 
L 465.293463 177.26959 
L 465.471871 177.405276 
L 465.524646 177.15024 
L 465.535272 177.492998 
L 465.56981 173.26315 
L 465.577499 176.714859 
L 465.685807 176.470755 
L 465.726379 177.158275 
L 465.727688 173.626567 
L 465.825805 176.435823 
L 465.921729 177.65891 
L 465.94736 176.621878 
L 466.014582 177.041674 
L 466.177209 174.654197 
L 466.17788 177.594231 
L 466.370761 177.077399 
L 466.468221 177.90735 
L 466.485884 177.842631 
L 466.588455 177.084177 
L 466.62017 177.499837 
L 466.728159 177.902259 
L 466.730373 177.860403 
L 466.742368 177.196366 
L 466.815105 178.043241 
L 466.825336 177.314734 
L 466.921193 178.154509 
L 466.92862 176.706247 
L 467.043249 177.910671 
L 467.082246 177.720137 
L 467.093939 177.072493 
L 467.184873 178.011027 
L 467.193422 177.324864 
L 467.266075 178.129944 
L 467.284661 177.95773 
L 467.318553 178.148697 
L 467.380007 177.978917 
L 467.403202 177.550159 
L 467.434454 178.199101 
L 467.471202 177.750099 
L 467.533363 178.496383 
L 467.573366 177.084186 
L 467.675995 178.271182 
L 467.69962 178.085515 
L 467.994919 177.422922 
L 467.996425 177.499417 
L 468.041902 178.78156 
L 468.245097 177.380359 
L 468.28608 178.414854 
L 468.294184 177.824967 
L 468.406468 177.7969 
L 468.581897 178.836883 
L 468.618542 178.386507 
L 468.688693 178.312867 
L 468.773329 178.736098 
L 468.826491 178.065682 
L 468.960735 178.914917 
L 469.314682 178.740664 
L 469.438996 178.212981 
L 469.716363 178.716528 
L 471.680318 173.176452 
L 471.71385 173.427181 
L 471.71472 173.18634 
L 471.943841 173.647221 
L 472.045844 173.557821 
L 472.107964 173.35697 
L 472.163135 173.82215 
L 472.185399 173.779769 
L 472.237372 173.307563 
L 472.380521 173.852254 
L 472.541832 173.348942 
L 472.616636 173.866061 
L 472.619381 173.626032 
L 472.69894 173.735636 
L 472.770616 173.41101 
L 473.030231 174.106968 
L 473.052516 174.376921 
L 473.089188 173.823272 
L 473.170214 174.461469 
L 473.229229 174.360883 
L 473.368251 174.026367 
L 473.421008 173.76939 
L 473.506402 174.536656 
L 473.506402 173.903278 
L 473.59229 174.057958 
L 473.630721 174.050231 
L 473.738356 174.654902 
L 473.865554 173.849055 
L 473.957996 174.951033 
L 474.004894 174.848801 
L 474.077878 173.911426 
L 474.105399 174.365304 
L 474.155972 174.96513 
L 474.229803 174.940878 
L 474.303193 175.009298 
L 474.337969 174.428096 
L 474.417104 174.714722 
L 474.534241 174.664889 
L 474.578404 175.149594 
L 474.639879 174.565807 
L 474.677823 175.314353 
L 474.715173 174.773264 
L 474.787592 174.48714 
L 474.909677 174.808836 
L 474.978672 174.523991 
L 475.020082 174.795135 
L 475.090684 174.922634 
L 475.236186 175.141962 
L 475.331506 174.772027 
L 475.555551 175.237235 
L 486.98706 216.449454 
L 487.024187 217.399531 
L 487.002902 216.282037 
L 487.08409 216.784923 
L 487.141601 216.529139 
L 487.169295 217.711215 
L 487.212766 216.958408 
L 487.24608 218.137493 
L 487.269224 217.099434 
L 487.269224 218.154418 
L 487.330875 217.942125 
L 488.726939 223.685666 
L 488.730197 223.668037 
L 493.742374 213.234066 
L 493.76494 213.372609 
L 493.818879 213.398453 
L 493.944516 214.021524 
L 493.835969 213.349681 
L 493.948886 213.779374 
L 493.985694 214.021845 
L 494.080754 214.302384 
L 493.993512 213.58521 
L 494.082849 214.300399 
L 494.105865 214.211353 
L 494.12005 214.44798 
L 494.15039 213.953401 
L 494.199424 214.61753 
L 494.274962 214.972926 
L 494.261278 214.462342 
L 494.274979 214.889635 
L 494.438269 214.873525 
L 495.867489 218.952342 
L 495.869636 218.731712 
L 504.79244 275.507582 
L 507.838501 281.37049 
L 507.879533 281.929593 
L 507.951295 281.866521 
L 507.98878 281.906162 
L 508.070066 283.313379 
L 508.121716 282.578564 
L 508.156119 282.894419 
L 508.255038 282.813985 
L 508.309238 282.739308 
L 508.37484 283.439598 
L 508.431943 282.594845 
L 508.448205 282.733086 
L 508.478945 283.668041 
L 508.531999 283.488397 
L 508.670212 284.158813 
L 508.781713 283.695962 
L 508.799113 284.628502 
L 508.93558 283.991882 
L 509.103958 285.74758 
L 509.105466 285.73022 
L 509.414865 284.656306 
L 509.589791 285.004265 
L 509.646751 285.665635 
L 509.888769 285.541723 
L 509.893214 285.555437 
L 510.047395 285.772862 
L 510.237419 286.774168 
L 510.415742 286.857539 
L 510.663756 287.870221 
L 510.665242 287.844077 
L 510.67341 287.391156 
L 510.695357 287.899149 
L 512.656993 285.932563 
L 512.758202 286.081715 
L 513.129812 289.433675 
L 514.880057 279.457992 
L 514.908895 279.543795 
L 515.070204 280.679684 
L 515.108493 280.205728 
L 515.136334 280.978531 
L 515.144763 280.293922 
L 515.203907 281.17966 
L 515.287004 280.809881 
L 515.332041 281.291187 
L 515.39823 280.559001 
L 515.5795 281.677782 
L 515.674479 282.114205 
L 515.612182 281.628542 
L 515.708835 281.906902 
L 515.711406 281.569297 
L 515.724234 282.011026 
L 515.732096 281.698036 
L 515.931516 282.481665 
L 516.181154 283.123757 
L 516.196724 284.822907 
L 516.263721 283.207943 
L 516.341596 283.42967 
L 516.346266 284.180299 
L 516.433446 283.930298 
L 516.502119 284.142963 
L 516.50256 284.132734 
L 516.51139 285.881815 
L 516.56293 284.826971 
L 516.648429 286.398557 
L 516.715356 284.303562 
L 518.467621 296.689411 
L 518.709815 296.899558 
L 518.785032 298.075154 
L 519.146883 298.602765 
L 519.690336 300.573205 
L 519.713356 300.473286 
L 520.842477 297.270564 
L 520.960061 297.744331 
L 529.789314 347.870831 
L 529.850126 347.616638 
L 529.86277 347.636597 
L 529.868364 347.519764 
L 529.961977 348.074034 
L 529.989135 347.964945 
L 529.992488 347.663415 
L 530.044776 348.27728 
L 530.084997 348.000538 
L 530.144058 348.402612 
L 530.144452 348.274606 
L 530.190649 347.886442 
L 530.309465 348.849668 
L 530.314298 348.654448 
L 530.387818 349.343584 
L 530.469045 348.884031 
L 530.470852 348.897138 
L 530.541285 349.708909 
L 530.796725 349.564566 
L 530.832614 350.513221 
L 530.90731 350.203781 
L 530.968657 350.497474 
L 531.024647 350.442868 
L 531.032347 350.199227 
L 531.17182 350.575107 
L 531.29062 351.416345 
L 531.298703 351.336025 
L 531.816806 351.997942 
L 531.836692 351.914452 
L 532.043873 350.721011 
L 532.252991 351.774041 
L 532.300603 351.664974 
L 532.362635 352.783495 
L 532.383059 352.313518 
L 532.781302 353.417357 
L 532.791846 353.281394 
L 537.335744 346.641143 
L 537.354524 346.744194 
L 537.555779 347.60477 
L 537.560996 347.289817 
L 537.602261 347.017788 
L 537.671545 348.411703 
L 537.783182 349.557242 
L 537.821351 349.524513 
L 537.855998 349.046671 
L 537.840059 349.635963 
L 537.875424 349.23548 
L 537.993838 350.486088 
L 538.021279 350.406797 
L 538.113706 350.360713 
L 538.113706 350.199175 
L 538.205419 351.330396 
L 538.22966 351.363448 
L 538.287807 351.9199 
L 538.3261 351.730028 
L 538.460876 351.419233 
L 538.49706 351.722805 
L 538.49835 351.674769 
L 539.395269 354.268419 
L 539.400862 354.177797 
L 539.600595 355.762588 
L 539.60093 355.736498 
" clip-path="url(#p8aa46daf00)" style="fill: none; stroke: #1f77b4; stroke-width: 1.5; stroke-linecap: square"/>
   </g>
   <g id="patch_3">
    <path d="M 41.15 390.04 
L 41.15 21.72 
" style="fill: none; stroke: #000000; stroke-width: 0.8; stroke-linejoin: miter; stroke-linecap: square"/>
   </g>
   <g id="patch_4">
    <path d="M 563.336688 390.04 
L 563.336688 21.72 
" style="fill: none; stroke: #000000; stroke-width: 0.8; stroke-linejoin: miter; stroke-linecap: square"/>
   </g>
   <g id="patch_5">
    <path d="M 41.15 390.04 
L 563.336688 390.04 
" style="fill: none; stroke: #000000; stroke-width: 0.8; stroke-linejoin: miter; stroke-linecap: square"/>
   </g>
   <g id="patch_6">
    <path d="M 41.15 21.72 
L 563.336688 21.72 
" style="fill: none; stroke: #000000; stroke-width: 0.8; stroke-linejoin: miter; stroke-linecap: square"/>
   </g>
   <g id="legend_1">
    <g id="patch_7">
     <path d="M 509.936688 44.82 
L 556.336688 44.82 
Q 558.336688 44.82 558.336688 42.82 
L 558.336688 28.72 
Q 558.336688 26.72 556.336688 26.72 
L 509.936688 26.72 
Q 507.936688 26.72 507.936688 28.72 
L 507.936688 42.82 
Q 507.936688 44.82 509.936688 44.82 
z
" style="fill: #ffffff; opacity: 0.8; stroke: #cccccc; stroke-linejoin: miter"/>
    </g>
    <g id="line2d_34">
     <path d="M 511.936688 34.92 
L 521.936688 34.92 
L 531.936688 34.92 
" style="fill: none; stroke: #1f77b4; stroke-width: 1.5; stroke-linecap: square"/>
    </g>
    <g id="text_20">
     <!-- |$\mathbf{B}$| -->
     <g transform="translate(539.936688 38.42) scale(0.1 -0.1)">
      <use xlink:href="#DejaVuSans-7c" transform="translate(0 0.578125)"/>
      <use xlink:href="#DejaVuSans-Bold-42" transform="translate(33.691406 0.578125)"/>
      <use xlink:href="#DejaVuSans-7c" transform="translate(109.912109 0.578125)"/>
     </g>
    </g>
   </g>
  </g>
 </g>
 <defs>
  <clipPath id="p8aa46daf00">
   <rect x="41.15" y="21.72" width="522.186688" height="368.32"/>
  </clipPath>
 </defs>
</svg>
