<?xml version="1.0" encoding="utf-8" standalone="no"?>
<!DOCTYPE svg PUBLIC "-//W3C//DTD SVG 1.1//EN"
  "http://www.w3.org/Graphics/SVG/1.1/DTD/svg11.dtd">
<svg xmlns:xlink="http://www.w3.org/1999/xlink" width="576pt" height="216pt" viewBox="0 0 576 216" xmlns="http://www.w3.org/2000/svg" version="1.1">
 <metadata>
  <rdf:RDF xmlns:dc="http://purl.org/dc/elements/1.1/" xmlns:cc="http://creativecommons.org/ns#" xmlns:rdf="http://www.w3.org/1999/02/22-rdf-syntax-ns#">
   <cc:Work>
    <dc:type rdf:resource="http://purl.org/dc/dcmitype/StillImage"/>
    <dc:date>2025-01-27T08:11:12.445444</dc:date>
    <dc:format>image/svg+xml</dc:format>
    <dc:creator>
     <cc:Agent>
      <dc:title>Matplotlib v3.8.3, https://matplotlib.org/</dc:title>
     </cc:Agent>
    </dc:creator>
   </cc:Work>
  </rdf:RDF>
 </metadata>
 <defs>
  <style type="text/css">*{stroke-linejoin: round; stroke-linecap: butt}</style>
 </defs>
 <g id="figure_1">
  <g id="patch_1">
   <path d="M 0 216 
L 576 216 
L 576 0 
L 0 0 
z
" style="fill: #ffffff"/>
  </g>
  <g id="axes_1">
   <g id="patch_2">
    <path d="M 10.8 119.72261 
L 479.38 119.72261 
L 479.38 96.27739 
L 10.8 96.27739 
z
" style="fill: #ffffff"/>
   </g>
   <g id="PathCollection_1">
    <defs>
     <path id="ma8feca69f9" d="M 0 1.224745 
C 0.324806 1.224745 0.636353 1.095698 0.866025 0.866025 
C 1.095698 0.636353 1.224745 0.324806 1.224745 0 
C 1.224745 -0.324806 1.095698 -0.636353 0.866025 -0.866025 
C 0.636353 -1.095698 0.324806 -1.224745 0 -1.224745 
C -0.324806 -1.224745 -0.636353 -1.095698 -0.866025 -0.866025 
C -1.095698 -0.636353 -1.224745 -0.324806 -1.224745 0 
C -1.224745 0.324806 -1.095698 0.636353 -0.866025 0.866025 
C -0.636353 1.095698 -0.324806 1.224745 0 1.224745 
z
" style="stroke: #808080"/>
    </defs>
    <g clip-path="url(#pca2f20eb47)">
     <use xlink:href="#ma8feca69f9" x="37.423864" y="108" style="fill: #808080; stroke: #808080"/>
    </g>
   </g>
   <g id="PathCollection_2">
    <g clip-path="url(#pca2f20eb47)">
     <use xlink:href="#ma8feca69f9" x="42.748636" y="108" style="fill: #808080; stroke: #808080"/>
    </g>
   </g>
   <g id="PathCollection_3">
    <g clip-path="url(#pca2f20eb47)">
     <use xlink:href="#ma8feca69f9" x="48.073409" y="108" style="fill: #808080; stroke: #808080"/>
    </g>
   </g>
   <g id="PathCollection_4">
    <g clip-path="url(#pca2f20eb47)">
     <use xlink:href="#ma8feca69f9" x="53.398182" y="108" style="fill: #808080; stroke: #808080"/>
    </g>
   </g>
   <g id="PathCollection_5">
    <g clip-path="url(#pca2f20eb47)">
     <use xlink:href="#ma8feca69f9" x="58.722955" y="108" style="fill: #808080; stroke: #808080"/>
    </g>
   </g>
   <g id="PathCollection_6">
    <g clip-path="url(#pca2f20eb47)">
     <use xlink:href="#ma8feca69f9" x="64.047727" y="108" style="fill: #808080; stroke: #808080"/>
    </g>
   </g>
   <g id="PathCollection_7">
    <g clip-path="url(#pca2f20eb47)">
     <use xlink:href="#ma8feca69f9" x="69.3725" y="108" style="fill: #808080; stroke: #808080"/>
    </g>
   </g>
   <g id="PathCollection_8">
    <g clip-path="url(#pca2f20eb47)">
     <use xlink:href="#ma8feca69f9" x="74.697273" y="108" style="fill: #808080; stroke: #808080"/>
    </g>
   </g>
   <g id="PathCollection_9">
    <g clip-path="url(#pca2f20eb47)">
     <use xlink:href="#ma8feca69f9" x="80.022045" y="108" style="fill: #808080; stroke: #808080"/>
    </g>
   </g>
   <g id="PathCollection_10">
    <g clip-path="url(#pca2f20eb47)">
     <use xlink:href="#ma8feca69f9" x="85.346818" y="108" style="fill: #808080; stroke: #808080"/>
    </g>
   </g>
   <g id="PathCollection_11">
    <g clip-path="url(#pca2f20eb47)">
     <use xlink:href="#ma8feca69f9" x="90.671591" y="108" style="fill: #808080; stroke: #808080"/>
    </g>
   </g>
   <g id="PathCollection_12">
    <g clip-path="url(#pca2f20eb47)">
     <use xlink:href="#ma8feca69f9" x="95.996364" y="108" style="fill: #808080; stroke: #808080"/>
    </g>
   </g>
   <g id="PathCollection_13">
    <g clip-path="url(#pca2f20eb47)">
     <use xlink:href="#ma8feca69f9" x="101.321136" y="108" style="fill: #808080; stroke: #808080"/>
    </g>
   </g>
   <g id="PathCollection_14">
    <g clip-path="url(#pca2f20eb47)">
     <use xlink:href="#ma8feca69f9" x="106.645909" y="108" style="fill: #808080; stroke: #808080"/>
    </g>
   </g>
   <g id="PathCollection_15">
    <g clip-path="url(#pca2f20eb47)">
     <use xlink:href="#ma8feca69f9" x="111.970682" y="108" style="fill: #808080; stroke: #808080"/>
    </g>
   </g>
   <g id="PathCollection_16">
    <g clip-path="url(#pca2f20eb47)">
     <use xlink:href="#ma8feca69f9" x="117.295455" y="108" style="fill: #808080; stroke: #808080"/>
    </g>
   </g>
   <g id="PathCollection_17">
    <g clip-path="url(#pca2f20eb47)">
     <use xlink:href="#ma8feca69f9" x="122.620227" y="108" style="fill: #808080; stroke: #808080"/>
    </g>
   </g>
   <g id="PathCollection_18">
    <g clip-path="url(#pca2f20eb47)">
     <use xlink:href="#ma8feca69f9" x="127.945" y="108" style="fill: #808080; stroke: #808080"/>
    </g>
   </g>
   <g id="PathCollection_19">
    <g clip-path="url(#pca2f20eb47)">
     <use xlink:href="#ma8feca69f9" x="133.269773" y="108" style="fill: #808080; stroke: #808080"/>
    </g>
   </g>
   <g id="PathCollection_20">
    <g clip-path="url(#pca2f20eb47)">
     <use xlink:href="#ma8feca69f9" x="138.594545" y="108" style="fill: #808080; stroke: #808080"/>
    </g>
   </g>
   <g id="PathCollection_21">
    <g clip-path="url(#pca2f20eb47)">
     <use xlink:href="#ma8feca69f9" x="143.919318" y="108" style="fill: #808080; stroke: #808080"/>
    </g>
   </g>
   <g id="PathCollection_22">
    <g clip-path="url(#pca2f20eb47)">
     <use xlink:href="#ma8feca69f9" x="149.244091" y="108" style="fill: #808080; stroke: #808080"/>
    </g>
   </g>
   <g id="PathCollection_23">
    <g clip-path="url(#pca2f20eb47)">
     <use xlink:href="#ma8feca69f9" x="154.568864" y="108" style="fill: #808080; stroke: #808080"/>
    </g>
   </g>
   <g id="PathCollection_24">
    <g clip-path="url(#pca2f20eb47)">
     <use xlink:href="#ma8feca69f9" x="159.893636" y="108" style="fill: #808080; stroke: #808080"/>
    </g>
   </g>
   <g id="PathCollection_25">
    <g clip-path="url(#pca2f20eb47)">
     <use xlink:href="#ma8feca69f9" x="165.218409" y="108" style="fill: #808080; stroke: #808080"/>
    </g>
   </g>
   <g id="PathCollection_26">
    <g clip-path="url(#pca2f20eb47)">
     <use xlink:href="#ma8feca69f9" x="170.543182" y="108" style="fill: #808080; stroke: #808080"/>
    </g>
   </g>
   <g id="PathCollection_27">
    <g clip-path="url(#pca2f20eb47)">
     <use xlink:href="#ma8feca69f9" x="175.867955" y="108" style="fill: #808080; stroke: #808080"/>
    </g>
   </g>
   <g id="PathCollection_28">
    <g clip-path="url(#pca2f20eb47)">
     <use xlink:href="#ma8feca69f9" x="181.192727" y="108" style="fill: #808080; stroke: #808080"/>
    </g>
   </g>
   <g id="PathCollection_29">
    <g clip-path="url(#pca2f20eb47)">
     <use xlink:href="#ma8feca69f9" x="186.5175" y="108" style="fill: #808080; stroke: #808080"/>
    </g>
   </g>
   <g id="PathCollection_30">
    <g clip-path="url(#pca2f20eb47)">
     <use xlink:href="#ma8feca69f9" x="191.842273" y="108" style="fill: #808080; stroke: #808080"/>
    </g>
   </g>
   <g id="PathCollection_31">
    <g clip-path="url(#pca2f20eb47)">
     <use xlink:href="#ma8feca69f9" x="197.167045" y="108" style="fill: #808080; stroke: #808080"/>
    </g>
   </g>
   <g id="PathCollection_32">
    <g clip-path="url(#pca2f20eb47)">
     <use xlink:href="#ma8feca69f9" x="202.491818" y="108" style="fill: #808080; stroke: #808080"/>
    </g>
   </g>
   <g id="PathCollection_33">
    <g clip-path="url(#pca2f20eb47)">
     <use xlink:href="#ma8feca69f9" x="207.816591" y="108" style="fill: #808080; stroke: #808080"/>
    </g>
   </g>
   <g id="PathCollection_34">
    <g clip-path="url(#pca2f20eb47)">
     <use xlink:href="#ma8feca69f9" x="213.141364" y="108" style="fill: #808080; stroke: #808080"/>
    </g>
   </g>
   <g id="PathCollection_35">
    <g clip-path="url(#pca2f20eb47)">
     <use xlink:href="#ma8feca69f9" x="218.466136" y="108" style="fill: #808080; stroke: #808080"/>
    </g>
   </g>
   <g id="PathCollection_36">
    <g clip-path="url(#pca2f20eb47)">
     <use xlink:href="#ma8feca69f9" x="223.790909" y="108" style="fill: #808080; stroke: #808080"/>
    </g>
   </g>
   <g id="PathCollection_37">
    <g clip-path="url(#pca2f20eb47)">
     <use xlink:href="#ma8feca69f9" x="229.115682" y="108" style="fill: #808080; stroke: #808080"/>
    </g>
   </g>
   <g id="PathCollection_38">
    <g clip-path="url(#pca2f20eb47)">
     <use xlink:href="#ma8feca69f9" x="234.440455" y="108" style="fill: #808080; stroke: #808080"/>
    </g>
   </g>
   <g id="PathCollection_39">
    <g clip-path="url(#pca2f20eb47)">
     <use xlink:href="#ma8feca69f9" x="239.765227" y="108" style="fill: #808080; stroke: #808080"/>
    </g>
   </g>
   <g id="PathCollection_40">
    <g clip-path="url(#pca2f20eb47)">
     <use xlink:href="#ma8feca69f9" x="245.09" y="108" style="fill: #808080; stroke: #808080"/>
    </g>
   </g>
   <g id="PathCollection_41">
    <g clip-path="url(#pca2f20eb47)">
     <use xlink:href="#ma8feca69f9" x="250.414773" y="108" style="fill: #808080; stroke: #808080"/>
    </g>
   </g>
   <g id="PathCollection_42">
    <g clip-path="url(#pca2f20eb47)">
     <use xlink:href="#ma8feca69f9" x="255.739545" y="108" style="fill: #808080; stroke: #808080"/>
    </g>
   </g>
   <g id="PathCollection_43">
    <g clip-path="url(#pca2f20eb47)">
     <use xlink:href="#ma8feca69f9" x="261.064318" y="108" style="fill: #808080; stroke: #808080"/>
    </g>
   </g>
   <g id="PathCollection_44">
    <g clip-path="url(#pca2f20eb47)">
     <use xlink:href="#ma8feca69f9" x="266.389091" y="108" style="fill: #808080; stroke: #808080"/>
    </g>
   </g>
   <g id="PathCollection_45">
    <g clip-path="url(#pca2f20eb47)">
     <use xlink:href="#ma8feca69f9" x="271.713864" y="108" style="fill: #808080; stroke: #808080"/>
    </g>
   </g>
   <g id="PathCollection_46">
    <g clip-path="url(#pca2f20eb47)">
     <use xlink:href="#ma8feca69f9" x="277.038636" y="108" style="fill: #808080; stroke: #808080"/>
    </g>
   </g>
   <g id="PathCollection_47">
    <g clip-path="url(#pca2f20eb47)">
     <use xlink:href="#ma8feca69f9" x="282.363409" y="108" style="fill: #808080; stroke: #808080"/>
    </g>
   </g>
   <g id="PathCollection_48">
    <g clip-path="url(#pca2f20eb47)">
     <use xlink:href="#ma8feca69f9" x="287.688182" y="108" style="fill: #808080; stroke: #808080"/>
    </g>
   </g>
   <g id="PathCollection_49">
    <g clip-path="url(#pca2f20eb47)">
     <use xlink:href="#ma8feca69f9" x="293.012955" y="108" style="fill: #808080; stroke: #808080"/>
    </g>
   </g>
   <g id="PathCollection_50">
    <g clip-path="url(#pca2f20eb47)">
     <use xlink:href="#ma8feca69f9" x="298.337727" y="108" style="fill: #808080; stroke: #808080"/>
    </g>
   </g>
   <g id="PathCollection_51">
    <g clip-path="url(#pca2f20eb47)">
     <use xlink:href="#ma8feca69f9" x="303.6625" y="108" style="fill: #808080; stroke: #808080"/>
    </g>
   </g>
   <g id="PathCollection_52">
    <g clip-path="url(#pca2f20eb47)">
     <use xlink:href="#ma8feca69f9" x="308.987273" y="108" style="fill: #808080; stroke: #808080"/>
    </g>
   </g>
   <g id="PathCollection_53">
    <g clip-path="url(#pca2f20eb47)">
     <use xlink:href="#ma8feca69f9" x="314.312045" y="108" style="fill: #808080; stroke: #808080"/>
    </g>
   </g>
   <g id="PathCollection_54">
    <g clip-path="url(#pca2f20eb47)">
     <use xlink:href="#ma8feca69f9" x="319.636818" y="108" style="fill: #808080; stroke: #808080"/>
    </g>
   </g>
   <g id="PathCollection_55">
    <g clip-path="url(#pca2f20eb47)">
     <use xlink:href="#ma8feca69f9" x="324.961591" y="108" style="fill: #808080; stroke: #808080"/>
    </g>
   </g>
   <g id="PathCollection_56">
    <g clip-path="url(#pca2f20eb47)">
     <use xlink:href="#ma8feca69f9" x="330.286364" y="108" style="fill: #808080; stroke: #808080"/>
    </g>
   </g>
   <g id="PathCollection_57">
    <g clip-path="url(#pca2f20eb47)">
     <use xlink:href="#ma8feca69f9" x="335.611136" y="108" style="fill: #808080; stroke: #808080"/>
    </g>
   </g>
   <g id="PathCollection_58">
    <g clip-path="url(#pca2f20eb47)">
     <use xlink:href="#ma8feca69f9" x="340.935909" y="108" style="fill: #808080; stroke: #808080"/>
    </g>
   </g>
   <g id="PathCollection_59">
    <g clip-path="url(#pca2f20eb47)">
     <use xlink:href="#ma8feca69f9" x="346.260682" y="108" style="fill: #808080; stroke: #808080"/>
    </g>
   </g>
   <g id="PathCollection_60">
    <g clip-path="url(#pca2f20eb47)">
     <use xlink:href="#ma8feca69f9" x="351.585455" y="108" style="fill: #808080; stroke: #808080"/>
    </g>
   </g>
   <g id="PathCollection_61">
    <g clip-path="url(#pca2f20eb47)">
     <use xlink:href="#ma8feca69f9" x="356.910227" y="108" style="fill: #808080; stroke: #808080"/>
    </g>
   </g>
   <g id="PathCollection_62">
    <g clip-path="url(#pca2f20eb47)">
     <use xlink:href="#ma8feca69f9" x="362.235" y="108" style="fill: #808080; stroke: #808080"/>
    </g>
   </g>
   <g id="PathCollection_63">
    <g clip-path="url(#pca2f20eb47)">
     <use xlink:href="#ma8feca69f9" x="367.559773" y="108" style="fill: #808080; stroke: #808080"/>
    </g>
   </g>
   <g id="PathCollection_64">
    <g clip-path="url(#pca2f20eb47)">
     <use xlink:href="#ma8feca69f9" x="372.884545" y="108" style="fill: #808080; stroke: #808080"/>
    </g>
   </g>
   <g id="PathCollection_65">
    <g clip-path="url(#pca2f20eb47)">
     <use xlink:href="#ma8feca69f9" x="378.209318" y="108" style="fill: #808080; stroke: #808080"/>
    </g>
   </g>
   <g id="PathCollection_66">
    <g clip-path="url(#pca2f20eb47)">
     <use xlink:href="#ma8feca69f9" x="383.534091" y="108" style="fill: #808080; stroke: #808080"/>
    </g>
   </g>
   <g id="PathCollection_67">
    <g clip-path="url(#pca2f20eb47)">
     <use xlink:href="#ma8feca69f9" x="388.858864" y="108" style="fill: #808080; stroke: #808080"/>
    </g>
   </g>
   <g id="PathCollection_68">
    <g clip-path="url(#pca2f20eb47)">
     <use xlink:href="#ma8feca69f9" x="394.183636" y="108" style="fill: #808080; stroke: #808080"/>
    </g>
   </g>
   <g id="PathCollection_69">
    <g clip-path="url(#pca2f20eb47)">
     <use xlink:href="#ma8feca69f9" x="399.508409" y="108" style="fill: #808080; stroke: #808080"/>
    </g>
   </g>
   <g id="PathCollection_70">
    <g clip-path="url(#pca2f20eb47)">
     <use xlink:href="#ma8feca69f9" x="410.157955" y="108" style="fill: #808080; stroke: #808080"/>
    </g>
   </g>
   <g id="PathCollection_71">
    <g clip-path="url(#pca2f20eb47)">
     <use xlink:href="#ma8feca69f9" x="415.482727" y="108" style="fill: #808080; stroke: #808080"/>
    </g>
   </g>
   <g id="PathCollection_72">
    <g clip-path="url(#pca2f20eb47)">
     <use xlink:href="#ma8feca69f9" x="420.8075" y="108" style="fill: #808080; stroke: #808080"/>
    </g>
   </g>
   <g id="PathCollection_73">
    <g clip-path="url(#pca2f20eb47)">
     <use xlink:href="#ma8feca69f9" x="426.132273" y="108" style="fill: #808080; stroke: #808080"/>
    </g>
   </g>
   <g id="PathCollection_74">
    <g clip-path="url(#pca2f20eb47)">
     <use xlink:href="#ma8feca69f9" x="431.457045" y="108" style="fill: #808080; stroke: #808080"/>
    </g>
   </g>
   <g id="PathCollection_75">
    <g clip-path="url(#pca2f20eb47)">
     <use xlink:href="#ma8feca69f9" x="436.781818" y="108" style="fill: #808080; stroke: #808080"/>
    </g>
   </g>
   <g id="PathCollection_76">
    <g clip-path="url(#pca2f20eb47)">
     <use xlink:href="#ma8feca69f9" x="442.106591" y="108" style="fill: #808080; stroke: #808080"/>
    </g>
   </g>
   <g id="PathCollection_77">
    <g clip-path="url(#pca2f20eb47)">
     <use xlink:href="#ma8feca69f9" x="447.431364" y="108" style="fill: #808080; stroke: #808080"/>
    </g>
   </g>
   <g id="PathCollection_78">
    <g clip-path="url(#pca2f20eb47)">
     <use xlink:href="#ma8feca69f9" x="452.756136" y="108" style="fill: #808080; stroke: #808080"/>
    </g>
   </g>
   <g id="matplotlib.axis_1">
    <g id="xtick_1">
     <g id="line2d_1">
      <defs>
       <path id="mdb3e61a86c" d="M 0 0 
L 0 3.5 
" style="stroke: #000000; stroke-width: 0.8"/>
      </defs>
      <g>
       <use xlink:href="#mdb3e61a86c" x="32.099091" y="119.72261" style="stroke: #000000; stroke-width: 0.8"/>
      </g>
     </g>
     <g id="text_1">
      <!-- 0.00 -->
      <g transform="translate(20.966278 134.321047) scale(0.1 -0.1)">
       <defs>
        <path id="DejaVuSans-30" d="M 2034 4250 
Q 1547 4250 1301 3770 
Q 1056 3291 1056 2328 
Q 1056 1369 1301 889 
Q 1547 409 2034 409 
Q 2525 409 2770 889 
Q 3016 1369 3016 2328 
Q 3016 3291 2770 3770 
Q 2525 4250 2034 4250 
z
M 2034 4750 
Q 2819 4750 3233 4129 
Q 3647 3509 3647 2328 
Q 3647 1150 3233 529 
Q 2819 -91 2034 -91 
Q 1250 -91 836 529 
Q 422 1150 422 2328 
Q 422 3509 836 4129 
Q 1250 4750 2034 4750 
z
" transform="scale(0.015625)"/>
        <path id="DejaVuSans-2e" d="M 684 794 
L 1344 794 
L 1344 0 
L 684 0 
L 684 794 
z
" transform="scale(0.015625)"/>
       </defs>
       <use xlink:href="#DejaVuSans-30"/>
       <use xlink:href="#DejaVuSans-2e" x="63.623047"/>
       <use xlink:href="#DejaVuSans-30" x="95.410156"/>
       <use xlink:href="#DejaVuSans-30" x="159.033203"/>
      </g>
     </g>
    </g>
    <g id="xtick_2">
     <g id="line2d_2">
      <g>
       <use xlink:href="#mdb3e61a86c" x="85.383681" y="119.72261" style="stroke: #000000; stroke-width: 0.8"/>
      </g>
     </g>
     <g id="text_2">
      <!-- 0.25 -->
      <g transform="translate(74.250868 134.321047) scale(0.1 -0.1)">
       <defs>
        <path id="DejaVuSans-32" d="M 1228 531 
L 3431 531 
L 3431 0 
L 469 0 
L 469 531 
Q 828 903 1448 1529 
Q 2069 2156 2228 2338 
Q 2531 2678 2651 2914 
Q 2772 3150 2772 3378 
Q 2772 3750 2511 3984 
Q 2250 4219 1831 4219 
Q 1534 4219 1204 4116 
Q 875 4013 500 3803 
L 500 4441 
Q 881 4594 1212 4672 
Q 1544 4750 1819 4750 
Q 2544 4750 2975 4387 
Q 3406 4025 3406 3419 
Q 3406 3131 3298 2873 
Q 3191 2616 2906 2266 
Q 2828 2175 2409 1742 
Q 1991 1309 1228 531 
z
" transform="scale(0.015625)"/>
        <path id="DejaVuSans-35" d="M 691 4666 
L 3169 4666 
L 3169 4134 
L 1269 4134 
L 1269 2991 
Q 1406 3038 1543 3061 
Q 1681 3084 1819 3084 
Q 2600 3084 3056 2656 
Q 3513 2228 3513 1497 
Q 3513 744 3044 326 
Q 2575 -91 1722 -91 
Q 1428 -91 1123 -41 
Q 819 9 494 109 
L 494 744 
Q 775 591 1075 516 
Q 1375 441 1709 441 
Q 2250 441 2565 725 
Q 2881 1009 2881 1497 
Q 2881 1984 2565 2268 
Q 2250 2553 1709 2553 
Q 1456 2553 1204 2497 
Q 953 2441 691 2322 
L 691 4666 
z
" transform="scale(0.015625)"/>
       </defs>
       <use xlink:href="#DejaVuSans-30"/>
       <use xlink:href="#DejaVuSans-2e" x="63.623047"/>
       <use xlink:href="#DejaVuSans-32" x="95.410156"/>
       <use xlink:href="#DejaVuSans-35" x="159.033203"/>
      </g>
     </g>
    </g>
    <g id="xtick_3">
     <g id="line2d_3">
      <g>
       <use xlink:href="#mdb3e61a86c" x="138.668271" y="119.72261" style="stroke: #000000; stroke-width: 0.8"/>
      </g>
     </g>
     <g id="text_3">
      <!-- 0.50 -->
      <g transform="translate(127.535458 134.321047) scale(0.1 -0.1)">
       <use xlink:href="#DejaVuSans-30"/>
       <use xlink:href="#DejaVuSans-2e" x="63.623047"/>
       <use xlink:href="#DejaVuSans-35" x="95.410156"/>
       <use xlink:href="#DejaVuSans-30" x="159.033203"/>
      </g>
     </g>
    </g>
    <g id="xtick_4">
     <g id="line2d_4">
      <g>
       <use xlink:href="#mdb3e61a86c" x="191.952861" y="119.72261" style="stroke: #000000; stroke-width: 0.8"/>
      </g>
     </g>
     <g id="text_4">
      <!-- 0.75 -->
      <g transform="translate(180.820048 134.321047) scale(0.1 -0.1)">
       <defs>
        <path id="DejaVuSans-37" d="M 525 4666 
L 3525 4666 
L 3525 4397 
L 1831 0 
L 1172 0 
L 2766 4134 
L 525 4134 
L 525 4666 
z
" transform="scale(0.015625)"/>
       </defs>
       <use xlink:href="#DejaVuSans-30"/>
       <use xlink:href="#DejaVuSans-2e" x="63.623047"/>
       <use xlink:href="#DejaVuSans-37" x="95.410156"/>
       <use xlink:href="#DejaVuSans-35" x="159.033203"/>
      </g>
     </g>
    </g>
    <g id="xtick_5">
     <g id="line2d_5">
      <g>
       <use xlink:href="#mdb3e61a86c" x="245.237451" y="119.72261" style="stroke: #000000; stroke-width: 0.8"/>
      </g>
     </g>
     <g id="text_5">
      <!-- 1.00 -->
      <g transform="translate(234.104638 134.321047) scale(0.1 -0.1)">
       <defs>
        <path id="DejaVuSans-31" d="M 794 531 
L 1825 531 
L 1825 4091 
L 703 3866 
L 703 4441 
L 1819 4666 
L 2450 4666 
L 2450 531 
L 3481 531 
L 3481 0 
L 794 0 
L 794 531 
z
" transform="scale(0.015625)"/>
       </defs>
       <use xlink:href="#DejaVuSans-31"/>
       <use xlink:href="#DejaVuSans-2e" x="63.623047"/>
       <use xlink:href="#DejaVuSans-30" x="95.410156"/>
       <use xlink:href="#DejaVuSans-30" x="159.033203"/>
      </g>
     </g>
    </g>
    <g id="xtick_6">
     <g id="line2d_6">
      <g>
       <use xlink:href="#mdb3e61a86c" x="298.52204" y="119.72261" style="stroke: #000000; stroke-width: 0.8"/>
      </g>
     </g>
     <g id="text_6">
      <!-- 1.25 -->
      <g transform="translate(287.389228 134.321047) scale(0.1 -0.1)">
       <use xlink:href="#DejaVuSans-31"/>
       <use xlink:href="#DejaVuSans-2e" x="63.623047"/>
       <use xlink:href="#DejaVuSans-32" x="95.410156"/>
       <use xlink:href="#DejaVuSans-35" x="159.033203"/>
      </g>
     </g>
    </g>
    <g id="xtick_7">
     <g id="line2d_7">
      <g>
       <use xlink:href="#mdb3e61a86c" x="351.80663" y="119.72261" style="stroke: #000000; stroke-width: 0.8"/>
      </g>
     </g>
     <g id="text_7">
      <!-- 1.50 -->
      <g transform="translate(340.673818 134.321047) scale(0.1 -0.1)">
       <use xlink:href="#DejaVuSans-31"/>
       <use xlink:href="#DejaVuSans-2e" x="63.623047"/>
       <use xlink:href="#DejaVuSans-35" x="95.410156"/>
       <use xlink:href="#DejaVuSans-30" x="159.033203"/>
      </g>
     </g>
    </g>
    <g id="xtick_8">
     <g id="line2d_8">
      <g>
       <use xlink:href="#mdb3e61a86c" x="405.09122" y="119.72261" style="stroke: #000000; stroke-width: 0.8"/>
      </g>
     </g>
     <g id="text_8">
      <!-- 1.75 -->
      <g transform="translate(393.958408 134.321047) scale(0.1 -0.1)">
       <use xlink:href="#DejaVuSans-31"/>
       <use xlink:href="#DejaVuSans-2e" x="63.623047"/>
       <use xlink:href="#DejaVuSans-37" x="95.410156"/>
       <use xlink:href="#DejaVuSans-35" x="159.033203"/>
      </g>
     </g>
    </g>
    <g id="xtick_9">
     <g id="line2d_9">
      <g>
       <use xlink:href="#mdb3e61a86c" x="458.37581" y="119.72261" style="stroke: #000000; stroke-width: 0.8"/>
      </g>
     </g>
     <g id="text_9">
      <!-- 2.00 -->
      <g transform="translate(447.242998 134.321047) scale(0.1 -0.1)">
       <use xlink:href="#DejaVuSans-32"/>
       <use xlink:href="#DejaVuSans-2e" x="63.623047"/>
       <use xlink:href="#DejaVuSans-30" x="95.410156"/>
       <use xlink:href="#DejaVuSans-30" x="159.033203"/>
      </g>
     </g>
    </g>
    <g id="text_10">
     <!-- $x$ (m) -->
     <g transform="translate(231.74 147.999172) scale(0.1 -0.1)">
      <defs>
       <path id="DejaVuSans-Oblique-78" d="M 3841 3500 
L 2234 1784 
L 3219 0 
L 2559 0 
L 1819 1388 
L 531 0 
L -166 0 
L 1556 1844 
L 641 3500 
L 1300 3500 
L 1972 2234 
L 3144 3500 
L 3841 3500 
z
" transform="scale(0.015625)"/>
       <path id="DejaVuSans-20" transform="scale(0.015625)"/>
       <path id="DejaVuSans-28" d="M 1984 4856 
Q 1566 4138 1362 3434 
Q 1159 2731 1159 2009 
Q 1159 1288 1364 580 
Q 1569 -128 1984 -844 
L 1484 -844 
Q 1016 -109 783 600 
Q 550 1309 550 2009 
Q 550 2706 781 3412 
Q 1013 4119 1484 4856 
L 1984 4856 
z
" transform="scale(0.015625)"/>
       <path id="DejaVuSans-6d" d="M 3328 2828 
Q 3544 3216 3844 3400 
Q 4144 3584 4550 3584 
Q 5097 3584 5394 3201 
Q 5691 2819 5691 2113 
L 5691 0 
L 5113 0 
L 5113 2094 
Q 5113 2597 4934 2840 
Q 4756 3084 4391 3084 
Q 3944 3084 3684 2787 
Q 3425 2491 3425 1978 
L 3425 0 
L 2847 0 
L 2847 2094 
Q 2847 2600 2669 2842 
Q 2491 3084 2119 3084 
Q 1678 3084 1418 2786 
Q 1159 2488 1159 1978 
L 1159 0 
L 581 0 
L 581 3500 
L 1159 3500 
L 1159 2956 
Q 1356 3278 1631 3431 
Q 1906 3584 2284 3584 
Q 2666 3584 2933 3390 
Q 3200 3197 3328 2828 
z
" transform="scale(0.015625)"/>
       <path id="DejaVuSans-29" d="M 513 4856 
L 1013 4856 
Q 1481 4119 1714 3412 
Q 1947 2706 1947 2009 
Q 1947 1309 1714 600 
Q 1481 -109 1013 -844 
L 513 -844 
Q 928 -128 1133 580 
Q 1338 1288 1338 2009 
Q 1338 2731 1133 3434 
Q 928 4138 513 4856 
z
" transform="scale(0.015625)"/>
      </defs>
      <use xlink:href="#DejaVuSans-Oblique-78" transform="translate(0 0.125)"/>
      <use xlink:href="#DejaVuSans-20" transform="translate(59.179688 0.125)"/>
      <use xlink:href="#DejaVuSans-28" transform="translate(90.966797 0.125)"/>
      <use xlink:href="#DejaVuSans-6d" transform="translate(129.980469 0.125)"/>
      <use xlink:href="#DejaVuSans-29" transform="translate(227.392578 0.125)"/>
     </g>
    </g>
   </g>
   <g id="matplotlib.axis_2"/>
   <g id="PathCollection_79">
    <defs>
     <path id="mde405c03db" d="M 0 1.732051 
C 0.459345 1.732051 0.899939 1.549551 1.224745 1.224745 
C 1.549551 0.899939 1.732051 0.459345 1.732051 0 
C 1.732051 -0.459345 1.549551 -0.899939 1.224745 -1.224745 
C 0.899939 -1.549551 0.459345 -1.732051 0 -1.732051 
C -0.459345 -1.732051 -0.899939 -1.549551 -1.224745 -1.224745 
C -1.549551 -0.899939 -1.732051 -0.459345 -1.732051 0 
C -1.732051 0.459345 -1.549551 0.899939 -1.224745 1.224745 
C -0.899939 1.549551 -0.459345 1.732051 0 1.732051 
z
" style="stroke: #0000ff"/>
    </defs>
    <g clip-path="url(#pca2f20eb47)">
     <use xlink:href="#mde405c03db" x="32.099091" y="108" style="fill: #0000ff; stroke: #0000ff"/>
    </g>
   </g>
   <g id="line2d_10">
    <path d="M 10.8 108 
L 479.38 108 
" clip-path="url(#pca2f20eb47)" style="fill: none; stroke-dasharray: 1.85,0.8; stroke-dashoffset: 0; stroke: #808080; stroke-width: 0.5"/>
   </g>
   <g id="line2d_11">
    <path d="M 32.099091 119.72261 
L 32.099091 96.27739 
" clip-path="url(#pca2f20eb47)" style="fill: none; stroke-dasharray: 1.85,0.8; stroke-dashoffset: 0; stroke: #808080; stroke-width: 0.5"/>
   </g>
   <g id="patch_3">
    <path d="M 10.8 119.72261 
L 10.8 96.27739 
" style="fill: none; stroke: #000000; stroke-width: 0.8; stroke-linejoin: miter; stroke-linecap: square"/>
   </g>
   <g id="patch_4">
    <path d="M 479.38 119.72261 
L 479.38 96.27739 
" style="fill: none; stroke: #000000; stroke-width: 0.8; stroke-linejoin: miter; stroke-linecap: square"/>
   </g>
   <g id="patch_5">
    <path d="M 10.8 119.72261 
L 479.38 119.72261 
" style="fill: none; stroke: #000000; stroke-width: 0.8; stroke-linejoin: miter; stroke-linecap: square"/>
   </g>
   <g id="patch_6">
    <path d="M 10.8 96.27739 
L 479.38 96.27739 
" style="fill: none; stroke: #000000; stroke-width: 0.8; stroke-linejoin: miter; stroke-linecap: square"/>
   </g>
   <g id="PathCollection_80">
    <defs>
     <path id="m451d9e47f5" d="M 0 1.732051 
C 0.459345 1.732051 0.899939 1.549551 1.224745 1.224745 
C 1.549551 0.899939 1.732051 0.459345 1.732051 0 
C 1.732051 -0.459345 1.549551 -0.899939 1.224745 -1.224745 
C 0.899939 -1.549551 0.459345 -1.732051 0 -1.732051 
C -0.459345 -1.732051 -0.899939 -1.549551 -1.224745 -1.224745 
C -1.549551 -0.899939 -1.732051 -0.459345 -1.732051 0 
C -1.732051 0.459345 -1.549551 0.899939 -1.224745 1.224745 
C -0.899939 1.549551 -0.459345 1.732051 0 1.732051 
z
" style="stroke: #ff0000"/>
    </defs>
    <g clip-path="url(#pca2f20eb47)">
     <use xlink:href="#m451d9e47f5" x="404.833182" y="108" style="fill: #ff0000; stroke: #ff0000"/>
    </g>
   </g>
   <g id="PathCollection_81">
    <defs>
     <path id="m77099c7568" d="M -1.732051 1.732051 
L 1.732051 -1.732051 
M -1.732051 -1.732051 
L 1.732051 1.732051 
" style="stroke: #000000; stroke-width: 1.5"/>
    </defs>
    <g clip-path="url(#pca2f20eb47)">
     <use xlink:href="#m77099c7568" x="458.080909" y="108" style="stroke: #000000; stroke-width: 1.5"/>
    </g>
   </g>
   <g id="legend_1">
    <g id="patch_7">
     <path d="M 486.38 138.85625 
L 563.151875 138.85625 
Q 565.151875 138.85625 565.151875 136.85625 
L 565.151875 79.14375 
Q 565.151875 77.14375 563.151875 77.14375 
L 486.38 77.14375 
Q 484.38 77.14375 484.38 79.14375 
L 484.38 136.85625 
Q 484.38 138.85625 486.38 138.85625 
z
" style="fill: #ffffff; opacity: 0.8; stroke: #cccccc; stroke-linejoin: miter"/>
    </g>
    <g id="PathCollection_82">
     <g>
      <use xlink:href="#mde405c03db" x="498.38" y="86.117187" style="fill: #0000ff; stroke: #0000ff"/>
     </g>
    </g>
    <g id="text_11">
     <!-- ABC -->
     <g transform="translate(516.38 88.742187) scale(0.1 -0.1)">
      <defs>
       <path id="DejaVuSans-41" d="M 2188 4044 
L 1331 1722 
L 3047 1722 
L 2188 4044 
z
M 1831 4666 
L 2547 4666 
L 4325 0 
L 3669 0 
L 3244 1197 
L 1141 1197 
L 716 0 
L 50 0 
L 1831 4666 
z
" transform="scale(0.015625)"/>
       <path id="DejaVuSans-42" d="M 1259 2228 
L 1259 519 
L 2272 519 
Q 2781 519 3026 730 
Q 3272 941 3272 1375 
Q 3272 1813 3026 2020 
Q 2781 2228 2272 2228 
L 1259 2228 
z
M 1259 4147 
L 1259 2741 
L 2194 2741 
Q 2656 2741 2882 2914 
Q 3109 3088 3109 3444 
Q 3109 3797 2882 3972 
Q 2656 4147 2194 4147 
L 1259 4147 
z
M 628 4666 
L 2241 4666 
Q 2963 4666 3353 4366 
Q 3744 4066 3744 3513 
Q 3744 3084 3544 2831 
Q 3344 2578 2956 2516 
Q 3422 2416 3680 2098 
Q 3938 1781 3938 1306 
Q 3938 681 3513 340 
Q 3088 0 2303 0 
L 628 0 
L 628 4666 
z
" transform="scale(0.015625)"/>
       <path id="DejaVuSans-43" d="M 4122 4306 
L 4122 3641 
Q 3803 3938 3442 4084 
Q 3081 4231 2675 4231 
Q 1875 4231 1450 3742 
Q 1025 3253 1025 2328 
Q 1025 1406 1450 917 
Q 1875 428 2675 428 
Q 3081 428 3442 575 
Q 3803 722 4122 1019 
L 4122 359 
Q 3791 134 3420 21 
Q 3050 -91 2638 -91 
Q 1578 -91 968 557 
Q 359 1206 359 2328 
Q 359 3453 968 4101 
Q 1578 4750 2638 4750 
Q 3056 4750 3426 4639 
Q 3797 4528 4122 4306 
z
" transform="scale(0.015625)"/>
      </defs>
      <use xlink:href="#DejaVuSans-41"/>
      <use xlink:href="#DejaVuSans-42" x="68.408203"/>
      <use xlink:href="#DejaVuSans-43" x="135.261719"/>
     </g>
    </g>
    <g id="PathCollection_83">
     <g>
      <use xlink:href="#m451d9e47f5" x="498.38" y="100.795312" style="fill: #ff0000; stroke: #ff0000"/>
     </g>
    </g>
    <g id="text_12">
     <!-- Interface -->
     <g transform="translate(516.38 103.420312) scale(0.1 -0.1)">
      <defs>
       <path id="DejaVuSans-49" d="M 628 4666 
L 1259 4666 
L 1259 0 
L 628 0 
L 628 4666 
z
" transform="scale(0.015625)"/>
       <path id="DejaVuSans-6e" d="M 3513 2113 
L 3513 0 
L 2938 0 
L 2938 2094 
Q 2938 2591 2744 2837 
Q 2550 3084 2163 3084 
Q 1697 3084 1428 2787 
Q 1159 2491 1159 1978 
L 1159 0 
L 581 0 
L 581 3500 
L 1159 3500 
L 1159 2956 
Q 1366 3272 1645 3428 
Q 1925 3584 2291 3584 
Q 2894 3584 3203 3211 
Q 3513 2838 3513 2113 
z
" transform="scale(0.015625)"/>
       <path id="DejaVuSans-74" d="M 1172 4494 
L 1172 3500 
L 2356 3500 
L 2356 3053 
L 1172 3053 
L 1172 1153 
Q 1172 725 1289 603 
Q 1406 481 1766 481 
L 2356 481 
L 2356 0 
L 1766 0 
Q 1100 0 847 248 
Q 594 497 594 1153 
L 594 3053 
L 172 3053 
L 172 3500 
L 594 3500 
L 594 4494 
L 1172 4494 
z
" transform="scale(0.015625)"/>
       <path id="DejaVuSans-65" d="M 3597 1894 
L 3597 1613 
L 953 1613 
Q 991 1019 1311 708 
Q 1631 397 2203 397 
Q 2534 397 2845 478 
Q 3156 559 3463 722 
L 3463 178 
Q 3153 47 2828 -22 
Q 2503 -91 2169 -91 
Q 1331 -91 842 396 
Q 353 884 353 1716 
Q 353 2575 817 3079 
Q 1281 3584 2069 3584 
Q 2775 3584 3186 3129 
Q 3597 2675 3597 1894 
z
M 3022 2063 
Q 3016 2534 2758 2815 
Q 2500 3097 2075 3097 
Q 1594 3097 1305 2825 
Q 1016 2553 972 2059 
L 3022 2063 
z
" transform="scale(0.015625)"/>
       <path id="DejaVuSans-72" d="M 2631 2963 
Q 2534 3019 2420 3045 
Q 2306 3072 2169 3072 
Q 1681 3072 1420 2755 
Q 1159 2438 1159 1844 
L 1159 0 
L 581 0 
L 581 3500 
L 1159 3500 
L 1159 2956 
Q 1341 3275 1631 3429 
Q 1922 3584 2338 3584 
Q 2397 3584 2469 3576 
Q 2541 3569 2628 3553 
L 2631 2963 
z
" transform="scale(0.015625)"/>
       <path id="DejaVuSans-66" d="M 2375 4863 
L 2375 4384 
L 1825 4384 
Q 1516 4384 1395 4259 
Q 1275 4134 1275 3809 
L 1275 3500 
L 2222 3500 
L 2222 3053 
L 1275 3053 
L 1275 0 
L 697 0 
L 697 3053 
L 147 3053 
L 147 3500 
L 697 3500 
L 697 3744 
Q 697 4328 969 4595 
Q 1241 4863 1831 4863 
L 2375 4863 
z
" transform="scale(0.015625)"/>
       <path id="DejaVuSans-61" d="M 2194 1759 
Q 1497 1759 1228 1600 
Q 959 1441 959 1056 
Q 959 750 1161 570 
Q 1363 391 1709 391 
Q 2188 391 2477 730 
Q 2766 1069 2766 1631 
L 2766 1759 
L 2194 1759 
z
M 3341 1997 
L 3341 0 
L 2766 0 
L 2766 531 
Q 2569 213 2275 61 
Q 1981 -91 1556 -91 
Q 1019 -91 701 211 
Q 384 513 384 1019 
Q 384 1609 779 1909 
Q 1175 2209 1959 2209 
L 2766 2209 
L 2766 2266 
Q 2766 2663 2505 2880 
Q 2244 3097 1772 3097 
Q 1472 3097 1187 3025 
Q 903 2953 641 2809 
L 641 3341 
Q 956 3463 1253 3523 
Q 1550 3584 1831 3584 
Q 2591 3584 2966 3190 
Q 3341 2797 3341 1997 
z
" transform="scale(0.015625)"/>
       <path id="DejaVuSans-63" d="M 3122 3366 
L 3122 2828 
Q 2878 2963 2633 3030 
Q 2388 3097 2138 3097 
Q 1578 3097 1268 2742 
Q 959 2388 959 1747 
Q 959 1106 1268 751 
Q 1578 397 2138 397 
Q 2388 397 2633 464 
Q 2878 531 3122 666 
L 3122 134 
Q 2881 22 2623 -34 
Q 2366 -91 2075 -91 
Q 1284 -91 818 406 
Q 353 903 353 1747 
Q 353 2603 823 3093 
Q 1294 3584 2113 3584 
Q 2378 3584 2631 3529 
Q 2884 3475 3122 3366 
z
" transform="scale(0.015625)"/>
      </defs>
      <use xlink:href="#DejaVuSans-49"/>
      <use xlink:href="#DejaVuSans-6e" x="29.492188"/>
      <use xlink:href="#DejaVuSans-74" x="92.871094"/>
      <use xlink:href="#DejaVuSans-65" x="132.080078"/>
      <use xlink:href="#DejaVuSans-72" x="193.603516"/>
      <use xlink:href="#DejaVuSans-66" x="234.716797"/>
      <use xlink:href="#DejaVuSans-61" x="269.921875"/>
      <use xlink:href="#DejaVuSans-63" x="331.201172"/>
      <use xlink:href="#DejaVuSans-65" x="386.181641"/>
     </g>
    </g>
    <g id="PathCollection_84">
     <g>
      <use xlink:href="#m77099c7568" x="498.38" y="115.473437" style="stroke: #000000; stroke-width: 1.5"/>
     </g>
    </g>
    <g id="text_13">
     <!-- Dirichlet -->
     <g transform="translate(516.38 118.098437) scale(0.1 -0.1)">
      <defs>
       <path id="DejaVuSans-44" d="M 1259 4147 
L 1259 519 
L 2022 519 
Q 2988 519 3436 956 
Q 3884 1394 3884 2338 
Q 3884 3275 3436 3711 
Q 2988 4147 2022 4147 
L 1259 4147 
z
M 628 4666 
L 1925 4666 
Q 3281 4666 3915 4102 
Q 4550 3538 4550 2338 
Q 4550 1131 3912 565 
Q 3275 0 1925 0 
L 628 0 
L 628 4666 
z
" transform="scale(0.015625)"/>
       <path id="DejaVuSans-69" d="M 603 3500 
L 1178 3500 
L 1178 0 
L 603 0 
L 603 3500 
z
M 603 4863 
L 1178 4863 
L 1178 4134 
L 603 4134 
L 603 4863 
z
" transform="scale(0.015625)"/>
       <path id="DejaVuSans-68" d="M 3513 2113 
L 3513 0 
L 2938 0 
L 2938 2094 
Q 2938 2591 2744 2837 
Q 2550 3084 2163 3084 
Q 1697 3084 1428 2787 
Q 1159 2491 1159 1978 
L 1159 0 
L 581 0 
L 581 4863 
L 1159 4863 
L 1159 2956 
Q 1366 3272 1645 3428 
Q 1925 3584 2291 3584 
Q 2894 3584 3203 3211 
Q 3513 2838 3513 2113 
z
" transform="scale(0.015625)"/>
       <path id="DejaVuSans-6c" d="M 603 4863 
L 1178 4863 
L 1178 0 
L 603 0 
L 603 4863 
z
" transform="scale(0.015625)"/>
      </defs>
      <use xlink:href="#DejaVuSans-44"/>
      <use xlink:href="#DejaVuSans-69" x="77.001953"/>
      <use xlink:href="#DejaVuSans-72" x="104.785156"/>
      <use xlink:href="#DejaVuSans-69" x="145.898438"/>
      <use xlink:href="#DejaVuSans-63" x="173.681641"/>
      <use xlink:href="#DejaVuSans-68" x="228.662109"/>
      <use xlink:href="#DejaVuSans-6c" x="292.041016"/>
      <use xlink:href="#DejaVuSans-65" x="319.824219"/>
      <use xlink:href="#DejaVuSans-74" x="381.347656"/>
     </g>
    </g>
    <g id="PathCollection_85">
     <g>
      <use xlink:href="#ma8feca69f9" x="498.38" y="130.151562" style="fill: #808080; stroke: #808080"/>
     </g>
    </g>
    <g id="text_14">
     <!-- Free -->
     <g transform="translate(516.38 132.776562) scale(0.1 -0.1)">
      <defs>
       <path id="DejaVuSans-46" d="M 628 4666 
L 3309 4666 
L 3309 4134 
L 1259 4134 
L 1259 2759 
L 3109 2759 
L 3109 2228 
L 1259 2228 
L 1259 0 
L 628 0 
L 628 4666 
z
" transform="scale(0.015625)"/>
      </defs>
      <use xlink:href="#DejaVuSans-46"/>
      <use xlink:href="#DejaVuSans-72" x="50.269531"/>
      <use xlink:href="#DejaVuSans-65" x="89.132812"/>
      <use xlink:href="#DejaVuSans-65" x="150.65625"/>
     </g>
    </g>
   </g>
  </g>
 </g>
 <defs>
  <clipPath id="pca2f20eb47">
   <rect x="10.8" y="96.27739" width="468.58" height="23.44522"/>
  </clipPath>
 </defs>
</svg>
