<?xml version="1.0" encoding="utf-8" standalone="no"?>
<!DOCTYPE svg PUBLIC "-//W3C//DTD SVG 1.1//EN"
  "http://www.w3.org/Graphics/SVG/1.1/DTD/svg11.dtd">
<svg xmlns:xlink="http://www.w3.org/1999/xlink" width="576pt" height="432pt" viewBox="0 0 576 432" xmlns="http://www.w3.org/2000/svg" version="1.1">
 <metadata>
  <rdf:RDF xmlns:dc="http://purl.org/dc/elements/1.1/" xmlns:cc="http://creativecommons.org/ns#" xmlns:rdf="http://www.w3.org/1999/02/22-rdf-syntax-ns#">
   <cc:Work>
    <dc:type rdf:resource="http://purl.org/dc/dcmitype/StillImage"/>
    <dc:date>2025-01-25T10:47:03.086583</dc:date>
    <dc:format>image/svg+xml</dc:format>
    <dc:creator>
     <cc:Agent>
      <dc:title>Matplotlib v3.8.3, https://matplotlib.org/</dc:title>
     </cc:Agent>
    </dc:creator>
   </cc:Work>
  </rdf:RDF>
 </metadata>
 <defs>
  <style type="text/css">*{stroke-linejoin: round; stroke-linecap: butt}</style>
 </defs>
 <g id="figure_1">
  <g id="patch_1">
   <path d="M 0 432 
L 576 432 
L 576 0 
L 0 0 
z
" style="fill: #ffffff"/>
  </g>
  <g id="axes_1">
   <g id="patch_2">
    <path d="M 56.81 390.04 
L 565.2 390.04 
L 565.2 10.87965 
L 56.81 10.87965 
z
" style="fill: #ffffff"/>
   </g>
   <g id="line2d_1">
    <path d="M 79.918636 200.459825 
L 513.205568 200.459825 
L 542.091364 200.459825 
L 85.695795 200.459825 
L 91.472955 200.459825 
L 97.250114 200.459825 
L 103.027273 200.459825 
L 108.804432 200.459825 
L 114.581591 200.459825 
L 120.35875 200.459825 
L 126.135909 200.459825 
L 131.913068 200.459825 
L 137.690227 200.459825 
L 143.467386 200.459825 
L 149.244545 200.459825 
L 155.021705 200.459825 
L 160.798864 200.459825 
L 166.576023 200.459825 
L 172.353182 200.459825 
L 178.130341 200.459825 
L 183.9075 200.459825 
L 189.684659 200.459825 
L 195.461818 200.459825 
L 201.238977 200.459825 
L 207.016136 200.459825 
L 212.793295 200.459825 
L 218.570455 200.459825 
L 224.347614 200.459825 
L 230.124773 200.459825 
L 235.901932 200.459825 
L 241.679091 200.459825 
L 247.45625 200.459825 
L 253.233409 200.459825 
L 259.010568 200.459825 
L 264.787727 200.459825 
L 270.564886 200.459825 
L 276.342045 200.459825 
L 282.119205 200.459825 
L 287.896364 200.459825 
L 293.673523 200.459825 
L 299.450682 200.459825 
L 305.227841 200.459825 
L 311.005 200.459825 
L 316.782159 200.459825 
L 322.559318 200.459825 
L 328.336477 200.459825 
L 334.113636 200.459825 
L 339.890795 200.459825 
L 345.667955 200.459825 
L 351.445114 200.459825 
L 357.222273 200.459825 
L 362.999432 200.459825 
L 368.776591 200.459825 
L 374.55375 200.459825 
L 380.330909 200.459825 
L 386.108068 200.459825 
L 391.885227 200.459825 
L 397.662386 200.459825 
L 403.439545 200.459825 
L 409.216705 200.459825 
L 414.993864 200.459825 
L 420.771023 200.459825 
L 426.548182 200.459825 
L 432.325341 200.459825 
L 438.1025 200.459825 
L 443.879659 200.459825 
L 449.656818 200.459825 
L 455.433977 200.459825 
L 461.211136 200.459825 
L 466.988295 200.459825 
L 472.765455 200.459825 
L 478.542614 200.459825 
L 484.319773 200.459825 
L 490.096932 200.459825 
L 495.874091 200.459825 
L 501.65125 200.459825 
L 507.428409 200.459825 
L 518.982727 200.459825 
L 524.759886 200.459825 
L 530.537045 200.459825 
L 536.314205 200.459825 
" clip-path="url(#p11e49e4647)" style="fill: none; stroke: #808080; stroke-linecap: square"/>
   </g>
   <g id="matplotlib.axis_1">
    <g id="xtick_1">
     <g id="line2d_2">
      <defs>
       <path id="mc6a15d26da" d="M 0 0 
L 0 3.5 
" style="stroke: #000000; stroke-width: 0.8"/>
      </defs>
      <g>
       <use xlink:href="#mc6a15d26da" x="79.918636" y="390.04" style="stroke: #000000; stroke-width: 0.8"/>
      </g>
     </g>
     <g id="text_1">
      <!-- 0.00 -->
      <g transform="translate(68.785824 404.638438) scale(0.1 -0.1)">
       <defs>
        <path id="DejaVuSans-30" d="M 2034 4250 
Q 1547 4250 1301 3770 
Q 1056 3291 1056 2328 
Q 1056 1369 1301 889 
Q 1547 409 2034 409 
Q 2525 409 2770 889 
Q 3016 1369 3016 2328 
Q 3016 3291 2770 3770 
Q 2525 4250 2034 4250 
z
M 2034 4750 
Q 2819 4750 3233 4129 
Q 3647 3509 3647 2328 
Q 3647 1150 3233 529 
Q 2819 -91 2034 -91 
Q 1250 -91 836 529 
Q 422 1150 422 2328 
Q 422 3509 836 4129 
Q 1250 4750 2034 4750 
z
" transform="scale(0.015625)"/>
        <path id="DejaVuSans-2e" d="M 684 794 
L 1344 794 
L 1344 0 
L 684 0 
L 684 794 
z
" transform="scale(0.015625)"/>
       </defs>
       <use xlink:href="#DejaVuSans-30"/>
       <use xlink:href="#DejaVuSans-2e" x="63.623047"/>
       <use xlink:href="#DejaVuSans-30" x="95.410156"/>
       <use xlink:href="#DejaVuSans-30" x="159.033203"/>
      </g>
     </g>
    </g>
    <g id="xtick_2">
     <g id="line2d_3">
      <g>
       <use xlink:href="#mc6a15d26da" x="137.730222" y="390.04" style="stroke: #000000; stroke-width: 0.8"/>
      </g>
     </g>
     <g id="text_2">
      <!-- 0.25 -->
      <g transform="translate(126.597409 404.638438) scale(0.1 -0.1)">
       <defs>
        <path id="DejaVuSans-32" d="M 1228 531 
L 3431 531 
L 3431 0 
L 469 0 
L 469 531 
Q 828 903 1448 1529 
Q 2069 2156 2228 2338 
Q 2531 2678 2651 2914 
Q 2772 3150 2772 3378 
Q 2772 3750 2511 3984 
Q 2250 4219 1831 4219 
Q 1534 4219 1204 4116 
Q 875 4013 500 3803 
L 500 4441 
Q 881 4594 1212 4672 
Q 1544 4750 1819 4750 
Q 2544 4750 2975 4387 
Q 3406 4025 3406 3419 
Q 3406 3131 3298 2873 
Q 3191 2616 2906 2266 
Q 2828 2175 2409 1742 
Q 1991 1309 1228 531 
z
" transform="scale(0.015625)"/>
        <path id="DejaVuSans-35" d="M 691 4666 
L 3169 4666 
L 3169 4134 
L 1269 4134 
L 1269 2991 
Q 1406 3038 1543 3061 
Q 1681 3084 1819 3084 
Q 2600 3084 3056 2656 
Q 3513 2228 3513 1497 
Q 3513 744 3044 326 
Q 2575 -91 1722 -91 
Q 1428 -91 1123 -41 
Q 819 9 494 109 
L 494 744 
Q 775 591 1075 516 
Q 1375 441 1709 441 
Q 2250 441 2565 725 
Q 2881 1009 2881 1497 
Q 2881 1984 2565 2268 
Q 2250 2553 1709 2553 
Q 1456 2553 1204 2497 
Q 953 2441 691 2322 
L 691 4666 
z
" transform="scale(0.015625)"/>
       </defs>
       <use xlink:href="#DejaVuSans-30"/>
       <use xlink:href="#DejaVuSans-2e" x="63.623047"/>
       <use xlink:href="#DejaVuSans-32" x="95.410156"/>
       <use xlink:href="#DejaVuSans-35" x="159.033203"/>
      </g>
     </g>
    </g>
    <g id="xtick_3">
     <g id="line2d_4">
      <g>
       <use xlink:href="#mc6a15d26da" x="195.541807" y="390.04" style="stroke: #000000; stroke-width: 0.8"/>
      </g>
     </g>
     <g id="text_3">
      <!-- 0.50 -->
      <g transform="translate(184.408995 404.638438) scale(0.1 -0.1)">
       <use xlink:href="#DejaVuSans-30"/>
       <use xlink:href="#DejaVuSans-2e" x="63.623047"/>
       <use xlink:href="#DejaVuSans-35" x="95.410156"/>
       <use xlink:href="#DejaVuSans-30" x="159.033203"/>
      </g>
     </g>
    </g>
    <g id="xtick_4">
     <g id="line2d_5">
      <g>
       <use xlink:href="#mc6a15d26da" x="253.353392" y="390.04" style="stroke: #000000; stroke-width: 0.8"/>
      </g>
     </g>
     <g id="text_4">
      <!-- 0.75 -->
      <g transform="translate(242.22058 404.638438) scale(0.1 -0.1)">
       <defs>
        <path id="DejaVuSans-37" d="M 525 4666 
L 3525 4666 
L 3525 4397 
L 1831 0 
L 1172 0 
L 2766 4134 
L 525 4134 
L 525 4666 
z
" transform="scale(0.015625)"/>
       </defs>
       <use xlink:href="#DejaVuSans-30"/>
       <use xlink:href="#DejaVuSans-2e" x="63.623047"/>
       <use xlink:href="#DejaVuSans-37" x="95.410156"/>
       <use xlink:href="#DejaVuSans-35" x="159.033203"/>
      </g>
     </g>
    </g>
    <g id="xtick_5">
     <g id="line2d_6">
      <g>
       <use xlink:href="#mc6a15d26da" x="311.164978" y="390.04" style="stroke: #000000; stroke-width: 0.8"/>
      </g>
     </g>
     <g id="text_5">
      <!-- 1.00 -->
      <g transform="translate(300.032165 404.638438) scale(0.1 -0.1)">
       <defs>
        <path id="DejaVuSans-31" d="M 794 531 
L 1825 531 
L 1825 4091 
L 703 3866 
L 703 4441 
L 1819 4666 
L 2450 4666 
L 2450 531 
L 3481 531 
L 3481 0 
L 794 0 
L 794 531 
z
" transform="scale(0.015625)"/>
       </defs>
       <use xlink:href="#DejaVuSans-31"/>
       <use xlink:href="#DejaVuSans-2e" x="63.623047"/>
       <use xlink:href="#DejaVuSans-30" x="95.410156"/>
       <use xlink:href="#DejaVuSans-30" x="159.033203"/>
      </g>
     </g>
    </g>
    <g id="xtick_6">
     <g id="line2d_7">
      <g>
       <use xlink:href="#mc6a15d26da" x="368.976563" y="390.04" style="stroke: #000000; stroke-width: 0.8"/>
      </g>
     </g>
     <g id="text_6">
      <!-- 1.25 -->
      <g transform="translate(357.843751 404.638438) scale(0.1 -0.1)">
       <use xlink:href="#DejaVuSans-31"/>
       <use xlink:href="#DejaVuSans-2e" x="63.623047"/>
       <use xlink:href="#DejaVuSans-32" x="95.410156"/>
       <use xlink:href="#DejaVuSans-35" x="159.033203"/>
      </g>
     </g>
    </g>
    <g id="xtick_7">
     <g id="line2d_8">
      <g>
       <use xlink:href="#mc6a15d26da" x="426.788148" y="390.04" style="stroke: #000000; stroke-width: 0.8"/>
      </g>
     </g>
     <g id="text_7">
      <!-- 1.50 -->
      <g transform="translate(415.655336 404.638438) scale(0.1 -0.1)">
       <use xlink:href="#DejaVuSans-31"/>
       <use xlink:href="#DejaVuSans-2e" x="63.623047"/>
       <use xlink:href="#DejaVuSans-35" x="95.410156"/>
       <use xlink:href="#DejaVuSans-30" x="159.033203"/>
      </g>
     </g>
    </g>
    <g id="xtick_8">
     <g id="line2d_9">
      <g>
       <use xlink:href="#mc6a15d26da" x="484.599734" y="390.04" style="stroke: #000000; stroke-width: 0.8"/>
      </g>
     </g>
     <g id="text_8">
      <!-- 1.75 -->
      <g transform="translate(473.466921 404.638438) scale(0.1 -0.1)">
       <use xlink:href="#DejaVuSans-31"/>
       <use xlink:href="#DejaVuSans-2e" x="63.623047"/>
       <use xlink:href="#DejaVuSans-37" x="95.410156"/>
       <use xlink:href="#DejaVuSans-35" x="159.033203"/>
      </g>
     </g>
    </g>
    <g id="xtick_9">
     <g id="line2d_10">
      <g>
       <use xlink:href="#mc6a15d26da" x="542.411319" y="390.04" style="stroke: #000000; stroke-width: 0.8"/>
      </g>
     </g>
     <g id="text_9">
      <!-- 2.00 -->
      <g transform="translate(531.278507 404.638438) scale(0.1 -0.1)">
       <use xlink:href="#DejaVuSans-32"/>
       <use xlink:href="#DejaVuSans-2e" x="63.623047"/>
       <use xlink:href="#DejaVuSans-30" x="95.410156"/>
       <use xlink:href="#DejaVuSans-30" x="159.033203"/>
      </g>
     </g>
    </g>
    <g id="text_10">
     <!-- $x$ -->
     <g transform="translate(308.005 418.316562) scale(0.1 -0.1)">
      <defs>
       <path id="DejaVuSans-Oblique-78" d="M 3841 3500 
L 2234 1784 
L 3219 0 
L 2559 0 
L 1819 1388 
L 531 0 
L -166 0 
L 1556 1844 
L 641 3500 
L 1300 3500 
L 1972 2234 
L 3144 3500 
L 3841 3500 
z
" transform="scale(0.015625)"/>
      </defs>
      <use xlink:href="#DejaVuSans-Oblique-78" transform="translate(0 0.3125)"/>
     </g>
    </g>
   </g>
   <g id="matplotlib.axis_2">
    <g id="ytick_1">
     <g id="line2d_11">
      <defs>
       <path id="m85cd44e5d5" d="M 0 0 
L -3.5 0 
" style="stroke: #000000; stroke-width: 0.8"/>
      </defs>
      <g>
       <use xlink:href="#m85cd44e5d5" x="56.81" y="385.616975" style="stroke: #000000; stroke-width: 0.8"/>
      </g>
     </g>
     <g id="text_11">
      <!-- −0.8 -->
      <g transform="translate(25.527188 389.416194) scale(0.1 -0.1)">
       <defs>
        <path id="DejaVuSans-2212" d="M 678 2272 
L 4684 2272 
L 4684 1741 
L 678 1741 
L 678 2272 
z
" transform="scale(0.015625)"/>
        <path id="DejaVuSans-38" d="M 2034 2216 
Q 1584 2216 1326 1975 
Q 1069 1734 1069 1313 
Q 1069 891 1326 650 
Q 1584 409 2034 409 
Q 2484 409 2743 651 
Q 3003 894 3003 1313 
Q 3003 1734 2745 1975 
Q 2488 2216 2034 2216 
z
M 1403 2484 
Q 997 2584 770 2862 
Q 544 3141 544 3541 
Q 544 4100 942 4425 
Q 1341 4750 2034 4750 
Q 2731 4750 3128 4425 
Q 3525 4100 3525 3541 
Q 3525 3141 3298 2862 
Q 3072 2584 2669 2484 
Q 3125 2378 3379 2068 
Q 3634 1759 3634 1313 
Q 3634 634 3220 271 
Q 2806 -91 2034 -91 
Q 1263 -91 848 271 
Q 434 634 434 1313 
Q 434 1759 690 2068 
Q 947 2378 1403 2484 
z
M 1172 3481 
Q 1172 3119 1398 2916 
Q 1625 2713 2034 2713 
Q 2441 2713 2670 2916 
Q 2900 3119 2900 3481 
Q 2900 3844 2670 4047 
Q 2441 4250 2034 4250 
Q 1625 4250 1398 4047 
Q 1172 3844 1172 3481 
z
" transform="scale(0.015625)"/>
       </defs>
       <use xlink:href="#DejaVuSans-2212"/>
       <use xlink:href="#DejaVuSans-30" x="83.789062"/>
       <use xlink:href="#DejaVuSans-2e" x="147.412109"/>
       <use xlink:href="#DejaVuSans-38" x="179.199219"/>
      </g>
     </g>
    </g>
    <g id="ytick_2">
     <g id="line2d_12">
      <g>
       <use xlink:href="#m85cd44e5d5" x="56.81" y="339.327687" style="stroke: #000000; stroke-width: 0.8"/>
      </g>
     </g>
     <g id="text_12">
      <!-- −0.6 -->
      <g transform="translate(25.527188 343.126906) scale(0.1 -0.1)">
       <defs>
        <path id="DejaVuSans-36" d="M 2113 2584 
Q 1688 2584 1439 2293 
Q 1191 2003 1191 1497 
Q 1191 994 1439 701 
Q 1688 409 2113 409 
Q 2538 409 2786 701 
Q 3034 994 3034 1497 
Q 3034 2003 2786 2293 
Q 2538 2584 2113 2584 
z
M 3366 4563 
L 3366 3988 
Q 3128 4100 2886 4159 
Q 2644 4219 2406 4219 
Q 1781 4219 1451 3797 
Q 1122 3375 1075 2522 
Q 1259 2794 1537 2939 
Q 1816 3084 2150 3084 
Q 2853 3084 3261 2657 
Q 3669 2231 3669 1497 
Q 3669 778 3244 343 
Q 2819 -91 2113 -91 
Q 1303 -91 875 529 
Q 447 1150 447 2328 
Q 447 3434 972 4092 
Q 1497 4750 2381 4750 
Q 2619 4750 2861 4703 
Q 3103 4656 3366 4563 
z
" transform="scale(0.015625)"/>
       </defs>
       <use xlink:href="#DejaVuSans-2212"/>
       <use xlink:href="#DejaVuSans-30" x="83.789062"/>
       <use xlink:href="#DejaVuSans-2e" x="147.412109"/>
       <use xlink:href="#DejaVuSans-36" x="179.199219"/>
      </g>
     </g>
    </g>
    <g id="ytick_3">
     <g id="line2d_13">
      <g>
       <use xlink:href="#m85cd44e5d5" x="56.81" y="293.0384" style="stroke: #000000; stroke-width: 0.8"/>
      </g>
     </g>
     <g id="text_13">
      <!-- −0.4 -->
      <g transform="translate(25.527188 296.837619) scale(0.1 -0.1)">
       <defs>
        <path id="DejaVuSans-34" d="M 2419 4116 
L 825 1625 
L 2419 1625 
L 2419 4116 
z
M 2253 4666 
L 3047 4666 
L 3047 1625 
L 3713 1625 
L 3713 1100 
L 3047 1100 
L 3047 0 
L 2419 0 
L 2419 1100 
L 313 1100 
L 313 1709 
L 2253 4666 
z
" transform="scale(0.015625)"/>
       </defs>
       <use xlink:href="#DejaVuSans-2212"/>
       <use xlink:href="#DejaVuSans-30" x="83.789062"/>
       <use xlink:href="#DejaVuSans-2e" x="147.412109"/>
       <use xlink:href="#DejaVuSans-34" x="179.199219"/>
      </g>
     </g>
    </g>
    <g id="ytick_4">
     <g id="line2d_14">
      <g>
       <use xlink:href="#m85cd44e5d5" x="56.81" y="246.749112" style="stroke: #000000; stroke-width: 0.8"/>
      </g>
     </g>
     <g id="text_14">
      <!-- −0.2 -->
      <g transform="translate(25.527188 250.548331) scale(0.1 -0.1)">
       <use xlink:href="#DejaVuSans-2212"/>
       <use xlink:href="#DejaVuSans-30" x="83.789062"/>
       <use xlink:href="#DejaVuSans-2e" x="147.412109"/>
       <use xlink:href="#DejaVuSans-32" x="179.199219"/>
      </g>
     </g>
    </g>
    <g id="ytick_5">
     <g id="line2d_15">
      <g>
       <use xlink:href="#m85cd44e5d5" x="56.81" y="200.459825" style="stroke: #000000; stroke-width: 0.8"/>
      </g>
     </g>
     <g id="text_15">
      <!-- 0.0 -->
      <g transform="translate(33.906875 204.259044) scale(0.1 -0.1)">
       <use xlink:href="#DejaVuSans-30"/>
       <use xlink:href="#DejaVuSans-2e" x="63.623047"/>
       <use xlink:href="#DejaVuSans-30" x="95.410156"/>
      </g>
     </g>
    </g>
    <g id="ytick_6">
     <g id="line2d_16">
      <g>
       <use xlink:href="#m85cd44e5d5" x="56.81" y="154.170537" style="stroke: #000000; stroke-width: 0.8"/>
      </g>
     </g>
     <g id="text_16">
      <!-- 0.2 -->
      <g transform="translate(33.906875 157.969756) scale(0.1 -0.1)">
       <use xlink:href="#DejaVuSans-30"/>
       <use xlink:href="#DejaVuSans-2e" x="63.623047"/>
       <use xlink:href="#DejaVuSans-32" x="95.410156"/>
      </g>
     </g>
    </g>
    <g id="ytick_7">
     <g id="line2d_17">
      <g>
       <use xlink:href="#m85cd44e5d5" x="56.81" y="107.88125" style="stroke: #000000; stroke-width: 0.8"/>
      </g>
     </g>
     <g id="text_17">
      <!-- 0.4 -->
      <g transform="translate(33.906875 111.680468) scale(0.1 -0.1)">
       <use xlink:href="#DejaVuSans-30"/>
       <use xlink:href="#DejaVuSans-2e" x="63.623047"/>
       <use xlink:href="#DejaVuSans-34" x="95.410156"/>
      </g>
     </g>
    </g>
    <g id="ytick_8">
     <g id="line2d_18">
      <g>
       <use xlink:href="#m85cd44e5d5" x="56.81" y="61.591962" style="stroke: #000000; stroke-width: 0.8"/>
      </g>
     </g>
     <g id="text_18">
      <!-- 0.6 -->
      <g transform="translate(33.906875 65.391181) scale(0.1 -0.1)">
       <use xlink:href="#DejaVuSans-30"/>
       <use xlink:href="#DejaVuSans-2e" x="63.623047"/>
       <use xlink:href="#DejaVuSans-36" x="95.410156"/>
      </g>
     </g>
    </g>
    <g id="ytick_9">
     <g id="line2d_19">
      <g>
       <use xlink:href="#m85cd44e5d5" x="56.81" y="15.302675" style="stroke: #000000; stroke-width: 0.8"/>
      </g>
     </g>
     <g id="text_19">
      <!-- 0.8 -->
      <g transform="translate(33.906875 19.101893) scale(0.1 -0.1)">
       <use xlink:href="#DejaVuSans-30"/>
       <use xlink:href="#DejaVuSans-2e" x="63.623047"/>
       <use xlink:href="#DejaVuSans-38" x="95.410156"/>
      </g>
     </g>
    </g>
    <g id="text_20">
     <!-- $y$ -->
     <g transform="translate(19.427188 203.459825) rotate(-90) scale(0.1 -0.1)">
      <defs>
       <path id="DejaVuSans-Oblique-79" d="M 1588 -325 
Q 1188 -997 936 -1164 
Q 684 -1331 294 -1331 
L -159 -1331 
L -63 -850 
L 269 -850 
Q 509 -850 678 -719 
Q 847 -588 1056 -206 
L 1234 128 
L 459 3500 
L 1069 3500 
L 1650 819 
L 3256 3500 
L 3859 3500 
L 1588 -325 
z
" transform="scale(0.015625)"/>
      </defs>
      <use xlink:href="#DejaVuSans-Oblique-79" transform="translate(0 0.3125)"/>
     </g>
    </g>
   </g>
   <g id="patch_3">
    <path d="M 56.81 390.04 
L 56.81 10.87965 
" style="fill: none; stroke: #000000; stroke-width: 0.8; stroke-linejoin: miter; stroke-linecap: square"/>
   </g>
   <g id="patch_4">
    <path d="M 565.2 390.04 
L 565.2 10.87965 
" style="fill: none; stroke: #000000; stroke-width: 0.8; stroke-linejoin: miter; stroke-linecap: square"/>
   </g>
   <g id="patch_5">
    <path d="M 56.81 390.04 
L 565.2 390.04 
" style="fill: none; stroke: #000000; stroke-width: 0.8; stroke-linejoin: miter; stroke-linecap: square"/>
   </g>
   <g id="patch_6">
    <path d="M 56.81 10.87965 
L 565.2 10.87965 
" style="fill: none; stroke: #000000; stroke-width: 0.8; stroke-linejoin: miter; stroke-linecap: square"/>
   </g>
   <g id="PathCollection_1">
    <defs>
     <path id="m5a62908d80" d="M 0 0.5 
C 0.132602 0.5 0.25979 0.447317 0.353553 0.353553 
C 0.447317 0.25979 0.5 0.132602 0.5 0 
C 0.5 -0.132602 0.447317 -0.25979 0.353553 -0.353553 
C 0.25979 -0.447317 0.132602 -0.5 0 -0.5 
C -0.132602 -0.5 -0.25979 -0.447317 -0.353553 -0.353553 
C -0.447317 -0.25979 -0.5 -0.132602 -0.5 0 
C -0.5 0.132602 -0.447317 0.25979 -0.353553 0.353553 
C -0.25979 0.447317 -0.132602 0.5 0 0.5 
z
" style="stroke: #000000"/>
    </defs>
    <g clip-path="url(#p11e49e4647)">
     <use xlink:href="#m5a62908d80" x="79.918636" y="200.459825" style="stroke: #000000"/>
     <use xlink:href="#m5a62908d80" x="513.205568" y="200.459825" style="stroke: #000000"/>
     <use xlink:href="#m5a62908d80" x="542.091364" y="200.459825" style="stroke: #000000"/>
     <use xlink:href="#m5a62908d80" x="85.695795" y="200.459825" style="stroke: #000000"/>
     <use xlink:href="#m5a62908d80" x="91.472955" y="200.459825" style="stroke: #000000"/>
     <use xlink:href="#m5a62908d80" x="97.250114" y="200.459825" style="stroke: #000000"/>
     <use xlink:href="#m5a62908d80" x="103.027273" y="200.459825" style="stroke: #000000"/>
     <use xlink:href="#m5a62908d80" x="108.804432" y="200.459825" style="stroke: #000000"/>
     <use xlink:href="#m5a62908d80" x="114.581591" y="200.459825" style="stroke: #000000"/>
     <use xlink:href="#m5a62908d80" x="120.35875" y="200.459825" style="stroke: #000000"/>
     <use xlink:href="#m5a62908d80" x="126.135909" y="200.459825" style="stroke: #000000"/>
     <use xlink:href="#m5a62908d80" x="131.913068" y="200.459825" style="stroke: #000000"/>
     <use xlink:href="#m5a62908d80" x="137.690227" y="200.459825" style="stroke: #000000"/>
     <use xlink:href="#m5a62908d80" x="143.467386" y="200.459825" style="stroke: #000000"/>
     <use xlink:href="#m5a62908d80" x="149.244545" y="200.459825" style="stroke: #000000"/>
     <use xlink:href="#m5a62908d80" x="155.021705" y="200.459825" style="stroke: #000000"/>
     <use xlink:href="#m5a62908d80" x="160.798864" y="200.459825" style="stroke: #000000"/>
     <use xlink:href="#m5a62908d80" x="166.576023" y="200.459825" style="stroke: #000000"/>
     <use xlink:href="#m5a62908d80" x="172.353182" y="200.459825" style="stroke: #000000"/>
     <use xlink:href="#m5a62908d80" x="178.130341" y="200.459825" style="stroke: #000000"/>
     <use xlink:href="#m5a62908d80" x="183.9075" y="200.459825" style="stroke: #000000"/>
     <use xlink:href="#m5a62908d80" x="189.684659" y="200.459825" style="stroke: #000000"/>
     <use xlink:href="#m5a62908d80" x="195.461818" y="200.459825" style="stroke: #000000"/>
     <use xlink:href="#m5a62908d80" x="201.238977" y="200.459825" style="stroke: #000000"/>
     <use xlink:href="#m5a62908d80" x="207.016136" y="200.459825" style="stroke: #000000"/>
     <use xlink:href="#m5a62908d80" x="212.793295" y="200.459825" style="stroke: #000000"/>
     <use xlink:href="#m5a62908d80" x="218.570455" y="200.459825" style="stroke: #000000"/>
     <use xlink:href="#m5a62908d80" x="224.347614" y="200.459825" style="stroke: #000000"/>
     <use xlink:href="#m5a62908d80" x="230.124773" y="200.459825" style="stroke: #000000"/>
     <use xlink:href="#m5a62908d80" x="235.901932" y="200.459825" style="stroke: #000000"/>
     <use xlink:href="#m5a62908d80" x="241.679091" y="200.459825" style="stroke: #000000"/>
     <use xlink:href="#m5a62908d80" x="247.45625" y="200.459825" style="stroke: #000000"/>
     <use xlink:href="#m5a62908d80" x="253.233409" y="200.459825" style="stroke: #000000"/>
     <use xlink:href="#m5a62908d80" x="259.010568" y="200.459825" style="stroke: #000000"/>
     <use xlink:href="#m5a62908d80" x="264.787727" y="200.459825" style="stroke: #000000"/>
     <use xlink:href="#m5a62908d80" x="270.564886" y="200.459825" style="stroke: #000000"/>
     <use xlink:href="#m5a62908d80" x="276.342045" y="200.459825" style="stroke: #000000"/>
     <use xlink:href="#m5a62908d80" x="282.119205" y="200.459825" style="stroke: #000000"/>
     <use xlink:href="#m5a62908d80" x="287.896364" y="200.459825" style="stroke: #000000"/>
     <use xlink:href="#m5a62908d80" x="293.673523" y="200.459825" style="stroke: #000000"/>
     <use xlink:href="#m5a62908d80" x="299.450682" y="200.459825" style="stroke: #000000"/>
     <use xlink:href="#m5a62908d80" x="305.227841" y="200.459825" style="stroke: #000000"/>
     <use xlink:href="#m5a62908d80" x="311.005" y="200.459825" style="stroke: #000000"/>
     <use xlink:href="#m5a62908d80" x="316.782159" y="200.459825" style="stroke: #000000"/>
     <use xlink:href="#m5a62908d80" x="322.559318" y="200.459825" style="stroke: #000000"/>
     <use xlink:href="#m5a62908d80" x="328.336477" y="200.459825" style="stroke: #000000"/>
     <use xlink:href="#m5a62908d80" x="334.113636" y="200.459825" style="stroke: #000000"/>
     <use xlink:href="#m5a62908d80" x="339.890795" y="200.459825" style="stroke: #000000"/>
     <use xlink:href="#m5a62908d80" x="345.667955" y="200.459825" style="stroke: #000000"/>
     <use xlink:href="#m5a62908d80" x="351.445114" y="200.459825" style="stroke: #000000"/>
     <use xlink:href="#m5a62908d80" x="357.222273" y="200.459825" style="stroke: #000000"/>
     <use xlink:href="#m5a62908d80" x="362.999432" y="200.459825" style="stroke: #000000"/>
     <use xlink:href="#m5a62908d80" x="368.776591" y="200.459825" style="stroke: #000000"/>
     <use xlink:href="#m5a62908d80" x="374.55375" y="200.459825" style="stroke: #000000"/>
     <use xlink:href="#m5a62908d80" x="380.330909" y="200.459825" style="stroke: #000000"/>
     <use xlink:href="#m5a62908d80" x="386.108068" y="200.459825" style="stroke: #000000"/>
     <use xlink:href="#m5a62908d80" x="391.885227" y="200.459825" style="stroke: #000000"/>
     <use xlink:href="#m5a62908d80" x="397.662386" y="200.459825" style="stroke: #000000"/>
     <use xlink:href="#m5a62908d80" x="403.439545" y="200.459825" style="stroke: #000000"/>
     <use xlink:href="#m5a62908d80" x="409.216705" y="200.459825" style="stroke: #000000"/>
     <use xlink:href="#m5a62908d80" x="414.993864" y="200.459825" style="stroke: #000000"/>
     <use xlink:href="#m5a62908d80" x="420.771023" y="200.459825" style="stroke: #000000"/>
     <use xlink:href="#m5a62908d80" x="426.548182" y="200.459825" style="stroke: #000000"/>
     <use xlink:href="#m5a62908d80" x="432.325341" y="200.459825" style="stroke: #000000"/>
     <use xlink:href="#m5a62908d80" x="438.1025" y="200.459825" style="stroke: #000000"/>
     <use xlink:href="#m5a62908d80" x="443.879659" y="200.459825" style="stroke: #000000"/>
     <use xlink:href="#m5a62908d80" x="449.656818" y="200.459825" style="stroke: #000000"/>
     <use xlink:href="#m5a62908d80" x="455.433977" y="200.459825" style="stroke: #000000"/>
     <use xlink:href="#m5a62908d80" x="461.211136" y="200.459825" style="stroke: #000000"/>
     <use xlink:href="#m5a62908d80" x="466.988295" y="200.459825" style="stroke: #000000"/>
     <use xlink:href="#m5a62908d80" x="472.765455" y="200.459825" style="stroke: #000000"/>
     <use xlink:href="#m5a62908d80" x="478.542614" y="200.459825" style="stroke: #000000"/>
     <use xlink:href="#m5a62908d80" x="484.319773" y="200.459825" style="stroke: #000000"/>
     <use xlink:href="#m5a62908d80" x="490.096932" y="200.459825" style="stroke: #000000"/>
     <use xlink:href="#m5a62908d80" x="495.874091" y="200.459825" style="stroke: #000000"/>
     <use xlink:href="#m5a62908d80" x="501.65125" y="200.459825" style="stroke: #000000"/>
     <use xlink:href="#m5a62908d80" x="507.428409" y="200.459825" style="stroke: #000000"/>
     <use xlink:href="#m5a62908d80" x="518.982727" y="200.459825" style="stroke: #000000"/>
     <use xlink:href="#m5a62908d80" x="524.759886" y="200.459825" style="stroke: #000000"/>
     <use xlink:href="#m5a62908d80" x="530.537045" y="200.459825" style="stroke: #000000"/>
     <use xlink:href="#m5a62908d80" x="536.314205" y="200.459825" style="stroke: #000000"/>
    </g>
   </g>
  </g>
 </g>
 <defs>
  <clipPath id="p11e49e4647">
   <rect x="56.81" y="10.87965" width="508.39" height="379.16035"/>
  </clipPath>
 </defs>
</svg>
